<svg class="main-svg" style="position: absolute" xmlns="http://www.w3.org/2000/svg" xmlns:xlink="http://www.w3.org/1999/xlink" width="1128.701388888889" height="642" style="background: rgb(255, 255, 255);"><defs id="defs-e3843e"><g class="clips"><clipPath id="clipe3843exyplot" class="plotclip"><rect width="969" height="462"></rect></clipPath><clipPath class="axesclip" id="clipe3843ex"><rect x="80" y="0" width="969" height="642"></rect></clipPath><clipPath class="axesclip" id="clipe3843ey"><rect x="0" y="100" width="1128.701388888889" height="462"></rect></clipPath><clipPath class="axesclip" id="clipe3843exy"><rect x="80" y="100" width="969" height="462"></rect></clipPath></g><g class="gradients"></g></defs><g class="bglayer"></g><g class="draglayer cursor-crosshair"><g class="xy"><rect class="nsewdrag drag" data-subplot="xy" x="80" y="100" width="969" height="462" style="fill: transparent; stroke-width: 0; pointer-events: all;"></rect><rect class="nwdrag drag cursor-nw-resize" data-subplot="xy" x="60" y="80" width="20" height="20" style="fill: transparent; stroke-width: 0; pointer-events: all;"></rect><rect class="nedrag drag cursor-ne-resize" data-subplot="xy" x="1049" y="80" width="20" height="20" style="fill: transparent; stroke-width: 0; pointer-events: all;"></rect><rect class="swdrag drag cursor-sw-resize" data-subplot="xy" x="60" y="562" width="20" height="20" style="fill: transparent; stroke-width: 0; pointer-events: all;"></rect><rect class="sedrag drag cursor-se-resize" data-subplot="xy" x="1049" y="562" width="20" height="20" style="fill: transparent; stroke-width: 0; pointer-events: all;"></rect><rect class="ewdrag drag cursor-ew-resize" data-subplot="xy" x="176.9" y="562.5" width="775.2" height="20" style="fill: transparent; stroke-width: 0; pointer-events: all;"></rect><rect class="wdrag drag cursor-w-resize" data-subplot="xy" x="80" y="562.5" width="96.9" height="20" style="fill: transparent; stroke-width: 0; pointer-events: all;"></rect><rect class="edrag drag cursor-e-resize" data-subplot="xy" x="952.1" y="562.5" width="96.9" height="20" style="fill: transparent; stroke-width: 0; pointer-events: all;"></rect><rect class="nsdrag drag cursor-ns-resize" data-subplot="xy" x="59.5" y="146.2" width="20" height="369.6" style="fill: transparent; stroke-width: 0; pointer-events: all;"></rect><rect class="sdrag drag cursor-s-resize" data-subplot="xy" x="59.5" y="515.8" width="20" height="46.2" style="fill: transparent; stroke-width: 0; pointer-events: all;"></rect><rect class="ndrag drag cursor-n-resize" data-subplot="xy" x="59.5" y="100" width="20" height="46.2" style="fill: transparent; stroke-width: 0; pointer-events: all;"></rect></g></g><g class="layer-below"><g class="imagelayer"></g><g class="shapelayer"></g></g><g class="cartesianlayer"><g class="subplot xy"><g class="layer-subplot"><g class="shapelayer"></g><g class="imagelayer"></g></g><g class="gridlayer"><g class="x"><path class="xgrid crisp" transform="translate(184.76,0)" d="M0,100v462" style="stroke: rgb(238, 238, 238); stroke-opacity: 1; stroke-width: 1px;"></path><path class="xgrid crisp" transform="translate(289.51,0)" d="M0,100v462" style="stroke: rgb(238, 238, 238); stroke-opacity: 1; stroke-width: 1px;"></path><path class="xgrid crisp" transform="translate(394.27,0)" d="M0,100v462" style="stroke: rgb(238, 238, 238); stroke-opacity: 1; stroke-width: 1px;"></path><path class="xgrid crisp" transform="translate(499.03,0)" d="M0,100v462" style="stroke: rgb(238, 238, 238); stroke-opacity: 1; stroke-width: 1px;"></path><path class="xgrid crisp" transform="translate(603.78,0)" d="M0,100v462" style="stroke: rgb(238, 238, 238); stroke-opacity: 1; stroke-width: 1px;"></path><path class="xgrid crisp" transform="translate(708.54,0)" d="M0,100v462" style="stroke: rgb(238, 238, 238); stroke-opacity: 1; stroke-width: 1px;"></path><path class="xgrid crisp" transform="translate(813.3,0)" d="M0,100v462" style="stroke: rgb(238, 238, 238); stroke-opacity: 1; stroke-width: 1px;"></path><path class="xgrid crisp" transform="translate(918.05,0)" d="M0,100v462" style="stroke: rgb(238, 238, 238); stroke-opacity: 1; stroke-width: 1px;"></path><path class="xgrid crisp" transform="translate(1022.81,0)" d="M0,100v462" style="stroke: rgb(238, 238, 238); stroke-opacity: 1; stroke-width: 1px;"></path></g><g class="y"><path class="ygrid crisp" transform="translate(0,535.54)" d="M80,0h969" style="stroke: rgb(238, 238, 238); stroke-opacity: 1; stroke-width: 1px;"></path><path class="ygrid crisp" transform="translate(0,412.01)" d="M80,0h969" style="stroke: rgb(238, 238, 238); stroke-opacity: 1; stroke-width: 1px;"></path><path class="ygrid crisp" transform="translate(0,350.25)" d="M80,0h969" style="stroke: rgb(238, 238, 238); stroke-opacity: 1; stroke-width: 1px;"></path><path class="ygrid crisp" transform="translate(0,288.48)" d="M80,0h969" style="stroke: rgb(238, 238, 238); stroke-opacity: 1; stroke-width: 1px;"></path><path class="ygrid crisp" transform="translate(0,226.72)" d="M80,0h969" style="stroke: rgb(238, 238, 238); stroke-opacity: 1; stroke-width: 1px;"></path><path class="ygrid crisp" transform="translate(0,164.95999999999998)" d="M80,0h969" style="stroke: rgb(238, 238, 238); stroke-opacity: 1; stroke-width: 1px;"></path><path class="ygrid crisp" transform="translate(0,103.19)" d="M80,0h969" style="stroke: rgb(238, 238, 238); stroke-opacity: 1; stroke-width: 1px;"></path></g></g><g class="zerolinelayer"><path class="xzl zl crisp" transform="translate(80,0)" d="M0,100v462" style="stroke: rgb(68, 68, 68); stroke-opacity: 1; stroke-width: 1px;"></path><path class="yzl zl crisp" transform="translate(0,473.77)" d="M80,0h969" style="stroke: rgb(68, 68, 68); stroke-opacity: 1; stroke-width: 1px;"></path></g><path class="xlines-below"></path><path class="ylines-below"></path><g class="overlines-below"></g><g class="xaxislayer-below"></g><g class="yaxislayer-below"></g><g class="overaxes-below"></g><g class="plot" transform="translate(80,100)" clip-path="url('#clipe3843exyplot')"><g class="scatterlayer mlayer"><g class="trace scatter trace8916b5" style="stroke-miterlimit: 2; opacity: 1;"><g class="fills"></g><g class="errorbars"></g><g class="lines"><path class="js-line" d="M0,356.24L1.05,396.32L2.1,396.32L3.14,356.24L4.19,396.32L5.24,356.24L6.29,356.24L7.33,356.24L8.38,396.32L9.43,356.24L10.48,356.24L11.52,356.24L12.57,396.32L17.81,396.32L18.86,356.24L19.9,356.24L20.95,396.32L24.09,396.32L25.14,356.24L26.19,396.32L27.24,396.32L28.28,396.32L29.33,356.24L30.38,356.24L31.43,396.32L32.47,356.24L33.52,356.24L35.62,438.9L36.66,356.24L37.71,396.32L38.76,396.32L39.81,396.32L40.86,313.66L41.9,396.32L42.95,356.24L45.05,356.24L46.09,396.32L47.14,396.32L48.19,356.24L49.24,356.24L50.28,396.32L51.33,356.24L52.38,438.9L53.43,356.24L54.47,396.32L55.52,356.24L56.57,396.32L57.62,438.9L58.66,396.32L59.71,356.24L60.76,356.24L61.81,396.32L62.85,313.66L63.9,356.24L64.95,356.24L66,396.32L67.04,396.32L68.09,438.9L69.14,356.24L70.19,356.24L71.23,396.32L72.28,356.24L73.33,356.24L75.42,356.24L76.47,396.32L77.52,356.24L78.57,396.32L79.62,356.24L80.66,438.9L81.71,396.32L82.76,396.32L83.81,356.24L84.85,396.32L86.95,313.66L88,356.24L89.04,438.9L90.09,396.32L95.33,396.32L96.38,356.24L98.47,356.24L99.52,396.32L100.57,356.24L101.61,396.32L102.66,356.24L103.71,396.32L104.76,356.24L105.8,356.24L106.85,313.66L107.9,356.24L113.14,356.24L114.18,396.32L116.28,396.32L117.33,356.24L118.38,396.32L119.42,396.32L120.47,396.32L121.52,313.66L122.57,356.24L123.61,356.24L124.66,396.32L125.71,356.24L127.8,356.24L128.85,396.32L130.95,396.32L131.99,356.24L133.04,396.32L134.09,396.32L135.14,356.24L136.18,396.32L137.23,356.24L138.28,356.24L139.33,438.9L140.37,396.32L141.42,356.24L142.47,356.24L143.52,396.32L144.56,356.24L145.61,356.24L146.66,396.32L147.71,356.24L148.75,356.24L151.9,356.24L152.94,396.32L153.99,438.9L155.04,396.32L156.09,356.24L157.14,356.24L158.18,396.32L159.23,396.32L160.28,356.24L161.33,356.24L162.37,313.66L163.42,356.24L164.47,396.32L165.52,313.66L167.61,396.32L168.66,313.66L169.71,356.24L170.75,356.24L171.8,273.58L172.85,356.24L173.9,313.66L174.94,313.66L175.99,356.24L177.04,273.58L178.09,313.66L179.13,313.66L180.18,273.58L181.23,273.58L182.28,231L183.32,273.58L184.37,273.58L185.42,231L186.47,231L187.51,190.92L188.56,273.58L189.61,190.92L190.66,231L191.7,231L192.75,231L193.8,190.92L194.85,190.92L195.9,148.34L197.99,231L199.04,231L200.09,148.34L201.13,231L202.18,231L203.23,190.92L204.28,190.92L205.32,273.58L206.37,190.92L207.42,190.92L208.47,231L209.51,190.92L210.56,231L211.61,190.92L212.66,231L213.7,231L214.75,190.92L215.8,231L216.85,231L217.89,190.92L218.94,190.92L219.99,231L221.04,273.58L222.08,231L223.13,231L224.18,190.92L226.27,190.92L227.32,231L228.37,190.92L229.42,190.92L231.51,190.92L232.56,231L234.66,148.34L235.7,148.34L236.75,148.34L237.8,190.92L238.85,231L239.89,148.34L240.94,190.92L241.99,105.76L243.04,190.92L244.08,148.34L246.18,148.34L247.23,105.76L249.32,105.76L250.37,148.34L251.42,105.76L252.46,105.76L253.51,148.34L254.56,105.76L255.61,65.68L256.65,65.68L257.7,65.68L258.75,105.76L265.03,105.76L266.08,148.34L267.13,148.34L268.18,105.76L271.32,105.76L272.37,148.34L274.46,65.68L275.51,65.68L276.56,148.34L277.61,105.76L279.7,105.76L280.75,148.34L281.8,105.76L282.84,105.76L288.08,105.76L289.13,65.68L290.18,105.76L291.22,105.76L292.27,105.76L293.32,65.68L294.37,105.76L295.41,105.76L296.46,105.76L297.51,148.34L298.56,105.76L299.6,148.34L300.65,105.76L301.7,105.76L312.18,105.76L313.22,148.34L314.27,105.76L315.32,105.76L316.37,148.34L317.41,105.76L318.46,148.34L319.51,105.76L320.56,190.92L321.6,148.34L322.65,148.34L323.7,105.76L324.75,148.34L325.79,148.34L328.94,148.34L329.98,105.76L331.03,190.92L332.08,148.34L333.13,148.34L334.17,190.92L335.22,148.34L336.27,148.34L338.36,148.34L339.41,190.92L340.46,148.34L341.51,148.34L346.74,148.34L347.79,105.76L349.89,190.92L350.94,148.34L351.98,148.34L353.03,105.76L354.08,190.92L355.13,148.34L357.22,148.34L358.27,190.92L359.32,105.76L360.36,148.34L363.51,148.34L364.55,105.76L365.6,65.68L366.65,148.34L367.7,148.34L368.74,105.76L369.79,148.34L370.84,148.34L371.89,148.34L372.93,105.76L373.98,105.76L375.03,148.34L376.08,148.34L377.12,105.76L378.17,148.34L379.22,148.34L380.27,105.76L381.31,148.34L383.41,148.34L384.46,105.76L385.5,105.76L386.55,148.34L390.74,148.34L391.79,105.76L392.84,105.76L393.89,190.92L395.98,105.76L397.03,105.76L399.12,105.76L400.17,148.34L401.22,105.76L402.27,105.76L403.31,105.76L404.36,148.34L405.41,105.76L406.46,148.34L407.5,148.34L408.55,105.76L409.6,148.34L410.65,105.76L411.69,105.76L412.74,148.34L413.79,148.34L414.84,105.76L415.88,148.34L416.93,148.34L417.98,148.34L419.03,105.76L420.07,105.76L421.12,148.34L424.26,148.34L425.31,105.76L427.41,105.76L428.46,148.34L429.5,148.34L430.55,65.68L431.6,148.34L432.65,105.76L433.69,105.76L434.74,148.34L435.79,148.34L436.84,65.68L437.88,148.34L438.93,105.76L442.07,105.76L443.12,148.34L444.17,148.34L445.22,190.92L446.26,105.76L447.31,148.34L448.36,190.92L449.41,148.34L453.6,148.34L454.64,105.76L461.98,105.76L463.02,148.34L465.12,148.34L466.17,105.76L467.22,65.68L468.26,148.34L469.31,65.68L470.36,105.76L471.41,65.68L472.45,105.76L473.5,105.76L474.55,148.34L475.6,105.76L476.64,148.34L477.69,105.76L478.74,148.34L479.79,105.76L480.83,148.34L482.93,148.34L483.98,105.76L486.07,105.76L487.12,148.34L488.17,148.34L489.21,105.76L490.26,105.76L491.31,148.34L492.36,148.34L493.4,105.76L494.45,105.76L495.5,190.92L496.55,105.76L497.59,190.92L498.64,148.34L499.69,148.34L500.74,148.34L501.78,190.92L502.83,105.76L503.88,105.76L504.93,148.34L505.98,105.76L507.02,148.34L508.07,105.76L513.31,105.76L514.36,148.34L515.4,105.76L516.45,148.34L517.5,105.76L518.55,148.34L519.59,65.68L520.64,148.34L521.69,190.92L522.74,105.76L523.78,65.68L524.83,148.34L526.93,148.34L527.97,105.76L531.12,105.76L532.16,148.34L533.21,105.76L534.26,105.76L535.31,148.34L536.35,105.76L537.4,65.68L538.45,105.76L541.59,105.76L542.64,65.68L543.69,105.76L544.74,105.76L545.78,65.68L546.83,105.76L547.88,65.68L548.93,105.76L553.12,105.76L554.16,148.34L555.21,65.68L556.26,105.76L558.35,105.76L559.4,148.34L560.45,65.68L561.5,148.34L562.54,105.76L563.59,148.34L564.64,105.76L565.69,148.34L566.73,105.76L567.78,105.76L568.83,148.34L569.88,105.76L570.92,105.76L571.97,148.34L573.02,148.34L574.07,105.76L582.45,105.76L583.5,148.34L584.54,105.76L585.59,105.76L588.73,105.76L589.78,148.34L590.83,105.76L591.88,105.76L592.92,148.34L593.97,105.76L597.11,105.76L598.16,65.68L599.21,65.68L600.26,105.76L601.3,105.76L602.35,65.68L603.4,65.68L604.45,148.34L605.49,105.76L606.54,105.76L607.59,65.68L608.64,105.76L609.68,105.76L610.73,65.68L611.78,105.76L612.83,65.68L617.02,65.68L618.06,105.76L619.11,65.68L620.16,65.68L621.21,65.68L622.26,148.34L623.3,65.68L624.35,105.76L625.4,65.68L626.45,105.76L628.54,105.76L629.59,65.68L630.64,105.76L631.68,105.76L635.87,105.76L636.92,23.1L637.97,105.76L639.02,65.68L640.06,65.68L641.11,105.76L642.16,148.34L643.21,65.68L644.25,105.76L645.3,65.68L646.35,105.76L647.4,65.68L648.44,105.76L649.49,105.76L650.54,65.68L651.59,65.68L652.63,105.76L653.68,65.68L654.73,148.34L655.78,105.76L656.82,105.76L657.87,65.68L658.92,105.76L659.97,23.1L663.11,148.34L664.16,65.68L665.21,65.68L666.25,23.1L667.3,65.68L668.35,65.68L669.4,105.76L670.44,23.1L671.49,105.76L672.54,65.68L673.59,65.68L674.63,105.76L675.68,65.68L676.73,105.76L677.78,65.68L678.82,65.68L681.97,65.68L683.01,23.1L684.06,65.68L685.11,65.68L686.16,105.76L687.2,65.68L694.54,65.68L695.58,23.1L696.63,105.76L697.68,105.76L698.73,65.68L699.78,65.68L701.87,65.68L702.92,105.76L703.97,105.76L705.01,65.68L706.06,65.68L707.11,105.76L708.16,65.68L709.2,105.76L710.25,23.1L711.3,65.68L712.35,105.76L713.39,65.68L714.44,105.76L715.49,65.68L716.54,65.68L717.58,105.76L718.63,23.1L719.68,65.68L720.73,105.76L721.77,105.76L722.82,65.68L723.87,65.68L724.92,23.1L725.96,65.68L727.01,105.76L728.06,105.76L729.11,23.1L730.15,105.76L731.2,65.68L732.25,105.76L733.3,23.1L734.34,65.68L735.39,65.68L736.44,105.76L738.54,105.76L739.58,65.68L740.63,65.68L741.68,105.76L742.73,105.76L743.77,65.68L744.82,65.68L745.87,23.1L746.92,65.68L747.96,23.1L749.01,65.68L750.06,23.1L751.11,65.68L752.15,23.1L754.25,23.1L755.3,65.68L756.34,65.68L757.39,105.76L759.49,105.76L760.53,65.68L762.63,65.68L763.68,105.76L764.72,65.68L765.77,105.76L766.82,65.68L767.87,65.68L768.91,23.1L769.96,65.68L771.01,105.76L772.06,65.68L774.15,65.68L775.2,105.76L776.25,65.68L777.3,65.68L778.34,148.34L779.39,105.76L780.44,65.68L781.49,105.76L782.53,23.1L783.58,65.68L784.63,105.76L785.68,105.76L786.72,65.68L787.77,65.68L788.82,23.1L789.87,105.76L790.91,65.68L791.96,65.68L793.01,105.76L794.06,65.68L796.15,65.68L797.2,105.76L802.44,105.76L803.48,65.68L806.63,65.68L807.67,23.1L809.77,105.76L810.82,105.76L811.86,65.68L812.91,65.68L815.01,65.68L816.06,105.76L817.1,65.68L818.15,65.68L819.2,65.68L820.25,105.76L821.29,65.68L822.34,105.76L823.39,105.76L824.44,65.68L829.67,65.68L830.72,23.1L831.77,105.76L832.82,105.76L833.86,65.68L834.91,65.68L835.96,65.68L837.01,23.1L838.05,65.68L839.1,65.68L840.15,65.68L841.2,105.76L842.24,65.68L843.29,65.68L846.43,65.68L847.48,105.76L848.53,105.76L849.58,65.68L850.62,105.76L851.67,65.68L856.91,65.68L857.96,105.76L859.01,65.68L860.05,65.68L861.1,23.1L862.15,105.76L863.2,65.68L864.24,65.68L865.29,65.68L866.34,105.76L867.39,65.68L868.43,65.68L870.53,65.68L871.58,23.1L872.62,65.68L873.67,65.68L875.77,65.68L876.81,105.76L877.86,65.68L878.91,105.76L879.96,105.76L881,65.68L884.15,65.68L885.19,23.1L886.24,65.68L887.29,148.34L889.38,23.1L890.43,65.68L891.48,105.76L892.53,105.76L894.62,23.1L895.67,65.68L896.72,65.68L897.77,105.76L898.81,65.68L899.86,65.68L900.91,65.68L901.96,105.76L903,65.68L904.05,65.68L905.1,105.76L906.15,65.68L907.19,105.76L908.24,65.68L909.29,65.68L910.34,105.76L911.38,105.76L912.43,65.68L913.48,148.34L914.53,65.68L915.57,105.76L916.62,190.92L917.67,105.76L918.72,190.92L919.76,65.68L920.81,105.76L921.86,65.68L922.91,148.34L923.95,105.76L925,148.34L926.05,105.76L927.1,148.34L928.14,105.76L929.19,105.76L930.24,105.76L931.29,148.34L932.34,148.34L933.38,105.76L934.43,148.34L935.48,148.34L936.53,148.34L937.57,65.68L938.62,65.68L939.67,105.76L940.72,148.34L941.76,148.34L942.81,105.76L943.86,148.34L944.91,105.76L945.95,148.34L947,190.92L948.05,148.34L950.14,148.34L951.19,190.92L952.24,148.34L953.29,148.34L954.33,105.76L955.38,105.76L956.43,148.34L957.48,105.76L959.57,105.76L960.62,273.58L961.67,148.34L962.71,148.34L963.76,148.34L964.81,105.76L965.86,148.34L966.9,148.34L967.95,148.34L969,105.76" style="vector-effect: non-scaling-stroke; fill: none; stroke: rgb(31, 119, 180); stroke-opacity: 1; stroke-width: 2px; opacity: 1;"></path></g><g class="points"></g><g class="text"></g></g></g></g><g class="overplot"></g><path class="xlines-above crisp" d="M0,0" style="fill: none;"></path><path class="ylines-above crisp" d="M0,0" style="fill: none;"></path><g class="overlines-above"></g><g class="xaxislayer-above"><g class="xtick"><text text-anchor="middle" x="0" y="575" data-unformatted="0" data-math="N" transform="translate(80,0)" style="font-family: &quot;Open Sans&quot;, verdana, arial, sans-serif; font-size: 12px; fill: rgb(68, 68, 68); fill-opacity: 1; white-space: pre;">0</text></g><g class="xtick"><text text-anchor="middle" x="0" y="575" data-unformatted="2" data-math="N" transform="translate(184.76,0)" style="font-family: &quot;Open Sans&quot;, verdana, arial, sans-serif; font-size: 12px; fill: rgb(68, 68, 68); fill-opacity: 1; white-space: pre;">2</text></g><g class="xtick"><text text-anchor="middle" x="0" y="575" data-unformatted="4" data-math="N" transform="translate(289.51,0)" style="font-family: &quot;Open Sans&quot;, verdana, arial, sans-serif; font-size: 12px; fill: rgb(68, 68, 68); fill-opacity: 1; white-space: pre;">4</text></g><g class="xtick"><text text-anchor="middle" x="0" y="575" data-unformatted="6" data-math="N" transform="translate(394.27,0)" style="font-family: &quot;Open Sans&quot;, verdana, arial, sans-serif; font-size: 12px; fill: rgb(68, 68, 68); fill-opacity: 1; white-space: pre;">6</text></g><g class="xtick"><text text-anchor="middle" x="0" y="575" data-unformatted="8" data-math="N" transform="translate(499.03,0)" style="font-family: &quot;Open Sans&quot;, verdana, arial, sans-serif; font-size: 12px; fill: rgb(68, 68, 68); fill-opacity: 1; white-space: pre;">8</text></g><g class="xtick"><text text-anchor="middle" x="0" y="575" data-unformatted="10" data-math="N" transform="translate(603.78,0)" style="font-family: &quot;Open Sans&quot;, verdana, arial, sans-serif; font-size: 12px; fill: rgb(68, 68, 68); fill-opacity: 1; white-space: pre;">10</text></g><g class="xtick"><text text-anchor="middle" x="0" y="575" data-unformatted="12" data-math="N" transform="translate(708.54,0)" style="font-family: &quot;Open Sans&quot;, verdana, arial, sans-serif; font-size: 12px; fill: rgb(68, 68, 68); fill-opacity: 1; white-space: pre;">12</text></g><g class="xtick"><text text-anchor="middle" x="0" y="575" data-unformatted="14" data-math="N" transform="translate(813.3,0)" style="font-family: &quot;Open Sans&quot;, verdana, arial, sans-serif; font-size: 12px; fill: rgb(68, 68, 68); fill-opacity: 1; white-space: pre;">14</text></g><g class="xtick"><text text-anchor="middle" x="0" y="575" data-unformatted="16" data-math="N" transform="translate(918.05,0)" style="font-family: &quot;Open Sans&quot;, verdana, arial, sans-serif; font-size: 12px; fill: rgb(68, 68, 68); fill-opacity: 1; white-space: pre;">16</text></g><g class="xtick"><text text-anchor="middle" x="0" y="575" data-unformatted="18" data-math="N" transform="translate(1022.81,0)" style="font-family: &quot;Open Sans&quot;, verdana, arial, sans-serif; font-size: 12px; fill: rgb(68, 68, 68); fill-opacity: 1; white-space: pre;">18</text></g></g><g class="yaxislayer-above"><g class="ytick"><text text-anchor="end" x="79" y="4.199999999999999" data-unformatted="−0.01" data-math="N" transform="translate(0,535.54)" style="font-family: &quot;Open Sans&quot;, verdana, arial, sans-serif; font-size: 12px; fill: rgb(68, 68, 68); fill-opacity: 1; white-space: pre;">−0.01</text></g><g class="ytick"><text text-anchor="end" x="79" y="4.199999999999999" data-unformatted="0" data-math="N" transform="translate(0,473.77)" style="font-family: &quot;Open Sans&quot;, verdana, arial, sans-serif; font-size: 12px; fill: rgb(68, 68, 68); fill-opacity: 1; white-space: pre;">0</text></g><g class="ytick"><text text-anchor="end" x="79" y="4.199999999999999" data-unformatted="0.01" data-math="N" transform="translate(0,412.01)" style="font-family: &quot;Open Sans&quot;, verdana, arial, sans-serif; font-size: 12px; fill: rgb(68, 68, 68); fill-opacity: 1; white-space: pre;">0.01</text></g><g class="ytick"><text text-anchor="end" x="79" y="4.199999999999999" data-unformatted="0.02" data-math="N" transform="translate(0,350.25)" style="font-family: &quot;Open Sans&quot;, verdana, arial, sans-serif; font-size: 12px; fill: rgb(68, 68, 68); fill-opacity: 1; white-space: pre;">0.02</text></g><g class="ytick"><text text-anchor="end" x="79" y="4.199999999999999" data-unformatted="0.03" data-math="N" transform="translate(0,288.48)" style="font-family: &quot;Open Sans&quot;, verdana, arial, sans-serif; font-size: 12px; fill: rgb(68, 68, 68); fill-opacity: 1; white-space: pre;">0.03</text></g><g class="ytick"><text text-anchor="end" x="79" y="4.199999999999999" data-unformatted="0.04" data-math="N" transform="translate(0,226.72)" style="font-family: &quot;Open Sans&quot;, verdana, arial, sans-serif; font-size: 12px; fill: rgb(68, 68, 68); fill-opacity: 1; white-space: pre;">0.04</text></g><g class="ytick"><text text-anchor="end" x="79" y="4.199999999999999" data-unformatted="0.05" data-math="N" transform="translate(0,164.95999999999998)" style="font-family: &quot;Open Sans&quot;, verdana, arial, sans-serif; font-size: 12px; fill: rgb(68, 68, 68); fill-opacity: 1; white-space: pre;">0.05</text></g><g class="ytick"><text text-anchor="end" x="79" y="4.199999999999999" data-unformatted="0.06" data-math="N" transform="translate(0,103.19)" style="font-family: &quot;Open Sans&quot;, verdana, arial, sans-serif; font-size: 12px; fill: rgb(68, 68, 68); fill-opacity: 1; white-space: pre;">0.06</text></g></g><g class="overaxes-above"></g></g></g><g class="polarlayer"></g><g class="ternarylayer"></g><g class="geolayer"></g><g class="funnelarealayer"></g><g class="pielayer"></g><g class="treemaplayer"></g><g class="sunburstlayer"></g><g class="glimages"></g></svg><div class="gl-container"></div><svg class="main-svg" style="position: absolute" xmlns="http://www.w3.org/2000/svg" xmlns:xlink="http://www.w3.org/1999/xlink" width="1128.701388888889" height="642"><defs id="topdefs-e3843e"><g class="clips"></g></defs><g class="indicatorlayer"></g><g class="layer-above"><g class="imagelayer"></g><g class="shapelayer"></g></g><g class="infolayer"><g class="g-gtitle"></g><g class="g-xtitle"><text class="xtitle" x="564.5" y="614" text-anchor="middle" data-unformatted="x" data-math="N" style="font-family: &quot;Open Sans&quot;, verdana, arial, sans-serif; font-size: 14px; fill: rgb(68, 68, 68); opacity: 1; font-weight: normal; white-space: pre;">x</text></g><g class="g-ytitle"><text class="ytitle" transform="rotate(-90,42,331)" x="42" y="331" text-anchor="middle" data-unformatted="y" data-math="N" style="font-family: &quot;Open Sans&quot;, verdana, arial, sans-serif; font-size: 14px; fill: rgb(68, 68, 68); opacity: 1; font-weight: normal; white-space: pre;">y</text></g></g><g class="menulayer"></g><g class="zoomlayer"></g></svg><div class="modebar-container" style="position: absolute; top: 0px; right: 0px; width: 100%;"><div id="modebar-e3843e" class="modebar modebar--hover ease-bg"><div class="modebar-group"><a rel="tooltip" class="modebar-btn" data-title="Download plot as a png" data-toggle="false" data-gravity="n"><svg viewBox="0 0 1000 1000" class="icon" height="1em" width="1em"><path d="m500 450c-83 0-150-67-150-150 0-83 67-150 150-150 83 0 150 67 150 150 0 83-67 150-150 150z m400 150h-120c-16 0-34 13-39 29l-31 93c-6 15-23 28-40 28h-340c-16 0-34-13-39-28l-31-94c-6-15-23-28-40-28h-120c-55 0-100-45-100-100v-450c0-55 45-100 100-100h800c55 0 100 45 100 100v450c0 55-45 100-100 100z m-400-550c-138 0-250 112-250 250 0 138 112 250 250 250 138 0 250-112 250-250 0-138-112-250-250-250z m365 380c-19 0-35 16-35 35 0 19 16 35 35 35 19 0 35-16 35-35 0-19-16-35-35-35z" transform="matrix(1 0 0 -1 0 850)"></path></svg></a></div><div class="modebar-group"><a rel="tooltip" class="modebar-btn active" data-title="Zoom" data-attr="dragmode" data-val="zoom" data-toggle="false" data-gravity="n"><svg viewBox="0 0 1000 1000" class="icon" height="1em" width="1em"><path d="m1000-25l-250 251c40 63 63 138 63 218 0 224-182 406-407 406-224 0-406-182-406-406s183-406 407-406c80 0 155 22 218 62l250-250 125 125z m-812 250l0 438 437 0 0-438-437 0z m62 375l313 0 0-312-313 0 0 312z" transform="matrix(1 0 0 -1 0 850)"></path></svg></a><a rel="tooltip" class="modebar-btn" data-title="Pan" data-attr="dragmode" data-val="pan" data-toggle="false" data-gravity="n"><svg viewBox="0 0 1000 1000" class="icon" height="1em" width="1em"><path d="m1000 350l-187 188 0-125-250 0 0 250 125 0-188 187-187-187 125 0 0-250-250 0 0 125-188-188 186-187 0 125 252 0 0-250-125 0 187-188 188 188-125 0 0 250 250 0 0-126 187 188z" transform="matrix(1 0 0 -1 0 850)"></path></svg></a></div><div class="modebar-group"><a rel="tooltip" class="modebar-btn" data-title="Zoom in" data-attr="zoom" data-val="in" data-toggle="false" data-gravity="n"><svg viewBox="0 0 875 1000" class="icon" height="1em" width="1em"><path d="m1 787l0-875 875 0 0 875-875 0z m687-500l-187 0 0-187-125 0 0 187-188 0 0 125 188 0 0 187 125 0 0-187 187 0 0-125z" transform="matrix(1 0 0 -1 0 850)"></path></svg></a><a rel="tooltip" class="modebar-btn" data-title="Zoom out" data-attr="zoom" data-val="out" data-toggle="false" data-gravity="n"><svg viewBox="0 0 875 1000" class="icon" height="1em" width="1em"><path d="m0 788l0-876 875 0 0 876-875 0z m688-500l-500 0 0 125 500 0 0-125z" transform="matrix(1 0 0 -1 0 850)"></path></svg></a><a rel="tooltip" class="modebar-btn" data-title="Autoscale" data-attr="zoom" data-val="auto" data-toggle="false" data-gravity="n"><svg viewBox="0 0 1000 1000" class="icon" height="1em" width="1em"><path d="m250 850l-187 0-63 0 0-62 0-188 63 0 0 188 187 0 0 62z m688 0l-188 0 0-62 188 0 0-188 62 0 0 188 0 62-62 0z m-875-938l0 188-63 0 0-188 0-62 63 0 187 0 0 62-187 0z m875 188l0-188-188 0 0-62 188 0 62 0 0 62 0 188-62 0z m-125 188l-1 0-93-94-156 156 156 156 92-93 2 0 0 250-250 0 0-2 93-92-156-156-156 156 94 92 0 2-250 0 0-250 0 0 93 93 157-156-157-156-93 94 0 0 0-250 250 0 0 0-94 93 156 157 156-157-93-93 0 0 250 0 0 250z" transform="matrix(1 0 0 -1 0 850)"></path></svg></a><a rel="tooltip" class="modebar-btn" data-title="Reset axes" data-attr="zoom" data-val="reset" data-toggle="false" data-gravity="n"><svg viewBox="0 0 928.6 1000" class="icon" height="1em" width="1em"><path d="m786 296v-267q0-15-11-26t-25-10h-214v214h-143v-214h-214q-15 0-25 10t-11 26v267q0 1 0 2t0 2l321 264 321-264q1-1 1-4z m124 39l-34-41q-5-5-12-6h-2q-7 0-12 3l-386 322-386-322q-7-4-13-4-7 2-12 7l-35 41q-4 5-3 13t6 12l401 334q18 15 42 15t43-15l136-114v109q0 8 5 13t13 5h107q8 0 13-5t5-13v-227l122-102q5-5 6-12t-4-13z" transform="matrix(1 0 0 -1 0 850)"></path></svg></a></div><div class="modebar-group"><a rel="tooltip" class="modebar-btn" data-title="Toggle Spike Lines" data-attr="_cartesianSpikesEnabled" data-val="on" data-toggle="false" data-gravity="n"><svg viewBox="0 0 1000 1000" class="icon" height="1em" width="1em"><path d="M512 409c0-57-46-104-103-104-57 0-104 47-104 104 0 57 47 103 104 103 57 0 103-46 103-103z m-327-39l92 0 0 92-92 0z m-185 0l92 0 0 92-92 0z m370-186l92 0 0 93-92 0z m0-184l92 0 0 92-92 0z" transform="matrix(1.5 0 0 -1.5 0 850)"></path></svg></a><a rel="tooltip" class="modebar-btn" data-title="Show closest data on hover" data-attr="hovermode" data-val="closest" data-toggle="false" data-gravity="ne"><svg viewBox="0 0 1500 1000" class="icon" height="1em" width="1em"><path d="m375 725l0 0-375-375 375-374 0-1 1125 0 0 750-1125 0z" transform="matrix(1 0 0 -1 0 850)"></path></svg></a><a rel="tooltip" class="modebar-btn active" data-title="Compare data on hover" data-attr="hovermode" data-val="x" data-toggle="false" data-gravity="ne"><svg viewBox="0 0 1125 1000" class="icon" height="1em" width="1em"><path d="m187 786l0 2-187-188 188-187 0 0 937 0 0 373-938 0z m0-499l0 1-187-188 188-188 0 0 937 0 0 376-938-1z" transform="matrix(1 0 0 -1 0 850)"></path></svg></a></div></div></div><svg class="main-svg" style="position: absolute" xmlns="http://www.w3.org/2000/svg" xmlns:xlink="http://www.w3.org/1999/xlink" width="1128.701388888889" height="642"><g class="hoverlayer"></g></svg>