<svg class="main-svg" style="position: absolute" xmlns="http://www.w3.org/2000/svg" xmlns:xlink="http://www.w3.org/1999/xlink" width="1425.1128712871289" height="642" style="background: rgb(255, 255, 255);"><defs id="defs-92751d"><g class="clips"><clipPath id="clip92751dxyplot" class="plotclip"><rect width="1265" height="462"></rect></clipPath><clipPath class="axesclip" id="clip92751dx"><rect x="80" y="0" width="1265" height="642"></rect></clipPath><clipPath class="axesclip" id="clip92751dy"><rect x="0" y="100" width="1425.1128712871289" height="462"></rect></clipPath><clipPath class="axesclip" id="clip92751dxy"><rect x="80" y="100" width="1265" height="462"></rect></clipPath></g><g class="gradients"></g></defs><g class="bglayer"></g><g class="draglayer cursor-crosshair"><g class="xy"><rect class="nsewdrag drag" data-subplot="xy" x="80" y="100" width="1265" height="462" style="fill: transparent; stroke-width: 0; pointer-events: all;"></rect><rect class="nwdrag drag cursor-nw-resize" data-subplot="xy" x="60" y="80" width="20" height="20" style="fill: transparent; stroke-width: 0; pointer-events: all;"></rect><rect class="nedrag drag cursor-ne-resize" data-subplot="xy" x="1345" y="80" width="20" height="20" style="fill: transparent; stroke-width: 0; pointer-events: all;"></rect><rect class="swdrag drag cursor-sw-resize" data-subplot="xy" x="60" y="562" width="20" height="20" style="fill: transparent; stroke-width: 0; pointer-events: all;"></rect><rect class="sedrag drag cursor-se-resize" data-subplot="xy" x="1345" y="562" width="20" height="20" style="fill: transparent; stroke-width: 0; pointer-events: all;"></rect><rect class="ewdrag drag cursor-ew-resize" data-subplot="xy" x="206.5" y="562.5" width="1012" height="20" style="fill: transparent; stroke-width: 0; pointer-events: all;"></rect><rect class="wdrag drag cursor-w-resize" data-subplot="xy" x="80" y="562.5" width="126.5" height="20" style="fill: transparent; stroke-width: 0; pointer-events: all;"></rect><rect class="edrag drag cursor-e-resize" data-subplot="xy" x="1218.5" y="562.5" width="126.5" height="20" style="fill: transparent; stroke-width: 0; pointer-events: all;"></rect><rect class="nsdrag drag cursor-ns-resize" data-subplot="xy" x="59.5" y="146.2" width="20" height="369.6" style="fill: transparent; stroke-width: 0; pointer-events: all;"></rect><rect class="sdrag drag cursor-s-resize" data-subplot="xy" x="59.5" y="515.8" width="20" height="46.2" style="fill: transparent; stroke-width: 0; pointer-events: all;"></rect><rect class="ndrag drag cursor-n-resize" data-subplot="xy" x="59.5" y="100" width="20" height="46.2" style="fill: transparent; stroke-width: 0; pointer-events: all;"></rect></g></g><g class="layer-below"><g class="imagelayer"></g><g class="shapelayer"></g></g><g class="cartesianlayer"><g class="subplot xy"><g class="layer-subplot"><g class="shapelayer"></g><g class="imagelayer"></g></g><g class="gridlayer"><g class="x"><path class="xgrid crisp" transform="translate(333,0)" d="M0,100v462" style="stroke: rgb(238, 238, 238); stroke-opacity: 1; stroke-width: 1px;"></path><path class="xgrid crisp" transform="translate(586,0)" d="M0,100v462" style="stroke: rgb(238, 238, 238); stroke-opacity: 1; stroke-width: 1px;"></path><path class="xgrid crisp" transform="translate(839,0)" d="M0,100v462" style="stroke: rgb(238, 238, 238); stroke-opacity: 1; stroke-width: 1px;"></path><path class="xgrid crisp" transform="translate(1092,0)" d="M0,100v462" style="stroke: rgb(238, 238, 238); stroke-opacity: 1; stroke-width: 1px;"></path></g><g class="y"><path class="ygrid crisp" transform="translate(0,557.2)" d="M80,0h1265" style="stroke: rgb(238, 238, 238); stroke-opacity: 1; stroke-width: 1px;"></path><path class="ygrid crisp" transform="translate(0,501.76)" d="M80,0h1265" style="stroke: rgb(238, 238, 238); stroke-opacity: 1; stroke-width: 1px;"></path><path class="ygrid crisp" transform="translate(0,446.32)" d="M80,0h1265" style="stroke: rgb(238, 238, 238); stroke-opacity: 1; stroke-width: 1px;"></path><path class="ygrid crisp" transform="translate(0,390.88)" d="M80,0h1265" style="stroke: rgb(238, 238, 238); stroke-opacity: 1; stroke-width: 1px;"></path><path class="ygrid crisp" transform="translate(0,335.44)" d="M80,0h1265" style="stroke: rgb(238, 238, 238); stroke-opacity: 1; stroke-width: 1px;"></path><path class="ygrid crisp" transform="translate(0,280)" d="M80,0h1265" style="stroke: rgb(238, 238, 238); stroke-opacity: 1; stroke-width: 1px;"></path><path class="ygrid crisp" transform="translate(0,224.56)" d="M80,0h1265" style="stroke: rgb(238, 238, 238); stroke-opacity: 1; stroke-width: 1px;"></path><path class="ygrid crisp" transform="translate(0,169.12)" d="M80,0h1265" style="stroke: rgb(238, 238, 238); stroke-opacity: 1; stroke-width: 1px;"></path><path class="ygrid crisp" transform="translate(0,113.68)" d="M80,0h1265" style="stroke: rgb(238, 238, 238); stroke-opacity: 1; stroke-width: 1px;"></path></g></g><g class="zerolinelayer"><path class="xzl zl crisp" transform="translate(80,0)" d="M0,100v462" style="stroke: rgb(68, 68, 68); stroke-opacity: 1; stroke-width: 1px;"></path></g><path class="xlines-below"></path><path class="ylines-below"></path><g class="overlines-below"></g><g class="xaxislayer-below"></g><g class="yaxislayer-below"></g><g class="overaxes-below"></g><g class="plot" transform="translate(80,100)" clip-path="url('#clip92751dxyplot')"><g class="scatterlayer mlayer"><g class="trace scatter trace2fc74d" style="stroke-miterlimit: 2; opacity: 1;"><g class="fills"></g><g class="errorbars"></g><g class="lines"><path class="js-line" d="M0,60.8L1.27,50.82L2.53,34.19L3.8,37.79L5.06,23.1L7.59,42.5L8.86,59.69L10.12,64.4L11.39,46.11L12.65,39.18L13.92,60.8L15.18,56.09L16.45,38.35L17.71,40.29L18.98,60.24L20.24,46.66L21.51,49.71L24.04,89.91L25.3,96.28L27.83,109.86L29.1,110.42L30.36,92.12L31.63,104.6L32.89,130.65L34.16,136.47L35.42,136.47L36.69,133.43L39.22,151.17L40.48,142.3L43.01,118.73L44.28,94.06L46.81,127.6L48.07,102.93L49.34,96.28L50.6,118.73L51.86,120.67L53.13,121.23L55.66,70.22L56.93,76.88L58.19,95.73L59.46,91.57L61.99,96.28L63.25,127.05L65.78,193.3L67.05,166.69L68.31,167.8L69.58,183.88L73.37,208.55L74.64,213.81L75.9,180.83L77.16,190.81L78.43,207.99L79.69,212.7L82.23,234.6L83.49,223.24L84.76,239.32L86.02,229.34L87.29,218.53L88.55,233.49L91.08,215.2L92.35,234.6L93.61,240.98L94.88,234.05L97.41,261.77L98.67,248.19L101.2,257.61L102.47,262.32L103.73,271.19L105,271.19L106.26,276.46L107.53,268.7L108.79,271.19L110.06,264.54L116.38,203.83L117.65,207.44L118.91,203.83L120.18,206.88L121.44,213.26L122.71,210.21L123.97,205.5L125.24,219.08L126.5,218.53L127.77,224.07L129.03,225.73L130.3,230.45L131.56,231L132.83,218.53L134.09,223.24L135.35,242.37L136.62,242.92L137.89,236.27L139.15,238.21L140.42,249.85L142.95,268.14L144.21,278.12L145.48,272.86L146.74,271.19L149.27,291.98L150.54,298.91L153.07,259.27L154.33,257.61L155.6,238.21L156.86,238.21L158.13,242.37L159.39,238.21L160.66,243.47L161.92,244.03L164.45,255.67L165.72,238.21L166.98,217.42L168.25,215.2L169.51,217.97L170.78,208.55L172.04,202.17L173.31,212.15L177.1,245.14L178.37,249.85L179.63,262.88L180.9,265.93L182.16,267.59L183.43,277.02L184.69,268.14L185.96,216.86L187.22,216.86L188.49,229.34L189.75,229.34L191.02,215.2L193.55,223.24L194.81,236.82L196.08,241.53L197.34,232.11L198.61,238.21L199.87,254.01L202.4,271.75L203.67,261.77L204.93,258.72L206.2,264.54L207.46,266.48L208.73,264.54L209.99,265.37L211.26,271.19L212.52,270.09L213.79,280.06L215.05,294.2L216.32,271.19L217.58,254.01L218.85,268.7L220.11,271.19L221.38,284.22L222.64,292.54L223.91,285.89L225.17,262.32L226.44,256.5L227.7,274.8L228.97,274.8L230.23,239.32L231.5,253.45L232.76,275.91L234.03,282.28L235.29,281.73L236.56,282.28L237.82,275.91L239.08,289.49L240.35,294.2L241.62,285.33L242.88,289.49L244.15,303.07L245.41,300.02L246.68,289.49L247.94,290.6L249.21,296.42L250.47,293.65L251.74,303.63L253,305.29L254.27,304.74L255.53,293.65L256.8,299.47L258.06,302.52L259.33,299.47L260.59,300.02L261.86,295.86L263.12,295.31L264.39,303.07L266.92,314.16L268.18,308.34L269.45,306.68L270.71,303.07L271.98,291.98L273.24,299.47L274.51,301.41L275.77,290.6L277.03,296.42L278.3,306.68L280.83,262.32L282.1,272.3L283.36,280.06L284.63,266.48L287.15,299.47L288.42,303.63L289.69,306.12L290.95,313.05L292.22,312.5L293.48,316.1L294.75,317.21L296.01,308.89L297.28,315.55L298.54,317.76L299.81,321.92L301.07,307.78L302.33,282.28L303.6,282.28L304.87,290.04L306.13,290.6L308.66,308.89L309.93,301.41L311.19,285.33L312.46,290.04L313.72,289.49L314.99,283.67L316.25,272.86L317.52,272.86L318.78,278.96L320.05,274.8L321.31,271.75L322.58,284.78L323.84,277.02L325.11,259.27L326.37,271.75L327.64,297.25L330.17,306.68L331.43,288.93L332.7,283.67L333.96,301.41L335.23,310.83L336.49,326.08L337.76,325.53L339.02,318.32L342.82,340.77L344.08,351.58L345.35,340.77L346.61,301.41L347.88,297.25L349.14,310.83L350.41,330.79L351.67,336.61L352.94,317.21L354.2,310.83L356.73,323.58L358,324.97L360.53,298.36L361.79,303.63L363.06,310.28L364.32,306.68L366.85,323.03L368.12,305.29L369.38,309.45L370.65,316.65L373.18,327.74L374.44,320.81L376.97,325.53L378.24,307.78L379.5,306.68L380.77,314.99L382.03,317.76L383.3,322.48L384.56,319.15L385.83,290.04L388.36,323.03L389.62,313.61L390.89,316.1L392.15,325.53L394.68,334.95L395.95,336.06L398.48,338L399.74,334.4L401.01,301.41L402.27,294.76L404.8,314.99L406.07,308.89L407.33,302.52L408.6,291.98L409.86,271.75L411.13,281.17L412.39,297.81L413.66,297.81L414.92,301.41L416.19,312.5L418.72,319.15L419.98,304.74L421.24,294.76L422.51,319.15L423.78,343.27L425.04,349.09L426.31,348.53L427.57,300.58L428.84,303.07L430.1,337.44L431.37,350.2L432.63,352.69L433.9,351.03L435.16,303.07L436.43,287.83L437.69,291.98L438.96,298.36L440.22,310.28L442.75,337.44L444.02,330.24L446.54,340.77L447.81,349.09L451.61,367.94L452.87,370.99L454.14,367.38L455.4,352.69L456.67,342.71L457.93,350.2L459.2,351.58L460.46,325.53L462.99,309.45L464.26,290.04L465.52,275.35L466.79,282.28L473.11,320.26L474.38,327.19L475.64,334.4L476.91,336.61L478.17,333.84L479.44,338.55L480.7,340.77L481.97,346.87L483.23,342.71L484.5,331.9L485.76,328.57L487.03,335.5L490.82,350.2L492.09,349.64L493.35,334.4L494.62,330.24L497.15,345.48L498.41,341.33L499.68,339.11L500.94,342.71L502.21,344.93L503.47,353.25L504.74,363.22L506,362.67L508.53,355.74L509.79,352.14L511.06,351.03L512.33,357.4L514.86,363.22L516.12,363.22L517.39,357.4L518.65,356.85L519.92,357.96L521.18,362.67L522.44,366.27L523.71,365.16L524.98,362.12L526.24,363.22L527.51,365.72L528.77,361.56L530.04,351.58L531.3,351.03L532.57,349.64L533.83,336.61L535.1,304.18L536.36,304.18L537.63,317.21L538.89,317.76L540.16,313.05L541.42,298.91L543.95,316.65L545.22,303.63L546.48,299.47L547.75,306.68L549.01,312.5L550.28,327.19L551.54,331.35L552.81,329.68L554.07,320.81L555.34,334.4L556.6,339.11L557.87,322.48L559.13,317.76L560.4,318.32L562.93,280.06L564.19,294.2L566.72,316.1L567.99,321.37L569.25,329.68L570.52,330.24L571.78,325.53L573.04,328.57L575.58,350.2L576.84,357.96L578.11,365.16L579.37,352.14L580.64,352.14L581.9,362.67L584.43,372.09L585.69,365.72L586.96,351.03L588.23,348.53L592.02,377.36L593.29,379.86L594.55,374.59L595.82,376.81L597.08,388.73L598.35,390.94L599.61,397.6L600.88,395.1L603.41,327.74L604.67,334.95L605.93,329.68L607.2,310.83L608.47,289.49L609.73,286.99L611,295.31L612.26,310.28L613.53,313.61L614.79,303.07L617.32,313.61L618.59,310.28L619.85,307.78L621.12,316.1L623.65,289.49L624.91,312.5L626.18,325.53L627.44,326.63L631.24,335.5L632.5,330.24L635.03,300.02L636.29,301.96L637.56,301.41L638.83,308.89L640.09,319.15L641.36,306.12L642.62,299.47L643.89,322.48L645.15,329.13L646.42,314.99L647.68,307.78L648.94,311.94L650.21,306.68L651.48,290.6L654.01,300.02L655.27,301.41L656.54,308.89L657.8,298.36L659.07,291.15L660.33,308.89L661.6,301.96L662.86,274.24L666.66,211.04L667.92,231L669.19,230.45L670.45,257.61L671.72,290.6L672.98,303.63L675.51,320.26L676.78,303.07L678.04,303.07L679.31,326.63L681.84,348.53L683.1,352.14L684.37,360.45L685.63,363.22L686.9,363.22L688.16,350.2L690.69,344.37L691.96,342.16L693.22,316.65L694.49,330.24L697.02,353.25L698.28,349.64L699.55,342.16L700.81,344.37L703.34,360.45L704.61,359.07L709.67,374.59L710.93,376.81L712.2,382.07L713.46,378.19L714.73,379.3L715.99,379.3L717.26,379.3L718.52,378.19L719.79,380.41L721.05,384.57L722.32,384.57L723.58,389.28L724.85,392.33L726.11,389.28L728.64,349.09L729.91,356.29L731.17,364.33L732.44,365.16L736.23,379.86L737.5,381.52L738.76,379.3L740.03,374.59L741.29,376.25L742.56,380.97L745.09,369.32L746.35,376.25L748.88,385.12L750.15,382.07L751.41,379.3L752.68,385.12L753.94,387.62L755.21,376.25L756.47,370.43L757.74,375.14L759,377.36L760.27,370.99L761.53,367.94L762.8,369.88L765.33,374.59L766.59,372.65L769.12,379.3L770.39,375.7L771.65,372.65L772.92,377.36L774.18,379.3L775.45,377.36L776.71,381.52L777.98,378.19L779.24,360.45L780.51,362.12L783.04,375.14L784.3,373.2L785.57,365.16L786.83,363.22L789.36,370.43L790.63,370.43L791.89,370.99L793.16,374.59L794.42,377.36L795.69,358.51L796.95,342.71L798.22,351.58L799.48,365.16L800.75,361.01L802.01,360.45L803.28,367.94L804.54,372.65L805.81,372.65L807.07,378.19L808.34,377.36L809.6,376.81L810.86,384.01L813.4,389.28L814.66,389.28L815.93,372.65L817.19,346.04L819.72,374.04L820.99,378.75L822.25,385.68L823.52,384.01L824.78,385.12L826.05,389.28L827.31,391.78L828.58,385.12L829.84,378.75L831.11,389.28L832.37,392.88L833.64,384.57L834.9,385.68L836.17,390.39L837.43,391.78L838.7,395.66L839.96,396.49L841.23,393.44L842.49,393.99L843.76,395.66L846.29,400.65L847.55,407.02L850.08,407.58L851.35,410.63L852.61,407.02L853.88,397.6L855.14,392.88L856.41,392.33L861.46,408.13L862.73,407.02L864,401.2L865.26,401.2L867.79,407.02L869.06,412.84L871.59,412.84L872.85,413.95L874.12,411.73L875.38,406.47L877.91,390.94L879.18,389.84L880.44,390.39L881.71,392.33L885.5,388.17L886.77,388.73L888.03,387.06L889.3,388.17L890.56,390.94L891.83,390.39L893.09,387.06L894.36,386.23L895.62,389.84L896.89,387.06L899.42,392.88L900.68,390.94L901.95,389.84L903.21,391.78L905.74,397.6L907.01,397.6L908.27,398.15L909.54,401.76L910.8,400.65L912.07,400.65L913.33,402.86L914.6,408.13L915.86,409.52L917.13,408.69L919.66,410.63L920.92,409.52L922.19,407.58L923.45,403.97L924.71,405.91L925.98,410.07L927.25,411.73L928.51,410.63L931.04,414.78L932.31,410.63L933.57,408.69L934.84,410.07L937.37,415.34L938.63,420.05L939.9,422.27L941.16,421.16L942.43,420.05L943.69,408.69L946.22,329.68L947.49,337.44L951.28,376.81L952.55,381.52L953.81,377.36L955.08,380.97L957.61,394.55L958.87,393.44L960.14,393.44L961.4,390.39L962.67,384.57L963.93,395.1L965.2,403.42L966.46,405.36L967.73,408.69L968.99,392.88L970.26,401.2L971.52,401.76L972.79,395.66L974.05,394.55L976.58,408.69L977.85,409.52L980.38,397.04L981.64,398.71L984.17,380.97L985.44,390.94L986.7,397.04L987.96,393.44L990.5,392.88L991.76,385.12L994.29,397.6L995.56,398.15L996.82,403.42L998.09,402.86L999.35,402.31L1000.62,403.42L1001.88,402.31L1003.15,388.17L1004.41,385.12L1005.68,393.99L1006.94,401.2L1008.21,403.42L1012,410.63L1013.27,412.84L1014.53,415.89L1015.8,411.73L1017.06,409.52L1018.33,403.42L1019.59,394.55L1020.86,393.99L1022.12,389.28L1023.39,379.3L1024.65,376.25L1025.92,379.3L1027.18,377.36L1028.45,370.43L1030.98,375.14L1032.24,375.14L1033.51,375.14L1034.77,380.41L1036.04,385.12L1037.3,380.41L1038.57,377.36L1039.83,390.94L1041.1,394.55L1042.36,393.44L1043.63,397.04L1044.89,397.04L1046.16,388.73L1047.42,391.78L1048.69,392.88L1049.95,395.66L1051.21,391.78L1052.48,390.94L1053.74,388.73L1055.01,391.78L1057.54,394.55L1058.81,389.84L1060.07,384.01L1061.34,387.06L1062.6,396.49L1063.87,392.88L1065.13,385.68L1066.4,393.99L1067.66,400.65L1068.93,398.71L1070.19,397.04L1071.46,397.04L1072.72,399.26L1073.99,404.53L1075.25,408.13L1076.51,406.47L1079.05,402.31L1080.31,402.31L1081.58,403.42L1082.84,405.91L1084.11,407.02L1085.37,414.78L1086.64,413.95L1087.9,420.05L1089.17,417L1090.43,421.16L1091.7,420.05L1092.96,417L1095.49,413.4L1096.76,412.29L1098.02,414.78L1099.29,412.84L1100.55,413.4L1101.82,415.34L1103.08,419.5L1104.35,418.11L1105.61,418.11L1106.88,420.05L1108.14,421.71L1109.41,426.98L1110.67,427.81L1111.94,424.76L1113.2,414.78L1114.46,414.78L1116.99,422.82L1118.26,429.48L1119.53,438.9L1120.79,426.98L1122.06,417L1123.32,426.43L1124.59,425.32L1125.85,426.43L1130.91,169.46L1132.18,157.82L1134.71,147.84L1135.97,147.84L1137.24,148.95L1138.5,158.37L1141.03,183.88L1142.3,198.57L1143.56,209.1L1144.83,202.73L1146.09,197.46L1147.36,198.01L1149.89,218.53L1151.15,199.68L1152.42,206.88L1153.68,222.13L1154.95,222.68L1156.21,208.55L1157.48,205.5L1158.74,209.66L1160.01,210.21L1161.27,214.37L1162.54,211.04L1163.8,193.3L1165.07,196.07L1166.33,196.07L1167.6,194.41L1168.86,197.46L1171.39,216.31L1172.66,219.08L1175.19,205.5L1176.45,213.81L1178.98,223.24L1180.24,235.16L1181.51,227.95L1182.78,231L1185.31,255.12L1186.57,240.98L1187.84,244.58L1189.1,257.06L1191.63,283.67L1192.9,287.83L1194.16,288.38L1195.43,299.47L1197.96,290.6L1199.22,296.42L1200.49,307.78L1201.75,296.42L1204.28,281.73L1205.55,242.37L1206.81,249.3L1208.08,274.8L1210.61,304.18L1211.87,301.41L1213.14,312.5L1214.4,298.36L1216.93,304.74L1218.2,302.52L1220.73,320.81L1221.99,316.1L1223.26,305.29L1224.52,309.45L1225.79,306.12L1227.05,300.02L1228.32,295.86L1229.58,279.51L1230.85,262.32L1232.11,259.27L1235.91,275.91L1237.17,277.57L1238.44,278.96L1239.7,289.49L1240.96,292.54L1242.23,307.23L1243.49,306.68L1244.76,296.42L1247.29,267.04L1248.56,266.48L1249.82,267.04L1251.09,273.41L1252.35,270.64L1253.62,270.09L1254.88,255.67L1256.15,270.09L1257.41,270.09L1258.68,275.91L1259.94,277.57L1261.21,288.93L1262.47,288.38L1263.74,279.51L1265,271.75" style="vector-effect: non-scaling-stroke; fill: none; stroke: rgb(31, 119, 180); stroke-opacity: 1; stroke-width: 2px; opacity: 1;"></path></g><g class="points"></g><g class="text"></g></g></g></g><g class="overplot"></g><path class="xlines-above crisp" d="M0,0" style="fill: none;"></path><path class="ylines-above crisp" d="M0,0" style="fill: none;"></path><g class="overlines-above"></g><g class="xaxislayer-above"><g class="xtick"><text text-anchor="middle" x="0" y="575" data-unformatted="0" data-math="N" transform="translate(80,0)" style="font-family: &quot;Open Sans&quot;, verdana, arial, sans-serif; font-size: 12px; fill: rgb(68, 68, 68); fill-opacity: 1; white-space: pre;">0</text></g><g class="xtick"><text text-anchor="middle" x="0" y="575" data-unformatted="20" data-math="N" transform="translate(333,0)" style="font-family: &quot;Open Sans&quot;, verdana, arial, sans-serif; font-size: 12px; fill: rgb(68, 68, 68); fill-opacity: 1; white-space: pre;">20</text></g><g class="xtick"><text text-anchor="middle" x="0" y="575" data-unformatted="40" data-math="N" transform="translate(586,0)" style="font-family: &quot;Open Sans&quot;, verdana, arial, sans-serif; font-size: 12px; fill: rgb(68, 68, 68); fill-opacity: 1; white-space: pre;">40</text></g><g class="xtick"><text text-anchor="middle" x="0" y="575" data-unformatted="60" data-math="N" transform="translate(839,0)" style="font-family: &quot;Open Sans&quot;, verdana, arial, sans-serif; font-size: 12px; fill: rgb(68, 68, 68); fill-opacity: 1; white-space: pre;">60</text></g><g class="xtick"><text text-anchor="middle" x="0" y="575" data-unformatted="80" data-math="N" transform="translate(1092,0)" style="font-family: &quot;Open Sans&quot;, verdana, arial, sans-serif; font-size: 12px; fill: rgb(68, 68, 68); fill-opacity: 1; white-space: pre;">80</text></g><g class="xtick"><text text-anchor="middle" x="0" y="575" data-unformatted="100" data-math="N" transform="translate(1345,0)" style="font-family: &quot;Open Sans&quot;, verdana, arial, sans-serif; font-size: 12px; fill: rgb(68, 68, 68); fill-opacity: 1; white-space: pre;">100</text></g></g><g class="yaxislayer-above"><g class="ytick"><text text-anchor="end" x="79" y="4.199999999999999" data-unformatted="20" data-math="N" transform="translate(0,557.2)" style="font-family: &quot;Open Sans&quot;, verdana, arial, sans-serif; font-size: 12px; fill: rgb(68, 68, 68); fill-opacity: 1; white-space: pre;">20</text></g><g class="ytick"><text text-anchor="end" x="79" y="4.199999999999999" data-unformatted="40" data-math="N" transform="translate(0,501.76)" style="font-family: &quot;Open Sans&quot;, verdana, arial, sans-serif; font-size: 12px; fill: rgb(68, 68, 68); fill-opacity: 1; white-space: pre;">40</text></g><g class="ytick"><text text-anchor="end" x="79" y="4.199999999999999" data-unformatted="60" data-math="N" transform="translate(0,446.32)" style="font-family: &quot;Open Sans&quot;, verdana, arial, sans-serif; font-size: 12px; fill: rgb(68, 68, 68); fill-opacity: 1; white-space: pre;">60</text></g><g class="ytick"><text text-anchor="end" x="79" y="4.199999999999999" data-unformatted="80" data-math="N" transform="translate(0,390.88)" style="font-family: &quot;Open Sans&quot;, verdana, arial, sans-serif; font-size: 12px; fill: rgb(68, 68, 68); fill-opacity: 1; white-space: pre;">80</text></g><g class="ytick"><text text-anchor="end" x="79" y="4.199999999999999" data-unformatted="100" data-math="N" transform="translate(0,335.44)" style="font-family: &quot;Open Sans&quot;, verdana, arial, sans-serif; font-size: 12px; fill: rgb(68, 68, 68); fill-opacity: 1; white-space: pre;">100</text></g><g class="ytick"><text text-anchor="end" x="79" y="4.199999999999999" data-unformatted="120" data-math="N" transform="translate(0,280)" style="font-family: &quot;Open Sans&quot;, verdana, arial, sans-serif; font-size: 12px; fill: rgb(68, 68, 68); fill-opacity: 1; white-space: pre;">120</text></g><g class="ytick"><text text-anchor="end" x="79" y="4.199999999999999" data-unformatted="140" data-math="N" transform="translate(0,224.56)" style="font-family: &quot;Open Sans&quot;, verdana, arial, sans-serif; font-size: 12px; fill: rgb(68, 68, 68); fill-opacity: 1; white-space: pre;">140</text></g><g class="ytick"><text text-anchor="end" x="79" y="4.199999999999999" data-unformatted="160" data-math="N" transform="translate(0,169.12)" style="font-family: &quot;Open Sans&quot;, verdana, arial, sans-serif; font-size: 12px; fill: rgb(68, 68, 68); fill-opacity: 1; white-space: pre;">160</text></g><g class="ytick"><text text-anchor="end" x="79" y="4.199999999999999" data-unformatted="180" data-math="N" transform="translate(0,113.68)" style="font-family: &quot;Open Sans&quot;, verdana, arial, sans-serif; font-size: 12px; fill: rgb(68, 68, 68); fill-opacity: 1; white-space: pre;">180</text></g></g><g class="overaxes-above"></g></g></g><g class="polarlayer"></g><g class="ternarylayer"></g><g class="geolayer"></g><g class="funnelarealayer"></g><g class="pielayer"></g><g class="treemaplayer"></g><g class="sunburstlayer"></g><g class="glimages"></g></svg><div class="gl-container"></div><svg class="main-svg" style="position: absolute" xmlns="http://www.w3.org/2000/svg" xmlns:xlink="http://www.w3.org/1999/xlink" width="1425.1128712871289" height="642"><defs id="topdefs-92751d"><g class="clips"></g></defs><g class="indicatorlayer"></g><g class="layer-above"><g class="imagelayer"></g><g class="shapelayer"></g></g><g class="infolayer"><g class="g-gtitle"></g><g class="g-xtitle"><text class="xtitle" x="712.5" y="614" text-anchor="middle" data-unformatted="Run 1: Time (s)" data-math="N" style="font-family: &quot;Open Sans&quot;, verdana, arial, sans-serif; font-size: 14px; fill: rgb(68, 68, 68); opacity: 1; font-weight: normal; white-space: pre;">Run 1: Time (s)</text></g><g class="g-ytitle"><text class="ytitle" transform="rotate(-90,42,331)" x="42" y="331" text-anchor="middle" data-unformatted="Run 1: Force (N)" data-math="N" style="font-family: &quot;Open Sans&quot;, verdana, arial, sans-serif; font-size: 14px; fill: rgb(68, 68, 68); opacity: 1; font-weight: normal; white-space: pre;">Run 1: Force (N)</text></g></g><g class="menulayer"></g><g class="zoomlayer"></g></svg><div class="modebar-container" style="position: absolute; top: 0px; right: 0px; width: 100%;"><div id="modebar-92751d" class="modebar modebar--hover ease-bg"><div class="modebar-group"><a rel="tooltip" class="modebar-btn" data-title="Download plot as a png" data-toggle="false" data-gravity="n"><svg viewBox="0 0 1000 1000" class="icon" height="1em" width="1em"><path d="m500 450c-83 0-150-67-150-150 0-83 67-150 150-150 83 0 150 67 150 150 0 83-67 150-150 150z m400 150h-120c-16 0-34 13-39 29l-31 93c-6 15-23 28-40 28h-340c-16 0-34-13-39-28l-31-94c-6-15-23-28-40-28h-120c-55 0-100-45-100-100v-450c0-55 45-100 100-100h800c55 0 100 45 100 100v450c0 55-45 100-100 100z m-400-550c-138 0-250 112-250 250 0 138 112 250 250 250 138 0 250-112 250-250 0-138-112-250-250-250z m365 380c-19 0-35 16-35 35 0 19 16 35 35 35 19 0 35-16 35-35 0-19-16-35-35-35z" transform="matrix(1 0 0 -1 0 850)"></path></svg></a></div><div class="modebar-group"><a rel="tooltip" class="modebar-btn active" data-title="Zoom" data-attr="dragmode" data-val="zoom" data-toggle="false" data-gravity="n"><svg viewBox="0 0 1000 1000" class="icon" height="1em" width="1em"><path d="m1000-25l-250 251c40 63 63 138 63 218 0 224-182 406-407 406-224 0-406-182-406-406s183-406 407-406c80 0 155 22 218 62l250-250 125 125z m-812 250l0 438 437 0 0-438-437 0z m62 375l313 0 0-312-313 0 0 312z" transform="matrix(1 0 0 -1 0 850)"></path></svg></a><a rel="tooltip" class="modebar-btn" data-title="Pan" data-attr="dragmode" data-val="pan" data-toggle="false" data-gravity="n"><svg viewBox="0 0 1000 1000" class="icon" height="1em" width="1em"><path d="m1000 350l-187 188 0-125-250 0 0 250 125 0-188 187-187-187 125 0 0-250-250 0 0 125-188-188 186-187 0 125 252 0 0-250-125 0 187-188 188 188-125 0 0 250 250 0 0-126 187 188z" transform="matrix(1 0 0 -1 0 850)"></path></svg></a></div><div class="modebar-group"><a rel="tooltip" class="modebar-btn" data-title="Zoom in" data-attr="zoom" data-val="in" data-toggle="false" data-gravity="n"><svg viewBox="0 0 875 1000" class="icon" height="1em" width="1em"><path d="m1 787l0-875 875 0 0 875-875 0z m687-500l-187 0 0-187-125 0 0 187-188 0 0 125 188 0 0 187 125 0 0-187 187 0 0-125z" transform="matrix(1 0 0 -1 0 850)"></path></svg></a><a rel="tooltip" class="modebar-btn" data-title="Zoom out" data-attr="zoom" data-val="out" data-toggle="false" data-gravity="n"><svg viewBox="0 0 875 1000" class="icon" height="1em" width="1em"><path d="m0 788l0-876 875 0 0 876-875 0z m688-500l-500 0 0 125 500 0 0-125z" transform="matrix(1 0 0 -1 0 850)"></path></svg></a><a rel="tooltip" class="modebar-btn" data-title="Autoscale" data-attr="zoom" data-val="auto" data-toggle="false" data-gravity="n"><svg viewBox="0 0 1000 1000" class="icon" height="1em" width="1em"><path d="m250 850l-187 0-63 0 0-62 0-188 63 0 0 188 187 0 0 62z m688 0l-188 0 0-62 188 0 0-188 62 0 0 188 0 62-62 0z m-875-938l0 188-63 0 0-188 0-62 63 0 187 0 0 62-187 0z m875 188l0-188-188 0 0-62 188 0 62 0 0 62 0 188-62 0z m-125 188l-1 0-93-94-156 156 156 156 92-93 2 0 0 250-250 0 0-2 93-92-156-156-156 156 94 92 0 2-250 0 0-250 0 0 93 93 157-156-157-156-93 94 0 0 0-250 250 0 0 0-94 93 156 157 156-157-93-93 0 0 250 0 0 250z" transform="matrix(1 0 0 -1 0 850)"></path></svg></a><a rel="tooltip" class="modebar-btn" data-title="Reset axes" data-attr="zoom" data-val="reset" data-toggle="false" data-gravity="n"><svg viewBox="0 0 928.6 1000" class="icon" height="1em" width="1em"><path d="m786 296v-267q0-15-11-26t-25-10h-214v214h-143v-214h-214q-15 0-25 10t-11 26v267q0 1 0 2t0 2l321 264 321-264q1-1 1-4z m124 39l-34-41q-5-5-12-6h-2q-7 0-12 3l-386 322-386-322q-7-4-13-4-7 2-12 7l-35 41q-4 5-3 13t6 12l401 334q18 15 42 15t43-15l136-114v109q0 8 5 13t13 5h107q8 0 13-5t5-13v-227l122-102q5-5 6-12t-4-13z" transform="matrix(1 0 0 -1 0 850)"></path></svg></a></div><div class="modebar-group"><a rel="tooltip" class="modebar-btn" data-title="Toggle Spike Lines" data-attr="_cartesianSpikesEnabled" data-val="on" data-toggle="false" data-gravity="n"><svg viewBox="0 0 1000 1000" class="icon" height="1em" width="1em"><path d="M512 409c0-57-46-104-103-104-57 0-104 47-104 104 0 57 47 103 104 103 57 0 103-46 103-103z m-327-39l92 0 0 92-92 0z m-185 0l92 0 0 92-92 0z m370-186l92 0 0 93-92 0z m0-184l92 0 0 92-92 0z" transform="matrix(1.5 0 0 -1.5 0 850)"></path></svg></a><a rel="tooltip" class="modebar-btn" data-title="Show closest data on hover" data-attr="hovermode" data-val="closest" data-toggle="false" data-gravity="ne"><svg viewBox="0 0 1500 1000" class="icon" height="1em" width="1em"><path d="m375 725l0 0-375-375 375-374 0-1 1125 0 0 750-1125 0z" transform="matrix(1 0 0 -1 0 850)"></path></svg></a><a rel="tooltip" class="modebar-btn active" data-title="Compare data on hover" data-attr="hovermode" data-val="x" data-toggle="false" data-gravity="ne"><svg viewBox="0 0 1125 1000" class="icon" height="1em" width="1em"><path d="m187 786l0 2-187-188 188-187 0 0 937 0 0 373-938 0z m0-499l0 1-187-188 188-188 0 0 937 0 0 376-938-1z" transform="matrix(1 0 0 -1 0 850)"></path></svg></a></div></div></div><svg class="main-svg" style="position: absolute" xmlns="http://www.w3.org/2000/svg" xmlns:xlink="http://www.w3.org/1999/xlink" width="1425.1128712871289" height="642"><g class="hoverlayer"></g></svg>