<svg class="main-svg" style="position: absolute" xmlns="http://www.w3.org/2000/svg" xmlns:xlink="http://www.w3.org/1999/xlink" width="904.225352112676" height="642" style="background: rgb(255, 255, 255);"><defs id="defs-90f2b5"><g class="clips"><clipPath id="clip90f2b5xyplot" class="plotclip"><rect width="744" height="462"></rect></clipPath><clipPath class="axesclip" id="clip90f2b5x"><rect x="80" y="0" width="744" height="642"></rect></clipPath><clipPath class="axesclip" id="clip90f2b5y"><rect x="0" y="100" width="904.225352112676" height="462"></rect></clipPath><clipPath class="axesclip" id="clip90f2b5xy"><rect x="80" y="100" width="744" height="462"></rect></clipPath></g><g class="gradients"></g></defs><g class="bglayer"><rect class="bg" x="80" y="100" width="744" height="462" style="fill: rgb(229, 229, 229); fill-opacity: 1; stroke-width: 0;"></rect></g><g class="draglayer cursor-crosshair"><g class="xy"><rect class="nsewdrag drag" data-subplot="xy" x="80" y="100" width="744" height="462" style="fill: transparent; stroke-width: 0; pointer-events: all;"></rect><rect class="nwdrag drag cursor-nw-resize" data-subplot="xy" x="60" y="80" width="20" height="20" style="fill: transparent; stroke-width: 0; pointer-events: all;"></rect><rect class="nedrag drag cursor-ne-resize" data-subplot="xy" x="824" y="80" width="20" height="20" style="fill: transparent; stroke-width: 0; pointer-events: all;"></rect><rect class="swdrag drag cursor-sw-resize" data-subplot="xy" x="60" y="562" width="20" height="20" style="fill: transparent; stroke-width: 0; pointer-events: all;"></rect><rect class="sedrag drag cursor-se-resize" data-subplot="xy" x="824" y="562" width="20" height="20" style="fill: transparent; stroke-width: 0; pointer-events: all;"></rect><rect class="ewdrag drag cursor-ew-resize" data-subplot="xy" x="154.4" y="562.5" width="595.2" height="20" style="fill: transparent; stroke-width: 0; pointer-events: all;"></rect><rect class="wdrag drag cursor-w-resize" data-subplot="xy" x="80" y="562.5" width="74.4" height="20" style="fill: transparent; stroke-width: 0; pointer-events: all;"></rect><rect class="edrag drag cursor-e-resize" data-subplot="xy" x="749.6" y="562.5" width="74.4" height="20" style="fill: transparent; stroke-width: 0; pointer-events: all;"></rect><rect class="nsdrag drag cursor-ns-resize" data-subplot="xy" x="59.5" y="146.2" width="20" height="369.6" style="fill: transparent; stroke-width: 0; pointer-events: all;"></rect><rect class="sdrag drag cursor-s-resize" data-subplot="xy" x="59.5" y="515.8" width="20" height="46.2" style="fill: transparent; stroke-width: 0; pointer-events: all;"></rect><rect class="ndrag drag cursor-n-resize" data-subplot="xy" x="59.5" y="100" width="20" height="46.2" style="fill: transparent; stroke-width: 0; pointer-events: all;"></rect></g></g><g class="layer-below"><g class="imagelayer"></g><g class="shapelayer"></g></g><g class="cartesianlayer"><g class="subplot xy"><g class="layer-subplot"><g class="shapelayer"></g><g class="imagelayer"></g></g><g class="gridlayer"><g class="x"><path class="xgrid crisp" transform="translate(95.03,0)" d="M0,100v462" style="stroke: rgb(246, 246, 246); stroke-opacity: 1; stroke-width: 1px;"></path><path class="xgrid crisp" transform="translate(170.18,0)" d="M0,100v462" style="stroke: rgb(246, 246, 246); stroke-opacity: 1; stroke-width: 1px;"></path><path class="xgrid crisp" transform="translate(245.33,0)" d="M0,100v462" style="stroke: rgb(246, 246, 246); stroke-opacity: 1; stroke-width: 1px;"></path><path class="xgrid crisp" transform="translate(320.48,0)" d="M0,100v462" style="stroke: rgb(246, 246, 246); stroke-opacity: 1; stroke-width: 1px;"></path><path class="xgrid crisp" transform="translate(395.64,0)" d="M0,100v462" style="stroke: rgb(246, 246, 246); stroke-opacity: 1; stroke-width: 1px;"></path><path class="xgrid crisp" transform="translate(545.94,0)" d="M0,100v462" style="stroke: rgb(246, 246, 246); stroke-opacity: 1; stroke-width: 1px;"></path><path class="xgrid crisp" transform="translate(621.09,0)" d="M0,100v462" style="stroke: rgb(246, 246, 246); stroke-opacity: 1; stroke-width: 1px;"></path><path class="xgrid crisp" transform="translate(696.24,0)" d="M0,100v462" style="stroke: rgb(246, 246, 246); stroke-opacity: 1; stroke-width: 1px;"></path><path class="xgrid crisp" transform="translate(771.39,0)" d="M0,100v462" style="stroke: rgb(246, 246, 246); stroke-opacity: 1; stroke-width: 1px;"></path></g><g class="y"><path class="ygrid crisp" transform="translate(0,512.13)" d="M80,0h744" style="stroke: rgb(246, 246, 246); stroke-opacity: 1; stroke-width: 1px;"></path><path class="ygrid crisp" transform="translate(0,462.25)" d="M80,0h744" style="stroke: rgb(246, 246, 246); stroke-opacity: 1; stroke-width: 1px;"></path><path class="ygrid crisp" transform="translate(0,412.38)" d="M80,0h744" style="stroke: rgb(246, 246, 246); stroke-opacity: 1; stroke-width: 1px;"></path><path class="ygrid crisp" transform="translate(0,362.5)" d="M80,0h744" style="stroke: rgb(246, 246, 246); stroke-opacity: 1; stroke-width: 1px;"></path><path class="ygrid crisp" transform="translate(0,312.63)" d="M80,0h744" style="stroke: rgb(246, 246, 246); stroke-opacity: 1; stroke-width: 1px;"></path><path class="ygrid crisp" transform="translate(0,262.75)" d="M80,0h744" style="stroke: rgb(246, 246, 246); stroke-opacity: 1; stroke-width: 1px;"></path><path class="ygrid crisp" transform="translate(0,212.88)" d="M80,0h744" style="stroke: rgb(246, 246, 246); stroke-opacity: 1; stroke-width: 1px;"></path><path class="ygrid crisp" transform="translate(0,163)" d="M80,0h744" style="stroke: rgb(246, 246, 246); stroke-opacity: 1; stroke-width: 1px;"></path><path class="ygrid crisp" transform="translate(0,113.13)" d="M80,0h744" style="stroke: rgb(246, 246, 246); stroke-opacity: 1; stroke-width: 1px;"></path></g></g><g class="zerolinelayer"><path class="xzl zl crisp" transform="translate(470.79,0)" d="M0,100v462" style="stroke: rgb(246, 246, 246); stroke-opacity: 1; stroke-width: 1px;"></path><path class="yzl zl crisp" transform="translate(0,562)" d="M80,0h744" style="stroke: rgb(246, 246, 246); stroke-opacity: 1; stroke-width: 1px;"></path></g><path class="xlines-below"></path><path class="ylines-below"></path><g class="overlines-below"></g><g class="xaxislayer-below"></g><g class="yaxislayer-below"></g><g class="overaxes-below"></g><g class="plot" transform="translate(80,100)" clip-path="url('#clip90f2b5xyplot')"><g class="barlayer mlayer"><g class="trace bars" style="opacity: 0.8;"><g class="points"><g class="point"><path d="M247.35,461.35V456.35H262.35V461.35Z" style="vector-effect: non-scaling-stroke; opacity: 1; stroke-width: 1.3px; fill: rgb(226, 74, 51); fill-opacity: 1; stroke: rgb(217, 217, 217); stroke-opacity: 1;"></path></g><g class="point"><path d="M262.35,461.35V446.35H277.35V461.35Z" style="vector-effect: non-scaling-stroke; opacity: 1; stroke-width: 1.3px; fill: rgb(226, 74, 51); fill-opacity: 1; stroke: rgb(217, 217, 217); stroke-opacity: 1;"></path></g><g class="point"><path d="M277.35,461.35V446.35H292.35V461.35Z" style="vector-effect: non-scaling-stroke; opacity: 1; stroke-width: 1.3px; fill: rgb(226, 74, 51); fill-opacity: 1; stroke: rgb(217, 217, 217); stroke-opacity: 1;"></path></g><g class="point"><path d="M292.35,461.35V441.35H307.35V461.35Z" style="vector-effect: non-scaling-stroke; opacity: 1; stroke-width: 1.3px; fill: rgb(226, 74, 51); fill-opacity: 1; stroke: rgb(217, 217, 217); stroke-opacity: 1;"></path></g><g class="point"><path d="M307.35,461.35V406.35H322.35V461.35Z" style="vector-effect: non-scaling-stroke; opacity: 1; stroke-width: 1.3px; fill: rgb(226, 74, 51); fill-opacity: 1; stroke: rgb(217, 217, 217); stroke-opacity: 1;"></path></g><g class="point"><path d="M322.35,461.35V381.35H337.35V461.35Z" style="vector-effect: non-scaling-stroke; opacity: 1; stroke-width: 1.3px; fill: rgb(226, 74, 51); fill-opacity: 1; stroke: rgb(217, 217, 217); stroke-opacity: 1;"></path></g><g class="point"><path d="M337.35,461.35V346.35H352.35V461.35Z" style="vector-effect: non-scaling-stroke; opacity: 1; stroke-width: 1.3px; fill: rgb(226, 74, 51); fill-opacity: 1; stroke: rgb(217, 217, 217); stroke-opacity: 1;"></path></g><g class="point"><path d="M352.35,461.35V266.35H367.35V461.35Z" style="vector-effect: non-scaling-stroke; opacity: 1; stroke-width: 1.3px; fill: rgb(226, 74, 51); fill-opacity: 1; stroke: rgb(217, 217, 217); stroke-opacity: 1;"></path></g><g class="point"><path d="M367.35,461.35V306.35H382.35V461.35Z" style="vector-effect: non-scaling-stroke; opacity: 1; stroke-width: 1.3px; fill: rgb(226, 74, 51); fill-opacity: 1; stroke: rgb(217, 217, 217); stroke-opacity: 1;"></path></g><g class="point"><path d="M382.35,461.35V182.35H397.35V461.35Z" style="vector-effect: non-scaling-stroke; opacity: 1; stroke-width: 1.3px; fill: rgb(226, 74, 51); fill-opacity: 1; stroke: rgb(217, 217, 217); stroke-opacity: 1;"></path></g><g class="point"><path d="M397.35,461.35V152.35H412.35V461.35Z" style="vector-effect: non-scaling-stroke; opacity: 1; stroke-width: 1.3px; fill: rgb(226, 74, 51); fill-opacity: 1; stroke: rgb(217, 217, 217); stroke-opacity: 1;"></path></g><g class="point"><path d="M412.35,461.35V87.35H427.35V461.35Z" style="vector-effect: non-scaling-stroke; opacity: 1; stroke-width: 1.3px; fill: rgb(226, 74, 51); fill-opacity: 1; stroke: rgb(217, 217, 217); stroke-opacity: 1;"></path></g><g class="point"><path d="M427.35,461.35V122.35H442.35V461.35Z" style="vector-effect: non-scaling-stroke; opacity: 1; stroke-width: 1.3px; fill: rgb(226, 74, 51); fill-opacity: 1; stroke: rgb(217, 217, 217); stroke-opacity: 1;"></path></g><g class="point"><path d="M442.35,461.35V87.35H457.35V461.35Z" style="vector-effect: non-scaling-stroke; opacity: 1; stroke-width: 1.3px; fill: rgb(226, 74, 51); fill-opacity: 1; stroke: rgb(217, 217, 217); stroke-opacity: 1;"></path></g><g class="point"><path d="M457.35,461.35V57.35H472.35V461.35Z" style="vector-effect: non-scaling-stroke; opacity: 1; stroke-width: 1.3px; fill: rgb(226, 74, 51); fill-opacity: 1; stroke: rgb(217, 217, 217); stroke-opacity: 1;"></path></g><g class="point"><path d="M472.35,461.35V52.35H487.35V461.35Z" style="vector-effect: non-scaling-stroke; opacity: 1; stroke-width: 1.3px; fill: rgb(226, 74, 51); fill-opacity: 1; stroke: rgb(217, 217, 217); stroke-opacity: 1;"></path></g><g class="point"><path d="M487.35,461.35V77.35H503.35V461.35Z" style="vector-effect: non-scaling-stroke; opacity: 1; stroke-width: 1.3px; fill: rgb(226, 74, 51); fill-opacity: 1; stroke: rgb(217, 217, 217); stroke-opacity: 1;"></path></g><g class="point"><path d="M503.35,461.35V192.35H518.35V461.35Z" style="vector-effect: non-scaling-stroke; opacity: 1; stroke-width: 1.3px; fill: rgb(226, 74, 51); fill-opacity: 1; stroke: rgb(217, 217, 217); stroke-opacity: 1;"></path></g><g class="point"><path d="M518.35,461.35V222.35H533.35V461.35Z" style="vector-effect: non-scaling-stroke; opacity: 1; stroke-width: 1.3px; fill: rgb(226, 74, 51); fill-opacity: 1; stroke: rgb(217, 217, 217); stroke-opacity: 1;"></path></g><g class="point"><path d="M533.35,461.35V217.35H548.35V461.35Z" style="vector-effect: non-scaling-stroke; opacity: 1; stroke-width: 1.3px; fill: rgb(226, 74, 51); fill-opacity: 1; stroke: rgb(217, 217, 217); stroke-opacity: 1;"></path></g><g class="point"><path d="M548.35,461.35V311.35H563.35V461.35Z" style="vector-effect: non-scaling-stroke; opacity: 1; stroke-width: 1.3px; fill: rgb(226, 74, 51); fill-opacity: 1; stroke: rgb(217, 217, 217); stroke-opacity: 1;"></path></g><g class="point"><path d="M563.35,461.35V271.35H578.35V461.35Z" style="vector-effect: non-scaling-stroke; opacity: 1; stroke-width: 1.3px; fill: rgb(226, 74, 51); fill-opacity: 1; stroke: rgb(217, 217, 217); stroke-opacity: 1;"></path></g><g class="point"><path d="M578.35,461.35V321.35H593.35V461.35Z" style="vector-effect: non-scaling-stroke; opacity: 1; stroke-width: 1.3px; fill: rgb(226, 74, 51); fill-opacity: 1; stroke: rgb(217, 217, 217); stroke-opacity: 1;"></path></g><g class="point"><path d="M593.35,461.35V391.35H608.35V461.35Z" style="vector-effect: non-scaling-stroke; opacity: 1; stroke-width: 1.3px; fill: rgb(226, 74, 51); fill-opacity: 1; stroke: rgb(217, 217, 217); stroke-opacity: 1;"></path></g><g class="point"><path d="M608.35,461.35V391.35H623.35V461.35Z" style="vector-effect: non-scaling-stroke; opacity: 1; stroke-width: 1.3px; fill: rgb(226, 74, 51); fill-opacity: 1; stroke: rgb(217, 217, 217); stroke-opacity: 1;"></path></g><g class="point"><path d="M623.35,461.35V421.35H638.35V461.35Z" style="vector-effect: non-scaling-stroke; opacity: 1; stroke-width: 1.3px; fill: rgb(226, 74, 51); fill-opacity: 1; stroke: rgb(217, 217, 217); stroke-opacity: 1;"></path></g><g class="point"><path d="M638.35,461.35V451.35H653.35V461.35Z" style="vector-effect: non-scaling-stroke; opacity: 1; stroke-width: 1.3px; fill: rgb(226, 74, 51); fill-opacity: 1; stroke: rgb(217, 217, 217); stroke-opacity: 1;"></path></g><g class="point"><path d="M653.35,461.35V441.35H668.35V461.35Z" style="vector-effect: non-scaling-stroke; opacity: 1; stroke-width: 1.3px; fill: rgb(226, 74, 51); fill-opacity: 1; stroke: rgb(217, 217, 217); stroke-opacity: 1;"></path></g><g class="point"><path d="M668.35,461.35V451.35H683.35V461.35Z" style="vector-effect: non-scaling-stroke; opacity: 1; stroke-width: 1.3px; fill: rgb(226, 74, 51); fill-opacity: 1; stroke: rgb(217, 217, 217); stroke-opacity: 1;"></path></g><g class="point"><path d="M683.35,461.35V461.35H698.35V461.35Z" style="vector-effect: non-scaling-stroke; opacity: 1; stroke-width: 0px; fill: rgb(226, 74, 51); fill-opacity: 1; stroke: rgb(217, 217, 217); stroke-opacity: 1;"></path></g><g class="point"><path d="M698.35,461.35V461.35H713.35V461.35Z" style="vector-effect: non-scaling-stroke; opacity: 1; stroke-width: 0px; fill: rgb(226, 74, 51); fill-opacity: 1; stroke: rgb(217, 217, 217); stroke-opacity: 1;"></path></g><g class="point"><path d="M713.35,461.35V456.35H728.35V461.35Z" style="vector-effect: non-scaling-stroke; opacity: 1; stroke-width: 1.3px; fill: rgb(226, 74, 51); fill-opacity: 1; stroke: rgb(217, 217, 217); stroke-opacity: 1;"></path></g><g class="point"><path d="M728.35,461.35V456.35H743.35V461.35Z" style="vector-effect: non-scaling-stroke; opacity: 1; stroke-width: 1.3px; fill: rgb(226, 74, 51); fill-opacity: 1; stroke: rgb(217, 217, 217); stroke-opacity: 1;"></path></g></g></g><g class="trace bars" style="opacity: 0.8;"><g class="points"><g class="point"><path d="M149.35,461.35V451.35H164.35V461.35Z" style="vector-effect: non-scaling-stroke; opacity: 1; stroke-width: 1.3px; fill: rgb(62, 111, 176); fill-opacity: 1; stroke: rgb(217, 217, 217); stroke-opacity: 1;"></path></g><g class="point"><path d="M164.35,461.35V451.35H179.35V461.35Z" style="vector-effect: non-scaling-stroke; opacity: 1; stroke-width: 1.3px; fill: rgb(62, 111, 176); fill-opacity: 1; stroke: rgb(217, 217, 217); stroke-opacity: 1;"></path></g><g class="point"><path d="M179.35,461.35V451.35H194.35V461.35Z" style="vector-effect: non-scaling-stroke; opacity: 1; stroke-width: 1.3px; fill: rgb(62, 111, 176); fill-opacity: 1; stroke: rgb(217, 217, 217); stroke-opacity: 1;"></path></g><g class="point"><path d="M194.35,461.35V416.35H209.35V461.35Z" style="vector-effect: non-scaling-stroke; opacity: 1; stroke-width: 1.3px; fill: rgb(62, 111, 176); fill-opacity: 1; stroke: rgb(217, 217, 217); stroke-opacity: 1;"></path></g><g class="point"><path d="M209.35,461.35V411.35H224.35V461.35Z" style="vector-effect: non-scaling-stroke; opacity: 1; stroke-width: 1.3px; fill: rgb(62, 111, 176); fill-opacity: 1; stroke: rgb(217, 217, 217); stroke-opacity: 1;"></path></g><g class="point"><path d="M224.35,461.35V426.35H239.35V461.35Z" style="vector-effect: non-scaling-stroke; opacity: 1; stroke-width: 1.3px; fill: rgb(62, 111, 176); fill-opacity: 1; stroke: rgb(217, 217, 217); stroke-opacity: 1;"></path></g><g class="point"><path d="M239.35,461.35V376.35H255.35V461.35Z" style="vector-effect: non-scaling-stroke; opacity: 1; stroke-width: 1.3px; fill: rgb(62, 111, 176); fill-opacity: 1; stroke: rgb(217, 217, 217); stroke-opacity: 1;"></path></g><g class="point"><path d="M255.35,461.35V406.35H270.35V461.35Z" style="vector-effect: non-scaling-stroke; opacity: 1; stroke-width: 1.3px; fill: rgb(62, 111, 176); fill-opacity: 1; stroke: rgb(217, 217, 217); stroke-opacity: 1;"></path></g><g class="point"><path d="M270.35,461.35V286.35H285.35V461.35Z" style="vector-effect: non-scaling-stroke; opacity: 1; stroke-width: 1.3px; fill: rgb(62, 111, 176); fill-opacity: 1; stroke: rgb(217, 217, 217); stroke-opacity: 1;"></path></g><g class="point"><path d="M285.35,461.35V336.35H300.35V461.35Z" style="vector-effect: non-scaling-stroke; opacity: 1; stroke-width: 1.3px; fill: rgb(62, 111, 176); fill-opacity: 1; stroke: rgb(217, 217, 217); stroke-opacity: 1;"></path></g><g class="point"><path d="M300.35,461.35V271.35H315.35V461.35Z" style="vector-effect: non-scaling-stroke; opacity: 1; stroke-width: 1.3px; fill: rgb(62, 111, 176); fill-opacity: 1; stroke: rgb(217, 217, 217); stroke-opacity: 1;"></path></g><g class="point"><path d="M315.35,461.35V202.35H330.35V461.35Z" style="vector-effect: non-scaling-stroke; opacity: 1; stroke-width: 1.3px; fill: rgb(62, 111, 176); fill-opacity: 1; stroke: rgb(217, 217, 217); stroke-opacity: 1;"></path></g><g class="point"><path d="M330.35,461.35V142.35H345.35V461.35Z" style="vector-effect: non-scaling-stroke; opacity: 1; stroke-width: 1.3px; fill: rgb(62, 111, 176); fill-opacity: 1; stroke: rgb(217, 217, 217); stroke-opacity: 1;"></path></g><g class="point"><path d="M345.35,461.35V87.35H360.35V461.35Z" style="vector-effect: non-scaling-stroke; opacity: 1; stroke-width: 1.3px; fill: rgb(62, 111, 176); fill-opacity: 1; stroke: rgb(217, 217, 217); stroke-opacity: 1;"></path></g><g class="point"><path d="M360.35,461.35V62.35H375.35V461.35Z" style="vector-effect: non-scaling-stroke; opacity: 1; stroke-width: 1.3px; fill: rgb(62, 111, 176); fill-opacity: 1; stroke: rgb(217, 217, 217); stroke-opacity: 1;"></path></g><g class="point"><path d="M375.35,461.35V32.35H390.35V461.35Z" style="vector-effect: non-scaling-stroke; opacity: 1; stroke-width: 1.3px; fill: rgb(62, 111, 176); fill-opacity: 1; stroke: rgb(217, 217, 217); stroke-opacity: 1;"></path></g><g class="point"><path d="M390.35,461.35V62.35H405.35V461.35Z" style="vector-effect: non-scaling-stroke; opacity: 1; stroke-width: 1.3px; fill: rgb(62, 111, 176); fill-opacity: 1; stroke: rgb(217, 217, 217); stroke-opacity: 1;"></path></g><g class="point"><path d="M405.35,461.35V177.35H420.35V461.35Z" style="vector-effect: non-scaling-stroke; opacity: 1; stroke-width: 1.3px; fill: rgb(62, 111, 176); fill-opacity: 1; stroke: rgb(217, 217, 217); stroke-opacity: 1;"></path></g><g class="point"><path d="M420.35,461.35V22.35H435.35V461.35Z" style="vector-effect: non-scaling-stroke; opacity: 1; stroke-width: 1.3px; fill: rgb(62, 111, 176); fill-opacity: 1; stroke: rgb(217, 217, 217); stroke-opacity: 1;"></path></g><g class="point"><path d="M435.35,461.35V147.35H450.35V461.35Z" style="vector-effect: non-scaling-stroke; opacity: 1; stroke-width: 1.3px; fill: rgb(62, 111, 176); fill-opacity: 1; stroke: rgb(217, 217, 217); stroke-opacity: 1;"></path></g><g class="point"><path d="M450.35,461.35V197.35H465.35V461.35Z" style="vector-effect: non-scaling-stroke; opacity: 1; stroke-width: 1.3px; fill: rgb(62, 111, 176); fill-opacity: 1; stroke: rgb(217, 217, 217); stroke-opacity: 1;"></path></g><g class="point"><path d="M465.35,461.35V266.35H480.35V461.35Z" style="vector-effect: non-scaling-stroke; opacity: 1; stroke-width: 1.3px; fill: rgb(62, 111, 176); fill-opacity: 1; stroke: rgb(217, 217, 217); stroke-opacity: 1;"></path></g><g class="point"><path d="M480.35,461.35V271.35H495.35V461.35Z" style="vector-effect: non-scaling-stroke; opacity: 1; stroke-width: 1.3px; fill: rgb(62, 111, 176); fill-opacity: 1; stroke: rgb(217, 217, 217); stroke-opacity: 1;"></path></g><g class="point"><path d="M495.35,461.35V371.35H510.35V461.35Z" style="vector-effect: non-scaling-stroke; opacity: 1; stroke-width: 1.3px; fill: rgb(62, 111, 176); fill-opacity: 1; stroke: rgb(217, 217, 217); stroke-opacity: 1;"></path></g><g class="point"><path d="M510.35,461.35V381.35H525.35V461.35Z" style="vector-effect: non-scaling-stroke; opacity: 1; stroke-width: 1.3px; fill: rgb(62, 111, 176); fill-opacity: 1; stroke: rgb(217, 217, 217); stroke-opacity: 1;"></path></g><g class="point"><path d="M525.35,461.35V381.35H540.35V461.35Z" style="vector-effect: non-scaling-stroke; opacity: 1; stroke-width: 1.3px; fill: rgb(62, 111, 176); fill-opacity: 1; stroke: rgb(217, 217, 217); stroke-opacity: 1;"></path></g><g class="point"><path d="M540.35,461.35V421.35H555.35V461.35Z" style="vector-effect: non-scaling-stroke; opacity: 1; stroke-width: 1.3px; fill: rgb(62, 111, 176); fill-opacity: 1; stroke: rgb(217, 217, 217); stroke-opacity: 1;"></path></g><g class="point"><path d="M555.35,461.35V446.35H570.35V461.35Z" style="vector-effect: non-scaling-stroke; opacity: 1; stroke-width: 1.3px; fill: rgb(62, 111, 176); fill-opacity: 1; stroke: rgb(217, 217, 217); stroke-opacity: 1;"></path></g><g class="point"><path d="M570.35,461.35V451.35H585.35V461.35Z" style="vector-effect: non-scaling-stroke; opacity: 1; stroke-width: 1.3px; fill: rgb(62, 111, 176); fill-opacity: 1; stroke: rgb(217, 217, 217); stroke-opacity: 1;"></path></g><g class="point"><path d="M585.35,461.35V446.35H600.35V461.35Z" style="vector-effect: non-scaling-stroke; opacity: 1; stroke-width: 1.3px; fill: rgb(62, 111, 176); fill-opacity: 1; stroke: rgb(217, 217, 217); stroke-opacity: 1;"></path></g><g class="point"><path d="M600.35,461.35V461.35H615.35V461.35Z" style="vector-effect: non-scaling-stroke; opacity: 1; stroke-width: 0px; fill: rgb(62, 111, 176); fill-opacity: 1; stroke: rgb(217, 217, 217); stroke-opacity: 1;"></path></g><g class="point"><path d="M615.35,461.35V456.35H630.35V461.35Z" style="vector-effect: non-scaling-stroke; opacity: 1; stroke-width: 1.3px; fill: rgb(62, 111, 176); fill-opacity: 1; stroke: rgb(217, 217, 217); stroke-opacity: 1;"></path></g></g></g><g class="trace bars" style="opacity: 0.8;"><g class="points"><g class="point"><path d="M-0.65,461.35V456.35H14.35V461.35Z" style="vector-effect: non-scaling-stroke; opacity: 1; stroke-width: 1.3px; fill: rgb(132, 118, 202); fill-opacity: 1; stroke: rgb(217, 217, 217); stroke-opacity: 1;"></path></g><g class="point"><path d="M14.35,461.35V461.35H29.35V461.35Z" style="vector-effect: non-scaling-stroke; opacity: 1; stroke-width: 0px; fill: rgb(132, 118, 202); fill-opacity: 1; stroke: rgb(217, 217, 217); stroke-opacity: 1;"></path></g><g class="point"><path d="M29.35,461.35V456.35H44.35V461.35Z" style="vector-effect: non-scaling-stroke; opacity: 1; stroke-width: 1.3px; fill: rgb(132, 118, 202); fill-opacity: 1; stroke: rgb(217, 217, 217); stroke-opacity: 1;"></path></g><g class="point"><path d="M44.35,461.35V461.35H59.35V461.35Z" style="vector-effect: non-scaling-stroke; opacity: 1; stroke-width: 0px; fill: rgb(132, 118, 202); fill-opacity: 1; stroke: rgb(217, 217, 217); stroke-opacity: 1;"></path></g><g class="point"><path d="M59.35,461.35V456.35H74.35V461.35Z" style="vector-effect: non-scaling-stroke; opacity: 1; stroke-width: 1.3px; fill: rgb(132, 118, 202); fill-opacity: 1; stroke: rgb(217, 217, 217); stroke-opacity: 1;"></path></g><g class="point"><path d="M74.35,461.35V456.35H89.35V461.35Z" style="vector-effect: non-scaling-stroke; opacity: 1; stroke-width: 1.3px; fill: rgb(132, 118, 202); fill-opacity: 1; stroke: rgb(217, 217, 217); stroke-opacity: 1;"></path></g><g class="point"><path d="M89.35,461.35V461.35H104.35V461.35Z" style="vector-effect: non-scaling-stroke; opacity: 1; stroke-width: 0px; fill: rgb(132, 118, 202); fill-opacity: 1; stroke: rgb(217, 217, 217); stroke-opacity: 1;"></path></g><g class="point"><path d="M104.35,461.35V461.35H119.35V461.35Z" style="vector-effect: non-scaling-stroke; opacity: 1; stroke-width: 0px; fill: rgb(132, 118, 202); fill-opacity: 1; stroke: rgb(217, 217, 217); stroke-opacity: 1;"></path></g><g class="point"><path d="M119.35,461.35V441.35H134.35V461.35Z" style="vector-effect: non-scaling-stroke; opacity: 1; stroke-width: 1.3px; fill: rgb(132, 118, 202); fill-opacity: 1; stroke: rgb(217, 217, 217); stroke-opacity: 1;"></path></g><g class="point"><path d="M134.35,461.35V431.35H149.35V461.35Z" style="vector-effect: non-scaling-stroke; opacity: 1; stroke-width: 1.3px; fill: rgb(132, 118, 202); fill-opacity: 1; stroke: rgb(217, 217, 217); stroke-opacity: 1;"></path></g><g class="point"><path d="M149.35,461.35V451.35H164.35V461.35Z" style="vector-effect: non-scaling-stroke; opacity: 1; stroke-width: 1.3px; fill: rgb(132, 118, 202); fill-opacity: 1; stroke: rgb(217, 217, 217); stroke-opacity: 1;"></path></g><g class="point"><path d="M164.35,461.35V381.35H179.35V461.35Z" style="vector-effect: non-scaling-stroke; opacity: 1; stroke-width: 1.3px; fill: rgb(132, 118, 202); fill-opacity: 1; stroke: rgb(217, 217, 217); stroke-opacity: 1;"></path></g><g class="point"><path d="M179.35,461.35V376.35H194.35V461.35Z" style="vector-effect: non-scaling-stroke; opacity: 1; stroke-width: 1.3px; fill: rgb(132, 118, 202); fill-opacity: 1; stroke: rgb(217, 217, 217); stroke-opacity: 1;"></path></g><g class="point"><path d="M194.35,461.35V276.35H209.35V461.35Z" style="vector-effect: non-scaling-stroke; opacity: 1; stroke-width: 1.3px; fill: rgb(132, 118, 202); fill-opacity: 1; stroke: rgb(217, 217, 217); stroke-opacity: 1;"></path></g><g class="point"><path d="M209.35,461.35V271.35H224.35V461.35Z" style="vector-effect: non-scaling-stroke; opacity: 1; stroke-width: 1.3px; fill: rgb(132, 118, 202); fill-opacity: 1; stroke: rgb(217, 217, 217); stroke-opacity: 1;"></path></g><g class="point"><path d="M224.35,461.35V262.35H239.35V461.35Z" style="vector-effect: non-scaling-stroke; opacity: 1; stroke-width: 1.3px; fill: rgb(132, 118, 202); fill-opacity: 1; stroke: rgb(217, 217, 217); stroke-opacity: 1;"></path></g><g class="point"><path d="M239.35,461.35V117.35H255.35V461.35Z" style="vector-effect: non-scaling-stroke; opacity: 1; stroke-width: 1.3px; fill: rgb(132, 118, 202); fill-opacity: 1; stroke: rgb(217, 217, 217); stroke-opacity: 1;"></path></g><g class="point"><path d="M255.35,461.35V187.35H270.35V461.35Z" style="vector-effect: non-scaling-stroke; opacity: 1; stroke-width: 1.3px; fill: rgb(132, 118, 202); fill-opacity: 1; stroke: rgb(217, 217, 217); stroke-opacity: 1;"></path></g><g class="point"><path d="M270.35,461.35V157.35H285.35V461.35Z" style="vector-effect: non-scaling-stroke; opacity: 1; stroke-width: 1.3px; fill: rgb(132, 118, 202); fill-opacity: 1; stroke: rgb(217, 217, 217); stroke-opacity: 1;"></path></g><g class="point"><path d="M285.35,461.35V97.35H300.35V461.35Z" style="vector-effect: non-scaling-stroke; opacity: 1; stroke-width: 1.3px; fill: rgb(132, 118, 202); fill-opacity: 1; stroke: rgb(217, 217, 217); stroke-opacity: 1;"></path></g><g class="point"><path d="M300.35,461.35V92.35H315.35V461.35Z" style="vector-effect: non-scaling-stroke; opacity: 1; stroke-width: 1.3px; fill: rgb(132, 118, 202); fill-opacity: 1; stroke: rgb(217, 217, 217); stroke-opacity: 1;"></path></g><g class="point"><path d="M315.35,461.35V22.35H330.35V461.35Z" style="vector-effect: non-scaling-stroke; opacity: 1; stroke-width: 1.3px; fill: rgb(132, 118, 202); fill-opacity: 1; stroke: rgb(217, 217, 217); stroke-opacity: 1;"></path></g><g class="point"><path d="M330.35,461.35V102.35H345.35V461.35Z" style="vector-effect: non-scaling-stroke; opacity: 1; stroke-width: 1.3px; fill: rgb(132, 118, 202); fill-opacity: 1; stroke: rgb(217, 217, 217); stroke-opacity: 1;"></path></g><g class="point"><path d="M345.35,461.35V97.35H360.35V461.35Z" style="vector-effect: non-scaling-stroke; opacity: 1; stroke-width: 1.3px; fill: rgb(132, 118, 202); fill-opacity: 1; stroke: rgb(217, 217, 217); stroke-opacity: 1;"></path></g><g class="point"><path d="M360.35,461.35V182.35H375.35V461.35Z" style="vector-effect: non-scaling-stroke; opacity: 1; stroke-width: 1.3px; fill: rgb(132, 118, 202); fill-opacity: 1; stroke: rgb(217, 217, 217); stroke-opacity: 1;"></path></g><g class="point"><path d="M375.35,461.35V187.35H390.35V461.35Z" style="vector-effect: non-scaling-stroke; opacity: 1; stroke-width: 1.3px; fill: rgb(132, 118, 202); fill-opacity: 1; stroke: rgb(217, 217, 217); stroke-opacity: 1;"></path></g><g class="point"><path d="M390.35,461.35V212.35H405.35V461.35Z" style="vector-effect: non-scaling-stroke; opacity: 1; stroke-width: 1.3px; fill: rgb(132, 118, 202); fill-opacity: 1; stroke: rgb(217, 217, 217); stroke-opacity: 1;"></path></g><g class="point"><path d="M405.35,461.35V286.35H420.35V461.35Z" style="vector-effect: non-scaling-stroke; opacity: 1; stroke-width: 1.3px; fill: rgb(132, 118, 202); fill-opacity: 1; stroke: rgb(217, 217, 217); stroke-opacity: 1;"></path></g><g class="point"><path d="M420.35,461.35V331.35H435.35V461.35Z" style="vector-effect: non-scaling-stroke; opacity: 1; stroke-width: 1.3px; fill: rgb(132, 118, 202); fill-opacity: 1; stroke: rgb(217, 217, 217); stroke-opacity: 1;"></path></g><g class="point"><path d="M435.35,461.35V386.35H450.35V461.35Z" style="vector-effect: non-scaling-stroke; opacity: 1; stroke-width: 1.3px; fill: rgb(132, 118, 202); fill-opacity: 1; stroke: rgb(217, 217, 217); stroke-opacity: 1;"></path></g><g class="point"><path d="M450.35,461.35V396.35H465.35V461.35Z" style="vector-effect: non-scaling-stroke; opacity: 1; stroke-width: 1.3px; fill: rgb(132, 118, 202); fill-opacity: 1; stroke: rgb(217, 217, 217); stroke-opacity: 1;"></path></g><g class="point"><path d="M465.35,461.35V416.35H480.35V461.35Z" style="vector-effect: non-scaling-stroke; opacity: 1; stroke-width: 1.3px; fill: rgb(132, 118, 202); fill-opacity: 1; stroke: rgb(217, 217, 217); stroke-opacity: 1;"></path></g><g class="point"><path d="M480.35,461.35V426.35H495.35V461.35Z" style="vector-effect: non-scaling-stroke; opacity: 1; stroke-width: 1.3px; fill: rgb(132, 118, 202); fill-opacity: 1; stroke: rgb(217, 217, 217); stroke-opacity: 1;"></path></g><g class="point"><path d="M495.35,461.35V451.35H510.35V461.35Z" style="vector-effect: non-scaling-stroke; opacity: 1; stroke-width: 1.3px; fill: rgb(132, 118, 202); fill-opacity: 1; stroke: rgb(217, 217, 217); stroke-opacity: 1;"></path></g><g class="point"><path d="M510.35,461.35V456.35H525.35V461.35Z" style="vector-effect: non-scaling-stroke; opacity: 1; stroke-width: 1.3px; fill: rgb(132, 118, 202); fill-opacity: 1; stroke: rgb(217, 217, 217); stroke-opacity: 1;"></path></g><g class="point"><path d="M525.35,461.35V451.35H540.35V461.35Z" style="vector-effect: non-scaling-stroke; opacity: 1; stroke-width: 1.3px; fill: rgb(132, 118, 202); fill-opacity: 1; stroke: rgb(217, 217, 217); stroke-opacity: 1;"></path></g></g></g></g></g><g class="overplot"></g><path class="xlines-above crisp" d="M0,0" style="fill: none;"></path><path class="ylines-above crisp" style="fill: none;" d="M0,0"></path><g class="overlines-above"></g><g class="xaxislayer-above"><g class="xtick"><text text-anchor="middle" x="0" y="575" data-unformatted="−5" data-math="N" transform="translate(95.03,0)" style="font-family: &quot;Open Sans&quot;, verdana, arial, sans-serif; font-size: 12px; fill: rgb(102, 102, 102); fill-opacity: 1; white-space: pre;">−5</text></g><g class="xtick"><text text-anchor="middle" x="0" y="575" data-unformatted="−4" data-math="N" transform="translate(170.18,0)" style="font-family: &quot;Open Sans&quot;, verdana, arial, sans-serif; font-size: 12px; fill: rgb(102, 102, 102); fill-opacity: 1; white-space: pre;">−4</text></g><g class="xtick"><text text-anchor="middle" x="0" y="575" data-unformatted="−3" data-math="N" transform="translate(245.33,0)" style="font-family: &quot;Open Sans&quot;, verdana, arial, sans-serif; font-size: 12px; fill: rgb(102, 102, 102); fill-opacity: 1; white-space: pre;">−3</text></g><g class="xtick"><text text-anchor="middle" x="0" y="575" data-unformatted="−2" data-math="N" transform="translate(320.48,0)" style="font-family: &quot;Open Sans&quot;, verdana, arial, sans-serif; font-size: 12px; fill: rgb(102, 102, 102); fill-opacity: 1; white-space: pre;">−2</text></g><g class="xtick"><text text-anchor="middle" x="0" y="575" data-unformatted="−1" data-math="N" transform="translate(395.64,0)" style="font-family: &quot;Open Sans&quot;, verdana, arial, sans-serif; font-size: 12px; fill: rgb(102, 102, 102); fill-opacity: 1; white-space: pre;">−1</text></g><g class="xtick"><text text-anchor="middle" x="0" y="575" data-unformatted="0" data-math="N" transform="translate(470.79,0)" style="font-family: &quot;Open Sans&quot;, verdana, arial, sans-serif; font-size: 12px; fill: rgb(102, 102, 102); fill-opacity: 1; white-space: pre;">0</text></g><g class="xtick"><text text-anchor="middle" x="0" y="575" data-unformatted="1" data-math="N" transform="translate(545.94,0)" style="font-family: &quot;Open Sans&quot;, verdana, arial, sans-serif; font-size: 12px; fill: rgb(102, 102, 102); fill-opacity: 1; white-space: pre;">1</text></g><g class="xtick"><text text-anchor="middle" x="0" y="575" data-unformatted="2" data-math="N" transform="translate(621.09,0)" style="font-family: &quot;Open Sans&quot;, verdana, arial, sans-serif; font-size: 12px; fill: rgb(102, 102, 102); fill-opacity: 1; white-space: pre;">2</text></g><g class="xtick"><text text-anchor="middle" x="0" y="575" data-unformatted="3" data-math="N" transform="translate(696.24,0)" style="font-family: &quot;Open Sans&quot;, verdana, arial, sans-serif; font-size: 12px; fill: rgb(102, 102, 102); fill-opacity: 1; white-space: pre;">3</text></g><g class="xtick"><text text-anchor="middle" x="0" y="575" data-unformatted="4" data-math="N" transform="translate(771.39,0)" style="font-family: &quot;Open Sans&quot;, verdana, arial, sans-serif; font-size: 12px; fill: rgb(102, 102, 102); fill-opacity: 1; white-space: pre;">4</text></g></g><g class="yaxislayer-above"><g class="ytick"><text text-anchor="end" x="79" y="4.199999999999999" data-unformatted="0" data-math="N" transform="translate(0,562)" style="font-family: &quot;Open Sans&quot;, verdana, arial, sans-serif; font-size: 12px; fill: rgb(102, 102, 102); fill-opacity: 1; white-space: pre;">0</text></g><g class="ytick"><text text-anchor="end" x="79" y="4.199999999999999" data-unformatted="10" data-math="N" transform="translate(0,512.13)" style="font-family: &quot;Open Sans&quot;, verdana, arial, sans-serif; font-size: 12px; fill: rgb(102, 102, 102); fill-opacity: 1; white-space: pre;">10</text></g><g class="ytick"><text text-anchor="end" x="79" y="4.199999999999999" data-unformatted="20" data-math="N" transform="translate(0,462.25)" style="font-family: &quot;Open Sans&quot;, verdana, arial, sans-serif; font-size: 12px; fill: rgb(102, 102, 102); fill-opacity: 1; white-space: pre;">20</text></g><g class="ytick"><text text-anchor="end" x="79" y="4.199999999999999" data-unformatted="30" data-math="N" transform="translate(0,412.38)" style="font-family: &quot;Open Sans&quot;, verdana, arial, sans-serif; font-size: 12px; fill: rgb(102, 102, 102); fill-opacity: 1; white-space: pre;">30</text></g><g class="ytick"><text text-anchor="end" x="79" y="4.199999999999999" data-unformatted="40" data-math="N" transform="translate(0,362.5)" style="font-family: &quot;Open Sans&quot;, verdana, arial, sans-serif; font-size: 12px; fill: rgb(102, 102, 102); fill-opacity: 1; white-space: pre;">40</text></g><g class="ytick"><text text-anchor="end" x="79" y="4.199999999999999" data-unformatted="50" data-math="N" transform="translate(0,312.63)" style="font-family: &quot;Open Sans&quot;, verdana, arial, sans-serif; font-size: 12px; fill: rgb(102, 102, 102); fill-opacity: 1; white-space: pre;">50</text></g><g class="ytick"><text text-anchor="end" x="79" y="4.199999999999999" data-unformatted="60" data-math="N" transform="translate(0,262.75)" style="font-family: &quot;Open Sans&quot;, verdana, arial, sans-serif; font-size: 12px; fill: rgb(102, 102, 102); fill-opacity: 1; white-space: pre;">60</text></g><g class="ytick"><text text-anchor="end" x="79" y="4.199999999999999" data-unformatted="70" data-math="N" transform="translate(0,212.88)" style="font-family: &quot;Open Sans&quot;, verdana, arial, sans-serif; font-size: 12px; fill: rgb(102, 102, 102); fill-opacity: 1; white-space: pre;">70</text></g><g class="ytick"><text text-anchor="end" x="79" y="4.199999999999999" data-unformatted="80" data-math="N" transform="translate(0,163)" style="font-family: &quot;Open Sans&quot;, verdana, arial, sans-serif; font-size: 12px; fill: rgb(102, 102, 102); fill-opacity: 1; white-space: pre;">80</text></g><g class="ytick"><text text-anchor="end" x="79" y="4.199999999999999" data-unformatted="90" data-math="N" transform="translate(0,113.13)" style="font-family: &quot;Open Sans&quot;, verdana, arial, sans-serif; font-size: 12px; fill: rgb(102, 102, 102); fill-opacity: 1; white-space: pre;">90</text></g></g><g class="overaxes-above"></g></g></g><g class="polarlayer"></g><g class="ternarylayer"></g><g class="geolayer"></g><g class="funnelarealayer"></g><g class="pielayer"></g><g class="treemaplayer"></g><g class="sunburstlayer"></g><g class="glimages"></g></svg><div class="gl-container"></div><svg class="main-svg" style="position: absolute" xmlns="http://www.w3.org/2000/svg" xmlns:xlink="http://www.w3.org/1999/xlink" width="904.225352112676" height="642"><defs id="topdefs-90f2b5"><g class="clips"></g><clipPath id="legend90f2b5"><rect width="53" height="67" x="0" y="0"></rect></clipPath></defs><g class="indicatorlayer"></g><g class="layer-above"><g class="imagelayer"></g><g class="shapelayer"></g></g><g class="infolayer"><g class="legend" pointer-events="all" transform="translate(838.88,100)"><rect class="bg" shape-rendering="crispEdges" style="stroke: rgb(68, 68, 68); stroke-opacity: 1; fill: rgb(255, 255, 255); fill-opacity: 1; stroke-width: 0px;" width="53" height="67" x="0" y="0"></rect><g class="scrollbox" transform="" clip-path="url('#legend90f2b5')"><g class="groups"><g class="traces" transform="translate(0,14.5)" style="opacity: 1;"><text class="legendtext" text-anchor="start" x="40" y="4.680000000000001" data-unformatted="a" data-math="N" style="font-family: &quot;Open Sans&quot;, verdana, arial, sans-serif; font-size: 12px; fill: rgb(102, 102, 102); fill-opacity: 1; white-space: pre;">a</text><g class="layers" style="opacity: 0.8;"><g class="legendfill"></g><g class="legendlines"></g><g class="legendsymbols"><g class="legendpoints"><path class="legendundefined" d="M6,6H-6V-6H6Z" transform="translate(20,0)" style="stroke-width: 1.3px; fill: rgb(226, 74, 51); fill-opacity: 1; stroke: rgb(217, 217, 217); stroke-opacity: 1;"></path></g></g></g><rect class="legendtoggle" pointer-events="all" x="0" y="-9.5" width="47.359375" height="19" style="cursor: pointer; fill: rgb(0, 0, 0); fill-opacity: 0;"></rect></g><g class="traces" style="opacity: 1;" transform="translate(0,33.5)"><text class="legendtext" text-anchor="start" x="40" y="4.680000000000001" data-unformatted="b" data-math="N" style="font-family: &quot;Open Sans&quot;, verdana, arial, sans-serif; font-size: 12px; fill: rgb(102, 102, 102); fill-opacity: 1; white-space: pre;">b</text><g class="layers" style="opacity: 0.8;"><g class="legendfill"></g><g class="legendlines"></g><g class="legendsymbols"><g class="legendpoints"><path class="legendundefined" d="M6,6H-6V-6H6Z" transform="translate(20,0)" style="stroke-width: 1.3px; fill: rgb(62, 111, 176); fill-opacity: 1; stroke: rgb(217, 217, 217); stroke-opacity: 1;"></path></g></g></g><rect class="legendtoggle" pointer-events="all" x="0" y="-9.5" width="47.359375" height="19" style="cursor: pointer; fill: rgb(0, 0, 0); fill-opacity: 0;"></rect></g><g class="traces" style="opacity: 1;" transform="translate(0,52.5)"><text class="legendtext" text-anchor="start" x="40" y="4.680000000000001" data-unformatted="c" data-math="N" style="font-family: &quot;Open Sans&quot;, verdana, arial, sans-serif; font-size: 12px; fill: rgb(102, 102, 102); fill-opacity: 1; white-space: pre;">c</text><g class="layers" style="opacity: 0.8;"><g class="legendfill"></g><g class="legendlines"></g><g class="legendsymbols"><g class="legendpoints"><path class="legendundefined" d="M6,6H-6V-6H6Z" transform="translate(20,0)" style="stroke-width: 1.3px; fill: rgb(132, 118, 202); fill-opacity: 1; stroke: rgb(217, 217, 217); stroke-opacity: 1;"></path></g></g></g><rect class="legendtoggle" pointer-events="all" x="0" y="-9.5" width="47.359375" height="19" style="cursor: pointer; fill: rgb(0, 0, 0); fill-opacity: 0;"></rect></g></g></g><rect class="scrollbar" rx="20" ry="3" width="0" height="0" style="fill: rgb(128, 139, 164); fill-opacity: 1;" x="0" y="0"></rect></g><g class="g-gtitle"></g><g class="g-xtitle"></g><g class="g-ytitle"></g></g><g class="menulayer"></g><g class="zoomlayer"></g></svg><div class="modebar-container" style="position: absolute; top: 0px; right: 0px; width: 100%;"><div id="modebar-90f2b5" class="modebar modebar--hover ease-bg"><div class="modebar-group"><a rel="tooltip" class="modebar-btn" data-title="Download plot as a png" data-toggle="false" data-gravity="n"><svg viewBox="0 0 1000 1000" class="icon" height="1em" width="1em"><path d="m500 450c-83 0-150-67-150-150 0-83 67-150 150-150 83 0 150 67 150 150 0 83-67 150-150 150z m400 150h-120c-16 0-34 13-39 29l-31 93c-6 15-23 28-40 28h-340c-16 0-34-13-39-28l-31-94c-6-15-23-28-40-28h-120c-55 0-100-45-100-100v-450c0-55 45-100 100-100h800c55 0 100 45 100 100v450c0 55-45 100-100 100z m-400-550c-138 0-250 112-250 250 0 138 112 250 250 250 138 0 250-112 250-250 0-138-112-250-250-250z m365 380c-19 0-35 16-35 35 0 19 16 35 35 35 19 0 35-16 35-35 0-19-16-35-35-35z" transform="matrix(1 0 0 -1 0 850)"></path></svg></a></div><div class="modebar-group"><a rel="tooltip" class="modebar-btn active" data-title="Zoom" data-attr="dragmode" data-val="zoom" data-toggle="false" data-gravity="n"><svg viewBox="0 0 1000 1000" class="icon" height="1em" width="1em"><path d="m1000-25l-250 251c40 63 63 138 63 218 0 224-182 406-407 406-224 0-406-182-406-406s183-406 407-406c80 0 155 22 218 62l250-250 125 125z m-812 250l0 438 437 0 0-438-437 0z m62 375l313 0 0-312-313 0 0 312z" transform="matrix(1 0 0 -1 0 850)"></path></svg></a><a rel="tooltip" class="modebar-btn" data-title="Pan" data-attr="dragmode" data-val="pan" data-toggle="false" data-gravity="n"><svg viewBox="0 0 1000 1000" class="icon" height="1em" width="1em"><path d="m1000 350l-187 188 0-125-250 0 0 250 125 0-188 187-187-187 125 0 0-250-250 0 0 125-188-188 186-187 0 125 252 0 0-250-125 0 187-188 188 188-125 0 0 250 250 0 0-126 187 188z" transform="matrix(1 0 0 -1 0 850)"></path></svg></a><a rel="tooltip" class="modebar-btn" data-title="Box Select" data-attr="dragmode" data-val="select" data-toggle="false" data-gravity="n"><svg viewBox="0 0 1000 1000" class="icon" height="1em" width="1em"><path d="m0 850l0-143 143 0 0 143-143 0z m286 0l0-143 143 0 0 143-143 0z m285 0l0-143 143 0 0 143-143 0z m286 0l0-143 143 0 0 143-143 0z m-857-286l0-143 143 0 0 143-143 0z m857 0l0-143 143 0 0 143-143 0z m-857-285l0-143 143 0 0 143-143 0z m857 0l0-143 143 0 0 143-143 0z m-857-286l0-143 143 0 0 143-143 0z m286 0l0-143 143 0 0 143-143 0z m285 0l0-143 143 0 0 143-143 0z m286 0l0-143 143 0 0 143-143 0z" transform="matrix(1 0 0 -1 0 850)"></path></svg></a><a rel="tooltip" class="modebar-btn" data-title="Lasso Select" data-attr="dragmode" data-val="lasso" data-toggle="false" data-gravity="n"><svg viewBox="0 0 1031 1000" class="icon" height="1em" width="1em"><path d="m1018 538c-36 207-290 336-568 286-277-48-473-256-436-463 10-57 36-108 76-151-13-66 11-137 68-183 34-28 75-41 114-42l-55-70 0 0c-2-1-3-2-4-3-10-14-8-34 5-45 14-11 34-8 45 4 1 1 2 3 2 5l0 0 113 140c16 11 31 24 45 40 4 3 6 7 8 11 48-3 100 0 151 9 278 48 473 255 436 462z m-624-379c-80 14-149 48-197 96 42 42 109 47 156 9 33-26 47-66 41-105z m-187-74c-19 16-33 37-39 60 50-32 109-55 174-68-42-25-95-24-135 8z m360 75c-34-7-69-9-102-8 8 62-16 128-68 170-73 59-175 54-244-5-9 20-16 40-20 61-28 159 121 317 333 354s407-60 434-217c28-159-121-318-333-355z" transform="matrix(1 0 0 -1 0 850)"></path></svg></a></div><div class="modebar-group"><a rel="tooltip" class="modebar-btn" data-title="Zoom in" data-attr="zoom" data-val="in" data-toggle="false" data-gravity="n"><svg viewBox="0 0 875 1000" class="icon" height="1em" width="1em"><path d="m1 787l0-875 875 0 0 875-875 0z m687-500l-187 0 0-187-125 0 0 187-188 0 0 125 188 0 0 187 125 0 0-187 187 0 0-125z" transform="matrix(1 0 0 -1 0 850)"></path></svg></a><a rel="tooltip" class="modebar-btn" data-title="Zoom out" data-attr="zoom" data-val="out" data-toggle="false" data-gravity="n"><svg viewBox="0 0 875 1000" class="icon" height="1em" width="1em"><path d="m0 788l0-876 875 0 0 876-875 0z m688-500l-500 0 0 125 500 0 0-125z" transform="matrix(1 0 0 -1 0 850)"></path></svg></a><a rel="tooltip" class="modebar-btn" data-title="Autoscale" data-attr="zoom" data-val="auto" data-toggle="false" data-gravity="n"><svg viewBox="0 0 1000 1000" class="icon" height="1em" width="1em"><path d="m250 850l-187 0-63 0 0-62 0-188 63 0 0 188 187 0 0 62z m688 0l-188 0 0-62 188 0 0-188 62 0 0 188 0 62-62 0z m-875-938l0 188-63 0 0-188 0-62 63 0 187 0 0 62-187 0z m875 188l0-188-188 0 0-62 188 0 62 0 0 62 0 188-62 0z m-125 188l-1 0-93-94-156 156 156 156 92-93 2 0 0 250-250 0 0-2 93-92-156-156-156 156 94 92 0 2-250 0 0-250 0 0 93 93 157-156-157-156-93 94 0 0 0-250 250 0 0 0-94 93 156 157 156-157-93-93 0 0 250 0 0 250z" transform="matrix(1 0 0 -1 0 850)"></path></svg></a><a rel="tooltip" class="modebar-btn" data-title="Reset axes" data-attr="zoom" data-val="reset" data-toggle="false" data-gravity="n"><svg viewBox="0 0 928.6 1000" class="icon" height="1em" width="1em"><path d="m786 296v-267q0-15-11-26t-25-10h-214v214h-143v-214h-214q-15 0-25 10t-11 26v267q0 1 0 2t0 2l321 264 321-264q1-1 1-4z m124 39l-34-41q-5-5-12-6h-2q-7 0-12 3l-386 322-386-322q-7-4-13-4-7 2-12 7l-35 41q-4 5-3 13t6 12l401 334q18 15 42 15t43-15l136-114v109q0 8 5 13t13 5h107q8 0 13-5t5-13v-227l122-102q5-5 6-12t-4-13z" transform="matrix(1 0 0 -1 0 850)"></path></svg></a></div><div class="modebar-group"><a rel="tooltip" class="modebar-btn" data-title="Toggle Spike Lines" data-attr="_cartesianSpikesEnabled" data-val="on" data-toggle="false" data-gravity="n"><svg viewBox="0 0 1000 1000" class="icon" height="1em" width="1em"><path d="M512 409c0-57-46-104-103-104-57 0-104 47-104 104 0 57 47 103 104 103 57 0 103-46 103-103z m-327-39l92 0 0 92-92 0z m-185 0l92 0 0 92-92 0z m370-186l92 0 0 93-92 0z m0-184l92 0 0 92-92 0z" transform="matrix(1.5 0 0 -1.5 0 850)"></path></svg></a><a rel="tooltip" class="modebar-btn" data-title="Show closest data on hover" data-attr="hovermode" data-val="closest" data-toggle="false" data-gravity="ne"><svg viewBox="0 0 1500 1000" class="icon" height="1em" width="1em"><path d="m375 725l0 0-375-375 375-374 0-1 1125 0 0 750-1125 0z" transform="matrix(1 0 0 -1 0 850)"></path></svg></a><a rel="tooltip" class="modebar-btn active" data-title="Compare data on hover" data-attr="hovermode" data-val="x" data-toggle="false" data-gravity="ne"><svg viewBox="0 0 1125 1000" class="icon" height="1em" width="1em"><path d="m187 786l0 2-187-188 188-187 0 0 937 0 0 373-938 0z m0-499l0 1-187-188 188-188 0 0 937 0 0 376-938-1z" transform="matrix(1 0 0 -1 0 850)"></path></svg></a></div></div></div><svg class="main-svg" style="position: absolute" xmlns="http://www.w3.org/2000/svg" xmlns:xlink="http://www.w3.org/1999/xlink" width="904.225352112676" height="642"><g class="hoverlayer"></g></svg>