<svg class="main-svg" style="position: absolute" xmlns="http://www.w3.org/2000/svg" xmlns:xlink="http://www.w3.org/1999/xlink" width="904.225352112676" height="642" style="background: rgb(255, 255, 255);"><defs id="defs-252f3d"><g class="clips"><clipPath id="clip252f3dxyplot" class="plotclip"><rect width="744" height="462"></rect></clipPath><clipPath class="axesclip" id="clip252f3dx"><rect x="80" y="0" width="744" height="642"></rect></clipPath><clipPath class="axesclip" id="clip252f3dy"><rect x="0" y="100" width="904.225352112676" height="462"></rect></clipPath><clipPath class="axesclip" id="clip252f3dxy"><rect x="80" y="100" width="744" height="462"></rect></clipPath></g><g class="gradients"></g></defs><g class="bglayer"></g><g class="draglayer cursor-crosshair"><g class="xy"><rect class="nsewdrag drag" data-subplot="xy" x="80" y="100" width="744" height="462" style="fill: transparent; stroke-width: 0; pointer-events: all;"></rect><rect class="nwdrag drag cursor-nw-resize" data-subplot="xy" x="60" y="80" width="20" height="20" style="fill: transparent; stroke-width: 0; pointer-events: all;"></rect><rect class="nedrag drag cursor-ne-resize" data-subplot="xy" x="824" y="80" width="20" height="20" style="fill: transparent; stroke-width: 0; pointer-events: all;"></rect><rect class="swdrag drag cursor-sw-resize" data-subplot="xy" x="60" y="562" width="20" height="20" style="fill: transparent; stroke-width: 0; pointer-events: all;"></rect><rect class="sedrag drag cursor-se-resize" data-subplot="xy" x="824" y="562" width="20" height="20" style="fill: transparent; stroke-width: 0; pointer-events: all;"></rect><rect class="ewdrag drag cursor-ew-resize" data-subplot="xy" x="154.4" y="562.5" width="595.2" height="20" style="fill: transparent; stroke-width: 0; pointer-events: all;"></rect><rect class="wdrag drag cursor-w-resize" data-subplot="xy" x="80" y="562.5" width="74.4" height="20" style="fill: transparent; stroke-width: 0; pointer-events: all;"></rect><rect class="edrag drag cursor-e-resize" data-subplot="xy" x="749.6" y="562.5" width="74.4" height="20" style="fill: transparent; stroke-width: 0; pointer-events: all;"></rect><rect class="nsdrag drag cursor-ns-resize" data-subplot="xy" x="59.5" y="146.2" width="20" height="369.6" style="fill: transparent; stroke-width: 0; pointer-events: all;"></rect><rect class="sdrag drag cursor-s-resize" data-subplot="xy" x="59.5" y="515.8" width="20" height="46.2" style="fill: transparent; stroke-width: 0; pointer-events: all;"></rect><rect class="ndrag drag cursor-n-resize" data-subplot="xy" x="59.5" y="100" width="20" height="46.2" style="fill: transparent; stroke-width: 0; pointer-events: all;"></rect></g></g><g class="layer-below"><g class="imagelayer"></g><g class="shapelayer"></g></g><g class="cartesianlayer"><g class="subplot xy"><g class="layer-subplot"><g class="shapelayer"></g><g class="imagelayer"></g></g><g class="gridlayer"><g class="x"></g><g class="y"><path class="ygrid crisp" transform="translate(0,494.48)" d="M80,0h744" style="stroke: rgb(238, 238, 238); stroke-opacity: 1; stroke-width: 1px;"></path><path class="ygrid crisp" transform="translate(0,426.95)" d="M80,0h744" style="stroke: rgb(238, 238, 238); stroke-opacity: 1; stroke-width: 1px;"></path><path class="ygrid crisp" transform="translate(0,359.43)" d="M80,0h744" style="stroke: rgb(238, 238, 238); stroke-opacity: 1; stroke-width: 1px;"></path><path class="ygrid crisp" transform="translate(0,291.90999999999997)" d="M80,0h744" style="stroke: rgb(238, 238, 238); stroke-opacity: 1; stroke-width: 1px;"></path><path class="ygrid crisp" transform="translate(0,224.38)" d="M80,0h744" style="stroke: rgb(238, 238, 238); stroke-opacity: 1; stroke-width: 1px;"></path><path class="ygrid crisp" transform="translate(0,156.86)" d="M80,0h744" style="stroke: rgb(238, 238, 238); stroke-opacity: 1; stroke-width: 1px;"></path></g></g><g class="zerolinelayer"><path class="yzl zl crisp" transform="translate(0,562)" d="M80,0h744" style="stroke: rgb(68, 68, 68); stroke-opacity: 1; stroke-width: 1px;"></path></g><path class="xlines-below"></path><path class="ylines-below"></path><g class="overlines-below"></g><g class="xaxislayer-below"></g><g class="yaxislayer-below"></g><g class="overaxes-below"></g><g class="plot" transform="translate(80,100)" clip-path="url('#clip252f3dxyplot')"><g class="barlayer mlayer"><g class="trace bars" style="opacity: 1;"><g class="points"><g class="point"><path d="M1.08,462V428.24H9.7V462Z" style="vector-effect: non-scaling-stroke; opacity: 1; stroke-width: 0px; fill: rgb(31, 119, 180); fill-opacity: 1;"></path></g><g class="point"><path d="M11.86,462V394.48H20.49V462Z" style="vector-effect: non-scaling-stroke; opacity: 1; stroke-width: 0px; fill: rgb(31, 119, 180); fill-opacity: 1;"></path></g><g class="point"><path d="M22.64,462V428.24H31.27V462Z" style="vector-effect: non-scaling-stroke; opacity: 1; stroke-width: 0px; fill: rgb(31, 119, 180); fill-opacity: 1;"></path></g><g class="point"><path d="M33.43,462V428.24H42.05V462Z" style="vector-effect: non-scaling-stroke; opacity: 1; stroke-width: 0px; fill: rgb(31, 119, 180); fill-opacity: 1;"></path></g><g class="point"><path d="M44.21,462V428.24H52.83V462Z" style="vector-effect: non-scaling-stroke; opacity: 1; stroke-width: 0px; fill: rgb(31, 119, 180); fill-opacity: 1;"></path></g><g class="point"><path d="M54.99,462V428.24H63.62V462Z" style="vector-effect: non-scaling-stroke; opacity: 1; stroke-width: 0px; fill: rgb(31, 119, 180); fill-opacity: 1;"></path></g><g class="point"><path d="M65.77,462V428.24H74.4V462Z" style="vector-effect: non-scaling-stroke; opacity: 1; stroke-width: 0px; fill: rgb(31, 119, 180); fill-opacity: 1;"></path></g><g class="point"><path d="M76.56,462V428.24H85.18V462Z" style="vector-effect: non-scaling-stroke; opacity: 1; stroke-width: 0px; fill: rgb(31, 119, 180); fill-opacity: 1;"></path></g><g class="point"><path d="M87.34,462V428.24H95.97V462Z" style="vector-effect: non-scaling-stroke; opacity: 1; stroke-width: 0px; fill: rgb(31, 119, 180); fill-opacity: 1;"></path></g><g class="point"><path d="M98.12,462V428.24H106.75V462Z" style="vector-effect: non-scaling-stroke; opacity: 1; stroke-width: 0px; fill: rgb(31, 119, 180); fill-opacity: 1;"></path></g><g class="point"><path d="M108.9,462V428.24H117.53V462Z" style="vector-effect: non-scaling-stroke; opacity: 1; stroke-width: 0px; fill: rgb(31, 119, 180); fill-opacity: 1;"></path></g><g class="point"><path d="M119.69,462V428.24H128.31V462Z" style="vector-effect: non-scaling-stroke; opacity: 1; stroke-width: 0px; fill: rgb(31, 119, 180); fill-opacity: 1;"></path></g><g class="point"><path d="M130.47,462V428.24H139.1V462Z" style="vector-effect: non-scaling-stroke; opacity: 1; stroke-width: 0px; fill: rgb(31, 119, 180); fill-opacity: 1;"></path></g><g class="point"><path d="M141.25,462V326.95H149.88V462Z" style="vector-effect: non-scaling-stroke; opacity: 1; stroke-width: 0px; fill: rgb(31, 119, 180); fill-opacity: 1;"></path></g><g class="point"><path d="M152.03,462V428.24H160.66V462Z" style="vector-effect: non-scaling-stroke; opacity: 1; stroke-width: 0px; fill: rgb(31, 119, 180); fill-opacity: 1;"></path></g><g class="point"><path d="M162.82,462V394.48H171.44V462Z" style="vector-effect: non-scaling-stroke; opacity: 1; stroke-width: 0px; fill: rgb(31, 119, 180); fill-opacity: 1;"></path></g><g class="point"><path d="M173.6,462V428.24H182.23V462Z" style="vector-effect: non-scaling-stroke; opacity: 1; stroke-width: 0px; fill: rgb(31, 119, 180); fill-opacity: 1;"></path></g><g class="point"><path d="M184.38,462V428.24H193.01V462Z" style="vector-effect: non-scaling-stroke; opacity: 1; stroke-width: 0px; fill: rgb(31, 119, 180); fill-opacity: 1;"></path></g><g class="point"><path d="M195.17,462V428.24H203.79V462Z" style="vector-effect: non-scaling-stroke; opacity: 1; stroke-width: 0px; fill: rgb(31, 119, 180); fill-opacity: 1;"></path></g><g class="point"><path d="M205.95,462V428.24H214.57V462Z" style="vector-effect: non-scaling-stroke; opacity: 1; stroke-width: 0px; fill: rgb(31, 119, 180); fill-opacity: 1;"></path></g><g class="point"><path d="M216.73,462V428.24H225.36V462Z" style="vector-effect: non-scaling-stroke; opacity: 1; stroke-width: 0px; fill: rgb(31, 119, 180); fill-opacity: 1;"></path></g><g class="point"><path d="M227.51,462V428.24H236.14V462Z" style="vector-effect: non-scaling-stroke; opacity: 1; stroke-width: 0px; fill: rgb(31, 119, 180); fill-opacity: 1;"></path></g><g class="point"><path d="M238.3,462V428.24H246.92V462Z" style="vector-effect: non-scaling-stroke; opacity: 1; stroke-width: 0px; fill: rgb(31, 119, 180); fill-opacity: 1;"></path></g><g class="point"><path d="M249.08,462V394.48H257.7V462Z" style="vector-effect: non-scaling-stroke; opacity: 1; stroke-width: 0px; fill: rgb(31, 119, 180); fill-opacity: 1;"></path></g><g class="point"><path d="M259.86,462V428.24H268.49V462Z" style="vector-effect: non-scaling-stroke; opacity: 1; stroke-width: 0px; fill: rgb(31, 119, 180); fill-opacity: 1;"></path></g><g class="point"><path d="M270.64,462V394.48H279.27V462Z" style="vector-effect: non-scaling-stroke; opacity: 1; stroke-width: 0px; fill: rgb(31, 119, 180); fill-opacity: 1;"></path></g><g class="point"><path d="M281.43,462V428.24H290.05V462Z" style="vector-effect: non-scaling-stroke; opacity: 1; stroke-width: 0px; fill: rgb(31, 119, 180); fill-opacity: 1;"></path></g><g class="point"><path d="M292.21,462V428.24H300.83V462Z" style="vector-effect: non-scaling-stroke; opacity: 1; stroke-width: 0px; fill: rgb(31, 119, 180); fill-opacity: 1;"></path></g><g class="point"><path d="M302.99,462V428.24H311.62V462Z" style="vector-effect: non-scaling-stroke; opacity: 1; stroke-width: 0px; fill: rgb(31, 119, 180); fill-opacity: 1;"></path></g><g class="point"><path d="M313.77,462V23.1H322.4V462Z" style="vector-effect: non-scaling-stroke; opacity: 1; stroke-width: 0px; fill: rgb(31, 119, 180); fill-opacity: 1;"></path></g><g class="point"><path d="M324.56,462V428.24H333.18V462Z" style="vector-effect: non-scaling-stroke; opacity: 1; stroke-width: 0px; fill: rgb(31, 119, 180); fill-opacity: 1;"></path></g><g class="point"><path d="M335.34,462V428.24H343.97V462Z" style="vector-effect: non-scaling-stroke; opacity: 1; stroke-width: 0px; fill: rgb(31, 119, 180); fill-opacity: 1;"></path></g><g class="point"><path d="M346.12,462V394.48H354.75V462Z" style="vector-effect: non-scaling-stroke; opacity: 1; stroke-width: 0px; fill: rgb(31, 119, 180); fill-opacity: 1;"></path></g><g class="point"><path d="M356.9,462V428.24H365.53V462Z" style="vector-effect: non-scaling-stroke; opacity: 1; stroke-width: 0px; fill: rgb(31, 119, 180); fill-opacity: 1;"></path></g><g class="point"><path d="M367.69,462V428.24H376.31V462Z" style="vector-effect: non-scaling-stroke; opacity: 1; stroke-width: 0px; fill: rgb(31, 119, 180); fill-opacity: 1;"></path></g><g class="point"><path d="M378.47,462V428.24H387.1V462Z" style="vector-effect: non-scaling-stroke; opacity: 1; stroke-width: 0px; fill: rgb(31, 119, 180); fill-opacity: 1;"></path></g><g class="point"><path d="M389.25,462V428.24H397.88V462Z" style="vector-effect: non-scaling-stroke; opacity: 1; stroke-width: 0px; fill: rgb(31, 119, 180); fill-opacity: 1;"></path></g><g class="point"><path d="M400.03,462V360.72H408.66V462Z" style="vector-effect: non-scaling-stroke; opacity: 1; stroke-width: 0px; fill: rgb(31, 119, 180); fill-opacity: 1;"></path></g><g class="point"><path d="M410.82,462V428.24H419.44V462Z" style="vector-effect: non-scaling-stroke; opacity: 1; stroke-width: 0px; fill: rgb(31, 119, 180); fill-opacity: 1;"></path></g><g class="point"><path d="M421.6,462V428.24H430.23V462Z" style="vector-effect: non-scaling-stroke; opacity: 1; stroke-width: 0px; fill: rgb(31, 119, 180); fill-opacity: 1;"></path></g><g class="point"><path d="M432.38,462V428.24H441.01V462Z" style="vector-effect: non-scaling-stroke; opacity: 1; stroke-width: 0px; fill: rgb(31, 119, 180); fill-opacity: 1;"></path></g><g class="point"><path d="M443.17,462V394.48H451.79V462Z" style="vector-effect: non-scaling-stroke; opacity: 1; stroke-width: 0px; fill: rgb(31, 119, 180); fill-opacity: 1;"></path></g><g class="point"><path d="M453.95,462V428.24H462.57V462Z" style="vector-effect: non-scaling-stroke; opacity: 1; stroke-width: 0px; fill: rgb(31, 119, 180); fill-opacity: 1;"></path></g><g class="point"><path d="M464.73,462V428.24H473.36V462Z" style="vector-effect: non-scaling-stroke; opacity: 1; stroke-width: 0px; fill: rgb(31, 119, 180); fill-opacity: 1;"></path></g><g class="point"><path d="M475.51,462V428.24H484.14V462Z" style="vector-effect: non-scaling-stroke; opacity: 1; stroke-width: 0px; fill: rgb(31, 119, 180); fill-opacity: 1;"></path></g><g class="point"><path d="M486.3,462V428.24H494.92V462Z" style="vector-effect: non-scaling-stroke; opacity: 1; stroke-width: 0px; fill: rgb(31, 119, 180); fill-opacity: 1;"></path></g><g class="point"><path d="M497.08,462V394.48H505.7V462Z" style="vector-effect: non-scaling-stroke; opacity: 1; stroke-width: 0px; fill: rgb(31, 119, 180); fill-opacity: 1;"></path></g><g class="point"><path d="M507.86,462V428.24H516.49V462Z" style="vector-effect: non-scaling-stroke; opacity: 1; stroke-width: 0px; fill: rgb(31, 119, 180); fill-opacity: 1;"></path></g><g class="point"><path d="M518.64,462V428.24H527.27V462Z" style="vector-effect: non-scaling-stroke; opacity: 1; stroke-width: 0px; fill: rgb(31, 119, 180); fill-opacity: 1;"></path></g><g class="point"><path d="M529.43,462V428.24H538.05V462Z" style="vector-effect: non-scaling-stroke; opacity: 1; stroke-width: 0px; fill: rgb(31, 119, 180); fill-opacity: 1;"></path></g><g class="point"><path d="M540.21,462V428.24H548.83V462Z" style="vector-effect: non-scaling-stroke; opacity: 1; stroke-width: 0px; fill: rgb(31, 119, 180); fill-opacity: 1;"></path></g><g class="point"><path d="M550.99,462V428.24H559.62V462Z" style="vector-effect: non-scaling-stroke; opacity: 1; stroke-width: 0px; fill: rgb(31, 119, 180); fill-opacity: 1;"></path></g><g class="point"><path d="M561.77,462V394.48H570.4V462Z" style="vector-effect: non-scaling-stroke; opacity: 1; stroke-width: 0px; fill: rgb(31, 119, 180); fill-opacity: 1;"></path></g><g class="point"><path d="M572.56,462V428.24H581.18V462Z" style="vector-effect: non-scaling-stroke; opacity: 1; stroke-width: 0px; fill: rgb(31, 119, 180); fill-opacity: 1;"></path></g><g class="point"><path d="M583.34,462V428.24H591.97V462Z" style="vector-effect: non-scaling-stroke; opacity: 1; stroke-width: 0px; fill: rgb(31, 119, 180); fill-opacity: 1;"></path></g><g class="point"><path d="M594.12,462V428.24H602.75V462Z" style="vector-effect: non-scaling-stroke; opacity: 1; stroke-width: 0px; fill: rgb(31, 119, 180); fill-opacity: 1;"></path></g><g class="point"><path d="M604.9,462V428.24H613.53V462Z" style="vector-effect: non-scaling-stroke; opacity: 1; stroke-width: 0px; fill: rgb(31, 119, 180); fill-opacity: 1;"></path></g><g class="point"><path d="M615.69,462V428.24H624.31V462Z" style="vector-effect: non-scaling-stroke; opacity: 1; stroke-width: 0px; fill: rgb(31, 119, 180); fill-opacity: 1;"></path></g><g class="point"><path d="M626.47,462V428.24H635.1V462Z" style="vector-effect: non-scaling-stroke; opacity: 1; stroke-width: 0px; fill: rgb(31, 119, 180); fill-opacity: 1;"></path></g><g class="point"><path d="M637.25,462V428.24H645.88V462Z" style="vector-effect: non-scaling-stroke; opacity: 1; stroke-width: 0px; fill: rgb(31, 119, 180); fill-opacity: 1;"></path></g><g class="point"><path d="M648.03,462V428.24H656.66V462Z" style="vector-effect: non-scaling-stroke; opacity: 1; stroke-width: 0px; fill: rgb(31, 119, 180); fill-opacity: 1;"></path></g><g class="point"><path d="M658.82,462V428.24H667.44V462Z" style="vector-effect: non-scaling-stroke; opacity: 1; stroke-width: 0px; fill: rgb(31, 119, 180); fill-opacity: 1;"></path></g><g class="point"><path d="M669.6,462V360.72H678.23V462Z" style="vector-effect: non-scaling-stroke; opacity: 1; stroke-width: 0px; fill: rgb(31, 119, 180); fill-opacity: 1;"></path></g><g class="point"><path d="M680.38,462V326.95H689.01V462Z" style="vector-effect: non-scaling-stroke; opacity: 1; stroke-width: 0px; fill: rgb(31, 119, 180); fill-opacity: 1;"></path></g><g class="point"><path d="M691.17,462V428.24H699.79V462Z" style="vector-effect: non-scaling-stroke; opacity: 1; stroke-width: 0px; fill: rgb(31, 119, 180); fill-opacity: 1;"></path></g><g class="point"><path d="M701.95,462V428.24H710.57V462Z" style="vector-effect: non-scaling-stroke; opacity: 1; stroke-width: 0px; fill: rgb(31, 119, 180); fill-opacity: 1;"></path></g><g class="point"><path d="M712.73,462V428.24H721.36V462Z" style="vector-effect: non-scaling-stroke; opacity: 1; stroke-width: 0px; fill: rgb(31, 119, 180); fill-opacity: 1;"></path></g><g class="point"><path d="M723.51,462V394.48H732.14V462Z" style="vector-effect: non-scaling-stroke; opacity: 1; stroke-width: 0px; fill: rgb(31, 119, 180); fill-opacity: 1;"></path></g><g class="point"><path d="M734.3,462V428.24H742.92V462Z" style="vector-effect: non-scaling-stroke; opacity: 1; stroke-width: 0px; fill: rgb(31, 119, 180); fill-opacity: 1;"></path></g></g></g></g></g><g class="overplot"></g><path class="xlines-above crisp" d="M0,0" style="fill: none;"></path><path class="ylines-above crisp" d="M0,0" style="fill: none;"></path><g class="overlines-above"></g><g class="xaxislayer-above"><g class="xtick"><text text-anchor="start" x="0" y="575" data-unformatted="Dec-02-16" data-math="N" transform="translate(85.39,0) rotate(90,0,569)" style="font-family: &quot;Open Sans&quot;, verdana, arial, sans-serif; font-size: 12px; fill: rgb(68, 68, 68); fill-opacity: 1; white-space: pre;">Dec-02-16</text></g><g class="xtick"><text text-anchor="start" x="0" y="575" data-unformatted="May-16-17" data-math="N" transform="translate(106.96000000000001,0) rotate(90,0,569)" style="font-family: &quot;Open Sans&quot;, verdana, arial, sans-serif; font-size: 12px; fill: rgb(68, 68, 68); fill-opacity: 1; white-space: pre;">May-16-17</text></g><g class="xtick"><text text-anchor="start" x="0" y="575" data-unformatted="Sep-05-16" data-math="N" transform="translate(128.52,0) rotate(90,0,569)" style="font-family: &quot;Open Sans&quot;, verdana, arial, sans-serif; font-size: 12px; fill: rgb(68, 68, 68); fill-opacity: 1; white-space: pre;">Sep-05-16</text></g><g class="xtick"><text text-anchor="start" x="0" y="575" data-unformatted="Jun-13-17" data-math="N" transform="translate(150.09,0) rotate(90,0,569)" style="font-family: &quot;Open Sans&quot;, verdana, arial, sans-serif; font-size: 12px; fill: rgb(68, 68, 68); fill-opacity: 1; white-space: pre;">Jun-13-17</text></g><g class="xtick"><text text-anchor="start" x="0" y="575" data-unformatted="Oct-10-16" data-math="N" transform="translate(171.65,0) rotate(90,0,569)" style="font-family: &quot;Open Sans&quot;, verdana, arial, sans-serif; font-size: 12px; fill: rgb(68, 68, 68); fill-opacity: 1; white-space: pre;">Oct-10-16</text></g><g class="xtick"><text text-anchor="start" x="0" y="575" data-unformatted="Oct-28-16" data-math="N" transform="translate(193.22,0) rotate(90,0,569)" style="font-family: &quot;Open Sans&quot;, verdana, arial, sans-serif; font-size: 12px; fill: rgb(68, 68, 68); fill-opacity: 1; white-space: pre;">Oct-28-16</text></g><g class="xtick"><text text-anchor="start" x="0" y="575" data-unformatted="Jun-07-16" data-math="N" transform="translate(214.78,0) rotate(90,0,569)" style="font-family: &quot;Open Sans&quot;, verdana, arial, sans-serif; font-size: 12px; fill: rgb(68, 68, 68); fill-opacity: 1; white-space: pre;">Jun-07-16</text></g><g class="xtick"><text text-anchor="start" x="0" y="575" data-unformatted="Sep-06-16" data-math="N" transform="translate(236.35,0) rotate(90,0,569)" style="font-family: &quot;Open Sans&quot;, verdana, arial, sans-serif; font-size: 12px; fill: rgb(68, 68, 68); fill-opacity: 1; white-space: pre;">Sep-06-16</text></g><g class="xtick"><text text-anchor="start" x="0" y="575" data-unformatted="Feb-06-17" data-math="N" transform="translate(257.90999999999997,0) rotate(90,0,569)" style="font-family: &quot;Open Sans&quot;, verdana, arial, sans-serif; font-size: 12px; fill: rgb(68, 68, 68); fill-opacity: 1; white-space: pre;">Feb-06-17</text></g><g class="xtick"><text text-anchor="start" x="0" y="575" data-unformatted="Mar-24-17" data-math="N" transform="translate(279.48,0) rotate(90,0,569)" style="font-family: &quot;Open Sans&quot;, verdana, arial, sans-serif; font-size: 12px; fill: rgb(68, 68, 68); fill-opacity: 1; white-space: pre;">Mar-24-17</text></g><g class="xtick"><text text-anchor="start" x="0" y="575" data-unformatted="Mar-07-14" data-math="N" transform="translate(301.03999999999996,0) rotate(90,0,569)" style="font-family: &quot;Open Sans&quot;, verdana, arial, sans-serif; font-size: 12px; fill: rgb(68, 68, 68); fill-opacity: 1; white-space: pre;">Mar-07-14</text></g><g class="xtick"><text text-anchor="start" x="0" y="575" data-unformatted="Aug-10-17" data-math="N" transform="translate(322.61,0) rotate(90,0,569)" style="font-family: &quot;Open Sans&quot;, verdana, arial, sans-serif; font-size: 12px; fill: rgb(68, 68, 68); fill-opacity: 1; white-space: pre;">Aug-10-17</text></g><g class="xtick"><text text-anchor="start" x="0" y="575" data-unformatted="Aug-02-17" data-math="N" transform="translate(344.17,0) rotate(90,0,569)" style="font-family: &quot;Open Sans&quot;, verdana, arial, sans-serif; font-size: 12px; fill: rgb(68, 68, 68); fill-opacity: 1; white-space: pre;">Aug-02-17</text></g><g class="xtick"><text text-anchor="start" x="0" y="575" data-unformatted="Jul-18-12" data-math="N" transform="translate(365.74,0) rotate(90,0,569)" style="font-family: &quot;Open Sans&quot;, verdana, arial, sans-serif; font-size: 12px; fill: rgb(68, 68, 68); fill-opacity: 1; white-space: pre;">Jul-18-12</text></g><g class="xtick"><text text-anchor="start" x="0" y="575" data-unformatted="Mar-26-14" data-math="N" transform="translate(387.3,0) rotate(90,0,569)" style="font-family: &quot;Open Sans&quot;, verdana, arial, sans-serif; font-size: 12px; fill: rgb(68, 68, 68); fill-opacity: 1; white-space: pre;">Mar-26-14</text></g><g class="xtick"><text text-anchor="start" x="0" y="575" data-unformatted="Jun-22-16" data-math="N" transform="translate(408.87,0) rotate(90,0,569)" style="font-family: &quot;Open Sans&quot;, verdana, arial, sans-serif; font-size: 12px; fill: rgb(68, 68, 68); fill-opacity: 1; white-space: pre;">Jun-22-16</text></g><g class="xtick"><text text-anchor="start" x="0" y="575" data-unformatted="Nov-07-12" data-math="N" transform="translate(430.43,0) rotate(90,0,569)" style="font-family: &quot;Open Sans&quot;, verdana, arial, sans-serif; font-size: 12px; fill: rgb(68, 68, 68); fill-opacity: 1; white-space: pre;">Nov-07-12</text></g><g class="xtick"><text text-anchor="start" x="0" y="575" data-unformatted="Mar-11-14" data-math="N" transform="translate(452,0) rotate(90,0,569)" style="font-family: &quot;Open Sans&quot;, verdana, arial, sans-serif; font-size: 12px; fill: rgb(68, 68, 68); fill-opacity: 1; white-space: pre;">Mar-11-14</text></g><g class="xtick"><text text-anchor="start" x="0" y="575" data-unformatted="Aug-23-12" data-math="N" transform="translate(473.57,0) rotate(90,0,569)" style="font-family: &quot;Open Sans&quot;, verdana, arial, sans-serif; font-size: 12px; fill: rgb(68, 68, 68); fill-opacity: 1; white-space: pre;">Aug-23-12</text></g><g class="xtick"><text text-anchor="start" x="0" y="575" data-unformatted="Mar-21-14" data-math="N" transform="translate(495.13,0) rotate(90,0,569)" style="font-family: &quot;Open Sans&quot;, verdana, arial, sans-serif; font-size: 12px; fill: rgb(68, 68, 68); fill-opacity: 1; white-space: pre;">Mar-21-14</text></g><g class="xtick"><text text-anchor="start" x="0" y="575" data-unformatted="Mar-02-17" data-math="N" transform="translate(516.7,0) rotate(90,0,569)" style="font-family: &quot;Open Sans&quot;, verdana, arial, sans-serif; font-size: 12px; fill: rgb(68, 68, 68); fill-opacity: 1; white-space: pre;">Mar-02-17</text></g><g class="xtick"><text text-anchor="start" x="0" y="575" data-unformatted="Aug-16-16" data-math="N" transform="translate(538.26,0) rotate(90,0,569)" style="font-family: &quot;Open Sans&quot;, verdana, arial, sans-serif; font-size: 12px; fill: rgb(68, 68, 68); fill-opacity: 1; white-space: pre;">Aug-16-16</text></g><g class="xtick"><text text-anchor="start" x="0" y="575" data-unformatted="Aug-21-14" data-math="N" transform="translate(559.8299999999999,0) rotate(90,0,569)" style="font-family: &quot;Open Sans&quot;, verdana, arial, sans-serif; font-size: 12px; fill: rgb(68, 68, 68); fill-opacity: 1; white-space: pre;">Aug-21-14</text></g><g class="xtick"><text text-anchor="start" x="0" y="575" data-unformatted="Aug-12-12" data-math="N" transform="translate(581.39,0) rotate(90,0,569)" style="font-family: &quot;Open Sans&quot;, verdana, arial, sans-serif; font-size: 12px; fill: rgb(68, 68, 68); fill-opacity: 1; white-space: pre;">Aug-12-12</text></g><g class="xtick"><text text-anchor="start" x="0" y="575" data-unformatted="Oct-06-15" data-math="N" transform="translate(602.96,0) rotate(90,0,569)" style="font-family: &quot;Open Sans&quot;, verdana, arial, sans-serif; font-size: 12px; fill: rgb(68, 68, 68); fill-opacity: 1; white-space: pre;">Oct-06-15</text></g><g class="xtick"><text text-anchor="start" x="0" y="575" data-unformatted="Jul-26-17" data-math="N" transform="translate(624.52,0) rotate(90,0,569)" style="font-family: &quot;Open Sans&quot;, verdana, arial, sans-serif; font-size: 12px; fill: rgb(68, 68, 68); fill-opacity: 1; white-space: pre;">Jul-26-17</text></g><g class="xtick"><text text-anchor="start" x="0" y="575" data-unformatted="Jul-25-12" data-math="N" transform="translate(646.09,0) rotate(90,0,569)" style="font-family: &quot;Open Sans&quot;, verdana, arial, sans-serif; font-size: 12px; fill: rgb(68, 68, 68); fill-opacity: 1; white-space: pre;">Jul-25-12</text></g><g class="xtick"><text text-anchor="start" x="0" y="575" data-unformatted="Jul-24-13" data-math="N" transform="translate(667.65,0) rotate(90,0,569)" style="font-family: &quot;Open Sans&quot;, verdana, arial, sans-serif; font-size: 12px; fill: rgb(68, 68, 68); fill-opacity: 1; white-space: pre;">Jul-24-13</text></g><g class="xtick"><text text-anchor="start" x="0" y="575" data-unformatted="Jun-20-16" data-math="N" transform="translate(689.22,0) rotate(90,0,569)" style="font-family: &quot;Open Sans&quot;, verdana, arial, sans-serif; font-size: 12px; fill: rgb(68, 68, 68); fill-opacity: 1; white-space: pre;">Jun-20-16</text></g><g class="xtick"><text text-anchor="start" x="0" y="575" data-unformatted="Feb-20-14" data-math="N" transform="translate(710.78,0) rotate(90,0,569)" style="font-family: &quot;Open Sans&quot;, verdana, arial, sans-serif; font-size: 12px; fill: rgb(68, 68, 68); fill-opacity: 1; white-space: pre;">Feb-20-14</text></g><g class="xtick"><text text-anchor="start" x="0" y="575" data-unformatted="Feb-13-14" data-math="N" transform="translate(732.35,0) rotate(90,0,569)" style="font-family: &quot;Open Sans&quot;, verdana, arial, sans-serif; font-size: 12px; fill: rgb(68, 68, 68); fill-opacity: 1; white-space: pre;">Feb-13-14</text></g><g class="xtick"><text text-anchor="start" x="0" y="575" data-unformatted="Jul-13-12" data-math="N" transform="translate(753.91,0) rotate(90,0,569)" style="font-family: &quot;Open Sans&quot;, verdana, arial, sans-serif; font-size: 12px; fill: rgb(68, 68, 68); fill-opacity: 1; white-space: pre;">Jul-13-12</text></g><g class="xtick"><text text-anchor="start" x="0" y="575" data-unformatted="Aug-05-13" data-math="N" transform="translate(775.48,0) rotate(90,0,569)" style="font-family: &quot;Open Sans&quot;, verdana, arial, sans-serif; font-size: 12px; fill: rgb(68, 68, 68); fill-opacity: 1; white-space: pre;">Aug-05-13</text></g><g class="xtick"><text text-anchor="start" x="0" y="575" data-unformatted="Jan-20-16" data-math="N" transform="translate(797.04,0) rotate(90,0,569)" style="font-family: &quot;Open Sans&quot;, verdana, arial, sans-serif; font-size: 12px; fill: rgb(68, 68, 68); fill-opacity: 1; white-space: pre;">Jan-20-16</text></g><g class="xtick"><text text-anchor="start" x="0" y="575" data-unformatted="Nov-04-13" data-math="N" transform="translate(818.61,0) rotate(90,0,569)" style="font-family: &quot;Open Sans&quot;, verdana, arial, sans-serif; font-size: 12px; fill: rgb(68, 68, 68); fill-opacity: 1; white-space: pre;">Nov-04-13</text></g></g><g class="yaxislayer-above"><g class="ytick"><text text-anchor="end" x="79" y="4.199999999999999" data-unformatted="0" data-math="N" transform="translate(0,562)" style="font-family: &quot;Open Sans&quot;, verdana, arial, sans-serif; font-size: 12px; fill: rgb(68, 68, 68); fill-opacity: 1; white-space: pre;">0</text></g><g class="ytick"><text text-anchor="end" x="79" y="4.199999999999999" data-unformatted="2" data-math="N" transform="translate(0,494.48)" style="font-family: &quot;Open Sans&quot;, verdana, arial, sans-serif; font-size: 12px; fill: rgb(68, 68, 68); fill-opacity: 1; white-space: pre;">2</text></g><g class="ytick"><text text-anchor="end" x="79" y="4.199999999999999" data-unformatted="4" data-math="N" transform="translate(0,426.95)" style="font-family: &quot;Open Sans&quot;, verdana, arial, sans-serif; font-size: 12px; fill: rgb(68, 68, 68); fill-opacity: 1; white-space: pre;">4</text></g><g class="ytick"><text text-anchor="end" x="79" y="4.199999999999999" data-unformatted="6" data-math="N" transform="translate(0,359.43)" style="font-family: &quot;Open Sans&quot;, verdana, arial, sans-serif; font-size: 12px; fill: rgb(68, 68, 68); fill-opacity: 1; white-space: pre;">6</text></g><g class="ytick"><text text-anchor="end" x="79" y="4.199999999999999" data-unformatted="8" data-math="N" transform="translate(0,291.90999999999997)" style="font-family: &quot;Open Sans&quot;, verdana, arial, sans-serif; font-size: 12px; fill: rgb(68, 68, 68); fill-opacity: 1; white-space: pre;">8</text></g><g class="ytick"><text text-anchor="end" x="79" y="4.199999999999999" data-unformatted="10" data-math="N" transform="translate(0,224.38)" style="font-family: &quot;Open Sans&quot;, verdana, arial, sans-serif; font-size: 12px; fill: rgb(68, 68, 68); fill-opacity: 1; white-space: pre;">10</text></g><g class="ytick"><text text-anchor="end" x="79" y="4.199999999999999" data-unformatted="12" data-math="N" transform="translate(0,156.86)" style="font-family: &quot;Open Sans&quot;, verdana, arial, sans-serif; font-size: 12px; fill: rgb(68, 68, 68); fill-opacity: 1; white-space: pre;">12</text></g></g><g class="overaxes-above"></g></g></g><g class="polarlayer"></g><g class="ternarylayer"></g><g class="geolayer"></g><g class="funnelarealayer"></g><g class="pielayer"></g><g class="treemaplayer"></g><g class="sunburstlayer"></g><g class="glimages"></g></svg><div class="gl-container"></div><svg class="main-svg" style="position: absolute" xmlns="http://www.w3.org/2000/svg" xmlns:xlink="http://www.w3.org/1999/xlink" width="904.225352112676" height="642"><defs id="topdefs-252f3d"><g class="clips"></g></defs><g class="indicatorlayer"></g><g class="layer-above"><g class="imagelayer"></g><g class="shapelayer"></g></g><g class="infolayer"><g class="g-gtitle"></g><g class="g-xtitle"></g><g class="g-ytitle"><text class="ytitle" transform="rotate(-90,42,331)" x="42" y="331" text-anchor="middle" data-unformatted="created" data-math="N" style="font-family: &quot;Open Sans&quot;, verdana, arial, sans-serif; font-size: 14px; fill: rgb(68, 68, 68); opacity: 1; font-weight: normal; white-space: pre;">created</text></g></g><g class="menulayer"></g><g class="zoomlayer"></g></svg><div class="modebar-container" style="position: absolute; top: 0px; right: 0px; width: 100%;"><div id="modebar-252f3d" class="modebar modebar--hover ease-bg"><div class="modebar-group"><a rel="tooltip" class="modebar-btn" data-title="Download plot as a png" data-toggle="false" data-gravity="n"><svg viewBox="0 0 1000 1000" class="icon" height="1em" width="1em"><path d="m500 450c-83 0-150-67-150-150 0-83 67-150 150-150 83 0 150 67 150 150 0 83-67 150-150 150z m400 150h-120c-16 0-34 13-39 29l-31 93c-6 15-23 28-40 28h-340c-16 0-34-13-39-28l-31-94c-6-15-23-28-40-28h-120c-55 0-100-45-100-100v-450c0-55 45-100 100-100h800c55 0 100 45 100 100v450c0 55-45 100-100 100z m-400-550c-138 0-250 112-250 250 0 138 112 250 250 250 138 0 250-112 250-250 0-138-112-250-250-250z m365 380c-19 0-35 16-35 35 0 19 16 35 35 35 19 0 35-16 35-35 0-19-16-35-35-35z" transform="matrix(1 0 0 -1 0 850)"></path></svg></a></div><div class="modebar-group"><a rel="tooltip" class="modebar-btn active" data-title="Zoom" data-attr="dragmode" data-val="zoom" data-toggle="false" data-gravity="n"><svg viewBox="0 0 1000 1000" class="icon" height="1em" width="1em"><path d="m1000-25l-250 251c40 63 63 138 63 218 0 224-182 406-407 406-224 0-406-182-406-406s183-406 407-406c80 0 155 22 218 62l250-250 125 125z m-812 250l0 438 437 0 0-438-437 0z m62 375l313 0 0-312-313 0 0 312z" transform="matrix(1 0 0 -1 0 850)"></path></svg></a><a rel="tooltip" class="modebar-btn" data-title="Pan" data-attr="dragmode" data-val="pan" data-toggle="false" data-gravity="n"><svg viewBox="0 0 1000 1000" class="icon" height="1em" width="1em"><path d="m1000 350l-187 188 0-125-250 0 0 250 125 0-188 187-187-187 125 0 0-250-250 0 0 125-188-188 186-187 0 125 252 0 0-250-125 0 187-188 188 188-125 0 0 250 250 0 0-126 187 188z" transform="matrix(1 0 0 -1 0 850)"></path></svg></a><a rel="tooltip" class="modebar-btn" data-title="Box Select" data-attr="dragmode" data-val="select" data-toggle="false" data-gravity="n"><svg viewBox="0 0 1000 1000" class="icon" height="1em" width="1em"><path d="m0 850l0-143 143 0 0 143-143 0z m286 0l0-143 143 0 0 143-143 0z m285 0l0-143 143 0 0 143-143 0z m286 0l0-143 143 0 0 143-143 0z m-857-286l0-143 143 0 0 143-143 0z m857 0l0-143 143 0 0 143-143 0z m-857-285l0-143 143 0 0 143-143 0z m857 0l0-143 143 0 0 143-143 0z m-857-286l0-143 143 0 0 143-143 0z m286 0l0-143 143 0 0 143-143 0z m285 0l0-143 143 0 0 143-143 0z m286 0l0-143 143 0 0 143-143 0z" transform="matrix(1 0 0 -1 0 850)"></path></svg></a><a rel="tooltip" class="modebar-btn" data-title="Lasso Select" data-attr="dragmode" data-val="lasso" data-toggle="false" data-gravity="n"><svg viewBox="0 0 1031 1000" class="icon" height="1em" width="1em"><path d="m1018 538c-36 207-290 336-568 286-277-48-473-256-436-463 10-57 36-108 76-151-13-66 11-137 68-183 34-28 75-41 114-42l-55-70 0 0c-2-1-3-2-4-3-10-14-8-34 5-45 14-11 34-8 45 4 1 1 2 3 2 5l0 0 113 140c16 11 31 24 45 40 4 3 6 7 8 11 48-3 100 0 151 9 278 48 473 255 436 462z m-624-379c-80 14-149 48-197 96 42 42 109 47 156 9 33-26 47-66 41-105z m-187-74c-19 16-33 37-39 60 50-32 109-55 174-68-42-25-95-24-135 8z m360 75c-34-7-69-9-102-8 8 62-16 128-68 170-73 59-175 54-244-5-9 20-16 40-20 61-28 159 121 317 333 354s407-60 434-217c28-159-121-318-333-355z" transform="matrix(1 0 0 -1 0 850)"></path></svg></a></div><div class="modebar-group"><a rel="tooltip" class="modebar-btn" data-title="Zoom in" data-attr="zoom" data-val="in" data-toggle="false" data-gravity="n"><svg viewBox="0 0 875 1000" class="icon" height="1em" width="1em"><path d="m1 787l0-875 875 0 0 875-875 0z m687-500l-187 0 0-187-125 0 0 187-188 0 0 125 188 0 0 187 125 0 0-187 187 0 0-125z" transform="matrix(1 0 0 -1 0 850)"></path></svg></a><a rel="tooltip" class="modebar-btn" data-title="Zoom out" data-attr="zoom" data-val="out" data-toggle="false" data-gravity="n"><svg viewBox="0 0 875 1000" class="icon" height="1em" width="1em"><path d="m0 788l0-876 875 0 0 876-875 0z m688-500l-500 0 0 125 500 0 0-125z" transform="matrix(1 0 0 -1 0 850)"></path></svg></a><a rel="tooltip" class="modebar-btn" data-title="Autoscale" data-attr="zoom" data-val="auto" data-toggle="false" data-gravity="n"><svg viewBox="0 0 1000 1000" class="icon" height="1em" width="1em"><path d="m250 850l-187 0-63 0 0-62 0-188 63 0 0 188 187 0 0 62z m688 0l-188 0 0-62 188 0 0-188 62 0 0 188 0 62-62 0z m-875-938l0 188-63 0 0-188 0-62 63 0 187 0 0 62-187 0z m875 188l0-188-188 0 0-62 188 0 62 0 0 62 0 188-62 0z m-125 188l-1 0-93-94-156 156 156 156 92-93 2 0 0 250-250 0 0-2 93-92-156-156-156 156 94 92 0 2-250 0 0-250 0 0 93 93 157-156-157-156-93 94 0 0 0-250 250 0 0 0-94 93 156 157 156-157-93-93 0 0 250 0 0 250z" transform="matrix(1 0 0 -1 0 850)"></path></svg></a><a rel="tooltip" class="modebar-btn" data-title="Reset axes" data-attr="zoom" data-val="reset" data-toggle="false" data-gravity="n"><svg viewBox="0 0 928.6 1000" class="icon" height="1em" width="1em"><path d="m786 296v-267q0-15-11-26t-25-10h-214v214h-143v-214h-214q-15 0-25 10t-11 26v267q0 1 0 2t0 2l321 264 321-264q1-1 1-4z m124 39l-34-41q-5-5-12-6h-2q-7 0-12 3l-386 322-386-322q-7-4-13-4-7 2-12 7l-35 41q-4 5-3 13t6 12l401 334q18 15 42 15t43-15l136-114v109q0 8 5 13t13 5h107q8 0 13-5t5-13v-227l122-102q5-5 6-12t-4-13z" transform="matrix(1 0 0 -1 0 850)"></path></svg></a></div><div class="modebar-group"><a rel="tooltip" class="modebar-btn" data-title="Toggle Spike Lines" data-attr="_cartesianSpikesEnabled" data-val="on" data-toggle="false" data-gravity="n"><svg viewBox="0 0 1000 1000" class="icon" height="1em" width="1em"><path d="M512 409c0-57-46-104-103-104-57 0-104 47-104 104 0 57 47 103 104 103 57 0 103-46 103-103z m-327-39l92 0 0 92-92 0z m-185 0l92 0 0 92-92 0z m370-186l92 0 0 93-92 0z m0-184l92 0 0 92-92 0z" transform="matrix(1.5 0 0 -1.5 0 850)"></path></svg></a><a rel="tooltip" class="modebar-btn active" data-title="Show closest data on hover" data-attr="hovermode" data-val="closest" data-toggle="false" data-gravity="ne"><svg viewBox="0 0 1500 1000" class="icon" height="1em" width="1em"><path d="m375 725l0 0-375-375 375-374 0-1 1125 0 0 750-1125 0z" transform="matrix(1 0 0 -1 0 850)"></path></svg></a><a rel="tooltip" class="modebar-btn" data-title="Compare data on hover" data-attr="hovermode" data-val="x" data-toggle="false" data-gravity="ne"><svg viewBox="0 0 1125 1000" class="icon" height="1em" width="1em"><path d="m187 786l0 2-187-188 188-187 0 0 937 0 0 373-938 0z m0-499l0 1-187-188 188-188 0 0 937 0 0 376-938-1z" transform="matrix(1 0 0 -1 0 850)"></path></svg></a></div></div></div><svg class="main-svg" style="position: absolute" xmlns="http://www.w3.org/2000/svg" xmlns:xlink="http://www.w3.org/1999/xlink" width="904.225352112676" height="642"><g class="hoverlayer"></g></svg>