<svg class="main-svg" style="position: absolute" xmlns="http://www.w3.org/2000/svg" xmlns:xlink="http://www.w3.org/1999/xlink" width="904.225352112676" height="642" style="background: rgb(255, 255, 255);"><defs id="defs-e16bd1"><g class="clips"><clipPath id="clipe16bd1xyplot" class="plotclip"><rect width="744" height="462"></rect></clipPath><clipPath class="axesclip" id="clipe16bd1x"><rect x="80" y="0" width="744" height="642"></rect></clipPath><clipPath class="axesclip" id="clipe16bd1y"><rect x="0" y="100" width="904.225352112676" height="462"></rect></clipPath><clipPath class="axesclip" id="clipe16bd1xy"><rect x="80" y="100" width="744" height="462"></rect></clipPath></g><g class="gradients"></g></defs><g class="bglayer"></g><g class="draglayer cursor-crosshair"><g class="xy"><rect class="nsewdrag drag" data-subplot="xy" x="80" y="100" width="744" height="462" style="fill: transparent; stroke-width: 0; pointer-events: all;"></rect><rect class="nwdrag drag cursor-nw-resize" data-subplot="xy" x="60" y="80" width="20" height="20" style="fill: transparent; stroke-width: 0; pointer-events: all;"></rect><rect class="nedrag drag cursor-ne-resize" data-subplot="xy" x="824" y="80" width="20" height="20" style="fill: transparent; stroke-width: 0; pointer-events: all;"></rect><rect class="swdrag drag cursor-sw-resize" data-subplot="xy" x="60" y="562" width="20" height="20" style="fill: transparent; stroke-width: 0; pointer-events: all;"></rect><rect class="sedrag drag cursor-se-resize" data-subplot="xy" x="824" y="562" width="20" height="20" style="fill: transparent; stroke-width: 0; pointer-events: all;"></rect><rect class="ewdrag drag cursor-ew-resize" data-subplot="xy" x="154.4" y="562.5" width="595.2" height="20" style="fill: transparent; stroke-width: 0; pointer-events: all;"></rect><rect class="wdrag drag cursor-w-resize" data-subplot="xy" x="80" y="562.5" width="74.4" height="20" style="fill: transparent; stroke-width: 0; pointer-events: all;"></rect><rect class="edrag drag cursor-e-resize" data-subplot="xy" x="749.6" y="562.5" width="74.4" height="20" style="fill: transparent; stroke-width: 0; pointer-events: all;"></rect><rect class="nsdrag drag cursor-ns-resize" data-subplot="xy" x="59.5" y="146.2" width="20" height="369.6" style="fill: transparent; stroke-width: 0; pointer-events: all;"></rect><rect class="sdrag drag cursor-s-resize" data-subplot="xy" x="59.5" y="515.8" width="20" height="46.2" style="fill: transparent; stroke-width: 0; pointer-events: all;"></rect><rect class="ndrag drag cursor-n-resize" data-subplot="xy" x="59.5" y="100" width="20" height="46.2" style="fill: transparent; stroke-width: 0; pointer-events: all;"></rect></g></g><g class="layer-below"><g class="imagelayer"></g><g class="shapelayer"></g></g><g class="cartesianlayer"><g class="subplot xy"><g class="layer-subplot"><g class="shapelayer"></g><g class="imagelayer"></g></g><g class="gridlayer"><g class="x"></g><g class="y"><path class="ygrid crisp" transform="translate(0,454.9)" d="M80,0h744" style="stroke: rgb(238, 238, 238); stroke-opacity: 1; stroke-width: 1px;"></path><path class="ygrid crisp" transform="translate(0,347.8)" d="M80,0h744" style="stroke: rgb(238, 238, 238); stroke-opacity: 1; stroke-width: 1px;"></path><path class="ygrid crisp" transform="translate(0,240.7)" d="M80,0h744" style="stroke: rgb(238, 238, 238); stroke-opacity: 1; stroke-width: 1px;"></path><path class="ygrid crisp" transform="translate(0,133.6)" d="M80,0h744" style="stroke: rgb(238, 238, 238); stroke-opacity: 1; stroke-width: 1px;"></path></g></g><g class="zerolinelayer"><path class="yzl zl crisp" transform="translate(0,562)" d="M80,0h744" style="stroke: rgb(68, 68, 68); stroke-opacity: 1; stroke-width: 1px;"></path></g><path class="xlines-below"></path><path class="ylines-below"></path><g class="overlines-below"></g><g class="xaxislayer-below"></g><g class="yaxislayer-below"></g><g class="overaxes-below"></g><g class="plot" transform="translate(80,100)" clip-path="url('#clipe16bd1xyplot')"><g class="barlayer mlayer"><g class="trace bars" shape-rendering="crispEdges" style="opacity: 1;"><g class="points"><g class="point"><path d="M0,462V461H4V462Z" style="vector-effect: non-scaling-stroke; opacity: 1; stroke-width: 0px; fill: rgb(31, 119, 180); fill-opacity: 1;"></path></g><g class="point"><path d="M4,462V462H8V462Z" style="vector-effect: non-scaling-stroke; opacity: 1; stroke-width: 0px; fill: rgb(31, 119, 180); fill-opacity: 1;"></path></g><g class="point"><path d="M8,462V462H12V462Z" style="vector-effect: non-scaling-stroke; opacity: 1; stroke-width: 0px; fill: rgb(31, 119, 180); fill-opacity: 1;"></path></g><g class="point"><path d="M12,462V462H16V462Z" style="vector-effect: non-scaling-stroke; opacity: 1; stroke-width: 0px; fill: rgb(31, 119, 180); fill-opacity: 1;"></path></g><g class="point"><path d="M16,462V462H20V462Z" style="vector-effect: non-scaling-stroke; opacity: 1; stroke-width: 0px; fill: rgb(31, 119, 180); fill-opacity: 1;"></path></g><g class="point"><path d="M20,462V462H24V462Z" style="vector-effect: non-scaling-stroke; opacity: 1; stroke-width: 0px; fill: rgb(31, 119, 180); fill-opacity: 1;"></path></g><g class="point"><path d="M24,462V462H28V462Z" style="vector-effect: non-scaling-stroke; opacity: 1; stroke-width: 0px; fill: rgb(31, 119, 180); fill-opacity: 1;"></path></g><g class="point"><path d="M28,462V462H32V462Z" style="vector-effect: non-scaling-stroke; opacity: 1; stroke-width: 0px; fill: rgb(31, 119, 180); fill-opacity: 1;"></path></g><g class="point"><path d="M32,462V462H36V462Z" style="vector-effect: non-scaling-stroke; opacity: 1; stroke-width: 0px; fill: rgb(31, 119, 180); fill-opacity: 1;"></path></g><g class="point"><path d="M36,462V462H40V462Z" style="vector-effect: non-scaling-stroke; opacity: 1; stroke-width: 0px; fill: rgb(31, 119, 180); fill-opacity: 1;"></path></g><g class="point"><path d="M40,462V462H44V462Z" style="vector-effect: non-scaling-stroke; opacity: 1; stroke-width: 0px; fill: rgb(31, 119, 180); fill-opacity: 1;"></path></g><g class="point"><path d="M44,462V462H48V462Z" style="vector-effect: non-scaling-stroke; opacity: 1; stroke-width: 0px; fill: rgb(31, 119, 180); fill-opacity: 1;"></path></g><g class="point"><path d="M48,462V462H52V462Z" style="vector-effect: non-scaling-stroke; opacity: 1; stroke-width: 0px; fill: rgb(31, 119, 180); fill-opacity: 1;"></path></g><g class="point"><path d="M52,462V462H56V462Z" style="vector-effect: non-scaling-stroke; opacity: 1; stroke-width: 0px; fill: rgb(31, 119, 180); fill-opacity: 1;"></path></g><g class="point"><path d="M56,462V462H60V462Z" style="vector-effect: non-scaling-stroke; opacity: 1; stroke-width: 0px; fill: rgb(31, 119, 180); fill-opacity: 1;"></path></g><g class="point"><path d="M60,462V462H64V462Z" style="vector-effect: non-scaling-stroke; opacity: 1; stroke-width: 0px; fill: rgb(31, 119, 180); fill-opacity: 1;"></path></g><g class="point"><path d="M64,462V462H68V462Z" style="vector-effect: non-scaling-stroke; opacity: 1; stroke-width: 0px; fill: rgb(31, 119, 180); fill-opacity: 1;"></path></g><g class="point"><path d="M68,462V462H72V462Z" style="vector-effect: non-scaling-stroke; opacity: 1; stroke-width: 0px; fill: rgb(31, 119, 180); fill-opacity: 1;"></path></g><g class="point"><path d="M72,462V462H76V462Z" style="vector-effect: non-scaling-stroke; opacity: 1; stroke-width: 0px; fill: rgb(31, 119, 180); fill-opacity: 1;"></path></g><g class="point"><path d="M76,462V461H80V462Z" style="vector-effect: non-scaling-stroke; opacity: 1; stroke-width: 0px; fill: rgb(31, 119, 180); fill-opacity: 1;"></path></g><g class="point"><path d="M80,462V462H84V462Z" style="vector-effect: non-scaling-stroke; opacity: 1; stroke-width: 0px; fill: rgb(31, 119, 180); fill-opacity: 1;"></path></g><g class="point"><path d="M84,462V462H88V462Z" style="vector-effect: non-scaling-stroke; opacity: 1; stroke-width: 0px; fill: rgb(31, 119, 180); fill-opacity: 1;"></path></g><g class="point"><path d="M88,462V462H93V462Z" style="vector-effect: non-scaling-stroke; opacity: 1; stroke-width: 0px; fill: rgb(31, 119, 180); fill-opacity: 1;"></path></g><g class="point"><path d="M93,462V462H97V462Z" style="vector-effect: non-scaling-stroke; opacity: 1; stroke-width: 0px; fill: rgb(31, 119, 180); fill-opacity: 1;"></path></g><g class="point"><path d="M97,462V462H101V462Z" style="vector-effect: non-scaling-stroke; opacity: 1; stroke-width: 0px; fill: rgb(31, 119, 180); fill-opacity: 1;"></path></g><g class="point"><path d="M101,462V462H105V462Z" style="vector-effect: non-scaling-stroke; opacity: 1; stroke-width: 0px; fill: rgb(31, 119, 180); fill-opacity: 1;"></path></g><g class="point"><path d="M105,462V462H109V462Z" style="vector-effect: non-scaling-stroke; opacity: 1; stroke-width: 0px; fill: rgb(31, 119, 180); fill-opacity: 1;"></path></g><g class="point"><path d="M109,462V462H113V462Z" style="vector-effect: non-scaling-stroke; opacity: 1; stroke-width: 0px; fill: rgb(31, 119, 180); fill-opacity: 1;"></path></g><g class="point"><path d="M113,462V462H117V462Z" style="vector-effect: non-scaling-stroke; opacity: 1; stroke-width: 0px; fill: rgb(31, 119, 180); fill-opacity: 1;"></path></g><g class="point"><path d="M117,462V462H121V462Z" style="vector-effect: non-scaling-stroke; opacity: 1; stroke-width: 0px; fill: rgb(31, 119, 180); fill-opacity: 1;"></path></g><g class="point"><path d="M121,462V462H125V462Z" style="vector-effect: non-scaling-stroke; opacity: 1; stroke-width: 0px; fill: rgb(31, 119, 180); fill-opacity: 1;"></path></g><g class="point"><path d="M125,462V462H129V462Z" style="vector-effect: non-scaling-stroke; opacity: 1; stroke-width: 0px; fill: rgb(31, 119, 180); fill-opacity: 1;"></path></g><g class="point"><path d="M129,462V462H133V462Z" style="vector-effect: non-scaling-stroke; opacity: 1; stroke-width: 0px; fill: rgb(31, 119, 180); fill-opacity: 1;"></path></g><g class="point"><path d="M133,462V462H137V462Z" style="vector-effect: non-scaling-stroke; opacity: 1; stroke-width: 0px; fill: rgb(31, 119, 180); fill-opacity: 1;"></path></g><g class="point"><path d="M137,462V462H141V462Z" style="vector-effect: non-scaling-stroke; opacity: 1; stroke-width: 0px; fill: rgb(31, 119, 180); fill-opacity: 1;"></path></g><g class="point"><path d="M141,462V462H145V462Z" style="vector-effect: non-scaling-stroke; opacity: 1; stroke-width: 0px; fill: rgb(31, 119, 180); fill-opacity: 1;"></path></g><g class="point"><path d="M145,462V462H149V462Z" style="vector-effect: non-scaling-stroke; opacity: 1; stroke-width: 0px; fill: rgb(31, 119, 180); fill-opacity: 1;"></path></g><g class="point"><path d="M149,462V462H153V462Z" style="vector-effect: non-scaling-stroke; opacity: 1; stroke-width: 0px; fill: rgb(31, 119, 180); fill-opacity: 1;"></path></g><g class="point"><path d="M153,462V461H157V462Z" style="vector-effect: non-scaling-stroke; opacity: 1; stroke-width: 0px; fill: rgb(31, 119, 180); fill-opacity: 1;"></path></g><g class="point"><path d="M157,462V462H161V462Z" style="vector-effect: non-scaling-stroke; opacity: 1; stroke-width: 0px; fill: rgb(31, 119, 180); fill-opacity: 1;"></path></g><g class="point"><path d="M161,462V462H165V462Z" style="vector-effect: non-scaling-stroke; opacity: 1; stroke-width: 0px; fill: rgb(31, 119, 180); fill-opacity: 1;"></path></g><g class="point"><path d="M165,462V462H169V462Z" style="vector-effect: non-scaling-stroke; opacity: 1; stroke-width: 0px; fill: rgb(31, 119, 180); fill-opacity: 1;"></path></g><g class="point"><path d="M169,462V461H173V462Z" style="vector-effect: non-scaling-stroke; opacity: 1; stroke-width: 0px; fill: rgb(31, 119, 180); fill-opacity: 1;"></path></g><g class="point"><path d="M173,462V462H177V462Z" style="vector-effect: non-scaling-stroke; opacity: 1; stroke-width: 0px; fill: rgb(31, 119, 180); fill-opacity: 1;"></path></g><g class="point"><path d="M177,462V462H181V462Z" style="vector-effect: non-scaling-stroke; opacity: 1; stroke-width: 0px; fill: rgb(31, 119, 180); fill-opacity: 1;"></path></g><g class="point"><path d="M181,462V462H185V462Z" style="vector-effect: non-scaling-stroke; opacity: 1; stroke-width: 0px; fill: rgb(31, 119, 180); fill-opacity: 1;"></path></g><g class="point"><path d="M185,462V461H189V462Z" style="vector-effect: non-scaling-stroke; opacity: 1; stroke-width: 0px; fill: rgb(31, 119, 180); fill-opacity: 1;"></path></g><g class="point"><path d="M189,462V461H193V462Z" style="vector-effect: non-scaling-stroke; opacity: 1; stroke-width: 0px; fill: rgb(31, 119, 180); fill-opacity: 1;"></path></g><g class="point"><path d="M193,462V461H197V462Z" style="vector-effect: non-scaling-stroke; opacity: 1; stroke-width: 0px; fill: rgb(31, 119, 180); fill-opacity: 1;"></path></g><g class="point"><path d="M197,462V461H201V462Z" style="vector-effect: non-scaling-stroke; opacity: 1; stroke-width: 0px; fill: rgb(31, 119, 180); fill-opacity: 1;"></path></g><g class="point"><path d="M201,462V461H205V462Z" style="vector-effect: non-scaling-stroke; opacity: 1; stroke-width: 0px; fill: rgb(31, 119, 180); fill-opacity: 1;"></path></g><g class="point"><path d="M205,462V461H209V462Z" style="vector-effect: non-scaling-stroke; opacity: 1; stroke-width: 0px; fill: rgb(31, 119, 180); fill-opacity: 1;"></path></g><g class="point"><path d="M209,462V461H213V462Z" style="vector-effect: non-scaling-stroke; opacity: 1; stroke-width: 0px; fill: rgb(31, 119, 180); fill-opacity: 1;"></path></g><g class="point"><path d="M213,462V461H217V462Z" style="vector-effect: non-scaling-stroke; opacity: 1; stroke-width: 0px; fill: rgb(31, 119, 180); fill-opacity: 1;"></path></g><g class="point"><path d="M217,462V460H221V462Z" style="vector-effect: non-scaling-stroke; opacity: 1; stroke-width: 0px; fill: rgb(31, 119, 180); fill-opacity: 1;"></path></g><g class="point"><path d="M221,462V461H225V462Z" style="vector-effect: non-scaling-stroke; opacity: 1; stroke-width: 0px; fill: rgb(31, 119, 180); fill-opacity: 1;"></path></g><g class="point"><path d="M225,462V462H229V462Z" style="vector-effect: non-scaling-stroke; opacity: 1; stroke-width: 0px; fill: rgb(31, 119, 180); fill-opacity: 1;"></path></g><g class="point"><path d="M229,462V461H233V462Z" style="vector-effect: non-scaling-stroke; opacity: 1; stroke-width: 0px; fill: rgb(31, 119, 180); fill-opacity: 1;"></path></g><g class="point"><path d="M233,462V461H237V462Z" style="vector-effect: non-scaling-stroke; opacity: 1; stroke-width: 0px; fill: rgb(31, 119, 180); fill-opacity: 1;"></path></g><g class="point"><path d="M237,462V461H241V462Z" style="vector-effect: non-scaling-stroke; opacity: 1; stroke-width: 0px; fill: rgb(31, 119, 180); fill-opacity: 1;"></path></g><g class="point"><path d="M241,462V461H245V462Z" style="vector-effect: non-scaling-stroke; opacity: 1; stroke-width: 0px; fill: rgb(31, 119, 180); fill-opacity: 1;"></path></g><g class="point"><path d="M245,462V461H249V462Z" style="vector-effect: non-scaling-stroke; opacity: 1; stroke-width: 0px; fill: rgb(31, 119, 180); fill-opacity: 1;"></path></g><g class="point"><path d="M249,462V461H253V462Z" style="vector-effect: non-scaling-stroke; opacity: 1; stroke-width: 0px; fill: rgb(31, 119, 180); fill-opacity: 1;"></path></g><g class="point"><path d="M253,462V461H257V462Z" style="vector-effect: non-scaling-stroke; opacity: 1; stroke-width: 0px; fill: rgb(31, 119, 180); fill-opacity: 1;"></path></g><g class="point"><path d="M257,462V462H261V462Z" style="vector-effect: non-scaling-stroke; opacity: 1; stroke-width: 0px; fill: rgb(31, 119, 180); fill-opacity: 1;"></path></g><g class="point"><path d="M261,462V460H265V462Z" style="vector-effect: non-scaling-stroke; opacity: 1; stroke-width: 0px; fill: rgb(31, 119, 180); fill-opacity: 1;"></path></g><g class="point"><path d="M265,462V460H269V462Z" style="vector-effect: non-scaling-stroke; opacity: 1; stroke-width: 0px; fill: rgb(31, 119, 180); fill-opacity: 1;"></path></g><g class="point"><path d="M269,462V460H273V462Z" style="vector-effect: non-scaling-stroke; opacity: 1; stroke-width: 0px; fill: rgb(31, 119, 180); fill-opacity: 1;"></path></g><g class="point"><path d="M273,462V459H277V462Z" style="vector-effect: non-scaling-stroke; opacity: 1; stroke-width: 0px; fill: rgb(31, 119, 180); fill-opacity: 1;"></path></g><g class="point"><path d="M277,462V459H282V462Z" style="vector-effect: non-scaling-stroke; opacity: 1; stroke-width: 0px; fill: rgb(31, 119, 180); fill-opacity: 1;"></path></g><g class="point"><path d="M282,462V459H286V462Z" style="vector-effect: non-scaling-stroke; opacity: 1; stroke-width: 0px; fill: rgb(31, 119, 180); fill-opacity: 1;"></path></g><g class="point"><path d="M286,462V456H290V462Z" style="vector-effect: non-scaling-stroke; opacity: 1; stroke-width: 0px; fill: rgb(31, 119, 180); fill-opacity: 1;"></path></g><g class="point"><path d="M290,462V458H294V462Z" style="vector-effect: non-scaling-stroke; opacity: 1; stroke-width: 0px; fill: rgb(31, 119, 180); fill-opacity: 1;"></path></g><g class="point"><path d="M294,462V453H298V462Z" style="vector-effect: non-scaling-stroke; opacity: 1; stroke-width: 0px; fill: rgb(31, 119, 180); fill-opacity: 1;"></path></g><g class="point"><path d="M298,462V452H302V462Z" style="vector-effect: non-scaling-stroke; opacity: 1; stroke-width: 0px; fill: rgb(31, 119, 180); fill-opacity: 1;"></path></g><g class="point"><path d="M302,462V448H306V462Z" style="vector-effect: non-scaling-stroke; opacity: 1; stroke-width: 0px; fill: rgb(31, 119, 180); fill-opacity: 1;"></path></g><g class="point"><path d="M306,462V453H310V462Z" style="vector-effect: non-scaling-stroke; opacity: 1; stroke-width: 0px; fill: rgb(31, 119, 180); fill-opacity: 1;"></path></g><g class="point"><path d="M310,462V454H314V462Z" style="vector-effect: non-scaling-stroke; opacity: 1; stroke-width: 0px; fill: rgb(31, 119, 180); fill-opacity: 1;"></path></g><g class="point"><path d="M314,462V455H318V462Z" style="vector-effect: non-scaling-stroke; opacity: 1; stroke-width: 0px; fill: rgb(31, 119, 180); fill-opacity: 1;"></path></g><g class="point"><path d="M318,462V460H322V462Z" style="vector-effect: non-scaling-stroke; opacity: 1; stroke-width: 0px; fill: rgb(31, 119, 180); fill-opacity: 1;"></path></g><g class="point"><path d="M322,462V442H326V462Z" style="vector-effect: non-scaling-stroke; opacity: 1; stroke-width: 0px; fill: rgb(31, 119, 180); fill-opacity: 1;"></path></g><g class="point"><path d="M326,462V404H330V462Z" style="vector-effect: non-scaling-stroke; opacity: 1; stroke-width: 0px; fill: rgb(31, 119, 180); fill-opacity: 1;"></path></g><g class="point"><path d="M330,462V381H334V462Z" style="vector-effect: non-scaling-stroke; opacity: 1; stroke-width: 0px; fill: rgb(31, 119, 180); fill-opacity: 1;"></path></g><g class="point"><path d="M334,462V410H338V462Z" style="vector-effect: non-scaling-stroke; opacity: 1; stroke-width: 0px; fill: rgb(31, 119, 180); fill-opacity: 1;"></path></g><g class="point"><path d="M338,462V437H342V462Z" style="vector-effect: non-scaling-stroke; opacity: 1; stroke-width: 0px; fill: rgb(31, 119, 180); fill-opacity: 1;"></path></g><g class="point"><path d="M342,462V462H346V462Z" style="vector-effect: non-scaling-stroke; opacity: 1; stroke-width: 0px; fill: rgb(31, 119, 180); fill-opacity: 1;"></path></g><g class="point"><path d="M346,462V462H350V462Z" style="vector-effect: non-scaling-stroke; opacity: 1; stroke-width: 0px; fill: rgb(31, 119, 180); fill-opacity: 1;"></path></g><g class="point"><path d="M350,462V462H354V462Z" style="vector-effect: non-scaling-stroke; opacity: 1; stroke-width: 0px; fill: rgb(31, 119, 180); fill-opacity: 1;"></path></g><g class="point"><path d="M354,462V462H358V462Z" style="vector-effect: non-scaling-stroke; opacity: 1; stroke-width: 0px; fill: rgb(31, 119, 180); fill-opacity: 1;"></path></g><g class="point"><path d="M358,462V462H362V462Z" style="vector-effect: non-scaling-stroke; opacity: 1; stroke-width: 0px; fill: rgb(31, 119, 180); fill-opacity: 1;"></path></g><g class="point"><path d="M362,462V23H366V462Z" style="vector-effect: non-scaling-stroke; opacity: 1; stroke-width: 0px; fill: rgb(31, 119, 180); fill-opacity: 1;"></path></g><g class="point"><path d="M366,462V462H370V462Z" style="vector-effect: non-scaling-stroke; opacity: 1; stroke-width: 0px; fill: rgb(31, 119, 180); fill-opacity: 1;"></path></g><g class="point"><path d="M370,462V462H374V462Z" style="vector-effect: non-scaling-stroke; opacity: 1; stroke-width: 0px; fill: rgb(31, 119, 180); fill-opacity: 1;"></path></g><g class="point"><path d="M374,462V462H378V462Z" style="vector-effect: non-scaling-stroke; opacity: 1; stroke-width: 0px; fill: rgb(31, 119, 180); fill-opacity: 1;"></path></g><g class="point"><path d="M378,462V462H382V462Z" style="vector-effect: non-scaling-stroke; opacity: 1; stroke-width: 0px; fill: rgb(31, 119, 180); fill-opacity: 1;"></path></g><g class="point"><path d="M382,462V462H386V462Z" style="vector-effect: non-scaling-stroke; opacity: 1; stroke-width: 0px; fill: rgb(31, 119, 180); fill-opacity: 1;"></path></g><g class="point"><path d="M386,462V437H390V462Z" style="vector-effect: non-scaling-stroke; opacity: 1; stroke-width: 0px; fill: rgb(31, 119, 180); fill-opacity: 1;"></path></g><g class="point"><path d="M390,462V418H394V462Z" style="vector-effect: non-scaling-stroke; opacity: 1; stroke-width: 0px; fill: rgb(31, 119, 180); fill-opacity: 1;"></path></g><g class="point"><path d="M394,462V394H398V462Z" style="vector-effect: non-scaling-stroke; opacity: 1; stroke-width: 0px; fill: rgb(31, 119, 180); fill-opacity: 1;"></path></g><g class="point"><path d="M398,462V416H402V462Z" style="vector-effect: non-scaling-stroke; opacity: 1; stroke-width: 0px; fill: rgb(31, 119, 180); fill-opacity: 1;"></path></g><g class="point"><path d="M402,462V448H406V462Z" style="vector-effect: non-scaling-stroke; opacity: 1; stroke-width: 0px; fill: rgb(31, 119, 180); fill-opacity: 1;"></path></g><g class="point"><path d="M406,462V460H410V462Z" style="vector-effect: non-scaling-stroke; opacity: 1; stroke-width: 0px; fill: rgb(31, 119, 180); fill-opacity: 1;"></path></g><g class="point"><path d="M410,462V456H414V462Z" style="vector-effect: non-scaling-stroke; opacity: 1; stroke-width: 0px; fill: rgb(31, 119, 180); fill-opacity: 1;"></path></g><g class="point"><path d="M414,462V452H418V462Z" style="vector-effect: non-scaling-stroke; opacity: 1; stroke-width: 0px; fill: rgb(31, 119, 180); fill-opacity: 1;"></path></g><g class="point"><path d="M418,462V451H422V462Z" style="vector-effect: non-scaling-stroke; opacity: 1; stroke-width: 0px; fill: rgb(31, 119, 180); fill-opacity: 1;"></path></g><g class="point"><path d="M422,462V452H426V462Z" style="vector-effect: non-scaling-stroke; opacity: 1; stroke-width: 0px; fill: rgb(31, 119, 180); fill-opacity: 1;"></path></g><g class="point"><path d="M426,462V452H430V462Z" style="vector-effect: non-scaling-stroke; opacity: 1; stroke-width: 0px; fill: rgb(31, 119, 180); fill-opacity: 1;"></path></g><g class="point"><path d="M430,462V453H434V462Z" style="vector-effect: non-scaling-stroke; opacity: 1; stroke-width: 0px; fill: rgb(31, 119, 180); fill-opacity: 1;"></path></g><g class="point"><path d="M434,462V457H438V462Z" style="vector-effect: non-scaling-stroke; opacity: 1; stroke-width: 0px; fill: rgb(31, 119, 180); fill-opacity: 1;"></path></g><g class="point"><path d="M438,462V456H442V462Z" style="vector-effect: non-scaling-stroke; opacity: 1; stroke-width: 0px; fill: rgb(31, 119, 180); fill-opacity: 1;"></path></g><g class="point"><path d="M442,462V459H446V462Z" style="vector-effect: non-scaling-stroke; opacity: 1; stroke-width: 0px; fill: rgb(31, 119, 180); fill-opacity: 1;"></path></g><g class="point"><path d="M446,462V460H450V462Z" style="vector-effect: non-scaling-stroke; opacity: 1; stroke-width: 0px; fill: rgb(31, 119, 180); fill-opacity: 1;"></path></g><g class="point"><path d="M450,462V458H454V462Z" style="vector-effect: non-scaling-stroke; opacity: 1; stroke-width: 0px; fill: rgb(31, 119, 180); fill-opacity: 1;"></path></g><g class="point"><path d="M454,462V460H458V462Z" style="vector-effect: non-scaling-stroke; opacity: 1; stroke-width: 0px; fill: rgb(31, 119, 180); fill-opacity: 1;"></path></g><g class="point"><path d="M458,462V459H462V462Z" style="vector-effect: non-scaling-stroke; opacity: 1; stroke-width: 0px; fill: rgb(31, 119, 180); fill-opacity: 1;"></path></g><g class="point"><path d="M462,462V458H467V462Z" style="vector-effect: non-scaling-stroke; opacity: 1; stroke-width: 0px; fill: rgb(31, 119, 180); fill-opacity: 1;"></path></g><g class="point"><path d="M467,462V460H471V462Z" style="vector-effect: non-scaling-stroke; opacity: 1; stroke-width: 0px; fill: rgb(31, 119, 180); fill-opacity: 1;"></path></g><g class="point"><path d="M471,462V460H475V462Z" style="vector-effect: non-scaling-stroke; opacity: 1; stroke-width: 0px; fill: rgb(31, 119, 180); fill-opacity: 1;"></path></g><g class="point"><path d="M475,462V460H479V462Z" style="vector-effect: non-scaling-stroke; opacity: 1; stroke-width: 0px; fill: rgb(31, 119, 180); fill-opacity: 1;"></path></g><g class="point"><path d="M479,462V461H483V462Z" style="vector-effect: non-scaling-stroke; opacity: 1; stroke-width: 0px; fill: rgb(31, 119, 180); fill-opacity: 1;"></path></g><g class="point"><path d="M483,462V460H487V462Z" style="vector-effect: non-scaling-stroke; opacity: 1; stroke-width: 0px; fill: rgb(31, 119, 180); fill-opacity: 1;"></path></g><g class="point"><path d="M487,462V460H491V462Z" style="vector-effect: non-scaling-stroke; opacity: 1; stroke-width: 0px; fill: rgb(31, 119, 180); fill-opacity: 1;"></path></g><g class="point"><path d="M491,462V461H495V462Z" style="vector-effect: non-scaling-stroke; opacity: 1; stroke-width: 0px; fill: rgb(31, 119, 180); fill-opacity: 1;"></path></g><g class="point"><path d="M495,462V460H499V462Z" style="vector-effect: non-scaling-stroke; opacity: 1; stroke-width: 0px; fill: rgb(31, 119, 180); fill-opacity: 1;"></path></g><g class="point"><path d="M499,462V462H503V462Z" style="vector-effect: non-scaling-stroke; opacity: 1; stroke-width: 0px; fill: rgb(31, 119, 180); fill-opacity: 1;"></path></g><g class="point"><path d="M503,462V461H507V462Z" style="vector-effect: non-scaling-stroke; opacity: 1; stroke-width: 0px; fill: rgb(31, 119, 180); fill-opacity: 1;"></path></g><g class="point"><path d="M507,462V461H511V462Z" style="vector-effect: non-scaling-stroke; opacity: 1; stroke-width: 0px; fill: rgb(31, 119, 180); fill-opacity: 1;"></path></g><g class="point"><path d="M511,462V461H515V462Z" style="vector-effect: non-scaling-stroke; opacity: 1; stroke-width: 0px; fill: rgb(31, 119, 180); fill-opacity: 1;"></path></g><g class="point"><path d="M515,462V460H519V462Z" style="vector-effect: non-scaling-stroke; opacity: 1; stroke-width: 0px; fill: rgb(31, 119, 180); fill-opacity: 1;"></path></g><g class="point"><path d="M519,462V461H523V462Z" style="vector-effect: non-scaling-stroke; opacity: 1; stroke-width: 0px; fill: rgb(31, 119, 180); fill-opacity: 1;"></path></g><g class="point"><path d="M523,462V461H527V462Z" style="vector-effect: non-scaling-stroke; opacity: 1; stroke-width: 0px; fill: rgb(31, 119, 180); fill-opacity: 1;"></path></g><g class="point"><path d="M527,462V461H531V462Z" style="vector-effect: non-scaling-stroke; opacity: 1; stroke-width: 0px; fill: rgb(31, 119, 180); fill-opacity: 1;"></path></g><g class="point"><path d="M531,462V462H535V462Z" style="vector-effect: non-scaling-stroke; opacity: 1; stroke-width: 0px; fill: rgb(31, 119, 180); fill-opacity: 1;"></path></g><g class="point"><path d="M535,462V461H539V462Z" style="vector-effect: non-scaling-stroke; opacity: 1; stroke-width: 0px; fill: rgb(31, 119, 180); fill-opacity: 1;"></path></g><g class="point"><path d="M539,462V462H543V462Z" style="vector-effect: non-scaling-stroke; opacity: 1; stroke-width: 0px; fill: rgb(31, 119, 180); fill-opacity: 1;"></path></g><g class="point"><path d="M543,462V462H547V462Z" style="vector-effect: non-scaling-stroke; opacity: 1; stroke-width: 0px; fill: rgb(31, 119, 180); fill-opacity: 1;"></path></g><g class="point"><path d="M547,462V461H551V462Z" style="vector-effect: non-scaling-stroke; opacity: 1; stroke-width: 0px; fill: rgb(31, 119, 180); fill-opacity: 1;"></path></g><g class="point"><path d="M551,462V462H555V462Z" style="vector-effect: non-scaling-stroke; opacity: 1; stroke-width: 0px; fill: rgb(31, 119, 180); fill-opacity: 1;"></path></g><g class="point"><path d="M555,462V462H559V462Z" style="vector-effect: non-scaling-stroke; opacity: 1; stroke-width: 0px; fill: rgb(31, 119, 180); fill-opacity: 1;"></path></g><g class="point"><path d="M559,462V462H563V462Z" style="vector-effect: non-scaling-stroke; opacity: 1; stroke-width: 0px; fill: rgb(31, 119, 180); fill-opacity: 1;"></path></g><g class="point"><path d="M563,462V462H567V462Z" style="vector-effect: non-scaling-stroke; opacity: 1; stroke-width: 0px; fill: rgb(31, 119, 180); fill-opacity: 1;"></path></g><g class="point"><path d="M567,462V461H571V462Z" style="vector-effect: non-scaling-stroke; opacity: 1; stroke-width: 0px; fill: rgb(31, 119, 180); fill-opacity: 1;"></path></g><g class="point"><path d="M571,462V461H575V462Z" style="vector-effect: non-scaling-stroke; opacity: 1; stroke-width: 0px; fill: rgb(31, 119, 180); fill-opacity: 1;"></path></g><g class="point"><path d="M575,462V461H579V462Z" style="vector-effect: non-scaling-stroke; opacity: 1; stroke-width: 0px; fill: rgb(31, 119, 180); fill-opacity: 1;"></path></g><g class="point"><path d="M579,462V462H583V462Z" style="vector-effect: non-scaling-stroke; opacity: 1; stroke-width: 0px; fill: rgb(31, 119, 180); fill-opacity: 1;"></path></g><g class="point"><path d="M583,462V461H587V462Z" style="vector-effect: non-scaling-stroke; opacity: 1; stroke-width: 0px; fill: rgb(31, 119, 180); fill-opacity: 1;"></path></g><g class="point"><path d="M587,462V461H591V462Z" style="vector-effect: non-scaling-stroke; opacity: 1; stroke-width: 0px; fill: rgb(31, 119, 180); fill-opacity: 1;"></path></g><g class="point"><path d="M591,462V462H595V462Z" style="vector-effect: non-scaling-stroke; opacity: 1; stroke-width: 0px; fill: rgb(31, 119, 180); fill-opacity: 1;"></path></g><g class="point"><path d="M595,462V462H599V462Z" style="vector-effect: non-scaling-stroke; opacity: 1; stroke-width: 0px; fill: rgb(31, 119, 180); fill-opacity: 1;"></path></g><g class="point"><path d="M599,462V462H603V462Z" style="vector-effect: non-scaling-stroke; opacity: 1; stroke-width: 0px; fill: rgb(31, 119, 180); fill-opacity: 1;"></path></g><g class="point"><path d="M603,462V462H607V462Z" style="vector-effect: non-scaling-stroke; opacity: 1; stroke-width: 0px; fill: rgb(31, 119, 180); fill-opacity: 1;"></path></g><g class="point"><path d="M607,462V461H611V462Z" style="vector-effect: non-scaling-stroke; opacity: 1; stroke-width: 0px; fill: rgb(31, 119, 180); fill-opacity: 1;"></path></g><g class="point"><path d="M611,462V462H615V462Z" style="vector-effect: non-scaling-stroke; opacity: 1; stroke-width: 0px; fill: rgb(31, 119, 180); fill-opacity: 1;"></path></g><g class="point"><path d="M615,462V461H619V462Z" style="vector-effect: non-scaling-stroke; opacity: 1; stroke-width: 0px; fill: rgb(31, 119, 180); fill-opacity: 1;"></path></g><g class="point"><path d="M619,462V462H623V462Z" style="vector-effect: non-scaling-stroke; opacity: 1; stroke-width: 0px; fill: rgb(31, 119, 180); fill-opacity: 1;"></path></g><g class="point"><path d="M623,462V462H627V462Z" style="vector-effect: non-scaling-stroke; opacity: 1; stroke-width: 0px; fill: rgb(31, 119, 180); fill-opacity: 1;"></path></g><g class="point"><path d="M627,462V462H631V462Z" style="vector-effect: non-scaling-stroke; opacity: 1; stroke-width: 0px; fill: rgb(31, 119, 180); fill-opacity: 1;"></path></g><g class="point"><path d="M631,462V462H635V462Z" style="vector-effect: non-scaling-stroke; opacity: 1; stroke-width: 0px; fill: rgb(31, 119, 180); fill-opacity: 1;"></path></g><g class="point"><path d="M635,462V462H639V462Z" style="vector-effect: non-scaling-stroke; opacity: 1; stroke-width: 0px; fill: rgb(31, 119, 180); fill-opacity: 1;"></path></g><g class="point"><path d="M639,462V462H643V462Z" style="vector-effect: non-scaling-stroke; opacity: 1; stroke-width: 0px; fill: rgb(31, 119, 180); fill-opacity: 1;"></path></g><g class="point"><path d="M643,462V462H647V462Z" style="vector-effect: non-scaling-stroke; opacity: 1; stroke-width: 0px; fill: rgb(31, 119, 180); fill-opacity: 1;"></path></g><g class="point"><path d="M647,462V462H652V462Z" style="vector-effect: non-scaling-stroke; opacity: 1; stroke-width: 0px; fill: rgb(31, 119, 180); fill-opacity: 1;"></path></g><g class="point"><path d="M652,462V461H656V462Z" style="vector-effect: non-scaling-stroke; opacity: 1; stroke-width: 0px; fill: rgb(31, 119, 180); fill-opacity: 1;"></path></g><g class="point"><path d="M656,462V462H660V462Z" style="vector-effect: non-scaling-stroke; opacity: 1; stroke-width: 0px; fill: rgb(31, 119, 180); fill-opacity: 1;"></path></g><g class="point"><path d="M660,462V461H664V462Z" style="vector-effect: non-scaling-stroke; opacity: 1; stroke-width: 0px; fill: rgb(31, 119, 180); fill-opacity: 1;"></path></g><g class="point"><path d="M664,462V462H668V462Z" style="vector-effect: non-scaling-stroke; opacity: 1; stroke-width: 0px; fill: rgb(31, 119, 180); fill-opacity: 1;"></path></g><g class="point"><path d="M668,462V462H672V462Z" style="vector-effect: non-scaling-stroke; opacity: 1; stroke-width: 0px; fill: rgb(31, 119, 180); fill-opacity: 1;"></path></g><g class="point"><path d="M672,462V462H676V462Z" style="vector-effect: non-scaling-stroke; opacity: 1; stroke-width: 0px; fill: rgb(31, 119, 180); fill-opacity: 1;"></path></g><g class="point"><path d="M676,462V462H680V462Z" style="vector-effect: non-scaling-stroke; opacity: 1; stroke-width: 0px; fill: rgb(31, 119, 180); fill-opacity: 1;"></path></g><g class="point"><path d="M680,462V462H684V462Z" style="vector-effect: non-scaling-stroke; opacity: 1; stroke-width: 0px; fill: rgb(31, 119, 180); fill-opacity: 1;"></path></g><g class="point"><path d="M684,462V462H688V462Z" style="vector-effect: non-scaling-stroke; opacity: 1; stroke-width: 0px; fill: rgb(31, 119, 180); fill-opacity: 1;"></path></g><g class="point"><path d="M688,462V462H692V462Z" style="vector-effect: non-scaling-stroke; opacity: 1; stroke-width: 0px; fill: rgb(31, 119, 180); fill-opacity: 1;"></path></g><g class="point"><path d="M692,462V462H696V462Z" style="vector-effect: non-scaling-stroke; opacity: 1; stroke-width: 0px; fill: rgb(31, 119, 180); fill-opacity: 1;"></path></g><g class="point"><path d="M696,462V462H700V462Z" style="vector-effect: non-scaling-stroke; opacity: 1; stroke-width: 0px; fill: rgb(31, 119, 180); fill-opacity: 1;"></path></g><g class="point"><path d="M700,462V462H704V462Z" style="vector-effect: non-scaling-stroke; opacity: 1; stroke-width: 0px; fill: rgb(31, 119, 180); fill-opacity: 1;"></path></g><g class="point"><path d="M704,462V462H708V462Z" style="vector-effect: non-scaling-stroke; opacity: 1; stroke-width: 0px; fill: rgb(31, 119, 180); fill-opacity: 1;"></path></g><g class="point"><path d="M708,462V462H712V462Z" style="vector-effect: non-scaling-stroke; opacity: 1; stroke-width: 0px; fill: rgb(31, 119, 180); fill-opacity: 1;"></path></g><g class="point"><path d="M712,462V462H716V462Z" style="vector-effect: non-scaling-stroke; opacity: 1; stroke-width: 0px; fill: rgb(31, 119, 180); fill-opacity: 1;"></path></g><g class="point"><path d="M716,462V462H720V462Z" style="vector-effect: non-scaling-stroke; opacity: 1; stroke-width: 0px; fill: rgb(31, 119, 180); fill-opacity: 1;"></path></g><g class="point"><path d="M720,462V462H724V462Z" style="vector-effect: non-scaling-stroke; opacity: 1; stroke-width: 0px; fill: rgb(31, 119, 180); fill-opacity: 1;"></path></g><g class="point"><path d="M724,462V462H728V462Z" style="vector-effect: non-scaling-stroke; opacity: 1; stroke-width: 0px; fill: rgb(31, 119, 180); fill-opacity: 1;"></path></g><g class="point"><path d="M728,462V462H732V462Z" style="vector-effect: non-scaling-stroke; opacity: 1; stroke-width: 0px; fill: rgb(31, 119, 180); fill-opacity: 1;"></path></g><g class="point"><path d="M732,462V462H736V462Z" style="vector-effect: non-scaling-stroke; opacity: 1; stroke-width: 0px; fill: rgb(31, 119, 180); fill-opacity: 1;"></path></g><g class="point"><path d="M736,462V462H740V462Z" style="vector-effect: non-scaling-stroke; opacity: 1; stroke-width: 0px; fill: rgb(31, 119, 180); fill-opacity: 1;"></path></g><g class="point"><path d="M740,462V461H744V462Z" style="vector-effect: non-scaling-stroke; opacity: 1; stroke-width: 0px; fill: rgb(31, 119, 180); fill-opacity: 1;"></path></g></g></g></g></g><g class="overplot"></g><path class="xlines-above crisp" d="M0,0" style="fill: none;"></path><path class="ylines-above crisp" d="M0,0" style="fill: none;"></path><g class="overlines-above"></g><g class="xaxislayer-above"><g class="xtick"><text text-anchor="middle" x="0" y="575" data-unformatted="−8" data-math="N" transform="translate(122.22999999999999,0)" style="font-family: &quot;Open Sans&quot;, verdana, arial, sans-serif; font-size: 12px; fill: rgb(68, 68, 68); fill-opacity: 1; white-space: pre;">−8</text></g><g class="xtick"><text text-anchor="middle" x="0" y="575" data-unformatted="−6" data-math="N" transform="translate(202.66,0)" style="font-family: &quot;Open Sans&quot;, verdana, arial, sans-serif; font-size: 12px; fill: rgb(68, 68, 68); fill-opacity: 1; white-space: pre;">−6</text></g><g class="xtick"><text text-anchor="middle" x="0" y="575" data-unformatted="−4" data-math="N" transform="translate(283.09000000000003,0)" style="font-family: &quot;Open Sans&quot;, verdana, arial, sans-serif; font-size: 12px; fill: rgb(68, 68, 68); fill-opacity: 1; white-space: pre;">−4</text></g><g class="xtick"><text text-anchor="middle" x="0" y="575" data-unformatted="−2" data-math="N" transform="translate(363.52,0)" style="font-family: &quot;Open Sans&quot;, verdana, arial, sans-serif; font-size: 12px; fill: rgb(68, 68, 68); fill-opacity: 1; white-space: pre;">−2</text></g><g class="xtick"><text text-anchor="middle" x="0" y="575" data-unformatted="0" data-math="N" transform="translate(443.96,0)" style="font-family: &quot;Open Sans&quot;, verdana, arial, sans-serif; font-size: 12px; fill: rgb(68, 68, 68); fill-opacity: 1; white-space: pre;">0</text></g><g class="xtick"><text text-anchor="middle" x="0" y="575" data-unformatted="2" data-math="N" transform="translate(524.39,0)" style="font-family: &quot;Open Sans&quot;, verdana, arial, sans-serif; font-size: 12px; fill: rgb(68, 68, 68); fill-opacity: 1; white-space: pre;">2</text></g><g class="xtick"><text text-anchor="middle" x="0" y="575" data-unformatted="4" data-math="N" transform="translate(604.82,0)" style="font-family: &quot;Open Sans&quot;, verdana, arial, sans-serif; font-size: 12px; fill: rgb(68, 68, 68); fill-opacity: 1; white-space: pre;">4</text></g><g class="xtick"><text text-anchor="middle" x="0" y="575" data-unformatted="6" data-math="N" transform="translate(685.25,0)" style="font-family: &quot;Open Sans&quot;, verdana, arial, sans-serif; font-size: 12px; fill: rgb(68, 68, 68); fill-opacity: 1; white-space: pre;">6</text></g><g class="xtick"><text text-anchor="middle" x="0" y="575" data-unformatted="8" data-math="N" transform="translate(765.69,0)" style="font-family: &quot;Open Sans&quot;, verdana, arial, sans-serif; font-size: 12px; fill: rgb(68, 68, 68); fill-opacity: 1; white-space: pre;">8</text></g></g><g class="yaxislayer-above"><g class="ytick"><text text-anchor="end" x="79" y="4.199999999999999" data-unformatted="0" data-math="N" transform="translate(0,562)" style="font-family: &quot;Open Sans&quot;, verdana, arial, sans-serif; font-size: 12px; fill: rgb(68, 68, 68); fill-opacity: 1; white-space: pre;">0</text></g><g class="ytick"><text text-anchor="end" x="79" y="4.199999999999999" data-unformatted="500" data-math="N" transform="translate(0,454.9)" style="font-family: &quot;Open Sans&quot;, verdana, arial, sans-serif; font-size: 12px; fill: rgb(68, 68, 68); fill-opacity: 1; white-space: pre;">500</text></g><g class="ytick"><text text-anchor="end" x="79" y="4.199999999999999" data-unformatted="1000" data-math="N" transform="translate(0,347.8)" style="font-family: &quot;Open Sans&quot;, verdana, arial, sans-serif; font-size: 12px; fill: rgb(68, 68, 68); fill-opacity: 1; white-space: pre;">1000</text></g><g class="ytick"><text text-anchor="end" x="79" y="4.199999999999999" data-unformatted="1500" data-math="N" transform="translate(0,240.7)" style="font-family: &quot;Open Sans&quot;, verdana, arial, sans-serif; font-size: 12px; fill: rgb(68, 68, 68); fill-opacity: 1; white-space: pre;">1500</text></g><g class="ytick"><text text-anchor="end" x="79" y="4.199999999999999" data-unformatted="2000" data-math="N" transform="translate(0,133.6)" style="font-family: &quot;Open Sans&quot;, verdana, arial, sans-serif; font-size: 12px; fill: rgb(68, 68, 68); fill-opacity: 1; white-space: pre;">2000</text></g></g><g class="overaxes-above"></g></g></g><g class="polarlayer"></g><g class="ternarylayer"></g><g class="geolayer"></g><g class="funnelarealayer"></g><g class="pielayer"></g><g class="treemaplayer"></g><g class="sunburstlayer"></g><g class="glimages"></g></svg><div class="gl-container"></div><svg class="main-svg" style="position: absolute" xmlns="http://www.w3.org/2000/svg" xmlns:xlink="http://www.w3.org/1999/xlink" width="904.225352112676" height="642"><defs id="topdefs-e16bd1"><g class="clips"></g></defs><g class="indicatorlayer"></g><g class="layer-above"><g class="imagelayer"></g><g class="shapelayer"></g></g><g class="infolayer"><g class="g-gtitle"><text class="gtitle" x="452.112676056338" y="50" text-anchor="middle" dy="0em" data-unformatted="Histogram of AUD per Yen" data-math="N" style="font-family: &quot;Open Sans&quot;, verdana, arial, sans-serif; font-size: 17px; fill: rgb(68, 68, 68); opacity: 1; font-weight: normal; white-space: pre;">Histogram of AUD per Yen</text></g><g class="g-xtitle"><text class="xtitle" x="452" y="614" text-anchor="middle" data-unformatted="bins" data-math="N" style="font-family: &quot;Open Sans&quot;, verdana, arial, sans-serif; font-size: 14px; fill: rgb(68, 68, 68); opacity: 1; font-weight: normal; white-space: pre;">bins</text></g><g class="g-ytitle"><text class="ytitle" transform="rotate(-90,42,331)" x="42" y="331" text-anchor="middle" data-unformatted="Frequency" data-math="N" style="font-family: &quot;Open Sans&quot;, verdana, arial, sans-serif; font-size: 14px; fill: rgb(68, 68, 68); opacity: 1; font-weight: normal; white-space: pre;">Frequency</text></g></g><g class="menulayer"></g><g class="zoomlayer"></g></svg><div class="modebar-container" style="position: absolute; top: 0px; right: 0px; width: 100%;"><div id="modebar-e16bd1" class="modebar modebar--hover ease-bg"><div class="modebar-group"><a rel="tooltip" class="modebar-btn" data-title="Download plot as a png" data-toggle="false" data-gravity="n"><svg viewBox="0 0 1000 1000" class="icon" height="1em" width="1em"><path d="m500 450c-83 0-150-67-150-150 0-83 67-150 150-150 83 0 150 67 150 150 0 83-67 150-150 150z m400 150h-120c-16 0-34 13-39 29l-31 93c-6 15-23 28-40 28h-340c-16 0-34-13-39-28l-31-94c-6-15-23-28-40-28h-120c-55 0-100-45-100-100v-450c0-55 45-100 100-100h800c55 0 100 45 100 100v450c0 55-45 100-100 100z m-400-550c-138 0-250 112-250 250 0 138 112 250 250 250 138 0 250-112 250-250 0-138-112-250-250-250z m365 380c-19 0-35 16-35 35 0 19 16 35 35 35 19 0 35-16 35-35 0-19-16-35-35-35z" transform="matrix(1 0 0 -1 0 850)"></path></svg></a></div><div class="modebar-group"><a rel="tooltip" class="modebar-btn active" data-title="Zoom" data-attr="dragmode" data-val="zoom" data-toggle="false" data-gravity="n"><svg viewBox="0 0 1000 1000" class="icon" height="1em" width="1em"><path d="m1000-25l-250 251c40 63 63 138 63 218 0 224-182 406-407 406-224 0-406-182-406-406s183-406 407-406c80 0 155 22 218 62l250-250 125 125z m-812 250l0 438 437 0 0-438-437 0z m62 375l313 0 0-312-313 0 0 312z" transform="matrix(1 0 0 -1 0 850)"></path></svg></a><a rel="tooltip" class="modebar-btn" data-title="Pan" data-attr="dragmode" data-val="pan" data-toggle="false" data-gravity="n"><svg viewBox="0 0 1000 1000" class="icon" height="1em" width="1em"><path d="m1000 350l-187 188 0-125-250 0 0 250 125 0-188 187-187-187 125 0 0-250-250 0 0 125-188-188 186-187 0 125 252 0 0-250-125 0 187-188 188 188-125 0 0 250 250 0 0-126 187 188z" transform="matrix(1 0 0 -1 0 850)"></path></svg></a><a rel="tooltip" class="modebar-btn" data-title="Box Select" data-attr="dragmode" data-val="select" data-toggle="false" data-gravity="n"><svg viewBox="0 0 1000 1000" class="icon" height="1em" width="1em"><path d="m0 850l0-143 143 0 0 143-143 0z m286 0l0-143 143 0 0 143-143 0z m285 0l0-143 143 0 0 143-143 0z m286 0l0-143 143 0 0 143-143 0z m-857-286l0-143 143 0 0 143-143 0z m857 0l0-143 143 0 0 143-143 0z m-857-285l0-143 143 0 0 143-143 0z m857 0l0-143 143 0 0 143-143 0z m-857-286l0-143 143 0 0 143-143 0z m286 0l0-143 143 0 0 143-143 0z m285 0l0-143 143 0 0 143-143 0z m286 0l0-143 143 0 0 143-143 0z" transform="matrix(1 0 0 -1 0 850)"></path></svg></a><a rel="tooltip" class="modebar-btn" data-title="Lasso Select" data-attr="dragmode" data-val="lasso" data-toggle="false" data-gravity="n"><svg viewBox="0 0 1031 1000" class="icon" height="1em" width="1em"><path d="m1018 538c-36 207-290 336-568 286-277-48-473-256-436-463 10-57 36-108 76-151-13-66 11-137 68-183 34-28 75-41 114-42l-55-70 0 0c-2-1-3-2-4-3-10-14-8-34 5-45 14-11 34-8 45 4 1 1 2 3 2 5l0 0 113 140c16 11 31 24 45 40 4 3 6 7 8 11 48-3 100 0 151 9 278 48 473 255 436 462z m-624-379c-80 14-149 48-197 96 42 42 109 47 156 9 33-26 47-66 41-105z m-187-74c-19 16-33 37-39 60 50-32 109-55 174-68-42-25-95-24-135 8z m360 75c-34-7-69-9-102-8 8 62-16 128-68 170-73 59-175 54-244-5-9 20-16 40-20 61-28 159 121 317 333 354s407-60 434-217c28-159-121-318-333-355z" transform="matrix(1 0 0 -1 0 850)"></path></svg></a></div><div class="modebar-group"><a rel="tooltip" class="modebar-btn" data-title="Zoom in" data-attr="zoom" data-val="in" data-toggle="false" data-gravity="n"><svg viewBox="0 0 875 1000" class="icon" height="1em" width="1em"><path d="m1 787l0-875 875 0 0 875-875 0z m687-500l-187 0 0-187-125 0 0 187-188 0 0 125 188 0 0 187 125 0 0-187 187 0 0-125z" transform="matrix(1 0 0 -1 0 850)"></path></svg></a><a rel="tooltip" class="modebar-btn" data-title="Zoom out" data-attr="zoom" data-val="out" data-toggle="false" data-gravity="n"><svg viewBox="0 0 875 1000" class="icon" height="1em" width="1em"><path d="m0 788l0-876 875 0 0 876-875 0z m688-500l-500 0 0 125 500 0 0-125z" transform="matrix(1 0 0 -1 0 850)"></path></svg></a><a rel="tooltip" class="modebar-btn" data-title="Autoscale" data-attr="zoom" data-val="auto" data-toggle="false" data-gravity="n"><svg viewBox="0 0 1000 1000" class="icon" height="1em" width="1em"><path d="m250 850l-187 0-63 0 0-62 0-188 63 0 0 188 187 0 0 62z m688 0l-188 0 0-62 188 0 0-188 62 0 0 188 0 62-62 0z m-875-938l0 188-63 0 0-188 0-62 63 0 187 0 0 62-187 0z m875 188l0-188-188 0 0-62 188 0 62 0 0 62 0 188-62 0z m-125 188l-1 0-93-94-156 156 156 156 92-93 2 0 0 250-250 0 0-2 93-92-156-156-156 156 94 92 0 2-250 0 0-250 0 0 93 93 157-156-157-156-93 94 0 0 0-250 250 0 0 0-94 93 156 157 156-157-93-93 0 0 250 0 0 250z" transform="matrix(1 0 0 -1 0 850)"></path></svg></a><a rel="tooltip" class="modebar-btn" data-title="Reset axes" data-attr="zoom" data-val="reset" data-toggle="false" data-gravity="n"><svg viewBox="0 0 928.6 1000" class="icon" height="1em" width="1em"><path d="m786 296v-267q0-15-11-26t-25-10h-214v214h-143v-214h-214q-15 0-25 10t-11 26v267q0 1 0 2t0 2l321 264 321-264q1-1 1-4z m124 39l-34-41q-5-5-12-6h-2q-7 0-12 3l-386 322-386-322q-7-4-13-4-7 2-12 7l-35 41q-4 5-3 13t6 12l401 334q18 15 42 15t43-15l136-114v109q0 8 5 13t13 5h107q8 0 13-5t5-13v-227l122-102q5-5 6-12t-4-13z" transform="matrix(1 0 0 -1 0 850)"></path></svg></a></div><div class="modebar-group"><a rel="tooltip" class="modebar-btn" data-title="Toggle Spike Lines" data-attr="_cartesianSpikesEnabled" data-val="on" data-toggle="false" data-gravity="n"><svg viewBox="0 0 1000 1000" class="icon" height="1em" width="1em"><path d="M512 409c0-57-46-104-103-104-57 0-104 47-104 104 0 57 47 103 104 103 57 0 103-46 103-103z m-327-39l92 0 0 92-92 0z m-185 0l92 0 0 92-92 0z m370-186l92 0 0 93-92 0z m0-184l92 0 0 92-92 0z" transform="matrix(1.5 0 0 -1.5 0 850)"></path></svg></a><a rel="tooltip" class="modebar-btn active" data-title="Show closest data on hover" data-attr="hovermode" data-val="closest" data-toggle="false" data-gravity="ne"><svg viewBox="0 0 1500 1000" class="icon" height="1em" width="1em"><path d="m375 725l0 0-375-375 375-374 0-1 1125 0 0 750-1125 0z" transform="matrix(1 0 0 -1 0 850)"></path></svg></a><a rel="tooltip" class="modebar-btn" data-title="Compare data on hover" data-attr="hovermode" data-val="x" data-toggle="false" data-gravity="ne"><svg viewBox="0 0 1125 1000" class="icon" height="1em" width="1em"><path d="m187 786l0 2-187-188 188-187 0 0 937 0 0 373-938 0z m0-499l0 1-187-188 188-188 0 0 937 0 0 376-938-1z" transform="matrix(1 0 0 -1 0 850)"></path></svg></a></div></div></div><svg class="main-svg" style="position: absolute" xmlns="http://www.w3.org/2000/svg" xmlns:xlink="http://www.w3.org/1999/xlink" width="904.225352112676" height="642"><g class="hoverlayer"></g></svg>