<svg class="main-svg" style="position: absolute" xmlns="http://www.w3.org/2000/svg" xmlns:xlink="http://www.w3.org/1999/xlink" width="904.225352112676" height="642" style="background: rgb(255, 255, 255);"><defs id="defs-1c1ba0"><g class="clips"><clipPath id="clip1c1ba0xyplot" class="plotclip"><rect width="710" height="462"></rect></clipPath><clipPath class="axesclip" id="clip1c1ba0x"><rect x="80" y="0" width="710" height="642"></rect></clipPath><clipPath class="axesclip" id="clip1c1ba0y"><rect x="0" y="100" width="904.225352112676" height="462"></rect></clipPath><clipPath class="axesclip" id="clip1c1ba0xy"><rect x="80" y="100" width="710" height="462"></rect></clipPath></g><g class="gradients"></g></defs><g class="bglayer"></g><g class="draglayer cursor-crosshair"><g class="xy"><rect class="nsewdrag drag" data-subplot="xy" x="80" y="100" width="710" height="462" style="fill: transparent; stroke-width: 0; pointer-events: all;"></rect><rect class="nwdrag drag cursor-nw-resize" data-subplot="xy" x="60" y="80" width="20" height="20" style="fill: transparent; stroke-width: 0; pointer-events: all;"></rect><rect class="nedrag drag cursor-ne-resize" data-subplot="xy" x="790" y="80" width="20" height="20" style="fill: transparent; stroke-width: 0; pointer-events: all;"></rect><rect class="swdrag drag cursor-sw-resize" data-subplot="xy" x="60" y="562" width="20" height="20" style="fill: transparent; stroke-width: 0; pointer-events: all;"></rect><rect class="sedrag drag cursor-se-resize" data-subplot="xy" x="790" y="562" width="20" height="20" style="fill: transparent; stroke-width: 0; pointer-events: all;"></rect><rect class="ewdrag drag cursor-ew-resize" data-subplot="xy" x="151" y="562.5" width="568" height="20" style="fill: transparent; stroke-width: 0; pointer-events: all;"></rect><rect class="wdrag drag cursor-w-resize" data-subplot="xy" x="80" y="562.5" width="71" height="20" style="fill: transparent; stroke-width: 0; pointer-events: all;"></rect><rect class="edrag drag cursor-e-resize" data-subplot="xy" x="719" y="562.5" width="71" height="20" style="fill: transparent; stroke-width: 0; pointer-events: all;"></rect><rect class="nsdrag drag cursor-ns-resize" data-subplot="xy" x="59.5" y="146.2" width="20" height="369.6" style="fill: transparent; stroke-width: 0; pointer-events: all;"></rect><rect class="sdrag drag cursor-s-resize" data-subplot="xy" x="59.5" y="515.8" width="20" height="46.2" style="fill: transparent; stroke-width: 0; pointer-events: all;"></rect><rect class="ndrag drag cursor-n-resize" data-subplot="xy" x="59.5" y="100" width="20" height="46.2" style="fill: transparent; stroke-width: 0; pointer-events: all;"></rect></g></g><g class="layer-below"><g class="imagelayer"></g><g class="shapelayer"></g></g><g class="cartesianlayer"><g class="subplot xy"><g class="layer-subplot"><g class="shapelayer"></g><g class="imagelayer"></g></g><g class="gridlayer"><g class="x"></g><g class="y"><path class="ygrid crisp" transform="translate(0,491.66)" d="M80,0h710" style="stroke: rgb(238, 238, 238); stroke-opacity: 1; stroke-width: 1px;"></path><path class="ygrid crisp" transform="translate(0,421.33)" d="M80,0h710" style="stroke: rgb(238, 238, 238); stroke-opacity: 1; stroke-width: 1px;"></path><path class="ygrid crisp" transform="translate(0,350.99)" d="M80,0h710" style="stroke: rgb(238, 238, 238); stroke-opacity: 1; stroke-width: 1px;"></path><path class="ygrid crisp" transform="translate(0,280.65)" d="M80,0h710" style="stroke: rgb(238, 238, 238); stroke-opacity: 1; stroke-width: 1px;"></path><path class="ygrid crisp" transform="translate(0,210.32)" d="M80,0h710" style="stroke: rgb(238, 238, 238); stroke-opacity: 1; stroke-width: 1px;"></path><path class="ygrid crisp" transform="translate(0,139.98)" d="M80,0h710" style="stroke: rgb(238, 238, 238); stroke-opacity: 1; stroke-width: 1px;"></path></g></g><g class="zerolinelayer"><path class="yzl zl crisp" transform="translate(0,562)" d="M80,0h710" style="stroke: rgb(68, 68, 68); stroke-opacity: 1; stroke-width: 1px;"></path></g><path class="xlines-below"></path><path class="ylines-below"></path><g class="overlines-below"></g><g class="xaxislayer-below"></g><g class="yaxislayer-below"></g><g class="overaxes-below"></g><g class="plot" transform="translate(80,100)" clip-path="url('#clip1c1ba0xyplot')"><g class="barlayer mlayer"><g class="trace bars" style="opacity: 1;"><g class="points"><g class="point"><path d="M2.29,462V456.37H11.45V462Z" style="vector-effect: non-scaling-stroke; opacity: 1; stroke-width: 0px; fill: rgb(255, 102, 102); fill-opacity: 1;"></path></g><g class="point"><path d="M25.19,462V298.82H34.35V462Z" style="vector-effect: non-scaling-stroke; opacity: 1; stroke-width: 0px; fill: rgb(255, 102, 102); fill-opacity: 1;"></path></g><g class="point"><path d="M48.1,462V374.78H57.26V462Z" style="vector-effect: non-scaling-stroke; opacity: 1; stroke-width: 0px; fill: rgb(255, 102, 102); fill-opacity: 1;"></path></g><g class="point"><path d="M71,462V346.65H80.16V462Z" style="vector-effect: non-scaling-stroke; opacity: 1; stroke-width: 0px; fill: rgb(255, 102, 102); fill-opacity: 1;"></path></g><g class="point"><path d="M93.9,462V35.76H103.06V462Z" style="vector-effect: non-scaling-stroke; opacity: 1; stroke-width: 0px; fill: rgb(255, 102, 102); fill-opacity: 1;"></path></g><g class="point"><path d="M116.81,462V76.56H125.97V462Z" style="vector-effect: non-scaling-stroke; opacity: 1; stroke-width: 0px; fill: rgb(255, 102, 102); fill-opacity: 1;"></path></g><g class="point"><path d="M139.71,462V404.32H148.87V462Z" style="vector-effect: non-scaling-stroke; opacity: 1; stroke-width: 0px; fill: rgb(255, 102, 102); fill-opacity: 1;"></path></g><g class="point"><path d="M162.61,462V153.93H171.77V462Z" style="vector-effect: non-scaling-stroke; opacity: 1; stroke-width: 0px; fill: rgb(255, 102, 102); fill-opacity: 1;"></path></g><g class="point"><path d="M185.52,462V445.12H194.68V462Z" style="vector-effect: non-scaling-stroke; opacity: 1; stroke-width: 0px; fill: rgb(255, 102, 102); fill-opacity: 1;"></path></g><g class="point"><path d="M208.42,462V398.7H217.58V462Z" style="vector-effect: non-scaling-stroke; opacity: 1; stroke-width: 0px; fill: rgb(255, 102, 102); fill-opacity: 1;"></path></g><g class="point"><path d="M231.32,462V151.11H240.48V462Z" style="vector-effect: non-scaling-stroke; opacity: 1; stroke-width: 0px; fill: rgb(255, 102, 102); fill-opacity: 1;"></path></g><g class="point"><path d="M254.23,462V353.68H263.39V462Z" style="vector-effect: non-scaling-stroke; opacity: 1; stroke-width: 0px; fill: rgb(255, 102, 102); fill-opacity: 1;"></path></g><g class="point"><path d="M277.13,462V371.97H286.29V462Z" style="vector-effect: non-scaling-stroke; opacity: 1; stroke-width: 0px; fill: rgb(255, 102, 102); fill-opacity: 1;"></path></g><g class="point"><path d="M300.03,462V443.71H309.19V462Z" style="vector-effect: non-scaling-stroke; opacity: 1; stroke-width: 0px; fill: rgb(255, 102, 102); fill-opacity: 1;"></path></g><g class="point"><path d="M322.94,462V454.97H332.1V462Z" style="vector-effect: non-scaling-stroke; opacity: 1; stroke-width: 0px; fill: rgb(255, 102, 102); fill-opacity: 1;"></path></g><g class="point"><path d="M345.84,462V443.71H355V462Z" style="vector-effect: non-scaling-stroke; opacity: 1; stroke-width: 0px; fill: rgb(255, 102, 102); fill-opacity: 1;"></path></g><g class="point"><path d="M368.74,462V45.61H377.9V462Z" style="vector-effect: non-scaling-stroke; opacity: 1; stroke-width: 0px; fill: rgb(255, 102, 102); fill-opacity: 1;"></path></g><g class="point"><path d="M391.65,462V345.24H400.81V462Z" style="vector-effect: non-scaling-stroke; opacity: 1; stroke-width: 0px; fill: rgb(255, 102, 102); fill-opacity: 1;"></path></g><g class="point"><path d="M414.55,462V367.75H423.71V462Z" style="vector-effect: non-scaling-stroke; opacity: 1; stroke-width: 0px; fill: rgb(255, 102, 102); fill-opacity: 1;"></path></g><g class="point"><path d="M437.45,462V321.33H446.61V462Z" style="vector-effect: non-scaling-stroke; opacity: 1; stroke-width: 0px; fill: rgb(255, 102, 102); fill-opacity: 1;"></path></g><g class="point"><path d="M460.35,462V449.34H469.52V462Z" style="vector-effect: non-scaling-stroke; opacity: 1; stroke-width: 0px; fill: rgb(255, 102, 102); fill-opacity: 1;"></path></g><g class="point"><path d="M483.26,462V139.86H492.42V462Z" style="vector-effect: non-scaling-stroke; opacity: 1; stroke-width: 0px; fill: rgb(255, 102, 102); fill-opacity: 1;"></path></g><g class="point"><path d="M506.16,462V82.18H515.32V462Z" style="vector-effect: non-scaling-stroke; opacity: 1; stroke-width: 0px; fill: rgb(255, 102, 102); fill-opacity: 1;"></path></g><g class="point"><path d="M529.06,462V418.39H538.23V462Z" style="vector-effect: non-scaling-stroke; opacity: 1; stroke-width: 0px; fill: rgb(255, 102, 102); fill-opacity: 1;"></path></g><g class="point"><path d="M551.97,462V433.87H561.13V462Z" style="vector-effect: non-scaling-stroke; opacity: 1; stroke-width: 0px; fill: rgb(255, 102, 102); fill-opacity: 1;"></path></g><g class="point"><path d="M574.87,462V23.1H584.03V462Z" style="vector-effect: non-scaling-stroke; opacity: 1; stroke-width: 0px; fill: rgb(255, 102, 102); fill-opacity: 1;"></path></g><g class="point"><path d="M597.77,462V393.07H606.94V462Z" style="vector-effect: non-scaling-stroke; opacity: 1; stroke-width: 0px; fill: rgb(255, 102, 102); fill-opacity: 1;"></path></g><g class="point"><path d="M620.68,462V198.94H629.84V462Z" style="vector-effect: non-scaling-stroke; opacity: 1; stroke-width: 0px; fill: rgb(255, 102, 102); fill-opacity: 1;"></path></g><g class="point"><path d="M643.58,462V439.49H652.74V462Z" style="vector-effect: non-scaling-stroke; opacity: 1; stroke-width: 0px; fill: rgb(255, 102, 102); fill-opacity: 1;"></path></g><g class="point"><path d="M666.48,462V371.97H675.65V462Z" style="vector-effect: non-scaling-stroke; opacity: 1; stroke-width: 0px; fill: rgb(255, 102, 102); fill-opacity: 1;"></path></g><g class="point"><path d="M689.39,462V404.32H698.55V462Z" style="vector-effect: non-scaling-stroke; opacity: 1; stroke-width: 0px; fill: rgb(255, 102, 102); fill-opacity: 1;"></path></g></g></g><g class="trace bars" style="opacity: 1;"><g class="points"><g class="point"><path d="M11.45,462V412.76H20.61V462Z" style="vector-effect: non-scaling-stroke; opacity: 1; stroke-width: 0px; fill: rgb(68, 68, 68); fill-opacity: 1;"></path></g><g class="point"><path d="M34.35,462V338.21H43.52V462Z" style="vector-effect: non-scaling-stroke; opacity: 1; stroke-width: 0px; fill: rgb(68, 68, 68); fill-opacity: 1;"></path></g><g class="point"><path d="M57.26,462V426.83H66.42V462Z" style="vector-effect: non-scaling-stroke; opacity: 1; stroke-width: 0px; fill: rgb(68, 68, 68); fill-opacity: 1;"></path></g><g class="point"><path d="M80.16,462V436.68H89.32V462Z" style="vector-effect: non-scaling-stroke; opacity: 1; stroke-width: 0px; fill: rgb(68, 68, 68); fill-opacity: 1;"></path></g><g class="point"><path d="M103.06,462V453.56H112.23V462Z" style="vector-effect: non-scaling-stroke; opacity: 1; stroke-width: 0px; fill: rgb(68, 68, 68); fill-opacity: 1;"></path></g><g class="point"><path d="M125.97,462V333.99H135.13V462Z" style="vector-effect: non-scaling-stroke; opacity: 1; stroke-width: 0px; fill: rgb(68, 68, 68); fill-opacity: 1;"></path></g><g class="point"><path d="M148.87,462V459.19H158.03V462Z" style="vector-effect: non-scaling-stroke; opacity: 1; stroke-width: 0px; fill: rgb(68, 68, 68); fill-opacity: 1;"></path></g><g class="point"><path d="M171.77,462V341.02H180.94V462Z" style="vector-effect: non-scaling-stroke; opacity: 1; stroke-width: 0px; fill: rgb(68, 68, 68); fill-opacity: 1;"></path></g><g class="point"><path d="M194.68,462V459.19H203.84V462Z" style="vector-effect: non-scaling-stroke; opacity: 1; stroke-width: 0px; fill: rgb(68, 68, 68); fill-opacity: 1;"></path></g><g class="point"><path d="M217.58,462V352.28H226.74V462Z" style="vector-effect: non-scaling-stroke; opacity: 1; stroke-width: 0px; fill: rgb(68, 68, 68); fill-opacity: 1;"></path></g><g class="point"><path d="M240.48,462V250.99H249.65V462Z" style="vector-effect: non-scaling-stroke; opacity: 1; stroke-width: 0px; fill: rgb(68, 68, 68); fill-opacity: 1;"></path></g><g class="point"><path d="M263.39,462V204.57H272.55V462Z" style="vector-effect: non-scaling-stroke; opacity: 1; stroke-width: 0px; fill: rgb(68, 68, 68); fill-opacity: 1;"></path></g><g class="point"><path d="M286.29,462V243.96H295.45V462Z" style="vector-effect: non-scaling-stroke; opacity: 1; stroke-width: 0px; fill: rgb(68, 68, 68); fill-opacity: 1;"></path></g><g class="point"><path d="M309.19,462V462H318.35V462Z" style="vector-effect: non-scaling-stroke; opacity: 1; stroke-width: 0px; fill: rgb(68, 68, 68); fill-opacity: 1;"></path></g><g class="point"><path d="M332.1,462V459.19H341.26V462Z" style="vector-effect: non-scaling-stroke; opacity: 1; stroke-width: 0px; fill: rgb(68, 68, 68); fill-opacity: 1;"></path></g><g class="point"><path d="M355,462V456.37H364.16V462Z" style="vector-effect: non-scaling-stroke; opacity: 1; stroke-width: 0px; fill: rgb(68, 68, 68); fill-opacity: 1;"></path></g><g class="point"><path d="M377.9,462V245.36H387.06V462Z" style="vector-effect: non-scaling-stroke; opacity: 1; stroke-width: 0px; fill: rgb(68, 68, 68); fill-opacity: 1;"></path></g><g class="point"><path d="M400.81,462V249.58H409.97V462Z" style="vector-effect: non-scaling-stroke; opacity: 1; stroke-width: 0px; fill: rgb(68, 68, 68); fill-opacity: 1;"></path></g><g class="point"><path d="M423.71,462V457.78H432.87V462Z" style="vector-effect: non-scaling-stroke; opacity: 1; stroke-width: 0px; fill: rgb(68, 68, 68); fill-opacity: 1;"></path></g><g class="point"><path d="M446.61,462V456.37H455.77V462Z" style="vector-effect: non-scaling-stroke; opacity: 1; stroke-width: 0px; fill: rgb(68, 68, 68); fill-opacity: 1;"></path></g><g class="point"><path d="M469.52,462V429.65H478.68V462Z" style="vector-effect: non-scaling-stroke; opacity: 1; stroke-width: 0px; fill: rgb(68, 68, 68); fill-opacity: 1;"></path></g><g class="point"><path d="M492.42,462V117.35H501.58V462Z" style="vector-effect: non-scaling-stroke; opacity: 1; stroke-width: 0px; fill: rgb(68, 68, 68); fill-opacity: 1;"></path></g><g class="point"><path d="M515.32,462V326.95H524.48V462Z" style="vector-effect: non-scaling-stroke; opacity: 1; stroke-width: 0px; fill: rgb(68, 68, 68); fill-opacity: 1;"></path></g><g class="point"><path d="M538.23,462V221.45H547.39V462Z" style="vector-effect: non-scaling-stroke; opacity: 1; stroke-width: 0px; fill: rgb(68, 68, 68); fill-opacity: 1;"></path></g><g class="point"><path d="M561.13,462V443.71H570.29V462Z" style="vector-effect: non-scaling-stroke; opacity: 1; stroke-width: 0px; fill: rgb(68, 68, 68); fill-opacity: 1;"></path></g><g class="point"><path d="M584.03,462V383.22H593.19V462Z" style="vector-effect: non-scaling-stroke; opacity: 1; stroke-width: 0px; fill: rgb(68, 68, 68); fill-opacity: 1;"></path></g><g class="point"><path d="M606.94,462V454.97H616.1V462Z" style="vector-effect: non-scaling-stroke; opacity: 1; stroke-width: 0px; fill: rgb(68, 68, 68); fill-opacity: 1;"></path></g><g class="point"><path d="M629.84,462V386.04H639V462Z" style="vector-effect: non-scaling-stroke; opacity: 1; stroke-width: 0px; fill: rgb(68, 68, 68); fill-opacity: 1;"></path></g><g class="point"><path d="M652.74,462V459.19H661.9V462Z" style="vector-effect: non-scaling-stroke; opacity: 1; stroke-width: 0px; fill: rgb(68, 68, 68); fill-opacity: 1;"></path></g><g class="point"><path d="M675.65,462V450.75H684.81V462Z" style="vector-effect: non-scaling-stroke; opacity: 1; stroke-width: 0px; fill: rgb(68, 68, 68); fill-opacity: 1;"></path></g><g class="point"><path d="M698.55,462V452.15H707.71V462Z" style="vector-effect: non-scaling-stroke; opacity: 1; stroke-width: 0px; fill: rgb(68, 68, 68); fill-opacity: 1;"></path></g></g></g></g></g><g class="overplot"></g><path class="xlines-above crisp" d="M0,0" style="fill: none;"></path><path class="ylines-above crisp" style="fill: none;" d="M0,0"></path><g class="overlines-above"></g><g class="xaxislayer-above"><g class="xtick"><text text-anchor="end" x="0" y="577" data-unformatted="ACC" data-math="N" transform="translate(91.45,0) rotate(-45,0,570)" style="font-family: Arial; font-size: 14px; fill: rgb(68, 68, 68); fill-opacity: 1; white-space: pre;">ACC</text></g><g class="xtick"><text text-anchor="end" x="0" y="577" data-unformatted="BLCA" data-math="N" transform="translate(114.35,0) rotate(-45,0,570)" style="font-family: Arial; font-size: 14px; fill: rgb(68, 68, 68); fill-opacity: 1; white-space: pre;">BLCA</text></g><g class="xtick"><text text-anchor="end" x="0" y="577" data-unformatted="BRCA" data-math="N" transform="translate(137.26,0) rotate(-45,0,570)" style="font-family: Arial; font-size: 14px; fill: rgb(68, 68, 68); fill-opacity: 1; white-space: pre;">BRCA</text></g><g class="xtick"><text text-anchor="end" x="0" y="577" data-unformatted="CESC" data-math="N" transform="translate(160.16,0) rotate(-45,0,570)" style="font-family: Arial; font-size: 14px; fill: rgb(68, 68, 68); fill-opacity: 1; white-space: pre;">CESC</text></g><g class="xtick"><text text-anchor="end" x="0" y="577" data-unformatted="CHOL" data-math="N" transform="translate(183.06,0) rotate(-45,0,570)" style="font-family: Arial; font-size: 14px; fill: rgb(68, 68, 68); fill-opacity: 1; white-space: pre;">CHOL</text></g><g class="xtick"><text text-anchor="end" x="0" y="577" data-unformatted="COAD" data-math="N" transform="translate(205.97,0) rotate(-45,0,570)" style="font-family: Arial; font-size: 14px; fill: rgb(68, 68, 68); fill-opacity: 1; white-space: pre;">COAD</text></g><g class="xtick"><text text-anchor="end" x="0" y="577" data-unformatted="DLBC" data-math="N" transform="translate(228.87,0) rotate(-45,0,570)" style="font-family: Arial; font-size: 14px; fill: rgb(68, 68, 68); fill-opacity: 1; white-space: pre;">DLBC</text></g><g class="xtick"><text text-anchor="end" x="0" y="577" data-unformatted="ESCA" data-math="N" transform="translate(251.77,0) rotate(-45,0,570)" style="font-family: Arial; font-size: 14px; fill: rgb(68, 68, 68); fill-opacity: 1; white-space: pre;">ESCA</text></g><g class="xtick"><text text-anchor="end" x="0" y="577" data-unformatted="GBM" data-math="N" transform="translate(274.68,0) rotate(-45,0,570)" style="font-family: Arial; font-size: 14px; fill: rgb(68, 68, 68); fill-opacity: 1; white-space: pre;">GBM</text></g><g class="xtick"><text text-anchor="end" x="0" y="577" data-unformatted="HNSC" data-math="N" transform="translate(297.58000000000004,0) rotate(-45,0,570)" style="font-family: Arial; font-size: 14px; fill: rgb(68, 68, 68); fill-opacity: 1; white-space: pre;">HNSC</text></g><g class="xtick"><text text-anchor="end" x="0" y="577" data-unformatted="KICH" data-math="N" transform="translate(320.48,0) rotate(-45,0,570)" style="font-family: Arial; font-size: 14px; fill: rgb(68, 68, 68); fill-opacity: 1; white-space: pre;">KICH</text></g><g class="xtick"><text text-anchor="end" x="0" y="577" data-unformatted="KIRC" data-math="N" transform="translate(343.39,0) rotate(-45,0,570)" style="font-family: Arial; font-size: 14px; fill: rgb(68, 68, 68); fill-opacity: 1; white-space: pre;">KIRC</text></g><g class="xtick"><text text-anchor="end" x="0" y="577" data-unformatted="KIRP" data-math="N" transform="translate(366.29,0) rotate(-45,0,570)" style="font-family: Arial; font-size: 14px; fill: rgb(68, 68, 68); fill-opacity: 1; white-space: pre;">KIRP</text></g><g class="xtick"><text text-anchor="end" x="0" y="577" data-unformatted="LAML" data-math="N" transform="translate(389.19,0) rotate(-45,0,570)" style="font-family: Arial; font-size: 14px; fill: rgb(68, 68, 68); fill-opacity: 1; white-space: pre;">LAML</text></g><g class="xtick"><text text-anchor="end" x="0" y="577" data-unformatted="LGG" data-math="N" transform="translate(412.1,0) rotate(-45,0,570)" style="font-family: Arial; font-size: 14px; fill: rgb(68, 68, 68); fill-opacity: 1; white-space: pre;">LGG</text></g><g class="xtick"><text text-anchor="end" x="0" y="577" data-unformatted="LIHC" data-math="N" transform="translate(435,0) rotate(-45,0,570)" style="font-family: Arial; font-size: 14px; fill: rgb(68, 68, 68); fill-opacity: 1; white-space: pre;">LIHC</text></g><g class="xtick"><text text-anchor="end" x="0" y="577" data-unformatted="LUAD" data-math="N" transform="translate(457.9,0) rotate(-45,0,570)" style="font-family: Arial; font-size: 14px; fill: rgb(68, 68, 68); fill-opacity: 1; white-space: pre;">LUAD</text></g><g class="xtick"><text text-anchor="end" x="0" y="577" data-unformatted="LUSC" data-math="N" transform="translate(480.81,0) rotate(-45,0,570)" style="font-family: Arial; font-size: 14px; fill: rgb(68, 68, 68); fill-opacity: 1; white-space: pre;">LUSC</text></g><g class="xtick"><text text-anchor="end" x="0" y="577" data-unformatted="OV" data-math="N" transform="translate(503.71,0) rotate(-45,0,570)" style="font-family: Arial; font-size: 14px; fill: rgb(68, 68, 68); fill-opacity: 1; white-space: pre;">OV</text></g><g class="xtick"><text text-anchor="end" x="0" y="577" data-unformatted="PAAD" data-math="N" transform="translate(526.61,0) rotate(-45,0,570)" style="font-family: Arial; font-size: 14px; fill: rgb(68, 68, 68); fill-opacity: 1; white-space: pre;">PAAD</text></g><g class="xtick"><text text-anchor="end" x="0" y="577" data-unformatted="PCPG" data-math="N" transform="translate(549.52,0) rotate(-45,0,570)" style="font-family: Arial; font-size: 14px; fill: rgb(68, 68, 68); fill-opacity: 1; white-space: pre;">PCPG</text></g><g class="xtick"><text text-anchor="end" x="0" y="577" data-unformatted="PRAD" data-math="N" transform="translate(572.4200000000001,0) rotate(-45,0,570)" style="font-family: Arial; font-size: 14px; fill: rgb(68, 68, 68); fill-opacity: 1; white-space: pre;">PRAD</text></g><g class="xtick"><text text-anchor="end" x="0" y="577" data-unformatted="READ" data-math="N" transform="translate(595.32,0) rotate(-45,0,570)" style="font-family: Arial; font-size: 14px; fill: rgb(68, 68, 68); fill-opacity: 1; white-space: pre;">READ</text></g><g class="xtick"><text text-anchor="end" x="0" y="577" data-unformatted="SARC" data-math="N" transform="translate(618.23,0) rotate(-45,0,570)" style="font-family: Arial; font-size: 14px; fill: rgb(68, 68, 68); fill-opacity: 1; white-space: pre;">SARC</text></g><g class="xtick"><text text-anchor="end" x="0" y="577" data-unformatted="SKCM" data-math="N" transform="translate(641.13,0) rotate(-45,0,570)" style="font-family: Arial; font-size: 14px; fill: rgb(68, 68, 68); fill-opacity: 1; white-space: pre;">SKCM</text></g><g class="xtick"><text text-anchor="end" x="0" y="577" data-unformatted="STAD" data-math="N" transform="translate(664.03,0) rotate(-45,0,570)" style="font-family: Arial; font-size: 14px; fill: rgb(68, 68, 68); fill-opacity: 1; white-space: pre;">STAD</text></g><g class="xtick"><text text-anchor="end" x="0" y="577" data-unformatted="TGCT" data-math="N" transform="translate(686.94,0) rotate(-45,0,570)" style="font-family: Arial; font-size: 14px; fill: rgb(68, 68, 68); fill-opacity: 1; white-space: pre;">TGCT</text></g><g class="xtick"><text text-anchor="end" x="0" y="577" data-unformatted="THCA" data-math="N" transform="translate(709.84,0) rotate(-45,0,570)" style="font-family: Arial; font-size: 14px; fill: rgb(68, 68, 68); fill-opacity: 1; white-space: pre;">THCA</text></g><g class="xtick"><text text-anchor="end" x="0" y="577" data-unformatted="THYM" data-math="N" transform="translate(732.74,0) rotate(-45,0,570)" style="font-family: Arial; font-size: 14px; fill: rgb(68, 68, 68); fill-opacity: 1; white-space: pre;">THYM</text></g><g class="xtick"><text text-anchor="end" x="0" y="577" data-unformatted="UCEC" data-math="N" transform="translate(755.65,0) rotate(-45,0,570)" style="font-family: Arial; font-size: 14px; fill: rgb(68, 68, 68); fill-opacity: 1; white-space: pre;">UCEC</text></g><g class="xtick"><text text-anchor="end" x="0" y="577" data-unformatted="UCS" data-math="N" transform="translate(778.55,0) rotate(-45,0,570)" style="font-family: Arial; font-size: 14px; fill: rgb(68, 68, 68); fill-opacity: 1; white-space: pre;">UCS</text></g></g><g class="yaxislayer-above"><g class="ytick"><text text-anchor="end" x="79" y="4.199999999999999" data-unformatted="0" data-math="N" transform="translate(0,562)" style="font-family: &quot;Open Sans&quot;, verdana, arial, sans-serif; font-size: 12px; fill: rgb(68, 68, 68); fill-opacity: 1; white-space: pre;">0</text></g><g class="ytick"><text text-anchor="end" x="79" y="4.199999999999999" data-unformatted="0.5" data-math="N" transform="translate(0,491.66)" style="font-family: &quot;Open Sans&quot;, verdana, arial, sans-serif; font-size: 12px; fill: rgb(68, 68, 68); fill-opacity: 1; white-space: pre;">0.5</text></g><g class="ytick"><text text-anchor="end" x="79" y="4.199999999999999" data-unformatted="1" data-math="N" transform="translate(0,421.33)" style="font-family: &quot;Open Sans&quot;, verdana, arial, sans-serif; font-size: 12px; fill: rgb(68, 68, 68); fill-opacity: 1; white-space: pre;">1</text></g><g class="ytick"><text text-anchor="end" x="79" y="4.199999999999999" data-unformatted="1.5" data-math="N" transform="translate(0,350.99)" style="font-family: &quot;Open Sans&quot;, verdana, arial, sans-serif; font-size: 12px; fill: rgb(68, 68, 68); fill-opacity: 1; white-space: pre;">1.5</text></g><g class="ytick"><text text-anchor="end" x="79" y="4.199999999999999" data-unformatted="2" data-math="N" transform="translate(0,280.65)" style="font-family: &quot;Open Sans&quot;, verdana, arial, sans-serif; font-size: 12px; fill: rgb(68, 68, 68); fill-opacity: 1; white-space: pre;">2</text></g><g class="ytick"><text text-anchor="end" x="79" y="4.199999999999999" data-unformatted="2.5" data-math="N" transform="translate(0,210.32)" style="font-family: &quot;Open Sans&quot;, verdana, arial, sans-serif; font-size: 12px; fill: rgb(68, 68, 68); fill-opacity: 1; white-space: pre;">2.5</text></g><g class="ytick"><text text-anchor="end" x="79" y="4.199999999999999" data-unformatted="3" data-math="N" transform="translate(0,139.98)" style="font-family: &quot;Open Sans&quot;, verdana, arial, sans-serif; font-size: 12px; fill: rgb(68, 68, 68); fill-opacity: 1; white-space: pre;">3</text></g></g><g class="overaxes-above"></g></g></g><g class="polarlayer"></g><g class="ternarylayer"></g><g class="geolayer"></g><g class="funnelarealayer"></g><g class="pielayer"></g><g class="treemaplayer"></g><g class="sunburstlayer"></g><g class="glimages"></g></svg><div class="gl-container"></div><svg class="main-svg" style="position: absolute" xmlns="http://www.w3.org/2000/svg" xmlns:xlink="http://www.w3.org/1999/xlink" width="904.225352112676" height="642"><defs id="topdefs-1c1ba0"><g class="clips"></g><clipPath id="legend1c1ba0"><rect width="88" height="48" x="0" y="0"></rect></clipPath></defs><g class="indicatorlayer"></g><g class="layer-above"><g class="imagelayer"></g><g class="shapelayer"></g></g><g class="infolayer"><g class="legend" pointer-events="all" transform="translate(804.2,100)"><rect class="bg" shape-rendering="crispEdges" style="stroke: rgb(68, 68, 68); stroke-opacity: 1; fill: rgb(255, 255, 255); fill-opacity: 1; stroke-width: 0px;" width="88" height="48" x="0" y="0"></rect><g class="scrollbox" transform="" clip-path="url('#legend1c1ba0')"><g class="groups"><g class="traces" transform="translate(0,14.5)" style="opacity: 1;"><text class="legendtext" text-anchor="start" x="40" y="4.680000000000001" data-unformatted="Tumor" data-math="N" style="font-family: &quot;Open Sans&quot;, verdana, arial, sans-serif; font-size: 12px; fill: rgb(68, 68, 68); fill-opacity: 1; white-space: pre;">Tumor</text><g class="layers" style="opacity: 1;"><g class="legendfill"></g><g class="legendlines"></g><g class="legendsymbols"><g class="legendpoints"><path class="legendundefined" d="M6,6H-6V-6H6Z" transform="translate(20,0)" style="stroke-width: 0px; fill: rgb(255, 102, 102); fill-opacity: 1;"></path></g></g></g><rect class="legendtoggle" pointer-events="all" x="0" y="-9.5" width="82.078125" height="19" style="cursor: pointer; fill: rgb(0, 0, 0); fill-opacity: 0;"></rect></g><g class="traces" style="opacity: 1;" transform="translate(0,33.5)"><text class="legendtext" text-anchor="start" x="40" y="4.680000000000001" data-unformatted="Normal" data-math="N" style="font-family: &quot;Open Sans&quot;, verdana, arial, sans-serif; font-size: 12px; fill: rgb(68, 68, 68); fill-opacity: 1; white-space: pre;">Normal</text><g class="layers" style="opacity: 1;"><g class="legendfill"></g><g class="legendlines"></g><g class="legendsymbols"><g class="legendpoints"><path class="legendundefined" d="M6,6H-6V-6H6Z" transform="translate(20,0)" style="stroke-width: 0px; fill: rgb(68, 68, 68); fill-opacity: 1;"></path></g></g></g><rect class="legendtoggle" pointer-events="all" x="0" y="-9.5" width="82.078125" height="19" style="cursor: pointer; fill: rgb(0, 0, 0); fill-opacity: 0;"></rect></g></g></g><rect class="scrollbar" rx="20" ry="3" width="0" height="0" style="fill: rgb(128, 139, 164); fill-opacity: 1;" x="0" y="0"></rect></g><g class="g-gtitle"></g><g class="g-xtitle"></g><g class="g-ytitle"></g></g><g class="menulayer"></g><g class="zoomlayer"></g></svg><div class="modebar-container" style="position: absolute; top: 0px; right: 0px; width: 100%;"><div id="modebar-1c1ba0" class="modebar modebar--hover ease-bg"><div class="modebar-group"><a rel="tooltip" class="modebar-btn" data-title="Download plot as a png" data-toggle="false" data-gravity="n"><svg viewBox="0 0 1000 1000" class="icon" height="1em" width="1em"><path d="m500 450c-83 0-150-67-150-150 0-83 67-150 150-150 83 0 150 67 150 150 0 83-67 150-150 150z m400 150h-120c-16 0-34 13-39 29l-31 93c-6 15-23 28-40 28h-340c-16 0-34-13-39-28l-31-94c-6-15-23-28-40-28h-120c-55 0-100-45-100-100v-450c0-55 45-100 100-100h800c55 0 100 45 100 100v450c0 55-45 100-100 100z m-400-550c-138 0-250 112-250 250 0 138 112 250 250 250 138 0 250-112 250-250 0-138-112-250-250-250z m365 380c-19 0-35 16-35 35 0 19 16 35 35 35 19 0 35-16 35-35 0-19-16-35-35-35z" transform="matrix(1 0 0 -1 0 850)"></path></svg></a></div><div class="modebar-group"><a rel="tooltip" class="modebar-btn active" data-title="Zoom" data-attr="dragmode" data-val="zoom" data-toggle="false" data-gravity="n"><svg viewBox="0 0 1000 1000" class="icon" height="1em" width="1em"><path d="m1000-25l-250 251c40 63 63 138 63 218 0 224-182 406-407 406-224 0-406-182-406-406s183-406 407-406c80 0 155 22 218 62l250-250 125 125z m-812 250l0 438 437 0 0-438-437 0z m62 375l313 0 0-312-313 0 0 312z" transform="matrix(1 0 0 -1 0 850)"></path></svg></a><a rel="tooltip" class="modebar-btn" data-title="Pan" data-attr="dragmode" data-val="pan" data-toggle="false" data-gravity="n"><svg viewBox="0 0 1000 1000" class="icon" height="1em" width="1em"><path d="m1000 350l-187 188 0-125-250 0 0 250 125 0-188 187-187-187 125 0 0-250-250 0 0 125-188-188 186-187 0 125 252 0 0-250-125 0 187-188 188 188-125 0 0 250 250 0 0-126 187 188z" transform="matrix(1 0 0 -1 0 850)"></path></svg></a><a rel="tooltip" class="modebar-btn" data-title="Box Select" data-attr="dragmode" data-val="select" data-toggle="false" data-gravity="n"><svg viewBox="0 0 1000 1000" class="icon" height="1em" width="1em"><path d="m0 850l0-143 143 0 0 143-143 0z m286 0l0-143 143 0 0 143-143 0z m285 0l0-143 143 0 0 143-143 0z m286 0l0-143 143 0 0 143-143 0z m-857-286l0-143 143 0 0 143-143 0z m857 0l0-143 143 0 0 143-143 0z m-857-285l0-143 143 0 0 143-143 0z m857 0l0-143 143 0 0 143-143 0z m-857-286l0-143 143 0 0 143-143 0z m286 0l0-143 143 0 0 143-143 0z m285 0l0-143 143 0 0 143-143 0z m286 0l0-143 143 0 0 143-143 0z" transform="matrix(1 0 0 -1 0 850)"></path></svg></a><a rel="tooltip" class="modebar-btn" data-title="Lasso Select" data-attr="dragmode" data-val="lasso" data-toggle="false" data-gravity="n"><svg viewBox="0 0 1031 1000" class="icon" height="1em" width="1em"><path d="m1018 538c-36 207-290 336-568 286-277-48-473-256-436-463 10-57 36-108 76-151-13-66 11-137 68-183 34-28 75-41 114-42l-55-70 0 0c-2-1-3-2-4-3-10-14-8-34 5-45 14-11 34-8 45 4 1 1 2 3 2 5l0 0 113 140c16 11 31 24 45 40 4 3 6 7 8 11 48-3 100 0 151 9 278 48 473 255 436 462z m-624-379c-80 14-149 48-197 96 42 42 109 47 156 9 33-26 47-66 41-105z m-187-74c-19 16-33 37-39 60 50-32 109-55 174-68-42-25-95-24-135 8z m360 75c-34-7-69-9-102-8 8 62-16 128-68 170-73 59-175 54-244-5-9 20-16 40-20 61-28 159 121 317 333 354s407-60 434-217c28-159-121-318-333-355z" transform="matrix(1 0 0 -1 0 850)"></path></svg></a></div><div class="modebar-group"><a rel="tooltip" class="modebar-btn" data-title="Zoom in" data-attr="zoom" data-val="in" data-toggle="false" data-gravity="n"><svg viewBox="0 0 875 1000" class="icon" height="1em" width="1em"><path d="m1 787l0-875 875 0 0 875-875 0z m687-500l-187 0 0-187-125 0 0 187-188 0 0 125 188 0 0 187 125 0 0-187 187 0 0-125z" transform="matrix(1 0 0 -1 0 850)"></path></svg></a><a rel="tooltip" class="modebar-btn" data-title="Zoom out" data-attr="zoom" data-val="out" data-toggle="false" data-gravity="n"><svg viewBox="0 0 875 1000" class="icon" height="1em" width="1em"><path d="m0 788l0-876 875 0 0 876-875 0z m688-500l-500 0 0 125 500 0 0-125z" transform="matrix(1 0 0 -1 0 850)"></path></svg></a><a rel="tooltip" class="modebar-btn" data-title="Autoscale" data-attr="zoom" data-val="auto" data-toggle="false" data-gravity="n"><svg viewBox="0 0 1000 1000" class="icon" height="1em" width="1em"><path d="m250 850l-187 0-63 0 0-62 0-188 63 0 0 188 187 0 0 62z m688 0l-188 0 0-62 188 0 0-188 62 0 0 188 0 62-62 0z m-875-938l0 188-63 0 0-188 0-62 63 0 187 0 0 62-187 0z m875 188l0-188-188 0 0-62 188 0 62 0 0 62 0 188-62 0z m-125 188l-1 0-93-94-156 156 156 156 92-93 2 0 0 250-250 0 0-2 93-92-156-156-156 156 94 92 0 2-250 0 0-250 0 0 93 93 157-156-157-156-93 94 0 0 0-250 250 0 0 0-94 93 156 157 156-157-93-93 0 0 250 0 0 250z" transform="matrix(1 0 0 -1 0 850)"></path></svg></a><a rel="tooltip" class="modebar-btn" data-title="Reset axes" data-attr="zoom" data-val="reset" data-toggle="false" data-gravity="n"><svg viewBox="0 0 928.6 1000" class="icon" height="1em" width="1em"><path d="m786 296v-267q0-15-11-26t-25-10h-214v214h-143v-214h-214q-15 0-25 10t-11 26v267q0 1 0 2t0 2l321 264 321-264q1-1 1-4z m124 39l-34-41q-5-5-12-6h-2q-7 0-12 3l-386 322-386-322q-7-4-13-4-7 2-12 7l-35 41q-4 5-3 13t6 12l401 334q18 15 42 15t43-15l136-114v109q0 8 5 13t13 5h107q8 0 13-5t5-13v-227l122-102q5-5 6-12t-4-13z" transform="matrix(1 0 0 -1 0 850)"></path></svg></a></div><div class="modebar-group"><a rel="tooltip" class="modebar-btn" data-title="Toggle Spike Lines" data-attr="_cartesianSpikesEnabled" data-val="on" data-toggle="false" data-gravity="n"><svg viewBox="0 0 1000 1000" class="icon" height="1em" width="1em"><path d="M512 409c0-57-46-104-103-104-57 0-104 47-104 104 0 57 47 103 104 103 57 0 103-46 103-103z m-327-39l92 0 0 92-92 0z m-185 0l92 0 0 92-92 0z m370-186l92 0 0 93-92 0z m0-184l92 0 0 92-92 0z" transform="matrix(1.5 0 0 -1.5 0 850)"></path></svg></a><a rel="tooltip" class="modebar-btn" data-title="Show closest data on hover" data-attr="hovermode" data-val="closest" data-toggle="false" data-gravity="ne"><svg viewBox="0 0 1500 1000" class="icon" height="1em" width="1em"><path d="m375 725l0 0-375-375 375-374 0-1 1125 0 0 750-1125 0z" transform="matrix(1 0 0 -1 0 850)"></path></svg></a><a rel="tooltip" class="modebar-btn active" data-title="Compare data on hover" data-attr="hovermode" data-val="x" data-toggle="false" data-gravity="ne"><svg viewBox="0 0 1125 1000" class="icon" height="1em" width="1em"><path d="m187 786l0 2-187-188 188-187 0 0 937 0 0 373-938 0z m0-499l0 1-187-188 188-188 0 0 937 0 0 376-938-1z" transform="matrix(1 0 0 -1 0 850)"></path></svg></a></div></div></div><svg class="main-svg" style="position: absolute" xmlns="http://www.w3.org/2000/svg" xmlns:xlink="http://www.w3.org/1999/xlink" width="904.225352112676" height="642"><g class="hoverlayer"></g></svg>