<svg class="main-svg" style="position: absolute" xmlns="http://www.w3.org/2000/svg" xmlns:xlink="http://www.w3.org/1999/xlink" width="947.429104477612" height="642" style="background: rgb(255, 255, 255);"><defs id="defs-ec14b5"><g class="clips"><clipPath id="clipec14b5xyplot" class="plotclip"><rect width="787" height="462"></rect></clipPath><clipPath class="axesclip" id="clipec14b5x"><rect x="80" y="0" width="787" height="642"></rect></clipPath><clipPath class="axesclip" id="clipec14b5y"><rect x="0" y="100" width="947.429104477612" height="462"></rect></clipPath><clipPath class="axesclip" id="clipec14b5xy"><rect x="80" y="100" width="787" height="462"></rect></clipPath></g><g class="gradients"></g></defs><g class="bglayer"></g><g class="draglayer cursor-crosshair"><g class="xy"><rect class="nsewdrag drag" data-subplot="xy" x="80" y="100" width="787" height="462" style="fill: transparent; stroke-width: 0; pointer-events: all;"></rect><rect class="nwdrag drag cursor-nw-resize" data-subplot="xy" x="60" y="80" width="20" height="20" style="fill: transparent; stroke-width: 0; pointer-events: all;"></rect><rect class="nedrag drag cursor-ne-resize" data-subplot="xy" x="867" y="80" width="20" height="20" style="fill: transparent; stroke-width: 0; pointer-events: all;"></rect><rect class="swdrag drag cursor-sw-resize" data-subplot="xy" x="60" y="562" width="20" height="20" style="fill: transparent; stroke-width: 0; pointer-events: all;"></rect><rect class="sedrag drag cursor-se-resize" data-subplot="xy" x="867" y="562" width="20" height="20" style="fill: transparent; stroke-width: 0; pointer-events: all;"></rect><rect class="ewdrag drag cursor-ew-resize" data-subplot="xy" x="158.7" y="562.5" width="629.6" height="20" style="fill: transparent; stroke-width: 0; pointer-events: all;"></rect><rect class="wdrag drag cursor-w-resize" data-subplot="xy" x="80" y="562.5" width="78.7" height="20" style="fill: transparent; stroke-width: 0; pointer-events: all;"></rect><rect class="edrag drag cursor-e-resize" data-subplot="xy" x="788.3000000000001" y="562.5" width="78.7" height="20" style="fill: transparent; stroke-width: 0; pointer-events: all;"></rect><rect class="nsdrag drag cursor-ns-resize" data-subplot="xy" x="59.5" y="146.2" width="20" height="369.6" style="fill: transparent; stroke-width: 0; pointer-events: all;"></rect><rect class="sdrag drag cursor-s-resize" data-subplot="xy" x="59.5" y="515.8" width="20" height="46.2" style="fill: transparent; stroke-width: 0; pointer-events: all;"></rect><rect class="ndrag drag cursor-n-resize" data-subplot="xy" x="59.5" y="100" width="20" height="46.2" style="fill: transparent; stroke-width: 0; pointer-events: all;"></rect></g></g><g class="layer-below"><g class="imagelayer"></g><g class="shapelayer"></g></g><g class="cartesianlayer"><g class="subplot xy"><g class="layer-subplot"><g class="shapelayer"></g><g class="imagelayer"></g></g><g class="gridlayer"><g class="x"></g><g class="y"><path class="ygrid crisp" transform="translate(0,499.72)" d="M80,0h787" style="stroke: rgb(238, 238, 238); stroke-opacity: 1; stroke-width: 1px;"></path><path class="ygrid crisp" transform="translate(0,449.85)" d="M80,0h787" style="stroke: rgb(238, 238, 238); stroke-opacity: 1; stroke-width: 1px;"></path><path class="ygrid crisp" transform="translate(0,399.97)" d="M80,0h787" style="stroke: rgb(238, 238, 238); stroke-opacity: 1; stroke-width: 1px;"></path><path class="ygrid crisp" transform="translate(0,350.1)" d="M80,0h787" style="stroke: rgb(238, 238, 238); stroke-opacity: 1; stroke-width: 1px;"></path><path class="ygrid crisp" transform="translate(0,300.22)" d="M80,0h787" style="stroke: rgb(238, 238, 238); stroke-opacity: 1; stroke-width: 1px;"></path><path class="ygrid crisp" transform="translate(0,250.35)" d="M80,0h787" style="stroke: rgb(238, 238, 238); stroke-opacity: 1; stroke-width: 1px;"></path><path class="ygrid crisp" transform="translate(0,200.47)" d="M80,0h787" style="stroke: rgb(238, 238, 238); stroke-opacity: 1; stroke-width: 1px;"></path><path class="ygrid crisp" transform="translate(0,150.6)" d="M80,0h787" style="stroke: rgb(238, 238, 238); stroke-opacity: 1; stroke-width: 1px;"></path></g></g><g class="zerolinelayer"><path class="yzl zl crisp" transform="translate(0,549.6)" d="M80,0h787" style="stroke: rgb(68, 68, 68); stroke-opacity: 1; stroke-width: 1px;"></path></g><path class="xlines-below"></path><path class="ylines-below"></path><g class="overlines-below"></g><g class="xaxislayer-below"></g><g class="yaxislayer-below"></g><g class="overaxes-below"></g><g class="plot" transform="translate(80,100)" clip-path="url('#clipec14b5xyplot')"><g class="barlayer mlayer"><g class="trace bars" style="opacity: 1;"><g class="points"><g class="point"><path d="M36.56,449.6V10.7H57.55V449.6Z" style="vector-effect: non-scaling-stroke; opacity: 1; stroke-width: 0px; fill: rgb(31, 119, 180); fill-opacity: 1;"></path></g><g class="point"><path d="M62.8,449.6V100.47H83.78V449.6Z" style="vector-effect: non-scaling-stroke; opacity: 1; stroke-width: 0px; fill: rgb(31, 119, 180); fill-opacity: 1;"></path></g><g class="point"><path d="M89.03,449.6V120.42H110.02V449.6Z" style="vector-effect: non-scaling-stroke; opacity: 1; stroke-width: 0px; fill: rgb(31, 119, 180); fill-opacity: 1;"></path></g><g class="point"><path d="M115.26,449.6V120.42H136.25V449.6Z" style="vector-effect: non-scaling-stroke; opacity: 1; stroke-width: 0px; fill: rgb(31, 119, 180); fill-opacity: 1;"></path></g><g class="point"><path d="M141.5,449.6V120.42H162.48V449.6Z" style="vector-effect: non-scaling-stroke; opacity: 1; stroke-width: 0px; fill: rgb(31, 119, 180); fill-opacity: 1;"></path></g><g class="point"><path d="M167.73,449.6V130.4H188.72V449.6Z" style="vector-effect: non-scaling-stroke; opacity: 1; stroke-width: 0px; fill: rgb(31, 119, 180); fill-opacity: 1;"></path></g><g class="point"><path d="M193.96,449.6V140.37H214.95V449.6Z" style="vector-effect: non-scaling-stroke; opacity: 1; stroke-width: 0px; fill: rgb(31, 119, 180); fill-opacity: 1;"></path></g><g class="point"><path d="M220.2,449.6V140.37H241.18V449.6Z" style="vector-effect: non-scaling-stroke; opacity: 1; stroke-width: 0px; fill: rgb(31, 119, 180); fill-opacity: 1;"></path></g><g class="point"><path d="M246.43,449.6V140.37H267.42V449.6Z" style="vector-effect: non-scaling-stroke; opacity: 1; stroke-width: 0px; fill: rgb(31, 119, 180); fill-opacity: 1;"></path></g><g class="point"><path d="M272.66,449.6V150.35H293.65V449.6Z" style="vector-effect: non-scaling-stroke; opacity: 1; stroke-width: 0px; fill: rgb(31, 119, 180); fill-opacity: 1;"></path></g><g class="point"><path d="M298.9,449.6V150.35H319.88V449.6Z" style="vector-effect: non-scaling-stroke; opacity: 1; stroke-width: 0px; fill: rgb(31, 119, 180); fill-opacity: 1;"></path></g><g class="point"><path d="M325.13,449.6V150.35H346.12V449.6Z" style="vector-effect: non-scaling-stroke; opacity: 1; stroke-width: 0px; fill: rgb(31, 119, 180); fill-opacity: 1;"></path></g><g class="point"><path d="M351.36,449.6V150.35H372.35V449.6Z" style="vector-effect: non-scaling-stroke; opacity: 1; stroke-width: 0px; fill: rgb(31, 119, 180); fill-opacity: 1;"></path></g><g class="point"><path d="M377.6,449.6V180.27H398.58V449.6Z" style="vector-effect: non-scaling-stroke; opacity: 1; stroke-width: 0px; fill: rgb(31, 119, 180); fill-opacity: 1;"></path></g><g class="point"><path d="M403.83,449.6V180.27H424.82V449.6Z" style="vector-effect: non-scaling-stroke; opacity: 1; stroke-width: 0px; fill: rgb(31, 119, 180); fill-opacity: 1;"></path></g><g class="point"><path d="M430.06,449.6V190.25H451.05V449.6Z" style="vector-effect: non-scaling-stroke; opacity: 1; stroke-width: 0px; fill: rgb(31, 119, 180); fill-opacity: 1;"></path></g><g class="point"><path d="M456.3,449.6V190.25H477.28V449.6Z" style="vector-effect: non-scaling-stroke; opacity: 1; stroke-width: 0px; fill: rgb(31, 119, 180); fill-opacity: 1;"></path></g><g class="point"><path d="M482.53,449.6V200.22H503.52V449.6Z" style="vector-effect: non-scaling-stroke; opacity: 1; stroke-width: 0px; fill: rgb(31, 119, 180); fill-opacity: 1;"></path></g><g class="point"><path d="M508.76,449.6V210.2H529.75V449.6Z" style="vector-effect: non-scaling-stroke; opacity: 1; stroke-width: 0px; fill: rgb(31, 119, 180); fill-opacity: 1;"></path></g><g class="point"><path d="M535,449.6V210.2H555.98V449.6Z" style="vector-effect: non-scaling-stroke; opacity: 1; stroke-width: 0px; fill: rgb(31, 119, 180); fill-opacity: 1;"></path></g><g class="point"><path d="M561.23,449.6V210.2H582.22V449.6Z" style="vector-effect: non-scaling-stroke; opacity: 1; stroke-width: 0px; fill: rgb(31, 119, 180); fill-opacity: 1;"></path></g><g class="point"><path d="M587.46,449.6V220.17H608.45V449.6Z" style="vector-effect: non-scaling-stroke; opacity: 1; stroke-width: 0px; fill: rgb(31, 119, 180); fill-opacity: 1;"></path></g><g class="point"><path d="M613.7,449.6V230.15H634.68V449.6Z" style="vector-effect: non-scaling-stroke; opacity: 1; stroke-width: 0px; fill: rgb(31, 119, 180); fill-opacity: 1;"></path></g><g class="point"><path d="M639.93,449.6V250.1H660.92V449.6Z" style="vector-effect: non-scaling-stroke; opacity: 1; stroke-width: 0px; fill: rgb(31, 119, 180); fill-opacity: 1;"></path></g><g class="point"><path d="M666.16,449.6V280.02H687.15V449.6Z" style="vector-effect: non-scaling-stroke; opacity: 1; stroke-width: 0px; fill: rgb(31, 119, 180); fill-opacity: 1;"></path></g><g class="point"><path d="M692.4,449.6V280.02H713.38V449.6Z" style="vector-effect: non-scaling-stroke; opacity: 1; stroke-width: 0px; fill: rgb(31, 119, 180); fill-opacity: 1;"></path></g><g class="point"><path d="M718.63,449.6V290H739.62V449.6Z" style="vector-effect: non-scaling-stroke; opacity: 1; stroke-width: 0px; fill: rgb(31, 119, 180); fill-opacity: 1;"></path></g><g class="point"><path d="M744.86,449.6V290H765.85V449.6Z" style="vector-effect: non-scaling-stroke; opacity: 1; stroke-width: 0px; fill: rgb(31, 119, 180); fill-opacity: 1;"></path></g><g class="point"><path d="M771.1,449.6V299.97H792.08V449.6Z" style="vector-effect: non-scaling-stroke; opacity: 1; stroke-width: 0px; fill: rgb(31, 119, 180); fill-opacity: 1;"></path></g><g class="point"><path d="M797.33,449.6V369.8H818.32V449.6Z" style="vector-effect: non-scaling-stroke; opacity: 1; stroke-width: 0px; fill: rgb(31, 119, 180); fill-opacity: 1;"></path></g></g></g></g></g><g class="overplot"></g><path class="xlines-above crisp" d="M0,0" style="fill: none;"></path><path class="ylines-above crisp" d="M0,0" style="fill: none;"></path><g class="overlines-above"></g><g class="xaxislayer-above"><g class="xtick"><text text-anchor="start" x="0" y="575" data-unformatted="Blue Jackets" data-math="N" transform="translate(127.06,0) rotate(90,0,569)" style="font-family: &quot;Open Sans&quot;, verdana, arial, sans-serif; font-size: 12px; fill: rgb(68, 68, 68); fill-opacity: 1; white-space: pre;">Blue Jackets</text></g><g class="xtick"><text text-anchor="start" x="0" y="575" data-unformatted="Ducks" data-math="N" transform="translate(153.29000000000002,0) rotate(90,0,569)" style="font-family: &quot;Open Sans&quot;, verdana, arial, sans-serif; font-size: 12px; fill: rgb(68, 68, 68); fill-opacity: 1; white-space: pre;">Ducks</text></g><g class="xtick"><text text-anchor="start" x="0" y="575" data-unformatted="Sabres" data-math="N" transform="translate(179.51999999999998,0) rotate(90,0,569)" style="font-family: &quot;Open Sans&quot;, verdana, arial, sans-serif; font-size: 12px; fill: rgb(68, 68, 68); fill-opacity: 1; white-space: pre;">Sabres</text></g><g class="xtick"><text text-anchor="start" x="0" y="575" data-unformatted="Senators" data-math="N" transform="translate(205.76,0) rotate(90,0,569)" style="font-family: &quot;Open Sans&quot;, verdana, arial, sans-serif; font-size: 12px; fill: rgb(68, 68, 68); fill-opacity: 1; white-space: pre;">Senators</text></g><g class="xtick"><text text-anchor="start" x="0" y="575" data-unformatted="Penguins" data-math="N" transform="translate(231.99,0) rotate(90,0,569)" style="font-family: &quot;Open Sans&quot;, verdana, arial, sans-serif; font-size: 12px; fill: rgb(68, 68, 68); fill-opacity: 1; white-space: pre;">Penguins</text></g><g class="xtick"><text text-anchor="start" x="0" y="575" data-unformatted="Jets" data-math="N" transform="translate(258.22,0) rotate(90,0,569)" style="font-family: &quot;Open Sans&quot;, verdana, arial, sans-serif; font-size: 12px; fill: rgb(68, 68, 68); fill-opacity: 1; white-space: pre;">Jets</text></g><g class="xtick"><text text-anchor="start" x="0" y="575" data-unformatted="Avalanche" data-math="N" transform="translate(284.46000000000004,0) rotate(90,0,569)" style="font-family: &quot;Open Sans&quot;, verdana, arial, sans-serif; font-size: 12px; fill: rgb(68, 68, 68); fill-opacity: 1; white-space: pre;">Avalanche</text></g><g class="xtick"><text text-anchor="start" x="0" y="575" data-unformatted="Canucks" data-math="N" transform="translate(310.69,0) rotate(90,0,569)" style="font-family: &quot;Open Sans&quot;, verdana, arial, sans-serif; font-size: 12px; fill: rgb(68, 68, 68); fill-opacity: 1; white-space: pre;">Canucks</text></g><g class="xtick"><text text-anchor="start" x="0" y="575" data-unformatted="Capitals" data-math="N" transform="translate(336.92,0) rotate(90,0,569)" style="font-family: &quot;Open Sans&quot;, verdana, arial, sans-serif; font-size: 12px; fill: rgb(68, 68, 68); fill-opacity: 1; white-space: pre;">Capitals</text></g><g class="xtick"><text text-anchor="start" x="0" y="575" data-unformatted="Stars" data-math="N" transform="translate(363.16,0) rotate(90,0,569)" style="font-family: &quot;Open Sans&quot;, verdana, arial, sans-serif; font-size: 12px; fill: rgb(68, 68, 68); fill-opacity: 1; white-space: pre;">Stars</text></g><g class="xtick"><text text-anchor="start" x="0" y="575" data-unformatted="Oilers" data-math="N" transform="translate(389.39,0) rotate(90,0,569)" style="font-family: &quot;Open Sans&quot;, verdana, arial, sans-serif; font-size: 12px; fill: rgb(68, 68, 68); fill-opacity: 1; white-space: pre;">Oilers</text></g><g class="xtick"><text text-anchor="start" x="0" y="575" data-unformatted="Flyers" data-math="N" transform="translate(415.62,0) rotate(90,0,569)" style="font-family: &quot;Open Sans&quot;, verdana, arial, sans-serif; font-size: 12px; fill: rgb(68, 68, 68); fill-opacity: 1; white-space: pre;">Flyers</text></g><g class="xtick"><text text-anchor="start" x="0" y="575" data-unformatted="Blues" data-math="N" transform="translate(441.86,0) rotate(90,0,569)" style="font-family: &quot;Open Sans&quot;, verdana, arial, sans-serif; font-size: 12px; fill: rgb(68, 68, 68); fill-opacity: 1; white-space: pre;">Blues</text></g><g class="xtick"><text text-anchor="start" x="0" y="575" data-unformatted="Bruins" data-math="N" transform="translate(468.09,0) rotate(90,0,569)" style="font-family: &quot;Open Sans&quot;, verdana, arial, sans-serif; font-size: 12px; fill: rgb(68, 68, 68); fill-opacity: 1; white-space: pre;">Bruins</text></g><g class="xtick"><text text-anchor="start" x="0" y="575" data-unformatted="Canadians" data-math="N" transform="translate(494.32,0) rotate(90,0,569)" style="font-family: &quot;Open Sans&quot;, verdana, arial, sans-serif; font-size: 12px; fill: rgb(68, 68, 68); fill-opacity: 1; white-space: pre;">Canadians</text></g><g class="xtick"><text text-anchor="start" x="0" y="575" data-unformatted="Coyotes" data-math="N" transform="translate(520.56,0) rotate(90,0,569)" style="font-family: &quot;Open Sans&quot;, verdana, arial, sans-serif; font-size: 12px; fill: rgb(68, 68, 68); fill-opacity: 1; white-space: pre;">Coyotes</text></g><g class="xtick"><text text-anchor="start" x="0" y="575" data-unformatted="Sharks" data-math="N" transform="translate(546.79,0) rotate(90,0,569)" style="font-family: &quot;Open Sans&quot;, verdana, arial, sans-serif; font-size: 12px; fill: rgb(68, 68, 68); fill-opacity: 1; white-space: pre;">Sharks</text></g><g class="xtick"><text text-anchor="start" x="0" y="575" data-unformatted="Kings" data-math="N" transform="translate(573.02,0) rotate(90,0,569)" style="font-family: &quot;Open Sans&quot;, verdana, arial, sans-serif; font-size: 12px; fill: rgb(68, 68, 68); fill-opacity: 1; white-space: pre;">Kings</text></g><g class="xtick"><text text-anchor="start" x="0" y="575" data-unformatted="Flames" data-math="N" transform="translate(599.26,0) rotate(90,0,569)" style="font-family: &quot;Open Sans&quot;, verdana, arial, sans-serif; font-size: 12px; fill: rgb(68, 68, 68); fill-opacity: 1; white-space: pre;">Flames</text></g><g class="xtick"><text text-anchor="start" x="0" y="575" data-unformatted="Wild" data-math="N" transform="translate(625.49,0) rotate(90,0,569)" style="font-family: &quot;Open Sans&quot;, verdana, arial, sans-serif; font-size: 12px; fill: rgb(68, 68, 68); fill-opacity: 1; white-space: pre;">Wild</text></g><g class="xtick"><text text-anchor="start" x="0" y="575" data-unformatted="Leafs" data-math="N" transform="translate(651.72,0) rotate(90,0,569)" style="font-family: &quot;Open Sans&quot;, verdana, arial, sans-serif; font-size: 12px; fill: rgb(68, 68, 68); fill-opacity: 1; white-space: pre;">Leafs</text></g><g class="xtick"><text text-anchor="start" x="0" y="575" data-unformatted="Lightning" data-math="N" transform="translate(677.96,0) rotate(90,0,569)" style="font-family: &quot;Open Sans&quot;, verdana, arial, sans-serif; font-size: 12px; fill: rgb(68, 68, 68); fill-opacity: 1; white-space: pre;">Lightning</text></g><g class="xtick"><text text-anchor="start" x="0" y="575" data-unformatted="Devils" data-math="N" transform="translate(704.19,0) rotate(90,0,569)" style="font-family: &quot;Open Sans&quot;, verdana, arial, sans-serif; font-size: 12px; fill: rgb(68, 68, 68); fill-opacity: 1; white-space: pre;">Devils</text></g><g class="xtick"><text text-anchor="start" x="0" y="575" data-unformatted="Rangers" data-math="N" transform="translate(730.42,0) rotate(90,0,569)" style="font-family: &quot;Open Sans&quot;, verdana, arial, sans-serif; font-size: 12px; fill: rgb(68, 68, 68); fill-opacity: 1; white-space: pre;">Rangers</text></g><g class="xtick"><text text-anchor="start" x="0" y="575" data-unformatted="Hurricanes" data-math="N" transform="translate(756.66,0) rotate(90,0,569)" style="font-family: &quot;Open Sans&quot;, verdana, arial, sans-serif; font-size: 12px; fill: rgb(68, 68, 68); fill-opacity: 1; white-space: pre;">Hurricanes</text></g><g class="xtick"><text text-anchor="start" x="0" y="575" data-unformatted="Predators" data-math="N" transform="translate(782.89,0) rotate(90,0,569)" style="font-family: &quot;Open Sans&quot;, verdana, arial, sans-serif; font-size: 12px; fill: rgb(68, 68, 68); fill-opacity: 1; white-space: pre;">Predators</text></g><g class="xtick"><text text-anchor="start" x="0" y="575" data-unformatted="Panthers" data-math="N" transform="translate(809.12,0) rotate(90,0,569)" style="font-family: &quot;Open Sans&quot;, verdana, arial, sans-serif; font-size: 12px; fill: rgb(68, 68, 68); fill-opacity: 1; white-space: pre;">Panthers</text></g><g class="xtick"><text text-anchor="start" x="0" y="575" data-unformatted="Islanders" data-math="N" transform="translate(835.36,0) rotate(90,0,569)" style="font-family: &quot;Open Sans&quot;, verdana, arial, sans-serif; font-size: 12px; fill: rgb(68, 68, 68); fill-opacity: 1; white-space: pre;">Islanders</text></g><g class="xtick"><text text-anchor="start" x="0" y="575" data-unformatted="Blackhawks" data-math="N" transform="translate(861.59,0) rotate(90,0,569)" style="font-family: &quot;Open Sans&quot;, verdana, arial, sans-serif; font-size: 12px; fill: rgb(68, 68, 68); fill-opacity: 1; white-space: pre;">Blackhawks</text></g></g><g class="yaxislayer-above"><g class="ytick"><text text-anchor="end" x="79" y="4.199999999999999" data-unformatted="0" data-math="N" transform="translate(0,549.6)" style="font-family: &quot;Open Sans&quot;, verdana, arial, sans-serif; font-size: 12px; fill: rgb(68, 68, 68); fill-opacity: 1; white-space: pre;">0</text></g><g class="ytick"><text text-anchor="end" x="79" y="4.199999999999999" data-unformatted="5" data-math="N" transform="translate(0,499.72)" style="font-family: &quot;Open Sans&quot;, verdana, arial, sans-serif; font-size: 12px; fill: rgb(68, 68, 68); fill-opacity: 1; white-space: pre;">5</text></g><g class="ytick"><text text-anchor="end" x="79" y="4.199999999999999" data-unformatted="10" data-math="N" transform="translate(0,449.85)" style="font-family: &quot;Open Sans&quot;, verdana, arial, sans-serif; font-size: 12px; fill: rgb(68, 68, 68); fill-opacity: 1; white-space: pre;">10</text></g><g class="ytick"><text text-anchor="end" x="79" y="4.199999999999999" data-unformatted="15" data-math="N" transform="translate(0,399.97)" style="font-family: &quot;Open Sans&quot;, verdana, arial, sans-serif; font-size: 12px; fill: rgb(68, 68, 68); fill-opacity: 1; white-space: pre;">15</text></g><g class="ytick"><text text-anchor="end" x="79" y="4.199999999999999" data-unformatted="20" data-math="N" transform="translate(0,350.1)" style="font-family: &quot;Open Sans&quot;, verdana, arial, sans-serif; font-size: 12px; fill: rgb(68, 68, 68); fill-opacity: 1; white-space: pre;">20</text></g><g class="ytick"><text text-anchor="end" x="79" y="4.199999999999999" data-unformatted="25" data-math="N" transform="translate(0,300.22)" style="font-family: &quot;Open Sans&quot;, verdana, arial, sans-serif; font-size: 12px; fill: rgb(68, 68, 68); fill-opacity: 1; white-space: pre;">25</text></g><g class="ytick"><text text-anchor="end" x="79" y="4.199999999999999" data-unformatted="30" data-math="N" transform="translate(0,250.35)" style="font-family: &quot;Open Sans&quot;, verdana, arial, sans-serif; font-size: 12px; fill: rgb(68, 68, 68); fill-opacity: 1; white-space: pre;">30</text></g><g class="ytick"><text text-anchor="end" x="79" y="4.199999999999999" data-unformatted="35" data-math="N" transform="translate(0,200.47)" style="font-family: &quot;Open Sans&quot;, verdana, arial, sans-serif; font-size: 12px; fill: rgb(68, 68, 68); fill-opacity: 1; white-space: pre;">35</text></g><g class="ytick"><text text-anchor="end" x="79" y="4.199999999999999" data-unformatted="40" data-math="N" transform="translate(0,150.6)" style="font-family: &quot;Open Sans&quot;, verdana, arial, sans-serif; font-size: 12px; fill: rgb(68, 68, 68); fill-opacity: 1; white-space: pre;">40</text></g><g class="ytick"><text text-anchor="end" x="79" y="4.199999999999999" data-unformatted="45" data-math="N" transform="translate(0,100.72)" style="font-family: &quot;Open Sans&quot;, verdana, arial, sans-serif; font-size: 12px; fill: rgb(68, 68, 68); fill-opacity: 1; white-space: pre;">45</text></g></g><g class="overaxes-above"></g></g></g><g class="polarlayer"></g><g class="ternarylayer"></g><g class="geolayer"></g><g class="funnelarealayer"></g><g class="pielayer"></g><g class="treemaplayer"></g><g class="sunburstlayer"></g><g class="glimages"></g></svg><div class="gl-container"></div><svg class="main-svg" style="position: absolute" xmlns="http://www.w3.org/2000/svg" xmlns:xlink="http://www.w3.org/1999/xlink" width="947.429104477612" height="642"><defs id="topdefs-ec14b5"><g class="clips"></g></defs><g class="indicatorlayer"></g><g class="layer-above"><g class="imagelayer"></g><g class="shapelayer"></g></g><g class="infolayer"><g class="g-gtitle"><text class="gtitle" x="473.714552238806" y="50" text-anchor="middle" dy="0em" data-unformatted="Amount of Fights per NHL Team 2014-2015" data-math="N" style="font-family: &quot;Open Sans&quot;, verdana, arial, sans-serif; font-size: 17px; fill: rgb(68, 68, 68); opacity: 1; font-weight: normal; white-space: pre;">Amount of Fights per NHL Team 2014-2015</text></g><g class="g-xtitle" transform="translate(0,24)"><text class="xtitle" x="473.5" y="614" text-anchor="middle" data-unformatted="NHL Teams" data-math="N" style="font-family: &quot;Open Sans&quot;, verdana, arial, sans-serif; font-size: 14px; fill: rgb(68, 68, 68); opacity: 1; font-weight: normal; white-space: pre;">NHL Teams</text></g><g class="g-ytitle"><text class="ytitle" transform="rotate(-90,42,331)" x="42" y="331" text-anchor="middle" data-unformatted="Number of Fights" data-math="N" style="font-family: &quot;Open Sans&quot;, verdana, arial, sans-serif; font-size: 14px; fill: rgb(68, 68, 68); opacity: 1; font-weight: normal; white-space: pre;">Number of Fights</text></g></g><g class="menulayer"></g><g class="zoomlayer"></g></svg><div class="modebar-container" style="position: absolute; top: 0px; right: 0px; width: 100%;"><div id="modebar-ec14b5" class="modebar modebar--hover ease-bg"><div class="modebar-group"><a rel="tooltip" class="modebar-btn" data-title="Download plot as a png" data-toggle="false" data-gravity="n"><svg viewBox="0 0 1000 1000" class="icon" height="1em" width="1em"><path d="m500 450c-83 0-150-67-150-150 0-83 67-150 150-150 83 0 150 67 150 150 0 83-67 150-150 150z m400 150h-120c-16 0-34 13-39 29l-31 93c-6 15-23 28-40 28h-340c-16 0-34-13-39-28l-31-94c-6-15-23-28-40-28h-120c-55 0-100-45-100-100v-450c0-55 45-100 100-100h800c55 0 100 45 100 100v450c0 55-45 100-100 100z m-400-550c-138 0-250 112-250 250 0 138 112 250 250 250 138 0 250-112 250-250 0-138-112-250-250-250z m365 380c-19 0-35 16-35 35 0 19 16 35 35 35 19 0 35-16 35-35 0-19-16-35-35-35z" transform="matrix(1 0 0 -1 0 850)"></path></svg></a></div><div class="modebar-group"><a rel="tooltip" class="modebar-btn active" data-title="Zoom" data-attr="dragmode" data-val="zoom" data-toggle="false" data-gravity="n"><svg viewBox="0 0 1000 1000" class="icon" height="1em" width="1em"><path d="m1000-25l-250 251c40 63 63 138 63 218 0 224-182 406-407 406-224 0-406-182-406-406s183-406 407-406c80 0 155 22 218 62l250-250 125 125z m-812 250l0 438 437 0 0-438-437 0z m62 375l313 0 0-312-313 0 0 312z" transform="matrix(1 0 0 -1 0 850)"></path></svg></a><a rel="tooltip" class="modebar-btn" data-title="Pan" data-attr="dragmode" data-val="pan" data-toggle="false" data-gravity="n"><svg viewBox="0 0 1000 1000" class="icon" height="1em" width="1em"><path d="m1000 350l-187 188 0-125-250 0 0 250 125 0-188 187-187-187 125 0 0-250-250 0 0 125-188-188 186-187 0 125 252 0 0-250-125 0 187-188 188 188-125 0 0 250 250 0 0-126 187 188z" transform="matrix(1 0 0 -1 0 850)"></path></svg></a><a rel="tooltip" class="modebar-btn" data-title="Box Select" data-attr="dragmode" data-val="select" data-toggle="false" data-gravity="n"><svg viewBox="0 0 1000 1000" class="icon" height="1em" width="1em"><path d="m0 850l0-143 143 0 0 143-143 0z m286 0l0-143 143 0 0 143-143 0z m285 0l0-143 143 0 0 143-143 0z m286 0l0-143 143 0 0 143-143 0z m-857-286l0-143 143 0 0 143-143 0z m857 0l0-143 143 0 0 143-143 0z m-857-285l0-143 143 0 0 143-143 0z m857 0l0-143 143 0 0 143-143 0z m-857-286l0-143 143 0 0 143-143 0z m286 0l0-143 143 0 0 143-143 0z m285 0l0-143 143 0 0 143-143 0z m286 0l0-143 143 0 0 143-143 0z" transform="matrix(1 0 0 -1 0 850)"></path></svg></a><a rel="tooltip" class="modebar-btn" data-title="Lasso Select" data-attr="dragmode" data-val="lasso" data-toggle="false" data-gravity="n"><svg viewBox="0 0 1031 1000" class="icon" height="1em" width="1em"><path d="m1018 538c-36 207-290 336-568 286-277-48-473-256-436-463 10-57 36-108 76-151-13-66 11-137 68-183 34-28 75-41 114-42l-55-70 0 0c-2-1-3-2-4-3-10-14-8-34 5-45 14-11 34-8 45 4 1 1 2 3 2 5l0 0 113 140c16 11 31 24 45 40 4 3 6 7 8 11 48-3 100 0 151 9 278 48 473 255 436 462z m-624-379c-80 14-149 48-197 96 42 42 109 47 156 9 33-26 47-66 41-105z m-187-74c-19 16-33 37-39 60 50-32 109-55 174-68-42-25-95-24-135 8z m360 75c-34-7-69-9-102-8 8 62-16 128-68 170-73 59-175 54-244-5-9 20-16 40-20 61-28 159 121 317 333 354s407-60 434-217c28-159-121-318-333-355z" transform="matrix(1 0 0 -1 0 850)"></path></svg></a></div><div class="modebar-group"><a rel="tooltip" class="modebar-btn" data-title="Zoom in" data-attr="zoom" data-val="in" data-toggle="false" data-gravity="n"><svg viewBox="0 0 875 1000" class="icon" height="1em" width="1em"><path d="m1 787l0-875 875 0 0 875-875 0z m687-500l-187 0 0-187-125 0 0 187-188 0 0 125 188 0 0 187 125 0 0-187 187 0 0-125z" transform="matrix(1 0 0 -1 0 850)"></path></svg></a><a rel="tooltip" class="modebar-btn" data-title="Zoom out" data-attr="zoom" data-val="out" data-toggle="false" data-gravity="n"><svg viewBox="0 0 875 1000" class="icon" height="1em" width="1em"><path d="m0 788l0-876 875 0 0 876-875 0z m688-500l-500 0 0 125 500 0 0-125z" transform="matrix(1 0 0 -1 0 850)"></path></svg></a><a rel="tooltip" class="modebar-btn" data-title="Autoscale" data-attr="zoom" data-val="auto" data-toggle="false" data-gravity="n"><svg viewBox="0 0 1000 1000" class="icon" height="1em" width="1em"><path d="m250 850l-187 0-63 0 0-62 0-188 63 0 0 188 187 0 0 62z m688 0l-188 0 0-62 188 0 0-188 62 0 0 188 0 62-62 0z m-875-938l0 188-63 0 0-188 0-62 63 0 187 0 0 62-187 0z m875 188l0-188-188 0 0-62 188 0 62 0 0 62 0 188-62 0z m-125 188l-1 0-93-94-156 156 156 156 92-93 2 0 0 250-250 0 0-2 93-92-156-156-156 156 94 92 0 2-250 0 0-250 0 0 93 93 157-156-157-156-93 94 0 0 0-250 250 0 0 0-94 93 156 157 156-157-93-93 0 0 250 0 0 250z" transform="matrix(1 0 0 -1 0 850)"></path></svg></a><a rel="tooltip" class="modebar-btn" data-title="Reset axes" data-attr="zoom" data-val="reset" data-toggle="false" data-gravity="n"><svg viewBox="0 0 928.6 1000" class="icon" height="1em" width="1em"><path d="m786 296v-267q0-15-11-26t-25-10h-214v214h-143v-214h-214q-15 0-25 10t-11 26v267q0 1 0 2t0 2l321 264 321-264q1-1 1-4z m124 39l-34-41q-5-5-12-6h-2q-7 0-12 3l-386 322-386-322q-7-4-13-4-7 2-12 7l-35 41q-4 5-3 13t6 12l401 334q18 15 42 15t43-15l136-114v109q0 8 5 13t13 5h107q8 0 13-5t5-13v-227l122-102q5-5 6-12t-4-13z" transform="matrix(1 0 0 -1 0 850)"></path></svg></a></div><div class="modebar-group"><a rel="tooltip" class="modebar-btn" data-title="Toggle Spike Lines" data-attr="_cartesianSpikesEnabled" data-val="on" data-toggle="false" data-gravity="n"><svg viewBox="0 0 1000 1000" class="icon" height="1em" width="1em"><path d="M512 409c0-57-46-104-103-104-57 0-104 47-104 104 0 57 47 103 104 103 57 0 103-46 103-103z m-327-39l92 0 0 92-92 0z m-185 0l92 0 0 92-92 0z m370-186l92 0 0 93-92 0z m0-184l92 0 0 92-92 0z" transform="matrix(1.5 0 0 -1.5 0 850)"></path></svg></a><a rel="tooltip" class="modebar-btn" data-title="Show closest data on hover" data-attr="hovermode" data-val="closest" data-toggle="false" data-gravity="ne"><svg viewBox="0 0 1500 1000" class="icon" height="1em" width="1em"><path d="m375 725l0 0-375-375 375-374 0-1 1125 0 0 750-1125 0z" transform="matrix(1 0 0 -1 0 850)"></path></svg></a><a rel="tooltip" class="modebar-btn active" data-title="Compare data on hover" data-attr="hovermode" data-val="x" data-toggle="false" data-gravity="ne"><svg viewBox="0 0 1125 1000" class="icon" height="1em" width="1em"><path d="m187 786l0 2-187-188 188-187 0 0 937 0 0 373-938 0z m0-499l0 1-187-188 188-188 0 0 937 0 0 376-938-1z" transform="matrix(1 0 0 -1 0 850)"></path></svg></a></div></div></div><svg class="main-svg" style="position: absolute" xmlns="http://www.w3.org/2000/svg" xmlns:xlink="http://www.w3.org/1999/xlink" width="947.429104477612" height="642"><g class="hoverlayer"></g></svg>