<svg class="main-svg" style="position: absolute" xmlns="http://www.w3.org/2000/svg" xmlns:xlink="http://www.w3.org/1999/xlink" width="904.225352112676" height="642" style="background: rgb(255, 255, 255);"><defs id="defs-0659b5"><g class="clips"><clipPath id="clip0659b5xyplot" class="plotclip"><rect width="744" height="462"></rect></clipPath><clipPath class="axesclip" id="clip0659b5x"><rect x="80" y="0" width="744" height="642"></rect></clipPath><clipPath class="axesclip" id="clip0659b5y"><rect x="0" y="100" width="904.225352112676" height="462"></rect></clipPath><clipPath class="axesclip" id="clip0659b5xy"><rect x="80" y="100" width="744" height="462"></rect></clipPath></g><g class="gradients"></g></defs><g class="bglayer"></g><g class="draglayer cursor-crosshair"><g class="xy"><rect class="nsewdrag drag" data-subplot="xy" x="80" y="100" width="744" height="462" style="fill: transparent; stroke-width: 0; pointer-events: all;"></rect><rect class="nwdrag drag cursor-nw-resize" data-subplot="xy" x="60" y="80" width="20" height="20" style="fill: transparent; stroke-width: 0; pointer-events: all;"></rect><rect class="nedrag drag cursor-ne-resize" data-subplot="xy" x="824" y="80" width="20" height="20" style="fill: transparent; stroke-width: 0; pointer-events: all;"></rect><rect class="swdrag drag cursor-sw-resize" data-subplot="xy" x="60" y="562" width="20" height="20" style="fill: transparent; stroke-width: 0; pointer-events: all;"></rect><rect class="sedrag drag cursor-se-resize" data-subplot="xy" x="824" y="562" width="20" height="20" style="fill: transparent; stroke-width: 0; pointer-events: all;"></rect><rect class="ewdrag drag cursor-ew-resize" data-subplot="xy" x="154.4" y="562.5" width="595.2" height="20" style="fill: transparent; stroke-width: 0; pointer-events: all;"></rect><rect class="wdrag drag cursor-w-resize" data-subplot="xy" x="80" y="562.5" width="74.4" height="20" style="fill: transparent; stroke-width: 0; pointer-events: all;"></rect><rect class="edrag drag cursor-e-resize" data-subplot="xy" x="749.6" y="562.5" width="74.4" height="20" style="fill: transparent; stroke-width: 0; pointer-events: all;"></rect><rect class="nsdrag drag cursor-ns-resize" data-subplot="xy" x="59.5" y="146.2" width="20" height="369.6" style="fill: transparent; stroke-width: 0; pointer-events: all;"></rect><rect class="sdrag drag cursor-s-resize" data-subplot="xy" x="59.5" y="515.8" width="20" height="46.2" style="fill: transparent; stroke-width: 0; pointer-events: all;"></rect><rect class="ndrag drag cursor-n-resize" data-subplot="xy" x="59.5" y="100" width="20" height="46.2" style="fill: transparent; stroke-width: 0; pointer-events: all;"></rect></g></g><g class="layer-below"><g class="imagelayer"></g><g class="shapelayer"></g></g><g class="cartesianlayer"><g class="subplot xy"><g class="layer-subplot"><g class="shapelayer"></g><g class="imagelayer"></g></g><g class="gridlayer"><g class="x"></g><g class="y"><path class="ygrid crisp" transform="translate(0,508.48)" d="M80,0h744" style="stroke: rgb(238, 238, 238); stroke-opacity: 1; stroke-width: 1px;"></path><path class="ygrid crisp" transform="translate(0,454.95)" d="M80,0h744" style="stroke: rgb(238, 238, 238); stroke-opacity: 1; stroke-width: 1px;"></path><path class="ygrid crisp" transform="translate(0,401.43)" d="M80,0h744" style="stroke: rgb(238, 238, 238); stroke-opacity: 1; stroke-width: 1px;"></path><path class="ygrid crisp" transform="translate(0,347.9)" d="M80,0h744" style="stroke: rgb(238, 238, 238); stroke-opacity: 1; stroke-width: 1px;"></path><path class="ygrid crisp" transform="translate(0,294.38)" d="M80,0h744" style="stroke: rgb(238, 238, 238); stroke-opacity: 1; stroke-width: 1px;"></path><path class="ygrid crisp" transform="translate(0,240.85)" d="M80,0h744" style="stroke: rgb(238, 238, 238); stroke-opacity: 1; stroke-width: 1px;"></path><path class="ygrid crisp" transform="translate(0,187.32999999999998)" d="M80,0h744" style="stroke: rgb(238, 238, 238); stroke-opacity: 1; stroke-width: 1px;"></path><path class="ygrid crisp" transform="translate(0,133.8)" d="M80,0h744" style="stroke: rgb(238, 238, 238); stroke-opacity: 1; stroke-width: 1px;"></path></g></g><g class="zerolinelayer"><path class="yzl zl crisp" transform="translate(0,562)" d="M80,0h744" style="stroke: rgb(68, 68, 68); stroke-opacity: 1; stroke-width: 1px;"></path></g><path class="xlines-below"></path><path class="ylines-below"></path><g class="overlines-below"></g><g class="xaxislayer-below"></g><g class="yaxislayer-below"></g><g class="overaxes-below"></g><g class="plot" transform="translate(80,100)" clip-path="url('#clip0659b5xyplot')"><g class="barlayer mlayer"><g class="trace bars" style="opacity: 1;"><g class="points"><g class="point"><path d="M0.77,462V435.24H6.9V462Z" style="vector-effect: non-scaling-stroke; opacity: 1; stroke-width: 0px; fill: rgb(74, 134, 232); fill-opacity: 1;"></path></g><g class="point"><path d="M8.44,462V408.48H14.57V462Z" style="vector-effect: non-scaling-stroke; opacity: 1; stroke-width: 0px; fill: rgb(74, 134, 232); fill-opacity: 1;"></path></g><g class="point"><path d="M16.11,462V280.02H22.24V462Z" style="vector-effect: non-scaling-stroke; opacity: 1; stroke-width: 0px; fill: rgb(74, 134, 232); fill-opacity: 1;"></path></g><g class="point"><path d="M23.78,462V371.01H29.91V462Z" style="vector-effect: non-scaling-stroke; opacity: 1; stroke-width: 0px; fill: rgb(74, 134, 232); fill-opacity: 1;"></path></g><g class="point"><path d="M31.45,462V440.59H37.58V462Z" style="vector-effect: non-scaling-stroke; opacity: 1; stroke-width: 0px; fill: rgb(74, 134, 232); fill-opacity: 1;"></path></g><g class="point"><path d="M39.12,462V440.59H45.25V462Z" style="vector-effect: non-scaling-stroke; opacity: 1; stroke-width: 0px; fill: rgb(74, 134, 232); fill-opacity: 1;"></path></g><g class="point"><path d="M46.79,462V397.77H52.92V462Z" style="vector-effect: non-scaling-stroke; opacity: 1; stroke-width: 0px; fill: rgb(74, 134, 232); fill-opacity: 1;"></path></g><g class="point"><path d="M54.46,462V360.3H60.59V462Z" style="vector-effect: non-scaling-stroke; opacity: 1; stroke-width: 0px; fill: rgb(74, 134, 232); fill-opacity: 1;"></path></g><g class="point"><path d="M62.13,462V242.55H68.26V462Z" style="vector-effect: non-scaling-stroke; opacity: 1; stroke-width: 0px; fill: rgb(74, 134, 232); fill-opacity: 1;"></path></g><g class="point"><path d="M69.8,462V178.32H75.93V462Z" style="vector-effect: non-scaling-stroke; opacity: 1; stroke-width: 0px; fill: rgb(74, 134, 232); fill-opacity: 1;"></path></g><g class="point"><path d="M77.47,462V269.31H83.6V462Z" style="vector-effect: non-scaling-stroke; opacity: 1; stroke-width: 0px; fill: rgb(74, 134, 232); fill-opacity: 1;"></path></g><g class="point"><path d="M85.14,462V456.65H91.27V462Z" style="vector-effect: non-scaling-stroke; opacity: 1; stroke-width: 0px; fill: rgb(74, 134, 232); fill-opacity: 1;"></path></g><g class="point"><path d="M92.81,462V365.66H98.94V462Z" style="vector-effect: non-scaling-stroke; opacity: 1; stroke-width: 0px; fill: rgb(74, 134, 232); fill-opacity: 1;"></path></g><g class="point"><path d="M100.48,462V429.89H106.61V462Z" style="vector-effect: non-scaling-stroke; opacity: 1; stroke-width: 0px; fill: rgb(74, 134, 232); fill-opacity: 1;"></path></g><g class="point"><path d="M108.15,462V381.71H114.28V462Z" style="vector-effect: non-scaling-stroke; opacity: 1; stroke-width: 0px; fill: rgb(74, 134, 232); fill-opacity: 1;"></path></g><g class="point"><path d="M115.82,462V413.83H121.95V462Z" style="vector-effect: non-scaling-stroke; opacity: 1; stroke-width: 0px; fill: rgb(74, 134, 232); fill-opacity: 1;"></path></g><g class="point"><path d="M123.49,462V408.48H129.62V462Z" style="vector-effect: non-scaling-stroke; opacity: 1; stroke-width: 0px; fill: rgb(74, 134, 232); fill-opacity: 1;"></path></g><g class="point"><path d="M131.16,462V322.84H137.29V462Z" style="vector-effect: non-scaling-stroke; opacity: 1; stroke-width: 0px; fill: rgb(74, 134, 232); fill-opacity: 1;"></path></g><g class="point"><path d="M138.83,462V413.83H144.96V462Z" style="vector-effect: non-scaling-stroke; opacity: 1; stroke-width: 0px; fill: rgb(74, 134, 232); fill-opacity: 1;"></path></g><g class="point"><path d="M146.5,462V397.77H152.64V462Z" style="vector-effect: non-scaling-stroke; opacity: 1; stroke-width: 0px; fill: rgb(74, 134, 232); fill-opacity: 1;"></path></g><g class="point"><path d="M154.17,462V440.59H160.31V462Z" style="vector-effect: non-scaling-stroke; opacity: 1; stroke-width: 0px; fill: rgb(74, 134, 232); fill-opacity: 1;"></path></g><g class="point"><path d="M161.84,462V183.67H167.98V462Z" style="vector-effect: non-scaling-stroke; opacity: 1; stroke-width: 0px; fill: rgb(74, 134, 232); fill-opacity: 1;"></path></g><g class="point"><path d="M169.51,462V365.66H175.65V462Z" style="vector-effect: non-scaling-stroke; opacity: 1; stroke-width: 0px; fill: rgb(74, 134, 232); fill-opacity: 1;"></path></g><g class="point"><path d="M177.18,462V440.59H183.32V462Z" style="vector-effect: non-scaling-stroke; opacity: 1; stroke-width: 0px; fill: rgb(74, 134, 232); fill-opacity: 1;"></path></g><g class="point"><path d="M184.85,462V408.48H190.99V462Z" style="vector-effect: non-scaling-stroke; opacity: 1; stroke-width: 0px; fill: rgb(74, 134, 232); fill-opacity: 1;"></path></g><g class="point"><path d="M192.52,462V371.01H198.66V462Z" style="vector-effect: non-scaling-stroke; opacity: 1; stroke-width: 0px; fill: rgb(74, 134, 232); fill-opacity: 1;"></path></g><g class="point"><path d="M200.19,462V408.48H206.33V462Z" style="vector-effect: non-scaling-stroke; opacity: 1; stroke-width: 0px; fill: rgb(74, 134, 232); fill-opacity: 1;"></path></g><g class="point"><path d="M207.86,462V221.14H214V462Z" style="vector-effect: non-scaling-stroke; opacity: 1; stroke-width: 0px; fill: rgb(74, 134, 232); fill-opacity: 1;"></path></g><g class="point"><path d="M215.53,462V269.31H221.67V462Z" style="vector-effect: non-scaling-stroke; opacity: 1; stroke-width: 0px; fill: rgb(74, 134, 232); fill-opacity: 1;"></path></g><g class="point"><path d="M223.2,462V269.31H229.34V462Z" style="vector-effect: non-scaling-stroke; opacity: 1; stroke-width: 0px; fill: rgb(74, 134, 232); fill-opacity: 1;"></path></g><g class="point"><path d="M230.87,462V199.73H237.01V462Z" style="vector-effect: non-scaling-stroke; opacity: 1; stroke-width: 0px; fill: rgb(74, 134, 232); fill-opacity: 1;"></path></g><g class="point"><path d="M238.54,462V258.61H244.68V462Z" style="vector-effect: non-scaling-stroke; opacity: 1; stroke-width: 0px; fill: rgb(74, 134, 232); fill-opacity: 1;"></path></g><g class="point"><path d="M246.21,462V328.19H252.35V462Z" style="vector-effect: non-scaling-stroke; opacity: 1; stroke-width: 0px; fill: rgb(74, 134, 232); fill-opacity: 1;"></path></g><g class="point"><path d="M253.88,462V306.78H260.02V462Z" style="vector-effect: non-scaling-stroke; opacity: 1; stroke-width: 0px; fill: rgb(74, 134, 232); fill-opacity: 1;"></path></g><g class="point"><path d="M261.55,462V445.94H267.69V462Z" style="vector-effect: non-scaling-stroke; opacity: 1; stroke-width: 0px; fill: rgb(74, 134, 232); fill-opacity: 1;"></path></g><g class="point"><path d="M269.22,462V435.24H275.36V462Z" style="vector-effect: non-scaling-stroke; opacity: 1; stroke-width: 0px; fill: rgb(74, 134, 232); fill-opacity: 1;"></path></g><g class="point"><path d="M276.89,462V403.12H283.03V462Z" style="vector-effect: non-scaling-stroke; opacity: 1; stroke-width: 0px; fill: rgb(74, 134, 232); fill-opacity: 1;"></path></g><g class="point"><path d="M284.56,462V445.94H290.7V462Z" style="vector-effect: non-scaling-stroke; opacity: 1; stroke-width: 0px; fill: rgb(74, 134, 232); fill-opacity: 1;"></path></g><g class="point"><path d="M292.23,462V424.53H298.37V462Z" style="vector-effect: non-scaling-stroke; opacity: 1; stroke-width: 0px; fill: rgb(74, 134, 232); fill-opacity: 1;"></path></g><g class="point"><path d="M299.9,462V445.94H306.04V462Z" style="vector-effect: non-scaling-stroke; opacity: 1; stroke-width: 0px; fill: rgb(74, 134, 232); fill-opacity: 1;"></path></g><g class="point"><path d="M307.57,462V435.24H313.71V462Z" style="vector-effect: non-scaling-stroke; opacity: 1; stroke-width: 0px; fill: rgb(74, 134, 232); fill-opacity: 1;"></path></g><g class="point"><path d="M315.24,462V456.65H321.38V462Z" style="vector-effect: non-scaling-stroke; opacity: 1; stroke-width: 0px; fill: rgb(74, 134, 232); fill-opacity: 1;"></path></g><g class="point"><path d="M322.91,462V413.83H329.05V462Z" style="vector-effect: non-scaling-stroke; opacity: 1; stroke-width: 0px; fill: rgb(74, 134, 232); fill-opacity: 1;"></path></g><g class="point"><path d="M330.58,462V451.3H336.72V462Z" style="vector-effect: non-scaling-stroke; opacity: 1; stroke-width: 0px; fill: rgb(74, 134, 232); fill-opacity: 1;"></path></g><g class="point"><path d="M338.25,462V403.12H344.39V462Z" style="vector-effect: non-scaling-stroke; opacity: 1; stroke-width: 0px; fill: rgb(74, 134, 232); fill-opacity: 1;"></path></g><g class="point"><path d="M345.92,462V435.24H352.06V462Z" style="vector-effect: non-scaling-stroke; opacity: 1; stroke-width: 0px; fill: rgb(74, 134, 232); fill-opacity: 1;"></path></g><g class="point"><path d="M353.59,462V462H359.73V462Z" style="vector-effect: non-scaling-stroke; opacity: 1; stroke-width: 0px; fill: rgb(74, 134, 232); fill-opacity: 1;"></path></g><g class="point"><path d="M361.26,462V451.3H367.4V462Z" style="vector-effect: non-scaling-stroke; opacity: 1; stroke-width: 0px; fill: rgb(74, 134, 232); fill-opacity: 1;"></path></g><g class="point"><path d="M368.93,462V403.12H375.07V462Z" style="vector-effect: non-scaling-stroke; opacity: 1; stroke-width: 0px; fill: rgb(74, 134, 232); fill-opacity: 1;"></path></g><g class="point"><path d="M376.6,462V445.94H382.74V462Z" style="vector-effect: non-scaling-stroke; opacity: 1; stroke-width: 0px; fill: rgb(74, 134, 232); fill-opacity: 1;"></path></g><g class="point"><path d="M384.27,462V23.1H390.41V462Z" style="vector-effect: non-scaling-stroke; opacity: 1; stroke-width: 0px; fill: rgb(74, 134, 232); fill-opacity: 1;"></path></g><g class="point"><path d="M391.94,462V108.74H398.08V462Z" style="vector-effect: non-scaling-stroke; opacity: 1; stroke-width: 0px; fill: rgb(74, 134, 232); fill-opacity: 1;"></path></g><g class="point"><path d="M399.61,462V445.94H405.75V462Z" style="vector-effect: non-scaling-stroke; opacity: 1; stroke-width: 0px; fill: rgb(74, 134, 232); fill-opacity: 1;"></path></g><g class="point"><path d="M407.28,462V429.89H413.42V462Z" style="vector-effect: non-scaling-stroke; opacity: 1; stroke-width: 0px; fill: rgb(74, 134, 232); fill-opacity: 1;"></path></g><g class="point"><path d="M414.95,462V413.83H421.09V462Z" style="vector-effect: non-scaling-stroke; opacity: 1; stroke-width: 0px; fill: rgb(74, 134, 232); fill-opacity: 1;"></path></g><g class="point"><path d="M422.62,462V371.01H428.76V462Z" style="vector-effect: non-scaling-stroke; opacity: 1; stroke-width: 0px; fill: rgb(74, 134, 232); fill-opacity: 1;"></path></g><g class="point"><path d="M430.29,462V462H436.43V462Z" style="vector-effect: non-scaling-stroke; opacity: 1; stroke-width: 0px; fill: rgb(74, 134, 232); fill-opacity: 1;"></path></g><g class="point"><path d="M437.96,462V456.65H444.1V462Z" style="vector-effect: non-scaling-stroke; opacity: 1; stroke-width: 0px; fill: rgb(74, 134, 232); fill-opacity: 1;"></path></g><g class="point"><path d="M445.63,462V205.08H451.77V462Z" style="vector-effect: non-scaling-stroke; opacity: 1; stroke-width: 0px; fill: rgb(74, 134, 232); fill-opacity: 1;"></path></g><g class="point"><path d="M453.3,462V392.42H459.44V462Z" style="vector-effect: non-scaling-stroke; opacity: 1; stroke-width: 0px; fill: rgb(74, 134, 232); fill-opacity: 1;"></path></g><g class="point"><path d="M460.97,462V354.95H467.11V462Z" style="vector-effect: non-scaling-stroke; opacity: 1; stroke-width: 0px; fill: rgb(74, 134, 232); fill-opacity: 1;"></path></g><g class="point"><path d="M468.64,462V419.18H474.78V462Z" style="vector-effect: non-scaling-stroke; opacity: 1; stroke-width: 0px; fill: rgb(74, 134, 232); fill-opacity: 1;"></path></g><g class="point"><path d="M476.31,462V462H482.45V462Z" style="vector-effect: non-scaling-stroke; opacity: 1; stroke-width: 0px; fill: rgb(74, 134, 232); fill-opacity: 1;"></path></g><g class="point"><path d="M483.98,462V429.89H490.12V462Z" style="vector-effect: non-scaling-stroke; opacity: 1; stroke-width: 0px; fill: rgb(74, 134, 232); fill-opacity: 1;"></path></g><g class="point"><path d="M491.65,462V408.48H497.79V462Z" style="vector-effect: non-scaling-stroke; opacity: 1; stroke-width: 0px; fill: rgb(74, 134, 232); fill-opacity: 1;"></path></g><g class="point"><path d="M499.32,462V462H505.46V462Z" style="vector-effect: non-scaling-stroke; opacity: 1; stroke-width: 0px; fill: rgb(74, 134, 232); fill-opacity: 1;"></path></g><g class="point"><path d="M506.99,462V429.89H513.13V462Z" style="vector-effect: non-scaling-stroke; opacity: 1; stroke-width: 0px; fill: rgb(74, 134, 232); fill-opacity: 1;"></path></g><g class="point"><path d="M514.66,462V462H520.8V462Z" style="vector-effect: non-scaling-stroke; opacity: 1; stroke-width: 0px; fill: rgb(74, 134, 232); fill-opacity: 1;"></path></g><g class="point"><path d="M522.33,462V408.48H528.47V462Z" style="vector-effect: non-scaling-stroke; opacity: 1; stroke-width: 0px; fill: rgb(74, 134, 232); fill-opacity: 1;"></path></g><g class="point"><path d="M530,462V440.59H536.14V462Z" style="vector-effect: non-scaling-stroke; opacity: 1; stroke-width: 0px; fill: rgb(74, 134, 232); fill-opacity: 1;"></path></g><g class="point"><path d="M537.67,462V429.89H543.81V462Z" style="vector-effect: non-scaling-stroke; opacity: 1; stroke-width: 0px; fill: rgb(74, 134, 232); fill-opacity: 1;"></path></g><g class="point"><path d="M545.34,462V424.53H551.48V462Z" style="vector-effect: non-scaling-stroke; opacity: 1; stroke-width: 0px; fill: rgb(74, 134, 232); fill-opacity: 1;"></path></g><g class="point"><path d="M553.01,462V435.24H559.15V462Z" style="vector-effect: non-scaling-stroke; opacity: 1; stroke-width: 0px; fill: rgb(74, 134, 232); fill-opacity: 1;"></path></g><g class="point"><path d="M560.68,462V462H566.82V462Z" style="vector-effect: non-scaling-stroke; opacity: 1; stroke-width: 0px; fill: rgb(74, 134, 232); fill-opacity: 1;"></path></g><g class="point"><path d="M568.35,462V456.65H574.49V462Z" style="vector-effect: non-scaling-stroke; opacity: 1; stroke-width: 0px; fill: rgb(74, 134, 232); fill-opacity: 1;"></path></g><g class="point"><path d="M576.02,462V435.24H582.16V462Z" style="vector-effect: non-scaling-stroke; opacity: 1; stroke-width: 0px; fill: rgb(74, 134, 232); fill-opacity: 1;"></path></g><g class="point"><path d="M583.69,462V462H589.83V462Z" style="vector-effect: non-scaling-stroke; opacity: 1; stroke-width: 0px; fill: rgb(74, 134, 232); fill-opacity: 1;"></path></g><g class="point"><path d="M591.36,462V440.59H597.5V462Z" style="vector-effect: non-scaling-stroke; opacity: 1; stroke-width: 0px; fill: rgb(74, 134, 232); fill-opacity: 1;"></path></g><g class="point"><path d="M599.04,462V462H605.17V462Z" style="vector-effect: non-scaling-stroke; opacity: 1; stroke-width: 0px; fill: rgb(74, 134, 232); fill-opacity: 1;"></path></g><g class="point"><path d="M606.71,462V462H612.84V462Z" style="vector-effect: non-scaling-stroke; opacity: 1; stroke-width: 0px; fill: rgb(74, 134, 232); fill-opacity: 1;"></path></g><g class="point"><path d="M614.38,462V462H620.51V462Z" style="vector-effect: non-scaling-stroke; opacity: 1; stroke-width: 0px; fill: rgb(74, 134, 232); fill-opacity: 1;"></path></g><g class="point"><path d="M622.05,462V387.07H628.18V462Z" style="vector-effect: non-scaling-stroke; opacity: 1; stroke-width: 0px; fill: rgb(74, 134, 232); fill-opacity: 1;"></path></g><g class="point"><path d="M629.72,462V456.65H635.85V462Z" style="vector-effect: non-scaling-stroke; opacity: 1; stroke-width: 0px; fill: rgb(74, 134, 232); fill-opacity: 1;"></path></g><g class="point"><path d="M637.39,462V462H643.52V462Z" style="vector-effect: non-scaling-stroke; opacity: 1; stroke-width: 0px; fill: rgb(74, 134, 232); fill-opacity: 1;"></path></g><g class="point"><path d="M645.06,462V462H651.19V462Z" style="vector-effect: non-scaling-stroke; opacity: 1; stroke-width: 0px; fill: rgb(74, 134, 232); fill-opacity: 1;"></path></g><g class="point"><path d="M652.73,462V462H658.86V462Z" style="vector-effect: non-scaling-stroke; opacity: 1; stroke-width: 0px; fill: rgb(74, 134, 232); fill-opacity: 1;"></path></g><g class="point"><path d="M660.4,462V462H666.53V462Z" style="vector-effect: non-scaling-stroke; opacity: 1; stroke-width: 0px; fill: rgb(74, 134, 232); fill-opacity: 1;"></path></g><g class="point"><path d="M668.07,462V462H674.2V462Z" style="vector-effect: non-scaling-stroke; opacity: 1; stroke-width: 0px; fill: rgb(74, 134, 232); fill-opacity: 1;"></path></g><g class="point"><path d="M675.74,462V462H681.87V462Z" style="vector-effect: non-scaling-stroke; opacity: 1; stroke-width: 0px; fill: rgb(74, 134, 232); fill-opacity: 1;"></path></g><g class="point"><path d="M683.41,462V462H689.54V462Z" style="vector-effect: non-scaling-stroke; opacity: 1; stroke-width: 0px; fill: rgb(74, 134, 232); fill-opacity: 1;"></path></g><g class="point"><path d="M691.08,462V462H697.21V462Z" style="vector-effect: non-scaling-stroke; opacity: 1; stroke-width: 0px; fill: rgb(74, 134, 232); fill-opacity: 1;"></path></g><g class="point"><path d="M698.75,462V462H704.88V462Z" style="vector-effect: non-scaling-stroke; opacity: 1; stroke-width: 0px; fill: rgb(74, 134, 232); fill-opacity: 1;"></path></g><g class="point"><path d="M706.42,462V462H712.55V462Z" style="vector-effect: non-scaling-stroke; opacity: 1; stroke-width: 0px; fill: rgb(74, 134, 232); fill-opacity: 1;"></path></g><g class="point"><path d="M714.09,462V462H720.22V462Z" style="vector-effect: non-scaling-stroke; opacity: 1; stroke-width: 0px; fill: rgb(74, 134, 232); fill-opacity: 1;"></path></g><g class="point"><path d="M721.76,462V462H727.89V462Z" style="vector-effect: non-scaling-stroke; opacity: 1; stroke-width: 0px; fill: rgb(74, 134, 232); fill-opacity: 1;"></path></g><g class="point"><path d="M729.43,462V462H735.56V462Z" style="vector-effect: non-scaling-stroke; opacity: 1; stroke-width: 0px; fill: rgb(74, 134, 232); fill-opacity: 1;"></path></g><g class="point"><path d="M737.1,462V462H743.23V462Z" style="vector-effect: non-scaling-stroke; opacity: 1; stroke-width: 0px; fill: rgb(74, 134, 232); fill-opacity: 1;"></path></g></g></g></g></g><g class="overplot"></g><path class="xlines-above crisp" d="M0,0" style="fill: none;"></path><path class="ylines-above crisp" d="M0,0" style="fill: none;"></path><g class="overlines-above"></g><g class="xaxislayer-above"><g class="xtick"><text text-anchor="start" x="0" y="575" data-unformatted="FONOAUDIOLOGIA" data-math="N" transform="translate(83.84,0) rotate(90,0,569)" style="font-family: &quot;Open Sans&quot;, verdana, arial, sans-serif; font-size: 12px; fill: rgb(68, 68, 68); fill-opacity: 1; white-space: pre;">FONOAUDIOLOGIA</text></g><g class="xtick"><text text-anchor="start" x="0" y="575" data-unformatted="LETRAS / UV" data-math="N" transform="translate(99.18,0) rotate(90,0,569)" style="font-family: &quot;Open Sans&quot;, verdana, arial, sans-serif; font-size: 12px; fill: rgb(68, 68, 68); fill-opacity: 1; white-space: pre;">LETRAS / UV</text></g><g class="xtick"><text text-anchor="start" x="0" y="575" data-unformatted="LETRAS (LÍNGUA ESPANHOLA)" data-math="N" transform="translate(114.52000000000001,0) rotate(90,0,569)" style="font-family: &quot;Open Sans&quot;, verdana, arial, sans-serif; font-size: 12px; fill: rgb(68, 68, 68); fill-opacity: 1; white-space: pre;">LETRAS (LÍNGUA ESPANHOLA)</text></g><g class="xtick"><text text-anchor="start" x="0" y="575" data-unformatted="EDUCAÇÃO FÍSICA - BACHARELADO" data-math="N" transform="translate(129.86,0) rotate(90,0,569)" style="font-family: &quot;Open Sans&quot;, verdana, arial, sans-serif; font-size: 12px; fill: rgb(68, 68, 68); fill-opacity: 1; white-space: pre;">EDUCAÇÃO FÍSICA - BACHARELADO</text></g><g class="xtick"><text text-anchor="start" x="0" y="575" data-unformatted="COMUNICAÇÃO SOCIAL" data-math="N" transform="translate(145.2,0) rotate(90,0,569)" style="font-family: &quot;Open Sans&quot;, verdana, arial, sans-serif; font-size: 12px; fill: rgb(68, 68, 68); fill-opacity: 1; white-space: pre;">COMUNICAÇÃO SOCIAL</text></g><g class="xtick"><text text-anchor="start" x="0" y="575" data-unformatted="MATEMÁTICA" data-math="N" transform="translate(160.54000000000002,0) rotate(90,0,569)" style="font-family: &quot;Open Sans&quot;, verdana, arial, sans-serif; font-size: 12px; fill: rgb(68, 68, 68); fill-opacity: 1; white-space: pre;">MATEMÁTICA</text></g><g class="xtick"><text text-anchor="start" x="0" y="575" data-unformatted="ODONTOLOGIA" data-math="N" transform="translate(175.88,0) rotate(90,0,569)" style="font-family: &quot;Open Sans&quot;, verdana, arial, sans-serif; font-size: 12px; fill: rgb(68, 68, 68); fill-opacity: 1; white-space: pre;">ODONTOLOGIA</text></g><g class="xtick"><text text-anchor="start" x="0" y="575" data-unformatted="LETRAS" data-math="N" transform="translate(191.22,0) rotate(90,0,569)" style="font-family: &quot;Open Sans&quot;, verdana, arial, sans-serif; font-size: 12px; fill: rgb(68, 68, 68); fill-opacity: 1; white-space: pre;">LETRAS</text></g><g class="xtick"><text text-anchor="start" x="0" y="575" data-unformatted="CIÊNCIAS ECONÔMICAS" data-math="N" transform="translate(206.56,0) rotate(90,0,569)" style="font-family: &quot;Open Sans&quot;, verdana, arial, sans-serif; font-size: 12px; fill: rgb(68, 68, 68); fill-opacity: 1; white-space: pre;">CIÊNCIAS ECONÔMICAS</text></g><g class="xtick"><text text-anchor="start" x="0" y="575" data-unformatted="MATEMÁTICA (LICENCIATURA)" data-math="N" transform="translate(221.9,0) rotate(90,0,569)" style="font-family: &quot;Open Sans&quot;, verdana, arial, sans-serif; font-size: 12px; fill: rgb(68, 68, 68); fill-opacity: 1; white-space: pre;">MATEMÁTICA (LICENCIATURA)</text></g><g class="xtick"><text text-anchor="start" x="0" y="575" data-unformatted="LETRAS (LÍNGUA FRANCESA)" data-math="N" transform="translate(237.24,0) rotate(90,0,569)" style="font-family: &quot;Open Sans&quot;, verdana, arial, sans-serif; font-size: 12px; fill: rgb(68, 68, 68); fill-opacity: 1; white-space: pre;">LETRAS (LÍNGUA FRANCESA)</text></g><g class="xtick"><text text-anchor="start" x="0" y="575" data-unformatted="ZOOTECNIA" data-math="N" transform="translate(252.58,0) rotate(90,0,569)" style="font-family: &quot;Open Sans&quot;, verdana, arial, sans-serif; font-size: 12px; fill: rgb(68, 68, 68); fill-opacity: 1; white-space: pre;">ZOOTECNIA</text></g><g class="xtick"><text text-anchor="start" x="0" y="575" data-unformatted="QUÍMICA INDUSTRIAL" data-math="N" transform="translate(267.91999999999996,0) rotate(90,0,569)" style="font-family: &quot;Open Sans&quot;, verdana, arial, sans-serif; font-size: 12px; fill: rgb(68, 68, 68); fill-opacity: 1; white-space: pre;">QUÍMICA INDUSTRIAL</text></g><g class="xtick"><text text-anchor="start" x="0" y="575" data-unformatted="QUÍMICA" data-math="N" transform="translate(283.26,0) rotate(90,0,569)" style="font-family: &quot;Open Sans&quot;, verdana, arial, sans-serif; font-size: 12px; fill: rgb(68, 68, 68); fill-opacity: 1; white-space: pre;">QUÍMICA</text></g><g class="xtick"><text text-anchor="start" x="0" y="575" data-unformatted="CIÊNCIA DA COMPUTAÇÃO" data-math="N" transform="translate(298.6,0) rotate(90,0,569)" style="font-family: &quot;Open Sans&quot;, verdana, arial, sans-serif; font-size: 12px; fill: rgb(68, 68, 68); fill-opacity: 1; white-space: pre;">CIÊNCIA DA COMPUTAÇÃO</text></g><g class="xtick"><text text-anchor="start" x="0" y="575" data-unformatted="MEDICINA" data-math="N" transform="translate(313.94,0) rotate(90,0,569)" style="font-family: &quot;Open Sans&quot;, verdana, arial, sans-serif; font-size: 12px; fill: rgb(68, 68, 68); fill-opacity: 1; white-space: pre;">MEDICINA</text></g><g class="xtick"><text text-anchor="start" x="0" y="575" data-unformatted="EDUCAÇÃO FÍSICA - LICENCIATURA" data-math="N" transform="translate(329.28,0) rotate(90,0,569)" style="font-family: &quot;Open Sans&quot;, verdana, arial, sans-serif; font-size: 12px; fill: rgb(68, 68, 68); fill-opacity: 1; white-space: pre;">EDUCAÇÃO FÍSICA - LICENCIATURA</text></g><g class="xtick"><text text-anchor="start" x="0" y="575" data-unformatted="TURISMO" data-math="N" transform="translate(344.62,0) rotate(90,0,569)" style="font-family: &quot;Open Sans&quot;, verdana, arial, sans-serif; font-size: 12px; fill: rgb(68, 68, 68); fill-opacity: 1; white-space: pre;">TURISMO</text></g><g class="xtick"><text text-anchor="start" x="0" y="575" data-unformatted="BIBLIOTECONOMIA" data-math="N" transform="translate(359.96,0) rotate(90,0,569)" style="font-family: &quot;Open Sans&quot;, verdana, arial, sans-serif; font-size: 12px; fill: rgb(68, 68, 68); fill-opacity: 1; white-space: pre;">BIBLIOTECONOMIA</text></g><g class="xtick"><text text-anchor="start" x="0" y="575" data-unformatted="LETRAS (LÍNGUAS INGLESA)" data-math="N" transform="translate(375.3,0) rotate(90,0,569)" style="font-family: &quot;Open Sans&quot;, verdana, arial, sans-serif; font-size: 12px; fill: rgb(68, 68, 68); fill-opacity: 1; white-space: pre;">LETRAS (LÍNGUAS INGLESA)</text></g><g class="xtick"><text text-anchor="start" x="0" y="575" data-unformatted="TEATRO (LICENCIATURA)" data-math="N" transform="translate(390.64,0) rotate(90,0,569)" style="font-family: &quot;Open Sans&quot;, verdana, arial, sans-serif; font-size: 12px; fill: rgb(68, 68, 68); fill-opacity: 1; white-space: pre;">TEATRO (LICENCIATURA)</text></g><g class="xtick"><text text-anchor="start" x="0" y="575" data-unformatted="HISTÓRIA" data-math="N" transform="translate(405.98,0) rotate(90,0,569)" style="font-family: &quot;Open Sans&quot;, verdana, arial, sans-serif; font-size: 12px; fill: rgb(68, 68, 68); fill-opacity: 1; white-space: pre;">HISTÓRIA</text></g><g class="xtick"><text text-anchor="start" x="0" y="575" data-unformatted="ARQUITETURA E URBANISMO" data-math="N" transform="translate(421.32,0) rotate(90,0,569)" style="font-family: &quot;Open Sans&quot;, verdana, arial, sans-serif; font-size: 12px; fill: rgb(68, 68, 68); fill-opacity: 1; white-space: pre;">ARQUITETURA E URBANISMO</text></g><g class="xtick"><text text-anchor="start" x="0" y="575" data-unformatted="SECRETARIADO EXECUTIVO BILÍNGUE" data-math="N" transform="translate(436.66,0) rotate(90,0,569)" style="font-family: &quot;Open Sans&quot;, verdana, arial, sans-serif; font-size: 12px; fill: rgb(68, 68, 68); fill-opacity: 1; white-space: pre;">SECRETARIADO EXECUTIVO BILÍNGUE</text></g><g class="xtick"><text text-anchor="start" x="0" y="575" data-unformatted="FILOSOFIA" data-math="N" transform="translate(452,0) rotate(90,0,569)" style="font-family: &quot;Open Sans&quot;, verdana, arial, sans-serif; font-size: 12px; fill: rgb(68, 68, 68); fill-opacity: 1; white-space: pre;">FILOSOFIA</text></g><g class="xtick"><text text-anchor="start" x="0" y="575" data-unformatted="ADMINISTRAÇÃO" data-math="N" transform="translate(467.34,0) rotate(90,0,569)" style="font-family: &quot;Open Sans&quot;, verdana, arial, sans-serif; font-size: 12px; fill: rgb(68, 68, 68); fill-opacity: 1; white-space: pre;">ADMINISTRAÇÃO</text></g><g class="xtick"><text text-anchor="start" x="0" y="575" data-unformatted="CIÊNCIAS SOCIAIS" data-math="N" transform="translate(482.68,0) rotate(90,0,569)" style="font-family: &quot;Open Sans&quot;, verdana, arial, sans-serif; font-size: 12px; fill: rgb(68, 68, 68); fill-opacity: 1; white-space: pre;">CIÊNCIAS SOCIAIS</text></g><g class="xtick"><text text-anchor="start" x="0" y="575" data-unformatted="MÚSICA" data-math="N" transform="translate(498.02,0) rotate(90,0,569)" style="font-family: &quot;Open Sans&quot;, verdana, arial, sans-serif; font-size: 12px; fill: rgb(68, 68, 68); fill-opacity: 1; white-space: pre;">MÚSICA</text></g><g class="xtick"><text text-anchor="start" x="0" y="575" data-unformatted="ENGENHARIA DE COMPUTAÇÃO" data-math="N" transform="translate(513.36,0) rotate(90,0,569)" style="font-family: &quot;Open Sans&quot;, verdana, arial, sans-serif; font-size: 12px; fill: rgb(68, 68, 68); fill-opacity: 1; white-space: pre;">ENGENHARIA DE COMPUTAÇÃO</text></g><g class="xtick"><text text-anchor="start" x="0" y="575" data-unformatted="GEOGRAFIA" data-math="N" transform="translate(528.7,0) rotate(90,0,569)" style="font-family: &quot;Open Sans&quot;, verdana, arial, sans-serif; font-size: 12px; fill: rgb(68, 68, 68); fill-opacity: 1; white-space: pre;">GEOGRAFIA</text></g><g class="xtick"><text text-anchor="start" x="0" y="575" data-unformatted="CIÊNCIAS DAS RELIGIÕES" data-math="N" transform="translate(544.04,0) rotate(90,0,569)" style="font-family: &quot;Open Sans&quot;, verdana, arial, sans-serif; font-size: 12px; fill: rgb(68, 68, 68); fill-opacity: 1; white-space: pre;">CIÊNCIAS DAS RELIGIÕES</text></g><g class="xtick"><text text-anchor="start" x="0" y="575" data-unformatted="ENGENHARIA DE PRODUCAO" data-math="N" transform="translate(559.38,0) rotate(90,0,569)" style="font-family: &quot;Open Sans&quot;, verdana, arial, sans-serif; font-size: 12px; fill: rgb(68, 68, 68); fill-opacity: 1; white-space: pre;">ENGENHARIA DE PRODUCAO</text></g><g class="xtick"><text text-anchor="start" x="0" y="575" data-unformatted="LETRAS / UV(LIBRAS)" data-math="N" transform="translate(574.72,0) rotate(90,0,569)" style="font-family: &quot;Open Sans&quot;, verdana, arial, sans-serif; font-size: 12px; fill: rgb(68, 68, 68); fill-opacity: 1; white-space: pre;">LETRAS / UV(LIBRAS)</text></g><g class="xtick"><text text-anchor="start" x="0" y="575" data-unformatted="CIÊNCIAS NATURAIS" data-math="N" transform="translate(590.06,0) rotate(90,0,569)" style="font-family: &quot;Open Sans&quot;, verdana, arial, sans-serif; font-size: 12px; fill: rgb(68, 68, 68); fill-opacity: 1; white-space: pre;">CIÊNCIAS NATURAIS</text></g><g class="xtick"><text text-anchor="start" x="0" y="575" data-unformatted="MEDICINA VETERINÁRIA" data-math="N" transform="translate(605.4,0) rotate(90,0,569)" style="font-family: &quot;Open Sans&quot;, verdana, arial, sans-serif; font-size: 12px; fill: rgb(68, 68, 68); fill-opacity: 1; white-space: pre;">MEDICINA VETERINÁRIA</text></g><g class="xtick"><text text-anchor="start" x="0" y="575" data-unformatted="ENGENHARIA QUÍMICA" data-math="N" transform="translate(620.74,0) rotate(90,0,569)" style="font-family: &quot;Open Sans&quot;, verdana, arial, sans-serif; font-size: 12px; fill: rgb(68, 68, 68); fill-opacity: 1; white-space: pre;">ENGENHARIA QUÍMICA</text></g><g class="xtick"><text text-anchor="start" x="0" y="575" data-unformatted="ENGENHARIA AMBIENTAL" data-math="N" transform="translate(636.08,0) rotate(90,0,569)" style="font-family: &quot;Open Sans&quot;, verdana, arial, sans-serif; font-size: 12px; fill: rgb(68, 68, 68); fill-opacity: 1; white-space: pre;">ENGENHARIA AMBIENTAL</text></g><g class="xtick"><text text-anchor="start" x="0" y="575" data-unformatted="RELACÕES INTERNACIONAIS" data-math="N" transform="translate(651.42,0) rotate(90,0,569)" style="font-family: &quot;Open Sans&quot;, verdana, arial, sans-serif; font-size: 12px; fill: rgb(68, 68, 68); fill-opacity: 1; white-space: pre;">RELACÕES INTERNACIONAIS</text></g><g class="xtick"><text text-anchor="start" x="0" y="575" data-unformatted="PEDAGOGIA (EDUCAÇÃO DO CAMPO)" data-math="N" transform="translate(666.76,0) rotate(90,0,569)" style="font-family: &quot;Open Sans&quot;, verdana, arial, sans-serif; font-size: 12px; fill: rgb(68, 68, 68); fill-opacity: 1; white-space: pre;">PEDAGOGIA (EDUCAÇÃO DO CAMPO)</text></g><g class="xtick"><text text-anchor="start" x="0" y="575" data-unformatted="REGÊNCIA DE BANDAS E FANFARRAS" data-math="N" transform="translate(682.1,0) rotate(90,0,569)" style="font-family: &quot;Open Sans&quot;, verdana, arial, sans-serif; font-size: 12px; fill: rgb(68, 68, 68); fill-opacity: 1; white-space: pre;">REGÊNCIA DE BANDAS E FANFARRAS</text></g><g class="xtick"><text text-anchor="start" x="0" y="575" data-unformatted="COMUNICAÇÃO EM MÍDIAS DIGITAIS" data-math="N" transform="translate(697.44,0) rotate(90,0,569)" style="font-family: &quot;Open Sans&quot;, verdana, arial, sans-serif; font-size: 12px; fill: rgb(68, 68, 68); fill-opacity: 1; white-space: pre;">COMUNICAÇÃO EM MÍDIAS DIGITAIS</text></g><g class="xtick"><text text-anchor="start" x="0" y="575" data-unformatted="TECNOLOGIA EM PRODUÇÃO SUCROALCOOLEIRA" data-math="N" transform="translate(712.78,0) rotate(90,0,569)" style="font-family: &quot;Open Sans&quot;, verdana, arial, sans-serif; font-size: 12px; fill: rgb(68, 68, 68); fill-opacity: 1; white-space: pre;">TECNOLOGIA EM PRODUÇÃO SUCROALCOOLEIRA</text></g><g class="xtick"><text text-anchor="start" x="0" y="575" data-unformatted="CIÊNCIAS ATUARIAIS" data-math="N" transform="translate(728.12,0) rotate(90,0,569)" style="font-family: &quot;Open Sans&quot;, verdana, arial, sans-serif; font-size: 12px; fill: rgb(68, 68, 68); fill-opacity: 1; white-space: pre;">CIÊNCIAS ATUARIAIS</text></g><g class="xtick"><text text-anchor="start" x="0" y="575" data-unformatted="RADIALISMO" data-math="N" transform="translate(743.46,0) rotate(90,0,569)" style="font-family: &quot;Open Sans&quot;, verdana, arial, sans-serif; font-size: 12px; fill: rgb(68, 68, 68); fill-opacity: 1; white-space: pre;">RADIALISMO</text></g><g class="xtick"><text text-anchor="start" x="0" y="575" data-unformatted="JORNALISMO" data-math="N" transform="translate(758.8,0) rotate(90,0,569)" style="font-family: &quot;Open Sans&quot;, verdana, arial, sans-serif; font-size: 12px; fill: rgb(68, 68, 68); fill-opacity: 1; white-space: pre;">JORNALISMO</text></g><g class="xtick"><text text-anchor="start" x="0" y="575" data-unformatted="CINEMA E AUDIOVISUAL" data-math="N" transform="translate(774.14,0) rotate(90,0,569)" style="font-family: &quot;Open Sans&quot;, verdana, arial, sans-serif; font-size: 12px; fill: rgb(68, 68, 68); fill-opacity: 1; white-space: pre;">CINEMA E AUDIOVISUAL</text></g><g class="xtick"><text text-anchor="start" x="0" y="575" data-unformatted="ENGENHARIA DE ENERGIAS RENOVÁVEIS" data-math="N" transform="translate(789.48,0) rotate(90,0,569)" style="font-family: &quot;Open Sans&quot;, verdana, arial, sans-serif; font-size: 12px; fill: rgb(68, 68, 68); fill-opacity: 1; white-space: pre;">ENGENHARIA DE ENERGIAS RENOVÁVEIS</text></g><g class="xtick"><text text-anchor="start" x="0" y="575" data-unformatted="ADMINISTRACAO PUBLICA / UV" data-math="N" transform="translate(804.82,0) rotate(90,0,569)" style="font-family: &quot;Open Sans&quot;, verdana, arial, sans-serif; font-size: 12px; fill: rgb(68, 68, 68); fill-opacity: 1; white-space: pre;">ADMINISTRACAO PUBLICA / UV</text></g><g class="xtick"><text text-anchor="start" x="0" y="575" data-unformatted="GASTRONOMIA" data-math="N" transform="translate(820.16,0) rotate(90,0,569)" style="font-family: &quot;Open Sans&quot;, verdana, arial, sans-serif; font-size: 12px; fill: rgb(68, 68, 68); fill-opacity: 1; white-space: pre;">GASTRONOMIA</text></g></g><g class="yaxislayer-above"><g class="ytick"><text text-anchor="end" x="79" y="4.199999999999999" data-unformatted="0" data-math="N" transform="translate(0,562)" style="font-family: &quot;Open Sans&quot;, verdana, arial, sans-serif; font-size: 12px; fill: rgb(68, 68, 68); fill-opacity: 1; white-space: pre;">0</text></g><g class="ytick"><text text-anchor="end" x="79" y="4.199999999999999" data-unformatted="10" data-math="N" transform="translate(0,508.48)" style="font-family: &quot;Open Sans&quot;, verdana, arial, sans-serif; font-size: 12px; fill: rgb(68, 68, 68); fill-opacity: 1; white-space: pre;">10</text></g><g class="ytick"><text text-anchor="end" x="79" y="4.199999999999999" data-unformatted="20" data-math="N" transform="translate(0,454.95)" style="font-family: &quot;Open Sans&quot;, verdana, arial, sans-serif; font-size: 12px; fill: rgb(68, 68, 68); fill-opacity: 1; white-space: pre;">20</text></g><g class="ytick"><text text-anchor="end" x="79" y="4.199999999999999" data-unformatted="30" data-math="N" transform="translate(0,401.43)" style="font-family: &quot;Open Sans&quot;, verdana, arial, sans-serif; font-size: 12px; fill: rgb(68, 68, 68); fill-opacity: 1; white-space: pre;">30</text></g><g class="ytick"><text text-anchor="end" x="79" y="4.199999999999999" data-unformatted="40" data-math="N" transform="translate(0,347.9)" style="font-family: &quot;Open Sans&quot;, verdana, arial, sans-serif; font-size: 12px; fill: rgb(68, 68, 68); fill-opacity: 1; white-space: pre;">40</text></g><g class="ytick"><text text-anchor="end" x="79" y="4.199999999999999" data-unformatted="50" data-math="N" transform="translate(0,294.38)" style="font-family: &quot;Open Sans&quot;, verdana, arial, sans-serif; font-size: 12px; fill: rgb(68, 68, 68); fill-opacity: 1; white-space: pre;">50</text></g><g class="ytick"><text text-anchor="end" x="79" y="4.199999999999999" data-unformatted="60" data-math="N" transform="translate(0,240.85)" style="font-family: &quot;Open Sans&quot;, verdana, arial, sans-serif; font-size: 12px; fill: rgb(68, 68, 68); fill-opacity: 1; white-space: pre;">60</text></g><g class="ytick"><text text-anchor="end" x="79" y="4.199999999999999" data-unformatted="70" data-math="N" transform="translate(0,187.32999999999998)" style="font-family: &quot;Open Sans&quot;, verdana, arial, sans-serif; font-size: 12px; fill: rgb(68, 68, 68); fill-opacity: 1; white-space: pre;">70</text></g><g class="ytick"><text text-anchor="end" x="79" y="4.199999999999999" data-unformatted="80" data-math="N" transform="translate(0,133.8)" style="font-family: &quot;Open Sans&quot;, verdana, arial, sans-serif; font-size: 12px; fill: rgb(68, 68, 68); fill-opacity: 1; white-space: pre;">80</text></g></g><g class="overaxes-above"></g></g></g><g class="polarlayer"></g><g class="ternarylayer"></g><g class="geolayer"></g><g class="funnelarealayer"></g><g class="pielayer"></g><g class="treemaplayer"></g><g class="sunburstlayer"></g><g class="glimages"></g></svg><div class="gl-container"></div><svg class="main-svg" style="position: absolute" xmlns="http://www.w3.org/2000/svg" xmlns:xlink="http://www.w3.org/1999/xlink" width="904.225352112676" height="642"><defs id="topdefs-0659b5"><g class="clips"></g></defs><g class="indicatorlayer"></g><g class="layer-above"><g class="imagelayer"></g><g class="shapelayer"></g></g><g class="infolayer"><g class="g-gtitle"></g><g class="g-xtitle"></g><g class="g-ytitle"></g></g><g class="menulayer"></g><g class="zoomlayer"></g></svg><div class="modebar-container" style="position: absolute; top: 0px; right: 0px; width: 100%;"><div id="modebar-0659b5" class="modebar modebar--hover ease-bg"><div class="modebar-group"><a rel="tooltip" class="modebar-btn" data-title="Download plot as a png" data-toggle="false" data-gravity="n"><svg viewBox="0 0 1000 1000" class="icon" height="1em" width="1em"><path d="m500 450c-83 0-150-67-150-150 0-83 67-150 150-150 83 0 150 67 150 150 0 83-67 150-150 150z m400 150h-120c-16 0-34 13-39 29l-31 93c-6 15-23 28-40 28h-340c-16 0-34-13-39-28l-31-94c-6-15-23-28-40-28h-120c-55 0-100-45-100-100v-450c0-55 45-100 100-100h800c55 0 100 45 100 100v450c0 55-45 100-100 100z m-400-550c-138 0-250 112-250 250 0 138 112 250 250 250 138 0 250-112 250-250 0-138-112-250-250-250z m365 380c-19 0-35 16-35 35 0 19 16 35 35 35 19 0 35-16 35-35 0-19-16-35-35-35z" transform="matrix(1 0 0 -1 0 850)"></path></svg></a></div><div class="modebar-group"><a rel="tooltip" class="modebar-btn active" data-title="Zoom" data-attr="dragmode" data-val="zoom" data-toggle="false" data-gravity="n"><svg viewBox="0 0 1000 1000" class="icon" height="1em" width="1em"><path d="m1000-25l-250 251c40 63 63 138 63 218 0 224-182 406-407 406-224 0-406-182-406-406s183-406 407-406c80 0 155 22 218 62l250-250 125 125z m-812 250l0 438 437 0 0-438-437 0z m62 375l313 0 0-312-313 0 0 312z" transform="matrix(1 0 0 -1 0 850)"></path></svg></a><a rel="tooltip" class="modebar-btn" data-title="Pan" data-attr="dragmode" data-val="pan" data-toggle="false" data-gravity="n"><svg viewBox="0 0 1000 1000" class="icon" height="1em" width="1em"><path d="m1000 350l-187 188 0-125-250 0 0 250 125 0-188 187-187-187 125 0 0-250-250 0 0 125-188-188 186-187 0 125 252 0 0-250-125 0 187-188 188 188-125 0 0 250 250 0 0-126 187 188z" transform="matrix(1 0 0 -1 0 850)"></path></svg></a><a rel="tooltip" class="modebar-btn" data-title="Box Select" data-attr="dragmode" data-val="select" data-toggle="false" data-gravity="n"><svg viewBox="0 0 1000 1000" class="icon" height="1em" width="1em"><path d="m0 850l0-143 143 0 0 143-143 0z m286 0l0-143 143 0 0 143-143 0z m285 0l0-143 143 0 0 143-143 0z m286 0l0-143 143 0 0 143-143 0z m-857-286l0-143 143 0 0 143-143 0z m857 0l0-143 143 0 0 143-143 0z m-857-285l0-143 143 0 0 143-143 0z m857 0l0-143 143 0 0 143-143 0z m-857-286l0-143 143 0 0 143-143 0z m286 0l0-143 143 0 0 143-143 0z m285 0l0-143 143 0 0 143-143 0z m286 0l0-143 143 0 0 143-143 0z" transform="matrix(1 0 0 -1 0 850)"></path></svg></a><a rel="tooltip" class="modebar-btn" data-title="Lasso Select" data-attr="dragmode" data-val="lasso" data-toggle="false" data-gravity="n"><svg viewBox="0 0 1031 1000" class="icon" height="1em" width="1em"><path d="m1018 538c-36 207-290 336-568 286-277-48-473-256-436-463 10-57 36-108 76-151-13-66 11-137 68-183 34-28 75-41 114-42l-55-70 0 0c-2-1-3-2-4-3-10-14-8-34 5-45 14-11 34-8 45 4 1 1 2 3 2 5l0 0 113 140c16 11 31 24 45 40 4 3 6 7 8 11 48-3 100 0 151 9 278 48 473 255 436 462z m-624-379c-80 14-149 48-197 96 42 42 109 47 156 9 33-26 47-66 41-105z m-187-74c-19 16-33 37-39 60 50-32 109-55 174-68-42-25-95-24-135 8z m360 75c-34-7-69-9-102-8 8 62-16 128-68 170-73 59-175 54-244-5-9 20-16 40-20 61-28 159 121 317 333 354s407-60 434-217c28-159-121-318-333-355z" transform="matrix(1 0 0 -1 0 850)"></path></svg></a></div><div class="modebar-group"><a rel="tooltip" class="modebar-btn" data-title="Zoom in" data-attr="zoom" data-val="in" data-toggle="false" data-gravity="n"><svg viewBox="0 0 875 1000" class="icon" height="1em" width="1em"><path d="m1 787l0-875 875 0 0 875-875 0z m687-500l-187 0 0-187-125 0 0 187-188 0 0 125 188 0 0 187 125 0 0-187 187 0 0-125z" transform="matrix(1 0 0 -1 0 850)"></path></svg></a><a rel="tooltip" class="modebar-btn" data-title="Zoom out" data-attr="zoom" data-val="out" data-toggle="false" data-gravity="n"><svg viewBox="0 0 875 1000" class="icon" height="1em" width="1em"><path d="m0 788l0-876 875 0 0 876-875 0z m688-500l-500 0 0 125 500 0 0-125z" transform="matrix(1 0 0 -1 0 850)"></path></svg></a><a rel="tooltip" class="modebar-btn" data-title="Autoscale" data-attr="zoom" data-val="auto" data-toggle="false" data-gravity="n"><svg viewBox="0 0 1000 1000" class="icon" height="1em" width="1em"><path d="m250 850l-187 0-63 0 0-62 0-188 63 0 0 188 187 0 0 62z m688 0l-188 0 0-62 188 0 0-188 62 0 0 188 0 62-62 0z m-875-938l0 188-63 0 0-188 0-62 63 0 187 0 0 62-187 0z m875 188l0-188-188 0 0-62 188 0 62 0 0 62 0 188-62 0z m-125 188l-1 0-93-94-156 156 156 156 92-93 2 0 0 250-250 0 0-2 93-92-156-156-156 156 94 92 0 2-250 0 0-250 0 0 93 93 157-156-157-156-93 94 0 0 0-250 250 0 0 0-94 93 156 157 156-157-93-93 0 0 250 0 0 250z" transform="matrix(1 0 0 -1 0 850)"></path></svg></a><a rel="tooltip" class="modebar-btn" data-title="Reset axes" data-attr="zoom" data-val="reset" data-toggle="false" data-gravity="n"><svg viewBox="0 0 928.6 1000" class="icon" height="1em" width="1em"><path d="m786 296v-267q0-15-11-26t-25-10h-214v214h-143v-214h-214q-15 0-25 10t-11 26v267q0 1 0 2t0 2l321 264 321-264q1-1 1-4z m124 39l-34-41q-5-5-12-6h-2q-7 0-12 3l-386 322-386-322q-7-4-13-4-7 2-12 7l-35 41q-4 5-3 13t6 12l401 334q18 15 42 15t43-15l136-114v109q0 8 5 13t13 5h107q8 0 13-5t5-13v-227l122-102q5-5 6-12t-4-13z" transform="matrix(1 0 0 -1 0 850)"></path></svg></a></div><div class="modebar-group"><a rel="tooltip" class="modebar-btn" data-title="Toggle Spike Lines" data-attr="_cartesianSpikesEnabled" data-val="on" data-toggle="false" data-gravity="n"><svg viewBox="0 0 1000 1000" class="icon" height="1em" width="1em"><path d="M512 409c0-57-46-104-103-104-57 0-104 47-104 104 0 57 47 103 104 103 57 0 103-46 103-103z m-327-39l92 0 0 92-92 0z m-185 0l92 0 0 92-92 0z m370-186l92 0 0 93-92 0z m0-184l92 0 0 92-92 0z" transform="matrix(1.5 0 0 -1.5 0 850)"></path></svg></a><a rel="tooltip" class="modebar-btn" data-title="Show closest data on hover" data-attr="hovermode" data-val="closest" data-toggle="false" data-gravity="ne"><svg viewBox="0 0 1500 1000" class="icon" height="1em" width="1em"><path d="m375 725l0 0-375-375 375-374 0-1 1125 0 0 750-1125 0z" transform="matrix(1 0 0 -1 0 850)"></path></svg></a><a rel="tooltip" class="modebar-btn active" data-title="Compare data on hover" data-attr="hovermode" data-val="x" data-toggle="false" data-gravity="ne"><svg viewBox="0 0 1125 1000" class="icon" height="1em" width="1em"><path d="m187 786l0 2-187-188 188-187 0 0 937 0 0 373-938 0z m0-499l0 1-187-188 188-188 0 0 937 0 0 376-938-1z" transform="matrix(1 0 0 -1 0 850)"></path></svg></a></div></div></div><svg class="main-svg" style="position: absolute" xmlns="http://www.w3.org/2000/svg" xmlns:xlink="http://www.w3.org/1999/xlink" width="904.225352112676" height="642"><g class="hoverlayer"></g></svg>