<svg class="main-svg" style="position: absolute" xmlns="http://www.w3.org/2000/svg" xmlns:xlink="http://www.w3.org/1999/xlink" width="800" height="600" style="background: rgb(31, 119, 180);"><defs id="defs-61c29c"><g class="clips"><clipPath id="clip61c29cxyplot" class="plotclip"><rect width="548" height="420"></rect></clipPath><clipPath class="axesclip" id="clip61c29cx"><rect x="80" y="0" width="548" height="600"></rect></clipPath><clipPath class="axesclip" id="clip61c29cy"><rect x="0" y="100" width="800" height="420"></rect></clipPath><clipPath class="axesclip" id="clip61c29cxy"><rect x="80" y="100" width="548" height="420"></rect></clipPath></g><g class="gradients"></g></defs><g class="bglayer"></g><g class="draglayer cursor-crosshair"><g class="xy"><rect class="nsewdrag drag" data-subplot="xy" x="80" y="100" width="548" height="420" style="fill: transparent; stroke-width: 0; pointer-events: all;"></rect><rect class="nwdrag drag cursor-nw-resize" data-subplot="xy" x="60" y="80" width="20" height="20" style="fill: transparent; stroke-width: 0; pointer-events: all;"></rect><rect class="nedrag drag cursor-ne-resize" data-subplot="xy" x="628" y="80" width="20" height="20" style="fill: transparent; stroke-width: 0; pointer-events: all;"></rect><rect class="swdrag drag cursor-sw-resize" data-subplot="xy" x="60" y="520" width="20" height="20" style="fill: transparent; stroke-width: 0; pointer-events: all;"></rect><rect class="sedrag drag cursor-se-resize" data-subplot="xy" x="628" y="520" width="20" height="20" style="fill: transparent; stroke-width: 0; pointer-events: all;"></rect><rect class="ewdrag drag cursor-ew-resize" data-subplot="xy" x="134.8" y="520.5" width="438.40000000000003" height="20" style="fill: transparent; stroke-width: 0; pointer-events: all;"></rect><rect class="wdrag drag cursor-w-resize" data-subplot="xy" x="80" y="520.5" width="54.800000000000004" height="20" style="fill: transparent; stroke-width: 0; pointer-events: all;"></rect><rect class="edrag drag cursor-e-resize" data-subplot="xy" x="573.2" y="520.5" width="54.800000000000004" height="20" style="fill: transparent; stroke-width: 0; pointer-events: all;"></rect><rect class="nsdrag drag cursor-ns-resize" data-subplot="xy" x="59.5" y="142" width="20" height="336" style="fill: transparent; stroke-width: 0; pointer-events: all;"></rect><rect class="sdrag drag cursor-s-resize" data-subplot="xy" x="59.5" y="478" width="20" height="42" style="fill: transparent; stroke-width: 0; pointer-events: all;"></rect><rect class="ndrag drag cursor-n-resize" data-subplot="xy" x="59.5" y="100" width="20" height="42" style="fill: transparent; stroke-width: 0; pointer-events: all;"></rect></g></g><g class="layer-below"><g class="imagelayer"></g><g class="shapelayer"></g></g><g class="cartesianlayer"><g class="subplot xy"><g class="layer-subplot"><g class="shapelayer"></g><g class="imagelayer"></g></g><g class="gridlayer"><g class="x"></g><g class="y"><path class="ygrid crisp" transform="translate(0,476.13)" d="M80,0h548" style="stroke: rgb(255, 255, 255); stroke-opacity: 1; stroke-width: 1px;"></path><path class="ygrid crisp" transform="translate(0,432.26)" d="M80,0h548" style="stroke: rgb(255, 255, 255); stroke-opacity: 1; stroke-width: 1px;"></path><path class="ygrid crisp" transform="translate(0,388.4)" d="M80,0h548" style="stroke: rgb(255, 255, 255); stroke-opacity: 1; stroke-width: 1px;"></path><path class="ygrid crisp" transform="translate(0,344.53)" d="M80,0h548" style="stroke: rgb(255, 255, 255); stroke-opacity: 1; stroke-width: 1px;"></path><path class="ygrid crisp" transform="translate(0,300.65999999999997)" d="M80,0h548" style="stroke: rgb(255, 255, 255); stroke-opacity: 1; stroke-width: 1px;"></path><path class="ygrid crisp" transform="translate(0,256.78999999999996)" d="M80,0h548" style="stroke: rgb(255, 255, 255); stroke-opacity: 1; stroke-width: 1px;"></path><path class="ygrid crisp" transform="translate(0,212.92000000000002)" d="M80,0h548" style="stroke: rgb(255, 255, 255); stroke-opacity: 1; stroke-width: 1px;"></path><path class="ygrid crisp" transform="translate(0,169.05)" d="M80,0h548" style="stroke: rgb(255, 255, 255); stroke-opacity: 1; stroke-width: 1px;"></path><path class="ygrid crisp" transform="translate(0,125.19)" d="M80,0h548" style="stroke: rgb(255, 255, 255); stroke-opacity: 1; stroke-width: 1px;"></path></g></g><g class="zerolinelayer"></g><path class="xlines-below"></path><path class="ylines-below"></path><g class="overlines-below"></g><g class="xaxislayer-below"></g><g class="yaxislayer-below"></g><g class="overaxes-below"></g><g class="plot" transform="translate(80,100)" clip-path="url('#clip61c29cxyplot')"><g class="barlayer mlayer"><g class="trace bars" shape-rendering="crispEdges" style="opacity: 1;"><g class="points"><g class="point"><path d="M0,420V416H30V420Z" style="vector-effect: non-scaling-stroke; opacity: 1; stroke-width: 0px; fill: rgb(255, 127, 14); fill-opacity: 1;"></path></g><g class="point"><path d="M30,420V398H61V420Z" style="vector-effect: non-scaling-stroke; opacity: 1; stroke-width: 0px; fill: rgb(255, 127, 14); fill-opacity: 1;"></path></g><g class="point"><path d="M61,420V350H91V420Z" style="vector-effect: non-scaling-stroke; opacity: 1; stroke-width: 0px; fill: rgb(255, 127, 14); fill-opacity: 1;"></path></g><g class="point"><path d="M91,420V312H122V420Z" style="vector-effect: non-scaling-stroke; opacity: 1; stroke-width: 0px; fill: rgb(255, 127, 14); fill-opacity: 1;"></path></g><g class="point"><path d="M122,420V329H152V420Z" style="vector-effect: non-scaling-stroke; opacity: 1; stroke-width: 0px; fill: rgb(255, 127, 14); fill-opacity: 1;"></path></g><g class="point"><path d="M152,420V320H183V420Z" style="vector-effect: non-scaling-stroke; opacity: 1; stroke-width: 0px; fill: rgb(255, 127, 14); fill-opacity: 1;"></path></g><g class="point"><path d="M183,420V212H213V420Z" style="vector-effect: non-scaling-stroke; opacity: 1; stroke-width: 0px; fill: rgb(255, 127, 14); fill-opacity: 1;"></path></g><g class="point"><path d="M213,420V264H244V420Z" style="vector-effect: non-scaling-stroke; opacity: 1; stroke-width: 0px; fill: rgb(255, 127, 14); fill-opacity: 1;"></path></g><g class="point"><path d="M244,420V67H274V420Z" style="vector-effect: non-scaling-stroke; opacity: 1; stroke-width: 0px; fill: rgb(255, 127, 14); fill-opacity: 1;"></path></g><g class="point"><path d="M274,420V230H304V420Z" style="vector-effect: non-scaling-stroke; opacity: 1; stroke-width: 0px; fill: rgb(255, 127, 14); fill-opacity: 1;"></path></g><g class="point"><path d="M304,420V312H335V420Z" style="vector-effect: non-scaling-stroke; opacity: 1; stroke-width: 0px; fill: rgb(255, 127, 14); fill-opacity: 1;"></path></g><g class="point"><path d="M335,420V405H365V420Z" style="vector-effect: non-scaling-stroke; opacity: 1; stroke-width: 0px; fill: rgb(255, 127, 14); fill-opacity: 1;"></path></g><g class="point"><path d="M365,420V393H396V420Z" style="vector-effect: non-scaling-stroke; opacity: 1; stroke-width: 0px; fill: rgb(255, 127, 14); fill-opacity: 1;"></path></g><g class="point"><path d="M396,420V362H426V420Z" style="vector-effect: non-scaling-stroke; opacity: 1; stroke-width: 0px; fill: rgb(255, 127, 14); fill-opacity: 1;"></path></g><g class="point"><path d="M426,420V371H457V420Z" style="vector-effect: non-scaling-stroke; opacity: 1; stroke-width: 0px; fill: rgb(255, 127, 14); fill-opacity: 1;"></path></g><g class="point"><path d="M457,420V385H487V420Z" style="vector-effect: non-scaling-stroke; opacity: 1; stroke-width: 0px; fill: rgb(255, 127, 14); fill-opacity: 1;"></path></g><g class="point"><path d="M487,420V387H518V420Z" style="vector-effect: non-scaling-stroke; opacity: 1; stroke-width: 0px; fill: rgb(255, 127, 14); fill-opacity: 1;"></path></g><g class="point"><path d="M518,420V360H548V420Z" style="vector-effect: non-scaling-stroke; opacity: 1; stroke-width: 0px; fill: rgb(255, 127, 14); fill-opacity: 1;"></path></g></g></g><g class="trace bars" shape-rendering="crispEdges" style="opacity: 1;"><g class="points"><g class="point"><path d="M0,416V415H30V416Z" style="vector-effect: non-scaling-stroke; opacity: 1; stroke-width: 0px; fill: rgb(44, 160, 44); fill-opacity: 1;"></path></g><g class="point"><path d="M30,399V397H61V399Z" style="vector-effect: non-scaling-stroke; opacity: 1; stroke-width: 0px; fill: rgb(44, 160, 44); fill-opacity: 1;"></path></g><g class="point"><path d="M61,350V349H91V350Z" style="vector-effect: non-scaling-stroke; opacity: 1; stroke-width: 0px; fill: rgb(44, 160, 44); fill-opacity: 1;"></path></g><g class="point"><path d="M91,313V311H122V313Z" style="vector-effect: non-scaling-stroke; opacity: 1; stroke-width: 0px; fill: rgb(44, 160, 44); fill-opacity: 1;"></path></g><g class="point"><path d="M122,330V328H152V330Z" style="vector-effect: non-scaling-stroke; opacity: 1; stroke-width: 0px; fill: rgb(44, 160, 44); fill-opacity: 1;"></path></g><g class="point"><path d="M152,321V319H183V321Z" style="vector-effect: non-scaling-stroke; opacity: 1; stroke-width: 0px; fill: rgb(44, 160, 44); fill-opacity: 1;"></path></g><g class="point"><path d="M183,213V211H213V213Z" style="vector-effect: non-scaling-stroke; opacity: 1; stroke-width: 0px; fill: rgb(44, 160, 44); fill-opacity: 1;"></path></g><g class="point"><path d="M213,265V262H244V265Z" style="vector-effect: non-scaling-stroke; opacity: 1; stroke-width: 0px; fill: rgb(44, 160, 44); fill-opacity: 1;"></path></g><g class="point"><path d="M244,67V59H274V67Z" style="vector-effect: non-scaling-stroke; opacity: 1; stroke-width: 0px; fill: rgb(44, 160, 44); fill-opacity: 1;"></path></g><g class="point"><path d="M274,230V213H304V230Z" style="vector-effect: non-scaling-stroke; opacity: 1; stroke-width: 0px; fill: rgb(44, 160, 44); fill-opacity: 1;"></path></g><g class="point"><path d="M304,312V286H335V312Z" style="vector-effect: non-scaling-stroke; opacity: 1; stroke-width: 0px; fill: rgb(44, 160, 44); fill-opacity: 1;"></path></g><g class="point"><path d="M335,405V402H365V405Z" style="vector-effect: non-scaling-stroke; opacity: 1; stroke-width: 0px; fill: rgb(44, 160, 44); fill-opacity: 1;"></path></g><g class="point"><path d="M365,393V385H396V393Z" style="vector-effect: non-scaling-stroke; opacity: 1; stroke-width: 0px; fill: rgb(44, 160, 44); fill-opacity: 1;"></path></g><g class="point"><path d="M396,362V335H426V362Z" style="vector-effect: non-scaling-stroke; opacity: 1; stroke-width: 0px; fill: rgb(44, 160, 44); fill-opacity: 1;"></path></g><g class="point"><path d="M426,371V314H457V371Z" style="vector-effect: non-scaling-stroke; opacity: 1; stroke-width: 0px; fill: rgb(44, 160, 44); fill-opacity: 1;"></path></g><g class="point"><path d="M457,385V305H487V385Z" style="vector-effect: non-scaling-stroke; opacity: 1; stroke-width: 0px; fill: rgb(44, 160, 44); fill-opacity: 1;"></path></g><g class="point"><path d="M487,387V235H518V387Z" style="vector-effect: non-scaling-stroke; opacity: 1; stroke-width: 0px; fill: rgb(44, 160, 44); fill-opacity: 1;"></path></g><g class="point"><path d="M518,360V172H548V360Z" style="vector-effect: non-scaling-stroke; opacity: 1; stroke-width: 0px; fill: rgb(44, 160, 44); fill-opacity: 1;"></path></g></g></g><g class="trace bars" shape-rendering="crispEdges" style="opacity: 1;"><g class="points"><g class="point"><path d="M0,415.26V415.26H30V415.26Z" style="vector-effect: non-scaling-stroke; opacity: 1; stroke-width: 0px; fill: rgb(214, 39, 40); fill-opacity: 1;"></path></g><g class="point"><path d="M30,398V397H61V398Z" style="vector-effect: non-scaling-stroke; opacity: 1; stroke-width: 0px; fill: rgb(214, 39, 40); fill-opacity: 1;"></path></g><g class="point"><path d="M61,349.01V349.01H91V349.01Z" style="vector-effect: non-scaling-stroke; opacity: 1; stroke-width: 0px; fill: rgb(214, 39, 40); fill-opacity: 1;"></path></g><g class="point"><path d="M91,312V310H122V312Z" style="vector-effect: non-scaling-stroke; opacity: 1; stroke-width: 0px; fill: rgb(214, 39, 40); fill-opacity: 1;"></path></g><g class="point"><path d="M122,329V326H152V329Z" style="vector-effect: non-scaling-stroke; opacity: 1; stroke-width: 0px; fill: rgb(214, 39, 40); fill-opacity: 1;"></path></g><g class="point"><path d="M152,319V314H183V319Z" style="vector-effect: non-scaling-stroke; opacity: 1; stroke-width: 0px; fill: rgb(214, 39, 40); fill-opacity: 1;"></path></g><g class="point"><path d="M183,211V208H213V211Z" style="vector-effect: non-scaling-stroke; opacity: 1; stroke-width: 0px; fill: rgb(214, 39, 40); fill-opacity: 1;"></path></g><g class="point"><path d="M213,262V259H244V262Z" style="vector-effect: non-scaling-stroke; opacity: 1; stroke-width: 0px; fill: rgb(214, 39, 40); fill-opacity: 1;"></path></g><g class="point"><path d="M244,59V44H274V59Z" style="vector-effect: non-scaling-stroke; opacity: 1; stroke-width: 0px; fill: rgb(214, 39, 40); fill-opacity: 1;"></path></g><g class="point"><path d="M274,213V202H304V213Z" style="vector-effect: non-scaling-stroke; opacity: 1; stroke-width: 0px; fill: rgb(214, 39, 40); fill-opacity: 1;"></path></g><g class="point"><path d="M304,286V281H335V286Z" style="vector-effect: non-scaling-stroke; opacity: 1; stroke-width: 0px; fill: rgb(214, 39, 40); fill-opacity: 1;"></path></g><g class="point"><path d="M335,403V401H365V403Z" style="vector-effect: non-scaling-stroke; opacity: 1; stroke-width: 0px; fill: rgb(214, 39, 40); fill-opacity: 1;"></path></g><g class="point"><path d="M365,385V383H396V385Z" style="vector-effect: non-scaling-stroke; opacity: 1; stroke-width: 0px; fill: rgb(214, 39, 40); fill-opacity: 1;"></path></g><g class="point"><path d="M396,335V328H426V335Z" style="vector-effect: non-scaling-stroke; opacity: 1; stroke-width: 0px; fill: rgb(214, 39, 40); fill-opacity: 1;"></path></g><g class="point"><path d="M426,314V295H457V314Z" style="vector-effect: non-scaling-stroke; opacity: 1; stroke-width: 0px; fill: rgb(214, 39, 40); fill-opacity: 1;"></path></g><g class="point"><path d="M457,305V236H487V305Z" style="vector-effect: non-scaling-stroke; opacity: 1; stroke-width: 0px; fill: rgb(214, 39, 40); fill-opacity: 1;"></path></g><g class="point"><path d="M487,235V115H518V235Z" style="vector-effect: non-scaling-stroke; opacity: 1; stroke-width: 0px; fill: rgb(214, 39, 40); fill-opacity: 1;"></path></g><g class="point"><path d="M518,172V49H548V172Z" style="vector-effect: non-scaling-stroke; opacity: 1; stroke-width: 0px; fill: rgb(214, 39, 40); fill-opacity: 1;"></path></g></g></g><g class="trace bars" shape-rendering="crispEdges" style="opacity: 1;"><g class="points"><g class="point"><path d="M0,415.26V415.26H30V415.26Z" style="vector-effect: non-scaling-stroke; opacity: 1; stroke-width: 0px; fill: rgb(227, 119, 194); fill-opacity: 1;"></path></g><g class="point"><path d="M30,397.38V397.38H61V397.38Z" style="vector-effect: non-scaling-stroke; opacity: 1; stroke-width: 0px; fill: rgb(227, 119, 194); fill-opacity: 1;"></path></g><g class="point"><path d="M61,350V349H91V350Z" style="vector-effect: non-scaling-stroke; opacity: 1; stroke-width: 0px; fill: rgb(227, 119, 194); fill-opacity: 1;"></path></g><g class="point"><path d="M91,310V309H122V310Z" style="vector-effect: non-scaling-stroke; opacity: 1; stroke-width: 0px; fill: rgb(227, 119, 194); fill-opacity: 1;"></path></g><g class="point"><path d="M122,327V325H152V327Z" style="vector-effect: non-scaling-stroke; opacity: 1; stroke-width: 0px; fill: rgb(227, 119, 194); fill-opacity: 1;"></path></g><g class="point"><path d="M152,314V313H183V314Z" style="vector-effect: non-scaling-stroke; opacity: 1; stroke-width: 0px; fill: rgb(227, 119, 194); fill-opacity: 1;"></path></g><g class="point"><path d="M183,208V207H213V208Z" style="vector-effect: non-scaling-stroke; opacity: 1; stroke-width: 0px; fill: rgb(227, 119, 194); fill-opacity: 1;"></path></g><g class="point"><path d="M213,260V259H244V260Z" style="vector-effect: non-scaling-stroke; opacity: 1; stroke-width: 0px; fill: rgb(227, 119, 194); fill-opacity: 1;"></path></g><g class="point"><path d="M244,45V44H274V45Z" style="vector-effect: non-scaling-stroke; opacity: 1; stroke-width: 0px; fill: rgb(227, 119, 194); fill-opacity: 1;"></path></g><g class="point"><path d="M274,202V201H304V202Z" style="vector-effect: non-scaling-stroke; opacity: 1; stroke-width: 0px; fill: rgb(227, 119, 194); fill-opacity: 1;"></path></g><g class="point"><path d="M304,282V280H335V282Z" style="vector-effect: non-scaling-stroke; opacity: 1; stroke-width: 0px; fill: rgb(227, 119, 194); fill-opacity: 1;"></path></g><g class="point"><path d="M335,402V401H365V402Z" style="vector-effect: non-scaling-stroke; opacity: 1; stroke-width: 0px; fill: rgb(227, 119, 194); fill-opacity: 1;"></path></g><g class="point"><path d="M365,384V382H396V384Z" style="vector-effect: non-scaling-stroke; opacity: 1; stroke-width: 0px; fill: rgb(227, 119, 194); fill-opacity: 1;"></path></g><g class="point"><path d="M396,328V327H426V328Z" style="vector-effect: non-scaling-stroke; opacity: 1; stroke-width: 0px; fill: rgb(227, 119, 194); fill-opacity: 1;"></path></g><g class="point"><path d="M426,295V293H457V295Z" style="vector-effect: non-scaling-stroke; opacity: 1; stroke-width: 0px; fill: rgb(227, 119, 194); fill-opacity: 1;"></path></g><g class="point"><path d="M457,236V232H487V236Z" style="vector-effect: non-scaling-stroke; opacity: 1; stroke-width: 0px; fill: rgb(227, 119, 194); fill-opacity: 1;"></path></g><g class="point"><path d="M487,115V107H518V115Z" style="vector-effect: non-scaling-stroke; opacity: 1; stroke-width: 0px; fill: rgb(227, 119, 194); fill-opacity: 1;"></path></g><g class="point"><path d="M518,49V34H548V49Z" style="vector-effect: non-scaling-stroke; opacity: 1; stroke-width: 0px; fill: rgb(227, 119, 194); fill-opacity: 1;"></path></g></g></g><g class="trace bars" shape-rendering="crispEdges" style="opacity: 1;"><g class="points"><g class="point"><path d="M0,416V414H30V416Z" style="vector-effect: non-scaling-stroke; opacity: 1; stroke-width: 0px; fill: rgb(0, 0, 0); fill-opacity: 1;"></path></g><g class="point"><path d="M30,397V394H61V397Z" style="vector-effect: non-scaling-stroke; opacity: 1; stroke-width: 0px; fill: rgb(0, 0, 0); fill-opacity: 1;"></path></g><g class="point"><path d="M61,349V345H91V349Z" style="vector-effect: non-scaling-stroke; opacity: 1; stroke-width: 0px; fill: rgb(0, 0, 0); fill-opacity: 1;"></path></g><g class="point"><path d="M91,310V306H122V310Z" style="vector-effect: non-scaling-stroke; opacity: 1; stroke-width: 0px; fill: rgb(0, 0, 0); fill-opacity: 1;"></path></g><g class="point"><path d="M122,326V318H152V326Z" style="vector-effect: non-scaling-stroke; opacity: 1; stroke-width: 0px; fill: rgb(0, 0, 0); fill-opacity: 1;"></path></g><g class="point"><path d="M152,314V297H183V314Z" style="vector-effect: non-scaling-stroke; opacity: 1; stroke-width: 0px; fill: rgb(0, 0, 0); fill-opacity: 1;"></path></g><g class="point"><path d="M183,208V190H213V208Z" style="vector-effect: non-scaling-stroke; opacity: 1; stroke-width: 0px; fill: rgb(0, 0, 0); fill-opacity: 1;"></path></g><g class="point"><path d="M213,260V258H244V260Z" style="vector-effect: non-scaling-stroke; opacity: 1; stroke-width: 0px; fill: rgb(0, 0, 0); fill-opacity: 1;"></path></g><g class="point"><path d="M244,44V34H274V44Z" style="vector-effect: non-scaling-stroke; opacity: 1; stroke-width: 0px; fill: rgb(0, 0, 0); fill-opacity: 1;"></path></g><g class="point"><path d="M274,202V168H304V202Z" style="vector-effect: non-scaling-stroke; opacity: 1; stroke-width: 0px; fill: rgb(0, 0, 0); fill-opacity: 1;"></path></g><g class="point"><path d="M304,281V240H335V281Z" style="vector-effect: non-scaling-stroke; opacity: 1; stroke-width: 0px; fill: rgb(0, 0, 0); fill-opacity: 1;"></path></g><g class="point"><path d="M335,402V397H365V402Z" style="vector-effect: non-scaling-stroke; opacity: 1; stroke-width: 0px; fill: rgb(0, 0, 0); fill-opacity: 1;"></path></g><g class="point"><path d="M365,383V375H396V383Z" style="vector-effect: non-scaling-stroke; opacity: 1; stroke-width: 0px; fill: rgb(0, 0, 0); fill-opacity: 1;"></path></g><g class="point"><path d="M396,327V310H426V327Z" style="vector-effect: non-scaling-stroke; opacity: 1; stroke-width: 0px; fill: rgb(0, 0, 0); fill-opacity: 1;"></path></g><g class="point"><path d="M426,294V274H457V294Z" style="vector-effect: non-scaling-stroke; opacity: 1; stroke-width: 0px; fill: rgb(0, 0, 0); fill-opacity: 1;"></path></g><g class="point"><path d="M457,232V223H487V232Z" style="vector-effect: non-scaling-stroke; opacity: 1; stroke-width: 0px; fill: rgb(0, 0, 0); fill-opacity: 1;"></path></g><g class="point"><path d="M487,107V98H518V107Z" style="vector-effect: non-scaling-stroke; opacity: 1; stroke-width: 0px; fill: rgb(0, 0, 0); fill-opacity: 1;"></path></g><g class="point"><path d="M518,34V21H548V34Z" style="vector-effect: non-scaling-stroke; opacity: 1; stroke-width: 0px; fill: rgb(0, 0, 0); fill-opacity: 1;"></path></g></g></g></g></g><g class="overplot"></g><path class="xlines-above crisp" d="M0,0" style="fill: none;"></path><path class="ylines-above crisp" style="fill: none;" d="M0,0"></path><g class="overlines-above"></g><g class="xaxislayer-above"><g class="xtick"><text text-anchor="middle" x="0" y="539" data-unformatted="1840" data-math="N" transform="translate(125.67,0)" style="font-family: &quot;Open sans&quot;, verdana, arial, sans-serif; font-size: 18px; fill: rgb(255, 255, 255); fill-opacity: 1; white-space: pre;">1840</text></g><g class="xtick"><text text-anchor="middle" x="0" y="539" data-unformatted="1860" data-math="N" transform="translate(186.56,0)" style="font-family: &quot;Open sans&quot;, verdana, arial, sans-serif; font-size: 18px; fill: rgb(255, 255, 255); fill-opacity: 1; white-space: pre;">1860</text></g><g class="xtick"><text text-anchor="middle" x="0" y="539" data-unformatted="1880" data-math="N" transform="translate(247.44,0)" style="font-family: &quot;Open sans&quot;, verdana, arial, sans-serif; font-size: 18px; fill: rgb(255, 255, 255); fill-opacity: 1; white-space: pre;">1880</text></g><g class="xtick"><text text-anchor="middle" x="0" y="539" data-unformatted="1900" data-math="N" transform="translate(308.33000000000004,0)" style="font-family: &quot;Open sans&quot;, verdana, arial, sans-serif; font-size: 18px; fill: rgb(255, 255, 255); fill-opacity: 1; white-space: pre;">1900</text></g><g class="xtick"><text text-anchor="middle" x="0" y="539" data-unformatted="1920" data-math="N" transform="translate(369.22,0)" style="font-family: &quot;Open sans&quot;, verdana, arial, sans-serif; font-size: 18px; fill: rgb(255, 255, 255); fill-opacity: 1; white-space: pre;">1920</text></g><g class="xtick"><text text-anchor="middle" x="0" y="539" data-unformatted="1940" data-math="N" transform="translate(430.11,0)" style="font-family: &quot;Open sans&quot;, verdana, arial, sans-serif; font-size: 18px; fill: rgb(255, 255, 255); fill-opacity: 1; white-space: pre;">1940</text></g><g class="xtick"><text text-anchor="middle" x="0" y="539" data-unformatted="1960" data-math="N" transform="translate(491,0)" style="font-family: &quot;Open sans&quot;, verdana, arial, sans-serif; font-size: 18px; fill: rgb(255, 255, 255); fill-opacity: 1; white-space: pre;">1960</text></g><g class="xtick"><text text-anchor="middle" x="0" y="539" data-unformatted="1980" data-math="N" transform="translate(551.89,0)" style="font-family: &quot;Open sans&quot;, verdana, arial, sans-serif; font-size: 18px; fill: rgb(255, 255, 255); fill-opacity: 1; white-space: pre;">1980</text></g><g class="xtick"><text text-anchor="middle" x="0" y="539" data-unformatted="2000" data-math="N" transform="translate(612.78,0)" style="font-family: &quot;Open sans&quot;, verdana, arial, sans-serif; font-size: 18px; fill: rgb(255, 255, 255); fill-opacity: 1; white-space: pre;">2000</text></g></g><g class="yaxislayer-above"><g class="ytick"><text text-anchor="end" x="79" y="6.3" data-unformatted="0" data-math="N" transform="translate(0,520)" style="font-family: &quot;Open sans&quot;, verdana, arial, sans-serif; font-size: 18px; fill: rgb(255, 255, 255); fill-opacity: 1; white-space: pre;">0</text></g><g class="ytick"><text text-anchor="end" x="79" y="6.3" data-unformatted="1M" data-math="N" transform="translate(0,476.13)" style="font-family: &quot;Open sans&quot;, verdana, arial, sans-serif; font-size: 18px; fill: rgb(255, 255, 255); fill-opacity: 1; white-space: pre;">1M</text></g><g class="ytick"><text text-anchor="end" x="79" y="6.3" data-unformatted="2M" data-math="N" transform="translate(0,432.26)" style="font-family: &quot;Open sans&quot;, verdana, arial, sans-serif; font-size: 18px; fill: rgb(255, 255, 255); fill-opacity: 1; white-space: pre;">2M</text></g><g class="ytick"><text text-anchor="end" x="79" y="6.3" data-unformatted="3M" data-math="N" transform="translate(0,388.4)" style="font-family: &quot;Open sans&quot;, verdana, arial, sans-serif; font-size: 18px; fill: rgb(255, 255, 255); fill-opacity: 1; white-space: pre;">3M</text></g><g class="ytick"><text text-anchor="end" x="79" y="6.3" data-unformatted="4M" data-math="N" transform="translate(0,344.53)" style="font-family: &quot;Open sans&quot;, verdana, arial, sans-serif; font-size: 18px; fill: rgb(255, 255, 255); fill-opacity: 1; white-space: pre;">4M</text></g><g class="ytick"><text text-anchor="end" x="79" y="6.3" data-unformatted="5M" data-math="N" transform="translate(0,300.65999999999997)" style="font-family: &quot;Open sans&quot;, verdana, arial, sans-serif; font-size: 18px; fill: rgb(255, 255, 255); fill-opacity: 1; white-space: pre;">5M</text></g><g class="ytick"><text text-anchor="end" x="79" y="6.3" data-unformatted="6M" data-math="N" transform="translate(0,256.78999999999996)" style="font-family: &quot;Open sans&quot;, verdana, arial, sans-serif; font-size: 18px; fill: rgb(255, 255, 255); fill-opacity: 1; white-space: pre;">6M</text></g><g class="ytick"><text text-anchor="end" x="79" y="6.3" data-unformatted="7M" data-math="N" transform="translate(0,212.92000000000002)" style="font-family: &quot;Open sans&quot;, verdana, arial, sans-serif; font-size: 18px; fill: rgb(255, 255, 255); fill-opacity: 1; white-space: pre;">7M</text></g><g class="ytick"><text text-anchor="end" x="79" y="6.3" data-unformatted="8M" data-math="N" transform="translate(0,169.05)" style="font-family: &quot;Open sans&quot;, verdana, arial, sans-serif; font-size: 18px; fill: rgb(255, 255, 255); fill-opacity: 1; white-space: pre;">8M</text></g><g class="ytick"><text text-anchor="end" x="79" y="6.3" data-unformatted="9M" data-math="N" transform="translate(0,125.19)" style="font-family: &quot;Open sans&quot;, verdana, arial, sans-serif; font-size: 18px; fill: rgb(255, 255, 255); fill-opacity: 1; white-space: pre;">9M</text></g></g><g class="overaxes-above"></g></g></g><g class="polarlayer"></g><g class="ternarylayer"></g><g class="geolayer"></g><g class="funnelarealayer"></g><g class="pielayer"></g><g class="treemaplayer"></g><g class="sunburstlayer"></g><g class="glimages"></g></svg><div class="gl-container"></div><svg class="main-svg" style="position: absolute" xmlns="http://www.w3.org/2000/svg" xmlns:xlink="http://www.w3.org/1999/xlink" width="800" height="600"><defs id="topdefs-61c29c"><g class="clips"></g><clipPath id="legend61c29c"><rect width="147" height="129" x="1" y="1"></rect></clipPath></defs><g class="indicatorlayer"></g><g class="layer-above"><g class="imagelayer"></g><g class="shapelayer"></g></g><g class="infolayer"><g class="legend" pointer-events="all" transform="translate(638.96,100)"><rect class="bg" shape-rendering="crispEdges" style="stroke: rgb(255, 255, 255); stroke-opacity: 1; fill: rgb(31, 119, 180); fill-opacity: 1; stroke-width: 1px;" width="148" height="130" x="0.5" y="0.5"></rect><g class="scrollbox" transform="" clip-path="url('#legend61c29c')"><g class="groups"><g class="traces" transform="translate(1,17.9)" style="opacity: 1;"><text class="legendtext" text-anchor="start" x="40" y="6.24" data-unformatted="Europe" data-math="N" style="font-family: &quot;Open sans&quot;, verdana, arial, sans-serif; font-size: 16px; fill: rgb(255, 255, 255); fill-opacity: 1; white-space: pre;">Europe</text><g class="layers" style="opacity: 1;"><g class="legendfill"></g><g class="legendlines"></g><g class="legendsymbols"><g class="legendpoints"><path class="legendundefined" d="M6,6H-6V-6H6Z" transform="translate(20,0)" style="stroke-width: 0px; fill: rgb(255, 127, 14); fill-opacity: 1;"></path></g></g></g><rect class="legendtoggle" pointer-events="all" x="0" y="-11.9" width="141.953125" height="23.8" style="cursor: pointer; fill: rgb(0, 0, 0); fill-opacity: 0;"></rect></g><g class="traces" style="opacity: 1;" transform="translate(1,41.7)"><text class="legendtext" text-anchor="start" x="40" y="6.24" data-unformatted="Latin America" data-math="N" style="font-family: &quot;Open sans&quot;, verdana, arial, sans-serif; font-size: 16px; fill: rgb(255, 255, 255); fill-opacity: 1; white-space: pre;">Latin America</text><g class="layers" style="opacity: 1;"><g class="legendfill"></g><g class="legendlines"></g><g class="legendsymbols"><g class="legendpoints"><path class="legendundefined" d="M6,6H-6V-6H6Z" transform="translate(20,0)" style="stroke-width: 0px; fill: rgb(44, 160, 44); fill-opacity: 1;"></path></g></g></g><rect class="legendtoggle" pointer-events="all" x="0" y="-11.9" width="141.953125" height="23.8" style="cursor: pointer; fill: rgb(0, 0, 0); fill-opacity: 0;"></rect></g><g class="traces" style="opacity: 1;" transform="translate(1,65.5)"><text class="legendtext" text-anchor="start" x="40" y="6.24" data-unformatted="Asia" data-math="N" style="font-family: &quot;Open sans&quot;, verdana, arial, sans-serif; font-size: 16px; fill: rgb(255, 255, 255); fill-opacity: 1; white-space: pre;">Asia</text><g class="layers" style="opacity: 1;"><g class="legendfill"></g><g class="legendlines"></g><g class="legendsymbols"><g class="legendpoints"><path class="legendundefined" d="M6,6H-6V-6H6Z" transform="translate(20,0)" style="stroke-width: 0px; fill: rgb(214, 39, 40); fill-opacity: 1;"></path></g></g></g><rect class="legendtoggle" pointer-events="all" x="0" y="-11.9" width="141.953125" height="23.8" style="cursor: pointer; fill: rgb(0, 0, 0); fill-opacity: 0;"></rect></g><g class="traces" style="opacity: 1;" transform="translate(1,89.30000000000001)"><text class="legendtext" text-anchor="start" x="40" y="6.24" data-unformatted="Africa" data-math="N" style="font-family: &quot;Open sans&quot;, verdana, arial, sans-serif; font-size: 16px; fill: rgb(255, 255, 255); fill-opacity: 1; white-space: pre;">Africa</text><g class="layers" style="opacity: 1;"><g class="legendfill"></g><g class="legendlines"></g><g class="legendsymbols"><g class="legendpoints"><path class="legendundefined" d="M6,6H-6V-6H6Z" transform="translate(20,0)" style="stroke-width: 0px; fill: rgb(227, 119, 194); fill-opacity: 1;"></path></g></g></g><rect class="legendtoggle" pointer-events="all" x="0" y="-11.9" width="141.953125" height="23.8" style="cursor: pointer; fill: rgb(0, 0, 0); fill-opacity: 0;"></rect></g><g class="traces" style="opacity: 1;" transform="translate(1,113.10000000000001)"><text class="legendtext" text-anchor="start" x="40" y="6.24" data-unformatted="Other" data-math="N" style="font-family: &quot;Open sans&quot;, verdana, arial, sans-serif; font-size: 16px; fill: rgb(255, 255, 255); fill-opacity: 1; white-space: pre;">Other</text><g class="layers" style="opacity: 1;"><g class="legendfill"></g><g class="legendlines"></g><g class="legendsymbols"><g class="legendpoints"><path class="legendundefined" d="M6,6H-6V-6H6Z" transform="translate(20,0)" style="stroke-width: 0px; fill: rgb(0, 0, 0); fill-opacity: 1;"></path></g></g></g><rect class="legendtoggle" pointer-events="all" x="0" y="-11.9" width="141.953125" height="23.8" style="cursor: pointer; fill: rgb(0, 0, 0); fill-opacity: 0;"></rect></g></g></g><rect class="scrollbar" rx="20" ry="3" width="0" height="0" style="fill: rgb(128, 139, 164); fill-opacity: 1;" x="0" y="0"></rect></g><g class="g-gtitle"><text class="gtitle" x="400" y="50" text-anchor="middle" dy="0em" data-unformatted="Immigration by Continent" data-math="N" style="font-family: &quot;Open sans&quot;, verdana, arial, sans-serif; font-size: 24px; fill: rgb(255, 255, 255); opacity: 1; font-weight: normal; white-space: pre;">Immigration by Continent</text></g><g class="g-xtitle" transform="translate(0,-2.5)"><text class="xtitle" x="354" y="596" text-anchor="middle" data-unformatted="Year" data-math="N" style="font-family: &quot;Open sans&quot;, verdana, arial, sans-serif; font-size: 22px; fill: rgb(255, 255, 255); opacity: 1; font-weight: normal; white-space: pre;">Year</text></g><g class="g-ytitle"><text class="ytitle" transform="rotate(-90,26,310)" x="26" y="310" text-anchor="middle" data-unformatted="Immigrants" data-math="N" style="font-family: &quot;Open sans&quot;, verdana, arial, sans-serif; font-size: 22px; fill: rgb(255, 255, 255); opacity: 1; font-weight: normal; white-space: pre;">Immigrants</text></g></g><g class="menulayer"></g><g class="zoomlayer"></g></svg><div class="modebar-container" style="position: absolute; top: 0px; right: 0px; width: 100%;"><div id="modebar-61c29c" class="modebar modebar--hover ease-bg"><div class="modebar-group"><a rel="tooltip" class="modebar-btn" data-title="Download plot as a png" data-toggle="false" data-gravity="n"><svg viewBox="0 0 1000 1000" class="icon" height="1em" width="1em"><path d="m500 450c-83 0-150-67-150-150 0-83 67-150 150-150 83 0 150 67 150 150 0 83-67 150-150 150z m400 150h-120c-16 0-34 13-39 29l-31 93c-6 15-23 28-40 28h-340c-16 0-34-13-39-28l-31-94c-6-15-23-28-40-28h-120c-55 0-100-45-100-100v-450c0-55 45-100 100-100h800c55 0 100 45 100 100v450c0 55-45 100-100 100z m-400-550c-138 0-250 112-250 250 0 138 112 250 250 250 138 0 250-112 250-250 0-138-112-250-250-250z m365 380c-19 0-35 16-35 35 0 19 16 35 35 35 19 0 35-16 35-35 0-19-16-35-35-35z" transform="matrix(1 0 0 -1 0 850)"></path></svg></a></div><div class="modebar-group"><a rel="tooltip" class="modebar-btn active" data-title="Zoom" data-attr="dragmode" data-val="zoom" data-toggle="false" data-gravity="n"><svg viewBox="0 0 1000 1000" class="icon" height="1em" width="1em"><path d="m1000-25l-250 251c40 63 63 138 63 218 0 224-182 406-407 406-224 0-406-182-406-406s183-406 407-406c80 0 155 22 218 62l250-250 125 125z m-812 250l0 438 437 0 0-438-437 0z m62 375l313 0 0-312-313 0 0 312z" transform="matrix(1 0 0 -1 0 850)"></path></svg></a><a rel="tooltip" class="modebar-btn" data-title="Pan" data-attr="dragmode" data-val="pan" data-toggle="false" data-gravity="n"><svg viewBox="0 0 1000 1000" class="icon" height="1em" width="1em"><path d="m1000 350l-187 188 0-125-250 0 0 250 125 0-188 187-187-187 125 0 0-250-250 0 0 125-188-188 186-187 0 125 252 0 0-250-125 0 187-188 188 188-125 0 0 250 250 0 0-126 187 188z" transform="matrix(1 0 0 -1 0 850)"></path></svg></a><a rel="tooltip" class="modebar-btn" data-title="Box Select" data-attr="dragmode" data-val="select" data-toggle="false" data-gravity="n"><svg viewBox="0 0 1000 1000" class="icon" height="1em" width="1em"><path d="m0 850l0-143 143 0 0 143-143 0z m286 0l0-143 143 0 0 143-143 0z m285 0l0-143 143 0 0 143-143 0z m286 0l0-143 143 0 0 143-143 0z m-857-286l0-143 143 0 0 143-143 0z m857 0l0-143 143 0 0 143-143 0z m-857-285l0-143 143 0 0 143-143 0z m857 0l0-143 143 0 0 143-143 0z m-857-286l0-143 143 0 0 143-143 0z m286 0l0-143 143 0 0 143-143 0z m285 0l0-143 143 0 0 143-143 0z m286 0l0-143 143 0 0 143-143 0z" transform="matrix(1 0 0 -1 0 850)"></path></svg></a><a rel="tooltip" class="modebar-btn" data-title="Lasso Select" data-attr="dragmode" data-val="lasso" data-toggle="false" data-gravity="n"><svg viewBox="0 0 1031 1000" class="icon" height="1em" width="1em"><path d="m1018 538c-36 207-290 336-568 286-277-48-473-256-436-463 10-57 36-108 76-151-13-66 11-137 68-183 34-28 75-41 114-42l-55-70 0 0c-2-1-3-2-4-3-10-14-8-34 5-45 14-11 34-8 45 4 1 1 2 3 2 5l0 0 113 140c16 11 31 24 45 40 4 3 6 7 8 11 48-3 100 0 151 9 278 48 473 255 436 462z m-624-379c-80 14-149 48-197 96 42 42 109 47 156 9 33-26 47-66 41-105z m-187-74c-19 16-33 37-39 60 50-32 109-55 174-68-42-25-95-24-135 8z m360 75c-34-7-69-9-102-8 8 62-16 128-68 170-73 59-175 54-244-5-9 20-16 40-20 61-28 159 121 317 333 354s407-60 434-217c28-159-121-318-333-355z" transform="matrix(1 0 0 -1 0 850)"></path></svg></a></div><div class="modebar-group"><a rel="tooltip" class="modebar-btn" data-title="Zoom in" data-attr="zoom" data-val="in" data-toggle="false" data-gravity="n"><svg viewBox="0 0 875 1000" class="icon" height="1em" width="1em"><path d="m1 787l0-875 875 0 0 875-875 0z m687-500l-187 0 0-187-125 0 0 187-188 0 0 125 188 0 0 187 125 0 0-187 187 0 0-125z" transform="matrix(1 0 0 -1 0 850)"></path></svg></a><a rel="tooltip" class="modebar-btn" data-title="Zoom out" data-attr="zoom" data-val="out" data-toggle="false" data-gravity="n"><svg viewBox="0 0 875 1000" class="icon" height="1em" width="1em"><path d="m0 788l0-876 875 0 0 876-875 0z m688-500l-500 0 0 125 500 0 0-125z" transform="matrix(1 0 0 -1 0 850)"></path></svg></a><a rel="tooltip" class="modebar-btn" data-title="Autoscale" data-attr="zoom" data-val="auto" data-toggle="false" data-gravity="n"><svg viewBox="0 0 1000 1000" class="icon" height="1em" width="1em"><path d="m250 850l-187 0-63 0 0-62 0-188 63 0 0 188 187 0 0 62z m688 0l-188 0 0-62 188 0 0-188 62 0 0 188 0 62-62 0z m-875-938l0 188-63 0 0-188 0-62 63 0 187 0 0 62-187 0z m875 188l0-188-188 0 0-62 188 0 62 0 0 62 0 188-62 0z m-125 188l-1 0-93-94-156 156 156 156 92-93 2 0 0 250-250 0 0-2 93-92-156-156-156 156 94 92 0 2-250 0 0-250 0 0 93 93 157-156-157-156-93 94 0 0 0-250 250 0 0 0-94 93 156 157 156-157-93-93 0 0 250 0 0 250z" transform="matrix(1 0 0 -1 0 850)"></path></svg></a><a rel="tooltip" class="modebar-btn" data-title="Reset axes" data-attr="zoom" data-val="reset" data-toggle="false" data-gravity="n"><svg viewBox="0 0 928.6 1000" class="icon" height="1em" width="1em"><path d="m786 296v-267q0-15-11-26t-25-10h-214v214h-143v-214h-214q-15 0-25 10t-11 26v267q0 1 0 2t0 2l321 264 321-264q1-1 1-4z m124 39l-34-41q-5-5-12-6h-2q-7 0-12 3l-386 322-386-322q-7-4-13-4-7 2-12 7l-35 41q-4 5-3 13t6 12l401 334q18 15 42 15t43-15l136-114v109q0 8 5 13t13 5h107q8 0 13-5t5-13v-227l122-102q5-5 6-12t-4-13z" transform="matrix(1 0 0 -1 0 850)"></path></svg></a></div><div class="modebar-group"><a rel="tooltip" class="modebar-btn" data-title="Toggle Spike Lines" data-attr="_cartesianSpikesEnabled" data-val="on" data-toggle="false" data-gravity="n"><svg viewBox="0 0 1000 1000" class="icon" height="1em" width="1em"><path d="M512 409c0-57-46-104-103-104-57 0-104 47-104 104 0 57 47 103 104 103 57 0 103-46 103-103z m-327-39l92 0 0 92-92 0z m-185 0l92 0 0 92-92 0z m370-186l92 0 0 93-92 0z m0-184l92 0 0 92-92 0z" transform="matrix(1.5 0 0 -1.5 0 850)"></path></svg></a><a rel="tooltip" class="modebar-btn" data-title="Show closest data on hover" data-attr="hovermode" data-val="closest" data-toggle="false" data-gravity="ne"><svg viewBox="0 0 1500 1000" class="icon" height="1em" width="1em"><path d="m375 725l0 0-375-375 375-374 0-1 1125 0 0 750-1125 0z" transform="matrix(1 0 0 -1 0 850)"></path></svg></a><a rel="tooltip" class="modebar-btn active" data-title="Compare data on hover" data-attr="hovermode" data-val="x" data-toggle="false" data-gravity="ne"><svg viewBox="0 0 1125 1000" class="icon" height="1em" width="1em"><path d="m187 786l0 2-187-188 188-187 0 0 937 0 0 373-938 0z m0-499l0 1-187-188 188-188 0 0 937 0 0 376-938-1z" transform="matrix(1 0 0 -1 0 850)"></path></svg></a></div></div></div><svg class="main-svg" style="position: absolute" xmlns="http://www.w3.org/2000/svg" xmlns:xlink="http://www.w3.org/1999/xlink" width="800" height="600"><g class="hoverlayer"></g></svg>