<svg class="main-svg" style="position: absolute" xmlns="http://www.w3.org/2000/svg" xmlns:xlink="http://www.w3.org/1999/xlink" width="904.225352112676" height="642" style="background: rgb(255, 255, 255);"><defs id="defs-e0f109"><g class="clips"><clipPath id="clipe0f109xyplot" class="plotclip"><rect width="744" height="462"></rect></clipPath><clipPath class="axesclip" id="clipe0f109x"><rect x="80" y="0" width="744" height="642"></rect></clipPath><clipPath class="axesclip" id="clipe0f109y"><rect x="0" y="100" width="904.225352112676" height="462"></rect></clipPath><clipPath class="axesclip" id="clipe0f109xy"><rect x="80" y="100" width="744" height="462"></rect></clipPath></g><g class="gradients"></g></defs><g class="bglayer"></g><g class="draglayer cursor-crosshair"><g class="xy"><rect class="nsewdrag drag" data-subplot="xy" x="80" y="100" width="744" height="462" style="fill: transparent; stroke-width: 0; pointer-events: all;"></rect><rect class="nwdrag drag cursor-nw-resize" data-subplot="xy" x="60" y="80" width="20" height="20" style="fill: transparent; stroke-width: 0; pointer-events: all;"></rect><rect class="nedrag drag cursor-ne-resize" data-subplot="xy" x="824" y="80" width="20" height="20" style="fill: transparent; stroke-width: 0; pointer-events: all;"></rect><rect class="swdrag drag cursor-sw-resize" data-subplot="xy" x="60" y="562" width="20" height="20" style="fill: transparent; stroke-width: 0; pointer-events: all;"></rect><rect class="sedrag drag cursor-se-resize" data-subplot="xy" x="824" y="562" width="20" height="20" style="fill: transparent; stroke-width: 0; pointer-events: all;"></rect><rect class="ewdrag drag cursor-ew-resize" data-subplot="xy" x="154.4" y="562.5" width="595.2" height="20" style="fill: transparent; stroke-width: 0; pointer-events: all;"></rect><rect class="wdrag drag cursor-w-resize" data-subplot="xy" x="80" y="562.5" width="74.4" height="20" style="fill: transparent; stroke-width: 0; pointer-events: all;"></rect><rect class="edrag drag cursor-e-resize" data-subplot="xy" x="749.6" y="562.5" width="74.4" height="20" style="fill: transparent; stroke-width: 0; pointer-events: all;"></rect><rect class="nsdrag drag cursor-ns-resize" data-subplot="xy" x="59.5" y="146.2" width="20" height="369.6" style="fill: transparent; stroke-width: 0; pointer-events: all;"></rect><rect class="sdrag drag cursor-s-resize" data-subplot="xy" x="59.5" y="515.8" width="20" height="46.2" style="fill: transparent; stroke-width: 0; pointer-events: all;"></rect><rect class="ndrag drag cursor-n-resize" data-subplot="xy" x="59.5" y="100" width="20" height="46.2" style="fill: transparent; stroke-width: 0; pointer-events: all;"></rect></g></g><g class="layer-below"><g class="imagelayer"></g><g class="shapelayer"></g></g><g class="cartesianlayer"><g class="subplot xy"><g class="layer-subplot"><g class="shapelayer"></g><g class="imagelayer"></g></g><g class="gridlayer"><g class="x"></g><g class="y"><path class="ygrid crisp" transform="translate(0,529.56)" d="M80,0h744" style="stroke: rgb(238, 238, 238); stroke-opacity: 1; stroke-width: 1px;"></path><path class="ygrid crisp" transform="translate(0,482.84)" d="M80,0h744" style="stroke: rgb(238, 238, 238); stroke-opacity: 1; stroke-width: 1px;"></path><path class="ygrid crisp" transform="translate(0,436.12)" d="M80,0h744" style="stroke: rgb(238, 238, 238); stroke-opacity: 1; stroke-width: 1px;"></path><path class="ygrid crisp" transform="translate(0,389.4)" d="M80,0h744" style="stroke: rgb(238, 238, 238); stroke-opacity: 1; stroke-width: 1px;"></path><path class="ygrid crisp" transform="translate(0,342.68)" d="M80,0h744" style="stroke: rgb(238, 238, 238); stroke-opacity: 1; stroke-width: 1px;"></path><path class="ygrid crisp" transform="translate(0,295.96000000000004)" d="M80,0h744" style="stroke: rgb(238, 238, 238); stroke-opacity: 1; stroke-width: 1px;"></path><path class="ygrid crisp" transform="translate(0,249.24)" d="M80,0h744" style="stroke: rgb(238, 238, 238); stroke-opacity: 1; stroke-width: 1px;"></path><path class="ygrid crisp" transform="translate(0,202.51999999999998)" d="M80,0h744" style="stroke: rgb(238, 238, 238); stroke-opacity: 1; stroke-width: 1px;"></path><path class="ygrid crisp" transform="translate(0,155.8)" d="M80,0h744" style="stroke: rgb(238, 238, 238); stroke-opacity: 1; stroke-width: 1px;"></path><path class="ygrid crisp" transform="translate(0,109.08)" d="M80,0h744" style="stroke: rgb(238, 238, 238); stroke-opacity: 1; stroke-width: 1px;"></path></g></g><g class="zerolinelayer"></g><path class="xlines-below"></path><path class="ylines-below"></path><g class="overlines-below"></g><g class="xaxislayer-below"></g><g class="yaxislayer-below"></g><g class="overaxes-below"></g><g class="plot" transform="translate(80,100)" clip-path="url('#clipe0f109xyplot')"><g class="boxlayer mlayer"><g class="trace boxes" style="opacity: 1;"><path class="box" d="M21.71,112.87H30.19M21.71,209.98H30.19V111.87H21.71ZM25.95,209.98V214.65M25.95,111.87V51.13" style="vector-effect: non-scaling-stroke; stroke-width: 2px; stroke: rgb(61, 153, 112); stroke-opacity: 1; fill: rgb(61, 153, 112); fill-opacity: 1;"></path><path class="box" d="M73.62,150.24H82.1M73.62,172.6H82.1V149.24H73.62ZM77.86,172.6V181.94M77.86,149.24V149.24" style="vector-effect: non-scaling-stroke; stroke-width: 2px; stroke: rgb(61, 153, 112); stroke-opacity: 1; fill: rgb(61, 153, 112); fill-opacity: 1;"></path><path class="box" d="M90.92,131.55H99.4M90.92,153.91H99.4V130.55H90.92ZM95.16,153.91V153.91M95.16,130.55V107.19" style="vector-effect: non-scaling-stroke; stroke-width: 2px; stroke: rgb(61, 153, 112); stroke-opacity: 1; fill: rgb(61, 153, 112); fill-opacity: 1;"></path><path class="box" d="M125.53,178.27H134.01M125.53,200.63H134.01V177.27H125.53ZM129.77,200.63V303.41M129.77,177.27V139.9" style="vector-effect: non-scaling-stroke; stroke-width: 2px; stroke: rgb(61, 153, 112); stroke-opacity: 1; fill: rgb(61, 153, 112); fill-opacity: 1;"></path><path class="box" d="M160.13,201.63H168.61M160.13,214.65H168.61V200.63H160.13ZM164.37,214.65V266.04M164.37,200.63V23.1" style="vector-effect: non-scaling-stroke; stroke-width: 2px; stroke: rgb(61, 153, 112); stroke-opacity: 1; fill: rgb(61, 153, 112); fill-opacity: 1;"></path><path class="box" d="M177.44,159.59H185.91M177.44,205.3H185.91V158.59H177.44ZM181.67,205.3V401.52M181.67,158.59V41.79" style="vector-effect: non-scaling-stroke; stroke-width: 2px; stroke: rgb(61, 153, 112); stroke-opacity: 1; fill: rgb(61, 153, 112); fill-opacity: 1;"></path><path class="box" d="M194.74,126.88H203.22M194.74,172.6H203.22V125.88H194.74ZM198.98,172.6V354.81M198.98,125.88V41.79" style="vector-effect: non-scaling-stroke; stroke-width: 2px; stroke: rgb(61, 153, 112); stroke-opacity: 1; fill: rgb(61, 153, 112); fill-opacity: 1;"></path><path class="box" d="M229.34,145.57H237.82M229.34,266.04H237.82V144.57H229.34ZM233.58,266.04V354.81M233.58,144.57V88.51" style="vector-effect: non-scaling-stroke; stroke-width: 2px; stroke: rgb(61, 153, 112); stroke-opacity: 1; fill: rgb(61, 153, 112); fill-opacity: 1;"></path><path class="box" d="M263.95,239.01H272.43M263.95,294.07H272.43V238.01H263.95ZM268.19,294.07V312.76M268.19,238.01V195.96" style="vector-effect: non-scaling-stroke; stroke-width: 2px; stroke: rgb(61, 153, 112); stroke-opacity: 1; fill: rgb(61, 153, 112); fill-opacity: 1;"></path><path class="box" d="M281.25,224.99H289.73M281.25,233.34H289.73V223.99H281.25ZM285.49,233.34V289.4M285.49,223.99V93.18" style="vector-effect: non-scaling-stroke; stroke-width: 2px; stroke: rgb(61, 153, 112); stroke-opacity: 1; fill: rgb(61, 153, 112); fill-opacity: 1;"></path><path class="box" d="M333.16,229.66H341.63M333.16,317.43H341.63V228.66H333.16ZM337.4,317.43V331.45M337.4,228.66V214.65" style="vector-effect: non-scaling-stroke; stroke-width: 2px; stroke: rgb(61, 153, 112); stroke-opacity: 1; fill: rgb(61, 153, 112); fill-opacity: 1;"></path><path class="box" d="M350.46,229.66H358.94M350.46,238.01H358.94V228.66H350.46ZM354.7,238.01V238.01M354.7,228.66V219.32" style="vector-effect: non-scaling-stroke; stroke-width: 2px; stroke: rgb(61, 153, 112); stroke-opacity: 1; fill: rgb(61, 153, 112); fill-opacity: 1;"></path><path class="box" d="M402.37,234.34H410.84M402.37,247.35H410.84V233.34H402.37ZM406.6,247.35V289.4M406.6,233.34V167.93" style="vector-effect: non-scaling-stroke; stroke-width: 2px; stroke: rgb(61, 153, 112); stroke-opacity: 1; fill: rgb(61, 153, 112); fill-opacity: 1;"></path><path class="box" d="M454.27,220.32H462.75M454.27,298.74H462.75V219.32H454.27ZM458.51,298.74V298.74M458.51,219.32V186.62" style="vector-effect: non-scaling-stroke; stroke-width: 2px; stroke: rgb(61, 153, 112); stroke-opacity: 1; fill: rgb(61, 153, 112); fill-opacity: 1;"></path><path class="box" d="M506.18,285.73H514.66M506.18,336.12H514.66V284.73H506.18ZM510.42,336.12V336.12M510.42,284.73V209.98" style="vector-effect: non-scaling-stroke; stroke-width: 2px; stroke: rgb(61, 153, 112); stroke-opacity: 1; fill: rgb(61, 153, 112); fill-opacity: 1;"></path><path class="box" d="M575.39,243.68H583.87M575.39,322.1H583.87V242.68H575.39ZM579.63,322.1V387.51M579.63,242.68V167.93" style="vector-effect: non-scaling-stroke; stroke-width: 2px; stroke: rgb(61, 153, 112); stroke-opacity: 1; fill: rgb(61, 153, 112); fill-opacity: 1;"></path><path class="box" d="M609.99,337.12H618.47M609.99,345.46H618.47V336.12H609.99ZM614.23,345.46V401.52M614.23,336.12V223.99" style="vector-effect: non-scaling-stroke; stroke-width: 2px; stroke: rgb(61, 153, 112); stroke-opacity: 1; fill: rgb(61, 153, 112); fill-opacity: 1;"></path><path class="box" d="M627.3,253.02H635.77M627.3,331.45H635.77V252.02H627.3ZM631.53,331.45V359.48M631.53,252.02V228.66" style="vector-effect: non-scaling-stroke; stroke-width: 2px; stroke: rgb(61, 153, 112); stroke-opacity: 1; fill: rgb(61, 153, 112); fill-opacity: 1;"></path><path class="box" d="M644.6,248.35H653.08M644.6,252.02H653.08V247.35H644.6ZM648.84,252.02V364.15M648.84,247.35V158.59" style="vector-effect: non-scaling-stroke; stroke-width: 2px; stroke: rgb(61, 153, 112); stroke-opacity: 1; fill: rgb(61, 153, 112); fill-opacity: 1;"></path><path class="box" d="M713.81,365.15H722.29M713.81,410.87H722.29V364.15H713.81ZM718.05,410.87V424.88M718.05,364.15V345.46" style="vector-effect: non-scaling-stroke; stroke-width: 2px; stroke: rgb(61, 153, 112); stroke-opacity: 1; fill: rgb(61, 153, 112); fill-opacity: 1;"></path><path class="box" d="M731.11,271.71H739.59M731.11,368.82H739.59V270.71H731.11ZM735.35,368.82V382.84M735.35,270.71V266.04" style="vector-effect: non-scaling-stroke; stroke-width: 2px; stroke: rgb(61, 153, 112); stroke-opacity: 1; fill: rgb(61, 153, 112); fill-opacity: 1;"></path></g><g class="trace boxes" style="opacity: 1;"><path class="box" d="M4.41,214.65H12.89M4.41,214.65H12.89V214.65H4.41ZM8.65,214.65V256.7M8.65,214.65V191.29" style="vector-effect: non-scaling-stroke; stroke-width: 2px; stroke: rgb(255, 65, 54); stroke-opacity: 1; fill: rgb(255, 65, 54); fill-opacity: 1;"></path><path class="box" d="M39.02,129.55H47.49M39.02,130.55H47.49V107.19H39.02ZM43.26,130.55V153.91M43.26,107.19V51.13" style="vector-effect: non-scaling-stroke; stroke-width: 2px; stroke: rgb(255, 65, 54); stroke-opacity: 1; fill: rgb(255, 65, 54); fill-opacity: 1;"></path><path class="box" d="M56.32,171.6H64.8M56.32,172.6H64.8V121.21H56.32ZM60.56,172.6V177.27M60.56,121.21V121.21" style="vector-effect: non-scaling-stroke; stroke-width: 2px; stroke: rgb(255, 65, 54); stroke-opacity: 1; fill: rgb(255, 65, 54); fill-opacity: 1;"></path><path class="box" d="M108.23,194.96H116.7M108.23,195.96H116.7V125.88H108.23ZM112.47,195.96V223.99M112.47,125.88V116.54" style="vector-effect: non-scaling-stroke; stroke-width: 2px; stroke: rgb(255, 65, 54); stroke-opacity: 1; fill: rgb(255, 65, 54); fill-opacity: 1;"></path><path class="box" d="M142.83,208.98H151.31M142.83,209.98H151.31V181.94H142.83ZM147.07,209.98V289.4M147.07,181.94V74.49" style="vector-effect: non-scaling-stroke; stroke-width: 2px; stroke: rgb(255, 65, 54); stroke-opacity: 1; fill: rgb(255, 65, 54); fill-opacity: 1;"></path><path class="box" d="M212.04,265.04H220.52M212.04,266.04H220.52V149.24H212.04ZM216.28,266.04V368.82M216.28,149.24V88.51" style="vector-effect: non-scaling-stroke; stroke-width: 2px; stroke: rgb(255, 65, 54); stroke-opacity: 1; fill: rgb(255, 65, 54); fill-opacity: 1;"></path><path class="box" d="M246.64,288.4H255.12M246.64,289.4H255.12V167.93H246.64ZM250.88,289.4V336.12M250.88,167.93V135.23" style="vector-effect: non-scaling-stroke; stroke-width: 2px; stroke: rgb(255, 65, 54); stroke-opacity: 1; fill: rgb(255, 65, 54); fill-opacity: 1;"></path><path class="box" d="M298.55,241.68H307.03M298.55,242.68H307.03V223.99H298.55ZM302.79,242.68V429.56M302.79,223.99V55.8" style="vector-effect: non-scaling-stroke; stroke-width: 2px; stroke: rgb(255, 65, 54); stroke-opacity: 1; fill: rgb(255, 65, 54); fill-opacity: 1;"></path><path class="box" d="M315.85,321.1H324.33M315.85,322.1H324.33V238.01H315.85ZM320.09,322.1V382.84M320.09,238.01V74.49" style="vector-effect: non-scaling-stroke; stroke-width: 2px; stroke: rgb(255, 65, 54); stroke-opacity: 1; fill: rgb(255, 65, 54); fill-opacity: 1;"></path><path class="box" d="M367.76,241.68H376.24M367.76,242.68H376.24V228.66H367.76ZM372,242.68V294.07M372,228.66V219.32" style="vector-effect: non-scaling-stroke; stroke-width: 2px; stroke: rgb(255, 65, 54); stroke-opacity: 1; fill: rgb(255, 65, 54); fill-opacity: 1;"></path><path class="box" d="M385.06,251.02H393.54M385.06,252.02H393.54V238.01H385.06ZM389.3,252.02V294.07M389.3,238.01V135.23" style="vector-effect: non-scaling-stroke; stroke-width: 2px; stroke: rgb(255, 65, 54); stroke-opacity: 1; fill: rgb(255, 65, 54); fill-opacity: 1;"></path><path class="box" d="M419.67,237.01H428.15M419.67,238.01H428.15V233.34H419.67ZM423.91,238.01V266.04M423.91,233.34V172.6" style="vector-effect: non-scaling-stroke; stroke-width: 2px; stroke: rgb(255, 65, 54); stroke-opacity: 1; fill: rgb(255, 65, 54); fill-opacity: 1;"></path><path class="box" d="M436.97,297.74H445.45M436.97,298.74H445.45V238.01H436.97ZM441.21,298.74V312.76M441.21,238.01V219.32" style="vector-effect: non-scaling-stroke; stroke-width: 2px; stroke: rgb(255, 65, 54); stroke-opacity: 1; fill: rgb(255, 65, 54); fill-opacity: 1;"></path><path class="box" d="M471.57,265.04H480.05M471.57,266.04H480.05V223.99H471.57ZM475.81,266.04V275.38M475.81,223.99V177.27" style="vector-effect: non-scaling-stroke; stroke-width: 2px; stroke: rgb(255, 65, 54); stroke-opacity: 1; fill: rgb(255, 65, 54); fill-opacity: 1;"></path><path class="box" d="M488.88,339.79H497.36M488.88,340.79H497.36V261.37H488.88ZM493.12,340.79V340.79M493.12,261.37V205.3" style="vector-effect: non-scaling-stroke; stroke-width: 2px; stroke: rgb(255, 65, 54); stroke-opacity: 1; fill: rgb(255, 65, 54); fill-opacity: 1;"></path><path class="box" d="M523.48,316.43H531.96M523.48,317.43H531.96V284.73H523.48ZM527.72,317.43V350.13M527.72,284.73V233.34" style="vector-effect: non-scaling-stroke; stroke-width: 2px; stroke: rgb(255, 65, 54); stroke-opacity: 1; fill: rgb(255, 65, 54); fill-opacity: 1;"></path><path class="box" d="M540.78,322.1H549.26M540.78,322.1H549.26V322.1H540.78ZM545.02,322.1V354.81M545.02,322.1V266.04" style="vector-effect: non-scaling-stroke; stroke-width: 2px; stroke: rgb(255, 65, 54); stroke-opacity: 1; fill: rgb(255, 65, 54); fill-opacity: 1;"></path><path class="box" d="M558.09,325.77H566.56M558.09,326.77H566.56V303.41H558.09ZM562.33,326.77V392.18M562.33,303.41V298.74" style="vector-effect: non-scaling-stroke; stroke-width: 2px; stroke: rgb(255, 65, 54); stroke-opacity: 1; fill: rgb(255, 65, 54); fill-opacity: 1;"></path><path class="box" d="M592.69,335.12H601.17M592.69,336.12H601.17V242.68H592.69ZM596.93,336.12V387.51M596.93,242.68V242.68" style="vector-effect: non-scaling-stroke; stroke-width: 2px; stroke: rgb(255, 65, 54); stroke-opacity: 1; fill: rgb(255, 65, 54); fill-opacity: 1;"></path><path class="box" d="M661.9,316.43H670.38M661.9,317.43H670.38V242.68H661.9ZM666.14,317.43V373.49M666.14,242.68V233.34" style="vector-effect: non-scaling-stroke; stroke-width: 2px; stroke: rgb(255, 65, 54); stroke-opacity: 1; fill: rgb(255, 65, 54); fill-opacity: 1;"></path><path class="box" d="M679.2,400.52H687.68M679.2,401.52H687.68V303.41H679.2ZM683.44,401.52V424.88M683.44,303.41V294.07" style="vector-effect: non-scaling-stroke; stroke-width: 2px; stroke: rgb(255, 65, 54); stroke-opacity: 1; fill: rgb(255, 65, 54); fill-opacity: 1;"></path><path class="box" d="M696.51,414.54H704.98M696.51,415.54H704.98V396.85H696.51ZM700.74,415.54V438.9M700.74,396.85V359.48" style="vector-effect: non-scaling-stroke; stroke-width: 2px; stroke: rgb(255, 65, 54); stroke-opacity: 1; fill: rgb(255, 65, 54); fill-opacity: 1;"></path></g></g></g><g class="overplot"></g><path class="xlines-above crisp" d="M0,0" style="fill: none;"></path><path class="ylines-above crisp" d="M0,0" style="fill: none;"></path><g class="overlines-above"></g><g class="xaxislayer-above"><g class="xtick"><text text-anchor="middle" x="0" y="575" data-unformatted="21:25<br>Aug 23, 2017" data-math="N" transform="translate(105.95,0)" style="font-family: &quot;Open Sans&quot;, verdana, arial, sans-serif; font-size: 12px; fill: rgb(68, 68, 68); fill-opacity: 1; white-space: pre;"><tspan class="line" dy="0em" x="0" y="575">21:25</tspan><tspan class="line" dy="1.3em" x="0" y="575">Aug 23, 2017</tspan></text></g><g class="xtick"><text text-anchor="middle" x="0" y="575" data-unformatted="21:30" data-math="N" transform="translate(192.47,0)" style="font-family: &quot;Open Sans&quot;, verdana, arial, sans-serif; font-size: 12px; fill: rgb(68, 68, 68); fill-opacity: 1; white-space: pre;">21:30</text></g><g class="xtick"><text text-anchor="middle" x="0" y="575" data-unformatted="21:35" data-math="N" transform="translate(278.98,0)" style="font-family: &quot;Open Sans&quot;, verdana, arial, sans-serif; font-size: 12px; fill: rgb(68, 68, 68); fill-opacity: 1; white-space: pre;">21:35</text></g><g class="xtick"><text text-anchor="middle" x="0" y="575" data-unformatted="21:40" data-math="N" transform="translate(365.49,0)" style="font-family: &quot;Open Sans&quot;, verdana, arial, sans-serif; font-size: 12px; fill: rgb(68, 68, 68); fill-opacity: 1; white-space: pre;">21:40</text></g><g class="xtick"><text text-anchor="middle" x="0" y="575" data-unformatted="21:45" data-math="N" transform="translate(452,0)" style="font-family: &quot;Open Sans&quot;, verdana, arial, sans-serif; font-size: 12px; fill: rgb(68, 68, 68); fill-opacity: 1; white-space: pre;">21:45</text></g><g class="xtick"><text text-anchor="middle" x="0" y="575" data-unformatted="21:50" data-math="N" transform="translate(538.51,0)" style="font-family: &quot;Open Sans&quot;, verdana, arial, sans-serif; font-size: 12px; fill: rgb(68, 68, 68); fill-opacity: 1; white-space: pre;">21:50</text></g><g class="xtick"><text text-anchor="middle" x="0" y="575" data-unformatted="21:55" data-math="N" transform="translate(625.02,0)" style="font-family: &quot;Open Sans&quot;, verdana, arial, sans-serif; font-size: 12px; fill: rgb(68, 68, 68); fill-opacity: 1; white-space: pre;">21:55</text></g><g class="xtick"><text text-anchor="middle" x="0" y="575" data-unformatted="22:00" data-math="N" transform="translate(711.53,0)" style="font-family: &quot;Open Sans&quot;, verdana, arial, sans-serif; font-size: 12px; fill: rgb(68, 68, 68); fill-opacity: 1; white-space: pre;">22:00</text></g><g class="xtick"><text text-anchor="middle" x="0" y="575" data-unformatted="22:05" data-math="N" transform="translate(798.05,0)" style="font-family: &quot;Open Sans&quot;, verdana, arial, sans-serif; font-size: 12px; fill: rgb(68, 68, 68); fill-opacity: 1; white-space: pre;">22:05</text></g></g><g class="yaxislayer-above"><g class="ytick"><text text-anchor="end" x="79" y="4.199999999999999" data-unformatted="12.864k" data-math="N" transform="translate(0,529.56)" style="font-family: &quot;Open Sans&quot;, verdana, arial, sans-serif; font-size: 12px; fill: rgb(68, 68, 68); fill-opacity: 1; white-space: pre;">12.864k</text></g><g class="ytick"><text text-anchor="end" x="79" y="4.199999999999999" data-unformatted="12.865k" data-math="N" transform="translate(0,482.84)" style="font-family: &quot;Open Sans&quot;, verdana, arial, sans-serif; font-size: 12px; fill: rgb(68, 68, 68); fill-opacity: 1; white-space: pre;">12.865k</text></g><g class="ytick"><text text-anchor="end" x="79" y="4.199999999999999" data-unformatted="12.866k" data-math="N" transform="translate(0,436.12)" style="font-family: &quot;Open Sans&quot;, verdana, arial, sans-serif; font-size: 12px; fill: rgb(68, 68, 68); fill-opacity: 1; white-space: pre;">12.866k</text></g><g class="ytick"><text text-anchor="end" x="79" y="4.199999999999999" data-unformatted="12.867k" data-math="N" transform="translate(0,389.4)" style="font-family: &quot;Open Sans&quot;, verdana, arial, sans-serif; font-size: 12px; fill: rgb(68, 68, 68); fill-opacity: 1; white-space: pre;">12.867k</text></g><g class="ytick"><text text-anchor="end" x="79" y="4.199999999999999" data-unformatted="12.868k" data-math="N" transform="translate(0,342.68)" style="font-family: &quot;Open Sans&quot;, verdana, arial, sans-serif; font-size: 12px; fill: rgb(68, 68, 68); fill-opacity: 1; white-space: pre;">12.868k</text></g><g class="ytick"><text text-anchor="end" x="79" y="4.199999999999999" data-unformatted="12.869k" data-math="N" transform="translate(0,295.96000000000004)" style="font-family: &quot;Open Sans&quot;, verdana, arial, sans-serif; font-size: 12px; fill: rgb(68, 68, 68); fill-opacity: 1; white-space: pre;">12.869k</text></g><g class="ytick"><text text-anchor="end" x="79" y="4.199999999999999" data-unformatted="12.87k" data-math="N" transform="translate(0,249.24)" style="font-family: &quot;Open Sans&quot;, verdana, arial, sans-serif; font-size: 12px; fill: rgb(68, 68, 68); fill-opacity: 1; white-space: pre;">12.87k</text></g><g class="ytick"><text text-anchor="end" x="79" y="4.199999999999999" data-unformatted="12.871k" data-math="N" transform="translate(0,202.51999999999998)" style="font-family: &quot;Open Sans&quot;, verdana, arial, sans-serif; font-size: 12px; fill: rgb(68, 68, 68); fill-opacity: 1; white-space: pre;">12.871k</text></g><g class="ytick"><text text-anchor="end" x="79" y="4.199999999999999" data-unformatted="12.872k" data-math="N" transform="translate(0,155.8)" style="font-family: &quot;Open Sans&quot;, verdana, arial, sans-serif; font-size: 12px; fill: rgb(68, 68, 68); fill-opacity: 1; white-space: pre;">12.872k</text></g><g class="ytick"><text text-anchor="end" x="79" y="4.199999999999999" data-unformatted="12.873k" data-math="N" transform="translate(0,109.08)" style="font-family: &quot;Open Sans&quot;, verdana, arial, sans-serif; font-size: 12px; fill: rgb(68, 68, 68); fill-opacity: 1; white-space: pre;">12.873k</text></g></g><g class="overaxes-above"></g></g></g><g class="polarlayer"></g><g class="ternarylayer"></g><g class="geolayer"></g><g class="funnelarealayer"></g><g class="pielayer"></g><g class="treemaplayer"></g><g class="sunburstlayer"></g><g class="glimages"></g></svg><div class="gl-container"></div><svg class="main-svg" style="position: absolute" xmlns="http://www.w3.org/2000/svg" xmlns:xlink="http://www.w3.org/1999/xlink" width="904.225352112676" height="642"><defs id="topdefs-e0f109"><g class="clips"></g></defs><g class="indicatorlayer"></g><g class="layer-above"><g class="imagelayer"></g><g class="shapelayer"></g></g><g class="infolayer"><g class="g-gtitle"></g><g class="g-xtitle"></g><g class="g-ytitle"></g></g><g class="menulayer"></g><g class="zoomlayer"></g></svg><div class="modebar-container" style="position: absolute; top: 0px; right: 0px; width: 100%;"><div id="modebar-e0f109" class="modebar modebar--hover ease-bg"><div class="modebar-group"><a rel="tooltip" class="modebar-btn" data-title="Download plot as a png" data-toggle="false" data-gravity="n"><svg viewBox="0 0 1000 1000" class="icon" height="1em" width="1em"><path d="m500 450c-83 0-150-67-150-150 0-83 67-150 150-150 83 0 150 67 150 150 0 83-67 150-150 150z m400 150h-120c-16 0-34 13-39 29l-31 93c-6 15-23 28-40 28h-340c-16 0-34-13-39-28l-31-94c-6-15-23-28-40-28h-120c-55 0-100-45-100-100v-450c0-55 45-100 100-100h800c55 0 100 45 100 100v450c0 55-45 100-100 100z m-400-550c-138 0-250 112-250 250 0 138 112 250 250 250 138 0 250-112 250-250 0-138-112-250-250-250z m365 380c-19 0-35 16-35 35 0 19 16 35 35 35 19 0 35-16 35-35 0-19-16-35-35-35z" transform="matrix(1 0 0 -1 0 850)"></path></svg></a></div><div class="modebar-group"><a rel="tooltip" class="modebar-btn active" data-title="Zoom" data-attr="dragmode" data-val="zoom" data-toggle="false" data-gravity="n"><svg viewBox="0 0 1000 1000" class="icon" height="1em" width="1em"><path d="m1000-25l-250 251c40 63 63 138 63 218 0 224-182 406-407 406-224 0-406-182-406-406s183-406 407-406c80 0 155 22 218 62l250-250 125 125z m-812 250l0 438 437 0 0-438-437 0z m62 375l313 0 0-312-313 0 0 312z" transform="matrix(1 0 0 -1 0 850)"></path></svg></a><a rel="tooltip" class="modebar-btn" data-title="Pan" data-attr="dragmode" data-val="pan" data-toggle="false" data-gravity="n"><svg viewBox="0 0 1000 1000" class="icon" height="1em" width="1em"><path d="m1000 350l-187 188 0-125-250 0 0 250 125 0-188 187-187-187 125 0 0-250-250 0 0 125-188-188 186-187 0 125 252 0 0-250-125 0 187-188 188 188-125 0 0 250 250 0 0-126 187 188z" transform="matrix(1 0 0 -1 0 850)"></path></svg></a></div><div class="modebar-group"><a rel="tooltip" class="modebar-btn" data-title="Zoom in" data-attr="zoom" data-val="in" data-toggle="false" data-gravity="n"><svg viewBox="0 0 875 1000" class="icon" height="1em" width="1em"><path d="m1 787l0-875 875 0 0 875-875 0z m687-500l-187 0 0-187-125 0 0 187-188 0 0 125 188 0 0 187 125 0 0-187 187 0 0-125z" transform="matrix(1 0 0 -1 0 850)"></path></svg></a><a rel="tooltip" class="modebar-btn" data-title="Zoom out" data-attr="zoom" data-val="out" data-toggle="false" data-gravity="n"><svg viewBox="0 0 875 1000" class="icon" height="1em" width="1em"><path d="m0 788l0-876 875 0 0 876-875 0z m688-500l-500 0 0 125 500 0 0-125z" transform="matrix(1 0 0 -1 0 850)"></path></svg></a><a rel="tooltip" class="modebar-btn" data-title="Autoscale" data-attr="zoom" data-val="auto" data-toggle="false" data-gravity="n"><svg viewBox="0 0 1000 1000" class="icon" height="1em" width="1em"><path d="m250 850l-187 0-63 0 0-62 0-188 63 0 0 188 187 0 0 62z m688 0l-188 0 0-62 188 0 0-188 62 0 0 188 0 62-62 0z m-875-938l0 188-63 0 0-188 0-62 63 0 187 0 0 62-187 0z m875 188l0-188-188 0 0-62 188 0 62 0 0 62 0 188-62 0z m-125 188l-1 0-93-94-156 156 156 156 92-93 2 0 0 250-250 0 0-2 93-92-156-156-156 156 94 92 0 2-250 0 0-250 0 0 93 93 157-156-157-156-93 94 0 0 0-250 250 0 0 0-94 93 156 157 156-157-93-93 0 0 250 0 0 250z" transform="matrix(1 0 0 -1 0 850)"></path></svg></a><a rel="tooltip" class="modebar-btn" data-title="Reset axes" data-attr="zoom" data-val="reset" data-toggle="false" data-gravity="n"><svg viewBox="0 0 928.6 1000" class="icon" height="1em" width="1em"><path d="m786 296v-267q0-15-11-26t-25-10h-214v214h-143v-214h-214q-15 0-25 10t-11 26v267q0 1 0 2t0 2l321 264 321-264q1-1 1-4z m124 39l-34-41q-5-5-12-6h-2q-7 0-12 3l-386 322-386-322q-7-4-13-4-7 2-12 7l-35 41q-4 5-3 13t6 12l401 334q18 15 42 15t43-15l136-114v109q0 8 5 13t13 5h107q8 0 13-5t5-13v-227l122-102q5-5 6-12t-4-13z" transform="matrix(1 0 0 -1 0 850)"></path></svg></a></div><div class="modebar-group"><a rel="tooltip" class="modebar-btn" data-title="Toggle Spike Lines" data-attr="_cartesianSpikesEnabled" data-val="on" data-toggle="false" data-gravity="n"><svg viewBox="0 0 1000 1000" class="icon" height="1em" width="1em"><path d="M512 409c0-57-46-104-103-104-57 0-104 47-104 104 0 57 47 103 104 103 57 0 103-46 103-103z m-327-39l92 0 0 92-92 0z m-185 0l92 0 0 92-92 0z m370-186l92 0 0 93-92 0z m0-184l92 0 0 92-92 0z" transform="matrix(1.5 0 0 -1.5 0 850)"></path></svg></a><a rel="tooltip" class="modebar-btn" data-title="Show closest data on hover" data-attr="hovermode" data-val="closest" data-toggle="false" data-gravity="ne"><svg viewBox="0 0 1500 1000" class="icon" height="1em" width="1em"><path d="m375 725l0 0-375-375 375-374 0-1 1125 0 0 750-1125 0z" transform="matrix(1 0 0 -1 0 850)"></path></svg></a><a rel="tooltip" class="modebar-btn active" data-title="Compare data on hover" data-attr="hovermode" data-val="x" data-toggle="false" data-gravity="ne"><svg viewBox="0 0 1125 1000" class="icon" height="1em" width="1em"><path d="m187 786l0 2-187-188 188-187 0 0 937 0 0 373-938 0z m0-499l0 1-187-188 188-188 0 0 937 0 0 376-938-1z" transform="matrix(1 0 0 -1 0 850)"></path></svg></a></div></div></div><svg class="main-svg" style="position: absolute" xmlns="http://www.w3.org/2000/svg" xmlns:xlink="http://www.w3.org/1999/xlink" width="904.225352112676" height="642"><g class="hoverlayer"></g></svg>