<svg class="main-svg" style="position: absolute" xmlns="http://www.w3.org/2000/svg" xmlns:xlink="http://www.w3.org/1999/xlink" width="904.225352112676" height="642" style="background: rgb(255, 255, 255);"><defs id="defs-c6efc4"><g class="clips"><clipPath id="clipc6efc4xyplot" class="plotclip"><rect width="744" height="462"></rect></clipPath><clipPath class="axesclip" id="clipc6efc4x"><rect x="80" y="0" width="744" height="642"></rect></clipPath><clipPath class="axesclip" id="clipc6efc4y"><rect x="0" y="100" width="904.225352112676" height="462"></rect></clipPath><clipPath class="axesclip" id="clipc6efc4xy"><rect x="80" y="100" width="744" height="462"></rect></clipPath></g><g class="gradients"></g></defs><g class="bglayer"><rect class="bg" x="80" y="100" width="744" height="462" style="fill: rgb(255, 255, 255); fill-opacity: 1; stroke-width: 0;"></rect></g><g class="draglayer cursor-move"><g class="xy"><rect class="nsewdrag drag" data-subplot="xy" x="80" y="100" width="744" height="462" style="fill: transparent; stroke-width: 0; pointer-events: all;"></rect><rect class="nwdrag drag cursor-nw-resize" data-subplot="xy" x="60" y="80" width="20" height="20" style="fill: transparent; stroke-width: 0; pointer-events: all;"></rect><rect class="nedrag drag cursor-ne-resize" data-subplot="xy" x="824" y="80" width="20" height="20" style="fill: transparent; stroke-width: 0; pointer-events: all;"></rect><rect class="swdrag drag cursor-sw-resize" data-subplot="xy" x="60" y="562" width="20" height="20" style="fill: transparent; stroke-width: 0; pointer-events: all;"></rect><rect class="sedrag drag cursor-se-resize" data-subplot="xy" x="824" y="562" width="20" height="20" style="fill: transparent; stroke-width: 0; pointer-events: all;"></rect><rect class="ewdrag drag cursor-ew-resize" data-subplot="xy" x="154.4" y="562.5" width="595.2" height="20" style="fill: transparent; stroke-width: 0; pointer-events: all;"></rect><rect class="wdrag drag cursor-w-resize" data-subplot="xy" x="80" y="562.5" width="74.4" height="20" style="fill: transparent; stroke-width: 0; pointer-events: all;"></rect><rect class="edrag drag cursor-e-resize" data-subplot="xy" x="749.6" y="562.5" width="74.4" height="20" style="fill: transparent; stroke-width: 0; pointer-events: all;"></rect><rect class="nsdrag drag cursor-ns-resize" data-subplot="xy" x="59.5" y="146.2" width="20" height="369.6" style="fill: transparent; stroke-width: 0; pointer-events: all;"></rect><rect class="sdrag drag cursor-s-resize" data-subplot="xy" x="59.5" y="515.8" width="20" height="46.2" style="fill: transparent; stroke-width: 0; pointer-events: all;"></rect><rect class="ndrag drag cursor-n-resize" data-subplot="xy" x="59.5" y="100" width="20" height="46.2" style="fill: transparent; stroke-width: 0; pointer-events: all;"></rect></g></g><g class="layer-below"><g class="imagelayer"></g><g class="shapelayer"></g></g><g class="cartesianlayer"><g class="subplot xy"><g class="layer-subplot"><g class="shapelayer"></g><g class="imagelayer"></g></g><g class="gridlayer"><g class="x"></g><g class="y"><path class="ygrid crisp" transform="translate(0,546.62)" d="M80,0h744" style="stroke: rgb(238, 238, 238); stroke-opacity: 1; stroke-width: 2px;"></path><path class="ygrid crisp" transform="translate(0,520.88)" d="M80,0h744" style="stroke: rgb(238, 238, 238); stroke-opacity: 1; stroke-width: 2px;"></path><path class="ygrid crisp" transform="translate(0,495.13)" d="M80,0h744" style="stroke: rgb(238, 238, 238); stroke-opacity: 1; stroke-width: 2px;"></path><path class="ygrid crisp" transform="translate(0,469.39)" d="M80,0h744" style="stroke: rgb(238, 238, 238); stroke-opacity: 1; stroke-width: 2px;"></path><path class="ygrid crisp" transform="translate(0,443.64)" d="M80,0h744" style="stroke: rgb(238, 238, 238); stroke-opacity: 1; stroke-width: 2px;"></path><path class="ygrid crisp" transform="translate(0,417.89)" d="M80,0h744" style="stroke: rgb(238, 238, 238); stroke-opacity: 1; stroke-width: 2px;"></path><path class="ygrid crisp" transform="translate(0,392.15)" d="M80,0h744" style="stroke: rgb(238, 238, 238); stroke-opacity: 1; stroke-width: 2px;"></path><path class="ygrid crisp" transform="translate(0,366.4)" d="M80,0h744" style="stroke: rgb(238, 238, 238); stroke-opacity: 1; stroke-width: 2px;"></path><path class="ygrid crisp" transform="translate(0,340.65)" d="M80,0h744" style="stroke: rgb(238, 238, 238); stroke-opacity: 1; stroke-width: 2px;"></path><path class="ygrid crisp" transform="translate(0,314.90999999999997)" d="M80,0h744" style="stroke: rgb(238, 238, 238); stroke-opacity: 1; stroke-width: 2px;"></path><path class="ygrid crisp" transform="translate(0,289.15999999999997)" d="M80,0h744" style="stroke: rgb(238, 238, 238); stroke-opacity: 1; stroke-width: 2px;"></path><path class="ygrid crisp" transform="translate(0,263.41999999999996)" d="M80,0h744" style="stroke: rgb(238, 238, 238); stroke-opacity: 1; stroke-width: 2px;"></path><path class="ygrid crisp" transform="translate(0,237.67)" d="M80,0h744" style="stroke: rgb(238, 238, 238); stroke-opacity: 1; stroke-width: 2px;"></path><path class="ygrid crisp" transform="translate(0,211.92000000000002)" d="M80,0h744" style="stroke: rgb(238, 238, 238); stroke-opacity: 1; stroke-width: 2px;"></path><path class="ygrid crisp" transform="translate(0,186.18)" d="M80,0h744" style="stroke: rgb(238, 238, 238); stroke-opacity: 1; stroke-width: 2px;"></path><path class="ygrid crisp" transform="translate(0,160.43)" d="M80,0h744" style="stroke: rgb(238, 238, 238); stroke-opacity: 1; stroke-width: 2px;"></path><path class="ygrid crisp" transform="translate(0,134.69)" d="M80,0h744" style="stroke: rgb(238, 238, 238); stroke-opacity: 1; stroke-width: 2px;"></path><path class="ygrid crisp" transform="translate(0,108.94)" d="M80,0h744" style="stroke: rgb(238, 238, 238); stroke-opacity: 1; stroke-width: 2px;"></path></g></g><g class="zerolinelayer"></g><path class="xlines-below"></path><path class="ylines-below"></path><g class="overlines-below"></g><g class="xaxislayer-below"></g><g class="yaxislayer-below"></g><g class="overaxes-below"></g><g class="plot" transform="translate(80,100)" clip-path="url('#clipc6efc4xyplot')"><g class="boxlayer mlayer"><g class="trace boxes" style="opacity: 1;"><path class="box" d="M88.82,316.61H110.3M88.82,343.64H110.3V274.77H88.82ZM99.56,343.64V355.23M99.56,274.77V222.63M94.19,355.23H104.93M94.19,222.63H104.93" style="vector-effect: non-scaling-stroke; stroke-width: 2px; stroke: rgb(255, 127, 14); stroke-opacity: 1; fill: rgb(255, 127, 14); fill-opacity: 0.5;"></path><path class="box" d="M272.95,332.05H294.43M272.95,381.94H294.43V293.43H272.95ZM283.69,381.94V438.9M283.69,293.43V190.45M278.32,438.9H289.06M278.32,190.45H289.06" style="vector-effect: non-scaling-stroke; stroke-width: 2px; stroke: rgb(255, 127, 14); stroke-opacity: 1; fill: rgb(255, 127, 14); fill-opacity: 0.5;"></path><path class="box" d="M457.07,195.6H478.55M457.07,259.96H478.55V142.82H457.07ZM467.81,259.96V375.82M467.81,142.82V23.1M462.44,375.82H473.18M462.44,23.1H473.18" style="vector-effect: non-scaling-stroke; stroke-width: 2px; stroke: rgb(255, 127, 14); stroke-opacity: 1; fill: rgb(255, 127, 14); fill-opacity: 0.5;"></path><g class="points"><path class="point" transform="translate(86.24,355.23)" d="M9,3H3V9H-3V3H-9V-3H-3V-9H3V-3H9Z" style="opacity: 1; stroke-width: 1px; fill: rgb(31, 119, 180); fill-opacity: 0.5; stroke: rgb(31, 119, 180); stroke-opacity: 1;"></path><path class="point" transform="translate(80.83,352.65)" d="M9,3H3V9H-3V3H-9V-3H-3V-9H3V-3H9Z" style="opacity: 1; stroke-width: 1px; fill: rgb(31, 119, 180); fill-opacity: 0.5; stroke: rgb(31, 119, 180); stroke-opacity: 1;"></path><path class="point" transform="translate(86.56,334.63)" d="M9,3H3V9H-3V3H-9V-3H-3V-9H3V-3H9Z" style="opacity: 1; stroke-width: 1px; fill: rgb(31, 119, 180); fill-opacity: 0.5; stroke: rgb(31, 119, 180); stroke-opacity: 1;"></path><path class="point" transform="translate(80.06,324.33)" d="M9,3H3V9H-3V3H-9V-3H-3V-9H3V-3H9Z" style="opacity: 1; stroke-width: 1px; fill: rgb(31, 119, 180); fill-opacity: 0.5; stroke: rgb(31, 119, 180); stroke-opacity: 1;"></path><path class="point" transform="translate(82.46,308.88)" d="M9,3H3V9H-3V3H-9V-3H-3V-9H3V-3H9Z" style="opacity: 1; stroke-width: 1px; fill: rgb(31, 119, 180); fill-opacity: 0.5; stroke: rgb(31, 119, 180); stroke-opacity: 1;"></path><path class="point" transform="translate(85.56,302.45)" d="M9,3H3V9H-3V3H-9V-3H-3V-9H3V-3H9Z" style="opacity: 1; stroke-width: 1px; fill: rgb(31, 119, 180); fill-opacity: 0.5; stroke: rgb(31, 119, 180); stroke-opacity: 1;"></path><path class="point" transform="translate(83.31,247.09)" d="M9,3H3V9H-3V3H-9V-3H-3V-9H3V-3H9Z" style="opacity: 1; stroke-width: 1px; fill: rgb(31, 119, 180); fill-opacity: 0.5; stroke: rgb(31, 119, 180); stroke-opacity: 1;"></path><path class="point" transform="translate(84.52,222.63)" d="M9,3H3V9H-3V3H-9V-3H-3V-9H3V-3H9Z" style="opacity: 1; stroke-width: 1px; fill: rgb(31, 119, 180); fill-opacity: 0.5; stroke: rgb(31, 119, 180); stroke-opacity: 1;"></path></g><g class="points"><path class="point" transform="translate(266.43,438.9)" d="M9,3H3V9H-3V3H-9V-3H-3V-9H3V-3H9Z" style="opacity: 1; stroke-width: 1px; fill: rgb(31, 119, 180); fill-opacity: 0.5; stroke: rgb(31, 119, 180); stroke-opacity: 1;"></path><path class="point" transform="translate(264.85,409.29)" d="M9,3H3V9H-3V3H-9V-3H-3V-9H3V-3H9Z" style="opacity: 1; stroke-width: 1px; fill: rgb(31, 119, 180); fill-opacity: 0.5; stroke: rgb(31, 119, 180); stroke-opacity: 1;"></path><path class="point" transform="translate(268.59,405.43)" d="M9,3H3V9H-3V3H-9V-3H-3V-9H3V-3H9Z" style="opacity: 1; stroke-width: 1px; fill: rgb(31, 119, 180); fill-opacity: 0.5; stroke: rgb(31, 119, 180); stroke-opacity: 1;"></path><path class="point" transform="translate(266.36,389.98)" d="M9,3H3V9H-3V3H-9V-3H-3V-9H3V-3H9Z" style="opacity: 1; stroke-width: 1px; fill: rgb(31, 119, 180); fill-opacity: 0.5; stroke: rgb(31, 119, 180); stroke-opacity: 1;"></path><path class="point" transform="translate(270.03,386.12)" d="M9,3H3V9H-3V3H-9V-3H-3V-9H3V-3H9Z" style="opacity: 1; stroke-width: 1px; fill: rgb(31, 119, 180); fill-opacity: 0.5; stroke: rgb(31, 119, 180); stroke-opacity: 1;"></path><path class="point" transform="translate(263.6,369.39)" d="M9,3H3V9H-3V3H-9V-3H-3V-9H3V-3H9Z" style="opacity: 1; stroke-width: 1px; fill: rgb(31, 119, 180); fill-opacity: 0.5; stroke: rgb(31, 119, 180); stroke-opacity: 1;"></path><path class="point" transform="translate(264.82,361.66)" d="M9,3H3V9H-3V3H-9V-3H-3V-9H3V-3H9Z" style="opacity: 1; stroke-width: 1px; fill: rgb(31, 119, 180); fill-opacity: 0.5; stroke: rgb(31, 119, 180); stroke-opacity: 1;"></path><path class="point" transform="translate(271.83,352.65)" d="M9,3H3V9H-3V3H-9V-3H-3V-9H3V-3H9Z" style="opacity: 1; stroke-width: 1px; fill: rgb(31, 119, 180); fill-opacity: 0.5; stroke: rgb(31, 119, 180); stroke-opacity: 1;"></path><path class="point" transform="translate(266.23,334.63)" d="M9,3H3V9H-3V3H-9V-3H-3V-9H3V-3H9Z" style="opacity: 1; stroke-width: 1px; fill: rgb(31, 119, 180); fill-opacity: 0.5; stroke: rgb(31, 119, 180); stroke-opacity: 1;"></path><path class="point" transform="translate(264.03,332.05)" d="M9,3H3V9H-3V3H-9V-3H-3V-9H3V-3H9Z" style="opacity: 1; stroke-width: 1px; fill: rgb(31, 119, 180); fill-opacity: 0.5; stroke: rgb(31, 119, 180); stroke-opacity: 1;"></path><path class="point" transform="translate(266.11,332.05)" d="M9,3H3V9H-3V3H-9V-3H-3V-9H3V-3H9Z" style="opacity: 1; stroke-width: 1px; fill: rgb(31, 119, 180); fill-opacity: 0.5; stroke: rgb(31, 119, 180); stroke-opacity: 1;"></path><path class="point" transform="translate(267.49,330.77)" d="M9,3H3V9H-3V3H-9V-3H-3V-9H3V-3H9Z" style="opacity: 1; stroke-width: 1px; fill: rgb(31, 119, 180); fill-opacity: 0.5; stroke: rgb(31, 119, 180); stroke-opacity: 1;"></path><path class="point" transform="translate(269.15,328.19)" d="M9,3H3V9H-3V3H-9V-3H-3V-9H3V-3H9Z" style="opacity: 1; stroke-width: 1px; fill: rgb(31, 119, 180); fill-opacity: 0.5; stroke: rgb(31, 119, 180); stroke-opacity: 1;"></path><path class="point" transform="translate(267.97,328.19)" d="M9,3H3V9H-3V3H-9V-3H-3V-9H3V-3H9Z" style="opacity: 1; stroke-width: 1px; fill: rgb(31, 119, 180); fill-opacity: 0.5; stroke: rgb(31, 119, 180); stroke-opacity: 1;"></path><path class="point" transform="translate(266.63,281.85)" d="M9,3H3V9H-3V3H-9V-3H-3V-9H3V-3H9Z" style="opacity: 1; stroke-width: 1px; fill: rgb(31, 119, 180); fill-opacity: 0.5; stroke: rgb(31, 119, 180); stroke-opacity: 1;"></path><path class="point" transform="translate(264.92,279.27)" d="M9,3H3V9H-3V3H-9V-3H-3V-9H3V-3H9Z" style="opacity: 1; stroke-width: 1px; fill: rgb(31, 119, 180); fill-opacity: 0.5; stroke: rgb(31, 119, 180); stroke-opacity: 1;"></path><path class="point" transform="translate(267.57,240.65)" d="M9,3H3V9H-3V3H-9V-3H-3V-9H3V-3H9Z" style="opacity: 1; stroke-width: 1px; fill: rgb(31, 119, 180); fill-opacity: 0.5; stroke: rgb(31, 119, 180); stroke-opacity: 1;"></path><path class="point" transform="translate(266.76,207.18)" d="M9,3H3V9H-3V3H-9V-3H-3V-9H3V-3H9Z" style="opacity: 1; stroke-width: 1px; fill: rgb(31, 119, 180); fill-opacity: 0.5; stroke: rgb(31, 119, 180); stroke-opacity: 1;"></path><path class="point" transform="translate(268.76,190.45)" d="M9,3H3V9H-3V3H-9V-3H-3V-9H3V-3H9Z" style="opacity: 1; stroke-width: 1px; fill: rgb(31, 119, 180); fill-opacity: 0.5; stroke: rgb(31, 119, 180); stroke-opacity: 1;"></path></g><g class="points"><path class="point" transform="translate(451.26,375.82)" d="M9,3H3V9H-3V3H-9V-3H-3V-9H3V-3H9Z" style="opacity: 1; stroke-width: 1px; fill: rgb(31, 119, 180); fill-opacity: 0.5; stroke: rgb(31, 119, 180); stroke-opacity: 1;"></path><path class="point" transform="translate(448.33,299.87)" d="M9,3H3V9H-3V3H-9V-3H-3V-9H3V-3H9Z" style="opacity: 1; stroke-width: 1px; fill: rgb(31, 119, 180); fill-opacity: 0.5; stroke: rgb(31, 119, 180); stroke-opacity: 1;"></path><path class="point" transform="translate(446.69,259.96)" d="M9,3H3V9H-3V3H-9V-3H-3V-9H3V-3H9Z" style="opacity: 1; stroke-width: 1px; fill: rgb(31, 119, 180); fill-opacity: 0.5; stroke: rgb(31, 119, 180); stroke-opacity: 1;"></path><path class="point" transform="translate(454.37,236.79)" d="M9,3H3V9H-3V3H-9V-3H-3V-9H3V-3H9Z" style="opacity: 1; stroke-width: 1px; fill: rgb(31, 119, 180); fill-opacity: 0.5; stroke: rgb(31, 119, 180); stroke-opacity: 1;"></path><path class="point" transform="translate(447.47,205.9)" d="M9,3H3V9H-3V3H-9V-3H-3V-9H3V-3H9Z" style="opacity: 1; stroke-width: 1px; fill: rgb(31, 119, 180); fill-opacity: 0.5; stroke: rgb(31, 119, 180); stroke-opacity: 1;"></path><path class="point" transform="translate(454.64,185.3)" d="M9,3H3V9H-3V3H-9V-3H-3V-9H3V-3H9Z" style="opacity: 1; stroke-width: 1px; fill: rgb(31, 119, 180); fill-opacity: 0.5; stroke: rgb(31, 119, 180); stroke-opacity: 1;"></path><path class="point" transform="translate(452.85,158.27)" d="M9,3H3V9H-3V3H-9V-3H-3V-9H3V-3H9Z" style="opacity: 1; stroke-width: 1px; fill: rgb(31, 119, 180); fill-opacity: 0.5; stroke: rgb(31, 119, 180); stroke-opacity: 1;"></path><path class="point" transform="translate(450.11,142.82)" d="M9,3H3V9H-3V3H-9V-3H-3V-9H3V-3H9Z" style="opacity: 1; stroke-width: 1px; fill: rgb(31, 119, 180); fill-opacity: 0.5; stroke: rgb(31, 119, 180); stroke-opacity: 1;"></path><path class="point" transform="translate(448.63,32.11)" d="M9,3H3V9H-3V3H-9V-3H-3V-9H3V-3H9Z" style="opacity: 1; stroke-width: 1px; fill: rgb(31, 119, 180); fill-opacity: 0.5; stroke: rgb(31, 119, 180); stroke-opacity: 1;"></path><path class="point" transform="translate(454.01,23.1)" d="M9,3H3V9H-3V3H-9V-3H-3V-9H3V-3H9Z" style="opacity: 1; stroke-width: 1px; fill: rgb(31, 119, 180); fill-opacity: 0.5; stroke: rgb(31, 119, 180); stroke-opacity: 1;"></path></g><path class="mean" d="M88.82,305.99H110.3" style="fill: none; vector-effect: non-scaling-stroke; stroke-width: 2; stroke-dasharray: 4px, 2px; stroke: rgb(255, 127, 14); stroke-opacity: 1;"></path><path class="mean" d="M272.95,331.51H294.43" style="fill: none; vector-effect: non-scaling-stroke; stroke-width: 2; stroke-dasharray: 4px, 2px; stroke: rgb(255, 127, 14); stroke-opacity: 1;"></path><path class="mean" d="M457.07,191.99H478.55" style="fill: none; vector-effect: non-scaling-stroke; stroke-width: 2; stroke-dasharray: 4px, 2px; stroke: rgb(255, 127, 14); stroke-opacity: 1;"></path></g><g class="trace boxes" style="opacity: 1;"><path class="box" d="M671.88,316.61H693.37M671.88,352.65H693.37V222.63H671.88ZM682.63,352.65V438.9M682.63,222.63V32.11M677.25,438.9H688M677.25,32.11H688" style="vector-effect: non-scaling-stroke; stroke-width: 2px; stroke: rgb(188, 189, 34); stroke-opacity: 1; fill: rgb(188, 189, 34); fill-opacity: 0.5;"></path><g class="points"><path class="point" transform="translate(667.89,438.9)" d="M9,3H3V9H-3V3H-9V-3H-3V-9H3V-3H9Z" style="opacity: 1; stroke-width: 1px; fill: rgb(127, 127, 127); fill-opacity: 0.5; stroke: rgb(127, 127, 127); stroke-opacity: 1;"></path><path class="point" transform="translate(664.75,409.29)" d="M9,3H3V9H-3V3H-9V-3H-3V-9H3V-3H9Z" style="opacity: 1; stroke-width: 1px; fill: rgb(127, 127, 127); fill-opacity: 0.5; stroke: rgb(127, 127, 127); stroke-opacity: 1;"></path><path class="point" transform="translate(668.72,405.43)" d="M9,3H3V9H-3V3H-9V-3H-3V-9H3V-3H9Z" style="opacity: 1; stroke-width: 1px; fill: rgb(127, 127, 127); fill-opacity: 0.5; stroke: rgb(127, 127, 127); stroke-opacity: 1;"></path><path class="point" transform="translate(664.05,389.98)" d="M9,3H3V9H-3V3H-9V-3H-3V-9H3V-3H9Z" style="opacity: 1; stroke-width: 1px; fill: rgb(127, 127, 127); fill-opacity: 0.5; stroke: rgb(127, 127, 127); stroke-opacity: 1;"></path><path class="point" transform="translate(665.76,386.12)" d="M9,3H3V9H-3V3H-9V-3H-3V-9H3V-3H9Z" style="opacity: 1; stroke-width: 1px; fill: rgb(127, 127, 127); fill-opacity: 0.5; stroke: rgb(127, 127, 127); stroke-opacity: 1;"></path><path class="point" transform="translate(668.2,375.82)" d="M9,3H3V9H-3V3H-9V-3H-3V-9H3V-3H9Z" style="opacity: 1; stroke-width: 1px; fill: rgb(127, 127, 127); fill-opacity: 0.5; stroke: rgb(127, 127, 127); stroke-opacity: 1;"></path><path class="point" transform="translate(666.39,369.39)" d="M9,3H3V9H-3V3H-9V-3H-3V-9H3V-3H9Z" style="opacity: 1; stroke-width: 1px; fill: rgb(127, 127, 127); fill-opacity: 0.5; stroke: rgb(127, 127, 127); stroke-opacity: 1;"></path><path class="point" transform="translate(667.54,361.66)" d="M9,3H3V9H-3V3H-9V-3H-3V-9H3V-3H9Z" style="opacity: 1; stroke-width: 1px; fill: rgb(127, 127, 127); fill-opacity: 0.5; stroke: rgb(127, 127, 127); stroke-opacity: 1;"></path><path class="point" transform="translate(665.26,355.23)" d="M9,3H3V9H-3V3H-9V-3H-3V-9H3V-3H9Z" style="opacity: 1; stroke-width: 1px; fill: rgb(127, 127, 127); fill-opacity: 0.5; stroke: rgb(127, 127, 127); stroke-opacity: 1;"></path><path class="point" transform="translate(663.54,352.65)" d="M9,3H3V9H-3V3H-9V-3H-3V-9H3V-3H9Z" style="opacity: 1; stroke-width: 1px; fill: rgb(127, 127, 127); fill-opacity: 0.5; stroke: rgb(127, 127, 127); stroke-opacity: 1;"></path><path class="point" transform="translate(667.7,352.65)" d="M9,3H3V9H-3V3H-9V-3H-3V-9H3V-3H9Z" style="opacity: 1; stroke-width: 1px; fill: rgb(127, 127, 127); fill-opacity: 0.5; stroke: rgb(127, 127, 127); stroke-opacity: 1;"></path><path class="point" transform="translate(664.98,334.63)" d="M9,3H3V9H-3V3H-9V-3H-3V-9H3V-3H9Z" style="opacity: 1; stroke-width: 1px; fill: rgb(127, 127, 127); fill-opacity: 0.5; stroke: rgb(127, 127, 127); stroke-opacity: 1;"></path><path class="point" transform="translate(669.79,334.63)" d="M9,3H3V9H-3V3H-9V-3H-3V-9H3V-3H9Z" style="opacity: 1; stroke-width: 1px; fill: rgb(127, 127, 127); fill-opacity: 0.5; stroke: rgb(127, 127, 127); stroke-opacity: 1;"></path><path class="point" transform="translate(661.29,332.05)" d="M9,3H3V9H-3V3H-9V-3H-3V-9H3V-3H9Z" style="opacity: 1; stroke-width: 1px; fill: rgb(127, 127, 127); fill-opacity: 0.5; stroke: rgb(127, 127, 127); stroke-opacity: 1;"></path><path class="point" transform="translate(663.9,332.05)" d="M9,3H3V9H-3V3H-9V-3H-3V-9H3V-3H9Z" style="opacity: 1; stroke-width: 1px; fill: rgb(127, 127, 127); fill-opacity: 0.5; stroke: rgb(127, 127, 127); stroke-opacity: 1;"></path><path class="point" transform="translate(670.24,330.77)" d="M9,3H3V9H-3V3H-9V-3H-3V-9H3V-3H9Z" style="opacity: 1; stroke-width: 1px; fill: rgb(127, 127, 127); fill-opacity: 0.5; stroke: rgb(127, 127, 127); stroke-opacity: 1;"></path><path class="point" transform="translate(665.24,328.19)" d="M9,3H3V9H-3V3H-9V-3H-3V-9H3V-3H9Z" style="opacity: 1; stroke-width: 1px; fill: rgb(127, 127, 127); fill-opacity: 0.5; stroke: rgb(127, 127, 127); stroke-opacity: 1;"></path><path class="point" transform="translate(662.99,328.19)" d="M9,3H3V9H-3V3H-9V-3H-3V-9H3V-3H9Z" style="opacity: 1; stroke-width: 1px; fill: rgb(127, 127, 127); fill-opacity: 0.5; stroke: rgb(127, 127, 127); stroke-opacity: 1;"></path><path class="point" transform="translate(665.16,324.33)" d="M9,3H3V9H-3V3H-9V-3H-3V-9H3V-3H9Z" style="opacity: 1; stroke-width: 1px; fill: rgb(127, 127, 127); fill-opacity: 0.5; stroke: rgb(127, 127, 127); stroke-opacity: 1;"></path><path class="point" transform="translate(666.44,308.88)" d="M9,3H3V9H-3V3H-9V-3H-3V-9H3V-3H9Z" style="opacity: 1; stroke-width: 1px; fill: rgb(127, 127, 127); fill-opacity: 0.5; stroke: rgb(127, 127, 127); stroke-opacity: 1;"></path><path class="point" transform="translate(667.98,302.45)" d="M9,3H3V9H-3V3H-9V-3H-3V-9H3V-3H9Z" style="opacity: 1; stroke-width: 1px; fill: rgb(127, 127, 127); fill-opacity: 0.5; stroke: rgb(127, 127, 127); stroke-opacity: 1;"></path><path class="point" transform="translate(666.87,299.87)" d="M9,3H3V9H-3V3H-9V-3H-3V-9H3V-3H9Z" style="opacity: 1; stroke-width: 1px; fill: rgb(127, 127, 127); fill-opacity: 0.5; stroke: rgb(127, 127, 127); stroke-opacity: 1;"></path><path class="point" transform="translate(665.63,281.85)" d="M9,3H3V9H-3V3H-9V-3H-3V-9H3V-3H9Z" style="opacity: 1; stroke-width: 1px; fill: rgb(127, 127, 127); fill-opacity: 0.5; stroke: rgb(127, 127, 127); stroke-opacity: 1;"></path><path class="point" transform="translate(664.04,279.27)" d="M9,3H3V9H-3V3H-9V-3H-3V-9H3V-3H9Z" style="opacity: 1; stroke-width: 1px; fill: rgb(127, 127, 127); fill-opacity: 0.5; stroke: rgb(127, 127, 127); stroke-opacity: 1;"></path><path class="point" transform="translate(666.51,259.96)" d="M9,3H3V9H-3V3H-9V-3H-3V-9H3V-3H9Z" style="opacity: 1; stroke-width: 1px; fill: rgb(127, 127, 127); fill-opacity: 0.5; stroke: rgb(127, 127, 127); stroke-opacity: 1;"></path><path class="point" transform="translate(665.63,247.09)" d="M9,3H3V9H-3V3H-9V-3H-3V-9H3V-3H9Z" style="opacity: 1; stroke-width: 1px; fill: rgb(127, 127, 127); fill-opacity: 0.5; stroke: rgb(127, 127, 127); stroke-opacity: 1;"></path><path class="point" transform="translate(667.88,240.65)" d="M9,3H3V9H-3V3H-9V-3H-3V-9H3V-3H9Z" style="opacity: 1; stroke-width: 1px; fill: rgb(127, 127, 127); fill-opacity: 0.5; stroke: rgb(127, 127, 127); stroke-opacity: 1;"></path><path class="point" transform="translate(666.24,236.79)" d="M9,3H3V9H-3V3H-9V-3H-3V-9H3V-3H9Z" style="opacity: 1; stroke-width: 1px; fill: rgb(127, 127, 127); fill-opacity: 0.5; stroke: rgb(127, 127, 127); stroke-opacity: 1;"></path><path class="point" transform="translate(664.5,222.63)" d="M9,3H3V9H-3V3H-9V-3H-3V-9H3V-3H9Z" style="opacity: 1; stroke-width: 1px; fill: rgb(127, 127, 127); fill-opacity: 0.5; stroke: rgb(127, 127, 127); stroke-opacity: 1;"></path><path class="point" transform="translate(663.75,207.18)" d="M9,3H3V9H-3V3H-9V-3H-3V-9H3V-3H9Z" style="opacity: 1; stroke-width: 1px; fill: rgb(127, 127, 127); fill-opacity: 0.5; stroke: rgb(127, 127, 127); stroke-opacity: 1;"></path><path class="point" transform="translate(668.16,205.9)" d="M9,3H3V9H-3V3H-9V-3H-3V-9H3V-3H9Z" style="opacity: 1; stroke-width: 1px; fill: rgb(127, 127, 127); fill-opacity: 0.5; stroke: rgb(127, 127, 127); stroke-opacity: 1;"></path><path class="point" transform="translate(664.75,195.6)" d="M9,3H3V9H-3V3H-9V-3H-3V-9H3V-3H9Z" style="opacity: 1; stroke-width: 1px; fill: rgb(127, 127, 127); fill-opacity: 0.5; stroke: rgb(127, 127, 127); stroke-opacity: 1;"></path><path class="point" transform="translate(667.73,190.45)" d="M9,3H3V9H-3V3H-9V-3H-3V-9H3V-3H9Z" style="opacity: 1; stroke-width: 1px; fill: rgb(127, 127, 127); fill-opacity: 0.5; stroke: rgb(127, 127, 127); stroke-opacity: 1;"></path><path class="point" transform="translate(666.95,185.3)" d="M9,3H3V9H-3V3H-9V-3H-3V-9H3V-3H9Z" style="opacity: 1; stroke-width: 1px; fill: rgb(127, 127, 127); fill-opacity: 0.5; stroke: rgb(127, 127, 127); stroke-opacity: 1;"></path><path class="point" transform="translate(665.93,158.27)" d="M9,3H3V9H-3V3H-9V-3H-3V-9H3V-3H9Z" style="opacity: 1; stroke-width: 1px; fill: rgb(127, 127, 127); fill-opacity: 0.5; stroke: rgb(127, 127, 127); stroke-opacity: 1;"></path><path class="point" transform="translate(665.42,142.82)" d="M9,3H3V9H-3V3H-9V-3H-3V-9H3V-3H9Z" style="opacity: 1; stroke-width: 1px; fill: rgb(127, 127, 127); fill-opacity: 0.5; stroke: rgb(127, 127, 127); stroke-opacity: 1;"></path><path class="point" transform="translate(667.31,32.11)" d="M9,3H3V9H-3V3H-9V-3H-3V-9H3V-3H9Z" style="opacity: 1; stroke-width: 1px; fill: rgb(127, 127, 127); fill-opacity: 0.5; stroke: rgb(127, 127, 127); stroke-opacity: 1;"></path><path class="point" transform="translate(666.34,23.1)" d="M9,3H3V9H-3V3H-9V-3H-3V-9H3V-3H9Z" style="opacity: 1; stroke-width: 1px; fill: rgb(127, 127, 127); fill-opacity: 0.5; stroke: rgb(127, 127, 127); stroke-opacity: 1;"></path></g><path class="mean" d="M671.88,285.85H693.37" style="fill: none; vector-effect: non-scaling-stroke; stroke-width: 2; stroke-dasharray: 4px, 2px; stroke: rgb(188, 189, 34); stroke-opacity: 1;"></path></g></g></g><g class="overplot"></g><path class="xlines-above crisp" d="M0,0" style="fill: none;"></path><path class="ylines-above crisp" style="fill: none;" d="M0,0"></path><g class="overlines-above"></g><g class="xaxislayer-above"><g class="xtick"><text text-anchor="middle" x="0" y="587" data-unformatted="Trad" data-math="N" transform="translate(179.56,0)" style="font-family: Arial; font-size: 24px; fill: rgb(31, 119, 180); fill-opacity: 1; white-space: pre;">Trad</text></g><g class="xtick"><text text-anchor="middle" x="0" y="587" data-unformatted="Suite" data-math="N" transform="translate(363.69,0)" style="font-family: Arial; font-size: 24px; fill: rgb(31, 119, 180); fill-opacity: 1; white-space: pre;">Suite</text></g><g class="xtick"><text text-anchor="middle" x="0" y="587" data-unformatted="Apt" data-math="N" transform="translate(547.81,0)" style="font-family: Arial; font-size: 24px; fill: rgb(31, 119, 180); fill-opacity: 1; white-space: pre;">Apt</text></g><g class="xtick"><text text-anchor="middle" x="0" y="587" data-unformatted="All GSF/Bed" data-math="N" transform="translate(731.94,0)" style="font-family: Arial; font-size: 24px; fill: rgb(31, 119, 180); fill-opacity: 1; white-space: pre;">All GSF/Bed</text></g></g><g class="yaxislayer-above"><g class="ytick"><text text-anchor="end" x="79" y="7" data-unformatted="220" data-math="N" transform="translate(0,546.62)" style="font-family: Arial; font-size: 20px; fill: rgb(31, 119, 180); fill-opacity: 1; white-space: pre;">220</text></g><g class="ytick"><text text-anchor="end" x="79" y="7" data-unformatted="240" data-math="N" transform="translate(0,520.88)" style="font-family: Arial; font-size: 20px; fill: rgb(31, 119, 180); fill-opacity: 1; white-space: pre;">240</text></g><g class="ytick"><text text-anchor="end" x="79" y="7" data-unformatted="260" data-math="N" transform="translate(0,495.13)" style="font-family: Arial; font-size: 20px; fill: rgb(31, 119, 180); fill-opacity: 1; white-space: pre;">260</text></g><g class="ytick"><text text-anchor="end" x="79" y="7" data-unformatted="280" data-math="N" transform="translate(0,469.39)" style="font-family: Arial; font-size: 20px; fill: rgb(31, 119, 180); fill-opacity: 1; white-space: pre;">280</text></g><g class="ytick"><text text-anchor="end" x="79" y="7" data-unformatted="300" data-math="N" transform="translate(0,443.64)" style="font-family: Arial; font-size: 20px; fill: rgb(31, 119, 180); fill-opacity: 1; white-space: pre;">300</text></g><g class="ytick"><text text-anchor="end" x="79" y="7" data-unformatted="320" data-math="N" transform="translate(0,417.89)" style="font-family: Arial; font-size: 20px; fill: rgb(31, 119, 180); fill-opacity: 1; white-space: pre;">320</text></g><g class="ytick"><text text-anchor="end" x="79" y="7" data-unformatted="340" data-math="N" transform="translate(0,392.15)" style="font-family: Arial; font-size: 20px; fill: rgb(31, 119, 180); fill-opacity: 1; white-space: pre;">340</text></g><g class="ytick"><text text-anchor="end" x="79" y="7" data-unformatted="360" data-math="N" transform="translate(0,366.4)" style="font-family: Arial; font-size: 20px; fill: rgb(31, 119, 180); fill-opacity: 1; white-space: pre;">360</text></g><g class="ytick"><text text-anchor="end" x="79" y="7" data-unformatted="380" data-math="N" transform="translate(0,340.65)" style="font-family: Arial; font-size: 20px; fill: rgb(31, 119, 180); fill-opacity: 1; white-space: pre;">380</text></g><g class="ytick"><text text-anchor="end" x="79" y="7" data-unformatted="400" data-math="N" transform="translate(0,314.90999999999997)" style="font-family: Arial; font-size: 20px; fill: rgb(31, 119, 180); fill-opacity: 1; white-space: pre;">400</text></g><g class="ytick"><text text-anchor="end" x="79" y="7" data-unformatted="420" data-math="N" transform="translate(0,289.15999999999997)" style="font-family: Arial; font-size: 20px; fill: rgb(31, 119, 180); fill-opacity: 1; white-space: pre;">420</text></g><g class="ytick"><text text-anchor="end" x="79" y="7" data-unformatted="440" data-math="N" transform="translate(0,263.41999999999996)" style="font-family: Arial; font-size: 20px; fill: rgb(31, 119, 180); fill-opacity: 1; white-space: pre;">440</text></g><g class="ytick"><text text-anchor="end" x="79" y="7" data-unformatted="460" data-math="N" transform="translate(0,237.67)" style="font-family: Arial; font-size: 20px; fill: rgb(31, 119, 180); fill-opacity: 1; white-space: pre;">460</text></g><g class="ytick"><text text-anchor="end" x="79" y="7" data-unformatted="480" data-math="N" transform="translate(0,211.92000000000002)" style="font-family: Arial; font-size: 20px; fill: rgb(31, 119, 180); fill-opacity: 1; white-space: pre;">480</text></g><g class="ytick"><text text-anchor="end" x="79" y="7" data-unformatted="500" data-math="N" transform="translate(0,186.18)" style="font-family: Arial; font-size: 20px; fill: rgb(31, 119, 180); fill-opacity: 1; white-space: pre;">500</text></g><g class="ytick"><text text-anchor="end" x="79" y="7" data-unformatted="520" data-math="N" transform="translate(0,160.43)" style="font-family: Arial; font-size: 20px; fill: rgb(31, 119, 180); fill-opacity: 1; white-space: pre;">520</text></g><g class="ytick"><text text-anchor="end" x="79" y="7" data-unformatted="540" data-math="N" transform="translate(0,134.69)" style="font-family: Arial; font-size: 20px; fill: rgb(31, 119, 180); fill-opacity: 1; white-space: pre;">540</text></g><g class="ytick"><text text-anchor="end" x="79" y="7" data-unformatted="560" data-math="N" transform="translate(0,108.94)" style="font-family: Arial; font-size: 20px; fill: rgb(31, 119, 180); fill-opacity: 1; white-space: pre;">560</text></g></g><g class="overaxes-above"></g></g></g><g class="polarlayer"></g><g class="ternarylayer"></g><g class="geolayer"></g><g class="funnelarealayer"></g><g class="pielayer"></g><g class="treemaplayer"></g><g class="sunburstlayer"></g><g class="glimages"></g></svg><div class="gl-container"></div><svg class="main-svg" style="position: absolute" xmlns="http://www.w3.org/2000/svg" xmlns:xlink="http://www.w3.org/1999/xlink" width="904.225352112676" height="642"><defs id="topdefs-c6efc4"><g class="clips"></g></defs><g class="indicatorlayer"></g><g class="layer-above"><g class="imagelayer"></g><g class="shapelayer"><path data-index="0" fill-rule="evenodd" d="M80,398.07L861.2,398.07" clip-path="url('#clipc6efc4y')" style="opacity: 1; stroke: rgb(214, 39, 40); stroke-opacity: 1; fill: rgb(0, 0, 0); fill-opacity: 0; stroke-width: 2px;"></path></g></g><g class="infolayer"><g class="g-gtitle"><text class="gtitle" x="452.112676056338" y="50" text-anchor="middle" dy="0em" data-unformatted="<b>GSF / Bed</b> (By Unit Type)" data-math="N" style="font-family: Arial; font-size: 36px; fill: rgb(31, 119, 180); opacity: 1; font-weight: normal; white-space: pre;"><tspan style="font-weight:bold">GSF / Bed</tspan> (By Unit Type)</text></g><g class="g-xtitle" transform="translate(0,-17)"><text class="xtitle" x="452" y="659" text-anchor="middle" data-unformatted="<br>" data-math="N" style="font-family: Arial; font-size: 29px; fill: rgb(31, 119, 180); opacity: 1; font-weight: normal; white-space: pre;"><tspan class="line" dy="0em" x="452" y="659"></tspan><tspan class="line" dy="1.3em" x="452" y="659"></tspan></text></g><g class="g-ytitle" transform="translate(14.5,0)"><text class="ytitle" transform="rotate(-90,12,331)" x="12" y="331" text-anchor="middle" data-unformatted="GSF / Bed" data-math="N" style="font-family: Arial; font-size: 29px; fill: rgb(31, 119, 180); opacity: 1; font-weight: normal; white-space: pre;">GSF / Bed</text></g><g class="annotation" data-index="0" style="opacity: 1;"><g class="annotation-text-g" transform="rotate(0,179.56,400.64)"><g class="cursor-pointer" transform="translate(136,388)"><rect class="bg" x="0.5" y="0.5" width="87" height="24" style="stroke-width: 1px; stroke: rgb(0, 0, 0); stroke-opacity: 0; fill: rgb(0, 0, 0); fill-opacity: 0;"></rect><text class="annotation-text" text-anchor="start" data-unformatted="<b>Avg = 329</b>" data-math="N" x="2" y="18.5" style="font-family: Arial; font-size: 18px; fill: rgb(68, 68, 68); fill-opacity: 1; white-space: pre;"><tspan style="font-weight:bold">Avg = 329</tspan></text></g></g></g><g class="annotation" data-index="1" style="opacity: 1;"><g class="annotation-text-g" transform="rotate(0,179.56,423.04)"><g class="cursor-pointer" transform="translate(121,411)"><rect class="bg" x="0.5" y="0.5" width="116" height="24" style="stroke-width: 1px; stroke: rgb(0, 0, 0); stroke-opacity: 0; fill: rgb(0, 0, 0); fill-opacity: 0;"></rect><text class="annotation-text" text-anchor="start" data-unformatted="<b>Median = 321</b>" data-math="N" x="2" y="18.5" style="font-family: Arial; font-size: 18px; fill: rgb(68, 68, 68); fill-opacity: 1; white-space: pre;"><tspan style="font-weight:bold">Median = 321</tspan></text></g></g></g><g class="annotation" data-index="2" style="opacity: 1;"><g class="annotation-text-g" transform="rotate(0,363.69,420.98)"><g class="cursor-pointer" transform="translate(320,408)"><rect class="bg" x="0.5" y="0.5" width="87" height="24" style="stroke-width: 1px; stroke: rgb(0, 0, 0); stroke-opacity: 0; fill: rgb(0, 0, 0); fill-opacity: 0;"></rect><text class="annotation-text" text-anchor="start" data-unformatted="<b>Avg = 313</b>" data-math="N" x="2" y="18.5" style="font-family: Arial; font-size: 18px; fill: rgb(60, 60, 60); fill-opacity: 1; white-space: pre;"><tspan style="font-weight:bold">Avg = 313</tspan></text></g></g></g><g class="annotation" data-index="3" style="opacity: 1;"><g class="annotation-text-g" transform="rotate(0,363.69,439.01)"><g class="cursor-pointer" transform="translate(305,427)"><rect class="bg" x="0.5" y="0.5" width="116" height="24" style="stroke-width: 1px; stroke: rgb(0, 0, 0); stroke-opacity: 0; fill: rgb(0, 0, 0); fill-opacity: 0;"></rect><text class="annotation-text" text-anchor="start" data-unformatted="<b>Median = 309</b>" data-math="N" x="2" y="18.5" style="font-family: Arial; font-size: 18px; fill: rgb(60, 60, 60); fill-opacity: 1; white-space: pre;"><tspan style="font-weight:bold">Median = 309</tspan></text></g></g></g><g class="annotation" data-index="4" style="opacity: 1;"><g class="annotation-text-g" transform="rotate(0,547.81,286.59000000000003)"><g class="cursor-pointer" transform="translate(504,274)"><rect class="bg" x="0.5" y="0.5" width="87" height="24" style="stroke-width: 1px; stroke: rgb(0, 0, 0); stroke-opacity: 0; fill: rgb(0, 0, 0); fill-opacity: 0;"></rect><text class="annotation-text" text-anchor="start" data-unformatted="<b>Avg = 418</b>" data-math="N" x="2" y="18.5" style="font-family: Arial; font-size: 18px; fill: rgb(60, 60, 60); fill-opacity: 1; white-space: pre;"><tspan style="font-weight:bold">Avg = 418</tspan></text></g></g></g><g class="annotation" data-index="5" style="opacity: 1;"><g class="annotation-text-g" transform="rotate(0,547.81,303.32)"><g class="cursor-pointer" transform="translate(489,291)"><rect class="bg" x="0.5" y="0.5" width="116" height="24" style="stroke-width: 1px; stroke: rgb(0, 0, 0); stroke-opacity: 0; fill: rgb(0, 0, 0); fill-opacity: 0;"></rect><text class="annotation-text" text-anchor="start" data-unformatted="<b>Median = 395</b>" data-math="N" x="2" y="18.5" style="font-family: Arial; font-size: 18px; fill: rgb(60, 60, 60); fill-opacity: 1; white-space: pre;"><tspan style="font-weight:bold">Median = 395</tspan></text></g></g></g><g class="annotation" data-index="6" style="opacity: 1;"><g class="annotation-text-g" transform="rotate(0,782.2,390.15999999999997)"><g class="cursor-pointer" transform="translate(703,366)"><rect class="bg" x="0.5" y="0.5" width="157" height="47" style="stroke-width: 1px; stroke: rgb(0, 0, 0); stroke-opacity: 0; fill: rgb(0, 0, 0); fill-opacity: 0;"></rect><text class="annotation-text" text-anchor="end" data-unformatted="<b>2015 National Avg<br>(all types) = 335.4</b>" data-math="N" x="156.390625" y="18.5" style="font-family: Arial; font-size: 18px; fill: rgb(214, 39, 40); fill-opacity: 1; white-space: pre;"><tspan class="line" dy="0em" x="156.390625" y="18.5"><tspan style="font-weight:bold">2015 National Avg</tspan></tspan><tspan class="line" dy="1.3em" x="156.390625" y="18.5"><tspan style="font-weight:bold">(all types) = 335.4</tspan></tspan></text></g></g></g><g class="annotation" data-index="7" style="opacity: 1;"><g class="annotation-text-g" transform="rotate(0,731.94,379.27)"><g class="cursor-pointer" transform="translate(688,367)"><rect class="bg" x="0.5" y="0.5" width="87" height="24" style="stroke-width: 1px; stroke: rgb(0, 0, 0); stroke-opacity: 0; fill: rgb(0, 0, 0); fill-opacity: 0;"></rect><text class="annotation-text" text-anchor="start" data-unformatted="<b>Avg = 346</b>" data-math="N" x="2" y="18.5" style="font-family: Arial; font-size: 18px; fill: rgb(60, 60, 60); fill-opacity: 1; white-space: pre;"><tspan style="font-weight:bold">Avg = 346</tspan></text></g></g></g><g class="annotation" data-index="8" style="opacity: 1;"><g class="annotation-text-g" transform="rotate(0,731.94,416.61)"><g class="cursor-pointer" transform="translate(673,404)"><rect class="bg" x="0.5" y="0.5" width="116" height="24" style="stroke-width: 1px; stroke: rgb(0, 0, 0); stroke-opacity: 0; fill: rgb(0, 0, 0); fill-opacity: 0;"></rect><text class="annotation-text" text-anchor="start" data-unformatted="<b>Median = 327</b>" data-math="N" x="2" y="18.5" style="font-family: Arial; font-size: 18px; fill: rgb(60, 60, 60); fill-opacity: 1; white-space: pre;"><tspan style="font-weight:bold">Median = 327</tspan></text></g></g></g></g><g class="menulayer"></g><g class="zoomlayer"></g></svg><div class="modebar-container" style="position: absolute; top: 0px; right: 0px; width: 100%;"><div id="modebar-c6efc4" class="modebar modebar--hover ease-bg"><div class="modebar-group"><a rel="tooltip" class="modebar-btn" data-title="Download plot as a png" data-toggle="false" data-gravity="n"><svg viewBox="0 0 1000 1000" class="icon" height="1em" width="1em"><path d="m500 450c-83 0-150-67-150-150 0-83 67-150 150-150 83 0 150 67 150 150 0 83-67 150-150 150z m400 150h-120c-16 0-34 13-39 29l-31 93c-6 15-23 28-40 28h-340c-16 0-34-13-39-28l-31-94c-6-15-23-28-40-28h-120c-55 0-100-45-100-100v-450c0-55 45-100 100-100h800c55 0 100 45 100 100v450c0 55-45 100-100 100z m-400-550c-138 0-250 112-250 250 0 138 112 250 250 250 138 0 250-112 250-250 0-138-112-250-250-250z m365 380c-19 0-35 16-35 35 0 19 16 35 35 35 19 0 35-16 35-35 0-19-16-35-35-35z" transform="matrix(1 0 0 -1 0 850)"></path></svg></a></div><div class="modebar-group"><a rel="tooltip" class="modebar-btn" data-title="Zoom" data-attr="dragmode" data-val="zoom" data-toggle="false" data-gravity="n"><svg viewBox="0 0 1000 1000" class="icon" height="1em" width="1em"><path d="m1000-25l-250 251c40 63 63 138 63 218 0 224-182 406-407 406-224 0-406-182-406-406s183-406 407-406c80 0 155 22 218 62l250-250 125 125z m-812 250l0 438 437 0 0-438-437 0z m62 375l313 0 0-312-313 0 0 312z" transform="matrix(1 0 0 -1 0 850)"></path></svg></a><a rel="tooltip" class="modebar-btn active" data-title="Pan" data-attr="dragmode" data-val="pan" data-toggle="false" data-gravity="n"><svg viewBox="0 0 1000 1000" class="icon" height="1em" width="1em"><path d="m1000 350l-187 188 0-125-250 0 0 250 125 0-188 187-187-187 125 0 0-250-250 0 0 125-188-188 186-187 0 125 252 0 0-250-125 0 187-188 188 188-125 0 0 250 250 0 0-126 187 188z" transform="matrix(1 0 0 -1 0 850)"></path></svg></a><a rel="tooltip" class="modebar-btn" data-title="Box Select" data-attr="dragmode" data-val="select" data-toggle="false" data-gravity="n"><svg viewBox="0 0 1000 1000" class="icon" height="1em" width="1em"><path d="m0 850l0-143 143 0 0 143-143 0z m286 0l0-143 143 0 0 143-143 0z m285 0l0-143 143 0 0 143-143 0z m286 0l0-143 143 0 0 143-143 0z m-857-286l0-143 143 0 0 143-143 0z m857 0l0-143 143 0 0 143-143 0z m-857-285l0-143 143 0 0 143-143 0z m857 0l0-143 143 0 0 143-143 0z m-857-286l0-143 143 0 0 143-143 0z m286 0l0-143 143 0 0 143-143 0z m285 0l0-143 143 0 0 143-143 0z m286 0l0-143 143 0 0 143-143 0z" transform="matrix(1 0 0 -1 0 850)"></path></svg></a><a rel="tooltip" class="modebar-btn" data-title="Lasso Select" data-attr="dragmode" data-val="lasso" data-toggle="false" data-gravity="n"><svg viewBox="0 0 1031 1000" class="icon" height="1em" width="1em"><path d="m1018 538c-36 207-290 336-568 286-277-48-473-256-436-463 10-57 36-108 76-151-13-66 11-137 68-183 34-28 75-41 114-42l-55-70 0 0c-2-1-3-2-4-3-10-14-8-34 5-45 14-11 34-8 45 4 1 1 2 3 2 5l0 0 113 140c16 11 31 24 45 40 4 3 6 7 8 11 48-3 100 0 151 9 278 48 473 255 436 462z m-624-379c-80 14-149 48-197 96 42 42 109 47 156 9 33-26 47-66 41-105z m-187-74c-19 16-33 37-39 60 50-32 109-55 174-68-42-25-95-24-135 8z m360 75c-34-7-69-9-102-8 8 62-16 128-68 170-73 59-175 54-244-5-9 20-16 40-20 61-28 159 121 317 333 354s407-60 434-217c28-159-121-318-333-355z" transform="matrix(1 0 0 -1 0 850)"></path></svg></a></div><div class="modebar-group"><a rel="tooltip" class="modebar-btn" data-title="Zoom in" data-attr="zoom" data-val="in" data-toggle="false" data-gravity="n"><svg viewBox="0 0 875 1000" class="icon" height="1em" width="1em"><path d="m1 787l0-875 875 0 0 875-875 0z m687-500l-187 0 0-187-125 0 0 187-188 0 0 125 188 0 0 187 125 0 0-187 187 0 0-125z" transform="matrix(1 0 0 -1 0 850)"></path></svg></a><a rel="tooltip" class="modebar-btn" data-title="Zoom out" data-attr="zoom" data-val="out" data-toggle="false" data-gravity="n"><svg viewBox="0 0 875 1000" class="icon" height="1em" width="1em"><path d="m0 788l0-876 875 0 0 876-875 0z m688-500l-500 0 0 125 500 0 0-125z" transform="matrix(1 0 0 -1 0 850)"></path></svg></a><a rel="tooltip" class="modebar-btn" data-title="Autoscale" data-attr="zoom" data-val="auto" data-toggle="false" data-gravity="n"><svg viewBox="0 0 1000 1000" class="icon" height="1em" width="1em"><path d="m250 850l-187 0-63 0 0-62 0-188 63 0 0 188 187 0 0 62z m688 0l-188 0 0-62 188 0 0-188 62 0 0 188 0 62-62 0z m-875-938l0 188-63 0 0-188 0-62 63 0 187 0 0 62-187 0z m875 188l0-188-188 0 0-62 188 0 62 0 0 62 0 188-62 0z m-125 188l-1 0-93-94-156 156 156 156 92-93 2 0 0 250-250 0 0-2 93-92-156-156-156 156 94 92 0 2-250 0 0-250 0 0 93 93 157-156-157-156-93 94 0 0 0-250 250 0 0 0-94 93 156 157 156-157-93-93 0 0 250 0 0 250z" transform="matrix(1 0 0 -1 0 850)"></path></svg></a><a rel="tooltip" class="modebar-btn" data-title="Reset axes" data-attr="zoom" data-val="reset" data-toggle="false" data-gravity="n"><svg viewBox="0 0 928.6 1000" class="icon" height="1em" width="1em"><path d="m786 296v-267q0-15-11-26t-25-10h-214v214h-143v-214h-214q-15 0-25 10t-11 26v267q0 1 0 2t0 2l321 264 321-264q1-1 1-4z m124 39l-34-41q-5-5-12-6h-2q-7 0-12 3l-386 322-386-322q-7-4-13-4-7 2-12 7l-35 41q-4 5-3 13t6 12l401 334q18 15 42 15t43-15l136-114v109q0 8 5 13t13 5h107q8 0 13-5t5-13v-227l122-102q5-5 6-12t-4-13z" transform="matrix(1 0 0 -1 0 850)"></path></svg></a></div><div class="modebar-group"><a rel="tooltip" class="modebar-btn" data-title="Toggle Spike Lines" data-attr="_cartesianSpikesEnabled" data-val="on" data-toggle="false" data-gravity="n"><svg viewBox="0 0 1000 1000" class="icon" height="1em" width="1em"><path d="M512 409c0-57-46-104-103-104-57 0-104 47-104 104 0 57 47 103 104 103 57 0 103-46 103-103z m-327-39l92 0 0 92-92 0z m-185 0l92 0 0 92-92 0z m370-186l92 0 0 93-92 0z m0-184l92 0 0 92-92 0z" transform="matrix(1.5 0 0 -1.5 0 850)"></path></svg></a><a rel="tooltip" class="modebar-btn active" data-title="Show closest data on hover" data-attr="hovermode" data-val="closest" data-toggle="false" data-gravity="ne"><svg viewBox="0 0 1500 1000" class="icon" height="1em" width="1em"><path d="m375 725l0 0-375-375 375-374 0-1 1125 0 0 750-1125 0z" transform="matrix(1 0 0 -1 0 850)"></path></svg></a><a rel="tooltip" class="modebar-btn" data-title="Compare data on hover" data-attr="hovermode" data-val="x" data-toggle="false" data-gravity="ne"><svg viewBox="0 0 1125 1000" class="icon" height="1em" width="1em"><path d="m187 786l0 2-187-188 188-187 0 0 937 0 0 373-938 0z m0-499l0 1-187-188 188-188 0 0 937 0 0 376-938-1z" transform="matrix(1 0 0 -1 0 850)"></path></svg></a></div></div></div><svg class="main-svg" style="position: absolute" xmlns="http://www.w3.org/2000/svg" xmlns:xlink="http://www.w3.org/1999/xlink" width="904.225352112676" height="642"><g class="hoverlayer"></g></svg>