<svg class="main-svg" style="position: absolute" xmlns="http://www.w3.org/2000/svg" xmlns:xlink="http://www.w3.org/1999/xlink" width="1200" height="800" style="background: rgb(238, 238, 238);"><defs id="defs-8354fb"><g class="clips"><clipPath id="clip8354fbxyplot" class="plotclip"><rect width="1075" height="570"></rect></clipPath><clipPath class="axesclip" id="clip8354fbx"><rect x="100" y="0" width="1075" height="800"></rect></clipPath><clipPath class="axesclip" id="clip8354fby"><rect x="0" y="80" width="1200" height="570"></rect></clipPath><clipPath class="axesclip" id="clip8354fbxy"><rect x="100" y="80" width="1075" height="570"></rect></clipPath></g><g class="gradients"></g></defs><g class="bglayer"><rect class="bg" x="100" y="80" width="1075" height="570" style="fill: rgb(255, 255, 255); fill-opacity: 1; stroke-width: 0;"></rect></g><g class="draglayer cursor-crosshair"><g class="xy"><rect class="nsewdrag drag" data-subplot="xy" x="100" y="80" width="1075" height="570" style="fill: transparent; stroke-width: 0; pointer-events: all;"></rect><rect class="nwdrag drag cursor-nw-resize" data-subplot="xy" x="80" y="60" width="20" height="20" style="fill: transparent; stroke-width: 0; pointer-events: all;"></rect><rect class="nedrag drag cursor-ne-resize" data-subplot="xy" x="1175" y="60" width="20" height="20" style="fill: transparent; stroke-width: 0; pointer-events: all;"></rect><rect class="swdrag drag cursor-sw-resize" data-subplot="xy" x="80" y="650" width="20" height="20" style="fill: transparent; stroke-width: 0; pointer-events: all;"></rect><rect class="sedrag drag cursor-se-resize" data-subplot="xy" x="1175" y="650" width="20" height="20" style="fill: transparent; stroke-width: 0; pointer-events: all;"></rect><rect class="ewdrag drag cursor-ew-resize" data-subplot="xy" x="207.5" y="650.5" width="860" height="20" style="fill: transparent; stroke-width: 0; pointer-events: all;"></rect><rect class="wdrag drag cursor-w-resize" data-subplot="xy" x="100" y="650.5" width="107.5" height="20" style="fill: transparent; stroke-width: 0; pointer-events: all;"></rect><rect class="edrag drag cursor-e-resize" data-subplot="xy" x="1067.5" y="650.5" width="107.5" height="20" style="fill: transparent; stroke-width: 0; pointer-events: all;"></rect><rect class="nsdrag drag cursor-ns-resize" data-subplot="xy" x="79.5" y="137" width="20" height="456" style="fill: transparent; stroke-width: 0; pointer-events: all;"></rect><rect class="sdrag drag cursor-s-resize" data-subplot="xy" x="79.5" y="593" width="20" height="57" style="fill: transparent; stroke-width: 0; pointer-events: all;"></rect><rect class="ndrag drag cursor-n-resize" data-subplot="xy" x="79.5" y="80" width="20" height="57" style="fill: transparent; stroke-width: 0; pointer-events: all;"></rect></g></g><g class="layer-below"><g class="imagelayer"></g><g class="shapelayer"></g></g><g class="cartesianlayer"><g class="subplot xy"><g class="layer-subplot"><g class="shapelayer"></g><g class="imagelayer"></g></g><g class="gridlayer"><g class="x"></g><g class="y"><path class="ygrid crisp" transform="translate(0,600)" d="M100,0h1075" style="stroke: rgb(238, 238, 238); stroke-opacity: 1; stroke-width: 1px;"></path><path class="ygrid crisp" transform="translate(0,500)" d="M100,0h1075" style="stroke: rgb(238, 238, 238); stroke-opacity: 1; stroke-width: 1px;"></path><path class="ygrid crisp" transform="translate(0,400)" d="M100,0h1075" style="stroke: rgb(238, 238, 238); stroke-opacity: 1; stroke-width: 1px;"></path><path class="ygrid crisp" transform="translate(0,300)" d="M100,0h1075" style="stroke: rgb(238, 238, 238); stroke-opacity: 1; stroke-width: 1px;"></path><path class="ygrid crisp" transform="translate(0,200)" d="M100,0h1075" style="stroke: rgb(238, 238, 238); stroke-opacity: 1; stroke-width: 1px;"></path><path class="ygrid crisp" transform="translate(0,100)" d="M100,0h1075" style="stroke: rgb(238, 238, 238); stroke-opacity: 1; stroke-width: 1px;"></path></g></g><g class="zerolinelayer"></g><path class="xlines-below"></path><path class="ylines-below"></path><g class="overlines-below"></g><g class="xaxislayer-below"></g><g class="yaxislayer-below"></g><g class="overaxes-below"></g><g class="plot" transform="translate(100,80)" clip-path="url('#clip8354fbxyplot')"><g class="boxlayer mlayer"><g class="trace boxes" style="opacity: 1;"><path class="box" d="M30.01,395.35H44.64M30.01,413.2H44.64V331.95H30.01ZM37.33,413.2V493.68M37.33,331.95V329.75M33.67,493.68H40.98M33.67,329.75H40.98" style="vector-effect: non-scaling-stroke; stroke-width: 2px; stroke: rgb(0, 0, 0); stroke-opacity: 1; fill: rgb(31, 119, 180); fill-opacity: 0.6;"></path><g class="points"></g></g><g class="trace boxes" style="opacity: 1;"><path class="box" d="M230.08,326.63H244.71M230.08,367.03H244.71V292.55H230.08ZM237.4,367.03V406.53M237.4,292.55V277.9M233.74,406.53H241.05M233.74,277.9H241.05" style="vector-effect: non-scaling-stroke; stroke-width: 2px; stroke: rgb(0, 0, 0); stroke-opacity: 1; fill: rgb(31, 119, 180); fill-opacity: 0.6;"></path><g class="points"></g></g><g class="trace boxes" style="opacity: 1;"><path class="box" d="M430.15,349.83H444.78M430.15,365.93H444.78V265.57H430.15ZM437.47,365.93V381.37M437.47,265.57V199.68M433.81,381.37H441.12M433.81,199.68H441.12" style="vector-effect: non-scaling-stroke; stroke-width: 2px; stroke: rgb(0, 0, 0); stroke-opacity: 1; fill: rgb(204, 0, 0); fill-opacity: 0.64;"></path><g class="points"></g></g><g class="trace boxes" style="opacity: 1;"><path class="box" d="M630.22,242.33H644.85M630.22,268.73H644.85V191.39H630.22ZM637.53,268.73V287.16M637.53,191.39V166.14M633.88,287.16H641.19M633.88,166.14H641.19" style="vector-effect: non-scaling-stroke; stroke-width: 2px; stroke: rgb(0, 0, 0); stroke-opacity: 1; fill: rgb(204, 0, 0); fill-opacity: 0.64;"></path><g class="points"></g></g><g class="trace boxes" style="opacity: 1;"><path class="box" d="M830.29,210.94H844.92M830.29,258.55H844.92V149.48H830.29ZM837.6,258.55V390.09M837.6,149.48V6.09M833.95,390.09H841.26M833.95,6.09H841.26" style="vector-effect: non-scaling-stroke; stroke-width: 2px; stroke: rgb(0, 0, 0); stroke-opacity: 1; fill: rgb(255, 127, 14); fill-opacity: 0.7;"></path><g class="points"></g></g><g class="trace boxes" style="opacity: 1;"><path class="box" d="M1030.36,241.67H1044.99M1030.36,271.63H1044.99V177.7H1030.36ZM1037.67,271.63V285.37M1037.67,177.7V174.2M1034.02,285.37H1041.33M1034.02,174.2H1041.33" style="vector-effect: non-scaling-stroke; stroke-width: 2px; stroke: rgb(0, 0, 0); stroke-opacity: 1; fill: rgb(255, 127, 14); fill-opacity: 0.7;"></path><g class="points"></g></g></g></g><g class="overplot"></g><path class="xlines-above crisp" d="M99,650.5H1175" style="fill: none; stroke-width: 1px; stroke: rgb(68, 68, 68); stroke-opacity: 1;"></path><path class="ylines-above crisp" d="M99.5,80V650" style="fill: none; stroke-width: 1px; stroke: rgb(68, 68, 68); stroke-opacity: 1;"></path><g class="overlines-above"></g><g class="xaxislayer-above"><path class="xtick ticks crisp" d="M0,650v-5" transform="translate(189.57999999999998,0)" style="stroke: rgb(0, 0, 0); stroke-opacity: 1; stroke-width: 1px;"></path><path class="xtick ticks crisp" d="M0,650v-5" transform="translate(368.75,0)" style="stroke: rgb(0, 0, 0); stroke-opacity: 1; stroke-width: 1px;"></path><path class="xtick ticks crisp" d="M0,650v-5" transform="translate(547.9200000000001,0)" style="stroke: rgb(0, 0, 0); stroke-opacity: 1; stroke-width: 1px;"></path><path class="xtick ticks crisp" d="M0,650v-5" transform="translate(727.08,0)" style="stroke: rgb(0, 0, 0); stroke-opacity: 1; stroke-width: 1px;"></path><path class="xtick ticks crisp" d="M0,650v-5" transform="translate(906.25,0)" style="stroke: rgb(0, 0, 0); stroke-opacity: 1; stroke-width: 1px;"></path><path class="xtick ticks crisp" d="M0,650v-5" transform="translate(1085.42,0)" style="stroke: rgb(0, 0, 0); stroke-opacity: 1; stroke-width: 1px;"></path></g><g class="yaxislayer-above"><path class="ytick ticks crisp" d="M99,0h-5" transform="translate(0,600)" style="stroke: rgb(0, 0, 0); stroke-opacity: 1; stroke-width: 1px;"></path><path class="ytick ticks crisp" d="M99,0h-5" transform="translate(0,500)" style="stroke: rgb(0, 0, 0); stroke-opacity: 1; stroke-width: 1px;"></path><path class="ytick ticks crisp" d="M99,0h-5" transform="translate(0,400)" style="stroke: rgb(0, 0, 0); stroke-opacity: 1; stroke-width: 1px;"></path><path class="ytick ticks crisp" d="M99,0h-5" transform="translate(0,300)" style="stroke: rgb(0, 0, 0); stroke-opacity: 1; stroke-width: 1px;"></path><path class="ytick ticks crisp" d="M99,0h-5" transform="translate(0,200)" style="stroke: rgb(0, 0, 0); stroke-opacity: 1; stroke-width: 1px;"></path><path class="ytick ticks crisp" d="M99,0h-5" transform="translate(0,100)" style="stroke: rgb(0, 0, 0); stroke-opacity: 1; stroke-width: 1px;"></path><g class="ytick"><text text-anchor="end" x="89.6" y="7.699999999999999" data-unformatted="200" data-math="N" transform="translate(0,600)" style="font-family: &quot;Times New Roman&quot;, Times, serif; font-size: 22px; fill: rgb(0, 0, 0); fill-opacity: 1; white-space: pre;">200</text></g><g class="ytick"><text text-anchor="end" x="89.6" y="7.699999999999999" data-unformatted="250" data-math="N" transform="translate(0,500)" style="font-family: &quot;Times New Roman&quot;, Times, serif; font-size: 22px; fill: rgb(0, 0, 0); fill-opacity: 1; white-space: pre;">250</text></g><g class="ytick"><text text-anchor="end" x="89.6" y="7.699999999999999" data-unformatted="300" data-math="N" transform="translate(0,400)" style="font-family: &quot;Times New Roman&quot;, Times, serif; font-size: 22px; fill: rgb(0, 0, 0); fill-opacity: 1; white-space: pre;">300</text></g><g class="ytick"><text text-anchor="end" x="89.6" y="7.699999999999999" data-unformatted="350" data-math="N" transform="translate(0,300)" style="font-family: &quot;Times New Roman&quot;, Times, serif; font-size: 22px; fill: rgb(0, 0, 0); fill-opacity: 1; white-space: pre;">350</text></g><g class="ytick"><text text-anchor="end" x="89.6" y="7.699999999999999" data-unformatted="400" data-math="N" transform="translate(0,200)" style="font-family: &quot;Times New Roman&quot;, Times, serif; font-size: 22px; fill: rgb(0, 0, 0); fill-opacity: 1; white-space: pre;">400</text></g><g class="ytick"><text text-anchor="end" x="89.6" y="7.699999999999999" data-unformatted="450" data-math="N" transform="translate(0,100)" style="font-family: &quot;Times New Roman&quot;, Times, serif; font-size: 22px; fill: rgb(0, 0, 0); fill-opacity: 1; white-space: pre;">450</text></g></g><g class="overaxes-above"></g></g></g><g class="polarlayer"></g><g class="ternarylayer"></g><g class="geolayer"></g><g class="funnelarealayer"></g><g class="pielayer"></g><g class="treemaplayer"></g><g class="sunburstlayer"></g><g class="glimages"></g></svg><div class="gl-container"></div><svg class="main-svg" style="position: absolute" xmlns="http://www.w3.org/2000/svg" xmlns:xlink="http://www.w3.org/1999/xlink" width="1200" height="800"><defs id="topdefs-8354fb"><g class="clips"></g></defs><g class="indicatorlayer"></g><g class="layer-above"><g class="imagelayer"></g><g class="shapelayer"></g></g><g class="infolayer"><g class="g-gtitle"><text class="gtitle" x="600" y="40" text-anchor="middle" dy="0em" data-unformatted="PreOp Bone Density Values" data-math="N" style="font-family: Arial, sans-serif; font-size: 32px; fill: rgb(0, 0, 0); opacity: 1; font-weight: normal; white-space: pre;">PreOp Bone Density Values</text></g><g class="g-xtitle"></g><g class="g-ytitle" transform="translate(2.5,0)"><text class="ytitle" transform="rotate(-90,26,365)" x="26" y="365" text-anchor="middle" data-unformatted="Hounsfield Units" data-math="N" style="font-family: &quot;Times New Roman&quot;, Times, serif; font-size: 32px; fill: rgb(0, 0, 0); opacity: 1; font-weight: normal; white-space: pre;">Hounsfield Units</text></g></g><g class="menulayer"></g><g class="zoomlayer"></g></svg><div class="modebar-container" style="position: absolute; top: 0px; right: 0px; width: 100%;"><div id="modebar-8354fb" class="modebar modebar--hover ease-bg"><div class="modebar-group"><a rel="tooltip" class="modebar-btn" data-title="Download plot as a png" data-toggle="false" data-gravity="n"><svg viewBox="0 0 1000 1000" class="icon" height="1em" width="1em"><path d="m500 450c-83 0-150-67-150-150 0-83 67-150 150-150 83 0 150 67 150 150 0 83-67 150-150 150z m400 150h-120c-16 0-34 13-39 29l-31 93c-6 15-23 28-40 28h-340c-16 0-34-13-39-28l-31-94c-6-15-23-28-40-28h-120c-55 0-100-45-100-100v-450c0-55 45-100 100-100h800c55 0 100 45 100 100v450c0 55-45 100-100 100z m-400-550c-138 0-250 112-250 250 0 138 112 250 250 250 138 0 250-112 250-250 0-138-112-250-250-250z m365 380c-19 0-35 16-35 35 0 19 16 35 35 35 19 0 35-16 35-35 0-19-16-35-35-35z" transform="matrix(1 0 0 -1 0 850)"></path></svg></a></div><div class="modebar-group"><a rel="tooltip" class="modebar-btn active" data-title="Zoom" data-attr="dragmode" data-val="zoom" data-toggle="false" data-gravity="n"><svg viewBox="0 0 1000 1000" class="icon" height="1em" width="1em"><path d="m1000-25l-250 251c40 63 63 138 63 218 0 224-182 406-407 406-224 0-406-182-406-406s183-406 407-406c80 0 155 22 218 62l250-250 125 125z m-812 250l0 438 437 0 0-438-437 0z m62 375l313 0 0-312-313 0 0 312z" transform="matrix(1 0 0 -1 0 850)"></path></svg></a><a rel="tooltip" class="modebar-btn" data-title="Pan" data-attr="dragmode" data-val="pan" data-toggle="false" data-gravity="n"><svg viewBox="0 0 1000 1000" class="icon" height="1em" width="1em"><path d="m1000 350l-187 188 0-125-250 0 0 250 125 0-188 187-187-187 125 0 0-250-250 0 0 125-188-188 186-187 0 125 252 0 0-250-125 0 187-188 188 188-125 0 0 250 250 0 0-126 187 188z" transform="matrix(1 0 0 -1 0 850)"></path></svg></a></div><div class="modebar-group"><a rel="tooltip" class="modebar-btn" data-title="Zoom in" data-attr="zoom" data-val="in" data-toggle="false" data-gravity="n"><svg viewBox="0 0 875 1000" class="icon" height="1em" width="1em"><path d="m1 787l0-875 875 0 0 875-875 0z m687-500l-187 0 0-187-125 0 0 187-188 0 0 125 188 0 0 187 125 0 0-187 187 0 0-125z" transform="matrix(1 0 0 -1 0 850)"></path></svg></a><a rel="tooltip" class="modebar-btn" data-title="Zoom out" data-attr="zoom" data-val="out" data-toggle="false" data-gravity="n"><svg viewBox="0 0 875 1000" class="icon" height="1em" width="1em"><path d="m0 788l0-876 875 0 0 876-875 0z m688-500l-500 0 0 125 500 0 0-125z" transform="matrix(1 0 0 -1 0 850)"></path></svg></a><a rel="tooltip" class="modebar-btn" data-title="Autoscale" data-attr="zoom" data-val="auto" data-toggle="false" data-gravity="n"><svg viewBox="0 0 1000 1000" class="icon" height="1em" width="1em"><path d="m250 850l-187 0-63 0 0-62 0-188 63 0 0 188 187 0 0 62z m688 0l-188 0 0-62 188 0 0-188 62 0 0 188 0 62-62 0z m-875-938l0 188-63 0 0-188 0-62 63 0 187 0 0 62-187 0z m875 188l0-188-188 0 0-62 188 0 62 0 0 62 0 188-62 0z m-125 188l-1 0-93-94-156 156 156 156 92-93 2 0 0 250-250 0 0-2 93-92-156-156-156 156 94 92 0 2-250 0 0-250 0 0 93 93 157-156-157-156-93 94 0 0 0-250 250 0 0 0-94 93 156 157 156-157-93-93 0 0 250 0 0 250z" transform="matrix(1 0 0 -1 0 850)"></path></svg></a><a rel="tooltip" class="modebar-btn" data-title="Reset axes" data-attr="zoom" data-val="reset" data-toggle="false" data-gravity="n"><svg viewBox="0 0 928.6 1000" class="icon" height="1em" width="1em"><path d="m786 296v-267q0-15-11-26t-25-10h-214v214h-143v-214h-214q-15 0-25 10t-11 26v267q0 1 0 2t0 2l321 264 321-264q1-1 1-4z m124 39l-34-41q-5-5-12-6h-2q-7 0-12 3l-386 322-386-322q-7-4-13-4-7 2-12 7l-35 41q-4 5-3 13t6 12l401 334q18 15 42 15t43-15l136-114v109q0 8 5 13t13 5h107q8 0 13-5t5-13v-227l122-102q5-5 6-12t-4-13z" transform="matrix(1 0 0 -1 0 850)"></path></svg></a></div><div class="modebar-group"><a rel="tooltip" class="modebar-btn" data-title="Toggle Spike Lines" data-attr="_cartesianSpikesEnabled" data-val="on" data-toggle="false" data-gravity="n"><svg viewBox="0 0 1000 1000" class="icon" height="1em" width="1em"><path d="M512 409c0-57-46-104-103-104-57 0-104 47-104 104 0 57 47 103 104 103 57 0 103-46 103-103z m-327-39l92 0 0 92-92 0z m-185 0l92 0 0 92-92 0z m370-186l92 0 0 93-92 0z m0-184l92 0 0 92-92 0z" transform="matrix(1.5 0 0 -1.5 0 850)"></path></svg></a><a rel="tooltip" class="modebar-btn" data-title="Show closest data on hover" data-attr="hovermode" data-val="closest" data-toggle="false" data-gravity="ne"><svg viewBox="0 0 1500 1000" class="icon" height="1em" width="1em"><path d="m375 725l0 0-375-375 375-374 0-1 1125 0 0 750-1125 0z" transform="matrix(1 0 0 -1 0 850)"></path></svg></a><a rel="tooltip" class="modebar-btn active" data-title="Compare data on hover" data-attr="hovermode" data-val="x" data-toggle="false" data-gravity="ne"><svg viewBox="0 0 1125 1000" class="icon" height="1em" width="1em"><path d="m187 786l0 2-187-188 188-187 0 0 937 0 0 373-938 0z m0-499l0 1-187-188 188-188 0 0 937 0 0 376-938-1z" transform="matrix(1 0 0 -1 0 850)"></path></svg></a></div></div></div><svg class="main-svg" style="position: absolute" xmlns="http://www.w3.org/2000/svg" xmlns:xlink="http://www.w3.org/1999/xlink" width="1200" height="800"><g class="hoverlayer"></g></svg>