<svg class="main-svg" style="position: absolute" xmlns="http://www.w3.org/2000/svg" xmlns:xlink="http://www.w3.org/1999/xlink" width="904.225352112676" height="642" style="background: rgb(255, 255, 255);"><defs id="defs-ababe6"><g class="clips"><clipPath id="clipababe6xyplot" class="plotclip"><rect width="834" height="462"></rect></clipPath><clipPath class="axesclip" id="clipababe6x"><rect x="40" y="0" width="834" height="642"></rect></clipPath><clipPath class="axesclip" id="clipababe6y"><rect x="0" y="100" width="904.225352112676" height="462"></rect></clipPath><clipPath class="axesclip" id="clipababe6xy"><rect x="40" y="100" width="834" height="462"></rect></clipPath></g><g class="gradients"></g></defs><g class="bglayer"><rect class="bg" x="40" y="100" width="834" height="462" style="fill: rgb(243, 243, 243); fill-opacity: 1; stroke-width: 0;"></rect></g><g class="draglayer cursor-crosshair"><g class="xy"><rect class="nsewdrag drag" data-subplot="xy" x="40" y="100" width="834" height="462" style="fill: transparent; stroke-width: 0; pointer-events: all;"></rect><rect class="nwdrag drag cursor-nw-resize" data-subplot="xy" x="20" y="80" width="20" height="20" style="fill: transparent; stroke-width: 0; pointer-events: all;"></rect><rect class="nedrag drag cursor-ne-resize" data-subplot="xy" x="874" y="80" width="20" height="20" style="fill: transparent; stroke-width: 0; pointer-events: all;"></rect><rect class="swdrag drag cursor-sw-resize" data-subplot="xy" x="20" y="562" width="20" height="20" style="fill: transparent; stroke-width: 0; pointer-events: all;"></rect><rect class="sedrag drag cursor-se-resize" data-subplot="xy" x="874" y="562" width="20" height="20" style="fill: transparent; stroke-width: 0; pointer-events: all;"></rect><rect class="ewdrag drag cursor-ew-resize" data-subplot="xy" x="123.4" y="562.5" width="667.2" height="20" style="fill: transparent; stroke-width: 0; pointer-events: all;"></rect><rect class="wdrag drag cursor-w-resize" data-subplot="xy" x="40" y="562.5" width="83.4" height="20" style="fill: transparent; stroke-width: 0; pointer-events: all;"></rect><rect class="edrag drag cursor-e-resize" data-subplot="xy" x="790.6" y="562.5" width="83.4" height="20" style="fill: transparent; stroke-width: 0; pointer-events: all;"></rect><rect class="nsdrag drag cursor-ns-resize" data-subplot="xy" x="19.5" y="146.2" width="20" height="369.6" style="fill: transparent; stroke-width: 0; pointer-events: all;"></rect><rect class="sdrag drag cursor-s-resize" data-subplot="xy" x="19.5" y="515.8" width="20" height="46.2" style="fill: transparent; stroke-width: 0; pointer-events: all;"></rect><rect class="ndrag drag cursor-n-resize" data-subplot="xy" x="19.5" y="100" width="20" height="46.2" style="fill: transparent; stroke-width: 0; pointer-events: all;"></rect></g></g><g class="layer-below"><g class="imagelayer"></g><g class="shapelayer"></g></g><g class="cartesianlayer"><g class="subplot xy"><g class="layer-subplot"><g class="shapelayer"></g><g class="imagelayer"></g></g><g class="gridlayer"><g class="x"></g><g class="y"><path class="ygrid crisp" transform="translate(0,525.99)" d="M40,0h834" style="stroke: rgb(255, 255, 255); stroke-opacity: 1; stroke-width: 1px;"></path><path class="ygrid crisp" transform="translate(0,500.16)" d="M40,0h834" style="stroke: rgb(255, 255, 255); stroke-opacity: 1; stroke-width: 1px;"></path><path class="ygrid crisp" transform="translate(0,474.33)" d="M40,0h834" style="stroke: rgb(255, 255, 255); stroke-opacity: 1; stroke-width: 1px;"></path><path class="ygrid crisp" transform="translate(0,448.51)" d="M40,0h834" style="stroke: rgb(255, 255, 255); stroke-opacity: 1; stroke-width: 1px;"></path><path class="ygrid crisp" transform="translate(0,422.68)" d="M40,0h834" style="stroke: rgb(255, 255, 255); stroke-opacity: 1; stroke-width: 1px;"></path><path class="ygrid crisp" transform="translate(0,396.86)" d="M40,0h834" style="stroke: rgb(255, 255, 255); stroke-opacity: 1; stroke-width: 1px;"></path><path class="ygrid crisp" transform="translate(0,371.03)" d="M40,0h834" style="stroke: rgb(255, 255, 255); stroke-opacity: 1; stroke-width: 1px;"></path><path class="ygrid crisp" transform="translate(0,345.2)" d="M40,0h834" style="stroke: rgb(255, 255, 255); stroke-opacity: 1; stroke-width: 1px;"></path><path class="ygrid crisp" transform="translate(0,319.38)" d="M40,0h834" style="stroke: rgb(255, 255, 255); stroke-opacity: 1; stroke-width: 1px;"></path><path class="ygrid crisp" transform="translate(0,293.55)" d="M40,0h834" style="stroke: rgb(255, 255, 255); stroke-opacity: 1; stroke-width: 1px;"></path><path class="ygrid crisp" transform="translate(0,267.73)" d="M40,0h834" style="stroke: rgb(255, 255, 255); stroke-opacity: 1; stroke-width: 1px;"></path><path class="ygrid crisp" transform="translate(0,241.9)" d="M40,0h834" style="stroke: rgb(255, 255, 255); stroke-opacity: 1; stroke-width: 1px;"></path><path class="ygrid crisp" transform="translate(0,216.07)" d="M40,0h834" style="stroke: rgb(255, 255, 255); stroke-opacity: 1; stroke-width: 1px;"></path><path class="ygrid crisp" transform="translate(0,190.25)" d="M40,0h834" style="stroke: rgb(255, 255, 255); stroke-opacity: 1; stroke-width: 1px;"></path><path class="ygrid crisp" transform="translate(0,164.42000000000002)" d="M40,0h834" style="stroke: rgb(255, 255, 255); stroke-opacity: 1; stroke-width: 1px;"></path><path class="ygrid crisp" transform="translate(0,138.6)" d="M40,0h834" style="stroke: rgb(255, 255, 255); stroke-opacity: 1; stroke-width: 1px;"></path><path class="ygrid crisp" transform="translate(0,112.77)" d="M40,0h834" style="stroke: rgb(255, 255, 255); stroke-opacity: 1; stroke-width: 1px;"></path></g></g><g class="zerolinelayer"><path class="yzl zl crisp" transform="translate(0,551.81)" d="M40,0h834" style="stroke: rgb(255, 255, 255); stroke-opacity: 1; stroke-width: 2px;"></path></g><path class="xlines-below"></path><path class="ylines-below"></path><g class="overlines-below"></g><g class="xaxislayer-below"></g><g class="yaxislayer-below"></g><g class="overaxes-below"></g><g class="plot" transform="translate(40,100)" clip-path="url('#clipababe6xyplot')"><g class="boxlayer mlayer"><g class="trace boxes" style="opacity: 1;"><path class="box" d="M36.88,351.09H104.87M36.88,389.83H104.87V301.38H36.88ZM70.88,389.83V410.49M70.88,301.38V206.47M64.08,410.49H77.67M64.08,206.47H77.67" style="vector-effect: non-scaling-stroke; stroke-width: 1px; stroke: rgb(31, 119, 180); stroke-opacity: 1; fill: rgb(93, 164, 214); fill-opacity: 0.5;"></path><g class="points"><path class="point" transform="translate(28.7,410.49)" d="M1.5,0A1.5,1.5 0 1,1 0,-1.5A1.5,1.5 0 0,1 1.5,0Z" style="opacity: 1; stroke-width: 0px; fill: rgb(31, 119, 180); fill-opacity: 1;"></path><path class="point" transform="translate(10.01,410.49)" d="M1.5,0A1.5,1.5 0 1,1 0,-1.5A1.5,1.5 0 0,1 1.5,0Z" style="opacity: 1; stroke-width: 0px; fill: rgb(31, 119, 180); fill-opacity: 1;"></path><path class="point" transform="translate(31.58,407.91)" d="M1.5,0A1.5,1.5 0 1,1 0,-1.5A1.5,1.5 0 0,1 1.5,0Z" style="opacity: 1; stroke-width: 0px; fill: rgb(31, 119, 180); fill-opacity: 1;"></path><path class="point" transform="translate(7.03,397.58)" d="M1.5,0A1.5,1.5 0 1,1 0,-1.5A1.5,1.5 0 0,1 1.5,0Z" style="opacity: 1; stroke-width: 0px; fill: rgb(31, 119, 180); fill-opacity: 1;"></path><path class="point" transform="translate(16.21,397.58)" d="M1.5,0A1.5,1.5 0 1,1 0,-1.5A1.5,1.5 0 0,1 1.5,0Z" style="opacity: 1; stroke-width: 0px; fill: rgb(31, 119, 180); fill-opacity: 1;"></path><path class="point" transform="translate(27.78,387.25)" d="M1.5,0A1.5,1.5 0 1,1 0,-1.5A1.5,1.5 0 0,1 1.5,0Z" style="opacity: 1; stroke-width: 0px; fill: rgb(31, 119, 180); fill-opacity: 1;"></path><path class="point" transform="translate(19.44,376.92)" d="M1.5,0A1.5,1.5 0 1,1 0,-1.5A1.5,1.5 0 0,1 1.5,0Z" style="opacity: 1; stroke-width: 0px; fill: rgb(31, 119, 180); fill-opacity: 1;"></path><path class="point" transform="translate(23.28,369.17)" d="M1.5,0A1.5,1.5 0 1,1 0,-1.5A1.5,1.5 0 0,1 1.5,0Z" style="opacity: 1; stroke-width: 0px; fill: rgb(31, 119, 180); fill-opacity: 1;"></path><path class="point" transform="translate(15.94,364)" d="M1.5,0A1.5,1.5 0 1,1 0,-1.5A1.5,1.5 0 0,1 1.5,0Z" style="opacity: 1; stroke-width: 0px; fill: rgb(31, 119, 180); fill-opacity: 1;"></path><path class="point" transform="translate(10.95,356.26)" d="M1.5,0A1.5,1.5 0 1,1 0,-1.5A1.5,1.5 0 0,1 1.5,0Z" style="opacity: 1; stroke-width: 0px; fill: rgb(31, 119, 180); fill-opacity: 1;"></path><path class="point" transform="translate(23.29,351.09)" d="M1.5,0A1.5,1.5 0 1,1 0,-1.5A1.5,1.5 0 0,1 1.5,0Z" style="opacity: 1; stroke-width: 0px; fill: rgb(31, 119, 180); fill-opacity: 1;"></path><path class="point" transform="translate(15.75,314.93)" d="M1.5,0A1.5,1.5 0 1,1 0,-1.5A1.5,1.5 0 0,1 1.5,0Z" style="opacity: 1; stroke-width: 0px; fill: rgb(31, 119, 180); fill-opacity: 1;"></path><path class="point" transform="translate(27.97,309.77)" d="M1.5,0A1.5,1.5 0 1,1 0,-1.5A1.5,1.5 0 0,1 1.5,0Z" style="opacity: 1; stroke-width: 0px; fill: rgb(31, 119, 180); fill-opacity: 1;"></path><path class="point" transform="translate(8.02,309.77)" d="M1.5,0A1.5,1.5 0 1,1 0,-1.5A1.5,1.5 0 0,1 1.5,0Z" style="opacity: 1; stroke-width: 0px; fill: rgb(31, 119, 180); fill-opacity: 1;"></path><path class="point" transform="translate(14.26,307.19)" d="M1.5,0A1.5,1.5 0 1,1 0,-1.5A1.5,1.5 0 0,1 1.5,0Z" style="opacity: 1; stroke-width: 0px; fill: rgb(31, 119, 180); fill-opacity: 1;"></path><path class="point" transform="translate(28.41,304.6)" d="M1.5,0A1.5,1.5 0 1,1 0,-1.5A1.5,1.5 0 0,1 1.5,0Z" style="opacity: 1; stroke-width: 0px; fill: rgb(31, 119, 180); fill-opacity: 1;"></path><path class="point" transform="translate(17.24,291.69)" d="M1.5,0A1.5,1.5 0 1,1 0,-1.5A1.5,1.5 0 0,1 1.5,0Z" style="opacity: 1; stroke-width: 0px; fill: rgb(31, 119, 180); fill-opacity: 1;"></path><path class="point" transform="translate(11.13,286.53)" d="M1.5,0A1.5,1.5 0 1,1 0,-1.5A1.5,1.5 0 0,1 1.5,0Z" style="opacity: 1; stroke-width: 0px; fill: rgb(31, 119, 180); fill-opacity: 1;"></path><path class="point" transform="translate(16.73,273.61)" d="M1.5,0A1.5,1.5 0 1,1 0,-1.5A1.5,1.5 0 0,1 1.5,0Z" style="opacity: 1; stroke-width: 0px; fill: rgb(31, 119, 180); fill-opacity: 1;"></path><path class="point" transform="translate(19.69,214.21)" d="M1.5,0A1.5,1.5 0 1,1 0,-1.5A1.5,1.5 0 0,1 1.5,0Z" style="opacity: 1; stroke-width: 0px; fill: rgb(31, 119, 180); fill-opacity: 1;"></path><path class="point" transform="translate(23.6,206.47)" d="M1.5,0A1.5,1.5 0 1,1 0,-1.5A1.5,1.5 0 0,1 1.5,0Z" style="opacity: 1; stroke-width: 0px; fill: rgb(31, 119, 180); fill-opacity: 1;"></path></g></g><g class="trace boxes" style="opacity: 1;"><path class="box" d="M175.63,431.15H243.62M175.63,433.73H243.62V424.05H175.63ZM209.63,433.73V438.9M209.63,424.05V410.49M202.83,438.9H216.42M202.83,410.49H216.42" style="vector-effect: non-scaling-stroke; stroke-width: 1px; stroke: rgb(255, 127, 14); stroke-opacity: 1; fill: rgb(255, 144, 14); fill-opacity: 0.5;"></path><g class="points"><path class="point" transform="translate(163.04,438.9)" d="M1.5,0A1.5,1.5 0 1,1 0,-1.5A1.5,1.5 0 0,1 1.5,0Z" style="opacity: 1; stroke-width: 0px; fill: rgb(255, 127, 14); fill-opacity: 1;"></path><path class="point" transform="translate(152.7,436.32)" d="M1.5,0A1.5,1.5 0 1,1 0,-1.5A1.5,1.5 0 0,1 1.5,0Z" style="opacity: 1; stroke-width: 0px; fill: rgb(255, 127, 14); fill-opacity: 1;"></path><path class="point" transform="translate(166.43,436.32)" d="M1.5,0A1.5,1.5 0 1,1 0,-1.5A1.5,1.5 0 0,1 1.5,0Z" style="opacity: 1; stroke-width: 0px; fill: rgb(255, 127, 14); fill-opacity: 1;"></path><path class="point" transform="translate(149.54,433.73)" d="M1.5,0A1.5,1.5 0 1,1 0,-1.5A1.5,1.5 0 0,1 1.5,0Z" style="opacity: 1; stroke-width: 0px; fill: rgb(255, 127, 14); fill-opacity: 1;"></path><path class="point" transform="translate(155.83,433.73)" d="M1.5,0A1.5,1.5 0 1,1 0,-1.5A1.5,1.5 0 0,1 1.5,0Z" style="opacity: 1; stroke-width: 0px; fill: rgb(255, 127, 14); fill-opacity: 1;"></path><path class="point" transform="translate(163.79,433.73)" d="M1.5,0A1.5,1.5 0 1,1 0,-1.5A1.5,1.5 0 0,1 1.5,0Z" style="opacity: 1; stroke-width: 0px; fill: rgb(255, 127, 14); fill-opacity: 1;"></path><path class="point" transform="translate(158.19,433.73)" d="M1.5,0A1.5,1.5 0 1,1 0,-1.5A1.5,1.5 0 0,1 1.5,0Z" style="opacity: 1; stroke-width: 0px; fill: rgb(255, 127, 14); fill-opacity: 1;"></path><path class="point" transform="translate(162.12,433.73)" d="M1.5,0A1.5,1.5 0 1,1 0,-1.5A1.5,1.5 0 0,1 1.5,0Z" style="opacity: 1; stroke-width: 0px; fill: rgb(255, 127, 14); fill-opacity: 1;"></path><path class="point" transform="translate(153.21,433.73)" d="M1.5,0A1.5,1.5 0 1,1 0,-1.5A1.5,1.5 0 0,1 1.5,0Z" style="opacity: 1; stroke-width: 0px; fill: rgb(255, 127, 14); fill-opacity: 1;"></path><path class="point" transform="translate(146.18,433.73)" d="M1.5,0A1.5,1.5 0 1,1 0,-1.5A1.5,1.5 0 0,1 1.5,0Z" style="opacity: 1; stroke-width: 0px; fill: rgb(255, 127, 14); fill-opacity: 1;"></path><path class="point" transform="translate(163.18,431.15)" d="M1.5,0A1.5,1.5 0 1,1 0,-1.5A1.5,1.5 0 0,1 1.5,0Z" style="opacity: 1; stroke-width: 0px; fill: rgb(255, 127, 14); fill-opacity: 1;"></path><path class="point" transform="translate(154.68,431.15)" d="M1.5,0A1.5,1.5 0 1,1 0,-1.5A1.5,1.5 0 0,1 1.5,0Z" style="opacity: 1; stroke-width: 0px; fill: rgb(255, 127, 14); fill-opacity: 1;"></path><path class="point" transform="translate(166.25,431.15)" d="M1.5,0A1.5,1.5 0 1,1 0,-1.5A1.5,1.5 0 0,1 1.5,0Z" style="opacity: 1; stroke-width: 0px; fill: rgb(255, 127, 14); fill-opacity: 1;"></path><path class="point" transform="translate(149.08,431.15)" d="M1.5,0A1.5,1.5 0 1,1 0,-1.5A1.5,1.5 0 0,1 1.5,0Z" style="opacity: 1; stroke-width: 0px; fill: rgb(255, 127, 14); fill-opacity: 1;"></path><path class="point" transform="translate(152.96,431.15)" d="M1.5,0A1.5,1.5 0 1,1 0,-1.5A1.5,1.5 0 0,1 1.5,0Z" style="opacity: 1; stroke-width: 0px; fill: rgb(255, 127, 14); fill-opacity: 1;"></path><path class="point" transform="translate(167.32,431.15)" d="M1.5,0A1.5,1.5 0 1,1 0,-1.5A1.5,1.5 0 0,1 1.5,0Z" style="opacity: 1; stroke-width: 0px; fill: rgb(255, 127, 14); fill-opacity: 1;"></path><path class="point" transform="translate(156.5,428.57)" d="M1.5,0A1.5,1.5 0 1,1 0,-1.5A1.5,1.5 0 0,1 1.5,0Z" style="opacity: 1; stroke-width: 0px; fill: rgb(255, 127, 14); fill-opacity: 1;"></path><path class="point" transform="translate(152.68,428.57)" d="M1.5,0A1.5,1.5 0 1,1 0,-1.5A1.5,1.5 0 0,1 1.5,0Z" style="opacity: 1; stroke-width: 0px; fill: rgb(255, 127, 14); fill-opacity: 1;"></path><path class="point" transform="translate(156.51,425.99)" d="M1.5,0A1.5,1.5 0 1,1 0,-1.5A1.5,1.5 0 0,1 1.5,0Z" style="opacity: 1; stroke-width: 0px; fill: rgb(255, 127, 14); fill-opacity: 1;"></path><path class="point" transform="translate(158.51,425.99)" d="M1.5,0A1.5,1.5 0 1,1 0,-1.5A1.5,1.5 0 0,1 1.5,0Z" style="opacity: 1; stroke-width: 0px; fill: rgb(255, 127, 14); fill-opacity: 1;"></path><path class="point" transform="translate(160.39,423.4)" d="M1.5,0A1.5,1.5 0 1,1 0,-1.5A1.5,1.5 0 0,1 1.5,0Z" style="opacity: 1; stroke-width: 0px; fill: rgb(255, 127, 14); fill-opacity: 1;"></path><path class="point" transform="translate(158.9,420.82)" d="M1.5,0A1.5,1.5 0 1,1 0,-1.5A1.5,1.5 0 0,1 1.5,0Z" style="opacity: 1; stroke-width: 0px; fill: rgb(255, 127, 14); fill-opacity: 1;"></path><path class="point" transform="translate(158,415.66)" d="M1.5,0A1.5,1.5 0 1,1 0,-1.5A1.5,1.5 0 0,1 1.5,0Z" style="opacity: 1; stroke-width: 0px; fill: rgb(255, 127, 14); fill-opacity: 1;"></path><path class="point" transform="translate(156.84,413.07)" d="M1.5,0A1.5,1.5 0 1,1 0,-1.5A1.5,1.5 0 0,1 1.5,0Z" style="opacity: 1; stroke-width: 0px; fill: rgb(255, 127, 14); fill-opacity: 1;"></path><path class="point" transform="translate(158.63,410.49)" d="M1.5,0A1.5,1.5 0 1,1 0,-1.5A1.5,1.5 0 0,1 1.5,0Z" style="opacity: 1; stroke-width: 0px; fill: rgb(255, 127, 14); fill-opacity: 1;"></path><path class="point" transform="translate(158.08,382.08)" d="M1.5,0A1.5,1.5 0 1,1 0,-1.5A1.5,1.5 0 0,1 1.5,0Z" style="opacity: 1; stroke-width: 0px; fill: rgb(255, 127, 14); fill-opacity: 1;"></path><path class="point" transform="translate(159.44,296.86)" d="M1.5,0A1.5,1.5 0 1,1 0,-1.5A1.5,1.5 0 0,1 1.5,0Z" style="opacity: 1; stroke-width: 0px; fill: rgb(255, 127, 14); fill-opacity: 1;"></path></g></g><g class="trace boxes" style="opacity: 1;"><path class="box" d="M314.38,407.91H382.37M314.38,427.92H382.37V354.97H314.38ZM348.38,427.92V433.73M348.38,354.97V294.27M341.58,433.73H355.17M341.58,294.27H355.17" style="vector-effect: non-scaling-stroke; stroke-width: 1px; stroke: rgb(44, 160, 44); stroke-opacity: 1; fill: rgb(44, 160, 101); fill-opacity: 0.5;"></path><g class="points"><path class="point" transform="translate(306.2,433.73)" d="M1.5,0A1.5,1.5 0 1,1 0,-1.5A1.5,1.5 0 0,1 1.5,0Z" style="opacity: 1; stroke-width: 0px; fill: rgb(44, 160, 44); fill-opacity: 1;"></path><path class="point" transform="translate(287.97,433.73)" d="M1.5,0A1.5,1.5 0 1,1 0,-1.5A1.5,1.5 0 0,1 1.5,0Z" style="opacity: 1; stroke-width: 0px; fill: rgb(44, 160, 44); fill-opacity: 1;"></path><path class="point" transform="translate(308.84,410.49)" d="M1.5,0A1.5,1.5 0 1,1 0,-1.5A1.5,1.5 0 0,1 1.5,0Z" style="opacity: 1; stroke-width: 0px; fill: rgb(44, 160, 44); fill-opacity: 1;"></path><path class="point" transform="translate(284.89,407.91)" d="M1.5,0A1.5,1.5 0 1,1 0,-1.5A1.5,1.5 0 0,1 1.5,0Z" style="opacity: 1; stroke-width: 0px; fill: rgb(44, 160, 44); fill-opacity: 1;"></path><path class="point" transform="translate(293.75,382.08)" d="M1.5,0A1.5,1.5 0 1,1 0,-1.5A1.5,1.5 0 0,1 1.5,0Z" style="opacity: 1; stroke-width: 0px; fill: rgb(44, 160, 44); fill-opacity: 1;"></path><path class="point" transform="translate(305.14,345.93)" d="M1.5,0A1.5,1.5 0 1,1 0,-1.5A1.5,1.5 0 0,1 1.5,0Z" style="opacity: 1; stroke-width: 0px; fill: rgb(44, 160, 44); fill-opacity: 1;"></path><path class="point" transform="translate(296.88,294.27)" d="M1.5,0A1.5,1.5 0 1,1 0,-1.5A1.5,1.5 0 0,1 1.5,0Z" style="opacity: 1; stroke-width: 0px; fill: rgb(44, 160, 44); fill-opacity: 1;"></path></g></g><g class="trace boxes" style="opacity: 1;"><path class="box" d="M453.13,167.73H521.12M453.13,214.21H521.12V139.32H453.13ZM487.13,214.21V214.21M487.13,139.32V136.73M480.33,214.21H493.92M480.33,136.73H493.92" style="vector-effect: non-scaling-stroke; stroke-width: 1px; stroke: rgb(214, 39, 40); stroke-opacity: 1; fill: rgb(255, 65, 54); fill-opacity: 0.5;"></path><g class="points"><path class="point" transform="translate(444.95,402.74)" d="M1.5,0A1.5,1.5 0 1,1 0,-1.5A1.5,1.5 0 0,1 1.5,0Z" style="opacity: 1; stroke-width: 0px; fill: rgb(214, 39, 40); fill-opacity: 1;"></path><path class="point" transform="translate(425.3,214.21)" d="M1.5,0A1.5,1.5 0 1,1 0,-1.5A1.5,1.5 0 0,1 1.5,0Z" style="opacity: 1; stroke-width: 0px; fill: rgb(214, 39, 40); fill-opacity: 1;"></path><path class="point" transform="translate(449.31,185.8)" d="M1.5,0A1.5,1.5 0 1,1 0,-1.5A1.5,1.5 0 0,1 1.5,0Z" style="opacity: 1; stroke-width: 0px; fill: rgb(214, 39, 40); fill-opacity: 1;"></path><path class="point" transform="translate(421.76,149.65)" d="M1.5,0A1.5,1.5 0 1,1 0,-1.5A1.5,1.5 0 0,1 1.5,0Z" style="opacity: 1; stroke-width: 0px; fill: rgb(214, 39, 40); fill-opacity: 1;"></path><path class="point" transform="translate(431.95,139.32)" d="M1.5,0A1.5,1.5 0 1,1 0,-1.5A1.5,1.5 0 0,1 1.5,0Z" style="opacity: 1; stroke-width: 0px; fill: rgb(214, 39, 40); fill-opacity: 1;"></path><path class="point" transform="translate(445.06,136.73)" d="M1.5,0A1.5,1.5 0 1,1 0,-1.5A1.5,1.5 0 0,1 1.5,0Z" style="opacity: 1; stroke-width: 0px; fill: rgb(214, 39, 40); fill-opacity: 1;"></path></g></g><g class="trace boxes" style="opacity: 1;"><path class="box" d="M591.88,159.98H659.87M591.88,230.35H659.87V127.05H591.88ZM625.88,230.35V353.67M625.88,127.05V23.1M619.08,353.67H632.67M619.08,23.1H632.67" style="vector-effect: non-scaling-stroke; stroke-width: 1px; stroke: rgb(148, 103, 189); stroke-opacity: 1; fill: rgb(207, 114, 255); fill-opacity: 0.5;"></path><g class="points"><path class="point" transform="translate(578.36,400.16)" d="M1.5,0A1.5,1.5 0 1,1 0,-1.5A1.5,1.5 0 0,1 1.5,0Z" style="opacity: 1; stroke-width: 0px; fill: rgb(148, 103, 189); fill-opacity: 1;"></path><path class="point" transform="translate(570.24,353.67)" d="M1.5,0A1.5,1.5 0 1,1 0,-1.5A1.5,1.5 0 0,1 1.5,0Z" style="opacity: 1; stroke-width: 0px; fill: rgb(148, 103, 189); fill-opacity: 1;"></path><path class="point" transform="translate(580.85,325.27)" d="M1.5,0A1.5,1.5 0 1,1 0,-1.5A1.5,1.5 0 0,1 1.5,0Z" style="opacity: 1; stroke-width: 0px; fill: rgb(148, 103, 189); fill-opacity: 1;"></path><path class="point" transform="translate(568.09,281.36)" d="M1.5,0A1.5,1.5 0 1,1 0,-1.5A1.5,1.5 0 0,1 1.5,0Z" style="opacity: 1; stroke-width: 0px; fill: rgb(148, 103, 189); fill-opacity: 1;"></path><path class="point" transform="translate(572.78,278.78)" d="M1.5,0A1.5,1.5 0 1,1 0,-1.5A1.5,1.5 0 0,1 1.5,0Z" style="opacity: 1; stroke-width: 0px; fill: rgb(148, 103, 189); fill-opacity: 1;"></path><path class="point" transform="translate(579.38,242.62)" d="M1.5,0A1.5,1.5 0 1,1 0,-1.5A1.5,1.5 0 0,1 1.5,0Z" style="opacity: 1; stroke-width: 0px; fill: rgb(148, 103, 189); fill-opacity: 1;"></path><path class="point" transform="translate(574.53,240.04)" d="M1.5,0A1.5,1.5 0 1,1 0,-1.5A1.5,1.5 0 0,1 1.5,0Z" style="opacity: 1; stroke-width: 0px; fill: rgb(148, 103, 189); fill-opacity: 1;"></path><path class="point" transform="translate(577.95,232.29)" d="M1.5,0A1.5,1.5 0 1,1 0,-1.5A1.5,1.5 0 0,1 1.5,0Z" style="opacity: 1; stroke-width: 0px; fill: rgb(148, 103, 189); fill-opacity: 1;"></path><path class="point" transform="translate(570.89,224.54)" d="M1.5,0A1.5,1.5 0 1,1 0,-1.5A1.5,1.5 0 0,1 1.5,0Z" style="opacity: 1; stroke-width: 0px; fill: rgb(148, 103, 189); fill-opacity: 1;"></path><path class="point" transform="translate(566.3,224.54)" d="M1.5,0A1.5,1.5 0 1,1 0,-1.5A1.5,1.5 0 0,1 1.5,0Z" style="opacity: 1; stroke-width: 0px; fill: rgb(148, 103, 189); fill-opacity: 1;"></path><path class="point" transform="translate(578.38,206.47)" d="M1.5,0A1.5,1.5 0 1,1 0,-1.5A1.5,1.5 0 0,1 1.5,0Z" style="opacity: 1; stroke-width: 0px; fill: rgb(148, 103, 189); fill-opacity: 1;"></path><path class="point" transform="translate(570.64,201.3)" d="M1.5,0A1.5,1.5 0 1,1 0,-1.5A1.5,1.5 0 0,1 1.5,0Z" style="opacity: 1; stroke-width: 0px; fill: rgb(148, 103, 189); fill-opacity: 1;"></path><path class="point" transform="translate(583.32,198.72)" d="M1.5,0A1.5,1.5 0 1,1 0,-1.5A1.5,1.5 0 0,1 1.5,0Z" style="opacity: 1; stroke-width: 0px; fill: rgb(148, 103, 189); fill-opacity: 1;"></path><path class="point" transform="translate(561.25,190.97)" d="M1.5,0A1.5,1.5 0 1,1 0,-1.5A1.5,1.5 0 0,1 1.5,0Z" style="opacity: 1; stroke-width: 0px; fill: rgb(148, 103, 189); fill-opacity: 1;"></path><path class="point" transform="translate(566.92,175.47)" d="M1.5,0A1.5,1.5 0 1,1 0,-1.5A1.5,1.5 0 0,1 1.5,0Z" style="opacity: 1; stroke-width: 0px; fill: rgb(148, 103, 189); fill-opacity: 1;"></path><path class="point" transform="translate(587.99,159.98)" d="M1.5,0A1.5,1.5 0 1,1 0,-1.5A1.5,1.5 0 0,1 1.5,0Z" style="opacity: 1; stroke-width: 0px; fill: rgb(148, 103, 189); fill-opacity: 1;"></path><path class="point" transform="translate(571.09,154.81)" d="M1.5,0A1.5,1.5 0 1,1 0,-1.5A1.5,1.5 0 0,1 1.5,0Z" style="opacity: 1; stroke-width: 0px; fill: rgb(148, 103, 189); fill-opacity: 1;"></path><path class="point" transform="translate(562.65,152.23)" d="M1.5,0A1.5,1.5 0 1,1 0,-1.5A1.5,1.5 0 0,1 1.5,0Z" style="opacity: 1; stroke-width: 0px; fill: rgb(148, 103, 189); fill-opacity: 1;"></path><path class="point" transform="translate(569.99,152.23)" d="M1.5,0A1.5,1.5 0 1,1 0,-1.5A1.5,1.5 0 0,1 1.5,0Z" style="opacity: 1; stroke-width: 0px; fill: rgb(148, 103, 189); fill-opacity: 1;"></path><path class="point" transform="translate(574.54,149.65)" d="M1.5,0A1.5,1.5 0 1,1 0,-1.5A1.5,1.5 0 0,1 1.5,0Z" style="opacity: 1; stroke-width: 0px; fill: rgb(148, 103, 189); fill-opacity: 1;"></path><path class="point" transform="translate(582.53,141.9)" d="M1.5,0A1.5,1.5 0 1,1 0,-1.5A1.5,1.5 0 0,1 1.5,0Z" style="opacity: 1; stroke-width: 0px; fill: rgb(148, 103, 189); fill-opacity: 1;"></path><path class="point" transform="translate(576.77,139.32)" d="M1.5,0A1.5,1.5 0 1,1 0,-1.5A1.5,1.5 0 0,1 1.5,0Z" style="opacity: 1; stroke-width: 0px; fill: rgb(148, 103, 189); fill-opacity: 1;"></path><path class="point" transform="translate(570.43,128.99)" d="M1.5,0A1.5,1.5 0 1,1 0,-1.5A1.5,1.5 0 0,1 1.5,0Z" style="opacity: 1; stroke-width: 0px; fill: rgb(148, 103, 189); fill-opacity: 1;"></path><path class="point" transform="translate(563.76,126.4)" d="M1.5,0A1.5,1.5 0 1,1 0,-1.5A1.5,1.5 0 0,1 1.5,0Z" style="opacity: 1; stroke-width: 0px; fill: rgb(148, 103, 189); fill-opacity: 1;"></path><path class="point" transform="translate(574.85,121.24)" d="M1.5,0A1.5,1.5 0 1,1 0,-1.5A1.5,1.5 0 0,1 1.5,0Z" style="opacity: 1; stroke-width: 0px; fill: rgb(148, 103, 189); fill-opacity: 1;"></path><path class="point" transform="translate(571.69,110.91)" d="M1.5,0A1.5,1.5 0 1,1 0,-1.5A1.5,1.5 0 0,1 1.5,0Z" style="opacity: 1; stroke-width: 0px; fill: rgb(148, 103, 189); fill-opacity: 1;"></path><path class="point" transform="translate(579.76,105.74)" d="M1.5,0A1.5,1.5 0 1,1 0,-1.5A1.5,1.5 0 0,1 1.5,0Z" style="opacity: 1; stroke-width: 0px; fill: rgb(148, 103, 189); fill-opacity: 1;"></path><path class="point" transform="translate(573.97,95.41)" d="M1.5,0A1.5,1.5 0 1,1 0,-1.5A1.5,1.5 0 0,1 1.5,0Z" style="opacity: 1; stroke-width: 0px; fill: rgb(148, 103, 189); fill-opacity: 1;"></path><path class="point" transform="translate(568.47,72.17)" d="M1.5,0A1.5,1.5 0 1,1 0,-1.5A1.5,1.5 0 0,1 1.5,0Z" style="opacity: 1; stroke-width: 0px; fill: rgb(148, 103, 189); fill-opacity: 1;"></path><path class="point" transform="translate(566.2,67)" d="M1.5,0A1.5,1.5 0 1,1 0,-1.5A1.5,1.5 0 0,1 1.5,0Z" style="opacity: 1; stroke-width: 0px; fill: rgb(148, 103, 189); fill-opacity: 1;"></path><path class="point" transform="translate(579.95,23.1)" d="M1.5,0A1.5,1.5 0 1,1 0,-1.5A1.5,1.5 0 0,1 1.5,0Z" style="opacity: 1; stroke-width: 0px; fill: rgb(148, 103, 189); fill-opacity: 1;"></path></g></g><g class="trace boxes" style="opacity: 1;"><path class="box" d="M730.63,320.1H798.62M730.63,347.22H798.62V283.3H730.63ZM764.63,347.22V392.41M764.63,283.3V224.54M757.83,392.41H771.42M757.83,224.54H771.42" style="vector-effect: non-scaling-stroke; stroke-width: 1px; stroke: rgb(140, 86, 75); stroke-opacity: 1; fill: rgb(127, 96, 0); fill-opacity: 0.5;"></path><g class="points"><path class="point" transform="translate(721.18,392.41)" d="M1.5,0A1.5,1.5 0 1,1 0,-1.5A1.5,1.5 0 0,1 1.5,0Z" style="opacity: 1; stroke-width: 0px; fill: rgb(140, 86, 75); fill-opacity: 1;"></path><path class="point" transform="translate(703.49,366.59)" d="M1.5,0A1.5,1.5 0 1,1 0,-1.5A1.5,1.5 0 0,1 1.5,0Z" style="opacity: 1; stroke-width: 0px; fill: rgb(140, 86, 75); fill-opacity: 1;"></path><path class="point" transform="translate(726.81,340.76)" d="M1.5,0A1.5,1.5 0 1,1 0,-1.5A1.5,1.5 0 0,1 1.5,0Z" style="opacity: 1; stroke-width: 0px; fill: rgb(140, 86, 75); fill-opacity: 1;"></path><path class="point" transform="translate(701.13,338.18)" d="M1.5,0A1.5,1.5 0 1,1 0,-1.5A1.5,1.5 0 0,1 1.5,0Z" style="opacity: 1; stroke-width: 0px; fill: rgb(140, 86, 75); fill-opacity: 1;"></path><path class="point" transform="translate(709.99,320.1)" d="M1.5,0A1.5,1.5 0 1,1 0,-1.5A1.5,1.5 0 0,1 1.5,0Z" style="opacity: 1; stroke-width: 0px; fill: rgb(140, 86, 75); fill-opacity: 1;"></path><path class="point" transform="translate(721.39,283.94)" d="M1.5,0A1.5,1.5 0 1,1 0,-1.5A1.5,1.5 0 0,1 1.5,0Z" style="opacity: 1; stroke-width: 0px; fill: rgb(140, 86, 75); fill-opacity: 1;"></path><path class="point" transform="translate(713.07,283.94)" d="M1.5,0A1.5,1.5 0 1,1 0,-1.5A1.5,1.5 0 0,1 1.5,0Z" style="opacity: 1; stroke-width: 0px; fill: rgb(140, 86, 75); fill-opacity: 1;"></path><path class="point" transform="translate(718.09,281.36)" d="M1.5,0A1.5,1.5 0 1,1 0,-1.5A1.5,1.5 0 0,1 1.5,0Z" style="opacity: 1; stroke-width: 0px; fill: rgb(140, 86, 75); fill-opacity: 1;"></path><path class="point" transform="translate(709.1,224.54)" d="M1.5,0A1.5,1.5 0 1,1 0,-1.5A1.5,1.5 0 0,1 1.5,0Z" style="opacity: 1; stroke-width: 0px; fill: rgb(140, 86, 75); fill-opacity: 1;"></path></g></g></g></g><g class="overplot"></g><path class="xlines-above crisp" d="M0,0" style="fill: none;"></path><path class="ylines-above crisp" d="M0,0" style="fill: none;"></path><g class="overlines-above"></g><g class="xaxislayer-above"><g class="xtick"><text text-anchor="middle" x="0" y="575" data-unformatted="Latin America" data-math="N" transform="translate(110.88,0)" style="font-family: &quot;Open Sans&quot;, verdana, arial, sans-serif; font-size: 12px; fill: rgb(68, 68, 68); fill-opacity: 1; white-space: pre;">Latin America</text></g><g class="xtick"><text text-anchor="middle" x="0" y="575" data-unformatted="OECD" data-math="N" transform="translate(249.63,0)" style="font-family: &quot;Open Sans&quot;, verdana, arial, sans-serif; font-size: 12px; fill: rgb(68, 68, 68); fill-opacity: 1; white-space: pre;">OECD</text></g><g class="xtick"><text text-anchor="middle" x="0" y="575" data-unformatted="East Asia" data-math="N" transform="translate(388.38,0)" style="font-family: &quot;Open Sans&quot;, verdana, arial, sans-serif; font-size: 12px; fill: rgb(68, 68, 68); fill-opacity: 1; white-space: pre;">East Asia</text></g><g class="xtick"><text text-anchor="middle" x="0" y="575" data-unformatted="Other Asia" data-math="N" transform="translate(527.13,0)" style="font-family: &quot;Open Sans&quot;, verdana, arial, sans-serif; font-size: 12px; fill: rgb(68, 68, 68); fill-opacity: 1; white-space: pre;">Other Asia</text></g><g class="xtick"><text text-anchor="middle" x="0" y="575" data-unformatted="Africa" data-math="N" transform="translate(665.88,0)" style="font-family: &quot;Open Sans&quot;, verdana, arial, sans-serif; font-size: 12px; fill: rgb(68, 68, 68); fill-opacity: 1; white-space: pre;">Africa</text></g><g class="xtick"><text text-anchor="middle" x="0" y="575" data-unformatted="Gulf" data-math="N" transform="translate(804.63,0)" style="font-family: &quot;Open Sans&quot;, verdana, arial, sans-serif; font-size: 12px; fill: rgb(68, 68, 68); fill-opacity: 1; white-space: pre;">Gulf</text></g></g><g class="yaxislayer-above"><g class="ytick"><text text-anchor="end" x="39" y="4.199999999999999" data-unformatted="0" data-math="N" transform="translate(0,551.81)" style="font-family: &quot;Open Sans&quot;, verdana, arial, sans-serif; font-size: 12px; fill: rgb(68, 68, 68); fill-opacity: 1; white-space: pre;">0</text></g><g class="ytick"><text text-anchor="end" x="39" y="4.199999999999999" data-unformatted="10" data-math="N" transform="translate(0,525.99)" style="font-family: &quot;Open Sans&quot;, verdana, arial, sans-serif; font-size: 12px; fill: rgb(68, 68, 68); fill-opacity: 1; white-space: pre;">10</text></g><g class="ytick"><text text-anchor="end" x="39" y="4.199999999999999" data-unformatted="20" data-math="N" transform="translate(0,500.16)" style="font-family: &quot;Open Sans&quot;, verdana, arial, sans-serif; font-size: 12px; fill: rgb(68, 68, 68); fill-opacity: 1; white-space: pre;">20</text></g><g class="ytick"><text text-anchor="end" x="39" y="4.199999999999999" data-unformatted="30" data-math="N" transform="translate(0,474.33)" style="font-family: &quot;Open Sans&quot;, verdana, arial, sans-serif; font-size: 12px; fill: rgb(68, 68, 68); fill-opacity: 1; white-space: pre;">30</text></g><g class="ytick"><text text-anchor="end" x="39" y="4.199999999999999" data-unformatted="40" data-math="N" transform="translate(0,448.51)" style="font-family: &quot;Open Sans&quot;, verdana, arial, sans-serif; font-size: 12px; fill: rgb(68, 68, 68); fill-opacity: 1; white-space: pre;">40</text></g><g class="ytick"><text text-anchor="end" x="39" y="4.199999999999999" data-unformatted="50" data-math="N" transform="translate(0,422.68)" style="font-family: &quot;Open Sans&quot;, verdana, arial, sans-serif; font-size: 12px; fill: rgb(68, 68, 68); fill-opacity: 1; white-space: pre;">50</text></g><g class="ytick"><text text-anchor="end" x="39" y="4.199999999999999" data-unformatted="60" data-math="N" transform="translate(0,396.86)" style="font-family: &quot;Open Sans&quot;, verdana, arial, sans-serif; font-size: 12px; fill: rgb(68, 68, 68); fill-opacity: 1; white-space: pre;">60</text></g><g class="ytick"><text text-anchor="end" x="39" y="4.199999999999999" data-unformatted="70" data-math="N" transform="translate(0,371.03)" style="font-family: &quot;Open Sans&quot;, verdana, arial, sans-serif; font-size: 12px; fill: rgb(68, 68, 68); fill-opacity: 1; white-space: pre;">70</text></g><g class="ytick"><text text-anchor="end" x="39" y="4.199999999999999" data-unformatted="80" data-math="N" transform="translate(0,345.2)" style="font-family: &quot;Open Sans&quot;, verdana, arial, sans-serif; font-size: 12px; fill: rgb(68, 68, 68); fill-opacity: 1; white-space: pre;">80</text></g><g class="ytick"><text text-anchor="end" x="39" y="4.199999999999999" data-unformatted="90" data-math="N" transform="translate(0,319.38)" style="font-family: &quot;Open Sans&quot;, verdana, arial, sans-serif; font-size: 12px; fill: rgb(68, 68, 68); fill-opacity: 1; white-space: pre;">90</text></g><g class="ytick"><text text-anchor="end" x="39" y="4.199999999999999" data-unformatted="100" data-math="N" transform="translate(0,293.55)" style="font-family: &quot;Open Sans&quot;, verdana, arial, sans-serif; font-size: 12px; fill: rgb(68, 68, 68); fill-opacity: 1; white-space: pre;">100</text></g><g class="ytick"><text text-anchor="end" x="39" y="4.199999999999999" data-unformatted="110" data-math="N" transform="translate(0,267.73)" style="font-family: &quot;Open Sans&quot;, verdana, arial, sans-serif; font-size: 12px; fill: rgb(68, 68, 68); fill-opacity: 1; white-space: pre;">110</text></g><g class="ytick"><text text-anchor="end" x="39" y="4.199999999999999" data-unformatted="120" data-math="N" transform="translate(0,241.9)" style="font-family: &quot;Open Sans&quot;, verdana, arial, sans-serif; font-size: 12px; fill: rgb(68, 68, 68); fill-opacity: 1; white-space: pre;">120</text></g><g class="ytick"><text text-anchor="end" x="39" y="4.199999999999999" data-unformatted="130" data-math="N" transform="translate(0,216.07)" style="font-family: &quot;Open Sans&quot;, verdana, arial, sans-serif; font-size: 12px; fill: rgb(68, 68, 68); fill-opacity: 1; white-space: pre;">130</text></g><g class="ytick"><text text-anchor="end" x="39" y="4.199999999999999" data-unformatted="140" data-math="N" transform="translate(0,190.25)" style="font-family: &quot;Open Sans&quot;, verdana, arial, sans-serif; font-size: 12px; fill: rgb(68, 68, 68); fill-opacity: 1; white-space: pre;">140</text></g><g class="ytick"><text text-anchor="end" x="39" y="4.199999999999999" data-unformatted="150" data-math="N" transform="translate(0,164.42000000000002)" style="font-family: &quot;Open Sans&quot;, verdana, arial, sans-serif; font-size: 12px; fill: rgb(68, 68, 68); fill-opacity: 1; white-space: pre;">150</text></g><g class="ytick"><text text-anchor="end" x="39" y="4.199999999999999" data-unformatted="160" data-math="N" transform="translate(0,138.6)" style="font-family: &quot;Open Sans&quot;, verdana, arial, sans-serif; font-size: 12px; fill: rgb(68, 68, 68); fill-opacity: 1; white-space: pre;">160</text></g><g class="ytick"><text text-anchor="end" x="39" y="4.199999999999999" data-unformatted="170" data-math="N" transform="translate(0,112.77)" style="font-family: &quot;Open Sans&quot;, verdana, arial, sans-serif; font-size: 12px; fill: rgb(68, 68, 68); fill-opacity: 1; white-space: pre;">170</text></g></g><g class="overaxes-above"></g></g></g><g class="polarlayer"></g><g class="ternarylayer"></g><g class="geolayer"></g><g class="funnelarealayer"></g><g class="pielayer"></g><g class="treemaplayer"></g><g class="sunburstlayer"></g><g class="glimages"></g></svg><div class="gl-container"></div><svg class="main-svg" style="position: absolute" xmlns="http://www.w3.org/2000/svg" xmlns:xlink="http://www.w3.org/1999/xlink" width="904.225352112676" height="642"><defs id="topdefs-ababe6"><g class="clips"></g></defs><g class="indicatorlayer"></g><g class="layer-above"><g class="imagelayer"></g><g class="shapelayer"></g></g><g class="infolayer"><g class="g-gtitle"><text class="gtitle" x="452.112676056338" y="50" text-anchor="middle" dy="0em" data-unformatted="Infant mortality rate by Region per 1000 live births" data-math="N" style="font-family: &quot;Open Sans&quot;, verdana, arial, sans-serif; font-size: 17px; fill: rgb(68, 68, 68); opacity: 1; font-weight: normal; white-space: pre;">Infant mortality rate by Region per 1000 live births</text></g><g class="g-xtitle"></g><g class="g-ytitle"></g></g><g class="menulayer"></g><g class="zoomlayer"></g></svg><div class="modebar-container" style="position: absolute; top: 0px; right: 0px; width: 100%;"><div id="modebar-ababe6" class="modebar modebar--hover ease-bg"><div class="modebar-group"><a rel="tooltip" class="modebar-btn" data-title="Download plot as a png" data-toggle="false" data-gravity="n"><svg viewBox="0 0 1000 1000" class="icon" height="1em" width="1em"><path d="m500 450c-83 0-150-67-150-150 0-83 67-150 150-150 83 0 150 67 150 150 0 83-67 150-150 150z m400 150h-120c-16 0-34 13-39 29l-31 93c-6 15-23 28-40 28h-340c-16 0-34-13-39-28l-31-94c-6-15-23-28-40-28h-120c-55 0-100-45-100-100v-450c0-55 45-100 100-100h800c55 0 100 45 100 100v450c0 55-45 100-100 100z m-400-550c-138 0-250 112-250 250 0 138 112 250 250 250 138 0 250-112 250-250 0-138-112-250-250-250z m365 380c-19 0-35 16-35 35 0 19 16 35 35 35 19 0 35-16 35-35 0-19-16-35-35-35z" transform="matrix(1 0 0 -1 0 850)"></path></svg></a></div><div class="modebar-group"><a rel="tooltip" class="modebar-btn active" data-title="Zoom" data-attr="dragmode" data-val="zoom" data-toggle="false" data-gravity="n"><svg viewBox="0 0 1000 1000" class="icon" height="1em" width="1em"><path d="m1000-25l-250 251c40 63 63 138 63 218 0 224-182 406-407 406-224 0-406-182-406-406s183-406 407-406c80 0 155 22 218 62l250-250 125 125z m-812 250l0 438 437 0 0-438-437 0z m62 375l313 0 0-312-313 0 0 312z" transform="matrix(1 0 0 -1 0 850)"></path></svg></a><a rel="tooltip" class="modebar-btn" data-title="Pan" data-attr="dragmode" data-val="pan" data-toggle="false" data-gravity="n"><svg viewBox="0 0 1000 1000" class="icon" height="1em" width="1em"><path d="m1000 350l-187 188 0-125-250 0 0 250 125 0-188 187-187-187 125 0 0-250-250 0 0 125-188-188 186-187 0 125 252 0 0-250-125 0 187-188 188 188-125 0 0 250 250 0 0-126 187 188z" transform="matrix(1 0 0 -1 0 850)"></path></svg></a><a rel="tooltip" class="modebar-btn" data-title="Box Select" data-attr="dragmode" data-val="select" data-toggle="false" data-gravity="n"><svg viewBox="0 0 1000 1000" class="icon" height="1em" width="1em"><path d="m0 850l0-143 143 0 0 143-143 0z m286 0l0-143 143 0 0 143-143 0z m285 0l0-143 143 0 0 143-143 0z m286 0l0-143 143 0 0 143-143 0z m-857-286l0-143 143 0 0 143-143 0z m857 0l0-143 143 0 0 143-143 0z m-857-285l0-143 143 0 0 143-143 0z m857 0l0-143 143 0 0 143-143 0z m-857-286l0-143 143 0 0 143-143 0z m286 0l0-143 143 0 0 143-143 0z m285 0l0-143 143 0 0 143-143 0z m286 0l0-143 143 0 0 143-143 0z" transform="matrix(1 0 0 -1 0 850)"></path></svg></a><a rel="tooltip" class="modebar-btn" data-title="Lasso Select" data-attr="dragmode" data-val="lasso" data-toggle="false" data-gravity="n"><svg viewBox="0 0 1031 1000" class="icon" height="1em" width="1em"><path d="m1018 538c-36 207-290 336-568 286-277-48-473-256-436-463 10-57 36-108 76-151-13-66 11-137 68-183 34-28 75-41 114-42l-55-70 0 0c-2-1-3-2-4-3-10-14-8-34 5-45 14-11 34-8 45 4 1 1 2 3 2 5l0 0 113 140c16 11 31 24 45 40 4 3 6 7 8 11 48-3 100 0 151 9 278 48 473 255 436 462z m-624-379c-80 14-149 48-197 96 42 42 109 47 156 9 33-26 47-66 41-105z m-187-74c-19 16-33 37-39 60 50-32 109-55 174-68-42-25-95-24-135 8z m360 75c-34-7-69-9-102-8 8 62-16 128-68 170-73 59-175 54-244-5-9 20-16 40-20 61-28 159 121 317 333 354s407-60 434-217c28-159-121-318-333-355z" transform="matrix(1 0 0 -1 0 850)"></path></svg></a></div><div class="modebar-group"><a rel="tooltip" class="modebar-btn" data-title="Zoom in" data-attr="zoom" data-val="in" data-toggle="false" data-gravity="n"><svg viewBox="0 0 875 1000" class="icon" height="1em" width="1em"><path d="m1 787l0-875 875 0 0 875-875 0z m687-500l-187 0 0-187-125 0 0 187-188 0 0 125 188 0 0 187 125 0 0-187 187 0 0-125z" transform="matrix(1 0 0 -1 0 850)"></path></svg></a><a rel="tooltip" class="modebar-btn" data-title="Zoom out" data-attr="zoom" data-val="out" data-toggle="false" data-gravity="n"><svg viewBox="0 0 875 1000" class="icon" height="1em" width="1em"><path d="m0 788l0-876 875 0 0 876-875 0z m688-500l-500 0 0 125 500 0 0-125z" transform="matrix(1 0 0 -1 0 850)"></path></svg></a><a rel="tooltip" class="modebar-btn" data-title="Autoscale" data-attr="zoom" data-val="auto" data-toggle="false" data-gravity="n"><svg viewBox="0 0 1000 1000" class="icon" height="1em" width="1em"><path d="m250 850l-187 0-63 0 0-62 0-188 63 0 0 188 187 0 0 62z m688 0l-188 0 0-62 188 0 0-188 62 0 0 188 0 62-62 0z m-875-938l0 188-63 0 0-188 0-62 63 0 187 0 0 62-187 0z m875 188l0-188-188 0 0-62 188 0 62 0 0 62 0 188-62 0z m-125 188l-1 0-93-94-156 156 156 156 92-93 2 0 0 250-250 0 0-2 93-92-156-156-156 156 94 92 0 2-250 0 0-250 0 0 93 93 157-156-157-156-93 94 0 0 0-250 250 0 0 0-94 93 156 157 156-157-93-93 0 0 250 0 0 250z" transform="matrix(1 0 0 -1 0 850)"></path></svg></a><a rel="tooltip" class="modebar-btn" data-title="Reset axes" data-attr="zoom" data-val="reset" data-toggle="false" data-gravity="n"><svg viewBox="0 0 928.6 1000" class="icon" height="1em" width="1em"><path d="m786 296v-267q0-15-11-26t-25-10h-214v214h-143v-214h-214q-15 0-25 10t-11 26v267q0 1 0 2t0 2l321 264 321-264q1-1 1-4z m124 39l-34-41q-5-5-12-6h-2q-7 0-12 3l-386 322-386-322q-7-4-13-4-7 2-12 7l-35 41q-4 5-3 13t6 12l401 334q18 15 42 15t43-15l136-114v109q0 8 5 13t13 5h107q8 0 13-5t5-13v-227l122-102q5-5 6-12t-4-13z" transform="matrix(1 0 0 -1 0 850)"></path></svg></a></div><div class="modebar-group"><a rel="tooltip" class="modebar-btn" data-title="Toggle Spike Lines" data-attr="_cartesianSpikesEnabled" data-val="on" data-toggle="false" data-gravity="n"><svg viewBox="0 0 1000 1000" class="icon" height="1em" width="1em"><path d="M512 409c0-57-46-104-103-104-57 0-104 47-104 104 0 57 47 103 104 103 57 0 103-46 103-103z m-327-39l92 0 0 92-92 0z m-185 0l92 0 0 92-92 0z m370-186l92 0 0 93-92 0z m0-184l92 0 0 92-92 0z" transform="matrix(1.5 0 0 -1.5 0 850)"></path></svg></a><a rel="tooltip" class="modebar-btn" data-title="Show closest data on hover" data-attr="hovermode" data-val="closest" data-toggle="false" data-gravity="ne"><svg viewBox="0 0 1500 1000" class="icon" height="1em" width="1em"><path d="m375 725l0 0-375-375 375-374 0-1 1125 0 0 750-1125 0z" transform="matrix(1 0 0 -1 0 850)"></path></svg></a><a rel="tooltip" class="modebar-btn active" data-title="Compare data on hover" data-attr="hovermode" data-val="x" data-toggle="false" data-gravity="ne"><svg viewBox="0 0 1125 1000" class="icon" height="1em" width="1em"><path d="m187 786l0 2-187-188 188-187 0 0 937 0 0 373-938 0z m0-499l0 1-187-188 188-188 0 0 937 0 0 376-938-1z" transform="matrix(1 0 0 -1 0 850)"></path></svg></a></div></div></div><svg class="main-svg" style="position: absolute" xmlns="http://www.w3.org/2000/svg" xmlns:xlink="http://www.w3.org/1999/xlink" width="904.225352112676" height="642"><g class="hoverlayer"></g></svg>