<svg class="main-svg" style="position: absolute" xmlns="http://www.w3.org/2000/svg" xmlns:xlink="http://www.w3.org/1999/xlink" width="1000" height="1000" style="background: rgb(255, 255, 255);"><defs id="defs-6889c9"><g class="clips"><clipPath id="clip6889c9xyplot" class="plotclip"><rect width="820" height="800"></rect></clipPath><clipPath class="axesclip" id="clip6889c9x"><rect x="100" y="0" width="820" height="1000"></rect></clipPath><clipPath class="axesclip" id="clip6889c9y"><rect x="0" y="100" width="1000" height="800"></rect></clipPath><clipPath class="axesclip" id="clip6889c9xy"><rect x="100" y="100" width="820" height="800"></rect></clipPath></g><g class="gradients"></g></defs><g class="bglayer"></g><g class="draglayer cursor-crosshair"><g class="xy"><rect class="nsewdrag drag" data-subplot="xy" x="100" y="100" width="820" height="800" style="fill: transparent; stroke-width: 0; pointer-events: all;"></rect><rect class="nwdrag drag cursor-nw-resize" data-subplot="xy" x="80" y="80" width="20" height="20" style="fill: transparent; stroke-width: 0; pointer-events: all;"></rect><rect class="nedrag drag cursor-ne-resize" data-subplot="xy" x="920" y="80" width="20" height="20" style="fill: transparent; stroke-width: 0; pointer-events: all;"></rect><rect class="swdrag drag cursor-sw-resize" data-subplot="xy" x="80" y="900" width="20" height="20" style="fill: transparent; stroke-width: 0; pointer-events: all;"></rect><rect class="sedrag drag cursor-se-resize" data-subplot="xy" x="920" y="900" width="20" height="20" style="fill: transparent; stroke-width: 0; pointer-events: all;"></rect><rect class="ewdrag drag cursor-ew-resize" data-subplot="xy" x="182" y="901" width="656" height="20" style="fill: transparent; stroke-width: 0; pointer-events: all;"></rect><rect class="wdrag drag cursor-w-resize" data-subplot="xy" x="100" y="901" width="82" height="20" style="fill: transparent; stroke-width: 0; pointer-events: all;"></rect><rect class="edrag drag cursor-e-resize" data-subplot="xy" x="838" y="901" width="82" height="20" style="fill: transparent; stroke-width: 0; pointer-events: all;"></rect><rect class="nsdrag drag cursor-ns-resize" data-subplot="xy" x="79" y="180" width="20" height="640" style="fill: transparent; stroke-width: 0; pointer-events: all;"></rect><rect class="sdrag drag cursor-s-resize" data-subplot="xy" x="79" y="820" width="20" height="80" style="fill: transparent; stroke-width: 0; pointer-events: all;"></rect><rect class="ndrag drag cursor-n-resize" data-subplot="xy" x="79" y="100" width="20" height="80" style="fill: transparent; stroke-width: 0; pointer-events: all;"></rect></g></g><g class="layer-below"><g class="imagelayer"></g><g class="shapelayer"></g></g><g class="cartesianlayer"><g class="subplot xy"><g class="layer-subplot"><g class="shapelayer"></g><g class="imagelayer"></g></g><g class="gridlayer"><g class="x"></g><g class="y"></g></g><g class="zerolinelayer"></g><path class="xlines-below"></path><path class="ylines-below"></path><g class="overlines-below"></g><g class="xaxislayer-below"></g><g class="yaxislayer-below"></g><g class="overaxes-below"></g><g class="plot" transform="translate(100,100)" clip-path="url('#clip6889c9xyplot')"><g class="boxlayer mlayer"><g class="trace boxes" style="opacity: 1;"><path class="box" d="M38.87,344H63.8M38.87,420H63.8V314H38.87ZM51.33,420V488M51.33,314V304M45.1,488H57.56M45.1,304H57.56" style="vector-effect: non-scaling-stroke; stroke-width: 3px; stroke: rgb(0, 0, 0); stroke-opacity: 1; fill: rgb(204, 204, 204); fill-opacity: 1;"></path><g class="points"><path class="point" transform="translate(51.33,104)" d="M3,0A3,3 0 1,1 0,-3A3,3 0 0,1 3,0Z" style="opacity: 1; stroke-width: 0px; fill: rgb(0, 0, 0); fill-opacity: 1;"></path></g><path class="mean" d="M38.87,342.86H63.8" style="fill: none; vector-effect: non-scaling-stroke; stroke-width: 3; stroke-dasharray: 6px, 3px; stroke: rgb(0, 0, 0); stroke-opacity: 1;"></path></g><g class="trace boxes" style="opacity: 1;"><path class="box" d="M277.98,416H302.91M277.98,514H302.91V346H277.98ZM290.44,514V600M290.44,346V184M284.21,600H296.68M284.21,184H296.68" style="vector-effect: non-scaling-stroke; stroke-width: 3px; stroke: rgb(0, 0, 0); stroke-opacity: 1; fill: rgb(204, 204, 204); fill-opacity: 1;"></path><g class="points"></g><path class="mean" d="M277.98,411.43H302.91" style="fill: none; vector-effect: non-scaling-stroke; stroke-width: 3; stroke-dasharray: 6px, 3px; stroke: rgb(0, 0, 0); stroke-opacity: 1;"></path></g><g class="trace boxes" style="opacity: 1;"><path class="box" d="M517.09,440H542.02M517.09,508H542.02V366H517.09ZM529.56,508V560M529.56,366V312M523.32,560H535.79M523.32,312H535.79" style="vector-effect: non-scaling-stroke; stroke-width: 3px; stroke: rgb(0, 0, 0); stroke-opacity: 1; fill: rgb(204, 204, 204); fill-opacity: 1;"></path><g class="points"></g><path class="mean" d="M517.09,437.71H542.02" style="fill: none; vector-effect: non-scaling-stroke; stroke-width: 3; stroke-dasharray: 6px, 3px; stroke: rgb(0, 0, 0); stroke-opacity: 1;"></path></g><g class="trace boxes" style="opacity: 1;"><path class="box" d="M756.2,200H781.13M756.2,320H781.13V126H756.2ZM768.67,320V424M768.67,126V104M762.44,424H774.9M762.44,104H774.9" style="vector-effect: non-scaling-stroke; stroke-width: 3px; stroke: rgb(0, 0, 0); stroke-opacity: 1; fill: rgb(204, 204, 204); fill-opacity: 1;"></path><g class="points"><path class="point" transform="translate(768.67,-13600)" d="M3,0A3,3 0 1,1 0,-3A3,3 0 0,1 3,0Z" style="opacity: 1; stroke-width: 0px; fill: rgb(0, 0, 0); fill-opacity: 1;"></path></g><path class="mean" d="M756.2,-1724.57H781.13" style="fill: none; vector-effect: non-scaling-stroke; stroke-width: 3; stroke-dasharray: 6px, 3px; stroke: rgb(0, 0, 0); stroke-opacity: 1;"></path></g></g></g><g class="overplot"></g><path class="xlines-above crisp" d="M98,901H920" style="fill: none; stroke-width: 2px; stroke: rgb(68, 68, 68); stroke-opacity: 1;"></path><path class="ylines-above crisp" d="M99,100V900" style="fill: none; stroke-width: 2px; stroke: rgb(68, 68, 68); stroke-opacity: 1;"></path><g class="overlines-above"></g><g class="xaxislayer-above"><g class="xtick"><text text-anchor="middle" x="0" y="928.4" data-unformatted="BI" data-math="N" transform="translate(204.75,0)" style="font-family: &quot;Open Sans&quot;, verdana, arial, sans-serif; font-size: 22px; fill: rgb(68, 68, 68); fill-opacity: 1; white-space: pre;">BI</text></g><g class="xtick"><text text-anchor="middle" x="0" y="928.4" data-unformatted="BII" data-math="N" transform="translate(408.25,0)" style="font-family: &quot;Open Sans&quot;, verdana, arial, sans-serif; font-size: 22px; fill: rgb(68, 68, 68); fill-opacity: 1; white-space: pre;">BII</text></g><g class="xtick"><text text-anchor="middle" x="0" y="928.4" data-unformatted="BIII" data-math="N" transform="translate(611.75,0)" style="font-family: &quot;Open Sans&quot;, verdana, arial, sans-serif; font-size: 22px; fill: rgb(68, 68, 68); fill-opacity: 1; white-space: pre;">BIII</text></g><g class="xtick"><text text-anchor="middle" x="0" y="928.4" data-unformatted="Is" data-math="N" transform="translate(815.25,0)" style="font-family: &quot;Open Sans&quot;, verdana, arial, sans-serif; font-size: 22px; fill: rgb(68, 68, 68); fill-opacity: 1; white-space: pre;">Is</text></g></g><g class="yaxislayer-above"><g class="ytick"><text text-anchor="end" x="93.6" y="7.699999999999999" data-unformatted="10" data-math="N" transform="translate(0,900)" style="font-family: &quot;Open Sans&quot;, verdana, arial, sans-serif; font-size: 22px; fill: rgb(68, 68, 68); fill-opacity: 1; white-space: pre;">10</text></g><g class="ytick"><text text-anchor="end" x="93.6" y="7.699999999999999" data-unformatted="12" data-math="N" transform="translate(0,740)" style="font-family: &quot;Open Sans&quot;, verdana, arial, sans-serif; font-size: 22px; fill: rgb(68, 68, 68); fill-opacity: 1; white-space: pre;">12</text></g><g class="ytick"><text text-anchor="end" x="93.6" y="7.699999999999999" data-unformatted="14" data-math="N" transform="translate(0,580)" style="font-family: &quot;Open Sans&quot;, verdana, arial, sans-serif; font-size: 22px; fill: rgb(68, 68, 68); fill-opacity: 1; white-space: pre;">14</text></g><g class="ytick"><text text-anchor="end" x="93.6" y="7.699999999999999" data-unformatted="16" data-math="N" transform="translate(0,420)" style="font-family: &quot;Open Sans&quot;, verdana, arial, sans-serif; font-size: 22px; fill: rgb(68, 68, 68); fill-opacity: 1; white-space: pre;">16</text></g><g class="ytick"><text text-anchor="end" x="93.6" y="7.699999999999999" data-unformatted="18" data-math="N" transform="translate(0,260)" style="font-family: &quot;Open Sans&quot;, verdana, arial, sans-serif; font-size: 22px; fill: rgb(68, 68, 68); fill-opacity: 1; white-space: pre;">18</text></g><g class="ytick"><text text-anchor="end" x="93.6" y="7.699999999999999" data-unformatted="20" data-math="N" transform="translate(0,100)" style="font-family: &quot;Open Sans&quot;, verdana, arial, sans-serif; font-size: 22px; fill: rgb(68, 68, 68); fill-opacity: 1; white-space: pre;">20</text></g></g><g class="overaxes-above"></g></g></g><g class="polarlayer"></g><g class="ternarylayer"></g><g class="geolayer"></g><g class="funnelarealayer"></g><g class="pielayer"></g><g class="treemaplayer"></g><g class="sunburstlayer"></g><g class="glimages"></g></svg><div class="gl-container"></div><svg class="main-svg" style="position: absolute" xmlns="http://www.w3.org/2000/svg" xmlns:xlink="http://www.w3.org/1999/xlink" width="1000" height="1000"><defs id="topdefs-6889c9"><g class="clips"></g></defs><g class="indicatorlayer"></g><g class="layer-above"><g class="imagelayer"></g><g class="shapelayer"></g></g><g class="infolayer"><g class="g-gtitle"></g><g class="g-xtitle" transform="translate(0,-3)"><text class="xtitle" x="510" y="995" text-anchor="middle" data-unformatted="transect" data-math="N" style="font-family: &quot;Open Sans&quot;, verdana, arial, sans-serif; font-size: 28px; fill: rgb(68, 68, 68); opacity: 1; font-weight: normal; white-space: pre;">transect</text></g><g class="g-ytitle"><text class="ytitle" transform="rotate(-90,33,500)" x="33" y="500" text-anchor="middle" data-unformatted="C:N ratio" data-math="N" style="font-family: &quot;Open Sans&quot;, verdana, arial, sans-serif; font-size: 28px; fill: rgb(68, 68, 68); opacity: 1; font-weight: normal; white-space: pre;">C:N ratio</text></g></g><g class="menulayer"></g><g class="zoomlayer"></g></svg><div class="modebar-container" style="position: absolute; top: 0px; right: 0px; width: 100%;"><div id="modebar-6889c9" class="modebar modebar--hover ease-bg"><div class="modebar-group"><a rel="tooltip" class="modebar-btn" data-title="Download plot as a png" data-toggle="false" data-gravity="n"><svg viewBox="0 0 1000 1000" class="icon" height="1em" width="1em"><path d="m500 450c-83 0-150-67-150-150 0-83 67-150 150-150 83 0 150 67 150 150 0 83-67 150-150 150z m400 150h-120c-16 0-34 13-39 29l-31 93c-6 15-23 28-40 28h-340c-16 0-34-13-39-28l-31-94c-6-15-23-28-40-28h-120c-55 0-100-45-100-100v-450c0-55 45-100 100-100h800c55 0 100 45 100 100v450c0 55-45 100-100 100z m-400-550c-138 0-250 112-250 250 0 138 112 250 250 250 138 0 250-112 250-250 0-138-112-250-250-250z m365 380c-19 0-35 16-35 35 0 19 16 35 35 35 19 0 35-16 35-35 0-19-16-35-35-35z" transform="matrix(1 0 0 -1 0 850)"></path></svg></a></div><div class="modebar-group"><a rel="tooltip" class="modebar-btn active" data-title="Zoom" data-attr="dragmode" data-val="zoom" data-toggle="false" data-gravity="n"><svg viewBox="0 0 1000 1000" class="icon" height="1em" width="1em"><path d="m1000-25l-250 251c40 63 63 138 63 218 0 224-182 406-407 406-224 0-406-182-406-406s183-406 407-406c80 0 155 22 218 62l250-250 125 125z m-812 250l0 438 437 0 0-438-437 0z m62 375l313 0 0-312-313 0 0 312z" transform="matrix(1 0 0 -1 0 850)"></path></svg></a><a rel="tooltip" class="modebar-btn" data-title="Pan" data-attr="dragmode" data-val="pan" data-toggle="false" data-gravity="n"><svg viewBox="0 0 1000 1000" class="icon" height="1em" width="1em"><path d="m1000 350l-187 188 0-125-250 0 0 250 125 0-188 187-187-187 125 0 0-250-250 0 0 125-188-188 186-187 0 125 252 0 0-250-125 0 187-188 188 188-125 0 0 250 250 0 0-126 187 188z" transform="matrix(1 0 0 -1 0 850)"></path></svg></a></div><div class="modebar-group"><a rel="tooltip" class="modebar-btn" data-title="Zoom in" data-attr="zoom" data-val="in" data-toggle="false" data-gravity="n"><svg viewBox="0 0 875 1000" class="icon" height="1em" width="1em"><path d="m1 787l0-875 875 0 0 875-875 0z m687-500l-187 0 0-187-125 0 0 187-188 0 0 125 188 0 0 187 125 0 0-187 187 0 0-125z" transform="matrix(1 0 0 -1 0 850)"></path></svg></a><a rel="tooltip" class="modebar-btn" data-title="Zoom out" data-attr="zoom" data-val="out" data-toggle="false" data-gravity="n"><svg viewBox="0 0 875 1000" class="icon" height="1em" width="1em"><path d="m0 788l0-876 875 0 0 876-875 0z m688-500l-500 0 0 125 500 0 0-125z" transform="matrix(1 0 0 -1 0 850)"></path></svg></a><a rel="tooltip" class="modebar-btn" data-title="Autoscale" data-attr="zoom" data-val="auto" data-toggle="false" data-gravity="n"><svg viewBox="0 0 1000 1000" class="icon" height="1em" width="1em"><path d="m250 850l-187 0-63 0 0-62 0-188 63 0 0 188 187 0 0 62z m688 0l-188 0 0-62 188 0 0-188 62 0 0 188 0 62-62 0z m-875-938l0 188-63 0 0-188 0-62 63 0 187 0 0 62-187 0z m875 188l0-188-188 0 0-62 188 0 62 0 0 62 0 188-62 0z m-125 188l-1 0-93-94-156 156 156 156 92-93 2 0 0 250-250 0 0-2 93-92-156-156-156 156 94 92 0 2-250 0 0-250 0 0 93 93 157-156-157-156-93 94 0 0 0-250 250 0 0 0-94 93 156 157 156-157-93-93 0 0 250 0 0 250z" transform="matrix(1 0 0 -1 0 850)"></path></svg></a><a rel="tooltip" class="modebar-btn" data-title="Reset axes" data-attr="zoom" data-val="reset" data-toggle="false" data-gravity="n"><svg viewBox="0 0 928.6 1000" class="icon" height="1em" width="1em"><path d="m786 296v-267q0-15-11-26t-25-10h-214v214h-143v-214h-214q-15 0-25 10t-11 26v267q0 1 0 2t0 2l321 264 321-264q1-1 1-4z m124 39l-34-41q-5-5-12-6h-2q-7 0-12 3l-386 322-386-322q-7-4-13-4-7 2-12 7l-35 41q-4 5-3 13t6 12l401 334q18 15 42 15t43-15l136-114v109q0 8 5 13t13 5h107q8 0 13-5t5-13v-227l122-102q5-5 6-12t-4-13z" transform="matrix(1 0 0 -1 0 850)"></path></svg></a></div><div class="modebar-group"><a rel="tooltip" class="modebar-btn" data-title="Toggle Spike Lines" data-attr="_cartesianSpikesEnabled" data-val="on" data-toggle="false" data-gravity="n"><svg viewBox="0 0 1000 1000" class="icon" height="1em" width="1em"><path d="M512 409c0-57-46-104-103-104-57 0-104 47-104 104 0 57 47 103 104 103 57 0 103-46 103-103z m-327-39l92 0 0 92-92 0z m-185 0l92 0 0 92-92 0z m370-186l92 0 0 93-92 0z m0-184l92 0 0 92-92 0z" transform="matrix(1.5 0 0 -1.5 0 850)"></path></svg></a><a rel="tooltip" class="modebar-btn" data-title="Show closest data on hover" data-attr="hovermode" data-val="closest" data-toggle="false" data-gravity="ne"><svg viewBox="0 0 1500 1000" class="icon" height="1em" width="1em"><path d="m375 725l0 0-375-375 375-374 0-1 1125 0 0 750-1125 0z" transform="matrix(1 0 0 -1 0 850)"></path></svg></a><a rel="tooltip" class="modebar-btn active" data-title="Compare data on hover" data-attr="hovermode" data-val="x" data-toggle="false" data-gravity="ne"><svg viewBox="0 0 1125 1000" class="icon" height="1em" width="1em"><path d="m187 786l0 2-187-188 188-187 0 0 937 0 0 373-938 0z m0-499l0 1-187-188 188-188 0 0 937 0 0 376-938-1z" transform="matrix(1 0 0 -1 0 850)"></path></svg></a></div></div></div><svg class="main-svg" style="position: absolute" xmlns="http://www.w3.org/2000/svg" xmlns:xlink="http://www.w3.org/1999/xlink" width="1000" height="1000"><g class="hoverlayer"></g></svg>