<svg class="main-svg" style="position: absolute" xmlns="http://www.w3.org/2000/svg" xmlns:xlink="http://www.w3.org/1999/xlink" width="1116" height="587" style="background: rgb(245, 246, 249);"><defs id="defs-944fb0"><g class="clips"><clipPath id="clip944fb0xyplot" class="plotclip"><rect width="956" height="407"></rect></clipPath><clipPath class="axesclip" id="clip944fb0x"><rect x="80" y="0" width="956" height="587"></rect></clipPath><clipPath class="axesclip" id="clip944fb0y"><rect x="0" y="100" width="1116" height="407"></rect></clipPath><clipPath class="axesclip" id="clip944fb0xy"><rect x="80" y="100" width="956" height="407"></rect></clipPath></g><g class="gradients"></g></defs><g class="bglayer"></g><g class="draglayer cursor-crosshair"><g class="xy"><rect class="nsewdrag drag" data-subplot="xy" x="80" y="100" width="956" height="407" style="fill: transparent; stroke-width: 0; pointer-events: all;"></rect><rect class="nwdrag drag cursor-nw-resize" data-subplot="xy" x="60" y="80" width="20" height="20" style="fill: transparent; stroke-width: 0; pointer-events: all;"></rect><rect class="nedrag drag cursor-ne-resize" data-subplot="xy" x="1036" y="80" width="20" height="20" style="fill: transparent; stroke-width: 0; pointer-events: all;"></rect><rect class="swdrag drag cursor-sw-resize" data-subplot="xy" x="60" y="507" width="20" height="20" style="fill: transparent; stroke-width: 0; pointer-events: all;"></rect><rect class="sedrag drag cursor-se-resize" data-subplot="xy" x="1036" y="507" width="20" height="20" style="fill: transparent; stroke-width: 0; pointer-events: all;"></rect><rect class="ewdrag drag cursor-ew-resize" data-subplot="xy" x="175.60000000000002" y="507.5" width="764.8000000000001" height="20" style="fill: transparent; stroke-width: 0; pointer-events: all;"></rect><rect class="wdrag drag cursor-w-resize" data-subplot="xy" x="80" y="507.5" width="95.60000000000001" height="20" style="fill: transparent; stroke-width: 0; pointer-events: all;"></rect><rect class="edrag drag cursor-e-resize" data-subplot="xy" x="940.4" y="507.5" width="95.60000000000001" height="20" style="fill: transparent; stroke-width: 0; pointer-events: all;"></rect><rect class="nsdrag drag cursor-ns-resize" data-subplot="xy" x="59.5" y="140.7" width="20" height="325.6" style="fill: transparent; stroke-width: 0; pointer-events: all;"></rect><rect class="sdrag drag cursor-s-resize" data-subplot="xy" x="59.5" y="466.3" width="20" height="40.7" style="fill: transparent; stroke-width: 0; pointer-events: all;"></rect><rect class="ndrag drag cursor-n-resize" data-subplot="xy" x="59.5" y="100" width="20" height="40.7" style="fill: transparent; stroke-width: 0; pointer-events: all;"></rect></g></g><g class="layer-below"><g class="imagelayer"></g><g class="shapelayer"></g></g><g class="cartesianlayer"><g class="subplot xy"><g class="layer-subplot"><g class="shapelayer"></g><g class="imagelayer"></g></g><g class="gridlayer"><g class="x"><path class="xgrid crisp" transform="translate(103.9,0)" d="M0,100v407" style="stroke: rgb(225, 229, 237); stroke-opacity: 1; stroke-width: 1px;"></path><path class="xgrid crisp" transform="translate(151.7,0)" d="M0,100v407" style="stroke: rgb(225, 229, 237); stroke-opacity: 1; stroke-width: 1px;"></path><path class="xgrid crisp" transform="translate(199.5,0)" d="M0,100v407" style="stroke: rgb(225, 229, 237); stroke-opacity: 1; stroke-width: 1px;"></path><path class="xgrid crisp" transform="translate(247.3,0)" d="M0,100v407" style="stroke: rgb(225, 229, 237); stroke-opacity: 1; stroke-width: 1px;"></path><path class="xgrid crisp" transform="translate(295.1,0)" d="M0,100v407" style="stroke: rgb(225, 229, 237); stroke-opacity: 1; stroke-width: 1px;"></path><path class="xgrid crisp" transform="translate(342.9,0)" d="M0,100v407" style="stroke: rgb(225, 229, 237); stroke-opacity: 1; stroke-width: 1px;"></path><path class="xgrid crisp" transform="translate(390.7,0)" d="M0,100v407" style="stroke: rgb(225, 229, 237); stroke-opacity: 1; stroke-width: 1px;"></path><path class="xgrid crisp" transform="translate(438.5,0)" d="M0,100v407" style="stroke: rgb(225, 229, 237); stroke-opacity: 1; stroke-width: 1px;"></path><path class="xgrid crisp" transform="translate(486.3,0)" d="M0,100v407" style="stroke: rgb(225, 229, 237); stroke-opacity: 1; stroke-width: 1px;"></path><path class="xgrid crisp" transform="translate(534.1,0)" d="M0,100v407" style="stroke: rgb(225, 229, 237); stroke-opacity: 1; stroke-width: 1px;"></path><path class="xgrid crisp" transform="translate(581.9,0)" d="M0,100v407" style="stroke: rgb(225, 229, 237); stroke-opacity: 1; stroke-width: 1px;"></path><path class="xgrid crisp" transform="translate(629.7,0)" d="M0,100v407" style="stroke: rgb(225, 229, 237); stroke-opacity: 1; stroke-width: 1px;"></path><path class="xgrid crisp" transform="translate(677.5,0)" d="M0,100v407" style="stroke: rgb(225, 229, 237); stroke-opacity: 1; stroke-width: 1px;"></path><path class="xgrid crisp" transform="translate(725.3,0)" d="M0,100v407" style="stroke: rgb(225, 229, 237); stroke-opacity: 1; stroke-width: 1px;"></path><path class="xgrid crisp" transform="translate(773.1,0)" d="M0,100v407" style="stroke: rgb(225, 229, 237); stroke-opacity: 1; stroke-width: 1px;"></path><path class="xgrid crisp" transform="translate(820.9,0)" d="M0,100v407" style="stroke: rgb(225, 229, 237); stroke-opacity: 1; stroke-width: 1px;"></path><path class="xgrid crisp" transform="translate(868.7,0)" d="M0,100v407" style="stroke: rgb(225, 229, 237); stroke-opacity: 1; stroke-width: 1px;"></path><path class="xgrid crisp" transform="translate(916.5,0)" d="M0,100v407" style="stroke: rgb(225, 229, 237); stroke-opacity: 1; stroke-width: 1px;"></path><path class="xgrid crisp" transform="translate(964.3,0)" d="M0,100v407" style="stroke: rgb(225, 229, 237); stroke-opacity: 1; stroke-width: 1px;"></path><path class="xgrid crisp" transform="translate(1012.1,0)" d="M0,100v407" style="stroke: rgb(225, 229, 237); stroke-opacity: 1; stroke-width: 1px;"></path></g><g class="y"><path class="ygrid crisp" transform="translate(0,429.15)" d="M80,0h956" style="stroke: rgb(225, 229, 237); stroke-opacity: 1; stroke-width: 1px;"></path><path class="ygrid crisp" transform="translate(0,371.63)" d="M80,0h956" style="stroke: rgb(225, 229, 237); stroke-opacity: 1; stroke-width: 1px;"></path><path class="ygrid crisp" transform="translate(0,314.12)" d="M80,0h956" style="stroke: rgb(225, 229, 237); stroke-opacity: 1; stroke-width: 1px;"></path><path class="ygrid crisp" transform="translate(0,256.6)" d="M80,0h956" style="stroke: rgb(225, 229, 237); stroke-opacity: 1; stroke-width: 1px;"></path><path class="ygrid crisp" transform="translate(0,199.09)" d="M80,0h956" style="stroke: rgb(225, 229, 237); stroke-opacity: 1; stroke-width: 1px;"></path><path class="ygrid crisp" transform="translate(0,141.57)" d="M80,0h956" style="stroke: rgb(225, 229, 237); stroke-opacity: 1; stroke-width: 1px;"></path></g></g><g class="zerolinelayer"><path class="yzl zl crisp" transform="translate(0,486.66)" d="M80,0h956" style="stroke: rgb(225, 229, 237); stroke-opacity: 1; stroke-width: 1px;"></path></g><path class="xlines-below"></path><path class="ylines-below"></path><g class="overlines-below"></g><g class="xaxislayer-below"></g><g class="yaxislayer-below"></g><g class="overaxes-below"></g><g class="plot" transform="translate(80,100)" clip-path="url('#clip944fb0xyplot')"><g class="boxlayer mlayer"><g class="trace boxes" style="opacity: 1;"><path class="box" d="M12.19,323.51H35.61M12.19,360.06H35.61V288.66H12.19ZM23.9,360.06V386.65M23.9,288.66V163.93M18.04,386.65H29.76M18.04,163.93H29.76" style="vector-effect: non-scaling-stroke; stroke-width: 1.3px; stroke: rgb(255, 153, 51); stroke-opacity: 1; fill: rgb(255, 153, 51); fill-opacity: 0.5;"></path></g><g class="trace boxes" style="opacity: 1;"><path class="box" d="M59.99,320.77H83.41M59.99,359.22H83.41V300.32H59.99ZM71.7,359.22V383.21M71.7,300.32V185.08M65.84,383.21H77.56M65.84,185.08H77.56" style="vector-effect: non-scaling-stroke; stroke-width: 1.3px; stroke: rgb(55, 128, 191); stroke-opacity: 1; fill: rgb(55, 128, 191); fill-opacity: 0.5;"></path></g><g class="trace boxes" style="opacity: 1;"><path class="box" d="M107.79,322.8H131.21M107.79,356.98H131.21V293.19H107.79ZM119.5,356.98V383M119.5,293.19V195.08M113.64,383H125.36M113.64,195.08H125.36" style="vector-effect: non-scaling-stroke; stroke-width: 1.3px; stroke: rgb(50, 171, 96); stroke-opacity: 1; fill: rgb(50, 171, 96); fill-opacity: 0.5;"></path></g><g class="trace boxes" style="opacity: 1;"><path class="box" d="M155.59,323.02H179.01M155.59,361.8H179.01V299.82H155.59ZM167.3,361.8V384.22M167.3,299.82V168.28M161.44,384.22H173.16M161.44,168.28H173.16" style="vector-effect: non-scaling-stroke; stroke-width: 1.3px; stroke: rgb(128, 0, 128); stroke-opacity: 1; fill: rgb(128, 0, 128); fill-opacity: 0.5;"></path></g><g class="trace boxes" style="opacity: 1;"><path class="box" d="M203.39,325.86H226.81M203.39,355.36H226.81V291.76H203.39ZM215.1,355.36V386.49M215.1,291.76V143.37M209.24,386.49H220.96M209.24,143.37H220.96" style="vector-effect: non-scaling-stroke; stroke-width: 1.3px; stroke: rgb(219, 64, 82); stroke-opacity: 1; fill: rgb(219, 64, 82); fill-opacity: 0.5;"></path></g><g class="trace boxes" style="opacity: 1;"><path class="box" d="M251.19,327.58H274.61M251.19,349.8H274.61V304.09H251.19ZM262.9,349.8V385.65M262.9,304.09V167.4M257.04,385.65H268.76M257.04,167.4H268.76" style="vector-effect: non-scaling-stroke; stroke-width: 1.3px; stroke: rgb(0, 128, 128); stroke-opacity: 1; fill: rgb(0, 128, 128); fill-opacity: 0.5;"></path></g><g class="trace boxes" style="opacity: 1;"><path class="box" d="M298.99,326.85H322.41M298.99,349.36H322.41V292.27H298.99ZM310.7,349.36V386.53M310.7,292.27V218.63M304.84,386.53H316.56M304.84,218.63H316.56" style="vector-effect: non-scaling-stroke; stroke-width: 1.3px; stroke: rgb(255, 255, 51); stroke-opacity: 1; fill: rgb(255, 255, 51); fill-opacity: 0.5;"></path></g><g class="trace boxes" style="opacity: 1;"><path class="box" d="M346.79,327.67H370.21M346.79,351.67H370.21V293.75H346.79ZM358.5,351.67V384.72M358.5,293.75V218.19M352.64,384.72H364.36M352.64,218.19H364.36" style="vector-effect: non-scaling-stroke; stroke-width: 1.3px; stroke: rgb(128, 128, 0); stroke-opacity: 1; fill: rgb(128, 128, 0); fill-opacity: 0.5;"></path></g><g class="trace boxes" style="opacity: 1;"><path class="box" d="M394.59,322.17H418.01M394.59,349.51H418.01V279.71H394.59ZM406.3,349.51V386.52M406.3,279.71V125.04M400.44,386.52H412.16M400.44,125.04H412.16" style="vector-effect: non-scaling-stroke; stroke-width: 1.3px; stroke: rgb(251, 128, 114); stroke-opacity: 1; fill: rgb(251, 128, 114); fill-opacity: 0.5;"></path></g><g class="trace boxes" style="opacity: 1;"><path class="box" d="M442.39,324.35H465.81M442.39,353.61H465.81V294.94H442.39ZM454.1,353.61V385.18M454.1,294.94V148.47M448.24,385.18H459.96M448.24,148.47H459.96" style="vector-effect: non-scaling-stroke; stroke-width: 1.3px; stroke: rgb(128, 177, 211); stroke-opacity: 1; fill: rgb(128, 177, 211); fill-opacity: 0.5;"></path></g><g class="trace boxes" style="opacity: 1;"><path class="box" d="M490.19,318.91H513.61M490.19,356.61H513.61V275.51H490.19ZM501.9,356.61V377.86M501.9,275.51V81.39M496.04,377.86H507.76M496.04,81.39H507.76" style="vector-effect: non-scaling-stroke; stroke-width: 1.3px; stroke: rgb(128, 177, 211); stroke-opacity: 0.9; fill: rgb(128, 177, 211); fill-opacity: 0.5;"></path></g><g class="trace boxes" style="opacity: 1;"><path class="box" d="M537.99,327.62H561.41M537.99,359.12H561.41V296.83H537.99ZM549.7,359.12V383.32M549.7,296.83V130.59M543.84,383.32H555.56M543.84,130.59H555.56" style="vector-effect: non-scaling-stroke; stroke-width: 1.3px; stroke: rgb(255, 153, 51); stroke-opacity: 0.9; fill: rgb(255, 153, 51); fill-opacity: 0.5;"></path></g><g class="trace boxes" style="opacity: 1;"><path class="box" d="M585.79,334.37H609.21M585.79,349.81H609.21V299.33H585.79ZM597.5,349.81V386.31M597.5,299.33V134.94M591.64,386.31H603.36M591.64,134.94H603.36" style="vector-effect: non-scaling-stroke; stroke-width: 1.3px; stroke: rgb(55, 128, 191); stroke-opacity: 0.9; fill: rgb(55, 128, 191); fill-opacity: 0.5;"></path></g><g class="trace boxes" style="opacity: 1;"><path class="box" d="M633.59,343.35H657.01M633.59,359.62H657.01V303.44H633.59ZM645.3,359.62V385.44M645.3,303.44V20.35M639.44,385.44H651.16M639.44,20.35H651.16" style="vector-effect: non-scaling-stroke; stroke-width: 1.3px; stroke: rgb(50, 171, 96); stroke-opacity: 0.9; fill: rgb(50, 171, 96); fill-opacity: 0.5;"></path></g><g class="trace boxes" style="opacity: 1;"><path class="box" d="M681.39,321.75H704.81M681.39,342.96H704.81V284.39H681.39ZM693.1,342.96V383.87M693.1,284.39V142.38M687.24,383.87H698.96M687.24,142.38H698.96" style="vector-effect: non-scaling-stroke; stroke-width: 1.3px; stroke: rgb(128, 0, 128); stroke-opacity: 0.9; fill: rgb(128, 0, 128); fill-opacity: 0.5;"></path></g><g class="trace boxes" style="opacity: 1;"><path class="box" d="M729.19,329.79H752.61M729.19,362.64H752.61V290.6H729.19ZM740.9,362.64V383.38M740.9,290.6V135.2M735.04,383.38H746.76M735.04,135.2H746.76" style="vector-effect: non-scaling-stroke; stroke-width: 1.3px; stroke: rgb(219, 64, 82); stroke-opacity: 0.9; fill: rgb(219, 64, 82); fill-opacity: 0.5;"></path></g><g class="trace boxes" style="opacity: 1;"><path class="box" d="M776.99,327.37H800.41M776.99,353.99H800.41V294.77H776.99ZM788.7,353.99V383.5M788.7,294.77V183.67M782.84,383.5H794.56M782.84,183.67H794.56" style="vector-effect: non-scaling-stroke; stroke-width: 1.3px; stroke: rgb(0, 128, 128); stroke-opacity: 0.9; fill: rgb(0, 128, 128); fill-opacity: 0.5;"></path></g><g class="trace boxes" style="opacity: 1;"><path class="box" d="M824.79,328.67H848.21M824.79,355.86H848.21V295.77H824.79ZM836.5,355.86V386.11M836.5,295.77V136.19M830.64,386.11H842.36M830.64,136.19H842.36" style="vector-effect: non-scaling-stroke; stroke-width: 1.3px; stroke: rgb(255, 255, 51); stroke-opacity: 0.9; fill: rgb(255, 255, 51); fill-opacity: 0.5;"></path></g><g class="trace boxes" style="opacity: 1;"><path class="box" d="M872.59,339.08H896.01M872.59,356.44H896.01V293.24H872.59ZM884.3,356.44V384.96M884.3,293.24V187.27M878.44,384.96H890.16M878.44,187.27H890.16" style="vector-effect: non-scaling-stroke; stroke-width: 1.3px; stroke: rgb(128, 128, 0); stroke-opacity: 0.9; fill: rgb(128, 128, 0); fill-opacity: 0.5;"></path></g><g class="trace boxes" style="opacity: 1;"><path class="box" d="M920.39,329.29H943.81M920.39,354.16H943.81V289.44H920.39ZM932.1,354.16V385.18M932.1,289.44V82.41M926.24,385.18H937.96M926.24,82.41H937.96" style="vector-effect: non-scaling-stroke; stroke-width: 1.3px; stroke: rgb(251, 128, 114); stroke-opacity: 0.9; fill: rgb(251, 128, 114); fill-opacity: 0.5;"></path></g></g></g><g class="overplot"></g><path class="xlines-above crisp" d="M0,0" style="fill: none;"></path><path class="ylines-above crisp" d="M0,0" style="fill: none;"></path><g class="overlines-above"></g><g class="xaxislayer-above"><g class="xtick"><text text-anchor="middle" x="0" y="520" data-unformatted="PHN.GW" data-math="N" transform="translate(103.9,0)" style="font-family: &quot;Open Sans&quot;, verdana, arial, sans-serif; font-size: 12px; fill: rgb(77, 86, 99); fill-opacity: 1; white-space: pre;">PHN.GW</text></g><g class="xtick"><text text-anchor="middle" x="0" y="520" data-unformatted="QJE.UR" data-math="N" transform="translate(151.7,0)" style="font-family: &quot;Open Sans&quot;, verdana, arial, sans-serif; font-size: 12px; fill: rgb(77, 86, 99); fill-opacity: 1; white-space: pre;">QJE.UR</text></g><g class="xtick"><text text-anchor="middle" x="0" y="520" data-unformatted="LKB.WZ" data-math="N" transform="translate(199.5,0)" style="font-family: &quot;Open Sans&quot;, verdana, arial, sans-serif; font-size: 12px; fill: rgb(77, 86, 99); fill-opacity: 1; white-space: pre;">LKB.WZ</text></g><g class="xtick"><text text-anchor="middle" x="0" y="520" data-unformatted="CYT.UM" data-math="N" transform="translate(247.3,0)" style="font-family: &quot;Open Sans&quot;, verdana, arial, sans-serif; font-size: 12px; fill: rgb(77, 86, 99); fill-opacity: 1; white-space: pre;">CYT.UM</text></g><g class="xtick"><text text-anchor="middle" x="0" y="520" data-unformatted="ENL.UH" data-math="N" transform="translate(295.1,0)" style="font-family: &quot;Open Sans&quot;, verdana, arial, sans-serif; font-size: 12px; fill: rgb(77, 86, 99); fill-opacity: 1; white-space: pre;">ENL.UH</text></g><g class="xtick"><text text-anchor="middle" x="0" y="520" data-unformatted="WCT.SJ" data-math="N" transform="translate(342.9,0)" style="font-family: &quot;Open Sans&quot;, verdana, arial, sans-serif; font-size: 12px; fill: rgb(77, 86, 99); fill-opacity: 1; white-space: pre;">WCT.SJ</text></g><g class="xtick"><text text-anchor="middle" x="0" y="520" data-unformatted="LRN.QV" data-math="N" transform="translate(390.7,0)" style="font-family: &quot;Open Sans&quot;, verdana, arial, sans-serif; font-size: 12px; fill: rgb(77, 86, 99); fill-opacity: 1; white-space: pre;">LRN.QV</text></g><g class="xtick"><text text-anchor="middle" x="0" y="520" data-unformatted="EZZ.II" data-math="N" transform="translate(438.5,0)" style="font-family: &quot;Open Sans&quot;, verdana, arial, sans-serif; font-size: 12px; fill: rgb(77, 86, 99); fill-opacity: 1; white-space: pre;">EZZ.II</text></g><g class="xtick"><text text-anchor="middle" x="0" y="520" data-unformatted="KTK.SX" data-math="N" transform="translate(486.3,0)" style="font-family: &quot;Open Sans&quot;, verdana, arial, sans-serif; font-size: 12px; fill: rgb(77, 86, 99); fill-opacity: 1; white-space: pre;">KTK.SX</text></g><g class="xtick"><text text-anchor="middle" x="0" y="520" data-unformatted="UYY.JN" data-math="N" transform="translate(534.1,0)" style="font-family: &quot;Open Sans&quot;, verdana, arial, sans-serif; font-size: 12px; fill: rgb(77, 86, 99); fill-opacity: 1; white-space: pre;">UYY.JN</text></g><g class="xtick"><text text-anchor="middle" x="0" y="520" data-unformatted="SXA.CQ" data-math="N" transform="translate(581.9,0)" style="font-family: &quot;Open Sans&quot;, verdana, arial, sans-serif; font-size: 12px; fill: rgb(77, 86, 99); fill-opacity: 1; white-space: pre;">SXA.CQ</text></g><g class="xtick"><text text-anchor="middle" x="0" y="520" data-unformatted="RBR.AE" data-math="N" transform="translate(629.7,0)" style="font-family: &quot;Open Sans&quot;, verdana, arial, sans-serif; font-size: 12px; fill: rgb(77, 86, 99); fill-opacity: 1; white-space: pre;">RBR.AE</text></g><g class="xtick"><text text-anchor="middle" x="0" y="520" data-unformatted="KUW.ZU" data-math="N" transform="translate(677.5,0)" style="font-family: &quot;Open Sans&quot;, verdana, arial, sans-serif; font-size: 12px; fill: rgb(77, 86, 99); fill-opacity: 1; white-space: pre;">KUW.ZU</text></g><g class="xtick"><text text-anchor="middle" x="0" y="520" data-unformatted="YOU.LR" data-math="N" transform="translate(725.3,0)" style="font-family: &quot;Open Sans&quot;, verdana, arial, sans-serif; font-size: 12px; fill: rgb(77, 86, 99); fill-opacity: 1; white-space: pre;">YOU.LR</text></g><g class="xtick"><text text-anchor="middle" x="0" y="520" data-unformatted="HMY.OF" data-math="N" transform="translate(773.1,0)" style="font-family: &quot;Open Sans&quot;, verdana, arial, sans-serif; font-size: 12px; fill: rgb(77, 86, 99); fill-opacity: 1; white-space: pre;">HMY.OF</text></g><g class="xtick"><text text-anchor="middle" x="0" y="520" data-unformatted="MTX.OO" data-math="N" transform="translate(820.9,0)" style="font-family: &quot;Open Sans&quot;, verdana, arial, sans-serif; font-size: 12px; fill: rgb(77, 86, 99); fill-opacity: 1; white-space: pre;">MTX.OO</text></g><g class="xtick"><text text-anchor="middle" x="0" y="520" data-unformatted="EAX.AN" data-math="N" transform="translate(868.7,0)" style="font-family: &quot;Open Sans&quot;, verdana, arial, sans-serif; font-size: 12px; fill: rgb(77, 86, 99); fill-opacity: 1; white-space: pre;">EAX.AN</text></g><g class="xtick"><text text-anchor="middle" x="0" y="520" data-unformatted="NBQ.EC" data-math="N" transform="translate(916.5,0)" style="font-family: &quot;Open Sans&quot;, verdana, arial, sans-serif; font-size: 12px; fill: rgb(77, 86, 99); fill-opacity: 1; white-space: pre;">NBQ.EC</text></g><g class="xtick"><text text-anchor="middle" x="0" y="520" data-unformatted="NED.SV" data-math="N" transform="translate(964.3,0)" style="font-family: &quot;Open Sans&quot;, verdana, arial, sans-serif; font-size: 12px; fill: rgb(77, 86, 99); fill-opacity: 1; white-space: pre;">NED.SV</text></g><g class="xtick"><text text-anchor="middle" x="0" y="520" data-unformatted="ZLV.AD" data-math="N" transform="translate(1012.1,0)" style="font-family: &quot;Open Sans&quot;, verdana, arial, sans-serif; font-size: 12px; fill: rgb(77, 86, 99); fill-opacity: 1; white-space: pre;">ZLV.AD</text></g></g><g class="yaxislayer-above"><g class="ytick"><text text-anchor="end" x="79" y="4.199999999999999" data-unformatted="0" data-math="N" transform="translate(0,486.66)" style="font-family: &quot;Open Sans&quot;, verdana, arial, sans-serif; font-size: 12px; fill: rgb(77, 86, 99); fill-opacity: 1; white-space: pre;">0</text></g><g class="ytick"><text text-anchor="end" x="79" y="4.199999999999999" data-unformatted="5" data-math="N" transform="translate(0,429.15)" style="font-family: &quot;Open Sans&quot;, verdana, arial, sans-serif; font-size: 12px; fill: rgb(77, 86, 99); fill-opacity: 1; white-space: pre;">5</text></g><g class="ytick"><text text-anchor="end" x="79" y="4.199999999999999" data-unformatted="10" data-math="N" transform="translate(0,371.63)" style="font-family: &quot;Open Sans&quot;, verdana, arial, sans-serif; font-size: 12px; fill: rgb(77, 86, 99); fill-opacity: 1; white-space: pre;">10</text></g><g class="ytick"><text text-anchor="end" x="79" y="4.199999999999999" data-unformatted="15" data-math="N" transform="translate(0,314.12)" style="font-family: &quot;Open Sans&quot;, verdana, arial, sans-serif; font-size: 12px; fill: rgb(77, 86, 99); fill-opacity: 1; white-space: pre;">15</text></g><g class="ytick"><text text-anchor="end" x="79" y="4.199999999999999" data-unformatted="20" data-math="N" transform="translate(0,256.6)" style="font-family: &quot;Open Sans&quot;, verdana, arial, sans-serif; font-size: 12px; fill: rgb(77, 86, 99); fill-opacity: 1; white-space: pre;">20</text></g><g class="ytick"><text text-anchor="end" x="79" y="4.199999999999999" data-unformatted="25" data-math="N" transform="translate(0,199.09)" style="font-family: &quot;Open Sans&quot;, verdana, arial, sans-serif; font-size: 12px; fill: rgb(77, 86, 99); fill-opacity: 1; white-space: pre;">25</text></g><g class="ytick"><text text-anchor="end" x="79" y="4.199999999999999" data-unformatted="30" data-math="N" transform="translate(0,141.57)" style="font-family: &quot;Open Sans&quot;, verdana, arial, sans-serif; font-size: 12px; fill: rgb(77, 86, 99); fill-opacity: 1; white-space: pre;">30</text></g></g><g class="overaxes-above"></g></g></g><g class="polarlayer"></g><g class="ternarylayer"></g><g class="geolayer"></g><g class="funnelarealayer"></g><g class="pielayer"></g><g class="treemaplayer"></g><g class="sunburstlayer"></g><g class="glimages"></g></svg><div class="gl-container"></div><svg class="main-svg" style="position: absolute" xmlns="http://www.w3.org/2000/svg" xmlns:xlink="http://www.w3.org/1999/xlink" width="1116" height="587"><defs id="topdefs-944fb0"><g class="clips"></g></defs><g class="indicatorlayer"></g><g class="layer-above"><g class="imagelayer"></g><g class="shapelayer"></g></g><g class="infolayer"><g class="g-gtitle"></g><g class="g-xtitle"></g><g class="g-ytitle"></g></g><g class="menulayer"></g><g class="zoomlayer"></g></svg><div class="modebar-container" style="position: absolute; top: 0px; right: 0px; width: 100%;"><div id="modebar-944fb0" class="modebar modebar--hover ease-bg"><div class="modebar-group"><a rel="tooltip" class="modebar-btn" data-title="Download plot as a png" data-toggle="false" data-gravity="n"><svg viewBox="0 0 1000 1000" class="icon" height="1em" width="1em"><path d="m500 450c-83 0-150-67-150-150 0-83 67-150 150-150 83 0 150 67 150 150 0 83-67 150-150 150z m400 150h-120c-16 0-34 13-39 29l-31 93c-6 15-23 28-40 28h-340c-16 0-34-13-39-28l-31-94c-6-15-23-28-40-28h-120c-55 0-100-45-100-100v-450c0-55 45-100 100-100h800c55 0 100 45 100 100v450c0 55-45 100-100 100z m-400-550c-138 0-250 112-250 250 0 138 112 250 250 250 138 0 250-112 250-250 0-138-112-250-250-250z m365 380c-19 0-35 16-35 35 0 19 16 35 35 35 19 0 35-16 35-35 0-19-16-35-35-35z" transform="matrix(1 0 0 -1 0 850)"></path></svg></a></div><div class="modebar-group"><a rel="tooltip" class="modebar-btn active" data-title="Zoom" data-attr="dragmode" data-val="zoom" data-toggle="false" data-gravity="n"><svg viewBox="0 0 1000 1000" class="icon" height="1em" width="1em"><path d="m1000-25l-250 251c40 63 63 138 63 218 0 224-182 406-407 406-224 0-406-182-406-406s183-406 407-406c80 0 155 22 218 62l250-250 125 125z m-812 250l0 438 437 0 0-438-437 0z m62 375l313 0 0-312-313 0 0 312z" transform="matrix(1 0 0 -1 0 850)"></path></svg></a><a rel="tooltip" class="modebar-btn" data-title="Pan" data-attr="dragmode" data-val="pan" data-toggle="false" data-gravity="n"><svg viewBox="0 0 1000 1000" class="icon" height="1em" width="1em"><path d="m1000 350l-187 188 0-125-250 0 0 250 125 0-188 187-187-187 125 0 0-250-250 0 0 125-188-188 186-187 0 125 252 0 0-250-125 0 187-188 188 188-125 0 0 250 250 0 0-126 187 188z" transform="matrix(1 0 0 -1 0 850)"></path></svg></a></div><div class="modebar-group"><a rel="tooltip" class="modebar-btn" data-title="Zoom in" data-attr="zoom" data-val="in" data-toggle="false" data-gravity="n"><svg viewBox="0 0 875 1000" class="icon" height="1em" width="1em"><path d="m1 787l0-875 875 0 0 875-875 0z m687-500l-187 0 0-187-125 0 0 187-188 0 0 125 188 0 0 187 125 0 0-187 187 0 0-125z" transform="matrix(1 0 0 -1 0 850)"></path></svg></a><a rel="tooltip" class="modebar-btn" data-title="Zoom out" data-attr="zoom" data-val="out" data-toggle="false" data-gravity="n"><svg viewBox="0 0 875 1000" class="icon" height="1em" width="1em"><path d="m0 788l0-876 875 0 0 876-875 0z m688-500l-500 0 0 125 500 0 0-125z" transform="matrix(1 0 0 -1 0 850)"></path></svg></a><a rel="tooltip" class="modebar-btn" data-title="Autoscale" data-attr="zoom" data-val="auto" data-toggle="false" data-gravity="n"><svg viewBox="0 0 1000 1000" class="icon" height="1em" width="1em"><path d="m250 850l-187 0-63 0 0-62 0-188 63 0 0 188 187 0 0 62z m688 0l-188 0 0-62 188 0 0-188 62 0 0 188 0 62-62 0z m-875-938l0 188-63 0 0-188 0-62 63 0 187 0 0 62-187 0z m875 188l0-188-188 0 0-62 188 0 62 0 0 62 0 188-62 0z m-125 188l-1 0-93-94-156 156 156 156 92-93 2 0 0 250-250 0 0-2 93-92-156-156-156 156 94 92 0 2-250 0 0-250 0 0 93 93 157-156-157-156-93 94 0 0 0-250 250 0 0 0-94 93 156 157 156-157-93-93 0 0 250 0 0 250z" transform="matrix(1 0 0 -1 0 850)"></path></svg></a><a rel="tooltip" class="modebar-btn" data-title="Reset axes" data-attr="zoom" data-val="reset" data-toggle="false" data-gravity="n"><svg viewBox="0 0 928.6 1000" class="icon" height="1em" width="1em"><path d="m786 296v-267q0-15-11-26t-25-10h-214v214h-143v-214h-214q-15 0-25 10t-11 26v267q0 1 0 2t0 2l321 264 321-264q1-1 1-4z m124 39l-34-41q-5-5-12-6h-2q-7 0-12 3l-386 322-386-322q-7-4-13-4-7 2-12 7l-35 41q-4 5-3 13t6 12l401 334q18 15 42 15t43-15l136-114v109q0 8 5 13t13 5h107q8 0 13-5t5-13v-227l122-102q5-5 6-12t-4-13z" transform="matrix(1 0 0 -1 0 850)"></path></svg></a></div><div class="modebar-group"><a rel="tooltip" class="modebar-btn" data-title="Toggle Spike Lines" data-attr="_cartesianSpikesEnabled" data-val="on" data-toggle="false" data-gravity="n"><svg viewBox="0 0 1000 1000" class="icon" height="1em" width="1em"><path d="M512 409c0-57-46-104-103-104-57 0-104 47-104 104 0 57 47 103 104 103 57 0 103-46 103-103z m-327-39l92 0 0 92-92 0z m-185 0l92 0 0 92-92 0z m370-186l92 0 0 93-92 0z m0-184l92 0 0 92-92 0z" transform="matrix(1.5 0 0 -1.5 0 850)"></path></svg></a><a rel="tooltip" class="modebar-btn" data-title="Show closest data on hover" data-attr="hovermode" data-val="closest" data-toggle="false" data-gravity="ne"><svg viewBox="0 0 1500 1000" class="icon" height="1em" width="1em"><path d="m375 725l0 0-375-375 375-374 0-1 1125 0 0 750-1125 0z" transform="matrix(1 0 0 -1 0 850)"></path></svg></a><a rel="tooltip" class="modebar-btn active" data-title="Compare data on hover" data-attr="hovermode" data-val="x" data-toggle="false" data-gravity="ne"><svg viewBox="0 0 1125 1000" class="icon" height="1em" width="1em"><path d="m187 786l0 2-187-188 188-187 0 0 937 0 0 373-938 0z m0-499l0 1-187-188 188-188 0 0 937 0 0 376-938-1z" transform="matrix(1 0 0 -1 0 850)"></path></svg></a></div></div></div><svg class="main-svg" style="position: absolute" xmlns="http://www.w3.org/2000/svg" xmlns:xlink="http://www.w3.org/1999/xlink" width="1116" height="587"><g class="hoverlayer"></g></svg>