<svg class="main-svg" style="position: absolute" xmlns="http://www.w3.org/2000/svg" xmlns:xlink="http://www.w3.org/1999/xlink" width="1175.0745501285348" height="642" style="background: rgb(255, 255, 255);"><defs id="defs-f129ac"><g class="clips"><clipPath id="clipf129acxyplot" class="plotclip"><rect width="1015" height="352"></rect></clipPath><clipPath class="axesclip" id="clipf129acx"><rect x="80" y="0" width="1015" height="642"></rect></clipPath><clipPath class="axesclip" id="clipf129acy"><rect x="0" y="70" width="1175.0745501285348" height="352"></rect></clipPath><clipPath class="axesclip" id="clipf129acxy"><rect x="80" y="70" width="1015" height="352"></rect></clipPath></g><g class="gradients"></g></defs><g class="bglayer"></g><g class="draglayer cursor-move"><g class="xy"><rect class="nsewdrag drag" data-subplot="xy" x="80" y="70" width="1015" height="352" style="fill: transparent; stroke-width: 0; pointer-events: all;"></rect><rect class="nwdrag drag cursor-nw-resize" data-subplot="xy" x="60" y="50" width="20" height="20" style="fill: transparent; stroke-width: 0; pointer-events: all;"></rect><rect class="nedrag drag cursor-ne-resize" data-subplot="xy" x="1095" y="50" width="20" height="20" style="fill: transparent; stroke-width: 0; pointer-events: all;"></rect><rect class="swdrag drag cursor-sw-resize" data-subplot="xy" x="60" y="422" width="20" height="20" style="fill: transparent; stroke-width: 0; pointer-events: all;"></rect><rect class="sedrag drag cursor-se-resize" data-subplot="xy" x="1095" y="422" width="20" height="20" style="fill: transparent; stroke-width: 0; pointer-events: all;"></rect><rect class="ewdrag drag cursor-ew-resize" data-subplot="xy" x="181.5" y="422.5" width="812" height="20" style="fill: transparent; stroke-width: 0; pointer-events: all;"></rect><rect class="wdrag drag cursor-w-resize" data-subplot="xy" x="80" y="422.5" width="101.5" height="20" style="fill: transparent; stroke-width: 0; pointer-events: all;"></rect><rect class="edrag drag cursor-e-resize" data-subplot="xy" x="993.5" y="422.5" width="101.5" height="20" style="fill: transparent; stroke-width: 0; pointer-events: all;"></rect><rect class="nsdrag drag cursor-ns-resize" data-subplot="xy" x="59.5" y="105.2" width="20" height="281.6" style="fill: transparent; stroke-width: 0; pointer-events: all;"></rect><rect class="sdrag drag cursor-s-resize" data-subplot="xy" x="59.5" y="386.8" width="20" height="35.2" style="fill: transparent; stroke-width: 0; pointer-events: all;"></rect><rect class="ndrag drag cursor-n-resize" data-subplot="xy" x="59.5" y="70" width="20" height="35.2" style="fill: transparent; stroke-width: 0; pointer-events: all;"></rect></g></g><g class="layer-below"><g class="imagelayer"></g><g class="shapelayer"></g></g><g class="cartesianlayer"><g class="subplot xy"><g class="layer-subplot"><g class="shapelayer"></g><g class="imagelayer"></g></g><g class="gridlayer"><g class="x"></g><g class="y"><path class="ygrid crisp" transform="translate(0,394.25)" d="M80,0h1015" style="stroke: rgb(194, 194, 194); stroke-opacity: 1; stroke-width: 2px;"></path><path class="ygrid crisp" transform="translate(0,345.8)" d="M80,0h1015" style="stroke: rgb(194, 194, 194); stroke-opacity: 1; stroke-width: 2px;"></path><path class="ygrid crisp" transform="translate(0,297.34000000000003)" d="M80,0h1015" style="stroke: rgb(194, 194, 194); stroke-opacity: 1; stroke-width: 2px;"></path><path class="ygrid crisp" transform="translate(0,248.88)" d="M80,0h1015" style="stroke: rgb(194, 194, 194); stroke-opacity: 1; stroke-width: 2px;"></path><path class="ygrid crisp" transform="translate(0,200.43)" d="M80,0h1015" style="stroke: rgb(194, 194, 194); stroke-opacity: 1; stroke-width: 2px;"></path><path class="ygrid crisp" transform="translate(0,103.52000000000001)" d="M80,0h1015" style="stroke: rgb(194, 194, 194); stroke-opacity: 1; stroke-width: 2px;"></path></g></g><g class="zerolinelayer"><path class="yzl zl crisp" transform="translate(0,151.97)" d="M80,0h1015" style="stroke: rgb(68, 68, 68); stroke-opacity: 1; stroke-width: 1px;"></path></g><path class="xlines-below"></path><path class="ylines-below"></path><g class="overlines-below"></g><g class="xaxislayer-below"></g><g class="yaxislayer-below"></g><g class="overaxes-below"></g><g class="plot" transform="translate(80,70)" clip-path="url('#clipf129acxyplot')"><g class="boxlayer mlayer"><g class="trace boxes" style="opacity: 1;"><path class="box" d="M7.1,72.3H27M7.1,96.98H27V15.97H7.1ZM17.05,96.98V101.31M17.05,15.97V-17.43M12.08,101.31H22.02M12.08,-17.43H22.02" style="vector-effect: non-scaling-stroke; stroke-width: 2px; stroke: rgb(31, 119, 180); stroke-opacity: 1; fill: rgb(31, 119, 180); fill-opacity: 0.5;"></path><g class="points"><path class="point" transform="translate(17.05,279.42)" d="M3,0A3,3 0 1,1 0,-3A3,3 0 0,1 3,0Z" style="opacity: 1; stroke-width: 0px; fill: rgb(31, 119, 180); fill-opacity: 1;"></path></g></g><g class="trace boxes" style="opacity: 1;"><path class="box" d="M238.52,66.07H258.41M238.52,84.21H258.41V33.53H238.52ZM248.46,84.21V89.26M248.46,33.53V-12.77M243.49,89.26H253.44M243.49,-12.77H253.44" style="vector-effect: non-scaling-stroke; stroke-width: 2px; stroke: rgb(255, 127, 14); stroke-opacity: 1; fill: rgb(255, 127, 14); fill-opacity: 0.5;"></path><g class="points"><path class="point" transform="translate(248.46,288.68)" d="M3,0A3,3 0 1,1 0,-3A3,3 0 0,1 3,0Z" style="opacity: 1; stroke-width: 0px; fill: rgb(255, 127, 14); fill-opacity: 1;"></path></g></g><g class="trace boxes" style="opacity: 1;"><path class="box" d="M469.93,79.62H489.82M469.93,96.12H489.82V17.72H469.93ZM479.88,96.12V96.12M479.88,17.72V-19.41M474.9,96.12H484.85M474.9,-19.41H484.85" style="vector-effect: non-scaling-stroke; stroke-width: 2px; stroke: rgb(44, 160, 44); stroke-opacity: 1; fill: rgb(44, 160, 44); fill-opacity: 0.5;"></path><g class="points"><path class="point" transform="translate(479.88,277.68)" d="M3,0A3,3 0 1,1 0,-3A3,3 0 0,1 3,0Z" style="opacity: 1; stroke-width: 0px; fill: rgb(44, 160, 44); fill-opacity: 1;"></path></g></g><g class="trace boxes" style="opacity: 1;"><path class="box" d="M701.34,57.91H721.24M701.34,91.22H721.24V20.19H701.34ZM711.29,91.22V95.62M711.29,20.19V7.61M706.32,95.62H716.26M706.32,7.61H716.26" style="vector-effect: non-scaling-stroke; stroke-width: 2px; stroke: rgb(214, 39, 40); stroke-opacity: 1; fill: rgb(214, 39, 40); fill-opacity: 0.5;"></path><g class="points"><path class="point" transform="translate(711.29,289.25)" d="M3,0A3,3 0 1,1 0,-3A3,3 0 0,1 3,0Z" style="opacity: 1; stroke-width: 0px; fill: rgb(214, 39, 40); fill-opacity: 1;"></path></g></g><g class="trace boxes" style="opacity: 1;"><path class="box" d="M932.76,53.32H952.65M932.76,88.91H952.65V40.38H932.76ZM942.7,88.91V88.91M942.7,40.38V-27.55M937.73,88.91H947.68M937.73,-27.55H947.68" style="vector-effect: non-scaling-stroke; stroke-width: 2px; stroke: rgb(148, 103, 189); stroke-opacity: 1; fill: rgb(148, 103, 189); fill-opacity: 0.5;"></path><g class="points"><path class="point" transform="translate(942.7,283)" d="M3,0A3,3 0 1,1 0,-3A3,3 0 0,1 3,0Z" style="opacity: 1; stroke-width: 0px; fill: rgb(148, 103, 189); fill-opacity: 1;"></path></g></g></g></g><g class="overplot"></g><path class="xlines-above crisp" d="M0,0" style="fill: none;"></path><path class="ylines-above crisp" d="M0,0" style="fill: none;"></path><g class="overlines-above"></g><g class="xaxislayer-above"><g class="xtick"><text text-anchor="start" x="0" y="449" data-unformatted="Perceived Job Resources - Overall " data-math="N" transform="translate(153.89,0) rotate(30,0,436)" style="font-family: &quot;Open Sans&quot;, verdana, arial, sans-serif; font-size: 26px; fill: rgb(68, 68, 68); fill-opacity: 1; white-space: pre;">Perceived Job Resources - Overall </text></g><g class="xtick"><text text-anchor="start" x="0" y="449" data-unformatted="Overall Engagement" data-math="N" transform="translate(356.88,0) rotate(30,0,436)" style="font-family: &quot;Open Sans&quot;, verdana, arial, sans-serif; font-size: 26px; fill: rgb(68, 68, 68); fill-opacity: 1; white-space: pre;">Overall Engagement</text></g><g class="xtick"><text text-anchor="start" x="0" y="449" data-unformatted="Vigor" data-math="N" transform="translate(559.88,0) rotate(30,0,436)" style="font-family: &quot;Open Sans&quot;, verdana, arial, sans-serif; font-size: 26px; fill: rgb(68, 68, 68); fill-opacity: 1; white-space: pre;">Vigor</text></g><g class="xtick"><text text-anchor="start" x="0" y="449" data-unformatted="Dedication" data-math="N" transform="translate(762.87,0) rotate(30,0,436)" style="font-family: &quot;Open Sans&quot;, verdana, arial, sans-serif; font-size: 26px; fill: rgb(68, 68, 68); fill-opacity: 1; white-space: pre;">Dedication</text></g><g class="xtick"><text text-anchor="start" x="0" y="449" data-unformatted="Absorption" data-math="N" transform="translate(965.86,0) rotate(30,0,436)" style="font-family: &quot;Open Sans&quot;, verdana, arial, sans-serif; font-size: 26px; fill: rgb(68, 68, 68); fill-opacity: 1; white-space: pre;">Absorption</text></g></g><g class="yaxislayer-above"><g class="ytick"><text text-anchor="end" x="79" y="9.1" data-unformatted="−2.5" data-math="N" transform="translate(0,394.25)" style="font-family: &quot;Open Sans&quot;, verdana, arial, sans-serif; font-size: 26px; fill: rgb(68, 68, 68); fill-opacity: 1; white-space: pre;">−2.5</text></g><g class="ytick"><text text-anchor="end" x="79" y="9.1" data-unformatted="−2" data-math="N" transform="translate(0,345.8)" style="font-family: &quot;Open Sans&quot;, verdana, arial, sans-serif; font-size: 26px; fill: rgb(68, 68, 68); fill-opacity: 1; white-space: pre;">−2</text></g><g class="ytick"><text text-anchor="end" x="79" y="9.1" data-unformatted="−1.5" data-math="N" transform="translate(0,297.34000000000003)" style="font-family: &quot;Open Sans&quot;, verdana, arial, sans-serif; font-size: 26px; fill: rgb(68, 68, 68); fill-opacity: 1; white-space: pre;">−1.5</text></g><g class="ytick"><text text-anchor="end" x="79" y="9.1" data-unformatted="−1" data-math="N" transform="translate(0,248.88)" style="font-family: &quot;Open Sans&quot;, verdana, arial, sans-serif; font-size: 26px; fill: rgb(68, 68, 68); fill-opacity: 1; white-space: pre;">−1</text></g><g class="ytick"><text text-anchor="end" x="79" y="9.1" data-unformatted="−0.5" data-math="N" transform="translate(0,200.43)" style="font-family: &quot;Open Sans&quot;, verdana, arial, sans-serif; font-size: 26px; fill: rgb(68, 68, 68); fill-opacity: 1; white-space: pre;">−0.5</text></g><g class="ytick"><text text-anchor="end" x="79" y="9.1" data-unformatted="0" data-math="N" transform="translate(0,151.97)" style="font-family: &quot;Open Sans&quot;, verdana, arial, sans-serif; font-size: 26px; fill: rgb(68, 68, 68); fill-opacity: 1; white-space: pre;">0</text></g><g class="ytick"><text text-anchor="end" x="79" y="9.1" data-unformatted="0.5" data-math="N" transform="translate(0,103.52000000000001)" style="font-family: &quot;Open Sans&quot;, verdana, arial, sans-serif; font-size: 26px; fill: rgb(68, 68, 68); fill-opacity: 1; white-space: pre;">0.5</text></g></g><g class="overaxes-above"></g></g></g><g class="polarlayer"></g><g class="ternarylayer"></g><g class="geolayer"></g><g class="funnelarealayer"></g><g class="pielayer"></g><g class="treemaplayer"></g><g class="sunburstlayer"></g><g class="glimages"></g></svg><div class="gl-container"></div><svg class="main-svg" style="position: absolute" xmlns="http://www.w3.org/2000/svg" xmlns:xlink="http://www.w3.org/1999/xlink" width="1175.0745501285348" height="642"><defs id="topdefs-f129ac"><g class="clips"></g></defs><g class="indicatorlayer"></g><g class="layer-above"><g class="imagelayer"></g><g class="shapelayer"></g></g><g class="infolayer"><g class="g-gtitle"><text class="gtitle" x="587.5372750642674" y="35" text-anchor="middle" dy="0em" data-unformatted="Distribution of Karma Employee Engagement Scores" data-math="N" style="font-family: &quot;Open Sans&quot;, verdana, arial, sans-serif; font-size: 36px; fill: rgb(68, 68, 68); opacity: 1; font-weight: normal; white-space: pre;">Distribution of Karma Employee Engagement Scores</text></g><g class="g-xtitle"></g><g class="g-ytitle"></g></g><g class="menulayer"></g><g class="zoomlayer"></g></svg><div class="modebar-container" style="position: absolute; top: 0px; right: 0px; width: 100%;"><div id="modebar-f129ac" class="modebar modebar--hover ease-bg"><div class="modebar-group"><a rel="tooltip" class="modebar-btn" data-title="Download plot as a png" data-toggle="false" data-gravity="n"><svg viewBox="0 0 1000 1000" class="icon" height="1em" width="1em"><path d="m500 450c-83 0-150-67-150-150 0-83 67-150 150-150 83 0 150 67 150 150 0 83-67 150-150 150z m400 150h-120c-16 0-34 13-39 29l-31 93c-6 15-23 28-40 28h-340c-16 0-34-13-39-28l-31-94c-6-15-23-28-40-28h-120c-55 0-100-45-100-100v-450c0-55 45-100 100-100h800c55 0 100 45 100 100v450c0 55-45 100-100 100z m-400-550c-138 0-250 112-250 250 0 138 112 250 250 250 138 0 250-112 250-250 0-138-112-250-250-250z m365 380c-19 0-35 16-35 35 0 19 16 35 35 35 19 0 35-16 35-35 0-19-16-35-35-35z" transform="matrix(1 0 0 -1 0 850)"></path></svg></a></div><div class="modebar-group"><a rel="tooltip" class="modebar-btn" data-title="Zoom" data-attr="dragmode" data-val="zoom" data-toggle="false" data-gravity="n"><svg viewBox="0 0 1000 1000" class="icon" height="1em" width="1em"><path d="m1000-25l-250 251c40 63 63 138 63 218 0 224-182 406-407 406-224 0-406-182-406-406s183-406 407-406c80 0 155 22 218 62l250-250 125 125z m-812 250l0 438 437 0 0-438-437 0z m62 375l313 0 0-312-313 0 0 312z" transform="matrix(1 0 0 -1 0 850)"></path></svg></a><a rel="tooltip" class="modebar-btn active" data-title="Pan" data-attr="dragmode" data-val="pan" data-toggle="false" data-gravity="n"><svg viewBox="0 0 1000 1000" class="icon" height="1em" width="1em"><path d="m1000 350l-187 188 0-125-250 0 0 250 125 0-188 187-187-187 125 0 0-250-250 0 0 125-188-188 186-187 0 125 252 0 0-250-125 0 187-188 188 188-125 0 0 250 250 0 0-126 187 188z" transform="matrix(1 0 0 -1 0 850)"></path></svg></a></div><div class="modebar-group"><a rel="tooltip" class="modebar-btn" data-title="Zoom in" data-attr="zoom" data-val="in" data-toggle="false" data-gravity="n"><svg viewBox="0 0 875 1000" class="icon" height="1em" width="1em"><path d="m1 787l0-875 875 0 0 875-875 0z m687-500l-187 0 0-187-125 0 0 187-188 0 0 125 188 0 0 187 125 0 0-187 187 0 0-125z" transform="matrix(1 0 0 -1 0 850)"></path></svg></a><a rel="tooltip" class="modebar-btn" data-title="Zoom out" data-attr="zoom" data-val="out" data-toggle="false" data-gravity="n"><svg viewBox="0 0 875 1000" class="icon" height="1em" width="1em"><path d="m0 788l0-876 875 0 0 876-875 0z m688-500l-500 0 0 125 500 0 0-125z" transform="matrix(1 0 0 -1 0 850)"></path></svg></a><a rel="tooltip" class="modebar-btn" data-title="Autoscale" data-attr="zoom" data-val="auto" data-toggle="false" data-gravity="n"><svg viewBox="0 0 1000 1000" class="icon" height="1em" width="1em"><path d="m250 850l-187 0-63 0 0-62 0-188 63 0 0 188 187 0 0 62z m688 0l-188 0 0-62 188 0 0-188 62 0 0 188 0 62-62 0z m-875-938l0 188-63 0 0-188 0-62 63 0 187 0 0 62-187 0z m875 188l0-188-188 0 0-62 188 0 62 0 0 62 0 188-62 0z m-125 188l-1 0-93-94-156 156 156 156 92-93 2 0 0 250-250 0 0-2 93-92-156-156-156 156 94 92 0 2-250 0 0-250 0 0 93 93 157-156-157-156-93 94 0 0 0-250 250 0 0 0-94 93 156 157 156-157-93-93 0 0 250 0 0 250z" transform="matrix(1 0 0 -1 0 850)"></path></svg></a><a rel="tooltip" class="modebar-btn" data-title="Reset axes" data-attr="zoom" data-val="reset" data-toggle="false" data-gravity="n"><svg viewBox="0 0 928.6 1000" class="icon" height="1em" width="1em"><path d="m786 296v-267q0-15-11-26t-25-10h-214v214h-143v-214h-214q-15 0-25 10t-11 26v267q0 1 0 2t0 2l321 264 321-264q1-1 1-4z m124 39l-34-41q-5-5-12-6h-2q-7 0-12 3l-386 322-386-322q-7-4-13-4-7 2-12 7l-35 41q-4 5-3 13t6 12l401 334q18 15 42 15t43-15l136-114v109q0 8 5 13t13 5h107q8 0 13-5t5-13v-227l122-102q5-5 6-12t-4-13z" transform="matrix(1 0 0 -1 0 850)"></path></svg></a></div><div class="modebar-group"><a rel="tooltip" class="modebar-btn" data-title="Toggle Spike Lines" data-attr="_cartesianSpikesEnabled" data-val="on" data-toggle="false" data-gravity="n"><svg viewBox="0 0 1000 1000" class="icon" height="1em" width="1em"><path d="M512 409c0-57-46-104-103-104-57 0-104 47-104 104 0 57 47 103 104 103 57 0 103-46 103-103z m-327-39l92 0 0 92-92 0z m-185 0l92 0 0 92-92 0z m370-186l92 0 0 93-92 0z m0-184l92 0 0 92-92 0z" transform="matrix(1.5 0 0 -1.5 0 850)"></path></svg></a><a rel="tooltip" class="modebar-btn active" data-title="Show closest data on hover" data-attr="hovermode" data-val="closest" data-toggle="false" data-gravity="ne"><svg viewBox="0 0 1500 1000" class="icon" height="1em" width="1em"><path d="m375 725l0 0-375-375 375-374 0-1 1125 0 0 750-1125 0z" transform="matrix(1 0 0 -1 0 850)"></path></svg></a><a rel="tooltip" class="modebar-btn" data-title="Compare data on hover" data-attr="hovermode" data-val="x" data-toggle="false" data-gravity="ne"><svg viewBox="0 0 1125 1000" class="icon" height="1em" width="1em"><path d="m187 786l0 2-187-188 188-187 0 0 937 0 0 373-938 0z m0-499l0 1-187-188 188-188 0 0 937 0 0 376-938-1z" transform="matrix(1 0 0 -1 0 850)"></path></svg></a></div></div></div><svg class="main-svg" style="position: absolute" xmlns="http://www.w3.org/2000/svg" xmlns:xlink="http://www.w3.org/1999/xlink" width="1175.0745501285348" height="642"><g class="hoverlayer"></g></svg>