<svg class="main-svg" style="position: absolute" xmlns="http://www.w3.org/2000/svg" xmlns:xlink="http://www.w3.org/1999/xlink" width="1316.339552238806" height="642" style="background: rgb(255, 255, 255);"><defs id="defs-1bae48"><g class="clips"><clipPath id="clip1bae48xyplot" class="plotclip"><rect width="1156" height="462"></rect></clipPath><clipPath class="axesclip" id="clip1bae48x"><rect x="80" y="0" width="1156" height="642"></rect></clipPath><clipPath class="axesclip" id="clip1bae48y"><rect x="0" y="100" width="1316.339552238806" height="462"></rect></clipPath><clipPath class="axesclip" id="clip1bae48xy"><rect x="80" y="100" width="1156" height="462"></rect></clipPath></g><g class="gradients"></g></defs><g class="bglayer"></g><g class="draglayer cursor-crosshair"><g class="xy"><rect class="nsewdrag drag" data-subplot="xy" x="80" y="100" width="1156" height="462" style="fill: transparent; stroke-width: 0; pointer-events: all;"></rect><rect class="nwdrag drag cursor-nw-resize" data-subplot="xy" x="60" y="80" width="20" height="20" style="fill: transparent; stroke-width: 0; pointer-events: all;"></rect><rect class="nedrag drag cursor-ne-resize" data-subplot="xy" x="1236" y="80" width="20" height="20" style="fill: transparent; stroke-width: 0; pointer-events: all;"></rect><rect class="swdrag drag cursor-sw-resize" data-subplot="xy" x="60" y="562" width="20" height="20" style="fill: transparent; stroke-width: 0; pointer-events: all;"></rect><rect class="sedrag drag cursor-se-resize" data-subplot="xy" x="1236" y="562" width="20" height="20" style="fill: transparent; stroke-width: 0; pointer-events: all;"></rect><rect class="ewdrag drag cursor-ew-resize" data-subplot="xy" x="195.60000000000002" y="562.5" width="924.8000000000001" height="20" style="fill: transparent; stroke-width: 0; pointer-events: all;"></rect><rect class="wdrag drag cursor-w-resize" data-subplot="xy" x="80" y="562.5" width="115.60000000000001" height="20" style="fill: transparent; stroke-width: 0; pointer-events: all;"></rect><rect class="edrag drag cursor-e-resize" data-subplot="xy" x="1120.4" y="562.5" width="115.60000000000001" height="20" style="fill: transparent; stroke-width: 0; pointer-events: all;"></rect><rect class="nsdrag drag cursor-ns-resize" data-subplot="xy" x="59.5" y="146.2" width="20" height="369.6" style="fill: transparent; stroke-width: 0; pointer-events: all;"></rect><rect class="sdrag drag cursor-s-resize" data-subplot="xy" x="59.5" y="515.8" width="20" height="46.2" style="fill: transparent; stroke-width: 0; pointer-events: all;"></rect><rect class="ndrag drag cursor-n-resize" data-subplot="xy" x="59.5" y="100" width="20" height="46.2" style="fill: transparent; stroke-width: 0; pointer-events: all;"></rect></g></g><g class="layer-below"><g class="imagelayer"></g><g class="shapelayer"></g></g><g class="cartesianlayer"><g class="subplot xy"><g class="layer-subplot"><g class="shapelayer"></g><g class="imagelayer"></g></g><g class="gridlayer"><g class="x"></g><g class="y"></g></g><g class="zerolinelayer"></g><path class="xlines-below"></path><path class="ylines-below"></path><g class="overlines-below"></g><g class="xaxislayer-below"></g><g class="yaxislayer-below"></g><g class="overaxes-below"></g><g class="plot" transform="translate(80,100)" clip-path="url('#clip1bae48xyplot')"><g class="boxlayer mlayer"><g class="trace boxes" style="opacity: 0.79;"><path class="box" d="M46.31,386.16H184.89M46.31,414.27H184.89V356.53H46.31ZM115.6,414.27V438.9M115.6,356.53V287.02M80.95,438.9H150.25M80.95,287.02H150.25" style="vector-effect: non-scaling-stroke; stroke-width: 2px; stroke: rgb(103, 78, 167); stroke-opacity: 1; fill: rgb(180, 167, 214); fill-opacity: 1;"></path><path class="box" d="M277.51,315.18H416.09M277.51,334.05H416.09V284.9H277.51ZM346.8,334.05V376.84M346.8,284.9V264.18M312.15,376.84H381.45M312.15,264.18H381.45" style="vector-effect: non-scaling-stroke; stroke-width: 2px; stroke: rgb(103, 78, 167); stroke-opacity: 1; fill: rgb(180, 167, 214); fill-opacity: 1;"></path><path class="box" d="M508.71,166.99H647.29M508.71,232.43H647.29V132.3H508.71ZM578,232.43V287.02M578,132.3V95.61M543.35,287.02H612.65M543.35,95.61H612.65" style="vector-effect: non-scaling-stroke; stroke-width: 2px; stroke: rgb(103, 78, 167); stroke-opacity: 1; fill: rgb(180, 167, 214); fill-opacity: 1;"></path><path class="box" d="M739.91,225.98H878.49M739.91,285.33H878.49V161.05H739.91ZM809.2,285.33V344.78M809.2,161.05V23.1M774.55,344.78H843.85M774.55,23.1H843.85" style="vector-effect: non-scaling-stroke; stroke-width: 2px; stroke: rgb(103, 78, 167); stroke-opacity: 1; fill: rgb(180, 167, 214); fill-opacity: 1;"></path><path class="box" d="M971.11,320.61H1109.69M971.11,353.18H1109.69V225.83H971.11ZM1040.4,353.18V428.25M1040.4,225.83V147.94M1005.75,428.25H1075.05M1005.75,147.94H1075.05" style="vector-effect: non-scaling-stroke; stroke-width: 2px; stroke: rgb(103, 78, 167); stroke-opacity: 1; fill: rgb(180, 167, 214); fill-opacity: 1;"></path><g class="points"><path class="point" transform="translate(115.6,261.72)" d="M3,0A3,3 0 1,1 0,-3A3,3 0 0,1 3,0Z" style="opacity: 1; stroke-width: 0px; fill: rgb(103, 78, 167); fill-opacity: 1;"></path><path class="point" transform="translate(115.6,253.63)" d="M3,0A3,3 0 1,1 0,-3A3,3 0 0,1 3,0Z" style="opacity: 1; stroke-width: 0px; fill: rgb(103, 78, 167); fill-opacity: 1;"></path><path class="point" transform="translate(115.6,210.52)" d="M3,0A3,3 0 1,1 0,-3A3,3 0 0,1 3,0Z" style="opacity: 1; stroke-width: 0px; fill: rgb(103, 78, 167); fill-opacity: 1;"></path></g><g class="points"><path class="point" transform="translate(346.8,426.51)" d="M3,0A3,3 0 1,1 0,-3A3,3 0 0,1 3,0Z" style="opacity: 1; stroke-width: 0px; fill: rgb(103, 78, 167); fill-opacity: 1;"></path><path class="point" transform="translate(346.8,422.41)" d="M3,0A3,3 0 1,1 0,-3A3,3 0 0,1 3,0Z" style="opacity: 1; stroke-width: 0px; fill: rgb(103, 78, 167); fill-opacity: 1;"></path><path class="point" transform="translate(346.8,152.55)" d="M3,0A3,3 0 1,1 0,-3A3,3 0 0,1 3,0Z" style="opacity: 1; stroke-width: 0px; fill: rgb(103, 78, 167); fill-opacity: 1;"></path></g><g class="points"></g><g class="points"></g><g class="points"><path class="point" transform="translate(1040.4,30.27)" d="M3,0A3,3 0 1,1 0,-3A3,3 0 0,1 3,0Z" style="opacity: 1; stroke-width: 0px; fill: rgb(103, 78, 167); fill-opacity: 1;"></path></g></g></g></g><g class="overplot"></g><path class="xlines-above crisp" d="M79,562.5H1236" style="fill: none; stroke-width: 1px; stroke: rgb(68, 68, 68); stroke-opacity: 1;"></path><path class="ylines-above crisp" d="M79.5,100V562" style="fill: none; stroke-width: 1px; stroke: rgb(68, 68, 68); stroke-opacity: 1;"></path><g class="overlines-above"></g><g class="xaxislayer-above"><g class="xtick"><text text-anchor="middle" x="0" y="591.8" data-unformatted="1 - 10" data-math="N" transform="translate(195.6,0)" style="font-family: &quot;Open Sans&quot;, verdana, arial, sans-serif; font-size: 24px; fill: rgb(68, 68, 68); fill-opacity: 1; white-space: pre;">1 - 10</text></g><g class="xtick"><text text-anchor="middle" x="0" y="591.8" data-unformatted="11 - 20" data-math="N" transform="translate(426.8,0)" style="font-family: &quot;Open Sans&quot;, verdana, arial, sans-serif; font-size: 24px; fill: rgb(68, 68, 68); fill-opacity: 1; white-space: pre;">11 - 20</text></g><g class="xtick"><text text-anchor="middle" x="0" y="591.8" data-unformatted="21 - 30" data-math="N" transform="translate(658,0)" style="font-family: &quot;Open Sans&quot;, verdana, arial, sans-serif; font-size: 24px; fill: rgb(68, 68, 68); fill-opacity: 1; white-space: pre;">21 - 30</text></g><g class="xtick"><text text-anchor="middle" x="0" y="591.8" data-unformatted="31 - 40" data-math="N" transform="translate(889.2,0)" style="font-family: &quot;Open Sans&quot;, verdana, arial, sans-serif; font-size: 24px; fill: rgb(68, 68, 68); fill-opacity: 1; white-space: pre;">31 - 40</text></g><g class="xtick"><text text-anchor="middle" x="0" y="591.8" data-unformatted="41+" data-math="N" transform="translate(1120.4,0)" style="font-family: &quot;Open Sans&quot;, verdana, arial, sans-serif; font-size: 24px; fill: rgb(68, 68, 68); fill-opacity: 1; white-space: pre;">41+</text></g></g><g class="yaxislayer-above"><g class="ytick"><text text-anchor="end" x="74.2" y="8.399999999999999" data-unformatted="0" data-math="N" transform="translate(0,544.94)" style="font-family: &quot;Open Sans&quot;, verdana, arial, sans-serif; font-size: 24px; fill: rgb(68, 68, 68); fill-opacity: 1; white-space: pre;">0</text></g><g class="ytick"><text text-anchor="end" x="74.2" y="8.399999999999999" data-unformatted="2" data-math="N" transform="translate(0,463.01)" style="font-family: &quot;Open Sans&quot;, verdana, arial, sans-serif; font-size: 24px; fill: rgb(68, 68, 68); fill-opacity: 1; white-space: pre;">2</text></g><g class="ytick"><text text-anchor="end" x="74.2" y="8.399999999999999" data-unformatted="4" data-math="N" transform="translate(0,381.08)" style="font-family: &quot;Open Sans&quot;, verdana, arial, sans-serif; font-size: 24px; fill: rgb(68, 68, 68); fill-opacity: 1; white-space: pre;">4</text></g><g class="ytick"><text text-anchor="end" x="74.2" y="8.399999999999999" data-unformatted="6" data-math="N" transform="translate(0,299.15)" style="font-family: &quot;Open Sans&quot;, verdana, arial, sans-serif; font-size: 24px; fill: rgb(68, 68, 68); fill-opacity: 1; white-space: pre;">6</text></g><g class="ytick"><text text-anchor="end" x="74.2" y="8.399999999999999" data-unformatted="8" data-math="N" transform="translate(0,217.22)" style="font-family: &quot;Open Sans&quot;, verdana, arial, sans-serif; font-size: 24px; fill: rgb(68, 68, 68); fill-opacity: 1; white-space: pre;">8</text></g><g class="ytick"><text text-anchor="end" x="74.2" y="8.399999999999999" data-unformatted="10" data-math="N" transform="translate(0,135.29)" style="font-family: &quot;Open Sans&quot;, verdana, arial, sans-serif; font-size: 24px; fill: rgb(68, 68, 68); fill-opacity: 1; white-space: pre;">10</text></g></g><g class="overaxes-above"></g></g></g><g class="polarlayer"></g><g class="ternarylayer"></g><g class="geolayer"></g><g class="funnelarealayer"></g><g class="pielayer"></g><g class="treemaplayer"></g><g class="sunburstlayer"></g><g class="glimages"></g></svg><div class="gl-container"></div><svg class="main-svg" style="position: absolute" xmlns="http://www.w3.org/2000/svg" xmlns:xlink="http://www.w3.org/1999/xlink" width="1316.339552238806" height="642"><defs id="topdefs-1bae48"><g class="clips"></g></defs><g class="indicatorlayer"></g><g class="layer-above"><g class="imagelayer"></g><g class="shapelayer"></g></g><g class="infolayer"><g class="g-gtitle"><text class="gtitle" x="658.169776119403" y="50" text-anchor="middle" dy="0em" data-unformatted="Average Contact Time of Age Groups" data-math="N" style="font-family: &quot;Open Sans&quot;, verdana, arial, sans-serif; font-size: 28px; fill: rgb(68, 68, 68); opacity: 1; font-weight: normal; white-space: pre;">Average Contact Time of Age Groups</text></g><g class="g-xtitle" transform="translate(0,-9)"><text class="xtitle" x="658" y="644" text-anchor="middle" data-unformatted="Age Groups (in years)" data-math="N" style="font-family: &quot;Open Sans&quot;, verdana, arial, sans-serif; font-size: 24px; fill: rgb(68, 68, 68); opacity: 1; font-weight: normal; white-space: pre;">Age Groups (in years)</text></g><g class="g-ytitle" transform="translate(3.5,0)"><text class="ytitle" transform="rotate(-90,22,331)" x="22" y="331" text-anchor="middle" data-unformatted="Average Contact Time (seconds)" data-math="N" style="font-family: &quot;Open Sans&quot;, verdana, arial, sans-serif; font-size: 24px; fill: rgb(68, 68, 68); opacity: 1; font-weight: normal; white-space: pre;">Average Contact Time (seconds)</text></g></g><g class="menulayer"></g><g class="zoomlayer"></g></svg><div class="modebar-container" style="position: absolute; top: 0px; right: 0px; width: 100%;"><div id="modebar-1bae48" class="modebar modebar--hover ease-bg"><div class="modebar-group"><a rel="tooltip" class="modebar-btn" data-title="Download plot as a png" data-toggle="false" data-gravity="n"><svg viewBox="0 0 1000 1000" class="icon" height="1em" width="1em"><path d="m500 450c-83 0-150-67-150-150 0-83 67-150 150-150 83 0 150 67 150 150 0 83-67 150-150 150z m400 150h-120c-16 0-34 13-39 29l-31 93c-6 15-23 28-40 28h-340c-16 0-34-13-39-28l-31-94c-6-15-23-28-40-28h-120c-55 0-100-45-100-100v-450c0-55 45-100 100-100h800c55 0 100 45 100 100v450c0 55-45 100-100 100z m-400-550c-138 0-250 112-250 250 0 138 112 250 250 250 138 0 250-112 250-250 0-138-112-250-250-250z m365 380c-19 0-35 16-35 35 0 19 16 35 35 35 19 0 35-16 35-35 0-19-16-35-35-35z" transform="matrix(1 0 0 -1 0 850)"></path></svg></a></div><div class="modebar-group"><a rel="tooltip" class="modebar-btn active" data-title="Zoom" data-attr="dragmode" data-val="zoom" data-toggle="false" data-gravity="n"><svg viewBox="0 0 1000 1000" class="icon" height="1em" width="1em"><path d="m1000-25l-250 251c40 63 63 138 63 218 0 224-182 406-407 406-224 0-406-182-406-406s183-406 407-406c80 0 155 22 218 62l250-250 125 125z m-812 250l0 438 437 0 0-438-437 0z m62 375l313 0 0-312-313 0 0 312z" transform="matrix(1 0 0 -1 0 850)"></path></svg></a><a rel="tooltip" class="modebar-btn" data-title="Pan" data-attr="dragmode" data-val="pan" data-toggle="false" data-gravity="n"><svg viewBox="0 0 1000 1000" class="icon" height="1em" width="1em"><path d="m1000 350l-187 188 0-125-250 0 0 250 125 0-188 187-187-187 125 0 0-250-250 0 0 125-188-188 186-187 0 125 252 0 0-250-125 0 187-188 188 188-125 0 0 250 250 0 0-126 187 188z" transform="matrix(1 0 0 -1 0 850)"></path></svg></a></div><div class="modebar-group"><a rel="tooltip" class="modebar-btn" data-title="Zoom in" data-attr="zoom" data-val="in" data-toggle="false" data-gravity="n"><svg viewBox="0 0 875 1000" class="icon" height="1em" width="1em"><path d="m1 787l0-875 875 0 0 875-875 0z m687-500l-187 0 0-187-125 0 0 187-188 0 0 125 188 0 0 187 125 0 0-187 187 0 0-125z" transform="matrix(1 0 0 -1 0 850)"></path></svg></a><a rel="tooltip" class="modebar-btn" data-title="Zoom out" data-attr="zoom" data-val="out" data-toggle="false" data-gravity="n"><svg viewBox="0 0 875 1000" class="icon" height="1em" width="1em"><path d="m0 788l0-876 875 0 0 876-875 0z m688-500l-500 0 0 125 500 0 0-125z" transform="matrix(1 0 0 -1 0 850)"></path></svg></a><a rel="tooltip" class="modebar-btn" data-title="Autoscale" data-attr="zoom" data-val="auto" data-toggle="false" data-gravity="n"><svg viewBox="0 0 1000 1000" class="icon" height="1em" width="1em"><path d="m250 850l-187 0-63 0 0-62 0-188 63 0 0 188 187 0 0 62z m688 0l-188 0 0-62 188 0 0-188 62 0 0 188 0 62-62 0z m-875-938l0 188-63 0 0-188 0-62 63 0 187 0 0 62-187 0z m875 188l0-188-188 0 0-62 188 0 62 0 0 62 0 188-62 0z m-125 188l-1 0-93-94-156 156 156 156 92-93 2 0 0 250-250 0 0-2 93-92-156-156-156 156 94 92 0 2-250 0 0-250 0 0 93 93 157-156-157-156-93 94 0 0 0-250 250 0 0 0-94 93 156 157 156-157-93-93 0 0 250 0 0 250z" transform="matrix(1 0 0 -1 0 850)"></path></svg></a><a rel="tooltip" class="modebar-btn" data-title="Reset axes" data-attr="zoom" data-val="reset" data-toggle="false" data-gravity="n"><svg viewBox="0 0 928.6 1000" class="icon" height="1em" width="1em"><path d="m786 296v-267q0-15-11-26t-25-10h-214v214h-143v-214h-214q-15 0-25 10t-11 26v267q0 1 0 2t0 2l321 264 321-264q1-1 1-4z m124 39l-34-41q-5-5-12-6h-2q-7 0-12 3l-386 322-386-322q-7-4-13-4-7 2-12 7l-35 41q-4 5-3 13t6 12l401 334q18 15 42 15t43-15l136-114v109q0 8 5 13t13 5h107q8 0 13-5t5-13v-227l122-102q5-5 6-12t-4-13z" transform="matrix(1 0 0 -1 0 850)"></path></svg></a></div><div class="modebar-group"><a rel="tooltip" class="modebar-btn" data-title="Toggle Spike Lines" data-attr="_cartesianSpikesEnabled" data-val="on" data-toggle="false" data-gravity="n"><svg viewBox="0 0 1000 1000" class="icon" height="1em" width="1em"><path d="M512 409c0-57-46-104-103-104-57 0-104 47-104 104 0 57 47 103 104 103 57 0 103-46 103-103z m-327-39l92 0 0 92-92 0z m-185 0l92 0 0 92-92 0z m370-186l92 0 0 93-92 0z m0-184l92 0 0 92-92 0z" transform="matrix(1.5 0 0 -1.5 0 850)"></path></svg></a><a rel="tooltip" class="modebar-btn" data-title="Show closest data on hover" data-attr="hovermode" data-val="closest" data-toggle="false" data-gravity="ne"><svg viewBox="0 0 1500 1000" class="icon" height="1em" width="1em"><path d="m375 725l0 0-375-375 375-374 0-1 1125 0 0 750-1125 0z" transform="matrix(1 0 0 -1 0 850)"></path></svg></a><a rel="tooltip" class="modebar-btn active" data-title="Compare data on hover" data-attr="hovermode" data-val="x" data-toggle="false" data-gravity="ne"><svg viewBox="0 0 1125 1000" class="icon" height="1em" width="1em"><path d="m187 786l0 2-187-188 188-187 0 0 937 0 0 373-938 0z m0-499l0 1-187-188 188-188 0 0 937 0 0 376-938-1z" transform="matrix(1 0 0 -1 0 850)"></path></svg></a></div></div></div><svg class="main-svg" style="position: absolute" xmlns="http://www.w3.org/2000/svg" xmlns:xlink="http://www.w3.org/1999/xlink" width="1316.339552238806" height="642"><g class="hoverlayer"></g></svg>