<svg class="main-svg" style="position: absolute" xmlns="http://www.w3.org/2000/svg" xmlns:xlink="http://www.w3.org/1999/xlink" width="1521.5264270613109" height="642" style="background: rgb(255, 255, 255);"><defs id="defs-8be4a5"><g class="clips"><clipPath id="clip8be4a5xyplot" class="plotclip"><rect width="1311" height="462"></rect></clipPath><clipPath class="axesclip" id="clip8be4a5x"><rect x="80" y="0" width="1311" height="642"></rect></clipPath><clipPath class="axesclip" id="clip8be4a5y"><rect x="0" y="100" width="1521.5264270613109" height="462"></rect></clipPath><clipPath class="axesclip" id="clip8be4a5xy"><rect x="80" y="100" width="1311" height="462"></rect></clipPath></g><g class="gradients"></g></defs><g class="bglayer"></g><g class="draglayer cursor-crosshair"><g class="xy"><rect class="nsewdrag drag" data-subplot="xy" x="80" y="100" width="1311" height="462" style="fill: transparent; stroke-width: 0; pointer-events: all;"></rect><rect class="nwdrag drag cursor-nw-resize" data-subplot="xy" x="60" y="80" width="20" height="20" style="fill: transparent; stroke-width: 0; pointer-events: all;"></rect><rect class="nedrag drag cursor-ne-resize" data-subplot="xy" x="1391" y="80" width="20" height="20" style="fill: transparent; stroke-width: 0; pointer-events: all;"></rect><rect class="swdrag drag cursor-sw-resize" data-subplot="xy" x="60" y="562" width="20" height="20" style="fill: transparent; stroke-width: 0; pointer-events: all;"></rect><rect class="sedrag drag cursor-se-resize" data-subplot="xy" x="1391" y="562" width="20" height="20" style="fill: transparent; stroke-width: 0; pointer-events: all;"></rect><rect class="ewdrag drag cursor-ew-resize" data-subplot="xy" x="211.1" y="562.5" width="1048.8" height="20" style="fill: transparent; stroke-width: 0; pointer-events: all;"></rect><rect class="wdrag drag cursor-w-resize" data-subplot="xy" x="80" y="562.5" width="131.1" height="20" style="fill: transparent; stroke-width: 0; pointer-events: all;"></rect><rect class="edrag drag cursor-e-resize" data-subplot="xy" x="1259.9" y="562.5" width="131.1" height="20" style="fill: transparent; stroke-width: 0; pointer-events: all;"></rect><rect class="nsdrag drag cursor-ns-resize" data-subplot="xy" x="59.5" y="146.2" width="20" height="369.6" style="fill: transparent; stroke-width: 0; pointer-events: all;"></rect><rect class="sdrag drag cursor-s-resize" data-subplot="xy" x="59.5" y="515.8" width="20" height="46.2" style="fill: transparent; stroke-width: 0; pointer-events: all;"></rect><rect class="ndrag drag cursor-n-resize" data-subplot="xy" x="59.5" y="100" width="20" height="46.2" style="fill: transparent; stroke-width: 0; pointer-events: all;"></rect></g></g><g class="layer-below"><g class="imagelayer"></g><g class="shapelayer"></g></g><g class="cartesianlayer"><g class="subplot xy"><g class="layer-subplot"><g class="shapelayer"></g><g class="imagelayer"></g></g><g class="gridlayer"><g class="x"></g><g class="y"><path class="ygrid crisp" transform="translate(0,471.84)" d="M80,0h1311" style="stroke: rgb(238, 238, 238); stroke-opacity: 1; stroke-width: 1px;"></path><path class="ygrid crisp" transform="translate(0,404.77)" d="M80,0h1311" style="stroke: rgb(238, 238, 238); stroke-opacity: 1; stroke-width: 1px;"></path><path class="ygrid crisp" transform="translate(0,337.71000000000004)" d="M80,0h1311" style="stroke: rgb(238, 238, 238); stroke-opacity: 1; stroke-width: 1px;"></path><path class="ygrid crisp" transform="translate(0,270.64)" d="M80,0h1311" style="stroke: rgb(238, 238, 238); stroke-opacity: 1; stroke-width: 1px;"></path><path class="ygrid crisp" transform="translate(0,203.57999999999998)" d="M80,0h1311" style="stroke: rgb(238, 238, 238); stroke-opacity: 1; stroke-width: 1px;"></path><path class="ygrid crisp" transform="translate(0,136.51)" d="M80,0h1311" style="stroke: rgb(238, 238, 238); stroke-opacity: 1; stroke-width: 1px;"></path></g></g><g class="zerolinelayer"><path class="yzl zl crisp" transform="translate(0,538.9)" d="M80,0h1311" style="stroke: rgb(68, 68, 68); stroke-opacity: 1; stroke-width: 1px;"></path></g><path class="xlines-below"></path><path class="ylines-below"></path><g class="overlines-below"></g><g class="xaxislayer-below"></g><g class="yaxislayer-below"></g><g class="overaxes-below"></g><g class="plot" transform="translate(80,100)" clip-path="url('#clip8be4a5xyplot')"><g class="boxlayer mlayer"><g class="trace boxes" style="opacity: 1;"><path class="box" d="M83.48,197.47H154.53M83.48,251.12H154.53V150.52H83.48ZM119,251.12V385.25M119,150.52V90.16M101.24,385.25H136.76M101.24,90.16H136.76" style="vector-effect: non-scaling-stroke; stroke-width: 6px; stroke: rgb(19, 27, 88); stroke-opacity: 1; fill: rgb(255, 255, 255); fill-opacity: 1;"></path><path class="box" d="M518.48,358.42H589.53M518.48,398.66H589.53V331.6H518.48ZM554,398.66V438.9M554,331.6V237.71M536.24,438.9H571.76M536.24,237.71H571.76" style="vector-effect: non-scaling-stroke; stroke-width: 6px; stroke: rgb(19, 27, 88); stroke-opacity: 1; fill: rgb(255, 255, 255); fill-opacity: 1;"></path><path class="box" d="M953.48,170.64H1024.53M953.48,210.88H1024.53V143.82H953.48ZM989,210.88V304.77M989,143.82V76.75M971.24,304.77H1006.76M971.24,76.75H1006.76" style="vector-effect: non-scaling-stroke; stroke-width: 6px; stroke: rgb(19, 27, 88); stroke-opacity: 1; fill: rgb(255, 255, 255); fill-opacity: 1;"></path><g class="points"><path class="point" transform="translate(119,438.9)" d="M3,0A3,3 0 1,1 0,-3A3,3 0 0,1 3,0Z" style="opacity: 1; stroke-width: 6px; fill: rgb(19, 27, 88); fill-opacity: 1; stroke: rgb(19, 27, 88); stroke-opacity: 1;"></path><path class="point" transform="translate(119,438.9)" d="M3,0A3,3 0 1,1 0,-3A3,3 0 0,1 3,0Z" style="opacity: 1; stroke-width: 6px; fill: rgb(19, 27, 88); fill-opacity: 1; stroke: rgb(19, 27, 88); stroke-opacity: 1;"></path></g><g class="points"><path class="point" transform="translate(554,210.88)" d="M3,0A3,3 0 1,1 0,-3A3,3 0 0,1 3,0Z" style="opacity: 1; stroke-width: 6px; fill: rgb(19, 27, 88); fill-opacity: 1; stroke: rgb(19, 27, 88); stroke-opacity: 1;"></path><path class="point" transform="translate(554,130.4)" d="M3,0A3,3 0 1,1 0,-3A3,3 0 0,1 3,0Z" style="opacity: 1; stroke-width: 6px; fill: rgb(19, 27, 88); fill-opacity: 1; stroke: rgb(19, 27, 88); stroke-opacity: 1;"></path><path class="point" transform="translate(554,116.99)" d="M3,0A3,3 0 1,1 0,-3A3,3 0 0,1 3,0Z" style="opacity: 1; stroke-width: 6px; fill: rgb(19, 27, 88); fill-opacity: 1; stroke: rgb(19, 27, 88); stroke-opacity: 1;"></path><path class="point" transform="translate(554,103.58)" d="M3,0A3,3 0 1,1 0,-3A3,3 0 0,1 3,0Z" style="opacity: 1; stroke-width: 6px; fill: rgb(19, 27, 88); fill-opacity: 1; stroke: rgb(19, 27, 88); stroke-opacity: 1;"></path></g><g class="points"><path class="point" transform="translate(989,425.49)" d="M3,0A3,3 0 1,1 0,-3A3,3 0 0,1 3,0Z" style="opacity: 1; stroke-width: 6px; fill: rgb(19, 27, 88); fill-opacity: 1; stroke: rgb(19, 27, 88); stroke-opacity: 1;"></path><path class="point" transform="translate(989,385.25)" d="M3,0A3,3 0 1,1 0,-3A3,3 0 0,1 3,0Z" style="opacity: 1; stroke-width: 6px; fill: rgb(19, 27, 88); fill-opacity: 1; stroke: rgb(19, 27, 88); stroke-opacity: 1;"></path><path class="point" transform="translate(989,371.84)" d="M3,0A3,3 0 1,1 0,-3A3,3 0 0,1 3,0Z" style="opacity: 1; stroke-width: 6px; fill: rgb(19, 27, 88); fill-opacity: 1; stroke: rgb(19, 27, 88); stroke-opacity: 1;"></path><path class="point" transform="translate(989,345.01)" d="M3,0A3,3 0 1,1 0,-3A3,3 0 0,1 3,0Z" style="opacity: 1; stroke-width: 6px; fill: rgb(19, 27, 88); fill-opacity: 1; stroke: rgb(19, 27, 88); stroke-opacity: 1;"></path><path class="point" transform="translate(989,331.6)" d="M3,0A3,3 0 1,1 0,-3A3,3 0 0,1 3,0Z" style="opacity: 1; stroke-width: 6px; fill: rgb(19, 27, 88); fill-opacity: 1; stroke: rgb(19, 27, 88); stroke-opacity: 1;"></path></g></g><g class="trace boxes" style="opacity: 1;"><path class="box" d="M184.98,271.24H256.03M184.98,291.36H256.03V217.59H184.98ZM220.5,291.36V398.66M220.5,217.59V143.82M202.74,398.66H238.26M202.74,143.82H238.26" style="vector-effect: non-scaling-stroke; stroke-width: 6px; stroke: rgb(0, 167, 141); stroke-opacity: 1; fill: rgb(255, 255, 255); fill-opacity: 1;"></path><path class="box" d="M619.98,385.25H691.03M619.98,412.07H691.03V345.01H619.98ZM655.5,412.07V438.9M655.5,345.01V277.95M637.74,438.9H673.26M637.74,277.95H673.26" style="vector-effect: non-scaling-stroke; stroke-width: 6px; stroke: rgb(0, 167, 141); stroke-opacity: 1; fill: rgb(255, 255, 255); fill-opacity: 1;"></path><path class="box" d="M1054.98,184.05H1126.03M1054.98,227.65H1126.03V157.23H1054.98ZM1090.5,227.65V318.18M1090.5,157.23V76.75M1072.74,318.18H1108.26M1072.74,76.75H1108.26" style="vector-effect: non-scaling-stroke; stroke-width: 6px; stroke: rgb(0, 167, 141); stroke-opacity: 1; fill: rgb(255, 255, 255); fill-opacity: 1;"></path><g class="points"><path class="point" transform="translate(220.5,438.9)" d="M3,0A3,3 0 1,1 0,-3A3,3 0 0,1 3,0Z" style="opacity: 1; stroke-width: 6px; fill: rgb(0, 167, 141); fill-opacity: 1; stroke: rgb(0, 167, 141); stroke-opacity: 1;"></path><path class="point" transform="translate(220.5,438.9)" d="M3,0A3,3 0 1,1 0,-3A3,3 0 0,1 3,0Z" style="opacity: 1; stroke-width: 6px; fill: rgb(0, 167, 141); fill-opacity: 1; stroke: rgb(0, 167, 141); stroke-opacity: 1;"></path><path class="point" transform="translate(220.5,425.49)" d="M3,0A3,3 0 1,1 0,-3A3,3 0 0,1 3,0Z" style="opacity: 1; stroke-width: 6px; fill: rgb(0, 167, 141); fill-opacity: 1; stroke: rgb(0, 167, 141); stroke-opacity: 1;"></path><path class="point" transform="translate(220.5,90.16)" d="M3,0A3,3 0 1,1 0,-3A3,3 0 0,1 3,0Z" style="opacity: 1; stroke-width: 6px; fill: rgb(0, 167, 141); fill-opacity: 1; stroke: rgb(0, 167, 141); stroke-opacity: 1;"></path><path class="point" transform="translate(220.5,76.75)" d="M3,0A3,3 0 1,1 0,-3A3,3 0 0,1 3,0Z" style="opacity: 1; stroke-width: 6px; fill: rgb(0, 167, 141); fill-opacity: 1; stroke: rgb(0, 167, 141); stroke-opacity: 1;"></path></g><g class="points"><path class="point" transform="translate(655.5,237.71)" d="M3,0A3,3 0 1,1 0,-3A3,3 0 0,1 3,0Z" style="opacity: 1; stroke-width: 6px; fill: rgb(0, 167, 141); fill-opacity: 1; stroke: rgb(0, 167, 141); stroke-opacity: 1;"></path><path class="point" transform="translate(655.5,197.47)" d="M3,0A3,3 0 1,1 0,-3A3,3 0 0,1 3,0Z" style="opacity: 1; stroke-width: 6px; fill: rgb(0, 167, 141); fill-opacity: 1; stroke: rgb(0, 167, 141); stroke-opacity: 1;"></path><path class="point" transform="translate(655.5,116.99)" d="M3,0A3,3 0 1,1 0,-3A3,3 0 0,1 3,0Z" style="opacity: 1; stroke-width: 6px; fill: rgb(0, 167, 141); fill-opacity: 1; stroke: rgb(0, 167, 141); stroke-opacity: 1;"></path><path class="point" transform="translate(655.5,90.16)" d="M3,0A3,3 0 1,1 0,-3A3,3 0 0,1 3,0Z" style="opacity: 1; stroke-width: 6px; fill: rgb(0, 167, 141); fill-opacity: 1; stroke: rgb(0, 167, 141); stroke-opacity: 1;"></path></g><g class="points"><path class="point" transform="translate(1090.5,398.66)" d="M3,0A3,3 0 1,1 0,-3A3,3 0 0,1 3,0Z" style="opacity: 1; stroke-width: 6px; fill: rgb(0, 167, 141); fill-opacity: 1; stroke: rgb(0, 167, 141); stroke-opacity: 1;"></path><path class="point" transform="translate(1090.5,385.25)" d="M3,0A3,3 0 1,1 0,-3A3,3 0 0,1 3,0Z" style="opacity: 1; stroke-width: 6px; fill: rgb(0, 167, 141); fill-opacity: 1; stroke: rgb(0, 167, 141); stroke-opacity: 1;"></path><path class="point" transform="translate(1090.5,358.42)" d="M3,0A3,3 0 1,1 0,-3A3,3 0 0,1 3,0Z" style="opacity: 1; stroke-width: 6px; fill: rgb(0, 167, 141); fill-opacity: 1; stroke: rgb(0, 167, 141); stroke-opacity: 1;"></path><path class="point" transform="translate(1090.5,345.01)" d="M3,0A3,3 0 1,1 0,-3A3,3 0 0,1 3,0Z" style="opacity: 1; stroke-width: 6px; fill: rgb(0, 167, 141); fill-opacity: 1; stroke: rgb(0, 167, 141); stroke-opacity: 1;"></path><path class="point" transform="translate(1090.5,345.01)" d="M3,0A3,3 0 1,1 0,-3A3,3 0 0,1 3,0Z" style="opacity: 1; stroke-width: 6px; fill: rgb(0, 167, 141); fill-opacity: 1; stroke: rgb(0, 167, 141); stroke-opacity: 1;"></path><path class="point" transform="translate(1090.5,345.01)" d="M3,0A3,3 0 1,1 0,-3A3,3 0 0,1 3,0Z" style="opacity: 1; stroke-width: 6px; fill: rgb(0, 167, 141); fill-opacity: 1; stroke: rgb(0, 167, 141); stroke-opacity: 1;"></path></g></g><g class="trace boxes" style="opacity: 1;"><path class="box" d="M286.48,217.59H357.53M286.48,271.24H357.53V130.4H286.48ZM322,271.24V412.07M322,130.4V23.1M304.24,412.07H339.76M304.24,23.1H339.76" style="vector-effect: non-scaling-stroke; stroke-width: 6px; stroke: rgb(252, 185, 37); stroke-opacity: 1; fill: rgb(255, 255, 255); fill-opacity: 1;"></path><path class="box" d="M721.48,358.42H792.53M721.48,398.66H792.53V331.6H721.48ZM757,398.66V438.9M757,331.6V251.12M739.24,438.9H774.76M739.24,251.12H774.76" style="vector-effect: non-scaling-stroke; stroke-width: 6px; stroke: rgb(252, 185, 37); stroke-opacity: 1; fill: rgb(255, 255, 255); fill-opacity: 1;"></path><path class="box" d="M1156.48,170.64H1227.53M1156.48,224.29H1227.53V130.4H1156.48ZM1192,224.29V358.42M1192,130.4V23.1M1174.24,358.42H1209.76M1174.24,23.1H1209.76" style="vector-effect: non-scaling-stroke; stroke-width: 6px; stroke: rgb(252, 185, 37); stroke-opacity: 1; fill: rgb(255, 255, 255); fill-opacity: 1;"></path><g class="points"></g><g class="points"><path class="point" transform="translate(757,170.64)" d="M3,0A3,3 0 1,1 0,-3A3,3 0 0,1 3,0Z" style="opacity: 1; stroke-width: 6px; fill: rgb(252, 185, 37); fill-opacity: 1; stroke: rgb(252, 185, 37); stroke-opacity: 1;"></path><path class="point" transform="translate(757,116.99)" d="M3,0A3,3 0 1,1 0,-3A3,3 0 0,1 3,0Z" style="opacity: 1; stroke-width: 6px; fill: rgb(252, 185, 37); fill-opacity: 1; stroke: rgb(252, 185, 37); stroke-opacity: 1;"></path><path class="point" transform="translate(757,103.58)" d="M3,0A3,3 0 1,1 0,-3A3,3 0 0,1 3,0Z" style="opacity: 1; stroke-width: 6px; fill: rgb(252, 185, 37); fill-opacity: 1; stroke: rgb(252, 185, 37); stroke-opacity: 1;"></path><path class="point" transform="translate(757,103.58)" d="M3,0A3,3 0 1,1 0,-3A3,3 0 0,1 3,0Z" style="opacity: 1; stroke-width: 6px; fill: rgb(252, 185, 37); fill-opacity: 1; stroke: rgb(252, 185, 37); stroke-opacity: 1;"></path></g><g class="points"><path class="point" transform="translate(1192,425.49)" d="M3,0A3,3 0 1,1 0,-3A3,3 0 0,1 3,0Z" style="opacity: 1; stroke-width: 6px; fill: rgb(252, 185, 37); fill-opacity: 1; stroke: rgb(252, 185, 37); stroke-opacity: 1;"></path><path class="point" transform="translate(1192,398.66)" d="M3,0A3,3 0 1,1 0,-3A3,3 0 0,1 3,0Z" style="opacity: 1; stroke-width: 6px; fill: rgb(252, 185, 37); fill-opacity: 1; stroke: rgb(252, 185, 37); stroke-opacity: 1;"></path></g></g></g></g><g class="overplot"></g><path class="xlines-above crisp" d="M0,0" style="fill: none;"></path><path class="ylines-above crisp" style="fill: none;" d="M0,0"></path><g class="overlines-above"></g><g class="xaxislayer-above"><g class="xtick"><text text-anchor="middle" x="0" y="575" data-unformatted="ADHD" data-math="N" transform="translate(300.5,0)" style="font-family: &quot;Open Sans&quot;, verdana, arial, sans-serif; font-size: 12px; fill: rgb(68, 68, 68); fill-opacity: 1; white-space: pre;">ADHD</text></g><g class="xtick"><text text-anchor="middle" x="0" y="575" data-unformatted="CG" data-math="N" transform="translate(735.5,0)" style="font-family: &quot;Open Sans&quot;, verdana, arial, sans-serif; font-size: 12px; fill: rgb(68, 68, 68); fill-opacity: 1; white-space: pre;">CG</text></g><g class="xtick"><text text-anchor="middle" x="0" y="575" data-unformatted="SG" data-math="N" transform="translate(1170.5,0)" style="font-family: &quot;Open Sans&quot;, verdana, arial, sans-serif; font-size: 12px; fill: rgb(68, 68, 68); fill-opacity: 1; white-space: pre;">SG</text></g></g><g class="yaxislayer-above"><g class="ytick"><text text-anchor="end" x="79" y="4.199999999999999" data-unformatted="0" data-math="N" transform="translate(0,538.9)" style="font-family: &quot;Open Sans&quot;, verdana, arial, sans-serif; font-size: 12px; fill: rgb(68, 68, 68); fill-opacity: 1; white-space: pre;">0</text></g><g class="ytick"><text text-anchor="end" x="79" y="4.199999999999999" data-unformatted="5" data-math="N" transform="translate(0,471.84)" style="font-family: &quot;Open Sans&quot;, verdana, arial, sans-serif; font-size: 12px; fill: rgb(68, 68, 68); fill-opacity: 1; white-space: pre;">5</text></g><g class="ytick"><text text-anchor="end" x="79" y="4.199999999999999" data-unformatted="10" data-math="N" transform="translate(0,404.77)" style="font-family: &quot;Open Sans&quot;, verdana, arial, sans-serif; font-size: 12px; fill: rgb(68, 68, 68); fill-opacity: 1; white-space: pre;">10</text></g><g class="ytick"><text text-anchor="end" x="79" y="4.199999999999999" data-unformatted="15" data-math="N" transform="translate(0,337.71000000000004)" style="font-family: &quot;Open Sans&quot;, verdana, arial, sans-serif; font-size: 12px; fill: rgb(68, 68, 68); fill-opacity: 1; white-space: pre;">15</text></g><g class="ytick"><text text-anchor="end" x="79" y="4.199999999999999" data-unformatted="20" data-math="N" transform="translate(0,270.64)" style="font-family: &quot;Open Sans&quot;, verdana, arial, sans-serif; font-size: 12px; fill: rgb(68, 68, 68); fill-opacity: 1; white-space: pre;">20</text></g><g class="ytick"><text text-anchor="end" x="79" y="4.199999999999999" data-unformatted="25" data-math="N" transform="translate(0,203.57999999999998)" style="font-family: &quot;Open Sans&quot;, verdana, arial, sans-serif; font-size: 12px; fill: rgb(68, 68, 68); fill-opacity: 1; white-space: pre;">25</text></g><g class="ytick"><text text-anchor="end" x="79" y="4.199999999999999" data-unformatted="30" data-math="N" transform="translate(0,136.51)" style="font-family: &quot;Open Sans&quot;, verdana, arial, sans-serif; font-size: 12px; fill: rgb(68, 68, 68); fill-opacity: 1; white-space: pre;">30</text></g></g><g class="overaxes-above"></g></g></g><g class="polarlayer"></g><g class="ternarylayer"></g><g class="geolayer"></g><g class="funnelarealayer"></g><g class="pielayer"></g><g class="treemaplayer"></g><g class="sunburstlayer"></g><g class="glimages"></g></svg><div class="gl-container"></div><svg class="main-svg" style="position: absolute" xmlns="http://www.w3.org/2000/svg" xmlns:xlink="http://www.w3.org/1999/xlink" width="1521.5264270613109" height="642"><defs id="topdefs-8be4a5"><g class="clips"></g><clipPath id="legend8be4a5"><rect width="93" height="67" x="0" y="0"></rect></clipPath></defs><g class="indicatorlayer"></g><g class="layer-above"><g class="imagelayer"></g><g class="shapelayer"></g></g><g class="infolayer"><g class="legend" pointer-events="all" transform="translate(1417.22,100)"><rect class="bg" shape-rendering="crispEdges" style="stroke: rgb(68, 68, 68); stroke-opacity: 1; fill: rgb(255, 255, 255); fill-opacity: 1; stroke-width: 0px;" width="93" height="67" x="0" y="0"></rect><g class="scrollbox" transform="" clip-path="url('#legend8be4a5')"><g class="groups"><g class="traces" transform="translate(0,14.5)" style="opacity: 1;"><text class="legendtext" text-anchor="start" x="40" y="4.680000000000001" data-unformatted="CAARS-E" data-math="N" style="font-family: &quot;Open Sans&quot;, verdana, arial, sans-serif; font-size: 12px; fill: rgb(68, 68, 68); fill-opacity: 1; white-space: pre;">CAARS-E</text><g class="layers" style="opacity: 1;"><g class="legendfill"></g><g class="legendlines"></g><g class="legendsymbols"><g class="legendpoints"><path class="legendbox" d="M6,6H-6V-6H6Z" transform="translate(20,0)" style="stroke-width: 5px; fill: rgb(255, 255, 255); fill-opacity: 1; stroke: rgb(19, 27, 88); stroke-opacity: 1;"></path></g></g></g><rect class="legendtoggle" pointer-events="all" x="0" y="-9.5" width="87.296875" height="19" style="cursor: pointer; fill: rgb(0, 0, 0); fill-opacity: 0;"></rect></g><g class="traces" style="opacity: 1;" transform="translate(0,33.5)"><text class="legendtext" text-anchor="start" x="40" y="4.680000000000001" data-unformatted="CAARS-F" data-math="N" style="font-family: &quot;Open Sans&quot;, verdana, arial, sans-serif; font-size: 12px; fill: rgb(68, 68, 68); fill-opacity: 1; white-space: pre;">CAARS-F</text><g class="layers" style="opacity: 1;"><g class="legendfill"></g><g class="legendlines"></g><g class="legendsymbols"><g class="legendpoints"><path class="legendbox" d="M6,6H-6V-6H6Z" transform="translate(20,0)" style="stroke-width: 5px; fill: rgb(255, 255, 255); fill-opacity: 1; stroke: rgb(0, 167, 141); stroke-opacity: 1;"></path></g></g></g><rect class="legendtoggle" pointer-events="all" x="0" y="-9.5" width="87.296875" height="19" style="cursor: pointer; fill: rgb(0, 0, 0); fill-opacity: 0;"></rect></g><g class="traces" style="opacity: 1;" transform="translate(0,52.5)"><text class="legendtext" text-anchor="start" x="40" y="4.680000000000001" data-unformatted="CII" data-math="N" style="font-family: &quot;Open Sans&quot;, verdana, arial, sans-serif; font-size: 12px; fill: rgb(68, 68, 68); fill-opacity: 1; white-space: pre;">CII</text><g class="layers" style="opacity: 1;"><g class="legendfill"></g><g class="legendlines"></g><g class="legendsymbols"><g class="legendpoints"><path class="legendbox" d="M6,6H-6V-6H6Z" transform="translate(20,0)" style="stroke-width: 5px; fill: rgb(255, 255, 255); fill-opacity: 1; stroke: rgb(252, 185, 37); stroke-opacity: 1;"></path></g></g></g><rect class="legendtoggle" pointer-events="all" x="0" y="-9.5" width="87.296875" height="19" style="cursor: pointer; fill: rgb(0, 0, 0); fill-opacity: 0;"></rect></g></g></g><rect class="scrollbar" rx="20" ry="3" width="0" height="0" style="fill: rgb(128, 139, 164); fill-opacity: 1;" x="0" y="0"></rect></g><g class="g-gtitle"><text class="gtitle" x="760.7632135306554" y="50" text-anchor="middle" dy="0em" data-unformatted="CAARS Scores of Paticipants." data-math="N" style="font-family: &quot;Open Sans&quot;, verdana, arial, sans-serif; font-size: 17px; fill: rgb(68, 68, 68); opacity: 1; font-weight: normal; white-space: pre;">CAARS Scores of Paticipants.</text></g><g class="g-xtitle"><text class="xtitle" x="735.5" y="614" text-anchor="middle" data-unformatted="Groups" data-math="N" style="font-family: &quot;Open Sans&quot;, verdana, arial, sans-serif; font-size: 14px; fill: rgb(68, 68, 68); opacity: 1; font-weight: normal; white-space: pre;">Groups</text></g><g class="g-ytitle"><text class="ytitle" transform="rotate(-90,42,331)" x="42" y="331" text-anchor="middle" data-unformatted="CAARS Scores" data-math="N" style="font-family: &quot;Open Sans&quot;, verdana, arial, sans-serif; font-size: 14px; fill: rgb(68, 68, 68); opacity: 1; font-weight: normal; white-space: pre;">CAARS Scores</text></g></g><g class="menulayer"></g><g class="zoomlayer"></g></svg><div class="modebar-container" style="position: absolute; top: 0px; right: 0px; width: 100%;"><div id="modebar-8be4a5" class="modebar modebar--hover ease-bg"><div class="modebar-group"><a rel="tooltip" class="modebar-btn" data-title="Download plot as a png" data-toggle="false" data-gravity="n"><svg viewBox="0 0 1000 1000" class="icon" height="1em" width="1em"><path d="m500 450c-83 0-150-67-150-150 0-83 67-150 150-150 83 0 150 67 150 150 0 83-67 150-150 150z m400 150h-120c-16 0-34 13-39 29l-31 93c-6 15-23 28-40 28h-340c-16 0-34-13-39-28l-31-94c-6-15-23-28-40-28h-120c-55 0-100-45-100-100v-450c0-55 45-100 100-100h800c55 0 100 45 100 100v450c0 55-45 100-100 100z m-400-550c-138 0-250 112-250 250 0 138 112 250 250 250 138 0 250-112 250-250 0-138-112-250-250-250z m365 380c-19 0-35 16-35 35 0 19 16 35 35 35 19 0 35-16 35-35 0-19-16-35-35-35z" transform="matrix(1 0 0 -1 0 850)"></path></svg></a></div><div class="modebar-group"><a rel="tooltip" class="modebar-btn active" data-title="Zoom" data-attr="dragmode" data-val="zoom" data-toggle="false" data-gravity="n"><svg viewBox="0 0 1000 1000" class="icon" height="1em" width="1em"><path d="m1000-25l-250 251c40 63 63 138 63 218 0 224-182 406-407 406-224 0-406-182-406-406s183-406 407-406c80 0 155 22 218 62l250-250 125 125z m-812 250l0 438 437 0 0-438-437 0z m62 375l313 0 0-312-313 0 0 312z" transform="matrix(1 0 0 -1 0 850)"></path></svg></a><a rel="tooltip" class="modebar-btn" data-title="Pan" data-attr="dragmode" data-val="pan" data-toggle="false" data-gravity="n"><svg viewBox="0 0 1000 1000" class="icon" height="1em" width="1em"><path d="m1000 350l-187 188 0-125-250 0 0 250 125 0-188 187-187-187 125 0 0-250-250 0 0 125-188-188 186-187 0 125 252 0 0-250-125 0 187-188 188 188-125 0 0 250 250 0 0-126 187 188z" transform="matrix(1 0 0 -1 0 850)"></path></svg></a></div><div class="modebar-group"><a rel="tooltip" class="modebar-btn" data-title="Zoom in" data-attr="zoom" data-val="in" data-toggle="false" data-gravity="n"><svg viewBox="0 0 875 1000" class="icon" height="1em" width="1em"><path d="m1 787l0-875 875 0 0 875-875 0z m687-500l-187 0 0-187-125 0 0 187-188 0 0 125 188 0 0 187 125 0 0-187 187 0 0-125z" transform="matrix(1 0 0 -1 0 850)"></path></svg></a><a rel="tooltip" class="modebar-btn" data-title="Zoom out" data-attr="zoom" data-val="out" data-toggle="false" data-gravity="n"><svg viewBox="0 0 875 1000" class="icon" height="1em" width="1em"><path d="m0 788l0-876 875 0 0 876-875 0z m688-500l-500 0 0 125 500 0 0-125z" transform="matrix(1 0 0 -1 0 850)"></path></svg></a><a rel="tooltip" class="modebar-btn" data-title="Autoscale" data-attr="zoom" data-val="auto" data-toggle="false" data-gravity="n"><svg viewBox="0 0 1000 1000" class="icon" height="1em" width="1em"><path d="m250 850l-187 0-63 0 0-62 0-188 63 0 0 188 187 0 0 62z m688 0l-188 0 0-62 188 0 0-188 62 0 0 188 0 62-62 0z m-875-938l0 188-63 0 0-188 0-62 63 0 187 0 0 62-187 0z m875 188l0-188-188 0 0-62 188 0 62 0 0 62 0 188-62 0z m-125 188l-1 0-93-94-156 156 156 156 92-93 2 0 0 250-250 0 0-2 93-92-156-156-156 156 94 92 0 2-250 0 0-250 0 0 93 93 157-156-157-156-93 94 0 0 0-250 250 0 0 0-94 93 156 157 156-157-93-93 0 0 250 0 0 250z" transform="matrix(1 0 0 -1 0 850)"></path></svg></a><a rel="tooltip" class="modebar-btn" data-title="Reset axes" data-attr="zoom" data-val="reset" data-toggle="false" data-gravity="n"><svg viewBox="0 0 928.6 1000" class="icon" height="1em" width="1em"><path d="m786 296v-267q0-15-11-26t-25-10h-214v214h-143v-214h-214q-15 0-25 10t-11 26v267q0 1 0 2t0 2l321 264 321-264q1-1 1-4z m124 39l-34-41q-5-5-12-6h-2q-7 0-12 3l-386 322-386-322q-7-4-13-4-7 2-12 7l-35 41q-4 5-3 13t6 12l401 334q18 15 42 15t43-15l136-114v109q0 8 5 13t13 5h107q8 0 13-5t5-13v-227l122-102q5-5 6-12t-4-13z" transform="matrix(1 0 0 -1 0 850)"></path></svg></a></div><div class="modebar-group"><a rel="tooltip" class="modebar-btn" data-title="Toggle Spike Lines" data-attr="_cartesianSpikesEnabled" data-val="on" data-toggle="false" data-gravity="n"><svg viewBox="0 0 1000 1000" class="icon" height="1em" width="1em"><path d="M512 409c0-57-46-104-103-104-57 0-104 47-104 104 0 57 47 103 104 103 57 0 103-46 103-103z m-327-39l92 0 0 92-92 0z m-185 0l92 0 0 92-92 0z m370-186l92 0 0 93-92 0z m0-184l92 0 0 92-92 0z" transform="matrix(1.5 0 0 -1.5 0 850)"></path></svg></a><a rel="tooltip" class="modebar-btn" data-title="Show closest data on hover" data-attr="hovermode" data-val="closest" data-toggle="false" data-gravity="ne"><svg viewBox="0 0 1500 1000" class="icon" height="1em" width="1em"><path d="m375 725l0 0-375-375 375-374 0-1 1125 0 0 750-1125 0z" transform="matrix(1 0 0 -1 0 850)"></path></svg></a><a rel="tooltip" class="modebar-btn active" data-title="Compare data on hover" data-attr="hovermode" data-val="x" data-toggle="false" data-gravity="ne"><svg viewBox="0 0 1125 1000" class="icon" height="1em" width="1em"><path d="m187 786l0 2-187-188 188-187 0 0 937 0 0 373-938 0z m0-499l0 1-187-188 188-188 0 0 937 0 0 376-938-1z" transform="matrix(1 0 0 -1 0 850)"></path></svg></a></div></div></div><svg class="main-svg" style="position: absolute" xmlns="http://www.w3.org/2000/svg" xmlns:xlink="http://www.w3.org/1999/xlink" width="1521.5264270613109" height="642"><g class="hoverlayer"></g></svg>