<svg class="main-svg" style="position: absolute" xmlns="http://www.w3.org/2000/svg" xmlns:xlink="http://www.w3.org/1999/xlink" width="904.225352112676" height="642" style="background: rgb(255, 255, 255);"><defs id="defs-7c55e0"><g class="clips"><clipPath id="clip7c55e0xyplot" class="plotclip"><rect width="714" height="442"></rect></clipPath><clipPath class="axesclip" id="clip7c55e0x"><rect x="90" y="0" width="714" height="642"></rect></clipPath><clipPath class="axesclip" id="clip7c55e0y"><rect x="0" y="100" width="904.225352112676" height="442"></rect></clipPath><clipPath class="axesclip" id="clip7c55e0xy"><rect x="90" y="100" width="714" height="442"></rect></clipPath></g><g class="gradients"></g></defs><g class="bglayer"></g><g class="draglayer cursor-move"><g class="xy"><rect class="nsewdrag drag" data-subplot="xy" x="90" y="100" width="714" height="442" style="fill: transparent; stroke-width: 0; pointer-events: all;"></rect><rect class="nwdrag drag cursor-nw-resize" data-subplot="xy" x="70" y="80" width="20" height="20" style="fill: transparent; stroke-width: 0; pointer-events: all;"></rect><rect class="nedrag drag cursor-ne-resize" data-subplot="xy" x="804" y="80" width="20" height="20" style="fill: transparent; stroke-width: 0; pointer-events: all;"></rect><rect class="swdrag drag cursor-sw-resize" data-subplot="xy" x="70" y="542" width="20" height="20" style="fill: transparent; stroke-width: 0; pointer-events: all;"></rect><rect class="sedrag drag cursor-se-resize" data-subplot="xy" x="804" y="542" width="20" height="20" style="fill: transparent; stroke-width: 0; pointer-events: all;"></rect><rect class="ewdrag drag cursor-ew-resize" data-subplot="xy" x="161.4" y="549.5" width="571.2" height="20" style="fill: transparent; stroke-width: 0; pointer-events: all;"></rect><rect class="wdrag drag cursor-w-resize" data-subplot="xy" x="90" y="549.5" width="71.4" height="20" style="fill: transparent; stroke-width: 0; pointer-events: all;"></rect><rect class="edrag drag cursor-e-resize" data-subplot="xy" x="732.6" y="549.5" width="71.4" height="20" style="fill: transparent; stroke-width: 0; pointer-events: all;"></rect><rect class="nsdrag drag cursor-ns-resize" data-subplot="xy" x="62.5" y="144.2" width="20" height="353.6" style="fill: transparent; stroke-width: 0; pointer-events: all;"></rect><rect class="sdrag drag cursor-s-resize" data-subplot="xy" x="62.5" y="497.8" width="20" height="44.2" style="fill: transparent; stroke-width: 0; pointer-events: all;"></rect><rect class="ndrag drag cursor-n-resize" data-subplot="xy" x="62.5" y="100" width="20" height="44.2" style="fill: transparent; stroke-width: 0; pointer-events: all;"></rect></g></g><g class="layer-below"><g class="imagelayer"></g><g class="shapelayer"></g></g><g class="cartesianlayer"><g class="subplot xy"><g class="layer-subplot"><g class="shapelayer"></g><g class="imagelayer"></g></g><g class="gridlayer"><g class="x"></g><g class="y"><path class="ygrid crisp" transform="translate(0,495.19)" d="M90,0h714" style="stroke: rgb(127, 127, 127); stroke-opacity: 0.32; stroke-width: 4px;"></path><path class="ygrid crisp" transform="translate(0,455.67)" d="M90,0h714" style="stroke: rgb(127, 127, 127); stroke-opacity: 0.32; stroke-width: 4px;"></path><path class="ygrid crisp" transform="translate(0,416.15)" d="M90,0h714" style="stroke: rgb(127, 127, 127); stroke-opacity: 0.32; stroke-width: 4px;"></path><path class="ygrid crisp" transform="translate(0,376.63)" d="M90,0h714" style="stroke: rgb(127, 127, 127); stroke-opacity: 0.32; stroke-width: 4px;"></path><path class="ygrid crisp" transform="translate(0,337.11)" d="M90,0h714" style="stroke: rgb(127, 127, 127); stroke-opacity: 0.32; stroke-width: 4px;"></path><path class="ygrid crisp" transform="translate(0,297.59000000000003)" d="M90,0h714" style="stroke: rgb(127, 127, 127); stroke-opacity: 0.32; stroke-width: 4px;"></path><path class="ygrid crisp" transform="translate(0,258.08000000000004)" d="M90,0h714" style="stroke: rgb(127, 127, 127); stroke-opacity: 0.32; stroke-width: 4px;"></path><path class="ygrid crisp" transform="translate(0,218.56)" d="M90,0h714" style="stroke: rgb(127, 127, 127); stroke-opacity: 0.32; stroke-width: 4px;"></path><path class="ygrid crisp" transform="translate(0,179.04000000000002)" d="M90,0h714" style="stroke: rgb(127, 127, 127); stroke-opacity: 0.32; stroke-width: 4px;"></path><path class="ygrid crisp" transform="translate(0,139.52)" d="M90,0h714" style="stroke: rgb(127, 127, 127); stroke-opacity: 0.32; stroke-width: 4px;"></path></g></g><g class="zerolinelayer"><path class="yzl zl crisp" transform="translate(0,534.71)" d="M90,0h714" style="stroke: rgb(0, 0, 0); stroke-opacity: 1; stroke-width: 1px;"></path></g><path class="xlines-below"></path><path class="ylines-below"></path><g class="overlines-below"></g><g class="xaxislayer-below"></g><g class="yaxislayer-below"></g><g class="overaxes-below"></g><g class="plot" transform="translate(90,100)" clip-path="url('#clip7c55e0xyplot')"><g class="boxlayer mlayer"><g class="trace boxes" style="opacity: 1;"><path class="box" d="M18.21,141.2H53.19M18.21,214.05H53.19V65.85H18.21ZM35.7,214.05V235.86M35.7,65.85V22.46M26.95,235.86H44.45M26.95,22.46H44.45" style="vector-effect: non-scaling-stroke; stroke-width: 3px; stroke: rgb(44, 160, 44); stroke-opacity: 1; fill: rgb(7, 180, 7); fill-opacity: 0.5;"></path><path class="box" d="M89.61,168.1H124.59M89.61,209.13H124.59V95.94H89.61ZM107.1,209.13V230.47M107.1,95.94V53.27M98.35,230.47H115.85M98.35,53.27H115.85" style="vector-effect: non-scaling-stroke; stroke-width: 3px; stroke: rgb(44, 160, 44); stroke-opacity: 1; fill: rgb(7, 180, 7); fill-opacity: 0.5;"></path><path class="box" d="M161.01,205.27H195.99M161.01,233.55H195.99V134.68H161.01ZM178.5,233.55V250.24M178.5,134.68V96.2M169.75,250.24H187.25M169.75,96.2H187.25" style="vector-effect: non-scaling-stroke; stroke-width: 3px; stroke: rgb(44, 160, 44); stroke-opacity: 1; fill: rgb(7, 180, 7); fill-opacity: 0.5;"></path><path class="box" d="M232.41,249.27H267.39M232.41,278.84H267.39V178.62H232.41ZM249.9,278.84V293.17M249.9,178.62V153.48M241.15,293.17H258.65M241.15,153.48H258.65" style="vector-effect: non-scaling-stroke; stroke-width: 3px; stroke: rgb(44, 160, 44); stroke-opacity: 1; fill: rgb(7, 180, 7); fill-opacity: 0.5;"></path><path class="box" d="M303.81,266.74H338.79M303.81,288.81H338.79V200.82H303.81ZM321.3,288.81V309.61M321.3,200.82V176.64M312.55,309.61H330.05M312.55,176.64H330.05" style="vector-effect: non-scaling-stroke; stroke-width: 3px; stroke: rgb(44, 160, 44); stroke-opacity: 1; fill: rgb(7, 180, 7); fill-opacity: 0.5;"></path><path class="box" d="M375.21,314.11H410.19M375.21,319.46H410.19V258.25H375.21ZM392.7,319.46V325.34M392.7,258.25V221.05M383.95,325.34H401.45M383.95,221.05H401.45" style="vector-effect: non-scaling-stroke; stroke-width: 3px; stroke: rgb(44, 160, 44); stroke-opacity: 1; fill: rgb(7, 180, 7); fill-opacity: 0.5;"></path><path class="box" d="M446.61,342.56H481.59M446.61,367.15H481.59V299.5H446.61ZM464.1,367.15V374.98M464.1,299.5V247.66M455.35,374.98H472.85M455.35,247.66H472.85" style="vector-effect: non-scaling-stroke; stroke-width: 3px; stroke: rgb(44, 160, 44); stroke-opacity: 1; fill: rgb(7, 180, 7); fill-opacity: 0.5;"></path><path class="box" d="M518.01,374.4H552.99M518.01,403.5H552.99V343.6H518.01ZM535.5,403.5V419.92M535.5,343.6V317.09M526.75,419.92H544.25M526.75,317.09H544.25" style="vector-effect: non-scaling-stroke; stroke-width: 3px; stroke: rgb(44, 160, 44); stroke-opacity: 1; fill: rgb(7, 180, 7); fill-opacity: 0.5;"></path><path class="box" d="M589.41,353H624.39M589.41,386.16H624.39V314.6H589.41ZM606.9,386.16V399.95M606.9,314.6V281.45M598.15,399.95H615.65M598.15,281.45H615.65" style="vector-effect: non-scaling-stroke; stroke-width: 3px; stroke: rgb(44, 160, 44); stroke-opacity: 1; fill: rgb(7, 180, 7); fill-opacity: 0.5;"></path><path class="box" d="M660.81,336.86H695.79M660.81,357.85H695.79V269.46H660.81ZM678.3,357.85V370.13M678.3,269.46V242.9M669.55,370.13H687.05M669.55,242.9H687.05" style="vector-effect: non-scaling-stroke; stroke-width: 3px; stroke: rgb(44, 160, 44); stroke-opacity: 1; fill: rgb(7, 180, 7); fill-opacity: 0.5;"></path><g class="points"></g><g class="points"></g><g class="points"></g><g class="points"></g><g class="points"></g><g class="points"></g><g class="points"></g><g class="points"></g><g class="points"></g><g class="points"></g><path class="mean" d="M18.21,137.32H53.19" style="fill: none; vector-effect: non-scaling-stroke; stroke-width: 3; stroke-dasharray: 6px, 3px; stroke: rgb(44, 160, 44); stroke-opacity: 1;"></path><path class="mean" d="M89.61,152.8H124.59" style="fill: none; vector-effect: non-scaling-stroke; stroke-width: 3; stroke-dasharray: 6px, 3px; stroke: rgb(44, 160, 44); stroke-opacity: 1;"></path><path class="mean" d="M161.01,185.44H195.99" style="fill: none; vector-effect: non-scaling-stroke; stroke-width: 3; stroke-dasharray: 6px, 3px; stroke: rgb(44, 160, 44); stroke-opacity: 1;"></path><path class="mean" d="M232.41,231.4H267.39" style="fill: none; vector-effect: non-scaling-stroke; stroke-width: 3; stroke-dasharray: 6px, 3px; stroke: rgb(44, 160, 44); stroke-opacity: 1;"></path><path class="mean" d="M303.81,248.75H338.79" style="fill: none; vector-effect: non-scaling-stroke; stroke-width: 3; stroke-dasharray: 6px, 3px; stroke: rgb(44, 160, 44); stroke-opacity: 1;"></path><path class="mean" d="M375.21,289.73H410.19" style="fill: none; vector-effect: non-scaling-stroke; stroke-width: 3; stroke-dasharray: 6px, 3px; stroke: rgb(44, 160, 44); stroke-opacity: 1;"></path><path class="mean" d="M446.61,329.3H481.59" style="fill: none; vector-effect: non-scaling-stroke; stroke-width: 3; stroke-dasharray: 6px, 3px; stroke: rgb(44, 160, 44); stroke-opacity: 1;"></path><path class="mean" d="M518.01,372.37H552.99" style="fill: none; vector-effect: non-scaling-stroke; stroke-width: 3; stroke-dasharray: 6px, 3px; stroke: rgb(44, 160, 44); stroke-opacity: 1;"></path><path class="mean" d="M589.41,348.32H624.39" style="fill: none; vector-effect: non-scaling-stroke; stroke-width: 3; stroke-dasharray: 6px, 3px; stroke: rgb(44, 160, 44); stroke-opacity: 1;"></path><path class="mean" d="M660.81,316.39H695.79" style="fill: none; vector-effect: non-scaling-stroke; stroke-width: 3; stroke-dasharray: 6px, 3px; stroke: rgb(44, 160, 44); stroke-opacity: 1;"></path></g></g></g><g class="overplot"></g><path class="xlines-above crisp" d="M0,0" style="fill: none;"></path><path class="ylines-above crisp" d="M0,0" style="fill: none;"></path><g class="overlines-above"></g><g class="xaxislayer-above"><g class="xtick"><text text-anchor="middle" x="0" y="583" data-unformatted="1" data-math="N" transform="translate(125.7,0)" style="font-family: Arial; font-size: 33px; fill: rgb(0, 0, 0); fill-opacity: 1; white-space: pre;">1</text></g><g class="xtick"><text text-anchor="middle" x="0" y="583" data-unformatted="2" data-math="N" transform="translate(197.1,0)" style="font-family: Arial; font-size: 33px; fill: rgb(0, 0, 0); fill-opacity: 1; white-space: pre;">2</text></g><g class="xtick"><text text-anchor="middle" x="0" y="583" data-unformatted="3" data-math="N" transform="translate(268.5,0)" style="font-family: Arial; font-size: 33px; fill: rgb(0, 0, 0); fill-opacity: 1; white-space: pre;">3</text></g><g class="xtick"><text text-anchor="middle" x="0" y="583" data-unformatted="4" data-math="N" transform="translate(339.9,0)" style="font-family: Arial; font-size: 33px; fill: rgb(0, 0, 0); fill-opacity: 1; white-space: pre;">4</text></g><g class="xtick"><text text-anchor="middle" x="0" y="583" data-unformatted="5" data-math="N" transform="translate(411.3,0)" style="font-family: Arial; font-size: 33px; fill: rgb(0, 0, 0); fill-opacity: 1; white-space: pre;">5</text></g><g class="xtick"><text text-anchor="middle" x="0" y="583" data-unformatted="6" data-math="N" transform="translate(482.7,0)" style="font-family: Arial; font-size: 33px; fill: rgb(0, 0, 0); fill-opacity: 1; white-space: pre;">6</text></g><g class="xtick"><text text-anchor="middle" x="0" y="583" data-unformatted="7" data-math="N" transform="translate(554.1,0)" style="font-family: Arial; font-size: 33px; fill: rgb(0, 0, 0); fill-opacity: 1; white-space: pre;">7</text></g><g class="xtick"><text text-anchor="middle" x="0" y="583" data-unformatted="8" data-math="N" transform="translate(625.5,0)" style="font-family: Arial; font-size: 33px; fill: rgb(0, 0, 0); fill-opacity: 1; white-space: pre;">8</text></g><g class="xtick"><text text-anchor="middle" x="0" y="583" data-unformatted="9" data-math="N" transform="translate(696.9,0)" style="font-family: Arial; font-size: 33px; fill: rgb(0, 0, 0); fill-opacity: 1; white-space: pre;">9</text></g><g class="xtick"><text text-anchor="middle" x="0" y="583" data-unformatted="10" data-math="N" transform="translate(768.3,0)" style="font-family: Arial; font-size: 33px; fill: rgb(0, 0, 0); fill-opacity: 1; white-space: pre;">10</text></g></g><g class="yaxislayer-above"><g class="ytick"><text text-anchor="end" x="82" y="11.549999999999999" data-unformatted="0€" data-math="N" transform="translate(0,534.71)" style="font-family: Arial; font-size: 33px; fill: rgb(0, 0, 0); fill-opacity: 1; white-space: pre;">0€</text></g><g class="ytick"><text text-anchor="end" x="82" y="11.549999999999999" data-unformatted="5k€" data-math="N" transform="translate(0,495.19)" style="font-family: Arial; font-size: 33px; fill: rgb(0, 0, 0); fill-opacity: 1; white-space: pre;">5k€</text></g><g class="ytick"><text text-anchor="end" x="82" y="11.549999999999999" data-unformatted="10k€" data-math="N" transform="translate(0,455.67)" style="font-family: Arial; font-size: 33px; fill: rgb(0, 0, 0); fill-opacity: 1; white-space: pre;">10k€</text></g><g class="ytick"><text text-anchor="end" x="82" y="11.549999999999999" data-unformatted="15k€" data-math="N" transform="translate(0,416.15)" style="font-family: Arial; font-size: 33px; fill: rgb(0, 0, 0); fill-opacity: 1; white-space: pre;">15k€</text></g><g class="ytick"><text text-anchor="end" x="82" y="11.549999999999999" data-unformatted="20k€" data-math="N" transform="translate(0,376.63)" style="font-family: Arial; font-size: 33px; fill: rgb(0, 0, 0); fill-opacity: 1; white-space: pre;">20k€</text></g><g class="ytick"><text text-anchor="end" x="82" y="11.549999999999999" data-unformatted="25k€" data-math="N" transform="translate(0,337.11)" style="font-family: Arial; font-size: 33px; fill: rgb(0, 0, 0); fill-opacity: 1; white-space: pre;">25k€</text></g><g class="ytick"><text text-anchor="end" x="82" y="11.549999999999999" data-unformatted="30k€" data-math="N" transform="translate(0,297.59000000000003)" style="font-family: Arial; font-size: 33px; fill: rgb(0, 0, 0); fill-opacity: 1; white-space: pre;">30k€</text></g><g class="ytick"><text text-anchor="end" x="82" y="11.549999999999999" data-unformatted="35k€" data-math="N" transform="translate(0,258.08000000000004)" style="font-family: Arial; font-size: 33px; fill: rgb(0, 0, 0); fill-opacity: 1; white-space: pre;">35k€</text></g><g class="ytick"><text text-anchor="end" x="82" y="11.549999999999999" data-unformatted="40k€" data-math="N" transform="translate(0,218.56)" style="font-family: Arial; font-size: 33px; fill: rgb(0, 0, 0); fill-opacity: 1; white-space: pre;">40k€</text></g><g class="ytick"><text text-anchor="end" x="82" y="11.549999999999999" data-unformatted="45k€" data-math="N" transform="translate(0,179.04000000000002)" style="font-family: Arial; font-size: 33px; fill: rgb(0, 0, 0); fill-opacity: 1; white-space: pre;">45k€</text></g><g class="ytick"><text text-anchor="end" x="82" y="11.549999999999999" data-unformatted="50k€" data-math="N" transform="translate(0,139.52)" style="font-family: Arial; font-size: 33px; fill: rgb(0, 0, 0); fill-opacity: 1; white-space: pre;">50k€</text></g><g class="ytick"><text text-anchor="end" x="82" y="11.549999999999999" data-unformatted="55k€" data-math="N" transform="translate(0,100)" style="font-family: Arial; font-size: 33px; fill: rgb(0, 0, 0); fill-opacity: 1; white-space: pre;">55k€</text></g></g><g class="overaxes-above"></g></g></g><g class="polarlayer"></g><g class="ternarylayer"></g><g class="geolayer"></g><g class="funnelarealayer"></g><g class="pielayer"></g><g class="treemaplayer"></g><g class="sunburstlayer"></g><g class="glimages"></g></svg><div class="gl-container"></div><svg class="main-svg" style="position: absolute" xmlns="http://www.w3.org/2000/svg" xmlns:xlink="http://www.w3.org/1999/xlink" width="904.225352112676" height="642"><defs id="topdefs-7c55e0"><g class="clips"></g></defs><g class="indicatorlayer"></g><g class="layer-above"><g class="imagelayer"></g><g class="shapelayer"></g></g><g class="infolayer"><g class="g-gtitle"></g><g class="g-xtitle"></g><g class="g-ytitle"></g></g><g class="menulayer"></g><g class="zoomlayer"></g></svg><div class="modebar-container" style="position: absolute; top: 0px; right: 0px; width: 100%;"><div id="modebar-7c55e0" class="modebar modebar--hover ease-bg"><div class="modebar-group"><a rel="tooltip" class="modebar-btn" data-title="Download plot as a png" data-toggle="false" data-gravity="n"><svg viewBox="0 0 1000 1000" class="icon" height="1em" width="1em"><path d="m500 450c-83 0-150-67-150-150 0-83 67-150 150-150 83 0 150 67 150 150 0 83-67 150-150 150z m400 150h-120c-16 0-34 13-39 29l-31 93c-6 15-23 28-40 28h-340c-16 0-34-13-39-28l-31-94c-6-15-23-28-40-28h-120c-55 0-100-45-100-100v-450c0-55 45-100 100-100h800c55 0 100 45 100 100v450c0 55-45 100-100 100z m-400-550c-138 0-250 112-250 250 0 138 112 250 250 250 138 0 250-112 250-250 0-138-112-250-250-250z m365 380c-19 0-35 16-35 35 0 19 16 35 35 35 19 0 35-16 35-35 0-19-16-35-35-35z" transform="matrix(1 0 0 -1 0 850)"></path></svg></a></div><div class="modebar-group"><a rel="tooltip" class="modebar-btn" data-title="Zoom" data-attr="dragmode" data-val="zoom" data-toggle="false" data-gravity="n"><svg viewBox="0 0 1000 1000" class="icon" height="1em" width="1em"><path d="m1000-25l-250 251c40 63 63 138 63 218 0 224-182 406-407 406-224 0-406-182-406-406s183-406 407-406c80 0 155 22 218 62l250-250 125 125z m-812 250l0 438 437 0 0-438-437 0z m62 375l313 0 0-312-313 0 0 312z" transform="matrix(1 0 0 -1 0 850)"></path></svg></a><a rel="tooltip" class="modebar-btn active" data-title="Pan" data-attr="dragmode" data-val="pan" data-toggle="false" data-gravity="n"><svg viewBox="0 0 1000 1000" class="icon" height="1em" width="1em"><path d="m1000 350l-187 188 0-125-250 0 0 250 125 0-188 187-187-187 125 0 0-250-250 0 0 125-188-188 186-187 0 125 252 0 0-250-125 0 187-188 188 188-125 0 0 250 250 0 0-126 187 188z" transform="matrix(1 0 0 -1 0 850)"></path></svg></a></div><div class="modebar-group"><a rel="tooltip" class="modebar-btn" data-title="Zoom in" data-attr="zoom" data-val="in" data-toggle="false" data-gravity="n"><svg viewBox="0 0 875 1000" class="icon" height="1em" width="1em"><path d="m1 787l0-875 875 0 0 875-875 0z m687-500l-187 0 0-187-125 0 0 187-188 0 0 125 188 0 0 187 125 0 0-187 187 0 0-125z" transform="matrix(1 0 0 -1 0 850)"></path></svg></a><a rel="tooltip" class="modebar-btn" data-title="Zoom out" data-attr="zoom" data-val="out" data-toggle="false" data-gravity="n"><svg viewBox="0 0 875 1000" class="icon" height="1em" width="1em"><path d="m0 788l0-876 875 0 0 876-875 0z m688-500l-500 0 0 125 500 0 0-125z" transform="matrix(1 0 0 -1 0 850)"></path></svg></a><a rel="tooltip" class="modebar-btn" data-title="Autoscale" data-attr="zoom" data-val="auto" data-toggle="false" data-gravity="n"><svg viewBox="0 0 1000 1000" class="icon" height="1em" width="1em"><path d="m250 850l-187 0-63 0 0-62 0-188 63 0 0 188 187 0 0 62z m688 0l-188 0 0-62 188 0 0-188 62 0 0 188 0 62-62 0z m-875-938l0 188-63 0 0-188 0-62 63 0 187 0 0 62-187 0z m875 188l0-188-188 0 0-62 188 0 62 0 0 62 0 188-62 0z m-125 188l-1 0-93-94-156 156 156 156 92-93 2 0 0 250-250 0 0-2 93-92-156-156-156 156 94 92 0 2-250 0 0-250 0 0 93 93 157-156-157-156-93 94 0 0 0-250 250 0 0 0-94 93 156 157 156-157-93-93 0 0 250 0 0 250z" transform="matrix(1 0 0 -1 0 850)"></path></svg></a><a rel="tooltip" class="modebar-btn" data-title="Reset axes" data-attr="zoom" data-val="reset" data-toggle="false" data-gravity="n"><svg viewBox="0 0 928.6 1000" class="icon" height="1em" width="1em"><path d="m786 296v-267q0-15-11-26t-25-10h-214v214h-143v-214h-214q-15 0-25 10t-11 26v267q0 1 0 2t0 2l321 264 321-264q1-1 1-4z m124 39l-34-41q-5-5-12-6h-2q-7 0-12 3l-386 322-386-322q-7-4-13-4-7 2-12 7l-35 41q-4 5-3 13t6 12l401 334q18 15 42 15t43-15l136-114v109q0 8 5 13t13 5h107q8 0 13-5t5-13v-227l122-102q5-5 6-12t-4-13z" transform="matrix(1 0 0 -1 0 850)"></path></svg></a></div><div class="modebar-group"><a rel="tooltip" class="modebar-btn" data-title="Toggle Spike Lines" data-attr="_cartesianSpikesEnabled" data-val="on" data-toggle="false" data-gravity="n"><svg viewBox="0 0 1000 1000" class="icon" height="1em" width="1em"><path d="M512 409c0-57-46-104-103-104-57 0-104 47-104 104 0 57 47 103 104 103 57 0 103-46 103-103z m-327-39l92 0 0 92-92 0z m-185 0l92 0 0 92-92 0z m370-186l92 0 0 93-92 0z m0-184l92 0 0 92-92 0z" transform="matrix(1.5 0 0 -1.5 0 850)"></path></svg></a><a rel="tooltip" class="modebar-btn" data-title="Show closest data on hover" data-attr="hovermode" data-val="closest" data-toggle="false" data-gravity="ne"><svg viewBox="0 0 1500 1000" class="icon" height="1em" width="1em"><path d="m375 725l0 0-375-375 375-374 0-1 1125 0 0 750-1125 0z" transform="matrix(1 0 0 -1 0 850)"></path></svg></a><a rel="tooltip" class="modebar-btn" data-title="Compare data on hover" data-attr="hovermode" data-val="x" data-toggle="false" data-gravity="ne"><svg viewBox="0 0 1125 1000" class="icon" height="1em" width="1em"><path d="m187 786l0 2-187-188 188-187 0 0 937 0 0 373-938 0z m0-499l0 1-187-188 188-188 0 0 937 0 0 376-938-1z" transform="matrix(1 0 0 -1 0 850)"></path></svg></a></div></div></div><svg class="main-svg" style="position: absolute" xmlns="http://www.w3.org/2000/svg" xmlns:xlink="http://www.w3.org/1999/xlink" width="904.225352112676" height="642"><g class="hoverlayer"></g></svg>