<svg class="main-svg" style="position: absolute" xmlns="http://www.w3.org/2000/svg" xmlns:xlink="http://www.w3.org/1999/xlink" width="1377" height="624" style="background: rgb(255, 255, 255);"><defs id="defs-1da48b"><g class="clips"><clipPath id="clip1da48bxyplot" class="plotclip"><rect width="1197" height="384"></rect></clipPath><clipPath class="axesclip" id="clip1da48bx"><rect x="80" y="0" width="1197" height="624"></rect></clipPath><clipPath class="axesclip" id="clip1da48by"><rect x="0" y="100" width="1377" height="384"></rect></clipPath><clipPath class="axesclip" id="clip1da48bxy"><rect x="80" y="100" width="1197" height="384"></rect></clipPath></g><g class="gradients"></g></defs><g class="bglayer"></g><g class="draglayer cursor-crosshair"><g class="xy"><rect class="nsewdrag drag" data-subplot="xy" x="80" y="100" width="1197" height="384" style="fill: transparent; stroke-width: 0; pointer-events: all;"></rect><rect class="nwdrag drag cursor-nw-resize" data-subplot="xy" x="60" y="80" width="20" height="20" style="fill: transparent; stroke-width: 0; pointer-events: all;"></rect><rect class="nedrag drag cursor-ne-resize" data-subplot="xy" x="1277" y="80" width="20" height="20" style="fill: transparent; stroke-width: 0; pointer-events: all;"></rect><rect class="swdrag drag cursor-sw-resize" data-subplot="xy" x="60" y="484" width="20" height="20" style="fill: transparent; stroke-width: 0; pointer-events: all;"></rect><rect class="sedrag drag cursor-se-resize" data-subplot="xy" x="1277" y="484" width="20" height="20" style="fill: transparent; stroke-width: 0; pointer-events: all;"></rect><rect class="ewdrag drag cursor-ew-resize" data-subplot="xy" x="199.7" y="484.5" width="957.6" height="20" style="fill: transparent; stroke-width: 0; pointer-events: all;"></rect><rect class="wdrag drag cursor-w-resize" data-subplot="xy" x="80" y="484.5" width="119.7" height="20" style="fill: transparent; stroke-width: 0; pointer-events: all;"></rect><rect class="edrag drag cursor-e-resize" data-subplot="xy" x="1157.3" y="484.5" width="119.7" height="20" style="fill: transparent; stroke-width: 0; pointer-events: all;"></rect><rect class="nsdrag drag cursor-ns-resize" data-subplot="xy" x="59.5" y="138.4" width="20" height="307.20000000000005" style="fill: transparent; stroke-width: 0; pointer-events: all;"></rect><rect class="sdrag drag cursor-s-resize" data-subplot="xy" x="59.5" y="445.6" width="20" height="38.400000000000006" style="fill: transparent; stroke-width: 0; pointer-events: all;"></rect><rect class="ndrag drag cursor-n-resize" data-subplot="xy" x="59.5" y="100" width="20" height="38.400000000000006" style="fill: transparent; stroke-width: 0; pointer-events: all;"></rect></g></g><g class="layer-below"><g class="imagelayer"></g><g class="shapelayer"></g></g><g class="cartesianlayer"><g class="subplot xy"><g class="layer-subplot"><g class="shapelayer"></g><g class="imagelayer"></g></g><g class="gridlayer"><g class="x"></g><g class="y"><path class="ygrid crisp" transform="translate(0,437.17)" d="M80,0h1197" style="stroke: rgb(238, 238, 238); stroke-opacity: 1; stroke-width: 1px;"></path><path class="ygrid crisp" transform="translate(0,390.34)" d="M80,0h1197" style="stroke: rgb(238, 238, 238); stroke-opacity: 1; stroke-width: 1px;"></path><path class="ygrid crisp" transform="translate(0,343.51)" d="M80,0h1197" style="stroke: rgb(238, 238, 238); stroke-opacity: 1; stroke-width: 1px;"></path><path class="ygrid crisp" transform="translate(0,296.68)" d="M80,0h1197" style="stroke: rgb(238, 238, 238); stroke-opacity: 1; stroke-width: 1px;"></path><path class="ygrid crisp" transform="translate(0,249.85)" d="M80,0h1197" style="stroke: rgb(238, 238, 238); stroke-opacity: 1; stroke-width: 1px;"></path><path class="ygrid crisp" transform="translate(0,203.01999999999998)" d="M80,0h1197" style="stroke: rgb(238, 238, 238); stroke-opacity: 1; stroke-width: 1px;"></path><path class="ygrid crisp" transform="translate(0,156.2)" d="M80,0h1197" style="stroke: rgb(238, 238, 238); stroke-opacity: 1; stroke-width: 1px;"></path><path class="ygrid crisp" transform="translate(0,109.37)" d="M80,0h1197" style="stroke: rgb(238, 238, 238); stroke-opacity: 1; stroke-width: 1px;"></path></g></g><g class="zerolinelayer"></g><path class="xlines-below"></path><path class="ylines-below"></path><g class="overlines-below"></g><g class="xaxislayer-below"></g><g class="yaxislayer-below"></g><g class="overaxes-below"></g><g class="plot" transform="translate(80,100)" clip-path="url('#clip1da48bxyplot')"><g class="boxlayer mlayer"><g class="trace boxes" style="opacity: 1;"><path class="box" d="M19.21,103.02H25.08M19.21,103.02H25.08V103.02H19.21ZM22.14,103.02V103.02M22.14,103.02V103.02M20.68,103.02H23.61M20.68,103.02H23.61" style="vector-effect: non-scaling-stroke; stroke-width: 2px; stroke: rgb(31, 119, 180); stroke-opacity: 1; fill: rgb(31, 119, 180); fill-opacity: 0.5;"></path><g class="points"><path class="point" transform="translate(22.14,9.37)" d="M3,0A3,3 0 1,1 0,-3A3,3 0 0,1 3,0Z" style="opacity: 1; stroke-width: 0px; fill: rgb(31, 119, 180); fill-opacity: 1;"></path></g><path class="mean" d="M19.21,87.41H25.08m0,0L22.14,122.32L19.21,87.41L22.14,52.51Z" style="fill: none; vector-effect: non-scaling-stroke; stroke-width: 2; stroke-dasharray: 4px, 2px; stroke: rgb(31, 119, 180); stroke-opacity: 1;"></path></g><g class="trace boxes" style="opacity: 1;"><path class="box" d="M147.29,149.85H153.16M147.29,196.68H153.16V103.02H147.29ZM150.22,196.68V196.68M150.22,103.02V103.02M148.76,196.68H151.69M148.76,103.02H151.69" style="vector-effect: non-scaling-stroke; stroke-width: 2px; stroke: rgb(255, 127, 14); stroke-opacity: 1; fill: rgb(255, 127, 14); fill-opacity: 0.5;"></path><g class="points"></g><path class="mean" d="M147.29,149.85H153.16m0,0L150.22,196.68L147.29,149.85L150.22,103.02Z" style="fill: none; vector-effect: non-scaling-stroke; stroke-width: 2; stroke-dasharray: 4px, 2px; stroke: rgb(255, 127, 14); stroke-opacity: 1;"></path></g><g class="trace boxes" style="opacity: 1;"><path class="box" d="M275.37,196.68H281.24M275.37,196.68H281.24V196.68H275.37ZM278.3,196.68V196.68M278.3,196.68V196.68M276.84,196.68H279.77M276.84,196.68H279.77" style="vector-effect: non-scaling-stroke; stroke-width: 2px; stroke: rgb(44, 160, 44); stroke-opacity: 1; fill: rgb(44, 160, 44); fill-opacity: 0.5;"></path><g class="points"></g><path class="mean" d="M275.37,196.68H281.24m0,0L278.3,196.68L275.37,196.68L278.3,196.68Z" style="fill: none; vector-effect: non-scaling-stroke; stroke-width: 2; stroke-dasharray: 4px, 2px; stroke: rgb(44, 160, 44); stroke-opacity: 1;"></path></g><g class="trace boxes" style="opacity: 1;"><path class="box" d="M403.45,104.02H409.31M403.45,196.68H409.31V103.02H403.45ZM406.38,196.68V196.68M406.38,103.02V103.02M404.92,196.68H407.85M404.92,103.02H407.85" style="vector-effect: non-scaling-stroke; stroke-width: 2px; stroke: rgb(214, 39, 40); stroke-opacity: 1; fill: rgb(214, 39, 40); fill-opacity: 0.5;"></path><g class="points"></g><path class="mean" d="M403.45,134.24H409.31m0,0L406.38,178.39L403.45,134.24L406.38,90.09Z" style="fill: none; vector-effect: non-scaling-stroke; stroke-width: 2; stroke-dasharray: 4px, 2px; stroke: rgb(214, 39, 40); stroke-opacity: 1;"></path></g><g class="trace boxes" style="opacity: 1;"><path class="box" d="M531.53,10.37H537.39M531.53,196.68H537.39V9.37H531.53ZM534.46,196.68V196.68M534.46,9.37V9.37M532.99,196.68H535.93M532.99,9.37H535.93" style="vector-effect: non-scaling-stroke; stroke-width: 2px; stroke: rgb(148, 103, 189); stroke-opacity: 1; fill: rgb(148, 103, 189); fill-opacity: 0.5;"></path><g class="points"></g><path class="mean" d="M531.53,84.29H537.39m0,0L534.46,176.06L531.53,84.29L534.46,-7.47Z" style="fill: none; vector-effect: non-scaling-stroke; stroke-width: 2; stroke-dasharray: 4px, 2px; stroke: rgb(148, 103, 189); stroke-opacity: 1;"></path></g><g class="trace boxes" style="opacity: 1;"><path class="box" d="M659.61,102.02H665.47M659.61,103.02H665.47V9.37H659.61ZM662.54,103.02V103.02M662.54,9.37V9.37M661.07,103.02H664.01M661.07,9.37H664.01" style="vector-effect: non-scaling-stroke; stroke-width: 2px; stroke: rgb(140, 86, 75); stroke-opacity: 1; fill: rgb(140, 86, 75); fill-opacity: 0.5;"></path><g class="points"></g><path class="mean" d="M659.61,71.8H665.47m0,0L662.54,115.96L659.61,71.8L662.54,27.65Z" style="fill: none; vector-effect: non-scaling-stroke; stroke-width: 2; stroke-dasharray: 4px, 2px; stroke: rgb(140, 86, 75); stroke-opacity: 1;"></path></g><g class="trace boxes" style="opacity: 1;"><path class="box" d="M787.69,195.68H793.55M787.69,196.68H793.55V79.61H787.69ZM790.62,196.68V196.68M790.62,79.61V9.37M789.15,196.68H792.08M789.15,9.37H792.08" style="vector-effect: non-scaling-stroke; stroke-width: 2px; stroke: rgb(227, 119, 194); stroke-opacity: 1; fill: rgb(227, 119, 194); fill-opacity: 0.5;"></path><g class="points"></g><path class="mean" d="M787.69,140.49H793.55m0,0L790.62,215.41L787.69,140.49L790.62,65.56Z" style="fill: none; vector-effect: non-scaling-stroke; stroke-width: 2; stroke-dasharray: 4px, 2px; stroke: rgb(227, 119, 194); stroke-opacity: 1;"></path></g><g class="trace boxes" style="opacity: 1;"><path class="box" d="M915.76,103.02H921.63M915.76,126.44H921.63V9.37H915.76ZM918.7,126.44V196.68M918.7,9.37V9.37M917.23,196.68H920.16M917.23,9.37H920.16" style="vector-effect: non-scaling-stroke; stroke-width: 2px; stroke: rgb(127, 127, 127); stroke-opacity: 1; fill: rgb(127, 127, 127); fill-opacity: 0.5;"></path><g class="points"></g><path class="mean" d="M915.76,84.29H921.63m0,0L918.7,154.38L915.76,84.29L918.7,14.21Z" style="fill: none; vector-effect: non-scaling-stroke; stroke-width: 2; stroke-dasharray: 4px, 2px; stroke: rgb(127, 127, 127); stroke-opacity: 1;"></path></g><g class="trace boxes" style="opacity: 1;"><path class="box" d="M1043.84,196.68H1049.71M1043.84,196.68H1049.71V196.68H1043.84ZM1046.78,196.68V196.68M1046.78,196.68V196.68M1045.31,196.68H1048.24M1045.31,196.68H1048.24" style="vector-effect: non-scaling-stroke; stroke-width: 2px; stroke: rgb(188, 189, 34); stroke-opacity: 1; fill: rgb(188, 189, 34); fill-opacity: 0.5;"></path><g class="points"></g><path class="mean" d="M1043.84,196.68H1049.71m0,0L1046.78,196.68L1043.84,196.68L1046.78,196.68Z" style="fill: none; vector-effect: non-scaling-stroke; stroke-width: 2; stroke-dasharray: 4px, 2px; stroke: rgb(188, 189, 34); stroke-opacity: 1;"></path></g><g class="trace boxes" style="opacity: 1;"><path class="box" d="M1171.92,103.02H1177.79M1171.92,103.02H1177.79V103.02H1171.92ZM1174.86,103.02V103.02M1174.86,103.02V103.02M1173.39,103.02H1176.32M1173.39,103.02H1176.32" style="vector-effect: non-scaling-stroke; stroke-width: 2px; stroke: rgb(23, 190, 207); stroke-opacity: 1; fill: rgb(23, 190, 207); fill-opacity: 0.5;"></path><g class="points"><path class="point" transform="translate(1174.86,196.68)" d="M3,0A3,3 0 1,1 0,-3A3,3 0 0,1 3,0Z" style="opacity: 1; stroke-width: 0px; fill: rgb(23, 190, 207); fill-opacity: 1;"></path></g><path class="mean" d="M1171.92,118.63H1177.79m0,0L1174.86,153.54L1171.92,118.63L1174.86,83.73Z" style="fill: none; vector-effect: non-scaling-stroke; stroke-width: 2; stroke-dasharray: 4px, 2px; stroke: rgb(23, 190, 207); stroke-opacity: 1;"></path></g></g></g><g class="overplot"></g><path class="xlines-above crisp" d="M79,484.5H1277" style="fill: none; stroke-width: 1px; stroke: rgb(204, 204, 204); stroke-opacity: 1;"></path><path class="ylines-above crisp" d="M79.5,100V484" style="fill: none; stroke-width: 1px; stroke: rgb(204, 204, 204); stroke-opacity: 1;"></path><g class="overlines-above"></g><g class="xaxislayer-above"><g class="xtick"><text text-anchor="start" x="0" y="504.2" data-unformatted="Sustainable Transport" data-math="N" transform="translate(139.85,0) rotate(30,0,496.2)" style="font-family: &quot;Open Sans&quot;, verdana, arial, sans-serif; font-size: 16px; fill: rgb(68, 68, 68); fill-opacity: 1; white-space: pre;">Sustainable Transport</text></g><g class="xtick"><text text-anchor="start" x="0" y="504.2" data-unformatted="Culture &amp; Community" data-math="N" transform="translate(259.55,0) rotate(30,0,496.2)" style="font-family: &quot;Open Sans&quot;, verdana, arial, sans-serif; font-size: 16px; fill: rgb(68, 68, 68); fill-opacity: 1; white-space: pre;">Culture &amp; Community</text></g><g class="xtick"><text text-anchor="start" x="0" y="504.2" data-unformatted="Equity &amp; Local Economy" data-math="N" transform="translate(379.25,0) rotate(30,0,496.2)" style="font-family: &quot;Open Sans&quot;, verdana, arial, sans-serif; font-size: 16px; fill: rgb(68, 68, 68); fill-opacity: 1; white-space: pre;">Equity &amp; Local Economy</text></g><g class="xtick"><text text-anchor="start" x="0" y="504.2" data-unformatted="Sustainable Materials" data-math="N" transform="translate(498.95,0) rotate(30,0,496.2)" style="font-family: &quot;Open Sans&quot;, verdana, arial, sans-serif; font-size: 16px; fill: rgb(68, 68, 68); fill-opacity: 1; white-space: pre;">Sustainable Materials</text></g><g class="xtick"><text text-anchor="start" x="0" y="504.2" data-unformatted="Zero Waste" data-math="N" transform="translate(618.65,0) rotate(30,0,496.2)" style="font-family: &quot;Open Sans&quot;, verdana, arial, sans-serif; font-size: 16px; fill: rgb(68, 68, 68); fill-opacity: 1; white-space: pre;">Zero Waste</text></g><g class="xtick"><text text-anchor="start" x="0" y="504.2" data-unformatted="Zero Carbon" data-math="N" transform="translate(738.35,0) rotate(30,0,496.2)" style="font-family: &quot;Open Sans&quot;, verdana, arial, sans-serif; font-size: 16px; fill: rgb(68, 68, 68); fill-opacity: 1; white-space: pre;">Zero Carbon</text></g><g class="xtick"><text text-anchor="start" x="0" y="504.2" data-unformatted="Land Use &amp; Wildlife" data-math="N" transform="translate(858.05,0) rotate(30,0,496.2)" style="font-family: &quot;Open Sans&quot;, verdana, arial, sans-serif; font-size: 16px; fill: rgb(68, 68, 68); fill-opacity: 1; white-space: pre;">Land Use &amp; Wildlife</text></g><g class="xtick"><text text-anchor="start" x="0" y="504.2" data-unformatted="Sustainable Water" data-math="N" transform="translate(977.75,0) rotate(30,0,496.2)" style="font-family: &quot;Open Sans&quot;, verdana, arial, sans-serif; font-size: 16px; fill: rgb(68, 68, 68); fill-opacity: 1; white-space: pre;">Sustainable Water</text></g><g class="xtick"><text text-anchor="start" x="0" y="504.2" data-unformatted="Local &amp; Sustainable Food" data-math="N" transform="translate(1097.45,0) rotate(30,0,496.2)" style="font-family: &quot;Open Sans&quot;, verdana, arial, sans-serif; font-size: 16px; fill: rgb(68, 68, 68); fill-opacity: 1; white-space: pre;">Local &amp; Sustainable Food</text></g><g class="xtick"><text text-anchor="start" x="0" y="504.2" data-unformatted="Health &amp; Happiness" data-math="N" transform="translate(1217.15,0) rotate(30,0,496.2)" style="font-family: &quot;Open Sans&quot;, verdana, arial, sans-serif; font-size: 16px; fill: rgb(68, 68, 68); fill-opacity: 1; white-space: pre;">Health &amp; Happiness</text></g></g><g class="yaxislayer-above"><g class="ytick"><text text-anchor="end" x="75.8" y="5.6" data-unformatted="1" data-math="N" transform="translate(0,484)" style="font-family: &quot;Open Sans&quot;, verdana, arial, sans-serif; font-size: 16px; fill: rgb(68, 68, 68); fill-opacity: 1; white-space: pre;">1</text></g><g class="ytick"><text text-anchor="end" x="75.8" y="5.6" data-unformatted="1.5" data-math="N" transform="translate(0,437.17)" style="font-family: &quot;Open Sans&quot;, verdana, arial, sans-serif; font-size: 16px; fill: rgb(68, 68, 68); fill-opacity: 1; white-space: pre;">1.5</text></g><g class="ytick"><text text-anchor="end" x="75.8" y="5.6" data-unformatted="2" data-math="N" transform="translate(0,390.34)" style="font-family: &quot;Open Sans&quot;, verdana, arial, sans-serif; font-size: 16px; fill: rgb(68, 68, 68); fill-opacity: 1; white-space: pre;">2</text></g><g class="ytick"><text text-anchor="end" x="75.8" y="5.6" data-unformatted="2.5" data-math="N" transform="translate(0,343.51)" style="font-family: &quot;Open Sans&quot;, verdana, arial, sans-serif; font-size: 16px; fill: rgb(68, 68, 68); fill-opacity: 1; white-space: pre;">2.5</text></g><g class="ytick"><text text-anchor="end" x="75.8" y="5.6" data-unformatted="3" data-math="N" transform="translate(0,296.68)" style="font-family: &quot;Open Sans&quot;, verdana, arial, sans-serif; font-size: 16px; fill: rgb(68, 68, 68); fill-opacity: 1; white-space: pre;">3</text></g><g class="ytick"><text text-anchor="end" x="75.8" y="5.6" data-unformatted="3.5" data-math="N" transform="translate(0,249.85)" style="font-family: &quot;Open Sans&quot;, verdana, arial, sans-serif; font-size: 16px; fill: rgb(68, 68, 68); fill-opacity: 1; white-space: pre;">3.5</text></g><g class="ytick"><text text-anchor="end" x="75.8" y="5.6" data-unformatted="4" data-math="N" transform="translate(0,203.01999999999998)" style="font-family: &quot;Open Sans&quot;, verdana, arial, sans-serif; font-size: 16px; fill: rgb(68, 68, 68); fill-opacity: 1; white-space: pre;">4</text></g><g class="ytick"><text text-anchor="end" x="75.8" y="5.6" data-unformatted="4.5" data-math="N" transform="translate(0,156.2)" style="font-family: &quot;Open Sans&quot;, verdana, arial, sans-serif; font-size: 16px; fill: rgb(68, 68, 68); fill-opacity: 1; white-space: pre;">4.5</text></g><g class="ytick"><text text-anchor="end" x="75.8" y="5.6" data-unformatted="5" data-math="N" transform="translate(0,109.37)" style="font-family: &quot;Open Sans&quot;, verdana, arial, sans-serif; font-size: 16px; fill: rgb(68, 68, 68); fill-opacity: 1; white-space: pre;">5</text></g></g><g class="overaxes-above"></g></g></g><g class="polarlayer"></g><g class="ternarylayer"></g><g class="geolayer"></g><g class="funnelarealayer"></g><g class="pielayer"></g><g class="treemaplayer"></g><g class="sunburstlayer"></g><g class="glimages"></g></svg><div class="gl-container"></div><svg class="main-svg" style="position: absolute" xmlns="http://www.w3.org/2000/svg" xmlns:xlink="http://www.w3.org/1999/xlink" width="1377" height="624"><defs id="topdefs-1da48b"><g class="clips"></g></defs><g class="indicatorlayer"></g><g class="layer-above"><g class="imagelayer"></g><g class="shapelayer"></g></g><g class="infolayer"><g class="g-gtitle"><text class="gtitle" x="688.5" y="50" text-anchor="middle" dy="0em" data-unformatted="Expected levels of sustainability in Freiburg" data-math="N" style="font-family: &quot;Open Sans&quot;, verdana, arial, sans-serif; font-size: 22px; fill: rgb(68, 68, 68); opacity: 1; font-weight: normal; white-space: pre;">Expected levels of sustainability in Freiburg</text></g><g class="g-xtitle"></g><g class="g-ytitle"></g></g><g class="menulayer"></g><g class="zoomlayer"></g></svg><div class="modebar-container" style="position: absolute; top: 0px; right: 0px; width: 100%;"><div id="modebar-1da48b" class="modebar modebar--hover ease-bg"><div class="modebar-group"><a rel="tooltip" class="modebar-btn" data-title="Download plot as a png" data-toggle="false" data-gravity="n"><svg viewBox="0 0 1000 1000" class="icon" height="1em" width="1em"><path d="m500 450c-83 0-150-67-150-150 0-83 67-150 150-150 83 0 150 67 150 150 0 83-67 150-150 150z m400 150h-120c-16 0-34 13-39 29l-31 93c-6 15-23 28-40 28h-340c-16 0-34-13-39-28l-31-94c-6-15-23-28-40-28h-120c-55 0-100-45-100-100v-450c0-55 45-100 100-100h800c55 0 100 45 100 100v450c0 55-45 100-100 100z m-400-550c-138 0-250 112-250 250 0 138 112 250 250 250 138 0 250-112 250-250 0-138-112-250-250-250z m365 380c-19 0-35 16-35 35 0 19 16 35 35 35 19 0 35-16 35-35 0-19-16-35-35-35z" transform="matrix(1 0 0 -1 0 850)"></path></svg></a></div><div class="modebar-group"><a rel="tooltip" class="modebar-btn active" data-title="Zoom" data-attr="dragmode" data-val="zoom" data-toggle="false" data-gravity="n"><svg viewBox="0 0 1000 1000" class="icon" height="1em" width="1em"><path d="m1000-25l-250 251c40 63 63 138 63 218 0 224-182 406-407 406-224 0-406-182-406-406s183-406 407-406c80 0 155 22 218 62l250-250 125 125z m-812 250l0 438 437 0 0-438-437 0z m62 375l313 0 0-312-313 0 0 312z" transform="matrix(1 0 0 -1 0 850)"></path></svg></a><a rel="tooltip" class="modebar-btn" data-title="Pan" data-attr="dragmode" data-val="pan" data-toggle="false" data-gravity="n"><svg viewBox="0 0 1000 1000" class="icon" height="1em" width="1em"><path d="m1000 350l-187 188 0-125-250 0 0 250 125 0-188 187-187-187 125 0 0-250-250 0 0 125-188-188 186-187 0 125 252 0 0-250-125 0 187-188 188 188-125 0 0 250 250 0 0-126 187 188z" transform="matrix(1 0 0 -1 0 850)"></path></svg></a></div><div class="modebar-group"><a rel="tooltip" class="modebar-btn" data-title="Zoom in" data-attr="zoom" data-val="in" data-toggle="false" data-gravity="n"><svg viewBox="0 0 875 1000" class="icon" height="1em" width="1em"><path d="m1 787l0-875 875 0 0 875-875 0z m687-500l-187 0 0-187-125 0 0 187-188 0 0 125 188 0 0 187 125 0 0-187 187 0 0-125z" transform="matrix(1 0 0 -1 0 850)"></path></svg></a><a rel="tooltip" class="modebar-btn" data-title="Zoom out" data-attr="zoom" data-val="out" data-toggle="false" data-gravity="n"><svg viewBox="0 0 875 1000" class="icon" height="1em" width="1em"><path d="m0 788l0-876 875 0 0 876-875 0z m688-500l-500 0 0 125 500 0 0-125z" transform="matrix(1 0 0 -1 0 850)"></path></svg></a><a rel="tooltip" class="modebar-btn" data-title="Autoscale" data-attr="zoom" data-val="auto" data-toggle="false" data-gravity="n"><svg viewBox="0 0 1000 1000" class="icon" height="1em" width="1em"><path d="m250 850l-187 0-63 0 0-62 0-188 63 0 0 188 187 0 0 62z m688 0l-188 0 0-62 188 0 0-188 62 0 0 188 0 62-62 0z m-875-938l0 188-63 0 0-188 0-62 63 0 187 0 0 62-187 0z m875 188l0-188-188 0 0-62 188 0 62 0 0 62 0 188-62 0z m-125 188l-1 0-93-94-156 156 156 156 92-93 2 0 0 250-250 0 0-2 93-92-156-156-156 156 94 92 0 2-250 0 0-250 0 0 93 93 157-156-157-156-93 94 0 0 0-250 250 0 0 0-94 93 156 157 156-157-93-93 0 0 250 0 0 250z" transform="matrix(1 0 0 -1 0 850)"></path></svg></a><a rel="tooltip" class="modebar-btn" data-title="Reset axes" data-attr="zoom" data-val="reset" data-toggle="false" data-gravity="n"><svg viewBox="0 0 928.6 1000" class="icon" height="1em" width="1em"><path d="m786 296v-267q0-15-11-26t-25-10h-214v214h-143v-214h-214q-15 0-25 10t-11 26v267q0 1 0 2t0 2l321 264 321-264q1-1 1-4z m124 39l-34-41q-5-5-12-6h-2q-7 0-12 3l-386 322-386-322q-7-4-13-4-7 2-12 7l-35 41q-4 5-3 13t6 12l401 334q18 15 42 15t43-15l136-114v109q0 8 5 13t13 5h107q8 0 13-5t5-13v-227l122-102q5-5 6-12t-4-13z" transform="matrix(1 0 0 -1 0 850)"></path></svg></a></div><div class="modebar-group"><a rel="tooltip" class="modebar-btn" data-title="Toggle Spike Lines" data-attr="_cartesianSpikesEnabled" data-val="on" data-toggle="false" data-gravity="n"><svg viewBox="0 0 1000 1000" class="icon" height="1em" width="1em"><path d="M512 409c0-57-46-104-103-104-57 0-104 47-104 104 0 57 47 103 104 103 57 0 103-46 103-103z m-327-39l92 0 0 92-92 0z m-185 0l92 0 0 92-92 0z m370-186l92 0 0 93-92 0z m0-184l92 0 0 92-92 0z" transform="matrix(1.5 0 0 -1.5 0 850)"></path></svg></a><a rel="tooltip" class="modebar-btn" data-title="Show closest data on hover" data-attr="hovermode" data-val="closest" data-toggle="false" data-gravity="ne"><svg viewBox="0 0 1500 1000" class="icon" height="1em" width="1em"><path d="m375 725l0 0-375-375 375-374 0-1 1125 0 0 750-1125 0z" transform="matrix(1 0 0 -1 0 850)"></path></svg></a><a rel="tooltip" class="modebar-btn active" data-title="Compare data on hover" data-attr="hovermode" data-val="x" data-toggle="false" data-gravity="ne"><svg viewBox="0 0 1125 1000" class="icon" height="1em" width="1em"><path d="m187 786l0 2-187-188 188-187 0 0 937 0 0 373-938 0z m0-499l0 1-187-188 188-188 0 0 937 0 0 376-938-1z" transform="matrix(1 0 0 -1 0 850)"></path></svg></a></div></div></div><svg class="main-svg" style="position: absolute" xmlns="http://www.w3.org/2000/svg" xmlns:xlink="http://www.w3.org/1999/xlink" width="1377" height="624"><g class="hoverlayer"></g></svg>