<svg class="main-svg" style="position: absolute" xmlns="http://www.w3.org/2000/svg" xmlns:xlink="http://www.w3.org/1999/xlink" width="904.225352112676" height="642" style="background: rgb(255, 255, 255);"><defs id="defs-4dc13a"><g class="clips"><clipPath id="clip4dc13axyplot" class="plotclip"><rect width="744" height="522"></rect></clipPath><clipPath class="axesclip" id="clip4dc13ax"><rect x="80" y="0" width="744" height="642"></rect></clipPath><clipPath class="axesclip" id="clip4dc13ay"><rect x="0" y="60" width="904.225352112676" height="522"></rect></clipPath><clipPath class="axesclip" id="clip4dc13axy"><rect x="80" y="60" width="744" height="522"></rect></clipPath></g><g class="gradients"></g></defs><g class="bglayer"></g><g class="draglayer cursor-move"><g class="xy"><rect class="nsewdrag drag cursor-pointer" data-subplot="xy" x="80" y="60" width="744" height="522" style="fill: transparent; stroke-width: 0; pointer-events: all;"></rect><rect class="nwdrag drag cursor-pointer" data-subplot="xy" x="60" y="40" width="20" height="20" style="fill: transparent; stroke-width: 0; pointer-events: none;"></rect><rect class="nedrag drag cursor-pointer" data-subplot="xy" x="824" y="40" width="20" height="20" style="fill: transparent; stroke-width: 0; pointer-events: none;"></rect><rect class="swdrag drag cursor-pointer" data-subplot="xy" x="60" y="582" width="20" height="20" style="fill: transparent; stroke-width: 0; pointer-events: none;"></rect><rect class="sedrag drag cursor-pointer" data-subplot="xy" x="824" y="582" width="20" height="20" style="fill: transparent; stroke-width: 0; pointer-events: none;"></rect><rect class="ewdrag drag cursor-pointer" data-subplot="xy" x="154.4" y="582.5" width="595.2" height="20" style="fill: transparent; stroke-width: 0; pointer-events: none;"></rect><rect class="wdrag drag cursor-pointer" data-subplot="xy" x="80" y="582.5" width="74.4" height="20" style="fill: transparent; stroke-width: 0; pointer-events: none;"></rect><rect class="edrag drag cursor-pointer" data-subplot="xy" x="749.6" y="582.5" width="74.4" height="20" style="fill: transparent; stroke-width: 0; pointer-events: none;"></rect><rect class="nsdrag drag cursor-pointer" data-subplot="xy" x="59.5" y="112.2" width="20" height="417.6" style="fill: transparent; stroke-width: 0; pointer-events: none;"></rect><rect class="sdrag drag cursor-pointer" data-subplot="xy" x="59.5" y="529.8" width="20" height="52.2" style="fill: transparent; stroke-width: 0; pointer-events: none;"></rect><rect class="ndrag drag cursor-pointer" data-subplot="xy" x="59.5" y="60" width="20" height="52.2" style="fill: transparent; stroke-width: 0; pointer-events: none;"></rect></g></g><g class="layer-below"><g class="imagelayer"></g><g class="shapelayer"></g></g><g class="cartesianlayer"><g class="subplot xy"><g class="layer-subplot"><g class="shapelayer"></g><g class="imagelayer"></g></g><g class="gridlayer"><g class="x"><path class="xgrid crisp" transform="translate(135.29,0)" d="M0,60v522" style="stroke: rgb(238, 238, 238); stroke-opacity: 1; stroke-width: 1px;"></path><path class="xgrid crisp" transform="translate(240.86,0)" d="M0,60v522" style="stroke: rgb(238, 238, 238); stroke-opacity: 1; stroke-width: 1px;"></path><path class="xgrid crisp" transform="translate(346.43,0)" d="M0,60v522" style="stroke: rgb(238, 238, 238); stroke-opacity: 1; stroke-width: 1px;"></path><path class="xgrid crisp" transform="translate(452,0)" d="M0,60v522" style="stroke: rgb(238, 238, 238); stroke-opacity: 1; stroke-width: 1px;"></path><path class="xgrid crisp" transform="translate(557.5699999999999,0)" d="M0,60v522" style="stroke: rgb(238, 238, 238); stroke-opacity: 1; stroke-width: 1px;"></path><path class="xgrid crisp" transform="translate(663.14,0)" d="M0,60v522" style="stroke: rgb(238, 238, 238); stroke-opacity: 1; stroke-width: 1px;"></path><path class="xgrid crisp" transform="translate(768.71,0)" d="M0,60v522" style="stroke: rgb(238, 238, 238); stroke-opacity: 1; stroke-width: 1px;"></path></g><g class="y"><path class="ygrid crisp" transform="translate(0,566.35)" d="M80,0h744" style="stroke: rgb(238, 238, 238); stroke-opacity: 1; stroke-width: 1px;"></path><path class="ygrid crisp" transform="translate(0,523.7)" d="M80,0h744" style="stroke: rgb(238, 238, 238); stroke-opacity: 1; stroke-width: 1px;"></path><path class="ygrid crisp" transform="translate(0,481.05)" d="M80,0h744" style="stroke: rgb(238, 238, 238); stroke-opacity: 1; stroke-width: 1px;"></path><path class="ygrid crisp" transform="translate(0,438.4)" d="M80,0h744" style="stroke: rgb(238, 238, 238); stroke-opacity: 1; stroke-width: 1px;"></path><path class="ygrid crisp" transform="translate(0,395.75)" d="M80,0h744" style="stroke: rgb(238, 238, 238); stroke-opacity: 1; stroke-width: 1px;"></path><path class="ygrid crisp" transform="translate(0,353.09)" d="M80,0h744" style="stroke: rgb(238, 238, 238); stroke-opacity: 1; stroke-width: 1px;"></path><path class="ygrid crisp" transform="translate(0,310.44)" d="M80,0h744" style="stroke: rgb(238, 238, 238); stroke-opacity: 1; stroke-width: 1px;"></path><path class="ygrid crisp" transform="translate(0,267.78999999999996)" d="M80,0h744" style="stroke: rgb(238, 238, 238); stroke-opacity: 1; stroke-width: 1px;"></path><path class="ygrid crisp" transform="translate(0,225.14)" d="M80,0h744" style="stroke: rgb(238, 238, 238); stroke-opacity: 1; stroke-width: 1px;"></path><path class="ygrid crisp" transform="translate(0,182.49)" d="M80,0h744" style="stroke: rgb(238, 238, 238); stroke-opacity: 1; stroke-width: 1px;"></path><path class="ygrid crisp" transform="translate(0,139.84)" d="M80,0h744" style="stroke: rgb(238, 238, 238); stroke-opacity: 1; stroke-width: 1px;"></path><path class="ygrid crisp" transform="translate(0,97.19)" d="M80,0h744" style="stroke: rgb(238, 238, 238); stroke-opacity: 1; stroke-width: 1px;"></path></g></g><g class="zerolinelayer"></g><path class="xlines-below"></path><path class="ylines-below"></path><g class="overlines-below"></g><g class="xaxislayer-below"></g><g class="yaxislayer-below"></g><g class="overaxes-below"></g><g class="plot" transform="translate(80,60)" clip-path="url('#clip4dc13axyplot')"><g class="boxlayer mlayer"><g class="trace boxes" style="opacity: 1;"><path class="box" d="M19.92,346.41H27.31M19.92,357.07H27.31V340.01H19.92ZM23.61,357.07V380.53M23.61,340.01V314.42M21.77,380.53H25.46M21.77,314.42H25.46" style="vector-effect: non-scaling-stroke; stroke-width: 1px; stroke: rgb(0, 0, 0); stroke-opacity: 1; fill: rgb(23, 190, 207); fill-opacity: 1;"></path><g class="points"><path class="point" transform="translate(23.61,418.92)" d="M2.5,0A2.5,2.5 0 1,1 0,-2.5A2.5,2.5 0 0,1 2.5,0Z" style="opacity: 1; stroke-width: 0px; fill: rgb(255, 0, 0); fill-opacity: 1;"></path><path class="point" transform="translate(23.61,408.25)" d="M2.5,0A2.5,2.5 0 1,1 0,-2.5A2.5,2.5 0 0,1 2.5,0Z" style="opacity: 1; stroke-width: 0px; fill: rgb(255, 0, 0); fill-opacity: 1;"></path><path class="point" transform="translate(23.61,406.12)" d="M2.5,0A2.5,2.5 0 1,1 0,-2.5A2.5,2.5 0 0,1 2.5,0Z" style="opacity: 1; stroke-width: 0px; fill: rgb(255, 0, 0); fill-opacity: 1;"></path><path class="point" transform="translate(23.61,229.12)" d="M2.5,0A2.5,2.5 0 1,1 0,-2.5A2.5,2.5 0 0,1 2.5,0Z" style="opacity: 1; stroke-width: 0px; fill: rgb(255, 0, 0); fill-opacity: 1;"></path><path class="point" transform="translate(23.61,229.12)" d="M2.5,0A2.5,2.5 0 1,1 0,-2.5A2.5,2.5 0 0,1 2.5,0Z" style="opacity: 1; stroke-width: 0px; fill: rgb(255, 0, 0); fill-opacity: 1;"></path><path class="point" transform="translate(23.61,229.12)" d="M2.5,0A2.5,2.5 0 1,1 0,-2.5A2.5,2.5 0 0,1 2.5,0Z" style="opacity: 1; stroke-width: 0px; fill: rgb(255, 0, 0); fill-opacity: 1;"></path><path class="point" transform="translate(23.61,190.73)" d="M2.5,0A2.5,2.5 0 1,1 0,-2.5A2.5,2.5 0 0,1 2.5,0Z" style="opacity: 1; stroke-width: 0px; fill: rgb(255, 0, 0); fill-opacity: 1;"></path><path class="point" transform="translate(23.61,165.14)" d="M2.5,0A2.5,2.5 0 1,1 0,-2.5A2.5,2.5 0 0,1 2.5,0Z" style="opacity: 1; stroke-width: 0px; fill: rgb(255, 0, 0); fill-opacity: 1;"></path></g></g><g class="trace boxes" style="opacity: 1;"><path class="box" d="M136.05,314.42H143.44M136.05,334.68H143.44V295.23H136.05ZM139.74,334.68V376.26M139.74,295.23V250.44M137.9,376.26H141.59M137.9,250.44H141.59" style="vector-effect: non-scaling-stroke; stroke-width: 1px; stroke: rgb(0, 0, 0); stroke-opacity: 1; fill: rgb(23, 190, 207); fill-opacity: 1;"></path><g class="points"><path class="point" transform="translate(139.74,209.93)" d="M2.5,0A2.5,2.5 0 1,1 0,-2.5A2.5,2.5 0 0,1 2.5,0Z" style="opacity: 1; stroke-width: 0px; fill: rgb(255, 0, 0); fill-opacity: 1;"></path><path class="point" transform="translate(139.74,150.21)" d="M2.5,0A2.5,2.5 0 1,1 0,-2.5A2.5,2.5 0 0,1 2.5,0Z" style="opacity: 1; stroke-width: 0px; fill: rgb(255, 0, 0); fill-opacity: 1;"></path></g></g><g class="trace boxes" style="opacity: 1;"><path class="box" d="M252.18,350.67H259.57M252.18,418.92H259.57V314.42H252.18ZM255.87,418.92V465.83M255.87,314.42V229.12M254.02,465.83H257.72M254.02,229.12H257.72" style="vector-effect: non-scaling-stroke; stroke-width: 1px; stroke: rgb(0, 0, 0); stroke-opacity: 1; fill: rgb(23, 190, 207); fill-opacity: 1;"></path><g class="points"><path class="point" transform="translate(255.87,122.49)" d="M2.5,0A2.5,2.5 0 1,1 0,-2.5A2.5,2.5 0 0,1 2.5,0Z" style="opacity: 1; stroke-width: 0px; fill: rgb(255, 0, 0); fill-opacity: 1;"></path></g></g><g class="trace boxes" style="opacity: 1;"><path class="box" d="M368.3,335.75H375.7M368.3,357.07H375.7V296.29H368.3ZM372,357.07V406.12M372,296.29V239.78M370.15,406.12H373.85M370.15,239.78H373.85" style="vector-effect: non-scaling-stroke; stroke-width: 1px; stroke: rgb(0, 0, 0); stroke-opacity: 1; fill: rgb(23, 190, 207); fill-opacity: 1;"></path><g class="points"><path class="point" transform="translate(372,122.49)" d="M2.5,0A2.5,2.5 0 1,1 0,-2.5A2.5,2.5 0 0,1 2.5,0Z" style="opacity: 1; stroke-width: 0px; fill: rgb(255, 0, 0); fill-opacity: 1;"></path></g></g><g class="trace boxes" style="opacity: 1;"><path class="box" d="M484.43,335.75H491.82M484.43,349.07H491.82V246.71H484.43ZM488.13,349.07V495.9M488.13,246.71V117.37M486.28,495.9H489.98M486.28,117.37H489.98" style="vector-effect: non-scaling-stroke; stroke-width: 1px; stroke: rgb(0, 0, 0); stroke-opacity: 1; fill: rgb(23, 190, 207); fill-opacity: 1;"></path><g class="points"><path class="point" transform="translate(488.13,86.24)" d="M2.5,0A2.5,2.5 0 1,1 0,-2.5A2.5,2.5 0 0,1 2.5,0Z" style="opacity: 1; stroke-width: 0px; fill: rgb(255, 0, 0); fill-opacity: 1;"></path><path class="point" transform="translate(488.13,26.1)" d="M2.5,0A2.5,2.5 0 1,1 0,-2.5A2.5,2.5 0 0,1 2.5,0Z" style="opacity: 1; stroke-width: 0px; fill: rgb(255, 0, 0); fill-opacity: 1;"></path><path class="point" transform="translate(488.13,26.1)" d="M2.5,0A2.5,2.5 0 1,1 0,-2.5A2.5,2.5 0 0,1 2.5,0Z" style="opacity: 1; stroke-width: 0px; fill: rgb(255, 0, 0); fill-opacity: 1;"></path></g></g><g class="trace boxes" style="opacity: 1;"><path class="box" d="M600.56,312.29H607.95M600.56,335.75H607.95V241.91H600.56ZM604.26,335.75V414.65M604.26,241.91V180.07M602.41,414.65H606.1M602.41,180.07H606.1" style="vector-effect: non-scaling-stroke; stroke-width: 1px; stroke: rgb(0, 0, 0); stroke-opacity: 1; fill: rgb(23, 190, 207); fill-opacity: 1;"></path><g class="points"></g></g><g class="trace boxes" style="opacity: 1;"><path class="box" d="M716.69,335.75H724.08M716.69,356H724.08V314.42H716.69ZM720.39,356V389.06M720.39,314.42V271.77M718.54,389.06H722.23M718.54,271.77H722.23" style="vector-effect: non-scaling-stroke; stroke-width: 1px; stroke: rgb(0, 0, 0); stroke-opacity: 1; fill: rgb(23, 190, 207); fill-opacity: 1;"></path><g class="points"><path class="point" transform="translate(720.39,442.37)" d="M2.5,0A2.5,2.5 0 1,1 0,-2.5A2.5,2.5 0 0,1 2.5,0Z" style="opacity: 1; stroke-width: 0px; fill: rgb(255, 0, 0); fill-opacity: 1;"></path><path class="point" transform="translate(720.39,438.11)" d="M2.5,0A2.5,2.5 0 1,1 0,-2.5A2.5,2.5 0 0,1 2.5,0Z" style="opacity: 1; stroke-width: 0px; fill: rgb(255, 0, 0); fill-opacity: 1;"></path><path class="point" transform="translate(720.39,421.05)" d="M2.5,0A2.5,2.5 0 1,1 0,-2.5A2.5,2.5 0 0,1 2.5,0Z" style="opacity: 1; stroke-width: 0px; fill: rgb(255, 0, 0); fill-opacity: 1;"></path><path class="point" transform="translate(720.39,186.47)" d="M2.5,0A2.5,2.5 0 1,1 0,-2.5A2.5,2.5 0 0,1 2.5,0Z" style="opacity: 1; stroke-width: 0px; fill: rgb(255, 0, 0); fill-opacity: 1;"></path><path class="point" transform="translate(720.39,169.41)" d="M2.5,0A2.5,2.5 0 1,1 0,-2.5A2.5,2.5 0 0,1 2.5,0Z" style="opacity: 1; stroke-width: 0px; fill: rgb(255, 0, 0); fill-opacity: 1;"></path><path class="point" transform="translate(720.39,165.14)" d="M2.5,0A2.5,2.5 0 1,1 0,-2.5A2.5,2.5 0 0,1 2.5,0Z" style="opacity: 1; stroke-width: 0px; fill: rgb(255, 0, 0); fill-opacity: 1;"></path></g></g></g></g><g class="overplot"></g><path class="xlines-above crisp" d="M79,582.5H825M79,59.5H825" style="fill: none; stroke-width: 1px; stroke: rgb(68, 68, 68); stroke-opacity: 1;"></path><path class="ylines-above crisp" d="M79.5,60V582M824.5,60V582" style="fill: none; stroke-width: 1px; stroke: rgb(68, 68, 68); stroke-opacity: 1;"></path><g class="overlines-above"></g><g class="xaxislayer-above"><path class="xtick ticks crisp" d="M0,582v-5" transform="translate(135.29,0)" style="stroke: rgb(68, 68, 68); stroke-opacity: 1; stroke-width: 1px;"></path><path class="xtick ticks crisp" d="M0,582v-5" transform="translate(240.86,0)" style="stroke: rgb(68, 68, 68); stroke-opacity: 1; stroke-width: 1px;"></path><path class="xtick ticks crisp" d="M0,582v-5" transform="translate(346.43,0)" style="stroke: rgb(68, 68, 68); stroke-opacity: 1; stroke-width: 1px;"></path><path class="xtick ticks crisp" d="M0,582v-5" transform="translate(452,0)" style="stroke: rgb(68, 68, 68); stroke-opacity: 1; stroke-width: 1px;"></path><path class="xtick ticks crisp" d="M0,582v-5" transform="translate(557.5699999999999,0)" style="stroke: rgb(68, 68, 68); stroke-opacity: 1; stroke-width: 1px;"></path><path class="xtick ticks crisp" d="M0,582v-5" transform="translate(663.14,0)" style="stroke: rgb(68, 68, 68); stroke-opacity: 1; stroke-width: 1px;"></path><path class="xtick ticks crisp" d="M0,582v-5" transform="translate(768.71,0)" style="stroke: rgb(68, 68, 68); stroke-opacity: 1; stroke-width: 1px;"></path><g class="xtick"><text text-anchor="middle" x="0" y="602.2" data-unformatted="Bellavista" data-math="N" transform="translate(135.29,0)" style="font-family: &quot;Open Sans&quot;, verdana, arial, sans-serif; font-size: 16px; fill: rgb(68, 68, 68); fill-opacity: 1; white-space: pre;">Bellavista</text></g><g class="xtick"><text text-anchor="middle" x="0" y="602.2" data-unformatted="Buchado" data-math="N" transform="translate(240.86,0)" style="font-family: &quot;Open Sans&quot;, verdana, arial, sans-serif; font-size: 16px; fill: rgb(68, 68, 68); fill-opacity: 1; white-space: pre;">Buchado</text></g><g class="xtick"><text text-anchor="middle" x="0" y="602.2" data-unformatted="El Buey" data-math="N" transform="translate(346.43,0)" style="font-family: &quot;Open Sans&quot;, verdana, arial, sans-serif; font-size: 16px; fill: rgb(68, 68, 68); fill-opacity: 1; white-space: pre;">El Buey</text></g><g class="xtick"><text text-anchor="middle" x="0" y="602.2" data-unformatted="Opogado" data-math="N" transform="translate(452,0)" style="font-family: &quot;Open Sans&quot;, verdana, arial, sans-serif; font-size: 16px; fill: rgb(68, 68, 68); fill-opacity: 1; white-space: pre;">Opogado</text></g><g class="xtick"><text text-anchor="middle" x="0" y="602.2" data-unformatted="Panamericana" data-math="N" transform="translate(557.5699999999999,0)" style="font-family: &quot;Open Sans&quot;, verdana, arial, sans-serif; font-size: 16px; fill: rgb(68, 68, 68); fill-opacity: 1; white-space: pre;">Panamericana</text></g><g class="xtick"><text text-anchor="middle" x="0" y="602.2" data-unformatted="Tagachi" data-math="N" transform="translate(663.14,0)" style="font-family: &quot;Open Sans&quot;, verdana, arial, sans-serif; font-size: 16px; fill: rgb(68, 68, 68); fill-opacity: 1; white-space: pre;">Tagachi</text></g><g class="xtick"><text text-anchor="middle" x="0" y="602.2" data-unformatted="Bete" data-math="N" transform="translate(768.71,0)" style="font-family: &quot;Open Sans&quot;, verdana, arial, sans-serif; font-size: 16px; fill: rgb(68, 68, 68); fill-opacity: 1; white-space: pre;">Bete</text></g></g><g class="yaxislayer-above"><path class="ytick ticks crisp" d="M80,0h5" transform="translate(0,566.35)" style="stroke: rgb(68, 68, 68); stroke-opacity: 1; stroke-width: 1px;"></path><path class="ytick ticks crisp" d="M80,0h5" transform="translate(0,523.7)" style="stroke: rgb(68, 68, 68); stroke-opacity: 1; stroke-width: 1px;"></path><path class="ytick ticks crisp" d="M80,0h5" transform="translate(0,481.05)" style="stroke: rgb(68, 68, 68); stroke-opacity: 1; stroke-width: 1px;"></path><path class="ytick ticks crisp" d="M80,0h5" transform="translate(0,438.4)" style="stroke: rgb(68, 68, 68); stroke-opacity: 1; stroke-width: 1px;"></path><path class="ytick ticks crisp" d="M80,0h5" transform="translate(0,395.75)" style="stroke: rgb(68, 68, 68); stroke-opacity: 1; stroke-width: 1px;"></path><path class="ytick ticks crisp" d="M80,0h5" transform="translate(0,353.09)" style="stroke: rgb(68, 68, 68); stroke-opacity: 1; stroke-width: 1px;"></path><path class="ytick ticks crisp" d="M80,0h5" transform="translate(0,310.44)" style="stroke: rgb(68, 68, 68); stroke-opacity: 1; stroke-width: 1px;"></path><path class="ytick ticks crisp" d="M80,0h5" transform="translate(0,267.78999999999996)" style="stroke: rgb(68, 68, 68); stroke-opacity: 1; stroke-width: 1px;"></path><path class="ytick ticks crisp" d="M80,0h5" transform="translate(0,225.14)" style="stroke: rgb(68, 68, 68); stroke-opacity: 1; stroke-width: 1px;"></path><path class="ytick ticks crisp" d="M80,0h5" transform="translate(0,182.49)" style="stroke: rgb(68, 68, 68); stroke-opacity: 1; stroke-width: 1px;"></path><path class="ytick ticks crisp" d="M80,0h5" transform="translate(0,139.84)" style="stroke: rgb(68, 68, 68); stroke-opacity: 1; stroke-width: 1px;"></path><path class="ytick ticks crisp" d="M80,0h5" transform="translate(0,97.19)" style="stroke: rgb(68, 68, 68); stroke-opacity: 1; stroke-width: 1px;"></path><g class="ytick"><text text-anchor="end" x="76.6" y="4.199999999999999" data-unformatted="60" data-math="N" transform="translate(0,566.35)" style="font-family: &quot;Open Sans&quot;, verdana, arial, sans-serif; font-size: 12px; fill: rgb(68, 68, 68); fill-opacity: 1; white-space: pre;">60</text></g><g class="ytick"><text text-anchor="end" x="76.6" y="4.199999999999999" data-unformatted="80" data-math="N" transform="translate(0,523.7)" style="font-family: &quot;Open Sans&quot;, verdana, arial, sans-serif; font-size: 12px; fill: rgb(68, 68, 68); fill-opacity: 1; white-space: pre;">80</text></g><g class="ytick"><text text-anchor="end" x="76.6" y="4.199999999999999" data-unformatted="100" data-math="N" transform="translate(0,481.05)" style="font-family: &quot;Open Sans&quot;, verdana, arial, sans-serif; font-size: 12px; fill: rgb(68, 68, 68); fill-opacity: 1; white-space: pre;">100</text></g><g class="ytick"><text text-anchor="end" x="76.6" y="4.199999999999999" data-unformatted="120" data-math="N" transform="translate(0,438.4)" style="font-family: &quot;Open Sans&quot;, verdana, arial, sans-serif; font-size: 12px; fill: rgb(68, 68, 68); fill-opacity: 1; white-space: pre;">120</text></g><g class="ytick"><text text-anchor="end" x="76.6" y="4.199999999999999" data-unformatted="140" data-math="N" transform="translate(0,395.75)" style="font-family: &quot;Open Sans&quot;, verdana, arial, sans-serif; font-size: 12px; fill: rgb(68, 68, 68); fill-opacity: 1; white-space: pre;">140</text></g><g class="ytick"><text text-anchor="end" x="76.6" y="4.199999999999999" data-unformatted="160" data-math="N" transform="translate(0,353.09)" style="font-family: &quot;Open Sans&quot;, verdana, arial, sans-serif; font-size: 12px; fill: rgb(68, 68, 68); fill-opacity: 1; white-space: pre;">160</text></g><g class="ytick"><text text-anchor="end" x="76.6" y="4.199999999999999" data-unformatted="180" data-math="N" transform="translate(0,310.44)" style="font-family: &quot;Open Sans&quot;, verdana, arial, sans-serif; font-size: 12px; fill: rgb(68, 68, 68); fill-opacity: 1; white-space: pre;">180</text></g><g class="ytick"><text text-anchor="end" x="76.6" y="4.199999999999999" data-unformatted="200" data-math="N" transform="translate(0,267.78999999999996)" style="font-family: &quot;Open Sans&quot;, verdana, arial, sans-serif; font-size: 12px; fill: rgb(68, 68, 68); fill-opacity: 1; white-space: pre;">200</text></g><g class="ytick"><text text-anchor="end" x="76.6" y="4.199999999999999" data-unformatted="220" data-math="N" transform="translate(0,225.14)" style="font-family: &quot;Open Sans&quot;, verdana, arial, sans-serif; font-size: 12px; fill: rgb(68, 68, 68); fill-opacity: 1; white-space: pre;">220</text></g><g class="ytick"><text text-anchor="end" x="76.6" y="4.199999999999999" data-unformatted="240" data-math="N" transform="translate(0,182.49)" style="font-family: &quot;Open Sans&quot;, verdana, arial, sans-serif; font-size: 12px; fill: rgb(68, 68, 68); fill-opacity: 1; white-space: pre;">240</text></g><g class="ytick"><text text-anchor="end" x="76.6" y="4.199999999999999" data-unformatted="260" data-math="N" transform="translate(0,139.84)" style="font-family: &quot;Open Sans&quot;, verdana, arial, sans-serif; font-size: 12px; fill: rgb(68, 68, 68); fill-opacity: 1; white-space: pre;">260</text></g><g class="ytick"><text text-anchor="end" x="76.6" y="4.199999999999999" data-unformatted="280" data-math="N" transform="translate(0,97.19)" style="font-family: &quot;Open Sans&quot;, verdana, arial, sans-serif; font-size: 12px; fill: rgb(68, 68, 68); fill-opacity: 1; white-space: pre;">280</text></g></g><g class="overaxes-above"></g></g></g><g class="polarlayer"></g><g class="ternarylayer"></g><g class="geolayer"></g><g class="funnelarealayer"></g><g class="pielayer"></g><g class="treemaplayer"></g><g class="sunburstlayer"></g><g class="glimages"></g></svg><div class="gl-container"></div><svg class="main-svg" style="position: absolute" xmlns="http://www.w3.org/2000/svg" xmlns:xlink="http://www.w3.org/1999/xlink" width="904.225352112676" height="642"><defs id="topdefs-4dc13a"><g class="clips"></g></defs><g class="indicatorlayer"></g><g class="layer-above"><g class="imagelayer"></g><g class="shapelayer"></g></g><g class="infolayer"><g class="g-gtitle"><text class="gtitle" x="452.112676056338" y="30" text-anchor="middle" dy="0em" data-unformatted="<b>Caja de Bigotes</b>" data-math="N" style="font-family: &quot;Open Sans&quot;, verdana, arial, sans-serif; font-size: 20px; fill: rgb(68, 68, 68); opacity: 1; font-weight: normal; white-space: pre;"><tspan style="font-weight:bold">Caja de Bigotes</tspan></text></g><g class="g-xtitle" transform="translate(0,-9.5)"><text class="xtitle" x="452" y="646" text-anchor="middle" data-unformatted="Estaciones Pluviométricas" data-math="N" style="font-family: &quot;Open Sans&quot;, verdana, arial, sans-serif; font-size: 18px; fill: rgb(68, 68, 68); opacity: 1; font-weight: normal; white-space: pre;">Estaciones Pluviométricas</text></g><g class="g-ytitle"><text class="ytitle" transform="rotate(-90,34,321)" x="34" y="321" text-anchor="middle" data-unformatted="Precipitación (mm)" data-math="N" style="font-family: &quot;Open Sans&quot;, verdana, arial, sans-serif; font-size: 18px; fill: rgb(68, 68, 68); opacity: 1; font-weight: normal; white-space: pre;">Precipitación (mm)</text></g></g><g class="menulayer"></g><g class="zoomlayer"></g></svg><div class="modebar-container" style="position: absolute; top: 0px; right: 0px; width: 100%;"><div id="modebar-4dc13a" class="modebar modebar--hover ease-bg"><div class="modebar-group"><a rel="tooltip" class="modebar-btn" data-title="Download plot as a png" data-toggle="false" data-gravity="n"><svg viewBox="0 0 1000 1000" class="icon" height="1em" width="1em"><path d="m500 450c-83 0-150-67-150-150 0-83 67-150 150-150 83 0 150 67 150 150 0 83-67 150-150 150z m400 150h-120c-16 0-34 13-39 29l-31 93c-6 15-23 28-40 28h-340c-16 0-34-13-39-28l-31-94c-6-15-23-28-40-28h-120c-55 0-100-45-100-100v-450c0-55 45-100 100-100h800c55 0 100 45 100 100v450c0 55-45 100-100 100z m-400-550c-138 0-250 112-250 250 0 138 112 250 250 250 138 0 250-112 250-250 0-138-112-250-250-250z m365 380c-19 0-35 16-35 35 0 19 16 35 35 35 19 0 35-16 35-35 0-19-16-35-35-35z" transform="matrix(1 0 0 -1 0 850)"></path></svg></a></div><div class="modebar-group"><a rel="tooltip" class="modebar-btn active" data-title="Toggle Spike Lines" data-attr="_cartesianSpikesEnabled" data-val="on" data-toggle="false" data-gravity="n"><svg viewBox="0 0 1000 1000" class="icon" height="1em" width="1em"><path d="M512 409c0-57-46-104-103-104-57 0-104 47-104 104 0 57 47 103 104 103 57 0 103-46 103-103z m-327-39l92 0 0 92-92 0z m-185 0l92 0 0 92-92 0z m370-186l92 0 0 93-92 0z m0-184l92 0 0 92-92 0z" transform="matrix(1.5 0 0 -1.5 0 850)"></path></svg></a><a rel="tooltip" class="modebar-btn" data-title="Show closest data on hover" data-attr="hovermode" data-val="closest" data-toggle="false" data-gravity="ne"><svg viewBox="0 0 1500 1000" class="icon" height="1em" width="1em"><path d="m375 725l0 0-375-375 375-374 0-1 1125 0 0 750-1125 0z" transform="matrix(1 0 0 -1 0 850)"></path></svg></a><a rel="tooltip" class="modebar-btn" data-title="Compare data on hover" data-attr="hovermode" data-val="x" data-toggle="false" data-gravity="ne"><svg viewBox="0 0 1125 1000" class="icon" height="1em" width="1em"><path d="m187 786l0 2-187-188 188-187 0 0 937 0 0 373-938 0z m0-499l0 1-187-188 188-188 0 0 937 0 0 376-938-1z" transform="matrix(1 0 0 -1 0 850)"></path></svg></a></div></div></div><svg class="main-svg" style="position: absolute" xmlns="http://www.w3.org/2000/svg" xmlns:xlink="http://www.w3.org/1999/xlink" width="904.225352112676" height="642"><g class="hoverlayer"></g></svg>