<svg class="main-svg" style="position: absolute" xmlns="http://www.w3.org/2000/svg" xmlns:xlink="http://www.w3.org/1999/xlink" width="904.225352112676" height="642" style="background: rgb(255, 255, 255);"><defs id="defs-6dd593"><g class="clips"><clipPath id="clip6dd593xyplot" class="plotclip"><rect width="631" height="462"></rect></clipPath><clipPath class="axesclip" id="clip6dd593x"><rect x="80" y="0" width="631" height="642"></rect></clipPath><clipPath class="axesclip" id="clip6dd593y"><rect x="0" y="100" width="904.225352112676" height="462"></rect></clipPath><clipPath class="axesclip" id="clip6dd593xy"><rect x="80" y="100" width="631" height="462"></rect></clipPath></g><g class="gradients"></g></defs><g class="bglayer"></g><g class="draglayer cursor-crosshair"><g class="xy"><rect class="nsewdrag drag" data-subplot="xy" x="80" y="100" width="631" height="462" style="fill: transparent; stroke-width: 0; pointer-events: all;"></rect><rect class="nwdrag drag cursor-nw-resize" data-subplot="xy" x="60" y="80" width="20" height="20" style="fill: transparent; stroke-width: 0; pointer-events: all;"></rect><rect class="nedrag drag cursor-ne-resize" data-subplot="xy" x="711" y="80" width="20" height="20" style="fill: transparent; stroke-width: 0; pointer-events: all;"></rect><rect class="swdrag drag cursor-sw-resize" data-subplot="xy" x="60" y="562" width="20" height="20" style="fill: transparent; stroke-width: 0; pointer-events: all;"></rect><rect class="sedrag drag cursor-se-resize" data-subplot="xy" x="711" y="562" width="20" height="20" style="fill: transparent; stroke-width: 0; pointer-events: all;"></rect><rect class="ewdrag drag cursor-ew-resize" data-subplot="xy" x="143.1" y="562.5" width="504.8" height="20" style="fill: transparent; stroke-width: 0; pointer-events: all;"></rect><rect class="wdrag drag cursor-w-resize" data-subplot="xy" x="80" y="562.5" width="63.1" height="20" style="fill: transparent; stroke-width: 0; pointer-events: all;"></rect><rect class="edrag drag cursor-e-resize" data-subplot="xy" x="647.9" y="562.5" width="63.1" height="20" style="fill: transparent; stroke-width: 0; pointer-events: all;"></rect><rect class="nsdrag drag cursor-ns-resize" data-subplot="xy" x="59.5" y="146.2" width="20" height="369.6" style="fill: transparent; stroke-width: 0; pointer-events: all;"></rect><rect class="sdrag drag cursor-s-resize" data-subplot="xy" x="59.5" y="515.8" width="20" height="46.2" style="fill: transparent; stroke-width: 0; pointer-events: all;"></rect><rect class="ndrag drag cursor-n-resize" data-subplot="xy" x="59.5" y="100" width="20" height="46.2" style="fill: transparent; stroke-width: 0; pointer-events: all;"></rect></g></g><g class="layer-below"><g class="imagelayer"></g><g class="shapelayer"></g></g><g class="cartesianlayer"><g class="subplot xy"><g class="layer-subplot"><g class="shapelayer"></g><g class="imagelayer"></g></g><g class="gridlayer"><g class="x"><path class="xgrid crisp" transform="translate(107.97,0)" d="M0,100v462" style="stroke: rgb(238, 238, 238); stroke-opacity: 1; stroke-width: 1px;"></path><path class="xgrid crisp" transform="translate(244.89,0)" d="M0,100v462" style="stroke: rgb(238, 238, 238); stroke-opacity: 1; stroke-width: 1px;"></path><path class="xgrid crisp" transform="translate(381.81,0)" d="M0,100v462" style="stroke: rgb(238, 238, 238); stroke-opacity: 1; stroke-width: 1px;"></path><path class="xgrid crisp" transform="translate(518.73,0)" d="M0,100v462" style="stroke: rgb(238, 238, 238); stroke-opacity: 1; stroke-width: 1px;"></path><path class="xgrid crisp" transform="translate(655.64,0)" d="M0,100v462" style="stroke: rgb(238, 238, 238); stroke-opacity: 1; stroke-width: 1px;"></path></g><g class="y"></g></g><g class="zerolinelayer"></g><path class="xlines-below"></path><path class="ylines-below"></path><g class="overlines-below"></g><g class="xaxislayer-below"></g><g class="yaxislayer-below"></g><g class="overaxes-below"></g><g class="plot" transform="translate(80,100)" clip-path="url('#clip6dd593xyplot')"><g class="boxlayer mlayer"><g class="trace boxes" style="opacity: 1;"><path class="box" d="M62.2,444.91V429.81M41.67,444.91V429.81H82.74V444.91ZM41.67,437.36H27.97M82.74,437.36H96.43M27.97,441.13V433.59M96.43,441.13V433.59" style="vector-effect: non-scaling-stroke; stroke-width: 2px; stroke: rgb(61, 153, 112); stroke-opacity: 1; fill: rgb(61, 153, 112); fill-opacity: 0.5;"></path><path class="box" d="M62.2,352.51V337.41M41.67,352.51V337.41H82.74V352.51ZM41.67,344.96H27.97M82.74,344.96H96.43M27.97,348.73V341.19M96.43,348.73V341.19" style="vector-effect: non-scaling-stroke; stroke-width: 2px; stroke: rgb(61, 153, 112); stroke-opacity: 1; fill: rgb(61, 153, 112); fill-opacity: 0.5;"></path><path class="box" d="M555.11,260.11V245.01M507.18,260.11V245.01H589.33V260.11ZM507.18,252.56H466.11M589.33,252.56H603.03M466.11,256.33V248.79M603.03,256.33V248.79" style="vector-effect: non-scaling-stroke; stroke-width: 2px; stroke: rgb(61, 153, 112); stroke-opacity: 1; fill: rgb(61, 153, 112); fill-opacity: 0.5;"></path><path class="box" d="M219.66,167.71V152.61M192.27,167.71V152.61H260.73V167.71ZM192.27,160.16H178.58M260.73,160.16H288.12M178.58,163.93V156.39M288.12,163.93V156.39" style="vector-effect: non-scaling-stroke; stroke-width: 2px; stroke: rgb(61, 153, 112); stroke-opacity: 1; fill: rgb(61, 153, 112); fill-opacity: 0.5;"></path><path class="box" d="M82.74,75.31V60.21M55.36,75.31V60.21H123.82V75.31ZM55.36,67.76H41.67M123.82,67.76H151.2M41.67,71.53V63.99M151.2,71.53V63.99" style="vector-effect: non-scaling-stroke; stroke-width: 2px; stroke: rgb(61, 153, 112); stroke-opacity: 1; fill: rgb(61, 153, 112); fill-opacity: 0.5;"></path><g class="points"></g><g class="points"></g><g class="points"></g><g class="points"></g><g class="points"></g></g><g class="trace boxes" style="opacity: 1;"><path class="box" d="M75.89,423.35V408.25M55.36,423.35V408.25H96.43V423.35ZM55.36,415.8H27.97M96.43,415.8H110.12M27.97,419.57V412.03M110.12,419.57V412.03" style="vector-effect: non-scaling-stroke; stroke-width: 2px; stroke: rgb(255, 65, 54); stroke-opacity: 1; fill: rgb(255, 65, 54); fill-opacity: 0.5;"></path><path class="box" d="M75.89,330.95V315.85M55.36,330.95V315.85H96.43V330.95ZM55.36,323.4H27.97M96.43,323.4H110.12M27.97,327.17V319.63M110.12,327.17V319.63" style="vector-effect: non-scaling-stroke; stroke-width: 2px; stroke: rgb(255, 65, 54); stroke-opacity: 1; fill: rgb(255, 65, 54); fill-opacity: 0.5;"></path><path class="box" d="M514.03,238.55V223.45M479.8,238.55V223.45H520.88V238.55ZM479.8,231H438.73M520.88,231H534.57M438.73,234.77V227.23M534.57,234.77V227.23" style="vector-effect: non-scaling-stroke; stroke-width: 2px; stroke: rgb(255, 65, 54); stroke-opacity: 1; fill: rgb(255, 65, 54); fill-opacity: 0.5;"></path><path class="box" d="M260.73,146.15V131.05M233.35,146.15V131.05H274.42V146.15ZM233.35,138.6H192.27M274.42,138.6H288.12M192.27,142.37V134.83M288.12,142.37V134.83" style="vector-effect: non-scaling-stroke; stroke-width: 2px; stroke: rgb(255, 65, 54); stroke-opacity: 1; fill: rgb(255, 65, 54); fill-opacity: 0.5;"></path><path class="box" d="M123.82,53.75V38.65M96.43,53.75V38.65H137.51V53.75ZM96.43,46.2H55.36M137.51,46.2H151.2M55.36,49.97V42.43M151.2,49.97V42.43" style="vector-effect: non-scaling-stroke; stroke-width: 2px; stroke: rgb(255, 65, 54); stroke-opacity: 1; fill: rgb(255, 65, 54); fill-opacity: 0.5;"></path><g class="points"></g><g class="points"></g><g class="points"></g><g class="points"></g><g class="points"></g></g><g class="trace boxes" style="opacity: 1;"><path class="box" d="M89.59,401.79V386.69M69.05,401.79V386.69H110.12V401.79ZM69.05,394.24H27.97M110.12,394.24H123.82M27.97,398.01V390.47M123.82,398.01V390.47" style="vector-effect: non-scaling-stroke; stroke-width: 2px; stroke: rgb(255, 133, 27); stroke-opacity: 1; fill: rgb(255, 133, 27); fill-opacity: 0.5;"></path><path class="box" d="M89.59,309.39V294.29M69.05,309.39V294.29H110.12V309.39ZM69.05,301.84H27.97M110.12,301.84H123.82M27.97,305.61V298.07M123.82,305.61V298.07" style="vector-effect: non-scaling-stroke; stroke-width: 2px; stroke: rgb(255, 133, 27); stroke-opacity: 1; fill: rgb(255, 133, 27); fill-opacity: 0.5;"></path><path class="box" d="M438.73,216.99V201.89M411.34,216.99V201.89H452.42V216.99ZM411.34,209.44H370.27M452.42,209.44H493.49M370.27,213.21V205.67M493.49,213.21V205.67" style="vector-effect: non-scaling-stroke; stroke-width: 2px; stroke: rgb(255, 133, 27); stroke-opacity: 1; fill: rgb(255, 133, 27); fill-opacity: 0.5;"></path><path class="box" d="M260.73,124.59V109.49M233.35,124.59V109.49H288.12V124.59ZM233.35,117.04H205.97M288.12,117.04H301.81M205.97,120.81V113.27M301.81,120.81V113.27" style="vector-effect: non-scaling-stroke; stroke-width: 2px; stroke: rgb(255, 133, 27); stroke-opacity: 1; fill: rgb(255, 133, 27); fill-opacity: 0.5;"></path><path class="box" d="M123.82,32.19V17.09M96.43,32.19V17.09H151.2V32.19ZM96.43,24.64H69.05M151.2,24.64H164.89M69.05,28.41V20.87M164.89,28.41V20.87" style="vector-effect: non-scaling-stroke; stroke-width: 2px; stroke: rgb(255, 133, 27); stroke-opacity: 1; fill: rgb(255, 133, 27); fill-opacity: 0.5;"></path><g class="points"></g><g class="points"></g><g class="points"></g><g class="points"></g><g class="points"></g></g></g></g><g class="overplot"></g><path class="xlines-above crisp" d="M0,0" style="fill: none;"></path><path class="ylines-above crisp" style="fill: none;" d="M0,0"></path><g class="overlines-above"></g><g class="xaxislayer-above"><g class="xtick"><text text-anchor="middle" x="0" y="583" data-unformatted="0" data-math="N" transform="translate(107.97,0)" style="font-family: &quot;Open Sans&quot;, verdana, arial, sans-serif; font-size: 20px; fill: rgb(68, 68, 68); fill-opacity: 1; white-space: pre;">0</text></g><g class="xtick"><text text-anchor="middle" x="0" y="583" data-unformatted="1" data-math="N" transform="translate(244.89,0)" style="font-family: &quot;Open Sans&quot;, verdana, arial, sans-serif; font-size: 20px; fill: rgb(68, 68, 68); fill-opacity: 1; white-space: pre;">1</text></g><g class="xtick"><text text-anchor="middle" x="0" y="583" data-unformatted="2" data-math="N" transform="translate(381.81,0)" style="font-family: &quot;Open Sans&quot;, verdana, arial, sans-serif; font-size: 20px; fill: rgb(68, 68, 68); fill-opacity: 1; white-space: pre;">2</text></g><g class="xtick"><text text-anchor="middle" x="0" y="583" data-unformatted="3" data-math="N" transform="translate(518.73,0)" style="font-family: &quot;Open Sans&quot;, verdana, arial, sans-serif; font-size: 20px; fill: rgb(68, 68, 68); fill-opacity: 1; white-space: pre;">3</text></g><g class="xtick"><text text-anchor="middle" x="0" y="583" data-unformatted="4" data-math="N" transform="translate(655.64,0)" style="font-family: &quot;Open Sans&quot;, verdana, arial, sans-serif; font-size: 20px; fill: rgb(68, 68, 68); fill-opacity: 1; white-space: pre;">4</text></g></g><g class="yaxislayer-above"><g class="ytick"><text text-anchor="end" x="79" y="2.4499999999999997" data-unformatted="a" data-math="N" transform="translate(0,515.8)" style="font-family: &quot;Open Sans&quot;, verdana, arial, sans-serif; font-size: 7px; fill: rgb(68, 68, 68); fill-opacity: 1; white-space: pre;">a</text></g><g class="ytick"><text text-anchor="end" x="79" y="2.4499999999999997" data-unformatted="b" data-math="N" transform="translate(0,423.4)" style="font-family: &quot;Open Sans&quot;, verdana, arial, sans-serif; font-size: 7px; fill: rgb(68, 68, 68); fill-opacity: 1; white-space: pre;">b</text></g><g class="ytick"><text text-anchor="end" x="79" y="2.4499999999999997" data-unformatted="c" data-math="N" transform="translate(0,331)" style="font-family: &quot;Open Sans&quot;, verdana, arial, sans-serif; font-size: 7px; fill: rgb(68, 68, 68); fill-opacity: 1; white-space: pre;">c</text></g><g class="ytick"><text text-anchor="end" x="79" y="2.4499999999999997" data-unformatted="d" data-math="N" transform="translate(0,238.6)" style="font-family: &quot;Open Sans&quot;, verdana, arial, sans-serif; font-size: 7px; fill: rgb(68, 68, 68); fill-opacity: 1; white-space: pre;">d</text></g><g class="ytick"><text text-anchor="end" x="79" y="2.4499999999999997" data-unformatted="e" data-math="N" transform="translate(0,146.2)" style="font-family: &quot;Open Sans&quot;, verdana, arial, sans-serif; font-size: 7px; fill: rgb(68, 68, 68); fill-opacity: 1; white-space: pre;">e</text></g></g><g class="overaxes-above"></g></g></g><g class="polarlayer"></g><g class="ternarylayer"></g><g class="geolayer"></g><g class="funnelarealayer"></g><g class="pielayer"></g><g class="treemaplayer"></g><g class="sunburstlayer"></g><g class="glimages"></g></svg><div class="gl-container"></div><svg class="main-svg" style="position: absolute" xmlns="http://www.w3.org/2000/svg" xmlns:xlink="http://www.w3.org/1999/xlink" width="904.225352112676" height="642"><defs id="topdefs-6dd593"><g class="clips"></g><clipPath id="legend6dd593"><rect width="168" height="97" x="0" y="0"></rect></clipPath></defs><g class="indicatorlayer"></g><g class="layer-above"><g class="imagelayer"></g><g class="shapelayer"></g></g><g class="infolayer"><g class="legend" pointer-events="all" transform="translate(723.62,100)"><rect class="bg" shape-rendering="crispEdges" style="stroke: rgb(68, 68, 68); stroke-opacity: 1; fill: rgb(255, 255, 255); fill-opacity: 1; stroke-width: 0px;" width="168" height="97" x="0" y="0"></rect><g class="scrollbox" transform="" clip-path="url('#legend6dd593')"><g class="groups"><g class="traces" transform="translate(0,19.5)" style="opacity: 1;"><text class="legendtext" text-anchor="start" x="40" y="7.8" data-unformatted="Spinach" data-math="N" style="font-family: &quot;Open Sans&quot;, verdana, arial, sans-serif; font-size: 20px; fill: rgb(68, 68, 68); fill-opacity: 1; white-space: pre;">Spinach</text><g class="layers" style="opacity: 1;"><g class="legendfill"></g><g class="legendlines"></g><g class="legendsymbols"><g class="legendpoints"><path class="legendbox" d="M6,6H-6V-6H6Z" transform="translate(20,0)" style="stroke-width: 2px; fill: rgb(61, 153, 112); fill-opacity: 0.5; stroke: rgb(61, 153, 112); stroke-opacity: 1;"></path></g></g></g><rect class="legendtoggle" pointer-events="all" x="0" y="-14.5" width="162.59375" height="29" style="cursor: pointer; fill: rgb(0, 0, 0); fill-opacity: 0;"></rect></g><g class="traces" style="opacity: 1;" transform="translate(0,48.5)"><text class="legendtext" text-anchor="start" x="40" y="7.8" data-unformatted="Red Cabbage" data-math="N" style="font-family: &quot;Open Sans&quot;, verdana, arial, sans-serif; font-size: 20px; fill: rgb(68, 68, 68); fill-opacity: 1; white-space: pre;">Red Cabbage</text><g class="layers" style="opacity: 1;"><g class="legendfill"></g><g class="legendlines"></g><g class="legendsymbols"><g class="legendpoints"><path class="legendbox" d="M6,6H-6V-6H6Z" transform="translate(20,0)" style="stroke-width: 2px; fill: rgb(255, 65, 54); fill-opacity: 0.5; stroke: rgb(255, 65, 54); stroke-opacity: 1;"></path></g></g></g><rect class="legendtoggle" pointer-events="all" x="0" y="-14.5" width="162.59375" height="29" style="cursor: pointer; fill: rgb(0, 0, 0); fill-opacity: 0;"></rect></g><g class="traces" style="opacity: 1;" transform="translate(0,77.5)"><text class="legendtext" text-anchor="start" x="40" y="7.8" data-unformatted="Romaine" data-math="N" style="font-family: &quot;Open Sans&quot;, verdana, arial, sans-serif; font-size: 20px; fill: rgb(68, 68, 68); fill-opacity: 1; white-space: pre;">Romaine</text><g class="layers" style="opacity: 1;"><g class="legendfill"></g><g class="legendlines"></g><g class="legendsymbols"><g class="legendpoints"><path class="legendbox" d="M6,6H-6V-6H6Z" transform="translate(20,0)" style="stroke-width: 2px; fill: rgb(255, 133, 27); fill-opacity: 0.5; stroke: rgb(255, 133, 27); stroke-opacity: 1;"></path></g></g></g><rect class="legendtoggle" pointer-events="all" x="0" y="-14.5" width="162.59375" height="29" style="cursor: pointer; fill: rgb(0, 0, 0); fill-opacity: 0;"></rect></g></g></g><rect class="scrollbar" rx="20" ry="3" width="0" height="0" style="fill: rgb(128, 139, 164); fill-opacity: 1;" x="0" y="0"></rect></g><g class="g-gtitle"><text class="gtitle" x="452.112676056338" y="50" text-anchor="middle" dy="0em" data-unformatted="Separation by Concentration and Leaf" data-math="N" style="font-family: &quot;Open Sans&quot;, verdana, arial, sans-serif; font-size: 32px; fill: rgb(68, 68, 68); opacity: 1; font-weight: normal; white-space: pre;">Separation by Concentration and Leaf</text></g><g class="g-xtitle" transform="translate(0,-7)"><text class="xtitle" x="395.5" y="644" text-anchor="middle" data-unformatted="<b>Separation (cm)</b>" data-math="N" style="font-family: &quot;Open Sans&quot;, verdana, arial, sans-serif; font-size: 24px; fill: rgb(68, 68, 68); opacity: 1; font-weight: normal; white-space: pre;"><tspan style="font-weight:bold">Separation (cm)</tspan></text></g><g class="g-ytitle" transform="translate(2,0)"><text class="ytitle" transform="rotate(-90,22,331)" x="22" y="331" text-anchor="middle" data-unformatted="<b>Alcohol Concentration</b>" data-math="N" style="font-family: &quot;Open Sans&quot;, verdana, arial, sans-serif; font-size: 24px; fill: rgb(68, 68, 68); opacity: 1; font-weight: normal; white-space: pre;"><tspan style="font-weight:bold">Alcohol Concentration</tspan></text></g></g><g class="menulayer"></g><g class="zoomlayer"></g></svg><div class="modebar-container" style="position: absolute; top: 0px; right: 0px; width: 100%;"><div id="modebar-6dd593" class="modebar modebar--hover ease-bg"><div class="modebar-group"><a rel="tooltip" class="modebar-btn" data-title="Download plot as a png" data-toggle="false" data-gravity="n"><svg viewBox="0 0 1000 1000" class="icon" height="1em" width="1em"><path d="m500 450c-83 0-150-67-150-150 0-83 67-150 150-150 83 0 150 67 150 150 0 83-67 150-150 150z m400 150h-120c-16 0-34 13-39 29l-31 93c-6 15-23 28-40 28h-340c-16 0-34-13-39-28l-31-94c-6-15-23-28-40-28h-120c-55 0-100-45-100-100v-450c0-55 45-100 100-100h800c55 0 100 45 100 100v450c0 55-45 100-100 100z m-400-550c-138 0-250 112-250 250 0 138 112 250 250 250 138 0 250-112 250-250 0-138-112-250-250-250z m365 380c-19 0-35 16-35 35 0 19 16 35 35 35 19 0 35-16 35-35 0-19-16-35-35-35z" transform="matrix(1 0 0 -1 0 850)"></path></svg></a></div><div class="modebar-group"><a rel="tooltip" class="modebar-btn active" data-title="Zoom" data-attr="dragmode" data-val="zoom" data-toggle="false" data-gravity="n"><svg viewBox="0 0 1000 1000" class="icon" height="1em" width="1em"><path d="m1000-25l-250 251c40 63 63 138 63 218 0 224-182 406-407 406-224 0-406-182-406-406s183-406 407-406c80 0 155 22 218 62l250-250 125 125z m-812 250l0 438 437 0 0-438-437 0z m62 375l313 0 0-312-313 0 0 312z" transform="matrix(1 0 0 -1 0 850)"></path></svg></a><a rel="tooltip" class="modebar-btn" data-title="Pan" data-attr="dragmode" data-val="pan" data-toggle="false" data-gravity="n"><svg viewBox="0 0 1000 1000" class="icon" height="1em" width="1em"><path d="m1000 350l-187 188 0-125-250 0 0 250 125 0-188 187-187-187 125 0 0-250-250 0 0 125-188-188 186-187 0 125 252 0 0-250-125 0 187-188 188 188-125 0 0 250 250 0 0-126 187 188z" transform="matrix(1 0 0 -1 0 850)"></path></svg></a></div><div class="modebar-group"><a rel="tooltip" class="modebar-btn" data-title="Zoom in" data-attr="zoom" data-val="in" data-toggle="false" data-gravity="n"><svg viewBox="0 0 875 1000" class="icon" height="1em" width="1em"><path d="m1 787l0-875 875 0 0 875-875 0z m687-500l-187 0 0-187-125 0 0 187-188 0 0 125 188 0 0 187 125 0 0-187 187 0 0-125z" transform="matrix(1 0 0 -1 0 850)"></path></svg></a><a rel="tooltip" class="modebar-btn" data-title="Zoom out" data-attr="zoom" data-val="out" data-toggle="false" data-gravity="n"><svg viewBox="0 0 875 1000" class="icon" height="1em" width="1em"><path d="m0 788l0-876 875 0 0 876-875 0z m688-500l-500 0 0 125 500 0 0-125z" transform="matrix(1 0 0 -1 0 850)"></path></svg></a><a rel="tooltip" class="modebar-btn" data-title="Autoscale" data-attr="zoom" data-val="auto" data-toggle="false" data-gravity="n"><svg viewBox="0 0 1000 1000" class="icon" height="1em" width="1em"><path d="m250 850l-187 0-63 0 0-62 0-188 63 0 0 188 187 0 0 62z m688 0l-188 0 0-62 188 0 0-188 62 0 0 188 0 62-62 0z m-875-938l0 188-63 0 0-188 0-62 63 0 187 0 0 62-187 0z m875 188l0-188-188 0 0-62 188 0 62 0 0 62 0 188-62 0z m-125 188l-1 0-93-94-156 156 156 156 92-93 2 0 0 250-250 0 0-2 93-92-156-156-156 156 94 92 0 2-250 0 0-250 0 0 93 93 157-156-157-156-93 94 0 0 0-250 250 0 0 0-94 93 156 157 156-157-93-93 0 0 250 0 0 250z" transform="matrix(1 0 0 -1 0 850)"></path></svg></a><a rel="tooltip" class="modebar-btn" data-title="Reset axes" data-attr="zoom" data-val="reset" data-toggle="false" data-gravity="n"><svg viewBox="0 0 928.6 1000" class="icon" height="1em" width="1em"><path d="m786 296v-267q0-15-11-26t-25-10h-214v214h-143v-214h-214q-15 0-25 10t-11 26v267q0 1 0 2t0 2l321 264 321-264q1-1 1-4z m124 39l-34-41q-5-5-12-6h-2q-7 0-12 3l-386 322-386-322q-7-4-13-4-7 2-12 7l-35 41q-4 5-3 13t6 12l401 334q18 15 42 15t43-15l136-114v109q0 8 5 13t13 5h107q8 0 13-5t5-13v-227l122-102q5-5 6-12t-4-13z" transform="matrix(1 0 0 -1 0 850)"></path></svg></a></div><div class="modebar-group"><a rel="tooltip" class="modebar-btn" data-title="Toggle Spike Lines" data-attr="_cartesianSpikesEnabled" data-val="on" data-toggle="false" data-gravity="n"><svg viewBox="0 0 1000 1000" class="icon" height="1em" width="1em"><path d="M512 409c0-57-46-104-103-104-57 0-104 47-104 104 0 57 47 103 104 103 57 0 103-46 103-103z m-327-39l92 0 0 92-92 0z m-185 0l92 0 0 92-92 0z m370-186l92 0 0 93-92 0z m0-184l92 0 0 92-92 0z" transform="matrix(1.5 0 0 -1.5 0 850)"></path></svg></a><a rel="tooltip" class="modebar-btn" data-title="Show closest data on hover" data-attr="hovermode" data-val="closest" data-toggle="false" data-gravity="ne"><svg viewBox="0 0 1500 1000" class="icon" height="1em" width="1em"><path d="m375 725l0 0-375-375 375-374 0-1 1125 0 0 750-1125 0z" transform="matrix(1 0 0 -1 0 850)"></path></svg></a><a rel="tooltip" class="modebar-btn active" data-title="Compare data on hover" data-attr="hovermode" data-val="y" data-toggle="false" data-gravity="ne"><svg viewBox="0 0 1125 1000" class="icon" height="1em" width="1em"><path d="m187 786l0 2-187-188 188-187 0 0 937 0 0 373-938 0z m0-499l0 1-187-188 188-188 0 0 937 0 0 376-938-1z" transform="matrix(1 0 0 -1 0 850)"></path></svg></a></div></div></div><svg class="main-svg" style="position: absolute" xmlns="http://www.w3.org/2000/svg" xmlns:xlink="http://www.w3.org/1999/xlink" width="904.225352112676" height="642"><g class="hoverlayer"></g></svg>