<svg class="main-svg" style="position: absolute" xmlns="http://www.w3.org/2000/svg" xmlns:xlink="http://www.w3.org/1999/xlink" width="904.225352112676" height="642" style="background: rgb(255, 255, 255);"><defs id="defs-1d63ea"><g class="clips"><clipPath id="clip1d63eaxyplot" class="plotclip"><rect width="678" height="462"></rect></clipPath><clipPath class="axesclip" id="clip1d63eax"><rect x="80" y="0" width="678" height="642"></rect></clipPath><clipPath class="axesclip" id="clip1d63eay"><rect x="0" y="100" width="904.225352112676" height="462"></rect></clipPath><clipPath class="axesclip" id="clip1d63eaxy"><rect x="80" y="100" width="678" height="462"></rect></clipPath></g><g class="gradients"></g></defs><g class="bglayer"></g><g class="draglayer cursor-crosshair"><g class="xy"><rect class="nsewdrag drag" data-subplot="xy" x="80" y="100" width="678" height="462" style="fill: transparent; stroke-width: 0; pointer-events: all;"></rect><rect class="nwdrag drag cursor-nw-resize" data-subplot="xy" x="60" y="80" width="20" height="20" style="fill: transparent; stroke-width: 0; pointer-events: all;"></rect><rect class="nedrag drag cursor-ne-resize" data-subplot="xy" x="758" y="80" width="20" height="20" style="fill: transparent; stroke-width: 0; pointer-events: all;"></rect><rect class="swdrag drag cursor-sw-resize" data-subplot="xy" x="60" y="562" width="20" height="20" style="fill: transparent; stroke-width: 0; pointer-events: all;"></rect><rect class="sedrag drag cursor-se-resize" data-subplot="xy" x="758" y="562" width="20" height="20" style="fill: transparent; stroke-width: 0; pointer-events: all;"></rect><rect class="ewdrag drag cursor-ew-resize" data-subplot="xy" x="147.8" y="562.5" width="542.4" height="20" style="fill: transparent; stroke-width: 0; pointer-events: all;"></rect><rect class="wdrag drag cursor-w-resize" data-subplot="xy" x="80" y="562.5" width="67.8" height="20" style="fill: transparent; stroke-width: 0; pointer-events: all;"></rect><rect class="edrag drag cursor-e-resize" data-subplot="xy" x="690.2" y="562.5" width="67.8" height="20" style="fill: transparent; stroke-width: 0; pointer-events: all;"></rect><rect class="nsdrag drag cursor-ns-resize" data-subplot="xy" x="59.5" y="146.2" width="20" height="369.6" style="fill: transparent; stroke-width: 0; pointer-events: all;"></rect><rect class="sdrag drag cursor-s-resize" data-subplot="xy" x="59.5" y="515.8" width="20" height="46.2" style="fill: transparent; stroke-width: 0; pointer-events: all;"></rect><rect class="ndrag drag cursor-n-resize" data-subplot="xy" x="59.5" y="100" width="20" height="46.2" style="fill: transparent; stroke-width: 0; pointer-events: all;"></rect></g></g><g class="layer-below"><g class="imagelayer"></g><g class="shapelayer"></g></g><g class="cartesianlayer"><g class="subplot xy"><g class="layer-subplot"><g class="shapelayer"></g><g class="imagelayer"></g></g><g class="gridlayer"><g class="x"></g><g class="y"><path class="ygrid crisp" transform="translate(0,560.6600000000001)" d="M80,0h678" style="stroke: rgb(238, 238, 238); stroke-opacity: 1; stroke-width: 1px;"></path><path class="ygrid crisp" transform="translate(0,472.57)" d="M80,0h678" style="stroke: rgb(238, 238, 238); stroke-opacity: 1; stroke-width: 1px;"></path><path class="ygrid crisp" transform="translate(0,384.49)" d="M80,0h678" style="stroke: rgb(238, 238, 238); stroke-opacity: 1; stroke-width: 1px;"></path><path class="ygrid crisp" transform="translate(0,296.40999999999997)" d="M80,0h678" style="stroke: rgb(238, 238, 238); stroke-opacity: 1; stroke-width: 1px;"></path><path class="ygrid crisp" transform="translate(0,208.32999999999998)" d="M80,0h678" style="stroke: rgb(238, 238, 238); stroke-opacity: 1; stroke-width: 1px;"></path><path class="ygrid crisp" transform="translate(0,120.25)" d="M80,0h678" style="stroke: rgb(238, 238, 238); stroke-opacity: 1; stroke-width: 1px;"></path></g></g><g class="zerolinelayer"></g><path class="xlines-below"></path><path class="ylines-below"></path><g class="overlines-below"></g><g class="xaxislayer-below"></g><g class="yaxislayer-below"></g><g class="overaxes-below"></g><g class="plot" transform="translate(80,100)" clip-path="url('#clip1d63eaxyplot')"><g class="boxlayer mlayer"><g class="trace boxes" style="opacity: 1;"><path class="box" d="M86.35,56.19H135.2M86.35,141.05H135.2V38.99H86.35ZM110.77,141.05V184.1M110.77,38.99V29.64M98.56,184.1H122.99M98.56,29.64H122.99" style="vector-effect: non-scaling-stroke; stroke-width: 2px; stroke: rgb(55, 31, 180); stroke-opacity: 1; fill: rgb(63, 106, 213); fill-opacity: 0.52;"></path><path class="box" d="M285.73,34.27H334.57M285.73,61.88H334.57V29.95H285.73ZM310.15,61.88V89.86M310.15,29.95V25.92M297.94,89.86H322.36M297.94,25.92H322.36" style="vector-effect: non-scaling-stroke; stroke-width: 2px; stroke: rgb(55, 31, 180); stroke-opacity: 1; fill: rgb(63, 106, 213); fill-opacity: 0.52;"></path><path class="box" d="M485.1,27.38H533.95M485.1,42.1H533.95V25.15H485.1ZM509.52,42.1V56.74M509.52,25.15V23.1M497.31,56.74H521.73M497.31,23.1H521.73" style="vector-effect: non-scaling-stroke; stroke-width: 2px; stroke: rgb(55, 31, 180); stroke-opacity: 1; fill: rgb(63, 106, 213); fill-opacity: 0.52;"></path><g class="points"><path class="point" transform="translate(76.12,184.1)" d="M-5.77,2.5H5.77L0,-5ZM0,0.5L0.5,0L0,-0.5L-0.5,0Z" style="opacity: 1; stroke: rgb(245, 23, 32); stroke-opacity: 1; stroke-width: 1px; fill: none;"></path><path class="point" transform="translate(71.5,145.03)" d="M-5.77,2.5H5.77L0,-5ZM0,0.5L0.5,0L0,-0.5L-0.5,0Z" style="opacity: 1; stroke: rgb(245, 23, 32); stroke-opacity: 1; stroke-width: 1px; fill: none;"></path><path class="point" transform="translate(77.56,141.05)" d="M-5.77,2.5H5.77L0,-5ZM0,0.5L0.5,0L0,-0.5L-0.5,0Z" style="opacity: 1; stroke: rgb(245, 23, 32); stroke-opacity: 1; stroke-width: 1px; fill: none;"></path><path class="point" transform="translate(70.19,93.34)" d="M-5.77,2.5H5.77L0,-5ZM0,0.5L0.5,0L0,-0.5L-0.5,0Z" style="opacity: 1; stroke: rgb(245, 23, 32); stroke-opacity: 1; stroke-width: 1px; fill: none;"></path><path class="point" transform="translate(72.94,67.29)" d="M-5.77,2.5H5.77L0,-5ZM0,0.5L0.5,0L0,-0.5L-0.5,0Z" style="opacity: 1; stroke: rgb(245, 23, 32); stroke-opacity: 1; stroke-width: 1px; fill: none;"></path><path class="point" transform="translate(76.69,45.1)" d="M-5.77,2.5H5.77L0,-5ZM0,0.5L0.5,0L0,-0.5L-0.5,0Z" style="opacity: 1; stroke: rgb(245, 23, 32); stroke-opacity: 1; stroke-width: 1px; fill: none;"></path><path class="point" transform="translate(73.94,42.35)" d="M-5.77,2.5H5.77L0,-5ZM0,0.5L0.5,0L0,-0.5L-0.5,0Z" style="opacity: 1; stroke: rgb(245, 23, 32); stroke-opacity: 1; stroke-width: 1px; fill: none;"></path><path class="point" transform="translate(75.6,38.99)" d="M-5.77,2.5H5.77L0,-5ZM0,0.5L0.5,0L0,-0.5L-0.5,0Z" style="opacity: 1; stroke: rgb(245, 23, 32); stroke-opacity: 1; stroke-width: 1px; fill: none;"></path><path class="point" transform="translate(72.17,35.82)" d="M-5.77,2.5H5.77L0,-5ZM0,0.5L0.5,0L0,-0.5L-0.5,0Z" style="opacity: 1; stroke: rgb(245, 23, 32); stroke-opacity: 1; stroke-width: 1px; fill: none;"></path><path class="point" transform="translate(68.77,29.64)" d="M-5.77,2.5H5.77L0,-5ZM0,0.5L0.5,0L0,-0.5L-0.5,0Z" style="opacity: 1; stroke: rgb(245, 23, 32); stroke-opacity: 1; stroke-width: 1px; fill: none;"></path></g><g class="points"><path class="point" transform="translate(274.36,89.86)" d="M-5.77,2.5H5.77L0,-5ZM0,0.5L0.5,0L0,-0.5L-0.5,0Z" style="opacity: 1; stroke: rgb(245, 23, 32); stroke-opacity: 1; stroke-width: 1px; fill: none;"></path><path class="point" transform="translate(272.38,87.64)" d="M-5.77,2.5H5.77L0,-5ZM0,0.5L0.5,0L0,-0.5L-0.5,0Z" style="opacity: 1; stroke: rgb(245, 23, 32); stroke-opacity: 1; stroke-width: 1px; fill: none;"></path><path class="point" transform="translate(275.85,61.88)" d="M-5.77,2.5H5.77L0,-5ZM0,0.5L0.5,0L0,-0.5L-0.5,0Z" style="opacity: 1; stroke: rgb(245, 23, 32); stroke-opacity: 1; stroke-width: 1px; fill: none;"></path><path class="point" transform="translate(269.7,52.08)" d="M-5.77,2.5H5.77L0,-5ZM0,0.5L0.5,0L0,-0.5L-0.5,0Z" style="opacity: 1; stroke: rgb(245, 23, 32); stroke-opacity: 1; stroke-width: 1px; fill: none;"></path><path class="point" transform="translate(271.17,36.75)" d="M-5.77,2.5H5.77L0,-5ZM0,0.5L0.5,0L0,-0.5L-0.5,0Z" style="opacity: 1; stroke: rgb(245, 23, 32); stroke-opacity: 1; stroke-width: 1px; fill: none;"></path><path class="point" transform="translate(277.09,31.8)" d="M-5.77,2.5H5.77L0,-5ZM0,0.5L0.5,0L0,-0.5L-0.5,0Z" style="opacity: 1; stroke: rgb(245, 23, 32); stroke-opacity: 1; stroke-width: 1px; fill: none;"></path><path class="point" transform="translate(272.54,31.25)" d="M-5.77,2.5H5.77L0,-5ZM0,0.5L0.5,0L0,-0.5L-0.5,0Z" style="opacity: 1; stroke: rgb(245, 23, 32); stroke-opacity: 1; stroke-width: 1px; fill: none;"></path><path class="point" transform="translate(269.43,29.95)" d="M-5.77,2.5H5.77L0,-5ZM0,0.5L0.5,0L0,-0.5L-0.5,0Z" style="opacity: 1; stroke: rgb(245, 23, 32); stroke-opacity: 1; stroke-width: 1px; fill: none;"></path><path class="point" transform="translate(271.81,29.14)" d="M-5.77,2.5H5.77L0,-5ZM0,0.5L0.5,0L0,-0.5L-0.5,0Z" style="opacity: 1; stroke: rgb(245, 23, 32); stroke-opacity: 1; stroke-width: 1px; fill: none;"></path><path class="point" transform="translate(273.36,25.92)" d="M-5.77,2.5H5.77L0,-5ZM0,0.5L0.5,0L0,-0.5L-0.5,0Z" style="opacity: 1; stroke: rgb(245, 23, 32); stroke-opacity: 1; stroke-width: 1px; fill: none;"></path></g><g class="points"><path class="point" transform="translate(474.08,68.52)" d="M-5.77,2.5H5.77L0,-5ZM0,0.5L0.5,0L0,-0.5L-0.5,0Z" style="opacity: 1; stroke: rgb(245, 23, 32); stroke-opacity: 1; stroke-width: 1px; fill: none;"></path><path class="point" transform="translate(473.21,56.74)" d="M-5.77,2.5H5.77L0,-5ZM0,0.5L0.5,0L0,-0.5L-0.5,0Z" style="opacity: 1; stroke: rgb(245, 23, 32); stroke-opacity: 1; stroke-width: 1px; fill: none;"></path><path class="point" transform="translate(472.01,42.1)" d="M-5.77,2.5H5.77L0,-5ZM0,0.5L0.5,0L0,-0.5L-0.5,0Z" style="opacity: 1; stroke: rgb(245, 23, 32); stroke-opacity: 1; stroke-width: 1px; fill: none;"></path><path class="point" transform="translate(470.13,36.76)" d="M-5.77,2.5H5.77L0,-5ZM0,0.5L0.5,0L0,-0.5L-0.5,0Z" style="opacity: 1; stroke: rgb(245, 23, 32); stroke-opacity: 1; stroke-width: 1px; fill: none;"></path><path class="point" transform="translate(472.88,28.65)" d="M-5.77,2.5H5.77L0,-5ZM0,0.5L0.5,0L0,-0.5L-0.5,0Z" style="opacity: 1; stroke: rgb(245, 23, 32); stroke-opacity: 1; stroke-width: 1px; fill: none;"></path><path class="point" transform="translate(471.88,26.1)" d="M-5.77,2.5H5.77L0,-5ZM0,0.5L0.5,0L0,-0.5L-0.5,0Z" style="opacity: 1; stroke: rgb(245, 23, 32); stroke-opacity: 1; stroke-width: 1px; fill: none;"></path><path class="point" transform="translate(474.64,25.82)" d="M-5.77,2.5H5.77L0,-5ZM0,0.5L0.5,0L0,-0.5L-0.5,0Z" style="opacity: 1; stroke: rgb(245, 23, 32); stroke-opacity: 1; stroke-width: 1px; fill: none;"></path><path class="point" transform="translate(472.47,25.15)" d="M-5.77,2.5H5.77L0,-5ZM0,0.5L0.5,0L0,-0.5L-0.5,0Z" style="opacity: 1; stroke: rgb(245, 23, 32); stroke-opacity: 1; stroke-width: 1px; fill: none;"></path><path class="point" transform="translate(469.54,24.74)" d="M-5.77,2.5H5.77L0,-5ZM0,0.5L0.5,0L0,-0.5L-0.5,0Z" style="opacity: 1; stroke: rgb(245, 23, 32); stroke-opacity: 1; stroke-width: 1px; fill: none;"></path><path class="point" transform="translate(466.05,23.1)" d="M-5.77,2.5H5.77L0,-5ZM0,0.5L0.5,0L0,-0.5L-0.5,0Z" style="opacity: 1; stroke: rgb(245, 23, 32); stroke-opacity: 1; stroke-width: 1px; fill: none;"></path></g></g><g class="trace boxes" style="opacity: 1;"><path class="box" d="M156.13,138.82H204.98M156.13,293.86H204.98V66.4H156.13ZM180.56,293.86V368.87M180.56,66.4V43.62M168.34,368.87H192.77M168.34,43.62H192.77" style="vector-effect: non-scaling-stroke; stroke-width: 2px; stroke: rgb(247, 7, 153); stroke-opacity: 1; fill: rgb(255, 5, 151); fill-opacity: 0.39;"></path><path class="box" d="M355.51,76.51H404.35M355.51,194.85H404.35V36.39H355.51ZM379.93,194.85V278.23M379.93,36.39V29.9M367.72,278.23H392.14M367.72,29.9H392.14" style="vector-effect: non-scaling-stroke; stroke-width: 2px; stroke: rgb(247, 7, 153); stroke-opacity: 1; fill: rgb(255, 5, 151); fill-opacity: 0.39;"></path><path class="box" d="M554.88,50.75H603.73M554.88,202.67H603.73V28.47H554.88ZM579.3,202.67V419.19M579.3,28.47V25.13M567.09,419.19H591.52M567.09,25.13H591.52" style="vector-effect: non-scaling-stroke; stroke-width: 2px; stroke: rgb(247, 7, 153); stroke-opacity: 1; fill: rgb(255, 5, 151); fill-opacity: 0.39;"></path><g class="points"><path class="point" transform="translate(146.54,368.87)" d="M1.58,-2.16H6.66L2.54,0.83L4.12,5.66L0,2.67L-4.12,5.66L-2.54,0.83L-6.66,-2.16H-1.58L0,-7ZM0,0.5L0.5,0L0,-0.5L-0.5,0Z" style="opacity: 1; stroke: rgb(249, 118, 0); stroke-opacity: 1; stroke-width: 1px; fill: none;"></path><path class="point" transform="translate(140.48,323.32)" d="M1.58,-2.16H6.66L2.54,0.83L4.12,5.66L0,2.67L-4.12,5.66L-2.54,0.83L-6.66,-2.16H-1.58L0,-7ZM0,0.5L0.5,0L0,-0.5L-0.5,0Z" style="opacity: 1; stroke: rgb(249, 118, 0); stroke-opacity: 1; stroke-width: 1px; fill: none;"></path><path class="point" transform="translate(148.19,293.86)" d="M1.58,-2.16H6.66L2.54,0.83L4.12,5.66L0,2.67L-4.12,5.66L-2.54,0.83L-6.66,-2.16H-1.58L0,-7ZM0,0.5L0.5,0L0,-0.5L-0.5,0Z" style="opacity: 1; stroke: rgb(249, 118, 0); stroke-opacity: 1; stroke-width: 1px; fill: none;"></path><path class="point" transform="translate(139.01,197.42)" d="M1.58,-2.16H6.66L2.54,0.83L4.12,5.66L0,2.67L-4.12,5.66L-2.54,0.83L-6.66,-2.16H-1.58L0,-7ZM0,0.5L0.5,0L0,-0.5L-0.5,0Z" style="opacity: 1; stroke: rgb(249, 118, 0); stroke-opacity: 1; stroke-width: 1px; fill: none;"></path><path class="point" transform="translate(142.44,165.7)" d="M1.58,-2.16H6.66L2.54,0.83L4.12,5.66L0,2.67L-4.12,5.66L-2.54,0.83L-6.66,-2.16H-1.58L0,-7ZM0,0.5L0.5,0L0,-0.5L-0.5,0Z" style="opacity: 1; stroke: rgb(249, 118, 0); stroke-opacity: 1; stroke-width: 1px; fill: none;"></path><path class="point" transform="translate(147.08,111.93)" d="M1.58,-2.16H6.66L2.54,0.83L4.12,5.66L0,2.67L-4.12,5.66L-2.54,0.83L-6.66,-2.16H-1.58L0,-7ZM0,0.5L0.5,0L0,-0.5L-0.5,0Z" style="opacity: 1; stroke: rgb(249, 118, 0); stroke-opacity: 1; stroke-width: 1px; fill: none;"></path><path class="point" transform="translate(143.69,99.56)" d="M1.58,-2.16H6.66L2.54,0.83L4.12,5.66L0,2.67L-4.12,5.66L-2.54,0.83L-6.66,-2.16H-1.58L0,-7ZM0,0.5L0.5,0L0,-0.5L-0.5,0Z" style="opacity: 1; stroke: rgb(249, 118, 0); stroke-opacity: 1; stroke-width: 1px; fill: none;"></path><path class="point" transform="translate(145.68,66.4)" d="M1.58,-2.16H6.66L2.54,0.83L4.12,5.66L0,2.67L-4.12,5.66L-2.54,0.83L-6.66,-2.16H-1.58L0,-7ZM0,0.5L0.5,0L0,-0.5L-0.5,0Z" style="opacity: 1; stroke: rgb(249, 118, 0); stroke-opacity: 1; stroke-width: 1px; fill: none;"></path><path class="point" transform="translate(141.64,58.27)" d="M1.58,-2.16H6.66L2.54,0.83L4.12,5.66L0,2.67L-4.12,5.66L-2.54,0.83L-6.66,-2.16H-1.58L0,-7ZM0,0.5L0.5,0L0,-0.5L-0.5,0Z" style="opacity: 1; stroke: rgb(249, 118, 0); stroke-opacity: 1; stroke-width: 1px; fill: none;"></path><path class="point" transform="translate(138.55,43.62)" d="M1.58,-2.16H6.66L2.54,0.83L4.12,5.66L0,2.67L-4.12,5.66L-2.54,0.83L-6.66,-2.16H-1.58L0,-7ZM0,0.5L0.5,0L0,-0.5L-0.5,0Z" style="opacity: 1; stroke: rgb(249, 118, 0); stroke-opacity: 1; stroke-width: 1px; fill: none;"></path></g><g class="points"><path class="point" transform="translate(344.14,438.9)" d="M1.58,-2.16H6.66L2.54,0.83L4.12,5.66L0,2.67L-4.12,5.66L-2.54,0.83L-6.66,-2.16H-1.58L0,-7ZM0,0.5L0.5,0L0,-0.5L-0.5,0Z" style="opacity: 1; stroke: rgb(249, 118, 0); stroke-opacity: 1; stroke-width: 1px; fill: none;"></path><path class="point" transform="translate(342.16,278.23)" d="M1.58,-2.16H6.66L2.54,0.83L4.12,5.66L0,2.67L-4.12,5.66L-2.54,0.83L-6.66,-2.16H-1.58L0,-7ZM0,0.5L0.5,0L0,-0.5L-0.5,0Z" style="opacity: 1; stroke: rgb(249, 118, 0); stroke-opacity: 1; stroke-width: 1px; fill: none;"></path><path class="point" transform="translate(345.62,194.85)" d="M1.58,-2.16H6.66L2.54,0.83L4.12,5.66L0,2.67L-4.12,5.66L-2.54,0.83L-6.66,-2.16H-1.58L0,-7ZM0,0.5L0.5,0L0,-0.5L-0.5,0Z" style="opacity: 1; stroke: rgb(249, 118, 0); stroke-opacity: 1; stroke-width: 1px; fill: none;"></path><path class="point" transform="translate(339.48,119.73)" d="M1.58,-2.16H6.66L2.54,0.83L4.12,5.66L0,2.67L-4.12,5.66L-2.54,0.83L-6.66,-2.16H-1.58L0,-7ZM0,0.5L0.5,0L0,-0.5L-0.5,0Z" style="opacity: 1; stroke: rgb(249, 118, 0); stroke-opacity: 1; stroke-width: 1px; fill: none;"></path><path class="point" transform="translate(340.91,102.08)" d="M1.58,-2.16H6.66L2.54,0.83L4.12,5.66L0,2.67L-4.12,5.66L-2.54,0.83L-6.66,-2.16H-1.58L0,-7ZM0,0.5L0.5,0L0,-0.5L-0.5,0Z" style="opacity: 1; stroke: rgb(249, 118, 0); stroke-opacity: 1; stroke-width: 1px; fill: none;"></path><path class="point" transform="translate(346.95,50.95)" d="M1.58,-2.16H6.66L2.54,0.83L4.12,5.66L0,2.67L-4.12,5.66L-2.54,0.83L-6.66,-2.16H-1.58L0,-7ZM0,0.5L0.5,0L0,-0.5L-0.5,0Z" style="opacity: 1; stroke: rgb(249, 118, 0); stroke-opacity: 1; stroke-width: 1px; fill: none;"></path><path class="point" transform="translate(342.04,44.22)" d="M1.58,-2.16H6.66L2.54,0.83L4.12,5.66L0,2.67L-4.12,5.66L-2.54,0.83L-6.66,-2.16H-1.58L0,-7ZM0,0.5L0.5,0L0,-0.5L-0.5,0Z" style="opacity: 1; stroke: rgb(249, 118, 0); stroke-opacity: 1; stroke-width: 1px; fill: none;"></path><path class="point" transform="translate(338.37,36.39)" d="M1.58,-2.16H6.66L2.54,0.83L4.12,5.66L0,2.67L-4.12,5.66L-2.54,0.83L-6.66,-2.16H-1.58L0,-7ZM0,0.5L0.5,0L0,-0.5L-0.5,0Z" style="opacity: 1; stroke: rgb(249, 118, 0); stroke-opacity: 1; stroke-width: 1px; fill: none;"></path><path class="point" transform="translate(340.92,35.54)" d="M1.58,-2.16H6.66L2.54,0.83L4.12,5.66L0,2.67L-4.12,5.66L-2.54,0.83L-6.66,-2.16H-1.58L0,-7ZM0,0.5L0.5,0L0,-0.5L-0.5,0Z" style="opacity: 1; stroke: rgb(249, 118, 0); stroke-opacity: 1; stroke-width: 1px; fill: none;"></path><path class="point" transform="translate(343.14,29.9)" d="M1.58,-2.16H6.66L2.54,0.83L4.12,5.66L0,2.67L-4.12,5.66L-2.54,0.83L-6.66,-2.16H-1.58L0,-7ZM0,0.5L0.5,0L0,-0.5L-0.5,0Z" style="opacity: 1; stroke: rgb(249, 118, 0); stroke-opacity: 1; stroke-width: 1px; fill: none;"></path></g><g class="points"><path class="point" transform="translate(543.74,419.19)" d="M1.58,-2.16H6.66L2.54,0.83L4.12,5.66L0,2.67L-4.12,5.66L-2.54,0.83L-6.66,-2.16H-1.58L0,-7ZM0,0.5L0.5,0L0,-0.5L-0.5,0Z" style="opacity: 1; stroke: rgb(249, 118, 0); stroke-opacity: 1; stroke-width: 1px; fill: none;"></path><path class="point" transform="translate(542.96,210.59)" d="M1.58,-2.16H6.66L2.54,0.83L4.12,5.66L0,2.67L-4.12,5.66L-2.54,0.83L-6.66,-2.16H-1.58L0,-7ZM0,0.5L0.5,0L0,-0.5L-0.5,0Z" style="opacity: 1; stroke: rgb(249, 118, 0); stroke-opacity: 1; stroke-width: 1px; fill: none;"></path><path class="point" transform="translate(541.88,202.67)" d="M1.58,-2.16H6.66L2.54,0.83L4.12,5.66L0,2.67L-4.12,5.66L-2.54,0.83L-6.66,-2.16H-1.58L0,-7ZM0,0.5L0.5,0L0,-0.5L-0.5,0Z" style="opacity: 1; stroke: rgb(249, 118, 0); stroke-opacity: 1; stroke-width: 1px; fill: none;"></path><path class="point" transform="translate(540.18,76.32)" d="M1.58,-2.16H6.66L2.54,0.83L4.12,5.66L0,2.67L-4.12,5.66L-2.54,0.83L-6.66,-2.16H-1.58L0,-7ZM0,0.5L0.5,0L0,-0.5L-0.5,0Z" style="opacity: 1; stroke: rgb(249, 118, 0); stroke-opacity: 1; stroke-width: 1px; fill: none;"></path><path class="point" transform="translate(542.66,65.35)" d="M1.58,-2.16H6.66L2.54,0.83L4.12,5.66L0,2.67L-4.12,5.66L-2.54,0.83L-6.66,-2.16H-1.58L0,-7ZM0,0.5L0.5,0L0,-0.5L-0.5,0Z" style="opacity: 1; stroke: rgb(249, 118, 0); stroke-opacity: 1; stroke-width: 1px; fill: none;"></path><path class="point" transform="translate(541.75,36.15)" d="M1.58,-2.16H6.66L2.54,0.83L4.12,5.66L0,2.67L-4.12,5.66L-2.54,0.83L-6.66,-2.16H-1.58L0,-7ZM0,0.5L0.5,0L0,-0.5L-0.5,0Z" style="opacity: 1; stroke: rgb(249, 118, 0); stroke-opacity: 1; stroke-width: 1px; fill: none;"></path><path class="point" transform="translate(544.68,32.57)" d="M1.58,-2.16H6.66L2.54,0.83L4.12,5.66L0,2.67L-4.12,5.66L-2.54,0.83L-6.66,-2.16H-1.58L0,-7ZM0,0.5L0.5,0L0,-0.5L-0.5,0Z" style="opacity: 1; stroke: rgb(249, 118, 0); stroke-opacity: 1; stroke-width: 1px; fill: none;"></path><path class="point" transform="translate(542.3,28.47)" d="M1.58,-2.16H6.66L2.54,0.83L4.12,5.66L0,2.67L-4.12,5.66L-2.54,0.83L-6.66,-2.16H-1.58L0,-7ZM0,0.5L0.5,0L0,-0.5L-0.5,0Z" style="opacity: 1; stroke: rgb(249, 118, 0); stroke-opacity: 1; stroke-width: 1px; fill: none;"></path><path class="point" transform="translate(538.01,28.03)" d="M1.58,-2.16H6.66L2.54,0.83L4.12,5.66L0,2.67L-4.12,5.66L-2.54,0.83L-6.66,-2.16H-1.58L0,-7ZM0,0.5L0.5,0L0,-0.5L-0.5,0Z" style="opacity: 1; stroke: rgb(249, 118, 0); stroke-opacity: 1; stroke-width: 1px; fill: none;"></path><path class="point" transform="translate(535.83,25.13)" d="M1.58,-2.16H6.66L2.54,0.83L4.12,5.66L0,2.67L-4.12,5.66L-2.54,0.83L-6.66,-2.16H-1.58L0,-7ZM0,0.5L0.5,0L0,-0.5L-0.5,0Z" style="opacity: 1; stroke: rgb(249, 118, 0); stroke-opacity: 1; stroke-width: 1px; fill: none;"></path></g></g></g></g><g class="overplot"></g><path class="xlines-above crisp" d="M0,0" style="fill: none;"></path><path class="ylines-above crisp" style="fill: none;" d="M0,0"></path><g class="overlines-above"></g><g class="xaxislayer-above"><g class="xtick"><text text-anchor="middle" x="0" y="575" data-unformatted="Figure of Merit, F" data-math="N" transform="translate(225.66,0)" style="font-family: Arial; font-size: 12px; fill: rgb(68, 68, 68); fill-opacity: 1; white-space: pre;">Figure of Merit, F</text></g><g class="xtick"><text text-anchor="middle" x="0" y="575" data-unformatted="Jaccard Index, JI" data-math="N" transform="translate(425.04,0)" style="font-family: Arial; font-size: 12px; fill: rgb(68, 68, 68); fill-opacity: 1; white-space: pre;">Jaccard Index, JI</text></g><g class="xtick"><text text-anchor="middle" x="0" y="575" data-unformatted="Dice Similarity Coefficient, DSC" data-math="N" transform="translate(624.41,0)" style="font-family: Arial; font-size: 12px; fill: rgb(68, 68, 68); fill-opacity: 1; white-space: pre;">Dice Similarity Coefficient, DSC</text></g></g><g class="yaxislayer-above"><g class="ytick"><text text-anchor="end" x="79" y="4.199999999999999" data-unformatted="0" data-math="N" transform="translate(0,560.6600000000001)" style="font-family: Arial; font-size: 12px; fill: rgb(68, 68, 68); fill-opacity: 1; white-space: pre;">0</text></g><g class="ytick"><text text-anchor="end" x="79" y="4.199999999999999" data-unformatted="0.2" data-math="N" transform="translate(0,472.57)" style="font-family: Arial; font-size: 12px; fill: rgb(68, 68, 68); fill-opacity: 1; white-space: pre;">0.2</text></g><g class="ytick"><text text-anchor="end" x="79" y="4.199999999999999" data-unformatted="0.4" data-math="N" transform="translate(0,384.49)" style="font-family: Arial; font-size: 12px; fill: rgb(68, 68, 68); fill-opacity: 1; white-space: pre;">0.4</text></g><g class="ytick"><text text-anchor="end" x="79" y="4.199999999999999" data-unformatted="0.6" data-math="N" transform="translate(0,296.40999999999997)" style="font-family: Arial; font-size: 12px; fill: rgb(68, 68, 68); fill-opacity: 1; white-space: pre;">0.6</text></g><g class="ytick"><text text-anchor="end" x="79" y="4.199999999999999" data-unformatted="0.8" data-math="N" transform="translate(0,208.32999999999998)" style="font-family: Arial; font-size: 12px; fill: rgb(68, 68, 68); fill-opacity: 1; white-space: pre;">0.8</text></g><g class="ytick"><text text-anchor="end" x="79" y="4.199999999999999" data-unformatted="1" data-math="N" transform="translate(0,120.25)" style="font-family: Arial; font-size: 12px; fill: rgb(68, 68, 68); fill-opacity: 1; white-space: pre;">1</text></g></g><g class="overaxes-above"></g></g></g><g class="polarlayer"></g><g class="ternarylayer"></g><g class="geolayer"></g><g class="funnelarealayer"></g><g class="pielayer"></g><g class="treemaplayer"></g><g class="sunburstlayer"></g><g class="glimages"></g></svg><div class="gl-container"></div><svg class="main-svg" style="position: absolute" xmlns="http://www.w3.org/2000/svg" xmlns:xlink="http://www.w3.org/1999/xlink" width="904.225352112676" height="642"><defs id="topdefs-1d63ea"><g class="clips"></g><clipPath id="legend1d63ea"><rect width="120" height="48" x="0" y="0"></rect></clipPath></defs><g class="indicatorlayer"></g><g class="layer-above"><g class="imagelayer"></g><g class="shapelayer"></g></g><g class="infolayer"><g class="legend" pointer-events="all" transform="translate(771.5600000000001,100)"><rect class="bg" shape-rendering="crispEdges" style="stroke: rgb(68, 68, 68); stroke-opacity: 1; fill: rgb(255, 255, 255); fill-opacity: 1; stroke-width: 0px;" width="120" height="48" x="0" y="0"></rect><g class="scrollbox" transform="" clip-path="url('#legend1d63ea')"><g class="groups"><g class="traces" transform="translate(0,14.5)" style="opacity: 1;"><text class="legendtext" text-anchor="start" x="40" y="4.680000000000001" data-unformatted="Hybrid Method" data-math="N" style="font-family: &quot;Times New Roman&quot;; font-size: 12px; fill: rgb(68, 68, 68); fill-opacity: 1; white-space: pre;">Hybrid Method</text><g class="layers" style="opacity: 1;"><g class="legendfill"></g><g class="legendlines"></g><g class="legendsymbols"><g class="legendpoints"><path class="legendbox" d="M6,6H-6V-6H6Z" transform="translate(20,0)" style="stroke-width: 2px; fill: rgb(63, 106, 213); fill-opacity: 0.52; stroke: rgb(55, 31, 180); stroke-opacity: 1;"></path></g></g></g><rect class="legendtoggle" pointer-events="all" x="0" y="-9.5" width="114.359375" height="19" style="cursor: pointer; fill: rgb(0, 0, 0); fill-opacity: 0;"></rect></g><g class="traces" style="opacity: 1;" transform="translate(0,33.5)"><text class="legendtext" text-anchor="start" x="40" y="4.680000000000001" data-unformatted="SBRG Method" data-math="N" style="font-family: &quot;Times New Roman&quot;; font-size: 12px; fill: rgb(68, 68, 68); fill-opacity: 1; white-space: pre;">SBRG Method</text><g class="layers" style="opacity: 1;"><g class="legendfill"></g><g class="legendlines"></g><g class="legendsymbols"><g class="legendpoints"><path class="legendbox" d="M6,6H-6V-6H6Z" transform="translate(20,0)" style="stroke-width: 2px; fill: rgb(255, 5, 151); fill-opacity: 0.39; stroke: rgb(247, 7, 153); stroke-opacity: 1;"></path></g></g></g><rect class="legendtoggle" pointer-events="all" x="0" y="-9.5" width="114.359375" height="19" style="cursor: pointer; fill: rgb(0, 0, 0); fill-opacity: 0;"></rect></g></g></g><rect class="scrollbar" rx="20" ry="3" width="0" height="0" style="fill: rgb(128, 139, 164); fill-opacity: 1;" x="0" y="0"></rect></g><g class="g-gtitle"></g><g class="g-xtitle"><text class="xtitle" x="419" y="608" text-anchor="middle" data-unformatted="Segmentation Evaluation Method" data-math="N" style="font-family: Arial; font-size: 12px; fill: rgb(68, 68, 68); opacity: 1; font-weight: normal; white-space: pre;">Segmentation Evaluation Method</text></g><g class="g-ytitle"><text class="ytitle" transform="rotate(-90,46,331)" x="46" y="331" text-anchor="middle" data-unformatted="Evaluation Value" data-math="N" style="font-family: Arial; font-size: 12px; fill: rgb(68, 68, 68); opacity: 1; font-weight: normal; white-space: pre;">Evaluation Value</text></g></g><g class="menulayer"></g><g class="zoomlayer"></g></svg><div class="modebar-container" style="position: absolute; top: 0px; right: 0px; width: 100%;"><div id="modebar-1d63ea" class="modebar modebar--hover ease-bg"><div class="modebar-group"><a rel="tooltip" class="modebar-btn" data-title="Download plot as a png" data-toggle="false" data-gravity="n"><svg viewBox="0 0 1000 1000" class="icon" height="1em" width="1em"><path d="m500 450c-83 0-150-67-150-150 0-83 67-150 150-150 83 0 150 67 150 150 0 83-67 150-150 150z m400 150h-120c-16 0-34 13-39 29l-31 93c-6 15-23 28-40 28h-340c-16 0-34-13-39-28l-31-94c-6-15-23-28-40-28h-120c-55 0-100-45-100-100v-450c0-55 45-100 100-100h800c55 0 100 45 100 100v450c0 55-45 100-100 100z m-400-550c-138 0-250 112-250 250 0 138 112 250 250 250 138 0 250-112 250-250 0-138-112-250-250-250z m365 380c-19 0-35 16-35 35 0 19 16 35 35 35 19 0 35-16 35-35 0-19-16-35-35-35z" transform="matrix(1 0 0 -1 0 850)"></path></svg></a></div><div class="modebar-group"><a rel="tooltip" class="modebar-btn active" data-title="Zoom" data-attr="dragmode" data-val="zoom" data-toggle="false" data-gravity="n"><svg viewBox="0 0 1000 1000" class="icon" height="1em" width="1em"><path d="m1000-25l-250 251c40 63 63 138 63 218 0 224-182 406-407 406-224 0-406-182-406-406s183-406 407-406c80 0 155 22 218 62l250-250 125 125z m-812 250l0 438 437 0 0-438-437 0z m62 375l313 0 0-312-313 0 0 312z" transform="matrix(1 0 0 -1 0 850)"></path></svg></a><a rel="tooltip" class="modebar-btn" data-title="Pan" data-attr="dragmode" data-val="pan" data-toggle="false" data-gravity="n"><svg viewBox="0 0 1000 1000" class="icon" height="1em" width="1em"><path d="m1000 350l-187 188 0-125-250 0 0 250 125 0-188 187-187-187 125 0 0-250-250 0 0 125-188-188 186-187 0 125 252 0 0-250-125 0 187-188 188 188-125 0 0 250 250 0 0-126 187 188z" transform="matrix(1 0 0 -1 0 850)"></path></svg></a><a rel="tooltip" class="modebar-btn" data-title="Box Select" data-attr="dragmode" data-val="select" data-toggle="false" data-gravity="n"><svg viewBox="0 0 1000 1000" class="icon" height="1em" width="1em"><path d="m0 850l0-143 143 0 0 143-143 0z m286 0l0-143 143 0 0 143-143 0z m285 0l0-143 143 0 0 143-143 0z m286 0l0-143 143 0 0 143-143 0z m-857-286l0-143 143 0 0 143-143 0z m857 0l0-143 143 0 0 143-143 0z m-857-285l0-143 143 0 0 143-143 0z m857 0l0-143 143 0 0 143-143 0z m-857-286l0-143 143 0 0 143-143 0z m286 0l0-143 143 0 0 143-143 0z m285 0l0-143 143 0 0 143-143 0z m286 0l0-143 143 0 0 143-143 0z" transform="matrix(1 0 0 -1 0 850)"></path></svg></a><a rel="tooltip" class="modebar-btn" data-title="Lasso Select" data-attr="dragmode" data-val="lasso" data-toggle="false" data-gravity="n"><svg viewBox="0 0 1031 1000" class="icon" height="1em" width="1em"><path d="m1018 538c-36 207-290 336-568 286-277-48-473-256-436-463 10-57 36-108 76-151-13-66 11-137 68-183 34-28 75-41 114-42l-55-70 0 0c-2-1-3-2-4-3-10-14-8-34 5-45 14-11 34-8 45 4 1 1 2 3 2 5l0 0 113 140c16 11 31 24 45 40 4 3 6 7 8 11 48-3 100 0 151 9 278 48 473 255 436 462z m-624-379c-80 14-149 48-197 96 42 42 109 47 156 9 33-26 47-66 41-105z m-187-74c-19 16-33 37-39 60 50-32 109-55 174-68-42-25-95-24-135 8z m360 75c-34-7-69-9-102-8 8 62-16 128-68 170-73 59-175 54-244-5-9 20-16 40-20 61-28 159 121 317 333 354s407-60 434-217c28-159-121-318-333-355z" transform="matrix(1 0 0 -1 0 850)"></path></svg></a></div><div class="modebar-group"><a rel="tooltip" class="modebar-btn" data-title="Zoom in" data-attr="zoom" data-val="in" data-toggle="false" data-gravity="n"><svg viewBox="0 0 875 1000" class="icon" height="1em" width="1em"><path d="m1 787l0-875 875 0 0 875-875 0z m687-500l-187 0 0-187-125 0 0 187-188 0 0 125 188 0 0 187 125 0 0-187 187 0 0-125z" transform="matrix(1 0 0 -1 0 850)"></path></svg></a><a rel="tooltip" class="modebar-btn" data-title="Zoom out" data-attr="zoom" data-val="out" data-toggle="false" data-gravity="n"><svg viewBox="0 0 875 1000" class="icon" height="1em" width="1em"><path d="m0 788l0-876 875 0 0 876-875 0z m688-500l-500 0 0 125 500 0 0-125z" transform="matrix(1 0 0 -1 0 850)"></path></svg></a><a rel="tooltip" class="modebar-btn" data-title="Autoscale" data-attr="zoom" data-val="auto" data-toggle="false" data-gravity="n"><svg viewBox="0 0 1000 1000" class="icon" height="1em" width="1em"><path d="m250 850l-187 0-63 0 0-62 0-188 63 0 0 188 187 0 0 62z m688 0l-188 0 0-62 188 0 0-188 62 0 0 188 0 62-62 0z m-875-938l0 188-63 0 0-188 0-62 63 0 187 0 0 62-187 0z m875 188l0-188-188 0 0-62 188 0 62 0 0 62 0 188-62 0z m-125 188l-1 0-93-94-156 156 156 156 92-93 2 0 0 250-250 0 0-2 93-92-156-156-156 156 94 92 0 2-250 0 0-250 0 0 93 93 157-156-157-156-93 94 0 0 0-250 250 0 0 0-94 93 156 157 156-157-93-93 0 0 250 0 0 250z" transform="matrix(1 0 0 -1 0 850)"></path></svg></a><a rel="tooltip" class="modebar-btn" data-title="Reset axes" data-attr="zoom" data-val="reset" data-toggle="false" data-gravity="n"><svg viewBox="0 0 928.6 1000" class="icon" height="1em" width="1em"><path d="m786 296v-267q0-15-11-26t-25-10h-214v214h-143v-214h-214q-15 0-25 10t-11 26v267q0 1 0 2t0 2l321 264 321-264q1-1 1-4z m124 39l-34-41q-5-5-12-6h-2q-7 0-12 3l-386 322-386-322q-7-4-13-4-7 2-12 7l-35 41q-4 5-3 13t6 12l401 334q18 15 42 15t43-15l136-114v109q0 8 5 13t13 5h107q8 0 13-5t5-13v-227l122-102q5-5 6-12t-4-13z" transform="matrix(1 0 0 -1 0 850)"></path></svg></a></div><div class="modebar-group"><a rel="tooltip" class="modebar-btn" data-title="Toggle Spike Lines" data-attr="_cartesianSpikesEnabled" data-val="on" data-toggle="false" data-gravity="n"><svg viewBox="0 0 1000 1000" class="icon" height="1em" width="1em"><path d="M512 409c0-57-46-104-103-104-57 0-104 47-104 104 0 57 47 103 104 103 57 0 103-46 103-103z m-327-39l92 0 0 92-92 0z m-185 0l92 0 0 92-92 0z m370-186l92 0 0 93-92 0z m0-184l92 0 0 92-92 0z" transform="matrix(1.5 0 0 -1.5 0 850)"></path></svg></a><a rel="tooltip" class="modebar-btn" data-title="Show closest data on hover" data-attr="hovermode" data-val="closest" data-toggle="false" data-gravity="ne"><svg viewBox="0 0 1500 1000" class="icon" height="1em" width="1em"><path d="m375 725l0 0-375-375 375-374 0-1 1125 0 0 750-1125 0z" transform="matrix(1 0 0 -1 0 850)"></path></svg></a><a rel="tooltip" class="modebar-btn active" data-title="Compare data on hover" data-attr="hovermode" data-val="x" data-toggle="false" data-gravity="ne"><svg viewBox="0 0 1125 1000" class="icon" height="1em" width="1em"><path d="m187 786l0 2-187-188 188-187 0 0 937 0 0 373-938 0z m0-499l0 1-187-188 188-188 0 0 937 0 0 376-938-1z" transform="matrix(1 0 0 -1 0 850)"></path></svg></a></div></div></div><svg class="main-svg" style="position: absolute" xmlns="http://www.w3.org/2000/svg" xmlns:xlink="http://www.w3.org/1999/xlink" width="904.225352112676" height="642"><g class="hoverlayer"></g></svg>