<svg class="main-svg" style="position: absolute" xmlns="http://www.w3.org/2000/svg" xmlns:xlink="http://www.w3.org/1999/xlink" width="904.225352112676" height="642" style="background: rgb(255, 255, 255);"><defs id="defs-e8b78a"><g class="clips"><clipPath id="clipe8b78axyplot" class="plotclip"><rect width="733" height="462"></rect></clipPath><clipPath class="axesclip" id="clipe8b78ax"><rect x="80" y="0" width="733" height="642"></rect></clipPath><clipPath class="axesclip" id="clipe8b78ay"><rect x="0" y="100" width="904.225352112676" height="462"></rect></clipPath><clipPath class="axesclip" id="clipe8b78axy"><rect x="80" y="100" width="733" height="462"></rect></clipPath></g><g class="gradients"></g></defs><g class="bglayer"></g><g class="draglayer cursor-crosshair"><g class="xy"><rect class="nsewdrag drag" data-subplot="xy" x="80" y="100" width="733" height="462" style="fill: transparent; stroke-width: 0; pointer-events: all;"></rect><rect class="nwdrag drag cursor-nw-resize" data-subplot="xy" x="60" y="80" width="20" height="20" style="fill: transparent; stroke-width: 0; pointer-events: all;"></rect><rect class="nedrag drag cursor-ne-resize" data-subplot="xy" x="813" y="80" width="20" height="20" style="fill: transparent; stroke-width: 0; pointer-events: all;"></rect><rect class="swdrag drag cursor-sw-resize" data-subplot="xy" x="60" y="562" width="20" height="20" style="fill: transparent; stroke-width: 0; pointer-events: all;"></rect><rect class="sedrag drag cursor-se-resize" data-subplot="xy" x="813" y="562" width="20" height="20" style="fill: transparent; stroke-width: 0; pointer-events: all;"></rect><rect class="ewdrag drag cursor-ew-resize" data-subplot="xy" x="153.3" y="562.5" width="586.4" height="20" style="fill: transparent; stroke-width: 0; pointer-events: all;"></rect><rect class="wdrag drag cursor-w-resize" data-subplot="xy" x="80" y="562.5" width="73.3" height="20" style="fill: transparent; stroke-width: 0; pointer-events: all;"></rect><rect class="edrag drag cursor-e-resize" data-subplot="xy" x="739.7" y="562.5" width="73.3" height="20" style="fill: transparent; stroke-width: 0; pointer-events: all;"></rect><rect class="nsdrag drag cursor-ns-resize" data-subplot="xy" x="59.5" y="146.2" width="20" height="369.6" style="fill: transparent; stroke-width: 0; pointer-events: all;"></rect><rect class="sdrag drag cursor-s-resize" data-subplot="xy" x="59.5" y="515.8" width="20" height="46.2" style="fill: transparent; stroke-width: 0; pointer-events: all;"></rect><rect class="ndrag drag cursor-n-resize" data-subplot="xy" x="59.5" y="100" width="20" height="46.2" style="fill: transparent; stroke-width: 0; pointer-events: all;"></rect></g></g><g class="layer-below"><g class="imagelayer"></g><g class="shapelayer"></g></g><g class="cartesianlayer"><g class="subplot xy"><g class="layer-subplot"><g class="shapelayer"></g><g class="imagelayer"></g></g><g class="gridlayer"><g class="x"><path class="xgrid crisp" transform="translate(159.78,0)" d="M0,100v462" style="stroke: rgb(238, 238, 238); stroke-opacity: 1; stroke-width: 1px;"></path><path class="xgrid crisp" transform="translate(240.74,0)" d="M0,100v462" style="stroke: rgb(238, 238, 238); stroke-opacity: 1; stroke-width: 1px;"></path><path class="xgrid crisp" transform="translate(321.7,0)" d="M0,100v462" style="stroke: rgb(238, 238, 238); stroke-opacity: 1; stroke-width: 1px;"></path><path class="xgrid crisp" transform="translate(402.66,0)" d="M0,100v462" style="stroke: rgb(238, 238, 238); stroke-opacity: 1; stroke-width: 1px;"></path><path class="xgrid crisp" transform="translate(483.62,0)" d="M0,100v462" style="stroke: rgb(238, 238, 238); stroke-opacity: 1; stroke-width: 1px;"></path><path class="xgrid crisp" transform="translate(564.5799999999999,0)" d="M0,100v462" style="stroke: rgb(238, 238, 238); stroke-opacity: 1; stroke-width: 1px;"></path><path class="xgrid crisp" transform="translate(645.54,0)" d="M0,100v462" style="stroke: rgb(238, 238, 238); stroke-opacity: 1; stroke-width: 1px;"></path><path class="xgrid crisp" transform="translate(726.5,0)" d="M0,100v462" style="stroke: rgb(238, 238, 238); stroke-opacity: 1; stroke-width: 1px;"></path><path class="xgrid crisp" transform="translate(807.46,0)" d="M0,100v462" style="stroke: rgb(238, 238, 238); stroke-opacity: 1; stroke-width: 1px;"></path></g><g class="y"></g></g><g class="zerolinelayer"></g><path class="xlines-below"></path><path class="ylines-below"></path><g class="overlines-below"></g><g class="xaxislayer-below"></g><g class="yaxislayer-below"></g><g class="overaxes-below"></g><g class="plot" transform="translate(80,100)" clip-path="url('#clipe8b78axyplot')"><g class="boxlayer mlayer"><g class="trace boxes" style="opacity: 1;"><path class="box" d="M191.79,438.44V393.16M154.23,438.44V393.16H249.12V438.44ZM154.23,415.8H99.92M249.12,415.8H387.24M99.92,427.12V404.48M387.24,427.12V404.48" style="vector-effect: non-scaling-stroke; stroke-width: 2px; stroke: rgb(102, 194, 165); stroke-opacity: 1; fill: rgb(102, 194, 165); fill-opacity: 0.5;"></path><g class="points"><path class="point" transform="translate(449.54,415.8)" d="M3,0A3,3 0 1,1 0,-3A3,3 0 0,1 3,0Z" style="opacity: 1; stroke-width: 0px; fill: rgb(102, 194, 165); fill-opacity: 1;"></path><path class="point" transform="translate(465.45,415.8)" d="M3,0A3,3 0 1,1 0,-3A3,3 0 0,1 3,0Z" style="opacity: 1; stroke-width: 0px; fill: rgb(102, 194, 165); fill-opacity: 1;"></path><path class="point" transform="translate(511.2,415.8)" d="M3,0A3,3 0 1,1 0,-3A3,3 0 0,1 3,0Z" style="opacity: 1; stroke-width: 0px; fill: rgb(102, 194, 165); fill-opacity: 1;"></path><path class="point" transform="translate(530.47,415.8)" d="M3,0A3,3 0 1,1 0,-3A3,3 0 0,1 3,0Z" style="opacity: 1; stroke-width: 0px; fill: rgb(102, 194, 165); fill-opacity: 1;"></path><path class="point" transform="translate(586.52,415.8)" d="M3,0A3,3 0 1,1 0,-3A3,3 0 0,1 3,0Z" style="opacity: 1; stroke-width: 0px; fill: rgb(102, 194, 165); fill-opacity: 1;"></path><path class="point" transform="translate(610.38,415.8)" d="M3,0A3,3 0 1,1 0,-3A3,3 0 0,1 3,0Z" style="opacity: 1; stroke-width: 0px; fill: rgb(102, 194, 165); fill-opacity: 1;"></path></g></g><g class="trace boxes" style="opacity: 1;"><path class="box" d="M168.34,346.04V300.76M130.38,346.04V300.76H216.91V346.04ZM130.38,323.4H56.2M216.91,323.4H316.38M56.2,334.72V312.08M316.38,334.72V312.08" style="vector-effect: non-scaling-stroke; stroke-width: 2px; stroke: rgb(252, 141, 98); stroke-opacity: 1; fill: rgb(252, 141, 98); fill-opacity: 0.5;"></path><g class="points"><path class="point" transform="translate(350.91,323.4)" d="M3,0A3,3 0 1,1 0,-3A3,3 0 0,1 3,0Z" style="opacity: 1; stroke-width: 0px; fill: rgb(252, 141, 98); fill-opacity: 1;"></path><path class="point" transform="translate(360.87,323.4)" d="M3,0A3,3 0 1,1 0,-3A3,3 0 0,1 3,0Z" style="opacity: 1; stroke-width: 0px; fill: rgb(252, 141, 98); fill-opacity: 1;"></path><path class="point" transform="translate(368.5,323.4)" d="M3,0A3,3 0 1,1 0,-3A3,3 0 0,1 3,0Z" style="opacity: 1; stroke-width: 0px; fill: rgb(252, 141, 98); fill-opacity: 1;"></path><path class="point" transform="translate(504.75,323.4)" d="M3,0A3,3 0 1,1 0,-3A3,3 0 0,1 3,0Z" style="opacity: 1; stroke-width: 0px; fill: rgb(252, 141, 98); fill-opacity: 1;"></path><path class="point" transform="translate(528.99,323.4)" d="M3,0A3,3 0 1,1 0,-3A3,3 0 0,1 3,0Z" style="opacity: 1; stroke-width: 0px; fill: rgb(252, 141, 98); fill-opacity: 1;"></path><path class="point" transform="translate(600.05,323.4)" d="M3,0A3,3 0 1,1 0,-3A3,3 0 0,1 3,0Z" style="opacity: 1; stroke-width: 0px; fill: rgb(252, 141, 98); fill-opacity: 1;"></path></g></g><g class="trace boxes" style="opacity: 1;"><path class="box" d="M200.08,253.64V208.36M154.17,253.64V208.36H263.84V253.64ZM154.17,231H101.05M263.84,231H419.42M101.05,242.32V219.68M419.42,242.32V219.68" style="vector-effect: non-scaling-stroke; stroke-width: 2px; stroke: rgb(141, 160, 203); stroke-opacity: 1; fill: rgb(141, 160, 203); fill-opacity: 0.5;"></path><g class="points"><path class="point" transform="translate(445.66,231)" d="M3,0A3,3 0 1,1 0,-3A3,3 0 0,1 3,0Z" style="opacity: 1; stroke-width: 0px; fill: rgb(141, 160, 203); fill-opacity: 1;"></path><path class="point" transform="translate(477.41,231)" d="M3,0A3,3 0 1,1 0,-3A3,3 0 0,1 3,0Z" style="opacity: 1; stroke-width: 0px; fill: rgb(141, 160, 203); fill-opacity: 1;"></path><path class="point" transform="translate(494.44,231)" d="M3,0A3,3 0 1,1 0,-3A3,3 0 0,1 3,0Z" style="opacity: 1; stroke-width: 0px; fill: rgb(141, 160, 203); fill-opacity: 1;"></path><path class="point" transform="translate(513.08,231)" d="M3,0A3,3 0 1,1 0,-3A3,3 0 0,1 3,0Z" style="opacity: 1; stroke-width: 0px; fill: rgb(141, 160, 203); fill-opacity: 1;"></path><path class="point" transform="translate(516.38,231)" d="M3,0A3,3 0 1,1 0,-3A3,3 0 0,1 3,0Z" style="opacity: 1; stroke-width: 0px; fill: rgb(141, 160, 203); fill-opacity: 1;"></path><path class="point" transform="translate(696.35,231)" d="M3,0A3,3 0 1,1 0,-3A3,3 0 0,1 3,0Z" style="opacity: 1; stroke-width: 0px; fill: rgb(141, 160, 203); fill-opacity: 1;"></path></g></g><g class="trace boxes" style="opacity: 1;"><path class="box" d="M168.22,161.24V115.96M129.77,161.24V115.96H225.51V161.24ZM129.77,138.6H46M225.51,138.6H347.77M46,149.92V127.28M347.77,149.92V127.28" style="vector-effect: non-scaling-stroke; stroke-width: 2px; stroke: rgb(231, 138, 195); stroke-opacity: 1; fill: rgb(231, 138, 195); fill-opacity: 0.5;"></path><g class="points"><path class="point" transform="translate(388.97,138.6)" d="M3,0A3,3 0 1,1 0,-3A3,3 0 0,1 3,0Z" style="opacity: 1; stroke-width: 0px; fill: rgb(231, 138, 195); fill-opacity: 1;"></path><path class="point" transform="translate(389.85,138.6)" d="M3,0A3,3 0 1,1 0,-3A3,3 0 0,1 3,0Z" style="opacity: 1; stroke-width: 0px; fill: rgb(231, 138, 195); fill-opacity: 1;"></path><path class="point" transform="translate(400.2,138.6)" d="M3,0A3,3 0 1,1 0,-3A3,3 0 0,1 3,0Z" style="opacity: 1; stroke-width: 0px; fill: rgb(231, 138, 195); fill-opacity: 1;"></path><path class="point" transform="translate(429.43,138.6)" d="M3,0A3,3 0 1,1 0,-3A3,3 0 0,1 3,0Z" style="opacity: 1; stroke-width: 0px; fill: rgb(231, 138, 195); fill-opacity: 1;"></path><path class="point" transform="translate(429.98,138.6)" d="M3,0A3,3 0 1,1 0,-3A3,3 0 0,1 3,0Z" style="opacity: 1; stroke-width: 0px; fill: rgb(231, 138, 195); fill-opacity: 1;"></path><path class="point" transform="translate(435.31,138.6)" d="M3,0A3,3 0 1,1 0,-3A3,3 0 0,1 3,0Z" style="opacity: 1; stroke-width: 0px; fill: rgb(231, 138, 195); fill-opacity: 1;"></path><path class="point" transform="translate(439.32,138.6)" d="M3,0A3,3 0 1,1 0,-3A3,3 0 0,1 3,0Z" style="opacity: 1; stroke-width: 0px; fill: rgb(231, 138, 195); fill-opacity: 1;"></path></g></g><g class="trace boxes" style="opacity: 1;"><path class="box" d="M226.22,68.84V23.56M174.3,68.84V23.56H279.38V68.84ZM174.3,46.2H36.65M279.38,46.2H411.53M36.65,57.52V34.88M411.53,57.52V34.88" style="vector-effect: non-scaling-stroke; stroke-width: 2px; stroke: rgb(166, 216, 84); stroke-opacity: 1; fill: rgb(166, 216, 84); fill-opacity: 0.5;"></path><g class="points"><path class="point" transform="translate(491.01,46.2)" d="M3,0A3,3 0 1,1 0,-3A3,3 0 0,1 3,0Z" style="opacity: 1; stroke-width: 0px; fill: rgb(166, 216, 84); fill-opacity: 1;"></path><path class="point" transform="translate(523.76,46.2)" d="M3,0A3,3 0 1,1 0,-3A3,3 0 0,1 3,0Z" style="opacity: 1; stroke-width: 0px; fill: rgb(166, 216, 84); fill-opacity: 1;"></path><path class="point" transform="translate(624.26,46.2)" d="M3,0A3,3 0 1,1 0,-3A3,3 0 0,1 3,0Z" style="opacity: 1; stroke-width: 0px; fill: rgb(166, 216, 84); fill-opacity: 1;"></path></g></g></g></g><g class="overplot"></g><path class="xlines-above crisp" d="M0,0" style="fill: none;"></path><path class="ylines-above crisp" style="fill: none;" d="M0,0"></path><g class="overlines-above"></g><g class="xaxislayer-above"><g class="xtick"><text text-anchor="middle" x="0" y="575" data-unformatted="10" data-math="N" transform="translate(159.78,0)" style="font-family: &quot;Open Sans&quot;, verdana, arial, sans-serif; font-size: 12px; fill: rgb(68, 68, 68); fill-opacity: 1; white-space: pre;">10</text></g><g class="xtick"><text text-anchor="middle" x="0" y="575" data-unformatted="15" data-math="N" transform="translate(240.74,0)" style="font-family: &quot;Open Sans&quot;, verdana, arial, sans-serif; font-size: 12px; fill: rgb(68, 68, 68); fill-opacity: 1; white-space: pre;">15</text></g><g class="xtick"><text text-anchor="middle" x="0" y="575" data-unformatted="20" data-math="N" transform="translate(321.7,0)" style="font-family: &quot;Open Sans&quot;, verdana, arial, sans-serif; font-size: 12px; fill: rgb(68, 68, 68); fill-opacity: 1; white-space: pre;">20</text></g><g class="xtick"><text text-anchor="middle" x="0" y="575" data-unformatted="25" data-math="N" transform="translate(402.66,0)" style="font-family: &quot;Open Sans&quot;, verdana, arial, sans-serif; font-size: 12px; fill: rgb(68, 68, 68); fill-opacity: 1; white-space: pre;">25</text></g><g class="xtick"><text text-anchor="middle" x="0" y="575" data-unformatted="30" data-math="N" transform="translate(483.62,0)" style="font-family: &quot;Open Sans&quot;, verdana, arial, sans-serif; font-size: 12px; fill: rgb(68, 68, 68); fill-opacity: 1; white-space: pre;">30</text></g><g class="xtick"><text text-anchor="middle" x="0" y="575" data-unformatted="35" data-math="N" transform="translate(564.5799999999999,0)" style="font-family: &quot;Open Sans&quot;, verdana, arial, sans-serif; font-size: 12px; fill: rgb(68, 68, 68); fill-opacity: 1; white-space: pre;">35</text></g><g class="xtick"><text text-anchor="middle" x="0" y="575" data-unformatted="40" data-math="N" transform="translate(645.54,0)" style="font-family: &quot;Open Sans&quot;, verdana, arial, sans-serif; font-size: 12px; fill: rgb(68, 68, 68); fill-opacity: 1; white-space: pre;">40</text></g><g class="xtick"><text text-anchor="middle" x="0" y="575" data-unformatted="45" data-math="N" transform="translate(726.5,0)" style="font-family: &quot;Open Sans&quot;, verdana, arial, sans-serif; font-size: 12px; fill: rgb(68, 68, 68); fill-opacity: 1; white-space: pre;">45</text></g><g class="xtick"><text text-anchor="middle" x="0" y="575" data-unformatted="50" data-math="N" transform="translate(807.46,0)" style="font-family: &quot;Open Sans&quot;, verdana, arial, sans-serif; font-size: 12px; fill: rgb(68, 68, 68); fill-opacity: 1; white-space: pre;">50</text></g></g><g class="yaxislayer-above"><g class="ytick"><text text-anchor="end" x="79" y="4.199999999999999" data-unformatted="IL" data-math="N" transform="translate(0,515.8)" style="font-family: &quot;Open Sans&quot;, verdana, arial, sans-serif; font-size: 12px; fill: rgb(68, 68, 68); fill-opacity: 1; white-space: pre;">IL</text></g><g class="ytick"><text text-anchor="end" x="79" y="4.199999999999999" data-unformatted="IN" data-math="N" transform="translate(0,423.4)" style="font-family: &quot;Open Sans&quot;, verdana, arial, sans-serif; font-size: 12px; fill: rgb(68, 68, 68); fill-opacity: 1; white-space: pre;">IN</text></g><g class="ytick"><text text-anchor="end" x="79" y="4.199999999999999" data-unformatted="MI" data-math="N" transform="translate(0,331)" style="font-family: &quot;Open Sans&quot;, verdana, arial, sans-serif; font-size: 12px; fill: rgb(68, 68, 68); fill-opacity: 1; white-space: pre;">MI</text></g><g class="ytick"><text text-anchor="end" x="79" y="4.199999999999999" data-unformatted="OH" data-math="N" transform="translate(0,238.6)" style="font-family: &quot;Open Sans&quot;, verdana, arial, sans-serif; font-size: 12px; fill: rgb(68, 68, 68); fill-opacity: 1; white-space: pre;">OH</text></g><g class="ytick"><text text-anchor="end" x="79" y="4.199999999999999" data-unformatted="WI" data-math="N" transform="translate(0,146.2)" style="font-family: &quot;Open Sans&quot;, verdana, arial, sans-serif; font-size: 12px; fill: rgb(68, 68, 68); fill-opacity: 1; white-space: pre;">WI</text></g></g><g class="overaxes-above"></g></g></g><g class="polarlayer"></g><g class="ternarylayer"></g><g class="geolayer"></g><g class="funnelarealayer"></g><g class="pielayer"></g><g class="treemaplayer"></g><g class="sunburstlayer"></g><g class="glimages"></g></svg><div class="gl-container"></div><svg class="main-svg" style="position: absolute" xmlns="http://www.w3.org/2000/svg" xmlns:xlink="http://www.w3.org/1999/xlink" width="904.225352112676" height="642"><defs id="topdefs-e8b78a"><g class="clips"></g><clipPath id="legende8b78a"><rect width="64" height="105" x="0" y="0"></rect></clipPath></defs><g class="indicatorlayer"></g><g class="layer-above"><g class="imagelayer"></g><g class="shapelayer"></g></g><g class="infolayer"><g class="legend" pointer-events="all" transform="translate(827.66,100)"><rect class="bg" shape-rendering="crispEdges" style="stroke: rgb(68, 68, 68); stroke-opacity: 1; fill: rgb(255, 255, 255); fill-opacity: 1; stroke-width: 0px;" width="64" height="105" x="0" y="0"></rect><g class="scrollbox" transform="" clip-path="url('#legende8b78a')"><g class="groups"><g class="traces" transform="translate(0,14.5)" style="opacity: 1;"><text class="legendtext" text-anchor="start" x="40" y="4.680000000000001" data-unformatted="IL" data-math="N" style="font-family: &quot;Open Sans&quot;, verdana, arial, sans-serif; font-size: 12px; fill: rgb(68, 68, 68); fill-opacity: 1; white-space: pre;">IL</text><g class="layers" style="opacity: 1;"><g class="legendfill"></g><g class="legendlines"></g><g class="legendsymbols"><g class="legendpoints"><path class="legendbox" d="M6,6H-6V-6H6Z" transform="translate(20,0)" style="stroke-width: 2px; fill: rgb(102, 194, 165); fill-opacity: 0.5; stroke: rgb(102, 194, 165); stroke-opacity: 1;"></path></g></g></g><rect class="legendtoggle" pointer-events="all" x="0" y="-9.5" width="58.203125" height="19" style="cursor: pointer; fill: rgb(0, 0, 0); fill-opacity: 0;"></rect></g><g class="traces" style="opacity: 1;" transform="translate(0,33.5)"><text class="legendtext" text-anchor="start" x="40" y="4.680000000000001" data-unformatted="IN" data-math="N" style="font-family: &quot;Open Sans&quot;, verdana, arial, sans-serif; font-size: 12px; fill: rgb(68, 68, 68); fill-opacity: 1; white-space: pre;">IN</text><g class="layers" style="opacity: 1;"><g class="legendfill"></g><g class="legendlines"></g><g class="legendsymbols"><g class="legendpoints"><path class="legendbox" d="M6,6H-6V-6H6Z" transform="translate(20,0)" style="stroke-width: 2px; fill: rgb(252, 141, 98); fill-opacity: 0.5; stroke: rgb(252, 141, 98); stroke-opacity: 1;"></path></g></g></g><rect class="legendtoggle" pointer-events="all" x="0" y="-9.5" width="58.203125" height="19" style="cursor: pointer; fill: rgb(0, 0, 0); fill-opacity: 0;"></rect></g><g class="traces" style="opacity: 1;" transform="translate(0,52.5)"><text class="legendtext" text-anchor="start" x="40" y="4.680000000000001" data-unformatted="MI" data-math="N" style="font-family: &quot;Open Sans&quot;, verdana, arial, sans-serif; font-size: 12px; fill: rgb(68, 68, 68); fill-opacity: 1; white-space: pre;">MI</text><g class="layers" style="opacity: 1;"><g class="legendfill"></g><g class="legendlines"></g><g class="legendsymbols"><g class="legendpoints"><path class="legendbox" d="M6,6H-6V-6H6Z" transform="translate(20,0)" style="stroke-width: 2px; fill: rgb(141, 160, 203); fill-opacity: 0.5; stroke: rgb(141, 160, 203); stroke-opacity: 1;"></path></g></g></g><rect class="legendtoggle" pointer-events="all" x="0" y="-9.5" width="58.203125" height="19" style="cursor: pointer; fill: rgb(0, 0, 0); fill-opacity: 0;"></rect></g><g class="traces" style="opacity: 1;" transform="translate(0,71.5)"><text class="legendtext" text-anchor="start" x="40" y="4.680000000000001" data-unformatted="OH" data-math="N" style="font-family: &quot;Open Sans&quot;, verdana, arial, sans-serif; font-size: 12px; fill: rgb(68, 68, 68); fill-opacity: 1; white-space: pre;">OH</text><g class="layers" style="opacity: 1;"><g class="legendfill"></g><g class="legendlines"></g><g class="legendsymbols"><g class="legendpoints"><path class="legendbox" d="M6,6H-6V-6H6Z" transform="translate(20,0)" style="stroke-width: 2px; fill: rgb(231, 138, 195); fill-opacity: 0.5; stroke: rgb(231, 138, 195); stroke-opacity: 1;"></path></g></g></g><rect class="legendtoggle" pointer-events="all" x="0" y="-9.5" width="58.203125" height="19" style="cursor: pointer; fill: rgb(0, 0, 0); fill-opacity: 0;"></rect></g><g class="traces" style="opacity: 1;" transform="translate(0,90.5)"><text class="legendtext" text-anchor="start" x="40" y="4.680000000000001" data-unformatted="WI" data-math="N" style="font-family: &quot;Open Sans&quot;, verdana, arial, sans-serif; font-size: 12px; fill: rgb(68, 68, 68); fill-opacity: 1; white-space: pre;">WI</text><g class="layers" style="opacity: 1;"><g class="legendfill"></g><g class="legendlines"></g><g class="legendsymbols"><g class="legendpoints"><path class="legendbox" d="M6,6H-6V-6H6Z" transform="translate(20,0)" style="stroke-width: 2px; fill: rgb(166, 216, 84); fill-opacity: 0.5; stroke: rgb(166, 216, 84); stroke-opacity: 1;"></path></g></g></g><rect class="legendtoggle" pointer-events="all" x="0" y="-9.5" width="58.203125" height="19" style="cursor: pointer; fill: rgb(0, 0, 0); fill-opacity: 0;"></rect></g></g></g><rect class="scrollbar" rx="20" ry="3" width="0" height="0" style="fill: rgb(128, 139, 164); fill-opacity: 1;" x="0" y="0"></rect></g><g class="g-gtitle"></g><g class="g-xtitle"><text class="xtitle" x="446.5" y="614" text-anchor="middle" data-unformatted="percollege" data-math="N" style="font-family: &quot;Open Sans&quot;, verdana, arial, sans-serif; font-size: 14px; fill: rgb(68, 68, 68); opacity: 1; font-weight: normal; white-space: pre;">percollege</text></g><g class="g-ytitle"></g></g><g class="menulayer"></g><g class="zoomlayer"></g></svg><div class="modebar-container" style="position: absolute; top: 0px; right: 0px; width: 100%;"><div id="modebar-e8b78a" class="modebar modebar--hover ease-bg"><div class="modebar-group"><a rel="tooltip" class="modebar-btn" data-title="Download plot as a png" data-toggle="false" data-gravity="n"><svg viewBox="0 0 1000 1000" class="icon" height="1em" width="1em"><path d="m500 450c-83 0-150-67-150-150 0-83 67-150 150-150 83 0 150 67 150 150 0 83-67 150-150 150z m400 150h-120c-16 0-34 13-39 29l-31 93c-6 15-23 28-40 28h-340c-16 0-34-13-39-28l-31-94c-6-15-23-28-40-28h-120c-55 0-100-45-100-100v-450c0-55 45-100 100-100h800c55 0 100 45 100 100v450c0 55-45 100-100 100z m-400-550c-138 0-250 112-250 250 0 138 112 250 250 250 138 0 250-112 250-250 0-138-112-250-250-250z m365 380c-19 0-35 16-35 35 0 19 16 35 35 35 19 0 35-16 35-35 0-19-16-35-35-35z" transform="matrix(1 0 0 -1 0 850)"></path></svg></a></div><div class="modebar-group"><a rel="tooltip" class="modebar-btn active" data-title="Zoom" data-attr="dragmode" data-val="zoom" data-toggle="false" data-gravity="n"><svg viewBox="0 0 1000 1000" class="icon" height="1em" width="1em"><path d="m1000-25l-250 251c40 63 63 138 63 218 0 224-182 406-407 406-224 0-406-182-406-406s183-406 407-406c80 0 155 22 218 62l250-250 125 125z m-812 250l0 438 437 0 0-438-437 0z m62 375l313 0 0-312-313 0 0 312z" transform="matrix(1 0 0 -1 0 850)"></path></svg></a><a rel="tooltip" class="modebar-btn" data-title="Pan" data-attr="dragmode" data-val="pan" data-toggle="false" data-gravity="n"><svg viewBox="0 0 1000 1000" class="icon" height="1em" width="1em"><path d="m1000 350l-187 188 0-125-250 0 0 250 125 0-188 187-187-187 125 0 0-250-250 0 0 125-188-188 186-187 0 125 252 0 0-250-125 0 187-188 188 188-125 0 0 250 250 0 0-126 187 188z" transform="matrix(1 0 0 -1 0 850)"></path></svg></a></div><div class="modebar-group"><a rel="tooltip" class="modebar-btn" data-title="Zoom in" data-attr="zoom" data-val="in" data-toggle="false" data-gravity="n"><svg viewBox="0 0 875 1000" class="icon" height="1em" width="1em"><path d="m1 787l0-875 875 0 0 875-875 0z m687-500l-187 0 0-187-125 0 0 187-188 0 0 125 188 0 0 187 125 0 0-187 187 0 0-125z" transform="matrix(1 0 0 -1 0 850)"></path></svg></a><a rel="tooltip" class="modebar-btn" data-title="Zoom out" data-attr="zoom" data-val="out" data-toggle="false" data-gravity="n"><svg viewBox="0 0 875 1000" class="icon" height="1em" width="1em"><path d="m0 788l0-876 875 0 0 876-875 0z m688-500l-500 0 0 125 500 0 0-125z" transform="matrix(1 0 0 -1 0 850)"></path></svg></a><a rel="tooltip" class="modebar-btn" data-title="Autoscale" data-attr="zoom" data-val="auto" data-toggle="false" data-gravity="n"><svg viewBox="0 0 1000 1000" class="icon" height="1em" width="1em"><path d="m250 850l-187 0-63 0 0-62 0-188 63 0 0 188 187 0 0 62z m688 0l-188 0 0-62 188 0 0-188 62 0 0 188 0 62-62 0z m-875-938l0 188-63 0 0-188 0-62 63 0 187 0 0 62-187 0z m875 188l0-188-188 0 0-62 188 0 62 0 0 62 0 188-62 0z m-125 188l-1 0-93-94-156 156 156 156 92-93 2 0 0 250-250 0 0-2 93-92-156-156-156 156 94 92 0 2-250 0 0-250 0 0 93 93 157-156-157-156-93 94 0 0 0-250 250 0 0 0-94 93 156 157 156-157-93-93 0 0 250 0 0 250z" transform="matrix(1 0 0 -1 0 850)"></path></svg></a><a rel="tooltip" class="modebar-btn" data-title="Reset axes" data-attr="zoom" data-val="reset" data-toggle="false" data-gravity="n"><svg viewBox="0 0 928.6 1000" class="icon" height="1em" width="1em"><path d="m786 296v-267q0-15-11-26t-25-10h-214v214h-143v-214h-214q-15 0-25 10t-11 26v267q0 1 0 2t0 2l321 264 321-264q1-1 1-4z m124 39l-34-41q-5-5-12-6h-2q-7 0-12 3l-386 322-386-322q-7-4-13-4-7 2-12 7l-35 41q-4 5-3 13t6 12l401 334q18 15 42 15t43-15l136-114v109q0 8 5 13t13 5h107q8 0 13-5t5-13v-227l122-102q5-5 6-12t-4-13z" transform="matrix(1 0 0 -1 0 850)"></path></svg></a></div><div class="modebar-group"><a rel="tooltip" class="modebar-btn" data-title="Toggle Spike Lines" data-attr="_cartesianSpikesEnabled" data-val="on" data-toggle="false" data-gravity="n"><svg viewBox="0 0 1000 1000" class="icon" height="1em" width="1em"><path d="M512 409c0-57-46-104-103-104-57 0-104 47-104 104 0 57 47 103 104 103 57 0 103-46 103-103z m-327-39l92 0 0 92-92 0z m-185 0l92 0 0 92-92 0z m370-186l92 0 0 93-92 0z m0-184l92 0 0 92-92 0z" transform="matrix(1.5 0 0 -1.5 0 850)"></path></svg></a><a rel="tooltip" class="modebar-btn" data-title="Show closest data on hover" data-attr="hovermode" data-val="closest" data-toggle="false" data-gravity="ne"><svg viewBox="0 0 1500 1000" class="icon" height="1em" width="1em"><path d="m375 725l0 0-375-375 375-374 0-1 1125 0 0 750-1125 0z" transform="matrix(1 0 0 -1 0 850)"></path></svg></a><a rel="tooltip" class="modebar-btn active" data-title="Compare data on hover" data-attr="hovermode" data-val="y" data-toggle="false" data-gravity="ne"><svg viewBox="0 0 1125 1000" class="icon" height="1em" width="1em"><path d="m187 786l0 2-187-188 188-187 0 0 937 0 0 373-938 0z m0-499l0 1-187-188 188-188 0 0 937 0 0 376-938-1z" transform="matrix(1 0 0 -1 0 850)"></path></svg></a></div></div></div><svg class="main-svg" style="position: absolute" xmlns="http://www.w3.org/2000/svg" xmlns:xlink="http://www.w3.org/1999/xlink" width="904.225352112676" height="642"><g class="hoverlayer"></g></svg>