<svg class="main-svg" style="position: absolute" xmlns="http://www.w3.org/2000/svg" xmlns:xlink="http://www.w3.org/1999/xlink" width="904.225352112676" height="642" style="background: rgb(245, 246, 249);"><defs id="defs-5c2123"><g class="clips"><clipPath id="clip5c2123xyplot" class="plotclip"><rect width="712" height="462"></rect></clipPath><clipPath class="axesclip" id="clip5c2123x"><rect x="80" y="0" width="712" height="642"></rect></clipPath><clipPath class="axesclip" id="clip5c2123y"><rect x="0" y="100" width="904.225352112676" height="462"></rect></clipPath><clipPath class="axesclip" id="clip5c2123xy"><rect x="80" y="100" width="712" height="462"></rect></clipPath></g><g class="gradients"></g></defs><g class="bglayer"></g><g class="draglayer cursor-crosshair"><g class="xy"><rect class="nsewdrag drag" data-subplot="xy" x="80" y="100" width="712" height="462" style="fill: transparent; stroke-width: 0; pointer-events: all;"></rect><rect class="nwdrag drag cursor-nw-resize" data-subplot="xy" x="60" y="80" width="20" height="20" style="fill: transparent; stroke-width: 0; pointer-events: all;"></rect><rect class="nedrag drag cursor-ne-resize" data-subplot="xy" x="792" y="80" width="20" height="20" style="fill: transparent; stroke-width: 0; pointer-events: all;"></rect><rect class="swdrag drag cursor-sw-resize" data-subplot="xy" x="60" y="562" width="20" height="20" style="fill: transparent; stroke-width: 0; pointer-events: all;"></rect><rect class="sedrag drag cursor-se-resize" data-subplot="xy" x="792" y="562" width="20" height="20" style="fill: transparent; stroke-width: 0; pointer-events: all;"></rect><rect class="ewdrag drag cursor-ew-resize" data-subplot="xy" x="151.2" y="562.5" width="569.6" height="20" style="fill: transparent; stroke-width: 0; pointer-events: all;"></rect><rect class="wdrag drag cursor-w-resize" data-subplot="xy" x="80" y="562.5" width="71.2" height="20" style="fill: transparent; stroke-width: 0; pointer-events: all;"></rect><rect class="edrag drag cursor-e-resize" data-subplot="xy" x="720.8000000000001" y="562.5" width="71.2" height="20" style="fill: transparent; stroke-width: 0; pointer-events: all;"></rect><rect class="nsdrag drag cursor-ns-resize" data-subplot="xy" x="59.5" y="146.2" width="20" height="369.6" style="fill: transparent; stroke-width: 0; pointer-events: all;"></rect><rect class="sdrag drag cursor-s-resize" data-subplot="xy" x="59.5" y="515.8" width="20" height="46.2" style="fill: transparent; stroke-width: 0; pointer-events: all;"></rect><rect class="ndrag drag cursor-n-resize" data-subplot="xy" x="59.5" y="100" width="20" height="46.2" style="fill: transparent; stroke-width: 0; pointer-events: all;"></rect></g></g><g class="layer-below"><g class="imagelayer"></g><g class="shapelayer"></g></g><g class="cartesianlayer"><g class="subplot xy"><g class="layer-subplot"><g class="shapelayer"></g><g class="imagelayer"></g></g><g class="gridlayer"><g class="x"><path class="xgrid crisp" transform="translate(151.92000000000002,0)" d="M0,100v462" style="stroke: rgb(225, 229, 237); stroke-opacity: 1; stroke-width: 1px;"></path><path class="xgrid crisp" transform="translate(252.61,0)" d="M0,100v462" style="stroke: rgb(225, 229, 237); stroke-opacity: 1; stroke-width: 1px;"></path><path class="xgrid crisp" transform="translate(353.29,0)" d="M0,100v462" style="stroke: rgb(225, 229, 237); stroke-opacity: 1; stroke-width: 1px;"></path><path class="xgrid crisp" transform="translate(453.98,0)" d="M0,100v462" style="stroke: rgb(225, 229, 237); stroke-opacity: 1; stroke-width: 1px;"></path><path class="xgrid crisp" transform="translate(554.6700000000001,0)" d="M0,100v462" style="stroke: rgb(225, 229, 237); stroke-opacity: 1; stroke-width: 1px;"></path><path class="xgrid crisp" transform="translate(655.35,0)" d="M0,100v462" style="stroke: rgb(225, 229, 237); stroke-opacity: 1; stroke-width: 1px;"></path><path class="xgrid crisp" transform="translate(756.04,0)" d="M0,100v462" style="stroke: rgb(225, 229, 237); stroke-opacity: 1; stroke-width: 1px;"></path></g><g class="y"><path class="ygrid crisp" transform="translate(0,511.16)" d="M80,0h712" style="stroke: rgb(225, 229, 237); stroke-opacity: 1; stroke-width: 1px;"></path><path class="ygrid crisp" transform="translate(0,446.81)" d="M80,0h712" style="stroke: rgb(225, 229, 237); stroke-opacity: 1; stroke-width: 1px;"></path><path class="ygrid crisp" transform="translate(0,318.12)" d="M80,0h712" style="stroke: rgb(225, 229, 237); stroke-opacity: 1; stroke-width: 1px;"></path><path class="ygrid crisp" transform="translate(0,253.77)" d="M80,0h712" style="stroke: rgb(225, 229, 237); stroke-opacity: 1; stroke-width: 1px;"></path><path class="ygrid crisp" transform="translate(0,189.43)" d="M80,0h712" style="stroke: rgb(225, 229, 237); stroke-opacity: 1; stroke-width: 1px;"></path><path class="ygrid crisp" transform="translate(0,125.08)" d="M80,0h712" style="stroke: rgb(225, 229, 237); stroke-opacity: 1; stroke-width: 1px;"></path></g></g><g class="zerolinelayer"><path class="yzl zl crisp" transform="translate(0,382.47)" d="M80,0h712" style="stroke: rgb(225, 229, 237); stroke-opacity: 1; stroke-width: 1px;"></path></g><path class="xlines-below"></path><path class="ylines-below"></path><g class="overlines-below"></g><g class="xaxislayer-below"></g><g class="yaxislayer-below"></g><g class="overaxes-below"></g><g class="plot" transform="translate(80,100)" clip-path="url('#clip5c2123xyplot')"><g class="scatterlayer mlayer"><g class="trace scatter trace7285af" style="stroke-miterlimit: 2; opacity: 1;"><g class="fills"></g><g class="errorbars"></g><g class="lines"><path class="js-line" d="M0,271.96L7.19,272.02L14.38,252.65L21.58,263.22L28.77,258.37L43.15,280.64L50.34,275.46L57.54,265.27L64.73,256.91L71.92,240.85L79.11,260.73L86.3,269.14L93.49,243.84L100.69,248.56L107.88,250.37L115.07,256.78L122.26,269.65L129.45,267.35L136.65,257.86L143.84,263.9L151.03,255.16L158.22,256.42L165.41,270.95L172.61,290.36L179.8,317.49L186.99,346.39L194.18,363.53L201.37,375.61L208.57,396.46L222.95,403.8L230.14,411.53L237.33,406.63L244.53,396.18L251.72,388.78L258.91,398.86L266.1,384.25L273.29,382.62L280.48,381.94L287.68,376.74L294.87,388.17L302.06,387.83L309.25,381.54L316.44,363.3L330.83,358.94L338.02,390.6L345.21,363.88L352.4,362.27L359.6,348.49L366.79,347.1L373.98,362.15L381.17,354.19L388.36,338.81L395.56,353.38L402.75,353.62L409.94,339.43L417.13,317.62L424.32,312.32L431.52,341.17L438.71,358.45L445.9,359.42L453.09,392.22L460.28,407.18L467.47,407.86L474.67,426.68L481.86,416.42L489.05,400.51L496.24,391.58L503.43,380.57L510.63,386.66L517.82,406.56L525.01,414.59L532.2,403.03L539.39,401.49L546.59,391.41L553.78,398.56L560.97,382.57L568.16,396.77L575.35,386.5L582.55,373.5L589.74,358.99L596.93,376.91L604.12,386.68L611.31,388.67L618.51,387.62L625.7,395.35L632.89,413.27L640.08,418.89L647.27,438.9L654.46,433.12L661.66,399.33L668.85,422.77L676.04,420.12L683.23,419.92L690.42,412.76L697.62,434.13L704.81,411.28L712,393.98" style="vector-effect: non-scaling-stroke; fill: none; stroke: rgb(255, 153, 51); stroke-opacity: 1; stroke-width: 1.3px; opacity: 1;"></path></g><g class="points"></g><g class="text"></g></g><g class="trace scatter trace072d4a" style="stroke-miterlimit: 2; opacity: 1;"><g class="fills"></g><g class="errorbars"></g><g class="lines"><path class="js-line" d="M0,257.45L7.19,234.15L14.38,249.22L21.58,240.16L28.77,206.62L35.96,209.29L43.15,189.46L50.34,188.78L57.54,189.7L64.73,182.71L71.92,192.46L79.11,190.93L86.3,204.52L93.49,190.53L100.69,196.69L107.88,189.15L115.07,187.4L122.26,178.94L129.45,200.48L136.65,214.86L143.84,219.18L151.03,208.93L158.22,191.54L165.41,192.98L172.61,214.99L179.8,206.15L186.99,211.78L194.18,176.47L201.37,175.08L208.57,195.54L215.76,181.42L222.95,167.86L230.14,163.71L237.33,177.54L244.53,164.87L251.72,162.61L258.91,166.56L266.1,170.44L273.29,172.09L280.48,173.71L287.68,171.94L294.87,140.31L302.06,138.61L309.25,151.33L316.44,146.17L330.83,101.53L338.02,96.24L345.21,88.05L352.4,69.38L359.6,81.95L366.79,91.9L373.98,92.72L381.17,101.06L388.36,121.05L395.56,109.28L402.75,88.31L409.94,113.32L417.13,99.6L424.32,109.77L431.52,117.73L438.71,91.84L445.9,93.44L453.09,96.39L460.28,90.49L467.47,80.39L474.67,84.49L481.86,71.68L489.05,72.48L496.24,76.89L510.63,50.37L517.82,47.01L532.2,35.01L539.39,33.56L546.59,35.49L553.78,29.02L560.97,27.21L568.16,23.1L575.35,35.11L582.55,29.66L589.74,51.05L596.93,37.99L604.12,52.76L611.31,62.8L618.51,74.5L625.7,88.74L632.89,92.96L640.08,116.63L647.27,133.36L654.46,126.53L668.85,130.68L676.04,149.58L683.23,141.84L690.42,124.46L697.62,123.5L704.81,146.96L712,134.82" style="vector-effect: non-scaling-stroke; fill: none; stroke: rgb(55, 128, 191); stroke-opacity: 1; stroke-width: 1.3px; opacity: 1;"></path></g><g class="points"></g><g class="text"></g></g><g class="trace scatter traced54be1" style="stroke-miterlimit: 2; opacity: 1;"><g class="fills"></g><g class="errorbars"></g><g class="lines"><path class="js-line" d="M0,274.51L7.19,291.85L14.38,296.05L21.58,300.16L28.77,321.31L35.96,321.77L43.15,329.2L50.34,307.11L57.54,305.13L64.73,294.3L71.92,294.66L79.11,305.31L86.3,297.34L93.49,287.73L100.69,283.72L107.88,273.66L115.07,283.04L122.26,292.48L129.45,293.3L136.65,267.74L143.84,264.11L151.03,245.99L158.22,250.59L165.41,280.26L172.61,289.63L179.8,291.26L186.99,280.48L194.18,280.12L201.37,239.41L208.57,231.14L215.76,224.57L222.95,217.48L230.14,227.43L237.33,232.73L244.53,244.43L251.72,224.48L258.91,220.73L266.1,199.66L273.29,196.44L280.48,204.86L287.68,198.05L294.87,190.09L302.06,176.39L309.25,186.14L316.44,178.17L323.64,171.05L330.83,149.81L338.02,145.61L345.21,128.89L352.4,130.74L359.6,123.58L366.79,121.35L373.98,139.85L381.17,146.41L388.36,149.47L395.56,139.86L402.75,118.09L409.94,117.08L417.13,146.01L424.32,150.91L431.52,146.84L438.71,124.53L445.9,122.86L453.09,105.39L460.28,92.2L467.47,96.35L474.67,72.15L481.86,90.36L489.05,94.75L496.24,85.54L503.43,82.71L510.63,89.98L517.82,93.13L525.01,92.95L532.2,102.76L539.39,101L546.59,79.57L553.78,61.25L560.97,68.71L568.16,67.3L575.35,74.04L582.55,64.19L589.74,64.04L596.93,66.05L604.12,78L611.31,72L618.51,68.51L625.7,58.76L632.89,75.97L640.08,71.59L647.27,74.23L654.46,70.18L661.66,73.58L668.85,58.1L676.04,49.86L683.23,64.43L690.42,62.11L697.62,49.39L704.81,60.67L712,76.86" style="vector-effect: non-scaling-stroke; fill: none; stroke: rgb(50, 171, 96); stroke-opacity: 1; stroke-width: 1.3px; opacity: 1;"></path></g><g class="points"></g><g class="text"></g></g><g class="trace scatter tracee98092" style="stroke-miterlimit: 2; opacity: 1;"><g class="fills"></g><g class="errorbars"></g><g class="lines"><path class="js-line" d="M0,320.77L7.19,319.96L14.38,323.69L21.58,320.64L28.77,324L35.96,325.78L43.15,318.33L50.34,301.81L57.54,304.93L64.73,297.02L71.92,321.41L79.11,307.43L86.3,289.88L93.49,283.4L100.69,293.24L107.88,285.59L115.07,280.49L122.26,283.39L129.45,275.44L136.65,281.7L143.84,271.54L151.03,260.32L158.22,274.4L165.41,283.12L172.61,283.19L179.8,323.66L186.99,319.38L194.18,292.47L201.37,306.04L208.57,314.32L215.76,309.12L222.95,288.62L230.14,292.4L237.33,292.17L244.53,295.32L251.72,309.04L258.91,297.77L266.1,298.68L273.29,294.13L280.48,290.51L287.68,272.72L294.87,282.55L302.06,298.35L309.25,285.18L316.44,304.91L323.64,308.63L330.83,293.52L338.02,300.69L345.21,298.75L352.4,301.82L359.6,297.49L366.79,300.35L373.98,297.83L381.17,283.93L388.36,268.2L395.56,275.97L402.75,271.3L409.94,281.62L417.13,284.1L424.32,295.78L431.52,314.6L438.71,316.31L445.9,319.03L460.28,312.16L467.47,310.16L474.67,309.68L481.86,304.74L489.05,294.66L496.24,300.15L503.43,273.81L510.63,255.49L517.82,228.21L525.01,223.31L539.39,235.48L546.59,234.05L553.78,232.63L560.97,237.86L568.16,235.32L575.35,222.73L582.55,231.99L589.74,222.32L596.93,222.51L604.12,234.98L611.31,240.7L618.51,273.26L625.7,272.83L632.89,283.31L640.08,265.56L647.27,272.42L654.46,289.77L661.66,271.02L668.85,262.37L676.04,271.85L683.23,275.7L690.42,282.6L697.62,288.83L704.81,266.24L712,284.27" style="vector-effect: non-scaling-stroke; fill: none; stroke: rgb(128, 0, 128); stroke-opacity: 1; stroke-width: 1.3px; opacity: 1;"></path></g><g class="points"></g><g class="text"></g></g><g class="trace scatter traceacf90e" style="stroke-miterlimit: 2; opacity: 1;"><g class="fills"></g><g class="errorbars"></g><g class="lines"><path class="js-line" d="M0,286.64L7.19,269.14L14.38,259.88L21.58,263.76L28.77,261.29L35.96,263.77L43.15,231.35L50.34,245.6L57.54,241.66L64.73,260.5L71.92,271.42L79.11,287.94L86.3,284.94L93.49,264.89L100.69,275.63L107.88,280.21L115.07,273.87L122.26,268.13L129.45,249.44L136.65,227.92L143.84,238.76L151.03,214.22L158.22,209.95L165.41,205.22L172.61,197.87L179.8,198.18L186.99,188.53L194.18,184.24L201.37,184.06L208.57,190.75L215.76,181.98L222.95,176.89L230.14,168.29L237.33,174.99L244.53,156.55L251.72,163.88L258.91,175.08L266.1,172.78L273.29,150.01L280.48,163L287.68,173.82L302.06,185.69L309.25,193.11L316.44,169.46L323.64,194.87L330.83,200.93L338.02,217.9L345.21,228.76L352.4,232.12L359.6,225.55L366.79,245.6L373.98,246.93L381.17,253.17L388.36,261.64L395.56,252.56L402.75,235.72L409.94,241.87L417.13,231.07L424.32,226L431.52,214.22L438.71,217.34L445.9,200.25L453.09,205.95L460.28,189.12L467.47,177.66L474.67,172.75L481.86,151.32L489.05,163.69L496.24,165.77L503.43,172.09L510.63,175.16L517.82,172.6L525.01,188.46L532.2,187.92L539.39,215.22L546.59,213.07L553.78,218.71L560.97,247.57L568.16,237.04L582.55,260.28L589.74,250.27L596.93,257.71L604.12,266.91L611.31,276.35L618.51,290.18L625.7,268.98L632.89,263.27L640.08,287.22L647.27,295.14L654.46,298.81L661.66,314.64L668.85,318.06L676.04,306.01L683.23,309.51L690.42,317.79L697.62,329.41L704.81,344.54L712,362.25" style="vector-effect: non-scaling-stroke; fill: none; stroke: rgb(219, 64, 82); stroke-opacity: 1; stroke-width: 1.3px; opacity: 1;"></path></g><g class="points"></g><g class="text"></g></g></g></g><g class="overplot"></g><path class="xlines-above crisp" d="M0,0" style="fill: none;"></path><path class="ylines-above crisp" style="fill: none;" d="M0,0"></path><g class="overlines-above"></g><g class="xaxislayer-above"><g class="xtick"><text text-anchor="middle" x="0" y="575" data-unformatted="Jan 11<br>2015" data-math="N" transform="translate(151.92000000000002,0)" style="font-family: &quot;Open Sans&quot;, verdana, arial, sans-serif; font-size: 12px; fill: rgb(77, 86, 99); fill-opacity: 1; white-space: pre;"><tspan class="line" dy="0em" x="0" y="575">Jan 11</tspan><tspan class="line" dy="1.3em" x="0" y="575">2015</tspan></text></g><g class="xtick"><text text-anchor="middle" x="0" y="575" data-unformatted="Jan 25" data-math="N" transform="translate(252.61,0)" style="font-family: &quot;Open Sans&quot;, verdana, arial, sans-serif; font-size: 12px; fill: rgb(77, 86, 99); fill-opacity: 1; white-space: pre;">Jan 25</text></g><g class="xtick"><text text-anchor="middle" x="0" y="575" data-unformatted="Feb 8" data-math="N" transform="translate(353.29,0)" style="font-family: &quot;Open Sans&quot;, verdana, arial, sans-serif; font-size: 12px; fill: rgb(77, 86, 99); fill-opacity: 1; white-space: pre;">Feb 8</text></g><g class="xtick"><text text-anchor="middle" x="0" y="575" data-unformatted="Feb 22" data-math="N" transform="translate(453.98,0)" style="font-family: &quot;Open Sans&quot;, verdana, arial, sans-serif; font-size: 12px; fill: rgb(77, 86, 99); fill-opacity: 1; white-space: pre;">Feb 22</text></g><g class="xtick"><text text-anchor="middle" x="0" y="575" data-unformatted="Mar 8" data-math="N" transform="translate(554.6700000000001,0)" style="font-family: &quot;Open Sans&quot;, verdana, arial, sans-serif; font-size: 12px; fill: rgb(77, 86, 99); fill-opacity: 1; white-space: pre;">Mar 8</text></g><g class="xtick"><text text-anchor="middle" x="0" y="575" data-unformatted="Mar 22" data-math="N" transform="translate(655.35,0)" style="font-family: &quot;Open Sans&quot;, verdana, arial, sans-serif; font-size: 12px; fill: rgb(77, 86, 99); fill-opacity: 1; white-space: pre;">Mar 22</text></g><g class="xtick"><text text-anchor="middle" x="0" y="575" data-unformatted="Apr 5" data-math="N" transform="translate(756.04,0)" style="font-family: &quot;Open Sans&quot;, verdana, arial, sans-serif; font-size: 12px; fill: rgb(77, 86, 99); fill-opacity: 1; white-space: pre;">Apr 5</text></g></g><g class="yaxislayer-above"><g class="ytick"><text text-anchor="end" x="79" y="4.199999999999999" data-unformatted="−10" data-math="N" transform="translate(0,511.16)" style="font-family: &quot;Open Sans&quot;, verdana, arial, sans-serif; font-size: 12px; fill: rgb(77, 86, 99); fill-opacity: 1; white-space: pre;">−10</text></g><g class="ytick"><text text-anchor="end" x="79" y="4.199999999999999" data-unformatted="−5" data-math="N" transform="translate(0,446.81)" style="font-family: &quot;Open Sans&quot;, verdana, arial, sans-serif; font-size: 12px; fill: rgb(77, 86, 99); fill-opacity: 1; white-space: pre;">−5</text></g><g class="ytick"><text text-anchor="end" x="79" y="4.199999999999999" data-unformatted="0" data-math="N" transform="translate(0,382.47)" style="font-family: &quot;Open Sans&quot;, verdana, arial, sans-serif; font-size: 12px; fill: rgb(77, 86, 99); fill-opacity: 1; white-space: pre;">0</text></g><g class="ytick"><text text-anchor="end" x="79" y="4.199999999999999" data-unformatted="5" data-math="N" transform="translate(0,318.12)" style="font-family: &quot;Open Sans&quot;, verdana, arial, sans-serif; font-size: 12px; fill: rgb(77, 86, 99); fill-opacity: 1; white-space: pre;">5</text></g><g class="ytick"><text text-anchor="end" x="79" y="4.199999999999999" data-unformatted="10" data-math="N" transform="translate(0,253.77)" style="font-family: &quot;Open Sans&quot;, verdana, arial, sans-serif; font-size: 12px; fill: rgb(77, 86, 99); fill-opacity: 1; white-space: pre;">10</text></g><g class="ytick"><text text-anchor="end" x="79" y="4.199999999999999" data-unformatted="15" data-math="N" transform="translate(0,189.43)" style="font-family: &quot;Open Sans&quot;, verdana, arial, sans-serif; font-size: 12px; fill: rgb(77, 86, 99); fill-opacity: 1; white-space: pre;">15</text></g><g class="ytick"><text text-anchor="end" x="79" y="4.199999999999999" data-unformatted="20" data-math="N" transform="translate(0,125.08)" style="font-family: &quot;Open Sans&quot;, verdana, arial, sans-serif; font-size: 12px; fill: rgb(77, 86, 99); fill-opacity: 1; white-space: pre;">20</text></g></g><g class="overaxes-above"></g></g></g><g class="polarlayer"></g><g class="ternarylayer"></g><g class="geolayer"></g><g class="funnelarealayer"></g><g class="pielayer"></g><g class="treemaplayer"></g><g class="sunburstlayer"></g><g class="glimages"></g></svg><div class="gl-container"></div><svg class="main-svg" style="position: absolute" xmlns="http://www.w3.org/2000/svg" xmlns:xlink="http://www.w3.org/1999/xlink" width="904.225352112676" height="642"><defs id="topdefs-5c2123"><g class="clips"></g><clipPath id="legend5c2123"><rect width="86" height="105" x="0" y="0"></rect></clipPath></defs><g class="indicatorlayer"></g><g class="layer-above"><g class="imagelayer"></g><g class="shapelayer"></g></g><g class="infolayer"><g class="legend" pointer-events="all" transform="translate(806.24,100)"><rect class="bg" shape-rendering="crispEdges" style="stroke: rgb(68, 68, 68); stroke-opacity: 1; fill: rgb(245, 246, 249); fill-opacity: 1; stroke-width: 0px;" width="86" height="105" x="0" y="0"></rect><g class="scrollbox" transform="" clip-path="url('#legend5c2123')"><g class="groups"><g class="traces" transform="translate(0,14.5)" style="opacity: 1;"><text class="legendtext" text-anchor="start" x="40" y="4.680000000000001" data-unformatted="ZJK.TF" data-math="N" style="font-family: &quot;Open Sans&quot;, verdana, arial, sans-serif; font-size: 12px; fill: rgb(77, 86, 99); fill-opacity: 1; white-space: pre;">ZJK.TF</text><g class="layers" style="opacity: 1;"><g class="legendfill"></g><g class="legendlines"><path class="js-line" d="M5,0h30" style="fill: none; stroke: rgb(255, 153, 51); stroke-opacity: 1; stroke-width: 1.3px;"></path></g><g class="legendsymbols"><g class="legendpoints"></g></g></g><rect class="legendtoggle" pointer-events="all" x="0" y="-9.5" width="80.890625" height="19" style="cursor: pointer; fill: rgb(0, 0, 0); fill-opacity: 0;"></rect></g><g class="traces" style="opacity: 1;" transform="translate(0,33.5)"><text class="legendtext" text-anchor="start" x="40" y="4.680000000000001" data-unformatted="JIY.MR" data-math="N" style="font-family: &quot;Open Sans&quot;, verdana, arial, sans-serif; font-size: 12px; fill: rgb(77, 86, 99); fill-opacity: 1; white-space: pre;">JIY.MR</text><g class="layers" style="opacity: 1;"><g class="legendfill"></g><g class="legendlines"><path class="js-line" d="M5,0h30" style="fill: none; stroke: rgb(55, 128, 191); stroke-opacity: 1; stroke-width: 1.3px;"></path></g><g class="legendsymbols"><g class="legendpoints"></g></g></g><rect class="legendtoggle" pointer-events="all" x="0" y="-9.5" width="80.890625" height="19" style="cursor: pointer; fill: rgb(0, 0, 0); fill-opacity: 0;"></rect></g><g class="traces" style="opacity: 1;" transform="translate(0,52.5)"><text class="legendtext" text-anchor="start" x="40" y="4.680000000000001" data-unformatted="IUC.WX" data-math="N" style="font-family: &quot;Open Sans&quot;, verdana, arial, sans-serif; font-size: 12px; fill: rgb(77, 86, 99); fill-opacity: 1; white-space: pre;">IUC.WX</text><g class="layers" style="opacity: 1;"><g class="legendfill"></g><g class="legendlines"><path class="js-line" d="M5,0h30" style="fill: none; stroke: rgb(50, 171, 96); stroke-opacity: 1; stroke-width: 1.3px;"></path></g><g class="legendsymbols"><g class="legendpoints"></g></g></g><rect class="legendtoggle" pointer-events="all" x="0" y="-9.5" width="80.890625" height="19" style="cursor: pointer; fill: rgb(0, 0, 0); fill-opacity: 0;"></rect></g><g class="traces" style="opacity: 1;" transform="translate(0,71.5)"><text class="legendtext" text-anchor="start" x="40" y="4.680000000000001" data-unformatted="ZOX.TI" data-math="N" style="font-family: &quot;Open Sans&quot;, verdana, arial, sans-serif; font-size: 12px; fill: rgb(77, 86, 99); fill-opacity: 1; white-space: pre;">ZOX.TI</text><g class="layers" style="opacity: 1;"><g class="legendfill"></g><g class="legendlines"><path class="js-line" d="M5,0h30" style="fill: none; stroke: rgb(128, 0, 128); stroke-opacity: 1; stroke-width: 1.3px;"></path></g><g class="legendsymbols"><g class="legendpoints"></g></g></g><rect class="legendtoggle" pointer-events="all" x="0" y="-9.5" width="80.890625" height="19" style="cursor: pointer; fill: rgb(0, 0, 0); fill-opacity: 0;"></rect></g><g class="traces" style="opacity: 1;" transform="translate(0,90.5)"><text class="legendtext" text-anchor="start" x="40" y="4.680000000000001" data-unformatted="IZX.UN" data-math="N" style="font-family: &quot;Open Sans&quot;, verdana, arial, sans-serif; font-size: 12px; fill: rgb(77, 86, 99); fill-opacity: 1; white-space: pre;">IZX.UN</text><g class="layers" style="opacity: 1;"><g class="legendfill"></g><g class="legendlines"><path class="js-line" d="M5,0h30" style="fill: none; stroke: rgb(219, 64, 82); stroke-opacity: 1; stroke-width: 1.3px;"></path></g><g class="legendsymbols"><g class="legendpoints"></g></g></g><rect class="legendtoggle" pointer-events="all" x="0" y="-9.5" width="80.890625" height="19" style="cursor: pointer; fill: rgb(0, 0, 0); fill-opacity: 0;"></rect></g></g></g><rect class="scrollbar" rx="20" ry="3" width="0" height="0" style="fill: rgb(128, 139, 164); fill-opacity: 1;" x="0" y="0"></rect></g><g class="g-gtitle"></g><g class="g-xtitle"></g><g class="g-ytitle"></g></g><g class="menulayer"></g><g class="zoomlayer"></g></svg><div class="modebar-container" style="position: absolute; top: 0px; right: 0px; width: 100%;"><div id="modebar-5c2123" class="modebar modebar--hover ease-bg"><div class="modebar-group"><a rel="tooltip" class="modebar-btn" data-title="Download plot as a png" data-toggle="false" data-gravity="n"><svg viewBox="0 0 1000 1000" class="icon" height="1em" width="1em"><path d="m500 450c-83 0-150-67-150-150 0-83 67-150 150-150 83 0 150 67 150 150 0 83-67 150-150 150z m400 150h-120c-16 0-34 13-39 29l-31 93c-6 15-23 28-40 28h-340c-16 0-34-13-39-28l-31-94c-6-15-23-28-40-28h-120c-55 0-100-45-100-100v-450c0-55 45-100 100-100h800c55 0 100 45 100 100v450c0 55-45 100-100 100z m-400-550c-138 0-250 112-250 250 0 138 112 250 250 250 138 0 250-112 250-250 0-138-112-250-250-250z m365 380c-19 0-35 16-35 35 0 19 16 35 35 35 19 0 35-16 35-35 0-19-16-35-35-35z" transform="matrix(1 0 0 -1 0 850)"></path></svg></a></div><div class="modebar-group"><a rel="tooltip" class="modebar-btn active" data-title="Zoom" data-attr="dragmode" data-val="zoom" data-toggle="false" data-gravity="n"><svg viewBox="0 0 1000 1000" class="icon" height="1em" width="1em"><path d="m1000-25l-250 251c40 63 63 138 63 218 0 224-182 406-407 406-224 0-406-182-406-406s183-406 407-406c80 0 155 22 218 62l250-250 125 125z m-812 250l0 438 437 0 0-438-437 0z m62 375l313 0 0-312-313 0 0 312z" transform="matrix(1 0 0 -1 0 850)"></path></svg></a><a rel="tooltip" class="modebar-btn" data-title="Pan" data-attr="dragmode" data-val="pan" data-toggle="false" data-gravity="n"><svg viewBox="0 0 1000 1000" class="icon" height="1em" width="1em"><path d="m1000 350l-187 188 0-125-250 0 0 250 125 0-188 187-187-187 125 0 0-250-250 0 0 125-188-188 186-187 0 125 252 0 0-250-125 0 187-188 188 188-125 0 0 250 250 0 0-126 187 188z" transform="matrix(1 0 0 -1 0 850)"></path></svg></a></div><div class="modebar-group"><a rel="tooltip" class="modebar-btn" data-title="Zoom in" data-attr="zoom" data-val="in" data-toggle="false" data-gravity="n"><svg viewBox="0 0 875 1000" class="icon" height="1em" width="1em"><path d="m1 787l0-875 875 0 0 875-875 0z m687-500l-187 0 0-187-125 0 0 187-188 0 0 125 188 0 0 187 125 0 0-187 187 0 0-125z" transform="matrix(1 0 0 -1 0 850)"></path></svg></a><a rel="tooltip" class="modebar-btn" data-title="Zoom out" data-attr="zoom" data-val="out" data-toggle="false" data-gravity="n"><svg viewBox="0 0 875 1000" class="icon" height="1em" width="1em"><path d="m0 788l0-876 875 0 0 876-875 0z m688-500l-500 0 0 125 500 0 0-125z" transform="matrix(1 0 0 -1 0 850)"></path></svg></a><a rel="tooltip" class="modebar-btn" data-title="Autoscale" data-attr="zoom" data-val="auto" data-toggle="false" data-gravity="n"><svg viewBox="0 0 1000 1000" class="icon" height="1em" width="1em"><path d="m250 850l-187 0-63 0 0-62 0-188 63 0 0 188 187 0 0 62z m688 0l-188 0 0-62 188 0 0-188 62 0 0 188 0 62-62 0z m-875-938l0 188-63 0 0-188 0-62 63 0 187 0 0 62-187 0z m875 188l0-188-188 0 0-62 188 0 62 0 0 62 0 188-62 0z m-125 188l-1 0-93-94-156 156 156 156 92-93 2 0 0 250-250 0 0-2 93-92-156-156-156 156 94 92 0 2-250 0 0-250 0 0 93 93 157-156-157-156-93 94 0 0 0-250 250 0 0 0-94 93 156 157 156-157-93-93 0 0 250 0 0 250z" transform="matrix(1 0 0 -1 0 850)"></path></svg></a><a rel="tooltip" class="modebar-btn" data-title="Reset axes" data-attr="zoom" data-val="reset" data-toggle="false" data-gravity="n"><svg viewBox="0 0 928.6 1000" class="icon" height="1em" width="1em"><path d="m786 296v-267q0-15-11-26t-25-10h-214v214h-143v-214h-214q-15 0-25 10t-11 26v267q0 1 0 2t0 2l321 264 321-264q1-1 1-4z m124 39l-34-41q-5-5-12-6h-2q-7 0-12 3l-386 322-386-322q-7-4-13-4-7 2-12 7l-35 41q-4 5-3 13t6 12l401 334q18 15 42 15t43-15l136-114v109q0 8 5 13t13 5h107q8 0 13-5t5-13v-227l122-102q5-5 6-12t-4-13z" transform="matrix(1 0 0 -1 0 850)"></path></svg></a></div><div class="modebar-group"><a rel="tooltip" class="modebar-btn" data-title="Toggle Spike Lines" data-attr="_cartesianSpikesEnabled" data-val="on" data-toggle="false" data-gravity="n"><svg viewBox="0 0 1000 1000" class="icon" height="1em" width="1em"><path d="M512 409c0-57-46-104-103-104-57 0-104 47-104 104 0 57 47 103 104 103 57 0 103-46 103-103z m-327-39l92 0 0 92-92 0z m-185 0l92 0 0 92-92 0z m370-186l92 0 0 93-92 0z m0-184l92 0 0 92-92 0z" transform="matrix(1.5 0 0 -1.5 0 850)"></path></svg></a><a rel="tooltip" class="modebar-btn" data-title="Show closest data on hover" data-attr="hovermode" data-val="closest" data-toggle="false" data-gravity="ne"><svg viewBox="0 0 1500 1000" class="icon" height="1em" width="1em"><path d="m375 725l0 0-375-375 375-374 0-1 1125 0 0 750-1125 0z" transform="matrix(1 0 0 -1 0 850)"></path></svg></a><a rel="tooltip" class="modebar-btn active" data-title="Compare data on hover" data-attr="hovermode" data-val="x" data-toggle="false" data-gravity="ne"><svg viewBox="0 0 1125 1000" class="icon" height="1em" width="1em"><path d="m187 786l0 2-187-188 188-187 0 0 937 0 0 373-938 0z m0-499l0 1-187-188 188-188 0 0 937 0 0 376-938-1z" transform="matrix(1 0 0 -1 0 850)"></path></svg></a></div></div></div><svg class="main-svg" style="position: absolute" xmlns="http://www.w3.org/2000/svg" xmlns:xlink="http://www.w3.org/1999/xlink" width="904.225352112676" height="642"><g class="hoverlayer"></g></svg>