<svg class="main-svg" style="position: absolute" xmlns="http://www.w3.org/2000/svg" xmlns:xlink="http://www.w3.org/1999/xlink" width="904.225352112676" height="642" style="background: rgb(255, 255, 255);"><defs id="defs-31bd25"><g class="clips"><clipPath id="clip31bd25xyplot" class="plotclip"><rect width="627" height="462"></rect></clipPath><clipPath class="axesclip" id="clip31bd25x"><rect x="80" y="0" width="627" height="642"></rect></clipPath><clipPath class="axesclip" id="clip31bd25y"><rect x="0" y="100" width="904.225352112676" height="462"></rect></clipPath><clipPath class="axesclip" id="clip31bd25xy"><rect x="80" y="100" width="627" height="462"></rect></clipPath></g><g class="gradients"></g></defs><g class="bglayer"></g><g class="draglayer cursor-crosshair"><g class="xy"><rect class="nsewdrag drag" data-subplot="xy" x="80" y="100" width="627" height="462" style="fill: transparent; stroke-width: 0; pointer-events: all;"></rect><rect class="nwdrag drag cursor-nw-resize" data-subplot="xy" x="60" y="80" width="20" height="20" style="fill: transparent; stroke-width: 0; pointer-events: all;"></rect><rect class="nedrag drag cursor-ne-resize" data-subplot="xy" x="707" y="80" width="20" height="20" style="fill: transparent; stroke-width: 0; pointer-events: all;"></rect><rect class="swdrag drag cursor-sw-resize" data-subplot="xy" x="60" y="562" width="20" height="20" style="fill: transparent; stroke-width: 0; pointer-events: all;"></rect><rect class="sedrag drag cursor-se-resize" data-subplot="xy" x="707" y="562" width="20" height="20" style="fill: transparent; stroke-width: 0; pointer-events: all;"></rect><rect class="ewdrag drag cursor-ew-resize" data-subplot="xy" x="142.7" y="562.5" width="501.6" height="20" style="fill: transparent; stroke-width: 0; pointer-events: all;"></rect><rect class="wdrag drag cursor-w-resize" data-subplot="xy" x="80" y="562.5" width="62.7" height="20" style="fill: transparent; stroke-width: 0; pointer-events: all;"></rect><rect class="edrag drag cursor-e-resize" data-subplot="xy" x="644.3000000000001" y="562.5" width="62.7" height="20" style="fill: transparent; stroke-width: 0; pointer-events: all;"></rect><rect class="nsdrag drag cursor-ns-resize" data-subplot="xy" x="59.5" y="146.2" width="20" height="369.6" style="fill: transparent; stroke-width: 0; pointer-events: all;"></rect><rect class="sdrag drag cursor-s-resize" data-subplot="xy" x="59.5" y="515.8" width="20" height="46.2" style="fill: transparent; stroke-width: 0; pointer-events: all;"></rect><rect class="ndrag drag cursor-n-resize" data-subplot="xy" x="59.5" y="100" width="20" height="46.2" style="fill: transparent; stroke-width: 0; pointer-events: all;"></rect></g></g><g class="layer-below"><g class="imagelayer"></g><g class="shapelayer"></g></g><g class="cartesianlayer"><g class="subplot xy"><g class="layer-subplot"><g class="shapelayer"></g><g class="imagelayer"></g></g><g class="gridlayer"><g class="x"><path class="xgrid crisp" transform="translate(173.47,0)" d="M0,100v462" style="stroke: rgb(238, 238, 238); stroke-opacity: 1; stroke-width: 1px;"></path><path class="xgrid crisp" transform="translate(267.72,0)" d="M0,100v462" style="stroke: rgb(238, 238, 238); stroke-opacity: 1; stroke-width: 1px;"></path><path class="xgrid crisp" transform="translate(361.7,0)" d="M0,100v462" style="stroke: rgb(238, 238, 238); stroke-opacity: 1; stroke-width: 1px;"></path><path class="xgrid crisp" transform="translate(455.69,0)" d="M0,100v462" style="stroke: rgb(238, 238, 238); stroke-opacity: 1; stroke-width: 1px;"></path><path class="xgrid crisp" transform="translate(549.6800000000001,0)" d="M0,100v462" style="stroke: rgb(238, 238, 238); stroke-opacity: 1; stroke-width: 1px;"></path><path class="xgrid crisp" transform="translate(643.92,0)" d="M0,100v462" style="stroke: rgb(238, 238, 238); stroke-opacity: 1; stroke-width: 1px;"></path></g><g class="y"><path class="ygrid crisp" transform="translate(0,501.86)" d="M80,0h627" style="stroke: rgb(238, 238, 238); stroke-opacity: 1; stroke-width: 1px;"></path><path class="ygrid crisp" transform="translate(0,440.33)" d="M80,0h627" style="stroke: rgb(238, 238, 238); stroke-opacity: 1; stroke-width: 1px;"></path><path class="ygrid crisp" transform="translate(0,378.81)" d="M80,0h627" style="stroke: rgb(238, 238, 238); stroke-opacity: 1; stroke-width: 1px;"></path><path class="ygrid crisp" transform="translate(0,317.28)" d="M80,0h627" style="stroke: rgb(238, 238, 238); stroke-opacity: 1; stroke-width: 1px;"></path><path class="ygrid crisp" transform="translate(0,255.75)" d="M80,0h627" style="stroke: rgb(238, 238, 238); stroke-opacity: 1; stroke-width: 1px;"></path><path class="ygrid crisp" transform="translate(0,194.23000000000002)" d="M80,0h627" style="stroke: rgb(238, 238, 238); stroke-opacity: 1; stroke-width: 1px;"></path><path class="ygrid crisp" transform="translate(0,132.7)" d="M80,0h627" style="stroke: rgb(238, 238, 238); stroke-opacity: 1; stroke-width: 1px;"></path></g></g><g class="zerolinelayer"></g><path class="xlines-below"></path><path class="ylines-below"></path><g class="overlines-below"></g><g class="xaxislayer-below"></g><g class="yaxislayer-below"></g><g class="overaxes-below"></g><g class="plot" transform="translate(80,100)" clip-path="url('#clip31bd25xyplot')"><g class="scatterlayer mlayer"><g class="trace scatter trace72820d" style="stroke-miterlimit: 2; opacity: 1;"><g class="fills"></g><g class="errorbars"></g><g class="lines"><path class="js-line" d="M0,34.42L1.03,43.65L1.8,47.34L2.06,47.1L2.32,31.71L2.83,42.67L3.86,52.39L4.63,88.2L5.41,90.78L5.92,67.03L6.18,74.04L6.44,77.61L7.21,83.4L7.47,72.44L7.72,23.1L8.24,30.85L9.01,29.25L9.27,28.88L9.53,25.56L9.78,31.84L10.04,31.47L10.81,32.45L11.59,38.85L11.84,36.88L13.39,66.66L13.65,49.56L14.42,43.9L14.68,51.77L15.45,63.46L16.22,69.61L16.48,70.35L16.74,75.77L18.28,100.99L18.54,100.87L19.05,108.62L19.83,100.75L20.08,100.38L20.34,98.41L20.86,83.4L21.63,90.04L22.14,89.67L22.4,91.64L22.66,88.44L23.43,86.84L23.69,79.46L26.01,90.53L26.26,90.66L27.29,102.84L27.55,102.72L27.81,93.98L28.84,99.64L29.1,95.09L29.87,91.52L30.64,94.1L31.16,99.89L31.41,99.39L31.67,95.09L32.44,103.33L32.7,94.23L33.22,84.13L33.47,100.5L34.25,105.18L34.5,120.07L35.28,115.39L36.05,124.37L36.31,128.19L36.56,127.33L36.82,119.82L37.08,115.14L38.11,115.88L38.37,116.5L38.62,128.93L38.88,121.67L39.65,134.22L41.46,152.55L41.71,146.28L42.23,154.64L42.49,153.78L43.26,156.49L43.52,139.88L44.03,148.12L44.29,146.52L45.06,159.2L45.32,154.64L45.58,150.34L46.09,130.9L47.12,128.56L47.38,130.53L47.64,121.54L48.92,133.48L49.18,133.11L49.44,130.77L51.5,143.32L52.27,143.94L52.53,141.6L52.79,156.61L53.3,165.47L54.07,163.01L54.33,154.77L54.59,207.44L54.85,207.19L55.1,210.27L56.39,241.77L56.65,231.55L56.91,232.42L57.68,239.43L58.19,237.71L58.45,243.86L58.71,245.34L59.48,239.43L60,215.19L60.25,221.96L60.51,224.17L61.28,211.62L61.8,214.45L62.06,214.45L62.31,237.21L63.34,249.15L63.86,230.57L64.12,237.83L64.89,235.74L65.4,223.8L65.92,226.75L66.69,229.34L66.95,226.63L67.21,239.55L67.46,256.9L67.72,255.06L68.49,250.5L68.75,232.54L69.27,248.29L69.52,251.86L70.3,259.86L70.55,251L72.61,214.57L72.87,212.85L73.13,207.93L73.9,211L74.93,199.19L75.7,185.04L75.96,189.22L76.22,186.39L76.48,159.07L76.73,156.24L77.51,167.2L77.76,190.08L78.02,157.11L78.28,179.13L78.54,174.33L79.57,174.21L79.82,186.27L80.08,191.19L80.34,180.86L81.11,185.41L81.37,174.21L81.63,174.21L81.88,179.87L82.14,174.21L82.91,182.82L83.94,203.74L84.72,200.91L84.97,201.53L85.23,173.72L85.49,168.55L85.75,173.84L86.52,177.66L86.78,181.35L87.03,171.01L87.29,176.67L87.55,161.29L88.32,168.3L88.58,159.81L88.84,181.59L89.35,176.06L90.12,178.27L90.9,162.52L91.15,166.58L92.18,159.94L92.96,167.44L93.99,159.44L94.24,158.09L94.5,165.23L94.76,163.38L95.53,168.55L96.3,163.75L96.56,168.92L97.59,165.97L97.85,154.64L98.36,134.83L99.14,134.09L99.65,131.88L99.91,134.22L100.94,143.45L101.2,141.36L101.45,144.19L101.71,165.23L101.97,155.14L102.74,157.84L103,157.97L103.26,156.61L103.51,159.81L103.77,150.58L105.06,170.76L105.32,168.92L105.57,169.04L106.6,169.53L106.86,175.81L107.38,171.63L108.15,173.35L108.66,176.43L108.92,186.76L110.47,203.74L110.72,199.07L110.98,187.87L111.75,196.36L112.27,192.91L112.53,199.93L113.56,205.84L113.81,212.36L114.07,212.36L114.33,217.28L114.59,218.88L115.36,199.93L115.62,199.19L115.87,200.79L116.13,204.11L116.39,202.02L117.16,203.62L117.42,203.74L117.68,217.28L117.93,223.92L118.96,230.32L119.22,229.71L119.48,231.43L119.74,226.51L119.99,230.94L120.77,233.28L121.02,226.88L121.28,232.29L121.54,233.4L121.8,227.99L122.57,235.98L122.83,236.6L123.08,230.32L123.6,234.14L124.37,235.61L124.63,233.4L124.89,240.29L125.14,240.54L125.4,250.75L126.43,252.23L126.69,253.83L126.95,252.35L127.2,245.34L127.98,251.73L128.23,248.04L128.49,248.9L129.01,253.21L129.78,249.89L130.04,247.3L130.29,250.5L130.55,250.5L130.81,251L131.84,244.97L132.35,248.04L132.61,242.26L133.64,232.42L133.9,223.06L134.16,212.85L134.41,216.79L135.19,213.96L135.44,216.54L135.7,213.46L135.96,207.93L137.25,184.92L137.5,184.67L137.76,187.62L138.02,184.18L138.79,186.15L139.05,186.15L139.31,179.75L139.56,178.03L139.82,169.66L141.37,172.36L141.62,180.36L142.4,183.07L142.65,180.49L143.17,193.16L143.43,185.53L144.2,187.75L144.46,188.85L144.71,177.78L144.97,175.93L145.23,177.9L146,190.7L146.52,192.05L146.77,190.58L147.03,182.82L147.8,183.19L148.32,204.24L148.58,245.09L150.64,213.59L151.41,214.33L151.92,218.26L152.18,214.2L153.47,196.36L153.73,204.48L155.01,195.01L155.27,195.38L155.53,195.87L155.79,201.53L156.04,201.04L157.07,194.88L157.59,202.39L157.85,201.77L158.62,201.28L159.65,187.25L160.42,194.02L160.68,191.56L160.94,191.93L161.19,198.94L161.45,191.68L162.22,193.28L162.48,191.56L162.74,203.13L163,203.25L163.25,205.34L164.03,203.74L164.28,197.96L164.8,208.3L165.06,201.65L165.83,204.97L166.09,204.6L166.34,210.63L166.6,209.53L166.86,212.85L167.63,213.34L167.89,210.63L168.4,213.96L168.66,226.39L169.95,250.63L170.21,243.98L170.46,239.43L171.75,247.3L172.01,240.41L172.27,234.01L173.04,237.34L174.07,222.32L174.84,223.31L175.1,219.13L175.36,223.31L175.61,230.45L175.87,219L176.64,224.05L176.9,223.06L177.16,223.8L177.67,218.51L178.45,218.76L178.7,221.71L178.96,223.43L179.22,220.36L179.48,220.85L181.02,209.4L181.28,214.7L182.05,221.22L182.31,213.1L182.57,213.34L182.82,219.49L184.63,205.96L184.88,209.9L185.66,212.23L186.17,209.16L186.69,222.2L187.46,224.54L188.23,207.07L188.49,209.03L189.26,210.63L191.06,199.81L191.32,204.85L192.09,215.31L193.12,224.91L193.38,226.02L193.64,220.97L193.9,219.25L194.67,222.69L194.93,218.63L195.18,224.66L195.44,235.12L195.7,225.15L196.47,225.89L197.5,217.89L198.27,219L199.3,203.5L200.33,195.13L200.59,194.51L200.85,203.5L201.11,199.81L201.88,205.1L202.91,226.26L203.68,231.06L204.45,233.4L204.71,229.83L205.48,232.66L205.74,228.85L206,234.51L206.26,227.99L206.51,222.57L207.29,222.45L207.54,223.43L207.8,224.17L208.06,227.74L208.32,235.25L209.09,233.65L209.35,234.63L209.6,241.52L209.86,248.9L210.89,250.63L211.15,249.15L211.41,250.13L211.66,255.3L212.69,249.27L212.95,248.29L215.53,274.5L216.3,268.84L217.07,248.78L217.33,253.58L218.1,253.46L218.36,252.35L218.62,258.01L218.87,260.35L219.13,251.98L220.42,265.27L220.68,261.95L220.93,218.63L222.48,198.94L222.74,197.71L223.51,193.28L223.77,196.61L224.02,195.87L224.28,203.37L226.08,184.55L226.34,187.13L227.11,182.09L227.63,183.56L227.89,185.16L228.14,185.04L228.92,183.44L229.17,182.58L229.43,189.47L229.95,199.44L230.72,201.28L231.23,192.67L231.49,207.07L231.75,205.1L232.52,210.63L233.04,216.54L233.29,212.85L233.55,210.63L235.35,177.9L236.13,179.62L236.38,179.62L236.64,177.41L236.9,176.3L237.16,180.12L238.44,177.29L238.7,174.58L238.96,178.52L239.73,173.47L240.25,179.5L240.5,172L241.53,181.96L242.05,181.59L242.31,177.29L244.37,172.49L245.14,172.61L246.17,163.38L246.94,163.5L247.2,163.38L247.46,165.23L247.71,166.21L247.97,165.6L248.74,165.35L249.77,185.41L250.8,183.32L251.32,178.64L251.58,188.24L252.35,184.18L252.61,176.43L252.86,167.07L253.38,174.83L254.15,173.35L255.18,151.45L255.95,149.35L256.73,137.05L256.98,142.22L257.76,147.02L258.01,141.85L258.53,147.75L258.79,154.28L259.82,164.12L260.07,179.62L260.59,154.28L261.36,152.43L261.62,149.97L261.88,151.32L262.13,156.37L263.16,143.57L263.42,141.23L263.68,140.99L263.94,142.71L264.19,143.08L264.97,146.77L265.22,136.19L265.48,165.72L266,217.16L266.77,217.89L267.03,218.26L267.28,217.03L267.54,219.74L267.8,206.57L268.57,206.33L268.83,208.3L269.34,208.17L269.6,207.8L271.15,185.78L271.4,185.9L272.18,183.81L272.43,178.39L272.69,181.47L273.21,179.13L273.98,179.13L274.24,192.67L274.75,192.3L275.01,184.92L275.78,186.64L276.04,189.96L276.55,203.5L276.81,202.27L277.58,192.18L278.61,164.86L279.39,156.86L279.64,158.34L280.16,156.74L280.42,156L281.19,158.83L281.45,155.88L281.96,160.8L282.22,157.72L282.99,159.57L284.02,156L284.79,150.71L285.82,155.51L286.85,154.64L287.11,154.89L287.37,154.52L287.63,153.54L288.66,173.47L288.91,149.35L289.43,170.76L290.2,154.28L290.72,208.67L290.97,203.5L291.23,199.44L292,201.28L292.26,196.11L292.52,196.73L292.78,184.3L293.03,186.64L294.06,187.01L294.32,187.13L294.58,174.7L294.84,174.09L295.61,192.3L295.87,193.16L296.12,198.21L296.64,191.19L297.41,201.77L297.67,183.93L298.18,191.68L298.44,197.59L301.27,245.09L301.53,243.74L301.79,231.43L302.82,221.46L303.08,219.74L303.33,220.85L303.59,226.26L304.62,222.2L304.88,208.54L305.39,205.84L305.65,212.73L307.45,244.47L308.23,246.2L308.74,249.4L309,244.97L310.03,247.92L310.29,240.04L310.8,252.23L311.06,263.06L311.83,261.83L312.09,267.49L312.35,257.15L312.6,261.7L312.86,267.12L313.63,264.16L313.89,269.7L314.15,277.21L314.41,269.09L314.66,235.12L315.44,218.39L315.69,225.15L315.95,232.05L316.21,247.3L316.47,244.97L317.24,234.75L318.01,244.72L318.27,233.77L319.3,224.54L319.56,226.26L319.81,216.42L321.36,239.43L321.62,221.09L321.87,213.59L322.65,215.31L323.68,237.95L324.45,238.94L324.71,239.8L324.96,239.06L325.22,238.44L325.48,238.44L326.25,240.41L327.02,234.01L327.28,236.85L328.05,235.61L328.31,225.52L328.57,223.8L328.83,226.14L329.86,237.34L330.89,257.03L331.66,251.86L331.92,255.67L332.17,246.32L332.43,254.2L332.69,249.77L333.46,254.44L333.98,239.8L334.23,245.09L334.49,246.81L335.26,249.77L335.52,245.09L336.29,267.24L337.07,272.16L338.1,259.12L338.87,255.43L339.13,257.27L339.38,254.2L339.64,255.55L339.9,255.8L340.67,261.95L340.93,251.12L341.19,256.53L341.44,251.98L341.7,246.94L342.47,244.23L342.73,236.23L342.99,236.85L343.25,236.35L343.5,233.28L344.53,229.71L344.79,233.65L345.05,227.74L345.31,235.37L346.08,233.15L346.59,232.05L346.85,223.19L347.88,230.2L348.14,236.97L348.65,231.68L348.91,232.54L349.68,234.88L351.49,227.74L351.74,233.65L352.52,226.51L353.29,231.92L354.32,253.95L355.09,257.4L355.86,242.51L356.12,243.49L356.89,247.3L357.41,248.41L358.7,238.81L358.95,223.43L359.47,252.23L359.73,241.52L360.5,242.87L360.76,242.14L361.01,235.61L361.27,236.11L361.53,230.94L362.3,233.03L362.56,236.11L363.07,226.63L363.33,238.69L364.1,239.8L364.36,247.3L364.62,249.03L364.88,241.28L365.13,238.32L365.91,240.17L366.94,230.82L367.71,237.95L367.97,235.86L368.22,225.89L368.48,225.03L368.74,225.52L369.51,229.46L369.77,218.63L370.28,221.96L370.54,230.82L371.31,232.17L371.57,239.06L371.83,237.09L372.09,227L372.34,227.62L373.12,224.17L374.15,221.09L374.92,219.74L375.18,218.39L375.43,219.49L375.95,227.37L376.72,226.63L376.98,236.23L377.24,237.83L377.49,233.03L378.52,246.44L378.78,240.78L379.55,257.89L380.58,255.8L380.84,264.53L381.36,258.63L382.13,259.61L383.16,263.42L383.93,262.56L384.45,264.9L384.7,257.4L385.73,252.47L385.99,252.47L386.25,255.06L386.51,251.61L386.76,248.04L387.79,245.58L388.05,247.8L388.31,247.8L388.57,249.89L389.34,252.47L389.6,249.15L390.37,252.23L391.14,246.69L392.17,251.37L392.94,250.5L393.97,256.53L394.75,257.4L395,258.26L395.26,255.06L395.78,258.01L396.55,256.9L396.81,255.55L397.06,256.66L397.32,265.89L398.35,261.33L398.61,266.5L399.12,269.95L400.15,269.7L400.93,272.16L401.18,271.67L401.96,270.81L402.99,275.73L403.76,275.11L404.02,275.61L404.27,278.81L404.53,279.91L404.79,278.81L405.56,280.41L406.59,275.98L407.36,277.08L407.62,271.05L408.14,273.27L408.39,278.56L409.68,278.07L409.94,279.42L410.97,281.51L411.23,280.65L412,280.78L413.03,281.76L413.8,273.52L414.57,271.79L415.09,262.69L415.35,265.27L415.6,265.02L416.63,264.41L416.89,255.55L417.15,258.38L417.41,257.89L418.18,256.41L418.69,257.4L418.95,255.18L419.21,259.73L419.98,259.73L420.24,259.49L420.5,257.64L420.75,262.19L421.01,259.49L421.78,266.38L422.3,272.78L422.56,270.19L423.59,268.22L424.36,277.95L424.62,263.3L426.42,284.71L427.19,287.05L427.45,288.16L427.71,294.07L427.96,294.8L428.22,300.22L429.25,302.19L429.51,306.86L429.77,331.72L430.02,329.14L430.8,331.23L431.83,314.49L432.6,314.25L432.86,315.48L433.11,322.61L433.63,328.89L434.4,325.32L435.17,333.07L435.43,332.34L436.2,332.09L437.23,339.35L438.01,334.55L439.04,342.3L440.07,338.61L440.58,342.92L440.84,338.49L441.61,338.86L441.87,340.09L442.64,346.36L443.41,343.04L443.67,348.82L444.19,344.52L444.44,342.55L445.47,345.13L445.73,341.32L445.99,343.53L446.25,341.19L447.02,333.69L447.28,333.57L447.53,330.12L447.79,327.66L448.05,329.5L448.82,329.14L449.34,327.29L449.59,329.5L449.85,327.54L450.62,328.27L451.4,325.2L451.65,323.48L452.43,315.72L452.68,323.23L453.46,374.05L454.23,364.45L454.49,365.93L454.74,358.05L455.26,371.59L456.03,368.88L457.83,378.73L458.09,377.5L458.35,375.65L458.61,380.45L458.86,381.31L459.64,377.74L460.15,385.86L460.67,383.89L461.44,381.19L461.7,383.65L461.95,379.96L462.21,380.7L462.47,384.14L465.82,413.06L466.07,417.86L467.36,399.4L467.62,407.64L468.65,409.74L468.91,407.28L469.16,406.04L469.42,406.66L470.45,406.78L472.25,429.92L472.51,429.3L473.03,427.83L473.28,434.72L474.31,430.66L474.57,438.9L475.09,428.69L475.86,428.69L476.12,427.09L476.37,429.92L476.63,434.22L477.66,424.99L477.92,427.09L478.18,426.59L478.43,423.27L478.69,417.73L479.46,420.69L479.72,422.16L479.98,417L481.78,381.43L482.04,376.63L482.3,381.19L483.07,369.99L483.33,370.6L483.58,361.01L483.84,360.02L484.1,355.84L484.87,354.48L485.13,358.79L485.9,353.38L486.67,351.29L486.93,355.59L487.45,353.99L487.7,352.76L488.48,354.48L488.73,357.19L488.99,360.27L489.25,352.64L490.28,341.07L490.54,340.95L490.79,341.32L491.05,350.42L492.08,352.89L492.34,347.35L492.6,346.24L492.85,348.7L493.11,353.99L493.88,354.24L494.14,356.95L494.4,351.78L494.91,358.18L495.69,354.98L495.94,358.3L496.2,352.39L496.46,352.27L496.72,354.61L497.49,353.25L497.75,352.52L498,345.5L498.52,345.38L499.29,344.15L500.06,337.38L500.32,341.07L501.09,342.55L501.35,346.98L501.87,339.6L502.12,349.81L502.9,346.36L503.15,350.18L503.67,361.62L503.93,374.79L504.7,372.08L504.96,368.39L505.47,371.1L505.73,369.37L506.5,365.56L506.76,367.41L507.02,361.38L507.53,360.64L508.56,358.3L509.33,365.31L510.11,362.24L510.36,362.11L510.62,365.19L511.14,370.48L511.91,367.77L512.17,370.11L512.42,367.65L512.68,365.31L513.71,359.28L513.97,359.41L514.23,361.25L514.48,355.35L514.74,361.87L515.51,369.74L515.77,374.05L516.03,371.22L516.29,363.96L516.54,360.51L517.57,366.79L520.15,347.59L520.92,346.49L521.95,355.22L522.72,351.65L522.98,351.41L523.24,345.26L523.5,356.21L523.75,355.96L524.53,351.04L525.04,357.93L525.3,354.73L525.56,351.29L526.59,349.93L526.84,351.65L527.1,352.15L527.36,354.98L528.13,352.39L528.39,354.36L528.9,355.1L529.16,353.01L529.93,353.5L530.19,350.3L530.71,346.86L530.96,347.59L531.74,346.98L531.99,346.61L532.25,348.21L532.77,342.3L533.8,341.56L534.31,345.38L534.57,345.26L535.34,351.53L535.86,355.1L536.11,349.69L536.37,347.59L537.14,334.06L538.17,346.61L538.95,348.33L539.2,350.18L539.46,347.84L539.72,348.33L539.98,352.52L540.75,352.76L541.01,350.55L541.52,351.16L541.78,352.76L542.55,352.89L542.81,354.48L543.07,353.13L543.32,358.67L544.35,363.71L544.61,364.33L546.93,372.94L547.19,378.48L547.96,379.71L548.22,381.56L550.53,355.72L550.79,345.87L551.56,332.34L552.08,336.03L552.34,336.64L552.59,337.87L553.37,336.64L554.4,324.95L555.17,326.8L555.43,324.95L555.68,327.41L555.94,331.72L556.97,324.34L557.23,328.03L558,315.11L558.77,317.57L559.8,326.18L560.58,325.57L560.83,323.72L561.09,324.34L561.35,325.57L562.64,325.57L562.89,328.03L563.15,331.1L563.41,328.64L564.44,335.41L564.7,330.49L564.95,332.95L565.21,339.1L566.24,344.03L566.5,341.56L567.01,347.1L568.04,350.79L568.3,342.18L568.82,345.87L569.59,347.1L570.1,351.41L570.36,356.58L570.62,353.87L571.39,354.48L571.91,362.48L572.16,386.6L572.42,386.48L573.19,405.68L573.71,413.55L574.22,412.32L575,411.09L575.25,412.94L575.51,397.55L576.03,400.01L577.06,403.09L577.57,399.4L577.83,401.86L578.6,405.55L579.37,413.55L579.63,411.71L580.4,411.71L580.92,413.55L581.18,411.71L582.21,412.32L582.46,414.78L582.72,417.24L582.98,412.94L583.24,408.63L584.01,409.24L584.27,411.83L584.52,417.86L585.04,416.01L585.81,415.4L586.33,418.47L586.58,415.4L587.61,413.55L587.87,417.24L588.13,416.63L588.39,418.47L589.93,407.4L590.19,408.01L591.22,404.94" style="vector-effect: non-scaling-stroke; fill: none; stroke: rgb(0, 50, 100); stroke-opacity: 1; stroke-width: 2px; opacity: 1;"></path></g><g class="points"></g><g class="text"></g></g><g class="trace scatter trace948264" style="stroke-miterlimit: 2; opacity: 1;"><g class="fills"></g><g class="errorbars"></g><g class="lines"></g><g class="points"><path class="point" transform="translate(591.6,406.17)" d="M3,0A3,3 0 1,1 0,-3A3,3 0 0,1 3,0Z" style="opacity: 1; stroke-width: 0px; fill: rgb(0, 0, 0); fill-opacity: 1;"></path></g><g class="text"></g></g><g class="trace scatter trace0c3ac9" style="stroke-miterlimit: 2; opacity: 1;"><g class="fills"></g><g class="errorbars"></g><g class="lines"><path class="js-line" d="M579.81,411.71L580.58,436.93L580.84,404.74L581.61,331.59L582.37,317.87L583.4,275.7L584.18,274.52L584.43,278.41L584.95,276.35L585.21,277.29L586.75,290.82L587.01,294.54L590.36,339.18" style="vector-effect: non-scaling-stroke; fill: none; stroke: rgb(255, 165, 0); stroke-opacity: 1; stroke-width: 2px; opacity: 1;"></path></g><g class="points"></g><g class="text"></g></g><g class="trace scatter trace011a88" style="stroke-miterlimit: 2; opacity: 1;"><g class="fills"></g><g class="errorbars"></g><g class="lines"></g><g class="points"></g><g class="text"></g></g></g></g><g class="overplot"></g><path class="xlines-above crisp" d="M0,0" style="fill: none;"></path><path class="ylines-above crisp" style="fill: none;" d="M0,0"></path><g class="overlines-above"></g><g class="xaxislayer-above"><g class="xtick"><text text-anchor="middle" x="0" y="575" data-unformatted="2012" data-math="N" transform="translate(173.47,0)" style="font-family: &quot;Open Sans&quot;, verdana, arial, sans-serif; font-size: 12px; fill: rgb(68, 68, 68); fill-opacity: 1; white-space: pre;">2012</text></g><g class="xtick"><text text-anchor="middle" x="0" y="575" data-unformatted="2013" data-math="N" transform="translate(267.72,0)" style="font-family: &quot;Open Sans&quot;, verdana, arial, sans-serif; font-size: 12px; fill: rgb(68, 68, 68); fill-opacity: 1; white-space: pre;">2013</text></g><g class="xtick"><text text-anchor="middle" x="0" y="575" data-unformatted="2014" data-math="N" transform="translate(361.7,0)" style="font-family: &quot;Open Sans&quot;, verdana, arial, sans-serif; font-size: 12px; fill: rgb(68, 68, 68); fill-opacity: 1; white-space: pre;">2014</text></g><g class="xtick"><text text-anchor="middle" x="0" y="575" data-unformatted="2015" data-math="N" transform="translate(455.69,0)" style="font-family: &quot;Open Sans&quot;, verdana, arial, sans-serif; font-size: 12px; fill: rgb(68, 68, 68); fill-opacity: 1; white-space: pre;">2015</text></g><g class="xtick"><text text-anchor="middle" x="0" y="575" data-unformatted="2016" data-math="N" transform="translate(549.6800000000001,0)" style="font-family: &quot;Open Sans&quot;, verdana, arial, sans-serif; font-size: 12px; fill: rgb(68, 68, 68); fill-opacity: 1; white-space: pre;">2016</text></g><g class="xtick"><text text-anchor="middle" x="0" y="575" data-unformatted="2017" data-math="N" transform="translate(643.92,0)" style="font-family: &quot;Open Sans&quot;, verdana, arial, sans-serif; font-size: 12px; fill: rgb(68, 68, 68); fill-opacity: 1; white-space: pre;">2017</text></g></g><g class="yaxislayer-above"><g class="ytick"><text text-anchor="end" x="79" y="4.199999999999999" data-unformatted="10" data-math="N" transform="translate(0,501.86)" style="font-family: &quot;Open Sans&quot;, verdana, arial, sans-serif; font-size: 12px; fill: rgb(68, 68, 68); fill-opacity: 1; white-space: pre;">10</text></g><g class="ytick"><text text-anchor="end" x="79" y="4.199999999999999" data-unformatted="15" data-math="N" transform="translate(0,440.33)" style="font-family: &quot;Open Sans&quot;, verdana, arial, sans-serif; font-size: 12px; fill: rgb(68, 68, 68); fill-opacity: 1; white-space: pre;">15</text></g><g class="ytick"><text text-anchor="end" x="79" y="4.199999999999999" data-unformatted="20" data-math="N" transform="translate(0,378.81)" style="font-family: &quot;Open Sans&quot;, verdana, arial, sans-serif; font-size: 12px; fill: rgb(68, 68, 68); fill-opacity: 1; white-space: pre;">20</text></g><g class="ytick"><text text-anchor="end" x="79" y="4.199999999999999" data-unformatted="25" data-math="N" transform="translate(0,317.28)" style="font-family: &quot;Open Sans&quot;, verdana, arial, sans-serif; font-size: 12px; fill: rgb(68, 68, 68); fill-opacity: 1; white-space: pre;">25</text></g><g class="ytick"><text text-anchor="end" x="79" y="4.199999999999999" data-unformatted="30" data-math="N" transform="translate(0,255.75)" style="font-family: &quot;Open Sans&quot;, verdana, arial, sans-serif; font-size: 12px; fill: rgb(68, 68, 68); fill-opacity: 1; white-space: pre;">30</text></g><g class="ytick"><text text-anchor="end" x="79" y="4.199999999999999" data-unformatted="35" data-math="N" transform="translate(0,194.23000000000002)" style="font-family: &quot;Open Sans&quot;, verdana, arial, sans-serif; font-size: 12px; fill: rgb(68, 68, 68); fill-opacity: 1; white-space: pre;">35</text></g><g class="ytick"><text text-anchor="end" x="79" y="4.199999999999999" data-unformatted="40" data-math="N" transform="translate(0,132.7)" style="font-family: &quot;Open Sans&quot;, verdana, arial, sans-serif; font-size: 12px; fill: rgb(68, 68, 68); fill-opacity: 1; white-space: pre;">40</text></g></g><g class="overaxes-above"></g></g></g><g class="polarlayer"></g><g class="ternarylayer"></g><g class="geolayer"></g><g class="funnelarealayer"></g><g class="pielayer"></g><g class="treemaplayer"></g><g class="sunburstlayer"></g><g class="glimages"></g></svg><div class="gl-container"></div><svg class="main-svg" style="position: absolute" xmlns="http://www.w3.org/2000/svg" xmlns:xlink="http://www.w3.org/1999/xlink" width="904.225352112676" height="642"><defs id="topdefs-31bd25"><g class="clips"></g><clipPath id="legend31bd25"><rect width="172" height="86" x="0" y="0"></rect></clipPath></defs><g class="indicatorlayer"></g><g class="layer-above"><g class="imagelayer"></g><g class="shapelayer"></g></g><g class="infolayer"><g class="legend" pointer-events="all" transform="translate(719.54,100)"><rect class="bg" shape-rendering="crispEdges" style="stroke: rgb(68, 68, 68); stroke-opacity: 1; fill: rgb(255, 255, 255); fill-opacity: 1; stroke-width: 0px;" width="172" height="86" x="0" y="0"></rect><g class="scrollbox" transform="" clip-path="url('#legend31bd25')"><g class="groups"><g class="traces" transform="translate(0,14.5)" style="opacity: 1;"><text class="legendtext" text-anchor="start" x="40" y="4.680000000000001" data-unformatted="Past Data for BBOX" data-math="N" style="font-family: &quot;Open Sans&quot;, verdana, arial, sans-serif; font-size: 12px; fill: rgb(68, 68, 68); fill-opacity: 1; white-space: pre;">Past Data for BBOX</text><g class="layers" style="opacity: 1;"><g class="legendfill"></g><g class="legendlines"><path class="js-line" d="M5,0h30" style="fill: none; stroke: rgb(0, 50, 100); stroke-opacity: 1; stroke-width: 2px;"></path></g><g class="legendsymbols"><g class="legendpoints"></g></g></g><rect class="legendtoggle" pointer-events="all" x="0" y="-9.5" width="166.796875" height="19" style="cursor: pointer; fill: rgb(0, 0, 0); fill-opacity: 0;"></rect></g><g class="traces" style="opacity: 1;" transform="translate(0,33.5)"><text class="legendtext" text-anchor="start" x="40" y="4.680000000000001" data-unformatted="Current Data for BBOX" data-math="N" style="font-family: &quot;Open Sans&quot;, verdana, arial, sans-serif; font-size: 12px; fill: rgb(68, 68, 68); fill-opacity: 1; white-space: pre;">Current Data for BBOX</text><g class="layers" style="opacity: 1;"><g class="legendfill"></g><g class="legendlines"><path class="js-line" d="M5,0h30" style="fill: none; stroke: rgb(0, 0, 0); stroke-opacity: 1; stroke-width: 2px;"></path></g><g class="legendsymbols"><g class="legendpoints"><path class="scatterpts" transform="translate(20,0)" d="M3,0A3,3 0 1,1 0,-3A3,3 0 0,1 3,0Z" style="opacity: 1; stroke-width: 0px; fill: rgb(0, 0, 0); fill-opacity: 1;"></path></g></g></g><rect class="legendtoggle" pointer-events="all" x="0" y="-9.5" width="166.796875" height="19" style="cursor: pointer; fill: rgb(0, 0, 0); fill-opacity: 0;"></rect></g><g class="traces" style="opacity: 1;" transform="translate(0,52.5)"><text class="legendtext" text-anchor="start" x="40" y="4.680000000000001" data-unformatted="Prediction BBOX" data-math="N" style="font-family: &quot;Open Sans&quot;, verdana, arial, sans-serif; font-size: 12px; fill: rgb(68, 68, 68); fill-opacity: 1; white-space: pre;">Prediction BBOX</text><g class="layers" style="opacity: 1;"><g class="legendfill"></g><g class="legendlines"><path class="js-line" d="M5,0h30" style="fill: none; stroke: rgb(255, 165, 0); stroke-opacity: 1; stroke-width: 2px;"></path></g><g class="legendsymbols"><g class="legendpoints"></g></g></g><rect class="legendtoggle" pointer-events="all" x="0" y="-9.5" width="166.796875" height="19" style="cursor: pointer; fill: rgb(0, 0, 0); fill-opacity: 0;"></rect></g><g class="traces" style="opacity: 1;" transform="translate(0,71.5)"><text class="legendtext" text-anchor="start" x="40" y="4.680000000000001" data-unformatted="Prediction BBOX" data-math="N" style="font-family: &quot;Open Sans&quot;, verdana, arial, sans-serif; font-size: 12px; fill: rgb(68, 68, 68); fill-opacity: 1; white-space: pre;">Prediction BBOX</text><g class="layers" style="opacity: 1;"><g class="legendfill"></g><g class="legendlines"><path class="js-line" d="M5,0h30" style="fill: none; stroke: rgb(255, 165, 0); stroke-opacity: 1; stroke-width: 2px;"></path></g><g class="legendsymbols"><g class="legendpoints"><path class="scatterpts" transform="translate(20,0)" d="M3,0A3,3 0 1,1 0,-3A3,3 0 0,1 3,0Z" style="opacity: 1; stroke-width: 0px; fill: rgb(255, 165, 0); fill-opacity: 1;"></path></g></g></g><rect class="legendtoggle" pointer-events="all" x="0" y="-9.5" width="166.796875" height="19" style="cursor: pointer; fill: rgb(0, 0, 0); fill-opacity: 0;"></rect></g></g></g><rect class="scrollbar" rx="20" ry="3" width="0" height="0" style="fill: rgb(128, 139, 164); fill-opacity: 1;" x="0" y="0"></rect></g><g class="g-gtitle"></g><g class="g-xtitle"></g><g class="g-ytitle"></g></g><g class="menulayer"></g><g class="zoomlayer"></g></svg><div class="modebar-container" style="position: absolute; top: 0px; right: 0px; width: 100%;"><div id="modebar-31bd25" class="modebar modebar--hover ease-bg"><div class="modebar-group"><a rel="tooltip" class="modebar-btn" data-title="Download plot as a png" data-toggle="false" data-gravity="n"><svg viewBox="0 0 1000 1000" class="icon" height="1em" width="1em"><path d="m500 450c-83 0-150-67-150-150 0-83 67-150 150-150 83 0 150 67 150 150 0 83-67 150-150 150z m400 150h-120c-16 0-34 13-39 29l-31 93c-6 15-23 28-40 28h-340c-16 0-34-13-39-28l-31-94c-6-15-23-28-40-28h-120c-55 0-100-45-100-100v-450c0-55 45-100 100-100h800c55 0 100 45 100 100v450c0 55-45 100-100 100z m-400-550c-138 0-250 112-250 250 0 138 112 250 250 250 138 0 250-112 250-250 0-138-112-250-250-250z m365 380c-19 0-35 16-35 35 0 19 16 35 35 35 19 0 35-16 35-35 0-19-16-35-35-35z" transform="matrix(1 0 0 -1 0 850)"></path></svg></a></div><div class="modebar-group"><a rel="tooltip" class="modebar-btn active" data-title="Zoom" data-attr="dragmode" data-val="zoom" data-toggle="false" data-gravity="n"><svg viewBox="0 0 1000 1000" class="icon" height="1em" width="1em"><path d="m1000-25l-250 251c40 63 63 138 63 218 0 224-182 406-407 406-224 0-406-182-406-406s183-406 407-406c80 0 155 22 218 62l250-250 125 125z m-812 250l0 438 437 0 0-438-437 0z m62 375l313 0 0-312-313 0 0 312z" transform="matrix(1 0 0 -1 0 850)"></path></svg></a><a rel="tooltip" class="modebar-btn" data-title="Pan" data-attr="dragmode" data-val="pan" data-toggle="false" data-gravity="n"><svg viewBox="0 0 1000 1000" class="icon" height="1em" width="1em"><path d="m1000 350l-187 188 0-125-250 0 0 250 125 0-188 187-187-187 125 0 0-250-250 0 0 125-188-188 186-187 0 125 252 0 0-250-125 0 187-188 188 188-125 0 0 250 250 0 0-126 187 188z" transform="matrix(1 0 0 -1 0 850)"></path></svg></a><a rel="tooltip" class="modebar-btn" data-title="Box Select" data-attr="dragmode" data-val="select" data-toggle="false" data-gravity="n"><svg viewBox="0 0 1000 1000" class="icon" height="1em" width="1em"><path d="m0 850l0-143 143 0 0 143-143 0z m286 0l0-143 143 0 0 143-143 0z m285 0l0-143 143 0 0 143-143 0z m286 0l0-143 143 0 0 143-143 0z m-857-286l0-143 143 0 0 143-143 0z m857 0l0-143 143 0 0 143-143 0z m-857-285l0-143 143 0 0 143-143 0z m857 0l0-143 143 0 0 143-143 0z m-857-286l0-143 143 0 0 143-143 0z m286 0l0-143 143 0 0 143-143 0z m285 0l0-143 143 0 0 143-143 0z m286 0l0-143 143 0 0 143-143 0z" transform="matrix(1 0 0 -1 0 850)"></path></svg></a><a rel="tooltip" class="modebar-btn" data-title="Lasso Select" data-attr="dragmode" data-val="lasso" data-toggle="false" data-gravity="n"><svg viewBox="0 0 1031 1000" class="icon" height="1em" width="1em"><path d="m1018 538c-36 207-290 336-568 286-277-48-473-256-436-463 10-57 36-108 76-151-13-66 11-137 68-183 34-28 75-41 114-42l-55-70 0 0c-2-1-3-2-4-3-10-14-8-34 5-45 14-11 34-8 45 4 1 1 2 3 2 5l0 0 113 140c16 11 31 24 45 40 4 3 6 7 8 11 48-3 100 0 151 9 278 48 473 255 436 462z m-624-379c-80 14-149 48-197 96 42 42 109 47 156 9 33-26 47-66 41-105z m-187-74c-19 16-33 37-39 60 50-32 109-55 174-68-42-25-95-24-135 8z m360 75c-34-7-69-9-102-8 8 62-16 128-68 170-73 59-175 54-244-5-9 20-16 40-20 61-28 159 121 317 333 354s407-60 434-217c28-159-121-318-333-355z" transform="matrix(1 0 0 -1 0 850)"></path></svg></a></div><div class="modebar-group"><a rel="tooltip" class="modebar-btn" data-title="Zoom in" data-attr="zoom" data-val="in" data-toggle="false" data-gravity="n"><svg viewBox="0 0 875 1000" class="icon" height="1em" width="1em"><path d="m1 787l0-875 875 0 0 875-875 0z m687-500l-187 0 0-187-125 0 0 187-188 0 0 125 188 0 0 187 125 0 0-187 187 0 0-125z" transform="matrix(1 0 0 -1 0 850)"></path></svg></a><a rel="tooltip" class="modebar-btn" data-title="Zoom out" data-attr="zoom" data-val="out" data-toggle="false" data-gravity="n"><svg viewBox="0 0 875 1000" class="icon" height="1em" width="1em"><path d="m0 788l0-876 875 0 0 876-875 0z m688-500l-500 0 0 125 500 0 0-125z" transform="matrix(1 0 0 -1 0 850)"></path></svg></a><a rel="tooltip" class="modebar-btn" data-title="Autoscale" data-attr="zoom" data-val="auto" data-toggle="false" data-gravity="n"><svg viewBox="0 0 1000 1000" class="icon" height="1em" width="1em"><path d="m250 850l-187 0-63 0 0-62 0-188 63 0 0 188 187 0 0 62z m688 0l-188 0 0-62 188 0 0-188 62 0 0 188 0 62-62 0z m-875-938l0 188-63 0 0-188 0-62 63 0 187 0 0 62-187 0z m875 188l0-188-188 0 0-62 188 0 62 0 0 62 0 188-62 0z m-125 188l-1 0-93-94-156 156 156 156 92-93 2 0 0 250-250 0 0-2 93-92-156-156-156 156 94 92 0 2-250 0 0-250 0 0 93 93 157-156-157-156-93 94 0 0 0-250 250 0 0 0-94 93 156 157 156-157-93-93 0 0 250 0 0 250z" transform="matrix(1 0 0 -1 0 850)"></path></svg></a><a rel="tooltip" class="modebar-btn" data-title="Reset axes" data-attr="zoom" data-val="reset" data-toggle="false" data-gravity="n"><svg viewBox="0 0 928.6 1000" class="icon" height="1em" width="1em"><path d="m786 296v-267q0-15-11-26t-25-10h-214v214h-143v-214h-214q-15 0-25 10t-11 26v267q0 1 0 2t0 2l321 264 321-264q1-1 1-4z m124 39l-34-41q-5-5-12-6h-2q-7 0-12 3l-386 322-386-322q-7-4-13-4-7 2-12 7l-35 41q-4 5-3 13t6 12l401 334q18 15 42 15t43-15l136-114v109q0 8 5 13t13 5h107q8 0 13-5t5-13v-227l122-102q5-5 6-12t-4-13z" transform="matrix(1 0 0 -1 0 850)"></path></svg></a></div><div class="modebar-group"><a rel="tooltip" class="modebar-btn" data-title="Toggle Spike Lines" data-attr="_cartesianSpikesEnabled" data-val="on" data-toggle="false" data-gravity="n"><svg viewBox="0 0 1000 1000" class="icon" height="1em" width="1em"><path d="M512 409c0-57-46-104-103-104-57 0-104 47-104 104 0 57 47 103 104 103 57 0 103-46 103-103z m-327-39l92 0 0 92-92 0z m-185 0l92 0 0 92-92 0z m370-186l92 0 0 93-92 0z m0-184l92 0 0 92-92 0z" transform="matrix(1.5 0 0 -1.5 0 850)"></path></svg></a><a rel="tooltip" class="modebar-btn" data-title="Show closest data on hover" data-attr="hovermode" data-val="closest" data-toggle="false" data-gravity="ne"><svg viewBox="0 0 1500 1000" class="icon" height="1em" width="1em"><path d="m375 725l0 0-375-375 375-374 0-1 1125 0 0 750-1125 0z" transform="matrix(1 0 0 -1 0 850)"></path></svg></a><a rel="tooltip" class="modebar-btn active" data-title="Compare data on hover" data-attr="hovermode" data-val="x" data-toggle="false" data-gravity="ne"><svg viewBox="0 0 1125 1000" class="icon" height="1em" width="1em"><path d="m187 786l0 2-187-188 188-187 0 0 937 0 0 373-938 0z m0-499l0 1-187-188 188-188 0 0 937 0 0 376-938-1z" transform="matrix(1 0 0 -1 0 850)"></path></svg></a></div></div></div><svg class="main-svg" style="position: absolute" xmlns="http://www.w3.org/2000/svg" xmlns:xlink="http://www.w3.org/1999/xlink" width="904.225352112676" height="642"><g class="hoverlayer"></g></svg>