<svg class="main-svg" style="position: absolute" xmlns="http://www.w3.org/2000/svg" xmlns:xlink="http://www.w3.org/1999/xlink" width="904.225352112676" height="642" style="background: rgb(255, 255, 255);"><defs id="defs-cbb392"><g class="clips"><clipPath id="clipcbb392xyplot" class="plotclip"><rect width="684" height="462"></rect></clipPath><clipPath class="axesclip" id="clipcbb392x"><rect x="80" y="0" width="684" height="642"></rect></clipPath><clipPath class="axesclip" id="clipcbb392y"><rect x="0" y="100" width="904.225352112676" height="462"></rect></clipPath><clipPath class="axesclip" id="clipcbb392xy"><rect x="80" y="100" width="684" height="462"></rect></clipPath></g><g class="gradients"></g></defs><g class="bglayer"></g><g class="draglayer cursor-crosshair"><g class="xy"><rect class="nsewdrag drag" data-subplot="xy" x="80" y="100" width="684" height="462" style="fill: transparent; stroke-width: 0; pointer-events: all;"></rect><rect class="nwdrag drag cursor-nw-resize" data-subplot="xy" x="60" y="80" width="20" height="20" style="fill: transparent; stroke-width: 0; pointer-events: all;"></rect><rect class="nedrag drag cursor-ne-resize" data-subplot="xy" x="764" y="80" width="20" height="20" style="fill: transparent; stroke-width: 0; pointer-events: all;"></rect><rect class="swdrag drag cursor-sw-resize" data-subplot="xy" x="60" y="562" width="20" height="20" style="fill: transparent; stroke-width: 0; pointer-events: all;"></rect><rect class="sedrag drag cursor-se-resize" data-subplot="xy" x="764" y="562" width="20" height="20" style="fill: transparent; stroke-width: 0; pointer-events: all;"></rect><rect class="ewdrag drag cursor-ew-resize" data-subplot="xy" x="148.4" y="562.5" width="547.2" height="20" style="fill: transparent; stroke-width: 0; pointer-events: all;"></rect><rect class="wdrag drag cursor-w-resize" data-subplot="xy" x="80" y="562.5" width="68.4" height="20" style="fill: transparent; stroke-width: 0; pointer-events: all;"></rect><rect class="edrag drag cursor-e-resize" data-subplot="xy" x="695.6" y="562.5" width="68.4" height="20" style="fill: transparent; stroke-width: 0; pointer-events: all;"></rect><rect class="nsdrag drag cursor-ns-resize" data-subplot="xy" x="59.5" y="146.2" width="20" height="369.6" style="fill: transparent; stroke-width: 0; pointer-events: all;"></rect><rect class="sdrag drag cursor-s-resize" data-subplot="xy" x="59.5" y="515.8" width="20" height="46.2" style="fill: transparent; stroke-width: 0; pointer-events: all;"></rect><rect class="ndrag drag cursor-n-resize" data-subplot="xy" x="59.5" y="100" width="20" height="46.2" style="fill: transparent; stroke-width: 0; pointer-events: all;"></rect></g></g><g class="layer-below"><g class="imagelayer"></g><g class="shapelayer"></g></g><g class="cartesianlayer"><g class="subplot xy"><g class="layer-subplot"><g class="shapelayer"></g><g class="imagelayer"></g></g><g class="gridlayer"><g class="x"></g><g class="y"><path class="ygrid crisp" transform="translate(0,544.3)" d="M80,0h684" style="stroke: rgb(238, 238, 238); stroke-opacity: 1; stroke-width: 1px;"></path><path class="ygrid crisp" transform="translate(0,490.3)" d="M80,0h684" style="stroke: rgb(238, 238, 238); stroke-opacity: 1; stroke-width: 1px;"></path><path class="ygrid crisp" transform="translate(0,436.3)" d="M80,0h684" style="stroke: rgb(238, 238, 238); stroke-opacity: 1; stroke-width: 1px;"></path><path class="ygrid crisp" transform="translate(0,382.3)" d="M80,0h684" style="stroke: rgb(238, 238, 238); stroke-opacity: 1; stroke-width: 1px;"></path><path class="ygrid crisp" transform="translate(0,328.3)" d="M80,0h684" style="stroke: rgb(238, 238, 238); stroke-opacity: 1; stroke-width: 1px;"></path><path class="ygrid crisp" transform="translate(0,274.3)" d="M80,0h684" style="stroke: rgb(238, 238, 238); stroke-opacity: 1; stroke-width: 1px;"></path><path class="ygrid crisp" transform="translate(0,220.3)" d="M80,0h684" style="stroke: rgb(238, 238, 238); stroke-opacity: 1; stroke-width: 1px;"></path><path class="ygrid crisp" transform="translate(0,166.3)" d="M80,0h684" style="stroke: rgb(238, 238, 238); stroke-opacity: 1; stroke-width: 1px;"></path><path class="ygrid crisp" transform="translate(0,112.3)" d="M80,0h684" style="stroke: rgb(238, 238, 238); stroke-opacity: 1; stroke-width: 1px;"></path></g></g><g class="zerolinelayer"></g><path class="xlines-below"></path><path class="ylines-below"></path><g class="overlines-below"></g><g class="xaxislayer-below"></g><g class="yaxislayer-below"></g><g class="overaxes-below"></g><g class="plot" transform="translate(80,100)" clip-path="url('#clipcbb392xyplot')"><g class="boxlayer mlayer"><g class="trace boxes" style="opacity: 1;"><path class="box" d="M1.44,277.9H4.21M1.44,306.6H4.21V276.9H1.44ZM2.83,306.6V309.3M2.83,276.9V271.5" style="vector-effect: non-scaling-stroke; stroke-width: 2px; stroke: rgb(61, 153, 112); stroke-opacity: 1; fill: rgb(61, 153, 112); fill-opacity: 1;"></path><path class="box" d="M7.09,237.4H9.86M7.09,268.8H9.86V236.4H7.09ZM8.48,268.8V271.5M8.48,236.4V225.6" style="vector-effect: non-scaling-stroke; stroke-width: 2px; stroke: rgb(61, 153, 112); stroke-opacity: 1; fill: rgb(61, 153, 112); fill-opacity: 1;"></path><path class="box" d="M12.75,259H15.52M12.75,274.2H15.52V258H12.75ZM14.13,274.2V274.2M14.13,258V252.6" style="vector-effect: non-scaling-stroke; stroke-width: 2px; stroke: rgb(61, 153, 112); stroke-opacity: 1; fill: rgb(61, 153, 112); fill-opacity: 1;"></path><path class="box" d="M52.32,110.5H55.09M52.32,128.4H55.09V109.5H52.32ZM53.7,128.4V128.4M53.7,109.5V77.1" style="vector-effect: non-scaling-stroke; stroke-width: 2px; stroke: rgb(61, 153, 112); stroke-opacity: 1; fill: rgb(61, 153, 112); fill-opacity: 1;"></path><path class="box" d="M86.23,134.8H89M86.23,141.9H89V133.8H86.23ZM87.62,141.9V144.6M87.62,133.8V109.5" style="vector-effect: non-scaling-stroke; stroke-width: 2px; stroke: rgb(61, 153, 112); stroke-opacity: 1; fill: rgb(61, 153, 112); fill-opacity: 1;"></path><path class="box" d="M125.81,207.7H128.58M125.81,212.1H128.58V206.7H125.81ZM127.19,212.1V220.2M127.19,206.7V190.5" style="vector-effect: non-scaling-stroke; stroke-width: 2px; stroke: rgb(61, 153, 112); stroke-opacity: 1; fill: rgb(61, 153, 112); fill-opacity: 1;"></path><path class="box" d="M142.76,199.6H145.53M142.76,231H145.53V198.6H142.76ZM144.15,231V233.7M144.15,198.6V195.9" style="vector-effect: non-scaling-stroke; stroke-width: 2px; stroke: rgb(61, 153, 112); stroke-opacity: 1; fill: rgb(61, 153, 112); fill-opacity: 1;"></path><path class="box" d="M176.68,172.6H179.45M176.68,209.4H179.45V171.6H176.68ZM178.07,209.4V214.8M178.07,171.6V152.7" style="vector-effect: non-scaling-stroke; stroke-width: 2px; stroke: rgb(61, 153, 112); stroke-opacity: 1; fill: rgb(61, 153, 112); fill-opacity: 1;"></path><path class="box" d="M199.29,178H202.06M199.29,195.9H202.06V177H199.29ZM200.68,195.9V195.9M200.68,177V168.9" style="vector-effect: non-scaling-stroke; stroke-width: 2px; stroke: rgb(61, 153, 112); stroke-opacity: 1; fill: rgb(61, 153, 112); fill-opacity: 1;"></path><path class="box" d="M210.6,169.9H213.37M210.6,179.7H213.37V168.9H210.6ZM211.98,179.7V187.8M211.98,168.9V155.4" style="vector-effect: non-scaling-stroke; stroke-width: 2px; stroke: rgb(61, 153, 112); stroke-opacity: 1; fill: rgb(61, 153, 112); fill-opacity: 1;"></path><path class="box" d="M244.52,286H247.29M244.52,322.8H247.29V285H244.52ZM245.9,322.8V339M245.9,285V285" style="vector-effect: non-scaling-stroke; stroke-width: 2px; stroke: rgb(61, 153, 112); stroke-opacity: 1; fill: rgb(61, 153, 112); fill-opacity: 1;"></path><path class="box" d="M250.17,229.3H252.94M250.17,276.9H252.94V228.3H250.17ZM251.55,276.9V276.9M251.55,228.3V222.9" style="vector-effect: non-scaling-stroke; stroke-width: 2px; stroke: rgb(61, 153, 112); stroke-opacity: 1; fill: rgb(61, 153, 112); fill-opacity: 1;"></path><path class="box" d="M278.43,118.6H281.2M278.43,152.7H281.2V117.6H278.43ZM279.82,152.7V168.9M279.82,117.6V85.2" style="vector-effect: non-scaling-stroke; stroke-width: 2px; stroke: rgb(61, 153, 112); stroke-opacity: 1; fill: rgb(61, 153, 112); fill-opacity: 1;"></path><path class="box" d="M289.74,107.8H292.51M289.74,133.8H292.51V106.8H289.74ZM291.12,133.8V144.6M291.12,106.8V98.7" style="vector-effect: non-scaling-stroke; stroke-width: 2px; stroke: rgb(61, 153, 112); stroke-opacity: 1; fill: rgb(61, 153, 112); fill-opacity: 1;"></path><path class="box" d="M301.04,107.8H303.81M301.04,136.5H303.81V106.8H301.04ZM302.43,136.5V139.2M302.43,106.8V104.1" style="vector-effect: non-scaling-stroke; stroke-width: 2px; stroke: rgb(61, 153, 112); stroke-opacity: 1; fill: rgb(61, 153, 112); fill-opacity: 1;"></path><path class="box" d="M334.96,94.3H337.73M334.96,117.6H337.73V93.3H334.96ZM336.35,117.6V133.8M336.35,93.3V82.5" style="vector-effect: non-scaling-stroke; stroke-width: 2px; stroke: rgb(61, 153, 112); stroke-opacity: 1; fill: rgb(61, 153, 112); fill-opacity: 1;"></path><path class="box" d="M340.62,124H343.38M340.62,141.9H343.38V123H340.62ZM342,141.9V141.9M342,123V114.9" style="vector-effect: non-scaling-stroke; stroke-width: 2px; stroke: rgb(61, 153, 112); stroke-opacity: 1; fill: rgb(61, 153, 112); fill-opacity: 1;"></path><path class="box" d="M357.57,99.7H360.34M357.57,112.2H360.34V98.7H357.57ZM358.96,112.2V112.2M358.96,98.7V77.1" style="vector-effect: non-scaling-stroke; stroke-width: 2px; stroke: rgb(61, 153, 112); stroke-opacity: 1; fill: rgb(61, 153, 112); fill-opacity: 1;"></path><path class="box" d="M363.23,61.9H366M363.23,98.7H366V60.9H363.23ZM364.61,98.7V104.1M364.61,60.9V50.1" style="vector-effect: non-scaling-stroke; stroke-width: 2px; stroke: rgb(61, 153, 112); stroke-opacity: 1; fill: rgb(61, 153, 112); fill-opacity: 1;"></path><path class="box" d="M408.45,121.3H411.22M408.45,168.9H411.22V120.3H408.45ZM409.83,168.9V168.9M409.83,120.3V120.3" style="vector-effect: non-scaling-stroke; stroke-width: 2px; stroke: rgb(61, 153, 112); stroke-opacity: 1; fill: rgb(61, 153, 112); fill-opacity: 1;"></path><path class="box" d="M419.76,194.2H422.53M419.76,198.6H422.53V193.2H419.76ZM421.14,198.6V201.3M421.14,193.2V147.3" style="vector-effect: non-scaling-stroke; stroke-width: 2px; stroke: rgb(61, 153, 112); stroke-opacity: 1; fill: rgb(61, 153, 112); fill-opacity: 1;"></path><path class="box" d="M436.71,178H439.48M436.71,179.7H439.48V177H436.71ZM438.1,179.7V212.1M438.1,177V163.5" style="vector-effect: non-scaling-stroke; stroke-width: 2px; stroke: rgb(61, 153, 112); stroke-opacity: 1; fill: rgb(61, 153, 112); fill-opacity: 1;"></path><path class="box" d="M442.37,175.3H445.14M442.37,190.5H445.14V174.3H442.37ZM443.75,190.5V190.5M443.75,174.3V171.6" style="vector-effect: non-scaling-stroke; stroke-width: 2px; stroke: rgb(61, 153, 112); stroke-opacity: 1; fill: rgb(61, 153, 112); fill-opacity: 1;"></path><path class="box" d="M459.33,169.9H462.1M459.33,182.4H462.1V168.9H459.33ZM460.71,182.4V187.8M460.71,168.9V158.1" style="vector-effect: non-scaling-stroke; stroke-width: 2px; stroke: rgb(61, 153, 112); stroke-opacity: 1; fill: rgb(61, 153, 112); fill-opacity: 1;"></path><path class="box" d="M476.28,137.5H479.05M476.28,163.5H479.05V136.5H476.28ZM477.67,163.5V168.9M477.67,136.5V125.7" style="vector-effect: non-scaling-stroke; stroke-width: 2px; stroke: rgb(61, 153, 112); stroke-opacity: 1; fill: rgb(61, 153, 112); fill-opacity: 1;"></path><path class="box" d="M487.59,132.1H490.36M487.59,190.5H490.36V131.1H487.59ZM488.98,190.5V198.6M488.98,131.1V128.4" style="vector-effect: non-scaling-stroke; stroke-width: 2px; stroke: rgb(61, 153, 112); stroke-opacity: 1; fill: rgb(61, 153, 112); fill-opacity: 1;"></path><path class="box" d="M555.42,248.2H558.19M555.42,309.3H558.19V247.2H555.42ZM556.81,309.3V309.3M556.81,247.2V214.8" style="vector-effect: non-scaling-stroke; stroke-width: 2px; stroke: rgb(61, 153, 112); stroke-opacity: 1; fill: rgb(61, 153, 112); fill-opacity: 1;"></path><path class="box" d="M572.38,259H575.15M572.38,279.6H575.15V258H572.38ZM573.77,279.6V285M573.77,258V247.2" style="vector-effect: non-scaling-stroke; stroke-width: 2px; stroke: rgb(61, 153, 112); stroke-opacity: 1; fill: rgb(61, 153, 112); fill-opacity: 1;"></path><path class="box" d="M600.65,377.8H603.42M600.65,401.1H603.42V376.8H600.65ZM602.03,401.1V417.3M602.03,376.8V366" style="vector-effect: non-scaling-stroke; stroke-width: 2px; stroke: rgb(61, 153, 112); stroke-opacity: 1; fill: rgb(61, 153, 112); fill-opacity: 1;"></path><path class="box" d="M606.3,345.4H609.07M606.3,352.5H609.07V344.4H606.3ZM607.69,352.5V352.5M607.69,344.4V328.2" style="vector-effect: non-scaling-stroke; stroke-width: 2px; stroke: rgb(61, 153, 112); stroke-opacity: 1; fill: rgb(61, 153, 112); fill-opacity: 1;"></path><path class="box" d="M617.61,283.3H620.38M617.61,341.7H620.38V282.3H617.61ZM618.99,341.7V349.8M618.99,282.3V274.2" style="vector-effect: non-scaling-stroke; stroke-width: 2px; stroke: rgb(61, 153, 112); stroke-opacity: 1; fill: rgb(61, 153, 112); fill-opacity: 1;"></path><path class="box" d="M657.18,245.5H659.95M657.18,263.4H659.95V244.5H657.18ZM658.56,263.4V271.5M658.56,244.5V239.1" style="vector-effect: non-scaling-stroke; stroke-width: 2px; stroke: rgb(61, 153, 112); stroke-opacity: 1; fill: rgb(61, 153, 112); fill-opacity: 1;"></path><path class="box" d="M674.14,218.5H676.91M674.14,231H676.91V217.5H674.14ZM675.52,231V241.8M675.52,217.5V212.1" style="vector-effect: non-scaling-stroke; stroke-width: 2px; stroke: rgb(61, 153, 112); stroke-opacity: 1; fill: rgb(61, 153, 112); fill-opacity: 1;"></path><path class="box" d="M679.79,207.7H682.56M679.79,222.9H682.56V206.7H679.79ZM681.17,222.9V228.3M681.17,206.7V190.5" style="vector-effect: non-scaling-stroke; stroke-width: 2px; stroke: rgb(61, 153, 112); stroke-opacity: 1; fill: rgb(61, 153, 112); fill-opacity: 1;"></path></g><g class="trace boxes" style="opacity: 1;"><path class="box" d="M18.4,233.7H21.17M18.4,233.7H21.17V233.7H18.4ZM19.79,233.7V233.7M19.79,233.7V206.7" style="vector-effect: non-scaling-stroke; stroke-width: 2px; stroke: rgb(255, 65, 54); stroke-opacity: 1; fill: rgb(255, 65, 54); fill-opacity: 1;"></path><path class="box" d="M24.05,208.4H26.82M24.05,209.4H26.82V204H24.05ZM25.44,209.4V231M25.44,204V201.3" style="vector-effect: non-scaling-stroke; stroke-width: 2px; stroke: rgb(255, 65, 54); stroke-opacity: 1; fill: rgb(255, 65, 54); fill-opacity: 1;"></path><path class="box" d="M41.01,111.2H43.78M41.01,112.2H43.78V109.5H41.01ZM42.4,112.2V133.8M42.4,109.5V42" style="vector-effect: non-scaling-stroke; stroke-width: 2px; stroke: rgb(255, 65, 54); stroke-opacity: 1; fill: rgb(255, 65, 54); fill-opacity: 1;"></path><path class="box" d="M46.66,130.1H49.43M46.66,131.1H49.43V128.4H46.66ZM48.05,131.1V131.1M48.05,128.4V106.8" style="vector-effect: non-scaling-stroke; stroke-width: 2px; stroke: rgb(255, 65, 54); stroke-opacity: 1; fill: rgb(255, 65, 54); fill-opacity: 1;"></path><path class="box" d="M57.97,146.3H60.74M57.97,147.3H60.74V123H57.97ZM59.36,147.3V152.7M59.36,123V98.7" style="vector-effect: non-scaling-stroke; stroke-width: 2px; stroke: rgb(255, 65, 54); stroke-opacity: 1; fill: rgb(255, 65, 54); fill-opacity: 1;"></path><path class="box" d="M63.62,120.3H66.39M63.62,120.3H66.39V120.3H63.62ZM65.01,120.3V141.9M65.01,120.3V114.9" style="vector-effect: non-scaling-stroke; stroke-width: 2px; stroke: rgb(255, 65, 54); stroke-opacity: 1; fill: rgb(255, 65, 54); fill-opacity: 1;"></path><path class="box" d="M80.58,154.4H83.35M80.58,155.4H83.35V123H80.58ZM81.97,155.4V158.1M81.97,123V117.6" style="vector-effect: non-scaling-stroke; stroke-width: 2px; stroke: rgb(255, 65, 54); stroke-opacity: 1; fill: rgb(255, 65, 54); fill-opacity: 1;"></path><path class="box" d="M91.89,133.8H94.66M91.89,133.8H94.66V133.8H91.89ZM93.27,133.8V147.3M93.27,133.8V120.3" style="vector-effect: non-scaling-stroke; stroke-width: 2px; stroke: rgb(255, 65, 54); stroke-opacity: 1; fill: rgb(255, 65, 54); fill-opacity: 1;"></path><path class="box" d="M97.54,197.6H100.31M97.54,198.6H100.31V158.1H97.54ZM98.93,198.6V198.6M98.93,158.1V141.9" style="vector-effect: non-scaling-stroke; stroke-width: 2px; stroke: rgb(255, 65, 54); stroke-opacity: 1; fill: rgb(255, 65, 54); fill-opacity: 1;"></path><path class="box" d="M103.19,221.9H105.96M103.19,222.9H105.96V179.7H103.19ZM104.58,222.9V222.9M104.58,179.7V163.5" style="vector-effect: non-scaling-stroke; stroke-width: 2px; stroke: rgb(255, 65, 54); stroke-opacity: 1; fill: rgb(255, 65, 54); fill-opacity: 1;"></path><path class="box" d="M120.15,238.1H122.92M120.15,239.1H122.92V228.3H120.15ZM121.54,239.1V244.5M121.54,228.3V209.4" style="vector-effect: non-scaling-stroke; stroke-width: 2px; stroke: rgb(255, 65, 54); stroke-opacity: 1; fill: rgb(255, 65, 54); fill-opacity: 1;"></path><path class="box" d="M131.46,208.4H134.23M131.46,209.4H134.23V206.7H131.46ZM132.84,209.4V220.2M132.84,206.7V201.3" style="vector-effect: non-scaling-stroke; stroke-width: 2px; stroke: rgb(255, 65, 54); stroke-opacity: 1; fill: rgb(255, 65, 54); fill-opacity: 1;"></path><path class="box" d="M137.11,235.4H139.88M137.11,236.4H139.88V206.7H137.11ZM138.5,236.4V239.1M138.5,206.7V193.2" style="vector-effect: non-scaling-stroke; stroke-width: 2px; stroke: rgb(255, 65, 54); stroke-opacity: 1; fill: rgb(255, 65, 54); fill-opacity: 1;"></path><path class="box" d="M159.72,216.5H162.49M159.72,217.5H162.49V214.8H159.72ZM161.11,217.5V236.4M161.11,214.8V206.7" style="vector-effect: non-scaling-stroke; stroke-width: 2px; stroke: rgb(255, 65, 54); stroke-opacity: 1; fill: rgb(255, 65, 54); fill-opacity: 1;"></path><path class="box" d="M165.38,238.1H168.15M165.38,239.1H168.15V228.3H165.38ZM166.76,239.1V274.2M166.76,228.3V209.4" style="vector-effect: non-scaling-stroke; stroke-width: 2px; stroke: rgb(255, 65, 54); stroke-opacity: 1; fill: rgb(255, 65, 54); fill-opacity: 1;"></path><path class="box" d="M171.03,248.9H173.8M171.03,249.9H173.8V228.3H171.03ZM172.41,249.9V260.7M172.41,228.3V222.9" style="vector-effect: non-scaling-stroke; stroke-width: 2px; stroke: rgb(255, 65, 54); stroke-opacity: 1; fill: rgb(255, 65, 54); fill-opacity: 1;"></path><path class="box" d="M182.33,200.3H185.1M182.33,201.3H185.1V163.5H182.33ZM183.72,201.3V209.4M183.72,163.5V163.5" style="vector-effect: non-scaling-stroke; stroke-width: 2px; stroke: rgb(255, 65, 54); stroke-opacity: 1; fill: rgb(255, 65, 54); fill-opacity: 1;"></path><path class="box" d="M204.95,194.9H207.72M204.95,195.9H207.72V166.2H204.95ZM206.33,195.9V201.3M206.33,166.2V150" style="vector-effect: non-scaling-stroke; stroke-width: 2px; stroke: rgb(255, 65, 54); stroke-opacity: 1; fill: rgb(255, 65, 54); fill-opacity: 1;"></path><path class="box" d="M216.25,186.8H219.02M216.25,187.8H219.02V158.1H216.25ZM217.64,187.8V195.9M217.64,158.1V155.4" style="vector-effect: non-scaling-stroke; stroke-width: 2px; stroke: rgb(255, 65, 54); stroke-opacity: 1; fill: rgb(255, 65, 54); fill-opacity: 1;"></path><path class="box" d="M221.9,216.5H224.67M221.9,217.5H224.67V206.7H221.9ZM223.29,217.5V247.2M223.29,206.7V204" style="vector-effect: non-scaling-stroke; stroke-width: 2px; stroke: rgb(255, 65, 54); stroke-opacity: 1; fill: rgb(255, 65, 54); fill-opacity: 1;"></path><path class="box" d="M238.86,370.4H241.63M238.86,371.4H241.63V363.3H238.86ZM240.25,371.4V382.2M240.25,363.3V349.8" style="vector-effect: non-scaling-stroke; stroke-width: 2px; stroke: rgb(255, 65, 54); stroke-opacity: 1; fill: rgb(255, 65, 54); fill-opacity: 1;"></path><path class="box" d="M255.82,228.3H258.59M255.82,228.3H258.59V228.3H255.82ZM257.21,228.3V228.3M257.21,228.3V228.3" style="vector-effect: non-scaling-stroke; stroke-width: 2px; stroke: rgb(255, 65, 54); stroke-opacity: 1; fill: rgb(255, 65, 54); fill-opacity: 1;"></path><path class="box" d="M261.47,228.3H264.24M261.47,228.3H264.24V228.3H261.47ZM262.86,228.3V228.3M262.86,228.3V228.3" style="vector-effect: non-scaling-stroke; stroke-width: 2px; stroke: rgb(255, 65, 54); stroke-opacity: 1; fill: rgb(255, 65, 54); fill-opacity: 1;"></path><path class="box" d="M284.09,112.2H286.86M284.09,112.2H286.86V112.2H284.09ZM285.47,112.2V123M285.47,112.2V93.3" style="vector-effect: non-scaling-stroke; stroke-width: 2px; stroke: rgb(255, 65, 54); stroke-opacity: 1; fill: rgb(255, 65, 54); fill-opacity: 1;"></path><path class="box" d="M295.39,130.1H298.16M295.39,131.1H298.16V82.5H295.39ZM296.78,131.1V133.8M296.78,82.5V82.5" style="vector-effect: non-scaling-stroke; stroke-width: 2px; stroke: rgb(255, 65, 54); stroke-opacity: 1; fill: rgb(255, 65, 54); fill-opacity: 1;"></path><path class="box" d="M318,135.5H320.77M318,136.5H320.77V123H318ZM319.39,136.5V158.1M319.39,123V123" style="vector-effect: non-scaling-stroke; stroke-width: 2px; stroke: rgb(255, 65, 54); stroke-opacity: 1; fill: rgb(255, 65, 54); fill-opacity: 1;"></path><path class="box" d="M323.66,136.5H326.43M323.66,136.5H326.43V136.5H323.66ZM325.04,136.5V136.5M325.04,136.5V136.5" style="vector-effect: non-scaling-stroke; stroke-width: 2px; stroke: rgb(255, 65, 54); stroke-opacity: 1; fill: rgb(255, 65, 54); fill-opacity: 1;"></path><path class="box" d="M329.31,136.5H332.08M329.31,136.5H332.08V136.5H329.31ZM330.69,136.5V136.5M330.69,136.5V136.5" style="vector-effect: non-scaling-stroke; stroke-width: 2px; stroke: rgb(255, 65, 54); stroke-opacity: 1; fill: rgb(255, 65, 54); fill-opacity: 1;"></path><path class="box" d="M368.88,81.5H371.65M368.88,82.5H371.65V60.9H368.88ZM370.26,82.5V82.5M370.26,60.9V23.1" style="vector-effect: non-scaling-stroke; stroke-width: 2px; stroke: rgb(255, 65, 54); stroke-opacity: 1; fill: rgb(255, 65, 54); fill-opacity: 1;"></path><path class="box" d="M374.53,116.6H377.3M374.53,117.6H377.3V69H374.53ZM375.92,117.6V133.8M375.92,69V69" style="vector-effect: non-scaling-stroke; stroke-width: 2px; stroke: rgb(255, 65, 54); stroke-opacity: 1; fill: rgb(255, 65, 54); fill-opacity: 1;"></path><path class="box" d="M380.19,135.5H382.96M380.19,136.5H382.96V125.7H380.19ZM381.57,136.5V139.2M381.57,125.7V120.3" style="vector-effect: non-scaling-stroke; stroke-width: 2px; stroke: rgb(255, 65, 54); stroke-opacity: 1; fill: rgb(255, 65, 54); fill-opacity: 1;"></path><path class="box" d="M397.14,136.5H399.91M397.14,136.5H399.91V136.5H397.14ZM398.53,136.5V136.5M398.53,136.5V136.5" style="vector-effect: non-scaling-stroke; stroke-width: 2px; stroke: rgb(255, 65, 54); stroke-opacity: 1; fill: rgb(255, 65, 54); fill-opacity: 1;"></path><path class="box" d="M402.8,184.1H405.57M402.8,185.1H405.57V147.3H402.8ZM404.18,185.1V193.2M404.18,147.3V112.2" style="vector-effect: non-scaling-stroke; stroke-width: 2px; stroke: rgb(255, 65, 54); stroke-opacity: 1; fill: rgb(255, 65, 54); fill-opacity: 1;"></path><path class="box" d="M414.1,157.1H416.87M414.1,158.1H416.87V109.5H414.1ZM415.49,158.1V174.3M415.49,109.5V93.3" style="vector-effect: non-scaling-stroke; stroke-width: 2px; stroke: rgb(255, 65, 54); stroke-opacity: 1; fill: rgb(255, 65, 54); fill-opacity: 1;"></path><path class="box" d="M448.02,167.9H450.79M448.02,168.9H450.79V166.2H448.02ZM449.4,168.9V177M449.4,166.2V152.7" style="vector-effect: non-scaling-stroke; stroke-width: 2px; stroke: rgb(255, 65, 54); stroke-opacity: 1; fill: rgb(255, 65, 54); fill-opacity: 1;"></path><path class="box" d="M453.67,186.8H456.44M453.67,187.8H456.44V174.3H453.67ZM455.06,187.8V201.3M455.06,174.3V168.9" style="vector-effect: non-scaling-stroke; stroke-width: 2px; stroke: rgb(255, 65, 54); stroke-opacity: 1; fill: rgb(255, 65, 54); fill-opacity: 1;"></path><path class="box" d="M481.94,165.2H484.71M481.94,166.2H484.71V131.1H481.94ZM483.32,166.2V168.9M483.32,131.1V112.2" style="vector-effect: non-scaling-stroke; stroke-width: 2px; stroke: rgb(255, 65, 54); stroke-opacity: 1; fill: rgb(255, 65, 54); fill-opacity: 1;"></path><path class="box" d="M493.24,165.2H496.01M493.24,166.2H496.01V147.3H493.24ZM494.63,166.2V166.2M494.63,147.3V133.8" style="vector-effect: non-scaling-stroke; stroke-width: 2px; stroke: rgb(255, 65, 54); stroke-opacity: 1; fill: rgb(255, 65, 54); fill-opacity: 1;"></path><path class="box" d="M498.9,155.4H501.67M498.9,155.4H501.67V155.4H498.9ZM500.28,155.4V177M500.28,155.4V147.3" style="vector-effect: non-scaling-stroke; stroke-width: 2px; stroke: rgb(255, 65, 54); stroke-opacity: 1; fill: rgb(255, 65, 54); fill-opacity: 1;"></path><path class="box" d="M515.85,155.4H518.62M515.85,155.4H518.62V155.4H515.85ZM517.24,155.4V177M517.24,155.4V150" style="vector-effect: non-scaling-stroke; stroke-width: 2px; stroke: rgb(255, 65, 54); stroke-opacity: 1; fill: rgb(255, 65, 54); fill-opacity: 1;"></path><path class="box" d="M521.51,200.3H524.28M521.51,201.3H524.28V166.2H521.51ZM522.89,201.3V201.3M522.89,166.2V160.8" style="vector-effect: non-scaling-stroke; stroke-width: 2px; stroke: rgb(255, 65, 54); stroke-opacity: 1; fill: rgb(255, 65, 54); fill-opacity: 1;"></path><path class="box" d="M527.16,243.5H529.93M527.16,244.5H529.93V204H527.16ZM528.55,244.5V247.2M528.55,204V204" style="vector-effect: non-scaling-stroke; stroke-width: 2px; stroke: rgb(255, 65, 54); stroke-opacity: 1; fill: rgb(255, 65, 54); fill-opacity: 1;"></path><path class="box" d="M532.81,273.2H535.58M532.81,274.2H535.58V247.2H532.81ZM534.2,274.2V274.2M534.2,247.2V222.9" style="vector-effect: non-scaling-stroke; stroke-width: 2px; stroke: rgb(255, 65, 54); stroke-opacity: 1; fill: rgb(255, 65, 54); fill-opacity: 1;"></path><path class="box" d="M538.47,284H541.24M538.47,285H541.24V282.3H538.47ZM539.85,285V293.1M539.85,282.3V266.1" style="vector-effect: non-scaling-stroke; stroke-width: 2px; stroke: rgb(255, 65, 54); stroke-opacity: 1; fill: rgb(255, 65, 54); fill-opacity: 1;"></path><path class="box" d="M561.08,262.4H563.85M561.08,263.4H563.85V231H561.08ZM562.46,263.4V271.5M562.46,231V228.3" style="vector-effect: non-scaling-stroke; stroke-width: 2px; stroke: rgb(255, 65, 54); stroke-opacity: 1; fill: rgb(255, 65, 54); fill-opacity: 1;"></path><path class="box" d="M566.73,367.7H569.5M566.73,368.7H569.5V233.7H566.73ZM568.12,368.7V376.8M568.12,233.7V220.2" style="vector-effect: non-scaling-stroke; stroke-width: 2px; stroke: rgb(255, 65, 54); stroke-opacity: 1; fill: rgb(255, 65, 54); fill-opacity: 1;"></path><path class="box" d="M578.04,338H580.81M578.04,339H580.81V306.6H578.04ZM579.42,339V357.9M579.42,306.6V295.8" style="vector-effect: non-scaling-stroke; stroke-width: 2px; stroke: rgb(255, 65, 54); stroke-opacity: 1; fill: rgb(255, 65, 54); fill-opacity: 1;"></path><path class="box" d="M595,400.1H597.77M595,401.1H597.77V341.7H595ZM596.38,401.1V438.9M596.38,341.7V328.2" style="vector-effect: non-scaling-stroke; stroke-width: 2px; stroke: rgb(255, 65, 54); stroke-opacity: 1; fill: rgb(255, 65, 54); fill-opacity: 1;"></path><path class="box" d="M611.95,359.6H614.72M611.95,360.6H614.72V344.4H611.95ZM613.34,360.6V368.7M613.34,344.4V341.7" style="vector-effect: non-scaling-stroke; stroke-width: 2px; stroke: rgb(255, 65, 54); stroke-opacity: 1; fill: rgb(255, 65, 54); fill-opacity: 1;"></path><path class="box" d="M634.57,282.3H637.34M634.57,282.3H637.34V282.3H634.57ZM635.95,282.3V295.8M635.95,282.3V266.1" style="vector-effect: non-scaling-stroke; stroke-width: 2px; stroke: rgb(255, 65, 54); stroke-opacity: 1; fill: rgb(255, 65, 54); fill-opacity: 1;"></path><path class="box" d="M640.22,275.9H642.99M640.22,276.9H642.99V252.6H640.22ZM641.6,276.9V276.9M641.6,252.6V233.7" style="vector-effect: non-scaling-stroke; stroke-width: 2px; stroke: rgb(255, 65, 54); stroke-opacity: 1; fill: rgb(255, 65, 54); fill-opacity: 1;"></path><path class="box" d="M645.87,270.5H648.64M645.87,271.5H648.64V266.1H645.87ZM647.26,271.5V276.9M647.26,266.1V247.2" style="vector-effect: non-scaling-stroke; stroke-width: 2px; stroke: rgb(255, 65, 54); stroke-opacity: 1; fill: rgb(255, 65, 54); fill-opacity: 1;"></path><path class="box" d="M651.52,273.2H654.29M651.52,274.2H654.29V271.5H651.52ZM652.91,274.2V293.1M652.91,271.5V263.4" style="vector-effect: non-scaling-stroke; stroke-width: 2px; stroke: rgb(255, 65, 54); stroke-opacity: 1; fill: rgb(255, 65, 54); fill-opacity: 1;"></path></g></g><g class="scatterlayer mlayer"><g class="trace scatter trace5432f8" style="stroke-miterlimit: 2; opacity: 1;"><g class="fills"></g><g class="errorbars"></g><g class="lines"><path class="js-line" d="M25.44,242.88L42.4,209.94L48.05,188.88L53.7,159.18L59.36,141.9L65.01,124.08L81.97,132.72L87.62,133.26L93.27,138.12L98.93,148.38L104.58,168.9L121.54,185.64L127.19,200.22L132.84,215.34L138.5,222.9L144.15,218.04L161.11,213.72L166.76,220.2L172.41,228.3L178.07,215.34L183.72,215.88L200.68,207.78L206.33,199.14L211.98,182.94L217.64,186.18L223.29,189.42L240.25,228.3L245.9,246.12L251.55,258L257.21,266.1L262.86,268.26L279.82,217.5L285.47,182.94L291.12,158.64L296.78,139.2L302.43,114.9L319.39,118.68L325.04,123.54L330.69,129.48L336.35,121.92L342,125.16L358.96,117.6L364.61,102.48L370.26,91.68L375.92,96.54L398.53,106.8L404.18,131.64L415.49,147.3L421.14,158.64L438.1,166.74L443.75,164.58L449.4,174.3L455.06,180.24L460.71,175.38L477.67,167.28L483.32,165.66L488.98,158.1L494.63,153.78L500.28,151.08L517.24,154.86L522.89,161.88L534.2,206.16L539.85,232.08L556.81,250.44L562.46,262.86L568.12,287.7L573.77,284.46L579.42,295.26L596.38,326.04L602.03,348.72L607.69,343.86L613.34,364.38L618.99,353.04L635.95,329.28L641.6,309.3L647.26,294.72L652.91,277.44L658.56,269.88L675.52,256.92L681.17,242.88" style="vector-effect: non-scaling-stroke; fill: none; stroke: rgb(0, 128, 0); stroke-opacity: 1; stroke-width: 2px; opacity: 1;"></path></g><g class="points"></g><g class="text"></g></g><g class="trace scatter tracea027aa" style="stroke-miterlimit: 2; opacity: 1;"><g class="fills"></g><g class="errorbars"></g><g class="lines"></g><g class="points"></g><g class="text"></g></g></g></g><g class="overplot"></g><path class="xlines-above crisp" d="M0,0" style="fill: none;"></path><path class="ylines-above crisp" style="fill: none;" d="M0,0"></path><g class="overlines-above"></g><g class="xaxislayer-above"><g class="xtick"><text text-anchor="middle" x="0" y="575" data-unformatted="Aug 7<br>2016" data-math="N" transform="translate(116.74000000000001,0)" style="font-family: &quot;Open Sans&quot;, verdana, arial, sans-serif; font-size: 12px; fill: rgb(68, 68, 68); fill-opacity: 1; white-space: pre;"><tspan class="line" dy="0em" x="0" y="575">Aug 7</tspan><tspan class="line" dy="1.3em" x="0" y="575">2016</tspan></text></g><g class="xtick"><text text-anchor="middle" x="0" y="575" data-unformatted="Aug 21" data-math="N" transform="translate(195.88,0)" style="font-family: &quot;Open Sans&quot;, verdana, arial, sans-serif; font-size: 12px; fill: rgb(68, 68, 68); fill-opacity: 1; white-space: pre;">Aug 21</text></g><g class="xtick"><text text-anchor="middle" x="0" y="575" data-unformatted="Sep 4" data-math="N" transform="translate(275.02,0)" style="font-family: &quot;Open Sans&quot;, verdana, arial, sans-serif; font-size: 12px; fill: rgb(68, 68, 68); fill-opacity: 1; white-space: pre;">Sep 4</text></g><g class="xtick"><text text-anchor="middle" x="0" y="575" data-unformatted="Sep 18" data-math="N" transform="translate(354.17,0)" style="font-family: &quot;Open Sans&quot;, verdana, arial, sans-serif; font-size: 12px; fill: rgb(68, 68, 68); fill-opacity: 1; white-space: pre;">Sep 18</text></g><g class="xtick"><text text-anchor="middle" x="0" y="575" data-unformatted="Oct 2" data-math="N" transform="translate(433.31,0)" style="font-family: &quot;Open Sans&quot;, verdana, arial, sans-serif; font-size: 12px; fill: rgb(68, 68, 68); fill-opacity: 1; white-space: pre;">Oct 2</text></g><g class="xtick"><text text-anchor="middle" x="0" y="575" data-unformatted="Oct 16" data-math="N" transform="translate(512.45,0)" style="font-family: &quot;Open Sans&quot;, verdana, arial, sans-serif; font-size: 12px; fill: rgb(68, 68, 68); fill-opacity: 1; white-space: pre;">Oct 16</text></g><g class="xtick"><text text-anchor="middle" x="0" y="575" data-unformatted="Oct 30" data-math="N" transform="translate(591.5899999999999,0)" style="font-family: &quot;Open Sans&quot;, verdana, arial, sans-serif; font-size: 12px; fill: rgb(68, 68, 68); fill-opacity: 1; white-space: pre;">Oct 30</text></g><g class="xtick"><text text-anchor="middle" x="0" y="575" data-unformatted="Nov 13" data-math="N" transform="translate(670.73,0)" style="font-family: &quot;Open Sans&quot;, verdana, arial, sans-serif; font-size: 12px; fill: rgb(68, 68, 68); fill-opacity: 1; white-space: pre;">Nov 13</text></g><g class="xtick"><text text-anchor="middle" x="0" y="575" data-unformatted="Nov 27" data-math="N" transform="translate(749.87,0)" style="font-family: &quot;Open Sans&quot;, verdana, arial, sans-serif; font-size: 12px; fill: rgb(68, 68, 68); fill-opacity: 1; white-space: pre;">Nov 27</text></g></g><g class="yaxislayer-above"><g class="ytick"><text text-anchor="end" x="79" y="4.199999999999999" data-unformatted="3200" data-math="N" transform="translate(0,544.3)" style="font-family: &quot;Open Sans&quot;, verdana, arial, sans-serif; font-size: 12px; fill: rgb(68, 68, 68); fill-opacity: 1; white-space: pre;">3200</text></g><g class="ytick"><text text-anchor="end" x="79" y="4.199999999999999" data-unformatted="3300" data-math="N" transform="translate(0,490.3)" style="font-family: &quot;Open Sans&quot;, verdana, arial, sans-serif; font-size: 12px; fill: rgb(68, 68, 68); fill-opacity: 1; white-space: pre;">3300</text></g><g class="ytick"><text text-anchor="end" x="79" y="4.199999999999999" data-unformatted="3400" data-math="N" transform="translate(0,436.3)" style="font-family: &quot;Open Sans&quot;, verdana, arial, sans-serif; font-size: 12px; fill: rgb(68, 68, 68); fill-opacity: 1; white-space: pre;">3400</text></g><g class="ytick"><text text-anchor="end" x="79" y="4.199999999999999" data-unformatted="3500" data-math="N" transform="translate(0,382.3)" style="font-family: &quot;Open Sans&quot;, verdana, arial, sans-serif; font-size: 12px; fill: rgb(68, 68, 68); fill-opacity: 1; white-space: pre;">3500</text></g><g class="ytick"><text text-anchor="end" x="79" y="4.199999999999999" data-unformatted="3600" data-math="N" transform="translate(0,328.3)" style="font-family: &quot;Open Sans&quot;, verdana, arial, sans-serif; font-size: 12px; fill: rgb(68, 68, 68); fill-opacity: 1; white-space: pre;">3600</text></g><g class="ytick"><text text-anchor="end" x="79" y="4.199999999999999" data-unformatted="3700" data-math="N" transform="translate(0,274.3)" style="font-family: &quot;Open Sans&quot;, verdana, arial, sans-serif; font-size: 12px; fill: rgb(68, 68, 68); fill-opacity: 1; white-space: pre;">3700</text></g><g class="ytick"><text text-anchor="end" x="79" y="4.199999999999999" data-unformatted="3800" data-math="N" transform="translate(0,220.3)" style="font-family: &quot;Open Sans&quot;, verdana, arial, sans-serif; font-size: 12px; fill: rgb(68, 68, 68); fill-opacity: 1; white-space: pre;">3800</text></g><g class="ytick"><text text-anchor="end" x="79" y="4.199999999999999" data-unformatted="3900" data-math="N" transform="translate(0,166.3)" style="font-family: &quot;Open Sans&quot;, verdana, arial, sans-serif; font-size: 12px; fill: rgb(68, 68, 68); fill-opacity: 1; white-space: pre;">3900</text></g><g class="ytick"><text text-anchor="end" x="79" y="4.199999999999999" data-unformatted="4000" data-math="N" transform="translate(0,112.3)" style="font-family: &quot;Open Sans&quot;, verdana, arial, sans-serif; font-size: 12px; fill: rgb(68, 68, 68); fill-opacity: 1; white-space: pre;">4000</text></g></g><g class="overaxes-above"></g></g></g><g class="polarlayer"></g><g class="ternarylayer"></g><g class="geolayer"></g><g class="funnelarealayer"></g><g class="pielayer"></g><g class="treemaplayer"></g><g class="sunburstlayer"></g><g class="glimages"></g></svg><div class="gl-container"></div><svg class="main-svg" style="position: absolute" xmlns="http://www.w3.org/2000/svg" xmlns:xlink="http://www.w3.org/1999/xlink" width="904.225352112676" height="642"><defs id="topdefs-cbb392"><g class="clips"></g><clipPath id="legendcbb392"><rect width="114" height="48" x="0" y="0"></rect></clipPath></defs><g class="indicatorlayer"></g><g class="layer-above"><g class="imagelayer"></g><g class="shapelayer"></g></g><g class="infolayer"><g class="legend" pointer-events="all" transform="translate(777.6800000000001,100)"><rect class="bg" shape-rendering="crispEdges" style="stroke: rgb(68, 68, 68); stroke-opacity: 1; fill: rgb(255, 255, 255); fill-opacity: 1; stroke-width: 0px;" width="114" height="48" x="0" y="0"></rect><g class="scrollbox" transform="" clip-path="url('#legendcbb392')"><g class="groups"><g class="traces" transform="translate(0,14.5)" style="opacity: 1;"><text class="legendtext" text-anchor="start" x="40" y="4.680000000000001" data-unformatted="MA5" data-math="N" style="font-family: &quot;Open Sans&quot;, verdana, arial, sans-serif; font-size: 12px; fill: rgb(68, 68, 68); fill-opacity: 1; white-space: pre;">MA5</text><g class="layers" style="opacity: 1;"><g class="legendfill"></g><g class="legendlines"><path class="js-line" d="M5,0h30" style="fill: none; stroke: rgb(0, 128, 0); stroke-opacity: 1; stroke-width: 2px;"></path></g><g class="legendsymbols"><g class="legendpoints"></g></g></g><rect class="legendtoggle" pointer-events="all" x="0" y="-9.5" width="108.609375" height="19" style="cursor: pointer; fill: rgb(0, 0, 0); fill-opacity: 0;"></rect></g><g class="traces" style="opacity: 1;" transform="translate(0,33.5)"><text class="legendtext" text-anchor="start" x="40" y="4.680000000000001" data-unformatted="top_bot_line" data-math="N" style="font-family: &quot;Open Sans&quot;, verdana, arial, sans-serif; font-size: 12px; fill: rgb(68, 68, 68); fill-opacity: 1; white-space: pre;">top_bot_line</text><g class="layers" style="opacity: 1;"><g class="legendfill"></g><g class="legendlines"><path class="js-line" d="M5,0h30" style="fill: none; stroke: rgb(0, 0, 0); stroke-opacity: 1; stroke-width: 2px;"></path></g><g class="legendsymbols"><g class="legendpoints"></g></g></g><rect class="legendtoggle" pointer-events="all" x="0" y="-9.5" width="108.609375" height="19" style="cursor: pointer; fill: rgb(0, 0, 0); fill-opacity: 0;"></rect></g></g></g><rect class="scrollbar" rx="20" ry="3" width="0" height="0" style="fill: rgb(128, 139, 164); fill-opacity: 1;" x="0" y="0"></rect></g><g class="g-gtitle"></g><g class="g-xtitle"></g><g class="g-ytitle"></g></g><g class="menulayer"></g><g class="zoomlayer"></g></svg><div class="modebar-container" style="position: absolute; top: 0px; right: 0px; width: 100%;"><div id="modebar-cbb392" class="modebar modebar--hover ease-bg"><div class="modebar-group"><a rel="tooltip" class="modebar-btn" data-title="Download plot as a png" data-toggle="false" data-gravity="n"><svg viewBox="0 0 1000 1000" class="icon" height="1em" width="1em"><path d="m500 450c-83 0-150-67-150-150 0-83 67-150 150-150 83 0 150 67 150 150 0 83-67 150-150 150z m400 150h-120c-16 0-34 13-39 29l-31 93c-6 15-23 28-40 28h-340c-16 0-34-13-39-28l-31-94c-6-15-23-28-40-28h-120c-55 0-100-45-100-100v-450c0-55 45-100 100-100h800c55 0 100 45 100 100v450c0 55-45 100-100 100z m-400-550c-138 0-250 112-250 250 0 138 112 250 250 250 138 0 250-112 250-250 0-138-112-250-250-250z m365 380c-19 0-35 16-35 35 0 19 16 35 35 35 19 0 35-16 35-35 0-19-16-35-35-35z" transform="matrix(1 0 0 -1 0 850)"></path></svg></a></div><div class="modebar-group"><a rel="tooltip" class="modebar-btn active" data-title="Zoom" data-attr="dragmode" data-val="zoom" data-toggle="false" data-gravity="n"><svg viewBox="0 0 1000 1000" class="icon" height="1em" width="1em"><path d="m1000-25l-250 251c40 63 63 138 63 218 0 224-182 406-407 406-224 0-406-182-406-406s183-406 407-406c80 0 155 22 218 62l250-250 125 125z m-812 250l0 438 437 0 0-438-437 0z m62 375l313 0 0-312-313 0 0 312z" transform="matrix(1 0 0 -1 0 850)"></path></svg></a><a rel="tooltip" class="modebar-btn" data-title="Pan" data-attr="dragmode" data-val="pan" data-toggle="false" data-gravity="n"><svg viewBox="0 0 1000 1000" class="icon" height="1em" width="1em"><path d="m1000 350l-187 188 0-125-250 0 0 250 125 0-188 187-187-187 125 0 0-250-250 0 0 125-188-188 186-187 0 125 252 0 0-250-125 0 187-188 188 188-125 0 0 250 250 0 0-126 187 188z" transform="matrix(1 0 0 -1 0 850)"></path></svg></a></div><div class="modebar-group"><a rel="tooltip" class="modebar-btn" data-title="Zoom in" data-attr="zoom" data-val="in" data-toggle="false" data-gravity="n"><svg viewBox="0 0 875 1000" class="icon" height="1em" width="1em"><path d="m1 787l0-875 875 0 0 875-875 0z m687-500l-187 0 0-187-125 0 0 187-188 0 0 125 188 0 0 187 125 0 0-187 187 0 0-125z" transform="matrix(1 0 0 -1 0 850)"></path></svg></a><a rel="tooltip" class="modebar-btn" data-title="Zoom out" data-attr="zoom" data-val="out" data-toggle="false" data-gravity="n"><svg viewBox="0 0 875 1000" class="icon" height="1em" width="1em"><path d="m0 788l0-876 875 0 0 876-875 0z m688-500l-500 0 0 125 500 0 0-125z" transform="matrix(1 0 0 -1 0 850)"></path></svg></a><a rel="tooltip" class="modebar-btn" data-title="Autoscale" data-attr="zoom" data-val="auto" data-toggle="false" data-gravity="n"><svg viewBox="0 0 1000 1000" class="icon" height="1em" width="1em"><path d="m250 850l-187 0-63 0 0-62 0-188 63 0 0 188 187 0 0 62z m688 0l-188 0 0-62 188 0 0-188 62 0 0 188 0 62-62 0z m-875-938l0 188-63 0 0-188 0-62 63 0 187 0 0 62-187 0z m875 188l0-188-188 0 0-62 188 0 62 0 0 62 0 188-62 0z m-125 188l-1 0-93-94-156 156 156 156 92-93 2 0 0 250-250 0 0-2 93-92-156-156-156 156 94 92 0 2-250 0 0-250 0 0 93 93 157-156-157-156-93 94 0 0 0-250 250 0 0 0-94 93 156 157 156-157-93-93 0 0 250 0 0 250z" transform="matrix(1 0 0 -1 0 850)"></path></svg></a><a rel="tooltip" class="modebar-btn" data-title="Reset axes" data-attr="zoom" data-val="reset" data-toggle="false" data-gravity="n"><svg viewBox="0 0 928.6 1000" class="icon" height="1em" width="1em"><path d="m786 296v-267q0-15-11-26t-25-10h-214v214h-143v-214h-214q-15 0-25 10t-11 26v267q0 1 0 2t0 2l321 264 321-264q1-1 1-4z m124 39l-34-41q-5-5-12-6h-2q-7 0-12 3l-386 322-386-322q-7-4-13-4-7 2-12 7l-35 41q-4 5-3 13t6 12l401 334q18 15 42 15t43-15l136-114v109q0 8 5 13t13 5h107q8 0 13-5t5-13v-227l122-102q5-5 6-12t-4-13z" transform="matrix(1 0 0 -1 0 850)"></path></svg></a></div><div class="modebar-group"><a rel="tooltip" class="modebar-btn" data-title="Toggle Spike Lines" data-attr="_cartesianSpikesEnabled" data-val="on" data-toggle="false" data-gravity="n"><svg viewBox="0 0 1000 1000" class="icon" height="1em" width="1em"><path d="M512 409c0-57-46-104-103-104-57 0-104 47-104 104 0 57 47 103 104 103 57 0 103-46 103-103z m-327-39l92 0 0 92-92 0z m-185 0l92 0 0 92-92 0z m370-186l92 0 0 93-92 0z m0-184l92 0 0 92-92 0z" transform="matrix(1.5 0 0 -1.5 0 850)"></path></svg></a><a rel="tooltip" class="modebar-btn" data-title="Show closest data on hover" data-attr="hovermode" data-val="closest" data-toggle="false" data-gravity="ne"><svg viewBox="0 0 1500 1000" class="icon" height="1em" width="1em"><path d="m375 725l0 0-375-375 375-374 0-1 1125 0 0 750-1125 0z" transform="matrix(1 0 0 -1 0 850)"></path></svg></a><a rel="tooltip" class="modebar-btn active" data-title="Compare data on hover" data-attr="hovermode" data-val="x" data-toggle="false" data-gravity="ne"><svg viewBox="0 0 1125 1000" class="icon" height="1em" width="1em"><path d="m187 786l0 2-187-188 188-187 0 0 937 0 0 373-938 0z m0-499l0 1-187-188 188-188 0 0 937 0 0 376-938-1z" transform="matrix(1 0 0 -1 0 850)"></path></svg></a></div></div></div><svg class="main-svg" style="position: absolute" xmlns="http://www.w3.org/2000/svg" xmlns:xlink="http://www.w3.org/1999/xlink" width="904.225352112676" height="642"><g class="hoverlayer"></g></svg>