<svg class="main-svg" style="position: absolute" xmlns="http://www.w3.org/2000/svg" xmlns:xlink="http://www.w3.org/1999/xlink" width="1116" height="587" style="background: rgb(245, 246, 249);"><defs id="defs-e4edbd"><g class="clips"><clipPath id="clipe4edbdxyplot" class="plotclip"><rect width="952" height="407"></rect></clipPath><clipPath id="clipe4edbdxy2plot" class="plotclip"><rect width="952" height="407"></rect></clipPath><clipPath class="axesclip" id="clipe4edbdx"><rect x="80" y="0" width="952" height="587"></rect></clipPath><clipPath class="axesclip" id="clipe4edbdy"><rect x="0" y="100" width="1116" height="407"></rect></clipPath><clipPath class="axesclip" id="clipe4edbdxy"><rect x="80" y="100" width="952" height="407"></rect></clipPath><clipPath class="axesclip" id="clipe4edbdy2"><rect x="0" y="100" width="1116" height="407"></rect></clipPath><clipPath class="axesclip" id="clipe4edbdxy2"><rect x="80" y="100" width="952" height="407"></rect></clipPath></g><g class="gradients"></g></defs><g class="bglayer"></g><g class="draglayer cursor-crosshair"><g class="xy"><rect class="nsewdrag drag" data-subplot="xy" x="80" y="100" width="952" height="407" style="fill: transparent; stroke-width: 0; pointer-events: all;"></rect><rect class="nwdrag drag cursor-nw-resize" data-subplot="xy" x="60" y="80" width="20" height="20" style="fill: transparent; stroke-width: 0; pointer-events: all;"></rect><rect class="nedrag drag cursor-ne-resize" data-subplot="xy" x="1032" y="80" width="20" height="20" style="fill: transparent; stroke-width: 0; pointer-events: all;"></rect><rect class="swdrag drag cursor-sw-resize" data-subplot="xy" x="60" y="507" width="20" height="20" style="fill: transparent; stroke-width: 0; pointer-events: all;"></rect><rect class="sedrag drag cursor-se-resize" data-subplot="xy" x="1032" y="507" width="20" height="20" style="fill: transparent; stroke-width: 0; pointer-events: all;"></rect><rect class="ewdrag drag cursor-ew-resize" data-subplot="xy" x="175.2" y="507.5" width="761.6" height="20" style="fill: transparent; stroke-width: 0; pointer-events: all;"></rect><rect class="wdrag drag cursor-w-resize" data-subplot="xy" x="80" y="507.5" width="95.2" height="20" style="fill: transparent; stroke-width: 0; pointer-events: all;"></rect><rect class="edrag drag cursor-e-resize" data-subplot="xy" x="936.8000000000001" y="507.5" width="95.2" height="20" style="fill: transparent; stroke-width: 0; pointer-events: all;"></rect><rect class="nsdrag drag cursor-ns-resize" data-subplot="xy" x="59.5" y="140.7" width="20" height="325.6" style="fill: transparent; stroke-width: 0; pointer-events: all;"></rect><rect class="sdrag drag cursor-s-resize" data-subplot="xy" x="59.5" y="466.3" width="20" height="40.7" style="fill: transparent; stroke-width: 0; pointer-events: all;"></rect><rect class="ndrag drag cursor-n-resize" data-subplot="xy" x="59.5" y="100" width="20" height="40.7" style="fill: transparent; stroke-width: 0; pointer-events: all;"></rect></g><g class="xy2"><rect class="nsdrag drag cursor-ns-resize" data-subplot="xy2" x="1032.5" y="140.7" width="20" height="325.6" style="fill: transparent; stroke-width: 0; pointer-events: all;"></rect><rect class="sdrag drag cursor-s-resize" data-subplot="xy2" x="1032.5" y="466.3" width="20" height="40.7" style="fill: transparent; stroke-width: 0; pointer-events: all;"></rect><rect class="ndrag drag cursor-n-resize" data-subplot="xy2" x="1032.5" y="100" width="20" height="40.7" style="fill: transparent; stroke-width: 0; pointer-events: all;"></rect></g></g><g class="layer-below"><g class="imagelayer"></g><g class="shapelayer"></g></g><g class="cartesianlayer"><g class="subplot xy"><g class="layer-subplot"><g class="shapelayer"></g><g class="imagelayer"></g></g><g class="gridlayer"><g class="x"><path class="xgrid crisp" transform="translate(176.16,0)" d="M0,100v407" style="stroke: rgb(225, 229, 237); stroke-opacity: 1; stroke-width: 1px;"></path><path class="xgrid crisp" transform="translate(310.78999999999996,0)" d="M0,100v407" style="stroke: rgb(225, 229, 237); stroke-opacity: 1; stroke-width: 1px;"></path><path class="xgrid crisp" transform="translate(445.41,0)" d="M0,100v407" style="stroke: rgb(225, 229, 237); stroke-opacity: 1; stroke-width: 1px;"></path><path class="xgrid crisp" transform="translate(580.04,0)" d="M0,100v407" style="stroke: rgb(225, 229, 237); stroke-opacity: 1; stroke-width: 1px;"></path><path class="xgrid crisp" transform="translate(714.67,0)" d="M0,100v407" style="stroke: rgb(225, 229, 237); stroke-opacity: 1; stroke-width: 1px;"></path><path class="xgrid crisp" transform="translate(849.29,0)" d="M0,100v407" style="stroke: rgb(225, 229, 237); stroke-opacity: 1; stroke-width: 1px;"></path><path class="xgrid crisp" transform="translate(983.92,0)" d="M0,100v407" style="stroke: rgb(225, 229, 237); stroke-opacity: 1; stroke-width: 1px;"></path></g><g class="y"><path class="ygrid crisp" transform="translate(0,457.84)" d="M80,0h952" style="stroke: rgb(225, 229, 237); stroke-opacity: 1; stroke-width: 1px;"></path><path class="ygrid crisp" transform="translate(0,406.63)" d="M80,0h952" style="stroke: rgb(225, 229, 237); stroke-opacity: 1; stroke-width: 1px;"></path><path class="ygrid crisp" transform="translate(0,355.41999999999996)" d="M80,0h952" style="stroke: rgb(225, 229, 237); stroke-opacity: 1; stroke-width: 1px;"></path><path class="ygrid crisp" transform="translate(0,304.21000000000004)" d="M80,0h952" style="stroke: rgb(225, 229, 237); stroke-opacity: 1; stroke-width: 1px;"></path><path class="ygrid crisp" transform="translate(0,252.99)" d="M80,0h952" style="stroke: rgb(225, 229, 237); stroke-opacity: 1; stroke-width: 1px;"></path><path class="ygrid crisp" transform="translate(0,150.57)" d="M80,0h952" style="stroke: rgb(225, 229, 237); stroke-opacity: 1; stroke-width: 1px;"></path></g><g class="y2"><path class="y2grid crisp" transform="translate(0,469.35)" d="M80,0h952" style="stroke: rgb(225, 229, 237); stroke-opacity: 1; stroke-width: 1px;"></path><path class="y2grid crisp" transform="translate(0,397.04)" d="M80,0h952" style="stroke: rgb(225, 229, 237); stroke-opacity: 1; stroke-width: 1px;"></path><path class="y2grid crisp" transform="translate(0,252.42)" d="M80,0h952" style="stroke: rgb(225, 229, 237); stroke-opacity: 1; stroke-width: 1px;"></path><path class="y2grid crisp" transform="translate(0,180.11)" d="M80,0h952" style="stroke: rgb(225, 229, 237); stroke-opacity: 1; stroke-width: 1px;"></path><path class="y2grid crisp" transform="translate(0,107.8)" d="M80,0h952" style="stroke: rgb(225, 229, 237); stroke-opacity: 1; stroke-width: 1px;"></path></g></g><g class="zerolinelayer"><path class="yzl zl crisp" transform="translate(0,201.78)" d="M80,0h952" style="stroke: rgb(225, 229, 237); stroke-opacity: 1; stroke-width: 1px;"></path><path class="y2zl zl crisp" transform="translate(0,324.73)" d="M80,0h952" style="stroke: rgb(225, 229, 237); stroke-opacity: 1; stroke-width: 1px;"></path></g><path class="xlines-below"></path><path class="ylines-below"></path><g class="overlines-below"><path class="xy2-x"></path><path class="xy2-y"></path></g><g class="xaxislayer-below"></g><g class="yaxislayer-below"></g><g class="overaxes-below"><g class="xy2-x"></g><g class="xy2-y"></g></g><g class="plot" transform="translate(80,100)" clip-path="url('#clipe4edbdxyplot')"><g class="scatterlayer mlayer"><g class="trace scatter trace001aea" style="stroke-miterlimit: 2; opacity: 1;"><g class="fills"></g><g class="errorbars"></g><g class="lines"><path class="js-line" d="M0,97.06L9.62,138.58L19.23,173.01L38.46,219.31L48.08,211.72L57.7,230.8L67.31,211.07L76.93,220.76L86.55,273.54L96.16,269.53L105.78,289.98L115.39,299.01L125.01,266.62L134.63,232.58L144.24,220.74L153.86,266.67L163.47,245.84L173.09,252.46L182.71,222.37L192.32,169.28L201.94,182.79L211.56,164.11L221.17,203.52L230.79,172.18L240.4,219.5L250.02,233.77L259.64,251.02L269.25,228.93L278.87,251.99L288.48,278.05L298.1,266.76L307.72,286.08L317.33,274.02L326.95,263.67L336.57,281.67L346.18,294.12L355.8,268.85L365.41,306.1L375.03,284.51L384.65,324.9L394.26,340.01L403.88,386.65L413.49,332.04L423.11,331.59L432.73,334.28L451.96,385.77L461.58,379.39L471.19,336.4L480.81,280.41L490.42,262.89L500.04,253.72L509.66,255.38L519.27,241.11L528.89,230.23L538.51,283.34L548.12,244.12L557.74,213.71L567.35,193.16L576.97,205.36L586.59,228.45L596.2,211.49L605.82,254.55L615.43,236.67L625.05,198.33L634.67,176.5L644.28,170.11L653.9,156.27L663.52,144.34L673.13,97.64L682.75,117.82L692.36,161.5L701.98,212.61L711.6,177.41L721.21,163.79L730.83,143.86L740.44,133.12L750.06,131.72L769.29,151.86L778.91,187.97L788.53,174.36L798.14,162.85L807.76,203.39L817.37,213.41L826.99,217.2L836.61,212.68L846.22,231.19L855.84,189.51L865.45,184.11L875.07,167.57L884.69,161.3L894.3,180.49L903.92,189.55L913.54,202.71L923.15,190.23L932.77,202.3L942.38,203.2L952,215.91" style="vector-effect: non-scaling-stroke; fill: none; stroke: rgb(255, 153, 51); stroke-opacity: 1; stroke-width: 1.3px; opacity: 1;"></path></g><g class="points"></g><g class="text"></g></g><g class="trace scatter trace9edbe8" style="stroke-miterlimit: 2; opacity: 1;"><g class="fills"></g><g class="errorbars"></g><g class="lines"><path class="js-line" d="M0,84.5L9.62,59.19L19.23,67.63L28.85,71.45L38.46,63.29L48.08,54.05L57.7,47.61L86.55,42.9L96.16,34.26L105.78,55.19L115.39,43.83L125.01,20.35L134.63,33.37L144.24,74.33L153.86,64.96L163.47,101.43L173.09,128.48L182.71,145.95L192.32,179.48L201.94,187.4L211.56,191.96L221.17,221.79L230.79,216.91L240.4,231.97L250.02,229.87L259.64,238.02L269.25,233.67L278.87,275.86L288.48,267.98L298.1,284.48L307.72,255.68L317.33,301.25L326.95,245.09L336.57,221.41L346.18,201.11L355.8,178.28L365.41,218.53L375.03,220.59L384.65,221.36L394.26,220.2L403.88,238.52L413.49,238.33L423.11,245.3L432.73,236.08L442.34,200.03L451.96,174.27L461.58,153.58L471.19,161.61L480.81,185.61L490.42,178.18L500.04,142.26L509.66,169.48L519.27,114.12L528.89,104.03L538.51,136.34L548.12,142.45L557.74,98.84L567.35,76.15L576.97,58.76L586.59,49.13L596.2,97.41L605.82,47.67L615.43,53.24L625.05,71.59L634.67,100.82L644.28,94.5L653.9,83.48L663.52,87.61L673.13,65.68L682.75,59.72L692.36,118.85L701.98,108.89L711.6,132.67L721.21,149.12L730.83,190.03L740.44,164.26L750.06,168.55L759.68,179.88L769.29,176.43L778.91,161.68L788.53,143.38L798.14,176.28L807.76,159.84L817.37,152.02L826.99,113.72L836.61,76.26L846.22,60.05L855.84,45.65L865.45,48.45L875.07,42.46L884.69,77.57L894.3,49.96L903.92,47.46L913.54,88.49L923.15,88.32L932.77,79.32L942.38,82.14L952,29.97" style="vector-effect: non-scaling-stroke; fill: none; stroke: rgb(55, 128, 191); stroke-opacity: 1; stroke-width: 1.3px; opacity: 1;"></path></g><g class="points"></g><g class="text"></g></g></g></g><g class="overplot"><g class="xy2" transform="translate(80,100)" clip-path="url('#clipe4edbdxy2plot')"><g class="scatterlayer mlayer"><g class="trace scatter trace16b126" style="stroke-miterlimit: 2; opacity: 1;"><g class="fills"></g><g class="errorbars"></g><g class="lines"><path class="js-line" d="M0,210.31L9.62,219.82L19.23,215.7L28.85,212.8L38.46,195.82L48.08,178.01L57.7,190.24L67.31,160.68L76.93,170.88L86.55,189.54L96.16,218.59L105.78,202.12L115.39,201.26L125.01,199.93L134.63,178.69L144.24,178.9L153.86,208.12L163.47,208.94L173.09,210.78L182.71,195.27L192.32,194.66L201.94,192.34L211.56,200.65L221.17,213.45L230.79,228.25L240.4,229.56L250.02,236.69L259.64,260.24L269.25,229.94L278.87,210.59L288.48,209.32L298.1,193.59L307.72,204L326.95,193.48L336.57,182.57L346.18,162.57L355.8,128.1L365.41,131.21L375.03,102.01L384.65,68.1L394.26,63.81L403.88,69.64L413.49,73.05L423.11,101.81L432.73,117.17L442.34,101.65L451.96,104.09L461.58,104.32L471.19,125.15L480.81,126.91L490.42,121.09L500.04,131.37L509.66,142.84L519.27,124.83L528.89,132.52L538.51,131.4L548.12,121.38L557.74,106.09L567.35,97.75L576.97,114.19L586.59,125.38L596.2,112.01L605.82,106.12L625.05,74.78L634.67,64.36L644.28,75.1L653.9,80.99L663.52,90.23L673.13,114.74L682.75,111.99L692.36,99.73L701.98,74.2L711.6,62.45L721.21,67.24L730.83,70.41L740.44,73.82L750.06,56.49L759.68,53.86L769.29,35.33L778.91,51.91L788.53,37.59L798.14,39.91L807.76,20.35L817.37,42.59L826.99,58.35L836.61,51.08L846.22,63.04L855.84,79.95L865.45,101.07L875.07,116.86L884.69,122.19L894.3,128.41L903.92,137.48L913.54,134.03L923.15,127.49L932.77,128.69L942.38,109.54L952,109.47" style="vector-effect: non-scaling-stroke; fill: none; stroke: rgb(50, 171, 96); stroke-opacity: 1; stroke-width: 1.3px; opacity: 1;"></path></g><g class="points"></g><g class="text"></g></g><g class="trace scatter trace14fbe2" style="stroke-miterlimit: 2; opacity: 1;"><g class="fills"></g><g class="errorbars"></g><g class="lines"><path class="js-line" d="M0,196.51L9.62,224.3L19.23,222.82L28.85,222L38.46,208.1L48.08,204.31L57.7,204.5L67.31,197.75L76.93,230.38L86.55,210.26L96.16,234.73L105.78,236.55L115.39,253.01L125.01,253.94L134.63,241.76L144.24,262.83L153.86,246.29L163.47,263.4L173.09,263.63L182.71,271.76L192.32,290.86L201.94,291.98L211.56,326.03L221.17,317.47L230.79,325.34L240.4,317.33L250.02,319.19L259.64,290.98L269.25,282.77L278.87,287.62L288.48,267.84L298.1,263.88L307.72,252.43L317.33,248.43L326.95,243.34L336.57,248.17L346.18,257.86L355.8,283.65L365.41,326.06L375.03,343.52L384.65,359.07L394.26,354.02L403.88,359.79L413.49,359.57L423.11,353.45L432.73,342.16L442.34,339.01L451.96,321.64L461.58,319.35L471.19,312.85L480.81,296.71L490.42,307.76L500.04,304.39L509.66,321.7L519.27,313.8L528.89,300.28L538.51,285.27L548.12,291.42L557.74,285.24L567.35,294.95L576.97,270.96L586.59,270.57L596.2,279.19L605.82,260.62L615.43,271.92L625.05,302.27L634.67,319.64L644.28,340.21L653.9,371.9L663.52,354.85L673.13,370.94L682.75,375.45L692.36,372.53L701.98,381.65L711.6,386.38L721.21,386.65L730.83,364.1L740.44,348.93L750.06,358.34L759.68,354.66L769.29,360.67L778.91,368.08L788.53,355.33L798.14,339.51L807.76,321.61L817.37,321.22L826.99,337.86L836.61,349.63L846.22,334.32L865.45,303.23L875.07,288.48L884.69,267.22L894.3,273.56L903.92,274.76L913.54,260.19L923.15,247.14L932.77,227.92L942.38,227.78L952,231.18" style="vector-effect: non-scaling-stroke; fill: none; stroke: rgb(128, 0, 128); stroke-opacity: 1; stroke-width: 1.3px; opacity: 1;"></path></g><g class="points"></g><g class="text"></g></g></g></g></g><path class="xlines-above crisp" d="M0,0" style="fill: none;"></path><path class="ylines-above crisp" style="fill: none;" d="M0,0"></path><g class="overlines-above"><path class="xy2-x crisp" d="M0,0" style="fill: none;"></path><path class="xy2-y crisp" style="fill: none;" d="M0,0"></path></g><g class="xaxislayer-above"><g class="xtick"><text text-anchor="middle" x="0" y="520" data-unformatted="Jan 11<br>2015" data-math="N" transform="translate(176.16,0)" style="font-family: &quot;Open Sans&quot;, verdana, arial, sans-serif; font-size: 12px; fill: rgb(77, 86, 99); fill-opacity: 1; white-space: pre;"><tspan class="line" dy="0em" x="0" y="520">Jan 11</tspan><tspan class="line" dy="1.3em" x="0" y="520">2015</tspan></text></g><g class="xtick"><text text-anchor="middle" x="0" y="520" data-unformatted="Jan 25" data-math="N" transform="translate(310.78999999999996,0)" style="font-family: &quot;Open Sans&quot;, verdana, arial, sans-serif; font-size: 12px; fill: rgb(77, 86, 99); fill-opacity: 1; white-space: pre;">Jan 25</text></g><g class="xtick"><text text-anchor="middle" x="0" y="520" data-unformatted="Feb 8" data-math="N" transform="translate(445.41,0)" style="font-family: &quot;Open Sans&quot;, verdana, arial, sans-serif; font-size: 12px; fill: rgb(77, 86, 99); fill-opacity: 1; white-space: pre;">Feb 8</text></g><g class="xtick"><text text-anchor="middle" x="0" y="520" data-unformatted="Feb 22" data-math="N" transform="translate(580.04,0)" style="font-family: &quot;Open Sans&quot;, verdana, arial, sans-serif; font-size: 12px; fill: rgb(77, 86, 99); fill-opacity: 1; white-space: pre;">Feb 22</text></g><g class="xtick"><text text-anchor="middle" x="0" y="520" data-unformatted="Mar 8" data-math="N" transform="translate(714.67,0)" style="font-family: &quot;Open Sans&quot;, verdana, arial, sans-serif; font-size: 12px; fill: rgb(77, 86, 99); fill-opacity: 1; white-space: pre;">Mar 8</text></g><g class="xtick"><text text-anchor="middle" x="0" y="520" data-unformatted="Mar 22" data-math="N" transform="translate(849.29,0)" style="font-family: &quot;Open Sans&quot;, verdana, arial, sans-serif; font-size: 12px; fill: rgb(77, 86, 99); fill-opacity: 1; white-space: pre;">Mar 22</text></g><g class="xtick"><text text-anchor="middle" x="0" y="520" data-unformatted="Apr 5" data-math="N" transform="translate(983.92,0)" style="font-family: &quot;Open Sans&quot;, verdana, arial, sans-serif; font-size: 12px; fill: rgb(77, 86, 99); fill-opacity: 1; white-space: pre;">Apr 5</text></g></g><g class="yaxislayer-above"><g class="ytick"><text text-anchor="end" x="79" y="4.199999999999999" data-unformatted="−10" data-math="N" transform="translate(0,457.84)" style="font-family: &quot;Open Sans&quot;, verdana, arial, sans-serif; font-size: 12px; fill: rgb(77, 86, 99); fill-opacity: 1; white-space: pre;">−10</text></g><g class="ytick"><text text-anchor="end" x="79" y="4.199999999999999" data-unformatted="−8" data-math="N" transform="translate(0,406.63)" style="font-family: &quot;Open Sans&quot;, verdana, arial, sans-serif; font-size: 12px; fill: rgb(77, 86, 99); fill-opacity: 1; white-space: pre;">−8</text></g><g class="ytick"><text text-anchor="end" x="79" y="4.199999999999999" data-unformatted="−6" data-math="N" transform="translate(0,355.41999999999996)" style="font-family: &quot;Open Sans&quot;, verdana, arial, sans-serif; font-size: 12px; fill: rgb(77, 86, 99); fill-opacity: 1; white-space: pre;">−6</text></g><g class="ytick"><text text-anchor="end" x="79" y="4.199999999999999" data-unformatted="−4" data-math="N" transform="translate(0,304.21000000000004)" style="font-family: &quot;Open Sans&quot;, verdana, arial, sans-serif; font-size: 12px; fill: rgb(77, 86, 99); fill-opacity: 1; white-space: pre;">−4</text></g><g class="ytick"><text text-anchor="end" x="79" y="4.199999999999999" data-unformatted="−2" data-math="N" transform="translate(0,252.99)" style="font-family: &quot;Open Sans&quot;, verdana, arial, sans-serif; font-size: 12px; fill: rgb(77, 86, 99); fill-opacity: 1; white-space: pre;">−2</text></g><g class="ytick"><text text-anchor="end" x="79" y="4.199999999999999" data-unformatted="0" data-math="N" transform="translate(0,201.78)" style="font-family: &quot;Open Sans&quot;, verdana, arial, sans-serif; font-size: 12px; fill: rgb(77, 86, 99); fill-opacity: 1; white-space: pre;">0</text></g><g class="ytick"><text text-anchor="end" x="79" y="4.199999999999999" data-unformatted="2" data-math="N" transform="translate(0,150.57)" style="font-family: &quot;Open Sans&quot;, verdana, arial, sans-serif; font-size: 12px; fill: rgb(77, 86, 99); fill-opacity: 1; white-space: pre;">2</text></g></g><g class="overaxes-above"><g class="xy2-x"></g><g class="xy2-y"><g class="y2tick"><text text-anchor="start" x="1033" y="4.199999999999999" data-unformatted="−1000" data-math="N" transform="translate(0,469.35)" style="font-family: &quot;Open Sans&quot;, verdana, arial, sans-serif; font-size: 12px; fill: rgb(77, 86, 99); fill-opacity: 1; white-space: pre;">−1000</text></g><g class="y2tick"><text text-anchor="start" x="1033" y="4.199999999999999" data-unformatted="−500" data-math="N" transform="translate(0,397.04)" style="font-family: &quot;Open Sans&quot;, verdana, arial, sans-serif; font-size: 12px; fill: rgb(77, 86, 99); fill-opacity: 1; white-space: pre;">−500</text></g><g class="y2tick"><text text-anchor="start" x="1033" y="4.199999999999999" data-unformatted="0" data-math="N" transform="translate(0,324.73)" style="font-family: &quot;Open Sans&quot;, verdana, arial, sans-serif; font-size: 12px; fill: rgb(77, 86, 99); fill-opacity: 1; white-space: pre;">0</text></g><g class="y2tick"><text text-anchor="start" x="1033" y="4.199999999999999" data-unformatted="500" data-math="N" transform="translate(0,252.42)" style="font-family: &quot;Open Sans&quot;, verdana, arial, sans-serif; font-size: 12px; fill: rgb(77, 86, 99); fill-opacity: 1; white-space: pre;">500</text></g><g class="y2tick"><text text-anchor="start" x="1033" y="4.199999999999999" data-unformatted="1000" data-math="N" transform="translate(0,180.11)" style="font-family: &quot;Open Sans&quot;, verdana, arial, sans-serif; font-size: 12px; fill: rgb(77, 86, 99); fill-opacity: 1; white-space: pre;">1000</text></g><g class="y2tick"><text text-anchor="start" x="1033" y="4.199999999999999" data-unformatted="1500" data-math="N" transform="translate(0,107.8)" style="font-family: &quot;Open Sans&quot;, verdana, arial, sans-serif; font-size: 12px; fill: rgb(77, 86, 99); fill-opacity: 1; white-space: pre;">1500</text></g></g></g></g><g class="subplot xy2"></g></g><g class="polarlayer"></g><g class="ternarylayer"></g><g class="geolayer"></g><g class="funnelarealayer"></g><g class="pielayer"></g><g class="treemaplayer"></g><g class="sunburstlayer"></g><g class="glimages"></g></svg><div class="gl-container"></div><svg class="main-svg" style="position: absolute" xmlns="http://www.w3.org/2000/svg" xmlns:xlink="http://www.w3.org/1999/xlink" width="1116" height="587"><defs id="topdefs-e4edbd"><g class="clips"></g><clipPath id="legende4edbd"><rect width="53" height="86" x="0" y="0"></rect></clipPath></defs><g class="indicatorlayer"></g><g class="layer-above"><g class="imagelayer"></g><g class="shapelayer"></g></g><g class="infolayer"><g class="legend" pointer-events="all" transform="translate(1051.04,100)"><rect class="bg" shape-rendering="crispEdges" style="stroke: rgb(68, 68, 68); stroke-opacity: 1; fill: rgb(245, 246, 249); fill-opacity: 1; stroke-width: 0px;" width="53" height="86" x="0" y="0"></rect><g class="scrollbox" transform="" clip-path="url('#legende4edbd')"><g class="groups"><g class="traces" transform="translate(0,14.5)" style="opacity: 1;"><text class="legendtext" text-anchor="start" x="40" y="4.680000000000001" data-unformatted="a" data-math="N" style="font-family: &quot;Open Sans&quot;, verdana, arial, sans-serif; font-size: 12px; fill: rgb(77, 86, 99); fill-opacity: 1; white-space: pre;">a</text><g class="layers" style="opacity: 1;"><g class="legendfill"></g><g class="legendlines"><path class="js-line" d="M5,0h30" style="fill: none; stroke: rgb(255, 153, 51); stroke-opacity: 1; stroke-width: 1.3px;"></path></g><g class="legendsymbols"><g class="legendpoints"></g></g></g><rect class="legendtoggle" pointer-events="all" x="0" y="-9.5" width="47.359375" height="19" style="cursor: pointer; fill: rgb(0, 0, 0); fill-opacity: 0;"></rect></g><g class="traces" style="opacity: 1;" transform="translate(0,33.5)"><text class="legendtext" text-anchor="start" x="40" y="4.680000000000001" data-unformatted="b" data-math="N" style="font-family: &quot;Open Sans&quot;, verdana, arial, sans-serif; font-size: 12px; fill: rgb(77, 86, 99); fill-opacity: 1; white-space: pre;">b</text><g class="layers" style="opacity: 1;"><g class="legendfill"></g><g class="legendlines"><path class="js-line" d="M5,0h30" style="fill: none; stroke: rgb(55, 128, 191); stroke-opacity: 1; stroke-width: 1.3px;"></path></g><g class="legendsymbols"><g class="legendpoints"></g></g></g><rect class="legendtoggle" pointer-events="all" x="0" y="-9.5" width="47.359375" height="19" style="cursor: pointer; fill: rgb(0, 0, 0); fill-opacity: 0;"></rect></g><g class="traces" style="opacity: 1;" transform="translate(0,52.5)"><text class="legendtext" text-anchor="start" x="40" y="4.680000000000001" data-unformatted="c" data-math="N" style="font-family: &quot;Open Sans&quot;, verdana, arial, sans-serif; font-size: 12px; fill: rgb(77, 86, 99); fill-opacity: 1; white-space: pre;">c</text><g class="layers" style="opacity: 1;"><g class="legendfill"></g><g class="legendlines"><path class="js-line" d="M5,0h30" style="fill: none; stroke: rgb(50, 171, 96); stroke-opacity: 1; stroke-width: 1.3px;"></path></g><g class="legendsymbols"><g class="legendpoints"></g></g></g><rect class="legendtoggle" pointer-events="all" x="0" y="-9.5" width="47.359375" height="19" style="cursor: pointer; fill: rgb(0, 0, 0); fill-opacity: 0;"></rect></g><g class="traces" style="opacity: 1;" transform="translate(0,71.5)"><text class="legendtext" text-anchor="start" x="40" y="4.680000000000001" data-unformatted="d" data-math="N" style="font-family: &quot;Open Sans&quot;, verdana, arial, sans-serif; font-size: 12px; fill: rgb(77, 86, 99); fill-opacity: 1; white-space: pre;">d</text><g class="layers" style="opacity: 1;"><g class="legendfill"></g><g class="legendlines"><path class="js-line" d="M5,0h30" style="fill: none; stroke: rgb(128, 0, 128); stroke-opacity: 1; stroke-width: 1.3px;"></path></g><g class="legendsymbols"><g class="legendpoints"></g></g></g><rect class="legendtoggle" pointer-events="all" x="0" y="-9.5" width="47.359375" height="19" style="cursor: pointer; fill: rgb(0, 0, 0); fill-opacity: 0;"></rect></g></g></g><rect class="scrollbar" rx="20" ry="3" width="0" height="0" style="fill: rgb(128, 139, 164); fill-opacity: 1;" x="0" y="0"></rect></g><g class="g-gtitle"></g><g class="g-xtitle"></g><g class="g-ytitle"></g><g class="g-y2title"></g></g><g class="menulayer"></g><g class="zoomlayer"></g></svg><div class="modebar-container" style="position: absolute; top: 0px; right: 0px; width: 100%;"><div id="modebar-e4edbd" class="modebar modebar--hover ease-bg"><div class="modebar-group"><a rel="tooltip" class="modebar-btn" data-title="Download plot as a png" data-toggle="false" data-gravity="n"><svg viewBox="0 0 1000 1000" class="icon" height="1em" width="1em"><path d="m500 450c-83 0-150-67-150-150 0-83 67-150 150-150 83 0 150 67 150 150 0 83-67 150-150 150z m400 150h-120c-16 0-34 13-39 29l-31 93c-6 15-23 28-40 28h-340c-16 0-34-13-39-28l-31-94c-6-15-23-28-40-28h-120c-55 0-100-45-100-100v-450c0-55 45-100 100-100h800c55 0 100 45 100 100v450c0 55-45 100-100 100z m-400-550c-138 0-250 112-250 250 0 138 112 250 250 250 138 0 250-112 250-250 0-138-112-250-250-250z m365 380c-19 0-35 16-35 35 0 19 16 35 35 35 19 0 35-16 35-35 0-19-16-35-35-35z" transform="matrix(1 0 0 -1 0 850)"></path></svg></a></div><div class="modebar-group"><a rel="tooltip" class="modebar-btn active" data-title="Zoom" data-attr="dragmode" data-val="zoom" data-toggle="false" data-gravity="n"><svg viewBox="0 0 1000 1000" class="icon" height="1em" width="1em"><path d="m1000-25l-250 251c40 63 63 138 63 218 0 224-182 406-407 406-224 0-406-182-406-406s183-406 407-406c80 0 155 22 218 62l250-250 125 125z m-812 250l0 438 437 0 0-438-437 0z m62 375l313 0 0-312-313 0 0 312z" transform="matrix(1 0 0 -1 0 850)"></path></svg></a><a rel="tooltip" class="modebar-btn" data-title="Pan" data-attr="dragmode" data-val="pan" data-toggle="false" data-gravity="n"><svg viewBox="0 0 1000 1000" class="icon" height="1em" width="1em"><path d="m1000 350l-187 188 0-125-250 0 0 250 125 0-188 187-187-187 125 0 0-250-250 0 0 125-188-188 186-187 0 125 252 0 0-250-125 0 187-188 188 188-125 0 0 250 250 0 0-126 187 188z" transform="matrix(1 0 0 -1 0 850)"></path></svg></a></div><div class="modebar-group"><a rel="tooltip" class="modebar-btn" data-title="Zoom in" data-attr="zoom" data-val="in" data-toggle="false" data-gravity="n"><svg viewBox="0 0 875 1000" class="icon" height="1em" width="1em"><path d="m1 787l0-875 875 0 0 875-875 0z m687-500l-187 0 0-187-125 0 0 187-188 0 0 125 188 0 0 187 125 0 0-187 187 0 0-125z" transform="matrix(1 0 0 -1 0 850)"></path></svg></a><a rel="tooltip" class="modebar-btn" data-title="Zoom out" data-attr="zoom" data-val="out" data-toggle="false" data-gravity="n"><svg viewBox="0 0 875 1000" class="icon" height="1em" width="1em"><path d="m0 788l0-876 875 0 0 876-875 0z m688-500l-500 0 0 125 500 0 0-125z" transform="matrix(1 0 0 -1 0 850)"></path></svg></a><a rel="tooltip" class="modebar-btn" data-title="Autoscale" data-attr="zoom" data-val="auto" data-toggle="false" data-gravity="n"><svg viewBox="0 0 1000 1000" class="icon" height="1em" width="1em"><path d="m250 850l-187 0-63 0 0-62 0-188 63 0 0 188 187 0 0 62z m688 0l-188 0 0-62 188 0 0-188 62 0 0 188 0 62-62 0z m-875-938l0 188-63 0 0-188 0-62 63 0 187 0 0 62-187 0z m875 188l0-188-188 0 0-62 188 0 62 0 0 62 0 188-62 0z m-125 188l-1 0-93-94-156 156 156 156 92-93 2 0 0 250-250 0 0-2 93-92-156-156-156 156 94 92 0 2-250 0 0-250 0 0 93 93 157-156-157-156-93 94 0 0 0-250 250 0 0 0-94 93 156 157 156-157-93-93 0 0 250 0 0 250z" transform="matrix(1 0 0 -1 0 850)"></path></svg></a><a rel="tooltip" class="modebar-btn" data-title="Reset axes" data-attr="zoom" data-val="reset" data-toggle="false" data-gravity="n"><svg viewBox="0 0 928.6 1000" class="icon" height="1em" width="1em"><path d="m786 296v-267q0-15-11-26t-25-10h-214v214h-143v-214h-214q-15 0-25 10t-11 26v267q0 1 0 2t0 2l321 264 321-264q1-1 1-4z m124 39l-34-41q-5-5-12-6h-2q-7 0-12 3l-386 322-386-322q-7-4-13-4-7 2-12 7l-35 41q-4 5-3 13t6 12l401 334q18 15 42 15t43-15l136-114v109q0 8 5 13t13 5h107q8 0 13-5t5-13v-227l122-102q5-5 6-12t-4-13z" transform="matrix(1 0 0 -1 0 850)"></path></svg></a></div><div class="modebar-group"><a rel="tooltip" class="modebar-btn" data-title="Toggle Spike Lines" data-attr="_cartesianSpikesEnabled" data-val="on" data-toggle="false" data-gravity="n"><svg viewBox="0 0 1000 1000" class="icon" height="1em" width="1em"><path d="M512 409c0-57-46-104-103-104-57 0-104 47-104 104 0 57 47 103 104 103 57 0 103-46 103-103z m-327-39l92 0 0 92-92 0z m-185 0l92 0 0 92-92 0z m370-186l92 0 0 93-92 0z m0-184l92 0 0 92-92 0z" transform="matrix(1.5 0 0 -1.5 0 850)"></path></svg></a><a rel="tooltip" class="modebar-btn" data-title="Show closest data on hover" data-attr="hovermode" data-val="closest" data-toggle="false" data-gravity="ne"><svg viewBox="0 0 1500 1000" class="icon" height="1em" width="1em"><path d="m375 725l0 0-375-375 375-374 0-1 1125 0 0 750-1125 0z" transform="matrix(1 0 0 -1 0 850)"></path></svg></a><a rel="tooltip" class="modebar-btn active" data-title="Compare data on hover" data-attr="hovermode" data-val="x" data-toggle="false" data-gravity="ne"><svg viewBox="0 0 1125 1000" class="icon" height="1em" width="1em"><path d="m187 786l0 2-187-188 188-187 0 0 937 0 0 373-938 0z m0-499l0 1-187-188 188-188 0 0 937 0 0 376-938-1z" transform="matrix(1 0 0 -1 0 850)"></path></svg></a></div></div></div><svg class="main-svg" style="position: absolute" xmlns="http://www.w3.org/2000/svg" xmlns:xlink="http://www.w3.org/1999/xlink" width="1116" height="587"><g class="hoverlayer"></g></svg>