<svg class="main-svg" style="position: absolute" xmlns="http://www.w3.org/2000/svg" xmlns:xlink="http://www.w3.org/1999/xlink" width="904.225352112676" height="642" style="background: rgb(255, 255, 255);"><defs id="defs-77156c"><g class="clips"><clipPath id="clip77156cxyplot" class="plotclip"><rect width="744" height="462"></rect></clipPath><clipPath class="axesclip" id="clip77156cx"><rect x="80" y="0" width="744" height="642"></rect></clipPath><clipPath class="axesclip" id="clip77156cy"><rect x="0" y="100" width="904.225352112676" height="462"></rect></clipPath><clipPath class="axesclip" id="clip77156cxy"><rect x="80" y="100" width="744" height="462"></rect></clipPath></g><g class="gradients"></g></defs><g class="bglayer"><rect class="bg" x="80" y="100" width="744" height="462" style="fill: rgb(237, 241, 245); fill-opacity: 1; stroke-width: 0;"></rect></g><g class="draglayer cursor-crosshair"><g class="xy"><rect class="nsewdrag drag cursor-pointer" data-subplot="xy" x="80" y="100" width="744" height="462" style="fill: transparent; stroke-width: 0; pointer-events: all;"></rect><rect class="nwdrag drag cursor-pointer" data-subplot="xy" x="60" y="80" width="20" height="20" style="fill: transparent; stroke-width: 0; pointer-events: none;"></rect><rect class="nedrag drag cursor-pointer" data-subplot="xy" x="824" y="80" width="20" height="20" style="fill: transparent; stroke-width: 0; pointer-events: none;"></rect><rect class="swdrag drag cursor-pointer" data-subplot="xy" x="60" y="562" width="20" height="20" style="fill: transparent; stroke-width: 0; pointer-events: none;"></rect><rect class="sedrag drag cursor-pointer" data-subplot="xy" x="824" y="562" width="20" height="20" style="fill: transparent; stroke-width: 0; pointer-events: none;"></rect><rect class="ewdrag drag cursor-pointer" data-subplot="xy" x="154.4" y="562.5" width="595.2" height="20" style="fill: transparent; stroke-width: 0; pointer-events: none;"></rect><rect class="wdrag drag cursor-pointer" data-subplot="xy" x="80" y="562.5" width="74.4" height="20" style="fill: transparent; stroke-width: 0; pointer-events: none;"></rect><rect class="edrag drag cursor-pointer" data-subplot="xy" x="749.6" y="562.5" width="74.4" height="20" style="fill: transparent; stroke-width: 0; pointer-events: none;"></rect><rect class="nsdrag drag cursor-pointer" data-subplot="xy" x="59.5" y="146.2" width="20" height="369.6" style="fill: transparent; stroke-width: 0; pointer-events: none;"></rect><rect class="sdrag drag cursor-pointer" data-subplot="xy" x="59.5" y="515.8" width="20" height="46.2" style="fill: transparent; stroke-width: 0; pointer-events: none;"></rect><rect class="ndrag drag cursor-pointer" data-subplot="xy" x="59.5" y="100" width="20" height="46.2" style="fill: transparent; stroke-width: 0; pointer-events: none;"></rect></g></g><g class="layer-below"><g class="imagelayer"></g><g class="shapelayer"></g></g><g class="cartesianlayer"><g class="subplot xy"><g class="layer-subplot"><g class="shapelayer"></g><g class="imagelayer"></g></g><g class="gridlayer"><g class="x"><path class="xgrid crisp" transform="translate(120.95,0)" d="M0,100v462" style="stroke: rgb(222, 225, 229); stroke-opacity: 1; stroke-width: 1px;"></path><path class="xgrid crisp" transform="translate(268.08000000000004,0)" d="M0,100v462" style="stroke: rgb(222, 225, 229); stroke-opacity: 1; stroke-width: 1px;"></path><path class="xgrid crisp" transform="translate(415.22,0)" d="M0,100v462" style="stroke: rgb(222, 225, 229); stroke-opacity: 1; stroke-width: 1px;"></path><path class="xgrid crisp" transform="translate(562.35,0)" d="M0,100v462" style="stroke: rgb(222, 225, 229); stroke-opacity: 1; stroke-width: 1px;"></path><path class="xgrid crisp" transform="translate(709.48,0)" d="M0,100v462" style="stroke: rgb(222, 225, 229); stroke-opacity: 1; stroke-width: 1px;"></path></g><g class="y"><path class="ygrid crisp" transform="translate(0,535.15)" d="M80,0h744" style="stroke: rgb(222, 225, 229); stroke-opacity: 1; stroke-width: 1px;"></path><path class="ygrid crisp" transform="translate(0,436.53)" d="M80,0h744" style="stroke: rgb(222, 225, 229); stroke-opacity: 1; stroke-width: 1px;"></path><path class="ygrid crisp" transform="translate(0,337.9)" d="M80,0h744" style="stroke: rgb(222, 225, 229); stroke-opacity: 1; stroke-width: 1px;"></path><path class="ygrid crisp" transform="translate(0,239.28)" d="M80,0h744" style="stroke: rgb(222, 225, 229); stroke-opacity: 1; stroke-width: 1px;"></path><path class="ygrid crisp" transform="translate(0,140.66)" d="M80,0h744" style="stroke: rgb(222, 225, 229); stroke-opacity: 1; stroke-width: 1px;"></path></g></g><g class="zerolinelayer"></g><path class="xlines-below"></path><path class="ylines-below"></path><g class="overlines-below"></g><g class="xaxislayer-below"></g><g class="yaxislayer-below"></g><g class="overaxes-below"></g><g class="plot" transform="translate(80,100)" clip-path="url('#clip77156cxyplot')"><g class="scatterlayer mlayer"><g class="trace scatter trace7fc78d" style="stroke-miterlimit: 2; opacity: 1;"><g class="fills"></g><g class="errorbars"></g><g class="lines"><path class="js-line" d="M40.95,26.85L114.52,26.85L188.08,30.79L261.65,107.72L335.22,196.48L408.78,247.77L482.35,293.13L555.92,336.53L629.48,391.76L703.05,435.15" style="vector-effect: non-scaling-stroke; fill: none; stroke: rgb(31, 119, 180); stroke-opacity: 1; stroke-width: 2px; opacity: 1;"></path></g><g class="points"><path class="point" transform="translate(40.95,26.85)" d="M3,0A3,3 0 1,1 0,-3A3,3 0 0,1 3,0Z" style="opacity: 1; stroke-width: 0px; fill: rgb(31, 119, 180); fill-opacity: 1;"></path><path class="point" transform="translate(114.52,26.85)" d="M3,0A3,3 0 1,1 0,-3A3,3 0 0,1 3,0Z" style="opacity: 1; stroke-width: 0px; fill: rgb(31, 119, 180); fill-opacity: 1;"></path><path class="point" transform="translate(188.08,30.79)" d="M3,0A3,3 0 1,1 0,-3A3,3 0 0,1 3,0Z" style="opacity: 1; stroke-width: 0px; fill: rgb(31, 119, 180); fill-opacity: 1;"></path><path class="point" transform="translate(261.65,107.72)" d="M3,0A3,3 0 1,1 0,-3A3,3 0 0,1 3,0Z" style="opacity: 1; stroke-width: 0px; fill: rgb(31, 119, 180); fill-opacity: 1;"></path><path class="point" transform="translate(335.22,196.48)" d="M3,0A3,3 0 1,1 0,-3A3,3 0 0,1 3,0Z" style="opacity: 1; stroke-width: 0px; fill: rgb(31, 119, 180); fill-opacity: 1;"></path><path class="point" transform="translate(408.78,247.77)" d="M3,0A3,3 0 1,1 0,-3A3,3 0 0,1 3,0Z" style="opacity: 1; stroke-width: 0px; fill: rgb(31, 119, 180); fill-opacity: 1;"></path><path class="point" transform="translate(482.35,293.13)" d="M3,0A3,3 0 1,1 0,-3A3,3 0 0,1 3,0Z" style="opacity: 1; stroke-width: 0px; fill: rgb(31, 119, 180); fill-opacity: 1;"></path><path class="point" transform="translate(555.92,336.53)" d="M3,0A3,3 0 1,1 0,-3A3,3 0 0,1 3,0Z" style="opacity: 1; stroke-width: 0px; fill: rgb(31, 119, 180); fill-opacity: 1;"></path><path class="point" transform="translate(629.48,391.76)" d="M3,0A3,3 0 1,1 0,-3A3,3 0 0,1 3,0Z" style="opacity: 1; stroke-width: 0px; fill: rgb(31, 119, 180); fill-opacity: 1;"></path><path class="point" transform="translate(703.05,435.15)" d="M3,0A3,3 0 1,1 0,-3A3,3 0 0,1 3,0Z" style="opacity: 1; stroke-width: 0px; fill: rgb(31, 119, 180); fill-opacity: 1;"></path></g><g class="text"></g></g></g></g><g class="overplot"></g><path class="xlines-above crisp" d="M79,562.5H824" style="fill: none; stroke-width: 1px; stroke: rgb(68, 68, 68); stroke-opacity: 1;"></path><path class="ylines-above crisp" style="fill: none; stroke-width: 1px; stroke: rgb(68, 68, 68); stroke-opacity: 1;" d="M79.5,100V562"></path><g class="overlines-above"></g><g class="xaxislayer-above"><path class="xtick ticks crisp" d="M0,563v10" transform="translate(120.95,0)" style="stroke: rgb(68, 68, 68); stroke-opacity: 1; stroke-width: 1px;"></path><path class="xtick ticks crisp" d="M0,563v10" transform="translate(268.08000000000004,0)" style="stroke: rgb(68, 68, 68); stroke-opacity: 1; stroke-width: 1px;"></path><path class="xtick ticks crisp" d="M0,563v10" transform="translate(415.22,0)" style="stroke: rgb(68, 68, 68); stroke-opacity: 1; stroke-width: 1px;"></path><path class="xtick ticks crisp" d="M0,563v10" transform="translate(562.35,0)" style="stroke: rgb(68, 68, 68); stroke-opacity: 1; stroke-width: 1px;"></path><path class="xtick ticks crisp" d="M0,563v10" transform="translate(709.48,0)" style="stroke: rgb(68, 68, 68); stroke-opacity: 1; stroke-width: 1px;"></path><g class="xtick"><text text-anchor="middle" x="0" y="587.4" data-unformatted="2006" data-math="N" transform="translate(120.95,0)" style="font-family: Raleway; font-size: 12px; fill: rgb(68, 68, 68); fill-opacity: 1; white-space: pre;">2006</text></g><g class="xtick"><text text-anchor="middle" x="0" y="587.4" data-unformatted="2008" data-math="N" transform="translate(268.08000000000004,0)" style="font-family: Raleway; font-size: 12px; fill: rgb(68, 68, 68); fill-opacity: 1; white-space: pre;">2008</text></g><g class="xtick"><text text-anchor="middle" x="0" y="587.4" data-unformatted="2010" data-math="N" transform="translate(415.22,0)" style="font-family: Raleway; font-size: 12px; fill: rgb(68, 68, 68); fill-opacity: 1; white-space: pre;">2010</text></g><g class="xtick"><text text-anchor="middle" x="0" y="587.4" data-unformatted="2012" data-math="N" transform="translate(562.35,0)" style="font-family: Raleway; font-size: 12px; fill: rgb(68, 68, 68); fill-opacity: 1; white-space: pre;">2012</text></g><g class="xtick"><text text-anchor="middle" x="0" y="587.4" data-unformatted="2014" data-math="N" transform="translate(709.48,0)" style="font-family: Raleway; font-size: 12px; fill: rgb(68, 68, 68); fill-opacity: 1; white-space: pre;">2014</text></g></g><g class="yaxislayer-above"><path class="ytick ticks crisp" d="M79,0h-5" transform="translate(0,535.15)" style="stroke: rgb(68, 68, 68); stroke-opacity: 1; stroke-width: 1px;"></path><path class="ytick ticks crisp" d="M79,0h-5" transform="translate(0,436.53)" style="stroke: rgb(68, 68, 68); stroke-opacity: 1; stroke-width: 1px;"></path><path class="ytick ticks crisp" d="M79,0h-5" transform="translate(0,337.9)" style="stroke: rgb(68, 68, 68); stroke-opacity: 1; stroke-width: 1px;"></path><path class="ytick ticks crisp" d="M79,0h-5" transform="translate(0,239.28)" style="stroke: rgb(68, 68, 68); stroke-opacity: 1; stroke-width: 1px;"></path><path class="ytick ticks crisp" d="M79,0h-5" transform="translate(0,140.66)" style="stroke: rgb(68, 68, 68); stroke-opacity: 1; stroke-width: 1px;"></path><g class="ytick"><text text-anchor="end" x="71.6" y="4.199999999999999" data-unformatted="25" data-math="N" transform="translate(0,535.15)" style="font-family: Raleway; font-size: 12px; fill: rgb(68, 68, 68); fill-opacity: 1; white-space: pre;">25</text></g><g class="ytick"><text text-anchor="end" x="71.6" y="4.199999999999999" data-unformatted="30" data-math="N" transform="translate(0,436.53)" style="font-family: Raleway; font-size: 12px; fill: rgb(68, 68, 68); fill-opacity: 1; white-space: pre;">30</text></g><g class="ytick"><text text-anchor="end" x="71.6" y="4.199999999999999" data-unformatted="35" data-math="N" transform="translate(0,337.9)" style="font-family: Raleway; font-size: 12px; fill: rgb(68, 68, 68); fill-opacity: 1; white-space: pre;">35</text></g><g class="ytick"><text text-anchor="end" x="71.6" y="4.199999999999999" data-unformatted="40" data-math="N" transform="translate(0,239.28)" style="font-family: Raleway; font-size: 12px; fill: rgb(68, 68, 68); fill-opacity: 1; white-space: pre;">40</text></g><g class="ytick"><text text-anchor="end" x="71.6" y="4.199999999999999" data-unformatted="45" data-math="N" transform="translate(0,140.66)" style="font-family: Raleway; font-size: 12px; fill: rgb(68, 68, 68); fill-opacity: 1; white-space: pre;">45</text></g></g><g class="overaxes-above"></g></g></g><g class="polarlayer"></g><g class="ternarylayer"></g><g class="geolayer"></g><g class="funnelarealayer"></g><g class="pielayer"></g><g class="treemaplayer"></g><g class="sunburstlayer"></g><g class="glimages"></g></svg><div class="gl-container"></div><svg class="main-svg" style="position: absolute" xmlns="http://www.w3.org/2000/svg" xmlns:xlink="http://www.w3.org/1999/xlink" width="904.225352112676" height="642"><defs id="topdefs-77156c"><g class="clips"></g></defs><g class="indicatorlayer"></g><g class="layer-above"><g class="imagelayer"></g><g class="shapelayer"></g></g><g class="infolayer"><g class="g-gtitle"><text class="gtitle" x="452.112676056338" y="50" text-anchor="middle" dy="0em" data-unformatted="Teen Birth Rate in Missouri, 2006-2015" data-math="N" style="font-family: Raleway; font-size: 20px; fill: rgb(68, 68, 68); opacity: 1; font-weight: normal; white-space: pre;">Teen Birth Rate in Missouri, 2006-2015</text></g><g class="g-xtitle"><text class="xtitle" x="452" y="614" text-anchor="middle" data-unformatted="Year" data-math="N" style="font-family: Raleway; font-size: 14px; fill: rgb(68, 68, 68); opacity: 1; font-weight: normal; white-space: pre;">Year</text></g><g class="g-ytitle"><text class="ytitle" transform="rotate(-90,42,331)" x="42" y="331" text-anchor="middle" data-unformatted="Births" data-math="N" style="font-family: Raleway; font-size: 14px; fill: rgb(68, 68, 68); opacity: 1; font-weight: normal; white-space: pre;">Births</text></g><g class="annotation" data-index="0" style="opacity: 1;"><g class="annotation-text-g" transform="rotate(0,452,109)"><g class="cursor-pointer" transform="translate(371,100)"><rect class="bg" x="0.5" y="0.5" width="162" height="17" style="stroke-width: 1px; stroke: rgb(0, 0, 0); stroke-opacity: 0; fill: rgb(0, 0, 0); fill-opacity: 0;"></rect><text class="annotation-text" text-anchor="middle" data-unformatted="Births per 1,000 girls, Age 15-19" data-math="N" x="81.5" y="13" style="font-family: Raleway; font-size: 12px; fill: rgb(68, 68, 68); fill-opacity: 1; white-space: pre;">Births per 1,000 girls, Age 15-19</text></g></g></g><g class="annotation" data-index="1" style="opacity: 1;"><g class="annotation-text-g" transform="rotate(0,165.6818181818182,600.4754601226994)"><g class="cursor-pointer" transform="translate(77,591)"><rect class="bg" x="0.5" y="0.5" width="176" height="17" style="stroke-width: 1px; stroke: rgb(0, 0, 0); stroke-opacity: 0; fill: rgb(0, 0, 0); fill-opacity: 0;"></rect><text class="annotation-text" text-anchor="middle" data-unformatted="Source: Centers for Disease Control" data-math="N" x="88.65625" y="13" style="font-family: Raleway; font-size: 12px; fill: rgb(68, 68, 68); fill-opacity: 1; white-space: pre;">Source: Centers for Disease Control</text></g></g></g></g><g class="menulayer"></g><g class="zoomlayer"></g></svg><div class="modebar-container" style="position: absolute; top: 0px; right: 0px; width: 100%;"><div id="modebar-77156c" class="modebar modebar--hover ease-bg"><div class="modebar-group"><a rel="tooltip" class="modebar-btn" data-title="Download plot as a png" data-toggle="false" data-gravity="n"><svg viewBox="0 0 1000 1000" class="icon" height="1em" width="1em"><path d="m500 450c-83 0-150-67-150-150 0-83 67-150 150-150 83 0 150 67 150 150 0 83-67 150-150 150z m400 150h-120c-16 0-34 13-39 29l-31 93c-6 15-23 28-40 28h-340c-16 0-34-13-39-28l-31-94c-6-15-23-28-40-28h-120c-55 0-100-45-100-100v-450c0-55 45-100 100-100h800c55 0 100 45 100 100v450c0 55-45 100-100 100z m-400-550c-138 0-250 112-250 250 0 138 112 250 250 250 138 0 250-112 250-250 0-138-112-250-250-250z m365 380c-19 0-35 16-35 35 0 19 16 35 35 35 19 0 35-16 35-35 0-19-16-35-35-35z" transform="matrix(1 0 0 -1 0 850)"></path></svg></a></div><div class="modebar-group"><a rel="tooltip" class="modebar-btn" data-title="Box Select" data-attr="dragmode" data-val="select" data-toggle="false" data-gravity="n"><svg viewBox="0 0 1000 1000" class="icon" height="1em" width="1em"><path d="m0 850l0-143 143 0 0 143-143 0z m286 0l0-143 143 0 0 143-143 0z m285 0l0-143 143 0 0 143-143 0z m286 0l0-143 143 0 0 143-143 0z m-857-286l0-143 143 0 0 143-143 0z m857 0l0-143 143 0 0 143-143 0z m-857-285l0-143 143 0 0 143-143 0z m857 0l0-143 143 0 0 143-143 0z m-857-286l0-143 143 0 0 143-143 0z m286 0l0-143 143 0 0 143-143 0z m285 0l0-143 143 0 0 143-143 0z m286 0l0-143 143 0 0 143-143 0z" transform="matrix(1 0 0 -1 0 850)"></path></svg></a><a rel="tooltip" class="modebar-btn" data-title="Lasso Select" data-attr="dragmode" data-val="lasso" data-toggle="false" data-gravity="n"><svg viewBox="0 0 1031 1000" class="icon" height="1em" width="1em"><path d="m1018 538c-36 207-290 336-568 286-277-48-473-256-436-463 10-57 36-108 76-151-13-66 11-137 68-183 34-28 75-41 114-42l-55-70 0 0c-2-1-3-2-4-3-10-14-8-34 5-45 14-11 34-8 45 4 1 1 2 3 2 5l0 0 113 140c16 11 31 24 45 40 4 3 6 7 8 11 48-3 100 0 151 9 278 48 473 255 436 462z m-624-379c-80 14-149 48-197 96 42 42 109 47 156 9 33-26 47-66 41-105z m-187-74c-19 16-33 37-39 60 50-32 109-55 174-68-42-25-95-24-135 8z m360 75c-34-7-69-9-102-8 8 62-16 128-68 170-73 59-175 54-244-5-9 20-16 40-20 61-28 159 121 317 333 354s407-60 434-217c28-159-121-318-333-355z" transform="matrix(1 0 0 -1 0 850)"></path></svg></a></div><div class="modebar-group"><a rel="tooltip" class="modebar-btn" data-title="Toggle Spike Lines" data-attr="_cartesianSpikesEnabled" data-val="on" data-toggle="false" data-gravity="n"><svg viewBox="0 0 1000 1000" class="icon" height="1em" width="1em"><path d="M512 409c0-57-46-104-103-104-57 0-104 47-104 104 0 57 47 103 104 103 57 0 103-46 103-103z m-327-39l92 0 0 92-92 0z m-185 0l92 0 0 92-92 0z m370-186l92 0 0 93-92 0z m0-184l92 0 0 92-92 0z" transform="matrix(1.5 0 0 -1.5 0 850)"></path></svg></a><a rel="tooltip" class="modebar-btn active" data-title="Show closest data on hover" data-attr="hovermode" data-val="closest" data-toggle="false" data-gravity="ne"><svg viewBox="0 0 1500 1000" class="icon" height="1em" width="1em"><path d="m375 725l0 0-375-375 375-374 0-1 1125 0 0 750-1125 0z" transform="matrix(1 0 0 -1 0 850)"></path></svg></a><a rel="tooltip" class="modebar-btn" data-title="Compare data on hover" data-attr="hovermode" data-val="x" data-toggle="false" data-gravity="ne"><svg viewBox="0 0 1125 1000" class="icon" height="1em" width="1em"><path d="m187 786l0 2-187-188 188-187 0 0 937 0 0 373-938 0z m0-499l0 1-187-188 188-188 0 0 937 0 0 376-938-1z" transform="matrix(1 0 0 -1 0 850)"></path></svg></a></div></div></div><svg class="main-svg" style="position: absolute" xmlns="http://www.w3.org/2000/svg" xmlns:xlink="http://www.w3.org/1999/xlink" width="904.225352112676" height="642"><g class="hoverlayer"></g></svg>