<svg class="main-svg" style="position: absolute" xmlns="http://www.w3.org/2000/svg" xmlns:xlink="http://www.w3.org/1999/xlink" width="904.225352112676" height="642" style="background: rgb(255, 255, 255);"><defs id="defs-879600"><g class="clips"><clipPath id="clip879600xyplot" class="plotclip"><rect width="682" height="462"></rect></clipPath><clipPath class="axesclip" id="clip879600x"><rect x="80" y="0" width="682" height="642"></rect></clipPath><clipPath class="axesclip" id="clip879600y"><rect x="0" y="100" width="904.225352112676" height="462"></rect></clipPath><clipPath class="axesclip" id="clip879600xy"><rect x="80" y="100" width="682" height="462"></rect></clipPath></g><g class="gradients"></g></defs><g class="bglayer"></g><g class="draglayer cursor-crosshair"><g class="xy"><rect class="nsewdrag drag" data-subplot="xy" x="80" y="100" width="682" height="462" style="fill: transparent; stroke-width: 0; pointer-events: all;"></rect><rect class="nwdrag drag cursor-nw-resize" data-subplot="xy" x="60" y="80" width="20" height="20" style="fill: transparent; stroke-width: 0; pointer-events: all;"></rect><rect class="nedrag drag cursor-ne-resize" data-subplot="xy" x="762" y="80" width="20" height="20" style="fill: transparent; stroke-width: 0; pointer-events: all;"></rect><rect class="swdrag drag cursor-sw-resize" data-subplot="xy" x="60" y="562" width="20" height="20" style="fill: transparent; stroke-width: 0; pointer-events: all;"></rect><rect class="sedrag drag cursor-se-resize" data-subplot="xy" x="762" y="562" width="20" height="20" style="fill: transparent; stroke-width: 0; pointer-events: all;"></rect><rect class="ewdrag drag cursor-ew-resize" data-subplot="xy" x="148.2" y="562.5" width="545.6" height="20" style="fill: transparent; stroke-width: 0; pointer-events: all;"></rect><rect class="wdrag drag cursor-w-resize" data-subplot="xy" x="80" y="562.5" width="68.2" height="20" style="fill: transparent; stroke-width: 0; pointer-events: all;"></rect><rect class="edrag drag cursor-e-resize" data-subplot="xy" x="693.8000000000001" y="562.5" width="68.2" height="20" style="fill: transparent; stroke-width: 0; pointer-events: all;"></rect><rect class="nsdrag drag cursor-ns-resize" data-subplot="xy" x="59.5" y="146.2" width="20" height="369.6" style="fill: transparent; stroke-width: 0; pointer-events: all;"></rect><rect class="sdrag drag cursor-s-resize" data-subplot="xy" x="59.5" y="515.8" width="20" height="46.2" style="fill: transparent; stroke-width: 0; pointer-events: all;"></rect><rect class="ndrag drag cursor-n-resize" data-subplot="xy" x="59.5" y="100" width="20" height="46.2" style="fill: transparent; stroke-width: 0; pointer-events: all;"></rect></g></g><g class="layer-below"><g class="imagelayer"></g><g class="shapelayer"></g></g><g class="cartesianlayer"><g class="subplot xy"><g class="layer-subplot"><g class="shapelayer"></g><g class="imagelayer"></g></g><g class="gridlayer"><g class="x"><path class="xgrid crisp" transform="translate(250.26,0)" d="M0,100v462" style="stroke: rgb(238, 238, 238); stroke-opacity: 1; stroke-width: 1px;"></path><path class="xgrid crisp" transform="translate(389.64,0)" d="M0,100v462" style="stroke: rgb(238, 238, 238); stroke-opacity: 1; stroke-width: 1px;"></path><path class="xgrid crisp" transform="translate(529.02,0)" d="M0,100v462" style="stroke: rgb(238, 238, 238); stroke-opacity: 1; stroke-width: 1px;"></path><path class="xgrid crisp" transform="translate(668.4,0)" d="M0,100v462" style="stroke: rgb(238, 238, 238); stroke-opacity: 1; stroke-width: 1px;"></path></g><g class="y"><path class="ygrid crisp" transform="translate(0,481.78)" d="M80,0h682" style="stroke: rgb(238, 238, 238); stroke-opacity: 1; stroke-width: 1px;"></path><path class="ygrid crisp" transform="translate(0,428.4)" d="M80,0h682" style="stroke: rgb(238, 238, 238); stroke-opacity: 1; stroke-width: 1px;"></path><path class="ygrid crisp" transform="translate(0,375.03)" d="M80,0h682" style="stroke: rgb(238, 238, 238); stroke-opacity: 1; stroke-width: 1px;"></path><path class="ygrid crisp" transform="translate(0,321.65999999999997)" d="M80,0h682" style="stroke: rgb(238, 238, 238); stroke-opacity: 1; stroke-width: 1px;"></path><path class="ygrid crisp" transform="translate(0,268.28999999999996)" d="M80,0h682" style="stroke: rgb(238, 238, 238); stroke-opacity: 1; stroke-width: 1px;"></path><path class="ygrid crisp" transform="translate(0,214.91)" d="M80,0h682" style="stroke: rgb(238, 238, 238); stroke-opacity: 1; stroke-width: 1px;"></path><path class="ygrid crisp" transform="translate(0,161.54)" d="M80,0h682" style="stroke: rgb(238, 238, 238); stroke-opacity: 1; stroke-width: 1px;"></path><path class="ygrid crisp" transform="translate(0,108.17)" d="M80,0h682" style="stroke: rgb(238, 238, 238); stroke-opacity: 1; stroke-width: 1px;"></path></g></g><g class="zerolinelayer"><path class="xzl zl crisp" transform="translate(110.88,0)" d="M0,100v462" style="stroke: rgb(68, 68, 68); stroke-opacity: 1; stroke-width: 1px;"></path><path class="yzl zl crisp" transform="translate(0,535.15)" d="M80,0h682" style="stroke: rgb(68, 68, 68); stroke-opacity: 1; stroke-width: 1px;"></path></g><path class="xlines-below"></path><path class="ylines-below"></path><g class="overlines-below"></g><g class="xaxislayer-below"></g><g class="yaxislayer-below"></g><g class="overaxes-below"></g><g class="plot" transform="translate(80,100)" clip-path="url('#clip879600xyplot')"><g class="scatterlayer mlayer"><g class="trace scatter trace008083" style="stroke-miterlimit: 2; opacity: 1;"><g class="fills"></g><g class="errorbars"></g><g class="lines"><path class="js-line" d="M37.85,433.68Q42.89,436.5 44.82,435.15C49.87,431.62 49.79,406.45 51.79,386.72C54.9,356.04 56.22,304.86 58.76,268.63C60.93,237.7 63.66,215.6 65.73,182.7C68.51,138.45 70.7,26.82 72.69,26.85C75.88,26.89 63.88,410.79 79.66,428.41C81.75,430.74 84.3,429.13 86.63,429.3C88.95,429.47 91.33,428.93 93.6,429.43C95.98,429.96 98.64,433.54 100.57,432.53C104.85,430.29 105.43,409.34 107.54,395.55C110.19,378.25 108.92,342.65 114.51,336.73C116.44,334.68 119.53,337.63 121.48,335.5C128.05,328.33 126.38,255.46 128.45,255.5C131.24,255.55 128.15,398.76 135.42,401.28C137.38,401.96 140.37,392.84 142.38,393.28C145.43,393.94 146.41,410.88 149.35,416.77C151.38,420.84 154.32,426.58 156.32,426.19C159.41,425.59 161.33,410.76 163.29,399.2C166.68,379.25 167.88,343.34 170.26,316.45C172.53,290.85 172.87,255.92 177.23,241.51C179.16,235.15 182.12,233.71 184.2,228.6C186.94,221.88 187.65,205.8 191.17,204.26C193.12,203.41 196.21,204.98 198.14,207.78C203.75,215.89 202.19,272.94 205.11,273.11C207.14,273.23 208.25,243.76 212.07,242.15C214.01,241.33 216.72,244.97 219.04,246.42C221.37,247.88 224.08,248.01 226.01,250.91C230.25,257.28 230.91,275.24 232.98,290.34C235.75,310.48 237.23,340.75 239.95,361.2C242.04,376.95 244.91,402.9 246.92,402.81C249.97,402.67 248.94,306.89 253.89,305.83C255.82,305.42 258.93,312.58 260.86,318.8C264.89,331.77 264.67,366.31 267.83,382.42C269.82,392.55 272.21,399.57 274.79,406.76C276.93,412.73 279.56,422.87 281.76,422.77C284.24,422.66 286.78,411.14 288.73,401.78C292.39,384.18 293.39,350.08 295.7,323.92C298.04,297.34 299.66,264.88 302.67,243.54C304.69,229.24 307.57,221.7 309.64,208C312.43,189.52 312.88,156.85 316.61,142.45C318.55,134.96 321.59,125.77 323.58,126.02C326.75,126.41 327.22,170.23 330.55,170.74C332.52,171.04 335.53,156.27 337.52,156.55C340.7,157 342.21,182.84 344.48,196.47C346.86,210.74 349.3,224.37 351.45,240.34C354.02,259.41 356.14,281.88 358.42,303.31C360.79,325.64 361.68,356.55 365.39,371.72C367.33,379.67 369.6,388.8 372.36,389.27C374.43,389.62 377.39,385.36 379.33,381.23C383.23,372.92 383.36,338.93 386.3,338.66C388.33,338.47 391.2,350.47 393.27,358C396.04,368.04 397.65,383.16 400.24,393.87C402.38,402.74 404.59,417.72 407.21,417.92C409.34,418.08 412.24,410.08 414.17,402.96C418.28,387.76 417.49,345.08 421.14,328.19C423.09,319.18 423.24,317.23 428.11,308.02C442.06,281.66 516.39,210.84 532.65,167.86C543.96,137.98 536.77,106.98 539.62,83.64C541.67,66.9 543.89,40.87 546.58,40.73C548.68,40.62 550.95,58.82 553.55,66.35C555.69,72.54 558.57,75.43 560.52,82.89C564.15,96.78 565.25,123.35 567.49,144.8C569.91,167.97 572.16,192.81 574.46,217.17C576.81,241.99 579.31,264.48 581.43,292.37C584.08,327.22 584.92,409.91 588.4,410.14C590.36,410.27 591.05,378.63 595.37,373.56C597.3,371.3 600.13,370.63 602.34,371.03C604.8,371.48 606.83,375.71 609.31,377.02C611.51,378.18 614.05,379.32 616.27,378.9C618.71,378.44 621.31,373 623.24,373.77C627.41,375.44 626.7,412.85 630.21,413.59C632.17,414 635.26,408.53 637.18,403.13Q641.79,390.18 644.15,331.29" style="vector-effect: non-scaling-stroke; fill: none; stroke: rgb(31, 119, 180); stroke-opacity: 1; stroke-width: 2px; opacity: 1;"></path></g><g class="points"><path class="point" transform="translate(37.85,433.68)" d="M3,0A3,3 0 1,1 0,-3A3,3 0 0,1 3,0Z" style="opacity: 1; stroke-width: 0px; fill: rgb(31, 119, 180); fill-opacity: 1;"></path><path class="point" transform="translate(44.82,435.15)" d="M3,0A3,3 0 1,1 0,-3A3,3 0 0,1 3,0Z" style="opacity: 1; stroke-width: 0px; fill: rgb(31, 119, 180); fill-opacity: 1;"></path><path class="point" transform="translate(51.79,386.72)" d="M3,0A3,3 0 1,1 0,-3A3,3 0 0,1 3,0Z" style="opacity: 1; stroke-width: 0px; fill: rgb(31, 119, 180); fill-opacity: 1;"></path><path class="point" transform="translate(58.76,268.63)" d="M3,0A3,3 0 1,1 0,-3A3,3 0 0,1 3,0Z" style="opacity: 1; stroke-width: 0px; fill: rgb(31, 119, 180); fill-opacity: 1;"></path><path class="point" transform="translate(65.73,182.7)" d="M3,0A3,3 0 1,1 0,-3A3,3 0 0,1 3,0Z" style="opacity: 1; stroke-width: 0px; fill: rgb(31, 119, 180); fill-opacity: 1;"></path><path class="point" transform="translate(72.69,26.85)" d="M3,0A3,3 0 1,1 0,-3A3,3 0 0,1 3,0Z" style="opacity: 1; stroke-width: 0px; fill: rgb(31, 119, 180); fill-opacity: 1;"></path><path class="point" transform="translate(79.66,428.41)" d="M3,0A3,3 0 1,1 0,-3A3,3 0 0,1 3,0Z" style="opacity: 1; stroke-width: 0px; fill: rgb(31, 119, 180); fill-opacity: 1;"></path><path class="point" transform="translate(86.63,429.3)" d="M3,0A3,3 0 1,1 0,-3A3,3 0 0,1 3,0Z" style="opacity: 1; stroke-width: 0px; fill: rgb(31, 119, 180); fill-opacity: 1;"></path><path class="point" transform="translate(93.6,429.43)" d="M3,0A3,3 0 1,1 0,-3A3,3 0 0,1 3,0Z" style="opacity: 1; stroke-width: 0px; fill: rgb(31, 119, 180); fill-opacity: 1;"></path><path class="point" transform="translate(100.57,432.53)" d="M3,0A3,3 0 1,1 0,-3A3,3 0 0,1 3,0Z" style="opacity: 1; stroke-width: 0px; fill: rgb(31, 119, 180); fill-opacity: 1;"></path><path class="point" transform="translate(107.54,395.55)" d="M3,0A3,3 0 1,1 0,-3A3,3 0 0,1 3,0Z" style="opacity: 1; stroke-width: 0px; fill: rgb(31, 119, 180); fill-opacity: 1;"></path><path class="point" transform="translate(114.51,336.73)" d="M3,0A3,3 0 1,1 0,-3A3,3 0 0,1 3,0Z" style="opacity: 1; stroke-width: 0px; fill: rgb(31, 119, 180); fill-opacity: 1;"></path><path class="point" transform="translate(121.48,335.5)" d="M3,0A3,3 0 1,1 0,-3A3,3 0 0,1 3,0Z" style="opacity: 1; stroke-width: 0px; fill: rgb(31, 119, 180); fill-opacity: 1;"></path><path class="point" transform="translate(128.45,255.5)" d="M3,0A3,3 0 1,1 0,-3A3,3 0 0,1 3,0Z" style="opacity: 1; stroke-width: 0px; fill: rgb(31, 119, 180); fill-opacity: 1;"></path><path class="point" transform="translate(135.42,401.28)" d="M3,0A3,3 0 1,1 0,-3A3,3 0 0,1 3,0Z" style="opacity: 1; stroke-width: 0px; fill: rgb(31, 119, 180); fill-opacity: 1;"></path><path class="point" transform="translate(142.38,393.28)" d="M3,0A3,3 0 1,1 0,-3A3,3 0 0,1 3,0Z" style="opacity: 1; stroke-width: 0px; fill: rgb(31, 119, 180); fill-opacity: 1;"></path><path class="point" transform="translate(149.35,416.77)" d="M3,0A3,3 0 1,1 0,-3A3,3 0 0,1 3,0Z" style="opacity: 1; stroke-width: 0px; fill: rgb(31, 119, 180); fill-opacity: 1;"></path><path class="point" transform="translate(156.32,426.19)" d="M3,0A3,3 0 1,1 0,-3A3,3 0 0,1 3,0Z" style="opacity: 1; stroke-width: 0px; fill: rgb(31, 119, 180); fill-opacity: 1;"></path><path class="point" transform="translate(163.29,399.2)" d="M3,0A3,3 0 1,1 0,-3A3,3 0 0,1 3,0Z" style="opacity: 1; stroke-width: 0px; fill: rgb(31, 119, 180); fill-opacity: 1;"></path><path class="point" transform="translate(170.26,316.45)" d="M3,0A3,3 0 1,1 0,-3A3,3 0 0,1 3,0Z" style="opacity: 1; stroke-width: 0px; fill: rgb(31, 119, 180); fill-opacity: 1;"></path><path class="point" transform="translate(177.23,241.51)" d="M3,0A3,3 0 1,1 0,-3A3,3 0 0,1 3,0Z" style="opacity: 1; stroke-width: 0px; fill: rgb(31, 119, 180); fill-opacity: 1;"></path><path class="point" transform="translate(184.2,228.6)" d="M3,0A3,3 0 1,1 0,-3A3,3 0 0,1 3,0Z" style="opacity: 1; stroke-width: 0px; fill: rgb(31, 119, 180); fill-opacity: 1;"></path><path class="point" transform="translate(191.17,204.26)" d="M3,0A3,3 0 1,1 0,-3A3,3 0 0,1 3,0Z" style="opacity: 1; stroke-width: 0px; fill: rgb(31, 119, 180); fill-opacity: 1;"></path><path class="point" transform="translate(198.14,207.78)" d="M3,0A3,3 0 1,1 0,-3A3,3 0 0,1 3,0Z" style="opacity: 1; stroke-width: 0px; fill: rgb(31, 119, 180); fill-opacity: 1;"></path><path class="point" transform="translate(205.11,273.11)" d="M3,0A3,3 0 1,1 0,-3A3,3 0 0,1 3,0Z" style="opacity: 1; stroke-width: 0px; fill: rgb(31, 119, 180); fill-opacity: 1;"></path><path class="point" transform="translate(212.07,242.15)" d="M3,0A3,3 0 1,1 0,-3A3,3 0 0,1 3,0Z" style="opacity: 1; stroke-width: 0px; fill: rgb(31, 119, 180); fill-opacity: 1;"></path><path class="point" transform="translate(219.04,246.42)" d="M3,0A3,3 0 1,1 0,-3A3,3 0 0,1 3,0Z" style="opacity: 1; stroke-width: 0px; fill: rgb(31, 119, 180); fill-opacity: 1;"></path><path class="point" transform="translate(226.01,250.91)" d="M3,0A3,3 0 1,1 0,-3A3,3 0 0,1 3,0Z" style="opacity: 1; stroke-width: 0px; fill: rgb(31, 119, 180); fill-opacity: 1;"></path><path class="point" transform="translate(232.98,290.34)" d="M3,0A3,3 0 1,1 0,-3A3,3 0 0,1 3,0Z" style="opacity: 1; stroke-width: 0px; fill: rgb(31, 119, 180); fill-opacity: 1;"></path><path class="point" transform="translate(239.95,361.2)" d="M3,0A3,3 0 1,1 0,-3A3,3 0 0,1 3,0Z" style="opacity: 1; stroke-width: 0px; fill: rgb(31, 119, 180); fill-opacity: 1;"></path><path class="point" transform="translate(246.92,402.81)" d="M3,0A3,3 0 1,1 0,-3A3,3 0 0,1 3,0Z" style="opacity: 1; stroke-width: 0px; fill: rgb(31, 119, 180); fill-opacity: 1;"></path><path class="point" transform="translate(253.89,305.83)" d="M3,0A3,3 0 1,1 0,-3A3,3 0 0,1 3,0Z" style="opacity: 1; stroke-width: 0px; fill: rgb(31, 119, 180); fill-opacity: 1;"></path><path class="point" transform="translate(260.86,318.8)" d="M3,0A3,3 0 1,1 0,-3A3,3 0 0,1 3,0Z" style="opacity: 1; stroke-width: 0px; fill: rgb(31, 119, 180); fill-opacity: 1;"></path><path class="point" transform="translate(267.83,382.42)" d="M3,0A3,3 0 1,1 0,-3A3,3 0 0,1 3,0Z" style="opacity: 1; stroke-width: 0px; fill: rgb(31, 119, 180); fill-opacity: 1;"></path><path class="point" transform="translate(274.79,406.76)" d="M3,0A3,3 0 1,1 0,-3A3,3 0 0,1 3,0Z" style="opacity: 1; stroke-width: 0px; fill: rgb(31, 119, 180); fill-opacity: 1;"></path><path class="point" transform="translate(281.76,422.77)" d="M3,0A3,3 0 1,1 0,-3A3,3 0 0,1 3,0Z" style="opacity: 1; stroke-width: 0px; fill: rgb(31, 119, 180); fill-opacity: 1;"></path><path class="point" transform="translate(288.73,401.78)" d="M3,0A3,3 0 1,1 0,-3A3,3 0 0,1 3,0Z" style="opacity: 1; stroke-width: 0px; fill: rgb(31, 119, 180); fill-opacity: 1;"></path><path class="point" transform="translate(295.7,323.92)" d="M3,0A3,3 0 1,1 0,-3A3,3 0 0,1 3,0Z" style="opacity: 1; stroke-width: 0px; fill: rgb(31, 119, 180); fill-opacity: 1;"></path><path class="point" transform="translate(302.67,243.54)" d="M3,0A3,3 0 1,1 0,-3A3,3 0 0,1 3,0Z" style="opacity: 1; stroke-width: 0px; fill: rgb(31, 119, 180); fill-opacity: 1;"></path><path class="point" transform="translate(309.64,208)" d="M3,0A3,3 0 1,1 0,-3A3,3 0 0,1 3,0Z" style="opacity: 1; stroke-width: 0px; fill: rgb(31, 119, 180); fill-opacity: 1;"></path><path class="point" transform="translate(316.61,142.45)" d="M3,0A3,3 0 1,1 0,-3A3,3 0 0,1 3,0Z" style="opacity: 1; stroke-width: 0px; fill: rgb(31, 119, 180); fill-opacity: 1;"></path><path class="point" transform="translate(323.58,126.02)" d="M3,0A3,3 0 1,1 0,-3A3,3 0 0,1 3,0Z" style="opacity: 1; stroke-width: 0px; fill: rgb(31, 119, 180); fill-opacity: 1;"></path><path class="point" transform="translate(330.55,170.74)" d="M3,0A3,3 0 1,1 0,-3A3,3 0 0,1 3,0Z" style="opacity: 1; stroke-width: 0px; fill: rgb(31, 119, 180); fill-opacity: 1;"></path><path class="point" transform="translate(337.52,156.55)" d="M3,0A3,3 0 1,1 0,-3A3,3 0 0,1 3,0Z" style="opacity: 1; stroke-width: 0px; fill: rgb(31, 119, 180); fill-opacity: 1;"></path><path class="point" transform="translate(344.48,196.47)" d="M3,0A3,3 0 1,1 0,-3A3,3 0 0,1 3,0Z" style="opacity: 1; stroke-width: 0px; fill: rgb(31, 119, 180); fill-opacity: 1;"></path><path class="point" transform="translate(351.45,240.34)" d="M3,0A3,3 0 1,1 0,-3A3,3 0 0,1 3,0Z" style="opacity: 1; stroke-width: 0px; fill: rgb(31, 119, 180); fill-opacity: 1;"></path><path class="point" transform="translate(358.42,303.31)" d="M3,0A3,3 0 1,1 0,-3A3,3 0 0,1 3,0Z" style="opacity: 1; stroke-width: 0px; fill: rgb(31, 119, 180); fill-opacity: 1;"></path><path class="point" transform="translate(365.39,371.72)" d="M3,0A3,3 0 1,1 0,-3A3,3 0 0,1 3,0Z" style="opacity: 1; stroke-width: 0px; fill: rgb(31, 119, 180); fill-opacity: 1;"></path><path class="point" transform="translate(372.36,389.27)" d="M3,0A3,3 0 1,1 0,-3A3,3 0 0,1 3,0Z" style="opacity: 1; stroke-width: 0px; fill: rgb(31, 119, 180); fill-opacity: 1;"></path><path class="point" transform="translate(379.33,381.23)" d="M3,0A3,3 0 1,1 0,-3A3,3 0 0,1 3,0Z" style="opacity: 1; stroke-width: 0px; fill: rgb(31, 119, 180); fill-opacity: 1;"></path><path class="point" transform="translate(386.3,338.66)" d="M3,0A3,3 0 1,1 0,-3A3,3 0 0,1 3,0Z" style="opacity: 1; stroke-width: 0px; fill: rgb(31, 119, 180); fill-opacity: 1;"></path><path class="point" transform="translate(393.27,358)" d="M3,0A3,3 0 1,1 0,-3A3,3 0 0,1 3,0Z" style="opacity: 1; stroke-width: 0px; fill: rgb(31, 119, 180); fill-opacity: 1;"></path><path class="point" transform="translate(400.24,393.87)" d="M3,0A3,3 0 1,1 0,-3A3,3 0 0,1 3,0Z" style="opacity: 1; stroke-width: 0px; fill: rgb(31, 119, 180); fill-opacity: 1;"></path><path class="point" transform="translate(407.21,417.92)" d="M3,0A3,3 0 1,1 0,-3A3,3 0 0,1 3,0Z" style="opacity: 1; stroke-width: 0px; fill: rgb(31, 119, 180); fill-opacity: 1;"></path><path class="point" transform="translate(414.17,402.96)" d="M3,0A3,3 0 1,1 0,-3A3,3 0 0,1 3,0Z" style="opacity: 1; stroke-width: 0px; fill: rgb(31, 119, 180); fill-opacity: 1;"></path><path class="point" transform="translate(421.14,328.19)" d="M3,0A3,3 0 1,1 0,-3A3,3 0 0,1 3,0Z" style="opacity: 1; stroke-width: 0px; fill: rgb(31, 119, 180); fill-opacity: 1;"></path><path class="point" transform="translate(428.11,308.02)" d="M3,0A3,3 0 1,1 0,-3A3,3 0 0,1 3,0Z" style="opacity: 1; stroke-width: 0px; fill: rgb(31, 119, 180); fill-opacity: 1;"></path><path class="point" transform="translate(532.65,167.86)" d="M3,0A3,3 0 1,1 0,-3A3,3 0 0,1 3,0Z" style="opacity: 1; stroke-width: 0px; fill: rgb(31, 119, 180); fill-opacity: 1;"></path><path class="point" transform="translate(539.62,83.64)" d="M3,0A3,3 0 1,1 0,-3A3,3 0 0,1 3,0Z" style="opacity: 1; stroke-width: 0px; fill: rgb(31, 119, 180); fill-opacity: 1;"></path><path class="point" transform="translate(546.58,40.73)" d="M3,0A3,3 0 1,1 0,-3A3,3 0 0,1 3,0Z" style="opacity: 1; stroke-width: 0px; fill: rgb(31, 119, 180); fill-opacity: 1;"></path><path class="point" transform="translate(553.55,66.35)" d="M3,0A3,3 0 1,1 0,-3A3,3 0 0,1 3,0Z" style="opacity: 1; stroke-width: 0px; fill: rgb(31, 119, 180); fill-opacity: 1;"></path><path class="point" transform="translate(560.52,82.89)" d="M3,0A3,3 0 1,1 0,-3A3,3 0 0,1 3,0Z" style="opacity: 1; stroke-width: 0px; fill: rgb(31, 119, 180); fill-opacity: 1;"></path><path class="point" transform="translate(567.49,144.8)" d="M3,0A3,3 0 1,1 0,-3A3,3 0 0,1 3,0Z" style="opacity: 1; stroke-width: 0px; fill: rgb(31, 119, 180); fill-opacity: 1;"></path><path class="point" transform="translate(574.46,217.17)" d="M3,0A3,3 0 1,1 0,-3A3,3 0 0,1 3,0Z" style="opacity: 1; stroke-width: 0px; fill: rgb(31, 119, 180); fill-opacity: 1;"></path><path class="point" transform="translate(581.43,292.37)" d="M3,0A3,3 0 1,1 0,-3A3,3 0 0,1 3,0Z" style="opacity: 1; stroke-width: 0px; fill: rgb(31, 119, 180); fill-opacity: 1;"></path><path class="point" transform="translate(588.4,410.14)" d="M3,0A3,3 0 1,1 0,-3A3,3 0 0,1 3,0Z" style="opacity: 1; stroke-width: 0px; fill: rgb(31, 119, 180); fill-opacity: 1;"></path><path class="point" transform="translate(595.37,373.56)" d="M3,0A3,3 0 1,1 0,-3A3,3 0 0,1 3,0Z" style="opacity: 1; stroke-width: 0px; fill: rgb(31, 119, 180); fill-opacity: 1;"></path><path class="point" transform="translate(602.34,371.03)" d="M3,0A3,3 0 1,1 0,-3A3,3 0 0,1 3,0Z" style="opacity: 1; stroke-width: 0px; fill: rgb(31, 119, 180); fill-opacity: 1;"></path><path class="point" transform="translate(609.31,377.02)" d="M3,0A3,3 0 1,1 0,-3A3,3 0 0,1 3,0Z" style="opacity: 1; stroke-width: 0px; fill: rgb(31, 119, 180); fill-opacity: 1;"></path><path class="point" transform="translate(616.27,378.9)" d="M3,0A3,3 0 1,1 0,-3A3,3 0 0,1 3,0Z" style="opacity: 1; stroke-width: 0px; fill: rgb(31, 119, 180); fill-opacity: 1;"></path><path class="point" transform="translate(623.24,373.77)" d="M3,0A3,3 0 1,1 0,-3A3,3 0 0,1 3,0Z" style="opacity: 1; stroke-width: 0px; fill: rgb(31, 119, 180); fill-opacity: 1;"></path><path class="point" transform="translate(630.21,413.59)" d="M3,0A3,3 0 1,1 0,-3A3,3 0 0,1 3,0Z" style="opacity: 1; stroke-width: 0px; fill: rgb(31, 119, 180); fill-opacity: 1;"></path><path class="point" transform="translate(637.18,403.13)" d="M3,0A3,3 0 1,1 0,-3A3,3 0 0,1 3,0Z" style="opacity: 1; stroke-width: 0px; fill: rgb(31, 119, 180); fill-opacity: 1;"></path><path class="point" transform="translate(644.15,331.29)" d="M3,0A3,3 0 1,1 0,-3A3,3 0 0,1 3,0Z" style="opacity: 1; stroke-width: 0px; fill: rgb(31, 119, 180); fill-opacity: 1;"></path></g><g class="text"></g></g></g></g><g class="overplot"></g><path class="xlines-above crisp" d="M0,0" style="fill: none;"></path><path class="ylines-above crisp" style="fill: none;" d="M0,0"></path><g class="overlines-above"></g><g class="xaxislayer-above"><g class="xtick"><text text-anchor="middle" x="0" y="575" data-unformatted="0" data-math="N" transform="translate(110.88,0)" style="font-family: &quot;Open Sans&quot;, verdana, arial, sans-serif; font-size: 12px; fill: rgb(68, 68, 68); fill-opacity: 1; white-space: pre;">0</text></g><g class="xtick"><text text-anchor="middle" x="0" y="575" data-unformatted="20" data-math="N" transform="translate(250.26,0)" style="font-family: &quot;Open Sans&quot;, verdana, arial, sans-serif; font-size: 12px; fill: rgb(68, 68, 68); fill-opacity: 1; white-space: pre;">20</text></g><g class="xtick"><text text-anchor="middle" x="0" y="575" data-unformatted="40" data-math="N" transform="translate(389.64,0)" style="font-family: &quot;Open Sans&quot;, verdana, arial, sans-serif; font-size: 12px; fill: rgb(68, 68, 68); fill-opacity: 1; white-space: pre;">40</text></g><g class="xtick"><text text-anchor="middle" x="0" y="575" data-unformatted="60" data-math="N" transform="translate(529.02,0)" style="font-family: &quot;Open Sans&quot;, verdana, arial, sans-serif; font-size: 12px; fill: rgb(68, 68, 68); fill-opacity: 1; white-space: pre;">60</text></g><g class="xtick"><text text-anchor="middle" x="0" y="575" data-unformatted="80" data-math="N" transform="translate(668.4,0)" style="font-family: &quot;Open Sans&quot;, verdana, arial, sans-serif; font-size: 12px; fill: rgb(68, 68, 68); fill-opacity: 1; white-space: pre;">80</text></g></g><g class="yaxislayer-above"><g class="ytick"><text text-anchor="end" x="79" y="4.199999999999999" data-unformatted="0" data-math="N" transform="translate(0,535.15)" style="font-family: &quot;Open Sans&quot;, verdana, arial, sans-serif; font-size: 12px; fill: rgb(68, 68, 68); fill-opacity: 1; white-space: pre;">0</text></g><g class="ytick"><text text-anchor="end" x="79" y="4.199999999999999" data-unformatted="500" data-math="N" transform="translate(0,481.78)" style="font-family: &quot;Open Sans&quot;, verdana, arial, sans-serif; font-size: 12px; fill: rgb(68, 68, 68); fill-opacity: 1; white-space: pre;">500</text></g><g class="ytick"><text text-anchor="end" x="79" y="4.199999999999999" data-unformatted="1000" data-math="N" transform="translate(0,428.4)" style="font-family: &quot;Open Sans&quot;, verdana, arial, sans-serif; font-size: 12px; fill: rgb(68, 68, 68); fill-opacity: 1; white-space: pre;">1000</text></g><g class="ytick"><text text-anchor="end" x="79" y="4.199999999999999" data-unformatted="1500" data-math="N" transform="translate(0,375.03)" style="font-family: &quot;Open Sans&quot;, verdana, arial, sans-serif; font-size: 12px; fill: rgb(68, 68, 68); fill-opacity: 1; white-space: pre;">1500</text></g><g class="ytick"><text text-anchor="end" x="79" y="4.199999999999999" data-unformatted="2000" data-math="N" transform="translate(0,321.65999999999997)" style="font-family: &quot;Open Sans&quot;, verdana, arial, sans-serif; font-size: 12px; fill: rgb(68, 68, 68); fill-opacity: 1; white-space: pre;">2000</text></g><g class="ytick"><text text-anchor="end" x="79" y="4.199999999999999" data-unformatted="2500" data-math="N" transform="translate(0,268.28999999999996)" style="font-family: &quot;Open Sans&quot;, verdana, arial, sans-serif; font-size: 12px; fill: rgb(68, 68, 68); fill-opacity: 1; white-space: pre;">2500</text></g><g class="ytick"><text text-anchor="end" x="79" y="4.199999999999999" data-unformatted="3000" data-math="N" transform="translate(0,214.91)" style="font-family: &quot;Open Sans&quot;, verdana, arial, sans-serif; font-size: 12px; fill: rgb(68, 68, 68); fill-opacity: 1; white-space: pre;">3000</text></g><g class="ytick"><text text-anchor="end" x="79" y="4.199999999999999" data-unformatted="3500" data-math="N" transform="translate(0,161.54)" style="font-family: &quot;Open Sans&quot;, verdana, arial, sans-serif; font-size: 12px; fill: rgb(68, 68, 68); fill-opacity: 1; white-space: pre;">3500</text></g><g class="ytick"><text text-anchor="end" x="79" y="4.199999999999999" data-unformatted="4000" data-math="N" transform="translate(0,108.17)" style="font-family: &quot;Open Sans&quot;, verdana, arial, sans-serif; font-size: 12px; fill: rgb(68, 68, 68); fill-opacity: 1; white-space: pre;">4000</text></g></g><g class="overaxes-above"></g></g></g><g class="polarlayer"></g><g class="ternarylayer"></g><g class="geolayer"></g><g class="funnelarealayer"></g><g class="pielayer"></g><g class="treemaplayer"></g><g class="sunburstlayer"></g><g class="glimages"></g></svg><div class="gl-container"></div><svg class="main-svg" style="position: absolute" xmlns="http://www.w3.org/2000/svg" xmlns:xlink="http://www.w3.org/1999/xlink" width="904.225352112676" height="642"><defs id="topdefs-879600"><g class="clips"></g><clipPath id="legend879600"><rect width="116" height="29" x="0" y="0"></rect></clipPath></defs><g class="indicatorlayer"></g><g class="layer-above"><g class="imagelayer"></g><g class="shapelayer"></g></g><g class="infolayer"><g class="legend" pointer-events="all" transform="translate(775.64,100)"><rect class="bg" shape-rendering="crispEdges" style="stroke: rgb(68, 68, 68); stroke-opacity: 1; fill: rgb(255, 255, 255); fill-opacity: 1; stroke-width: 0px;" width="116" height="29" x="0" y="0"></rect><g class="scrollbox" transform="" clip-path="url('#legend879600')"><g class="groups"><g class="traces" transform="translate(0,14.5)" style="opacity: 1;"><text class="legendtext" text-anchor="start" x="40" y="4.680000000000001" data-unformatted="Boiling Point" data-math="N" style="font-family: &quot;Open Sans&quot;, verdana, arial, sans-serif; font-size: 12px; fill: rgb(68, 68, 68); fill-opacity: 1; white-space: pre;">Boiling Point</text><g class="layers" style="opacity: 1;"><g class="legendfill"></g><g class="legendlines"><path class="js-line" d="M5,0h30" style="fill: none; stroke: rgb(31, 119, 180); stroke-opacity: 1; stroke-width: 2px;"></path></g><g class="legendsymbols"><g class="legendpoints"><path class="scatterpts" transform="translate(20,0)" d="M3,0A3,3 0 1,1 0,-3A3,3 0 0,1 3,0Z" style="opacity: 1; stroke-width: 0px; fill: rgb(31, 119, 180); fill-opacity: 1;"></path></g></g></g><rect class="legendtoggle" pointer-events="all" x="0" y="-9.5" width="110.296875" height="19" style="cursor: pointer; fill: rgb(0, 0, 0); fill-opacity: 0;"></rect></g></g></g><rect class="scrollbar" rx="20" ry="3" width="0" height="0" style="fill: rgb(128, 139, 164); fill-opacity: 1;" x="0" y="0"></rect></g><g class="g-gtitle"><text class="gtitle" x="452.112676056338" y="50" text-anchor="middle" dy="0em" data-unformatted="Boiling Point Vs Atomic Number" data-math="N" style="font-family: &quot;Open Sans&quot;, verdana, arial, sans-serif; font-size: 17px; fill: rgb(68, 68, 68); opacity: 1; font-weight: normal; white-space: pre;">Boiling Point Vs Atomic Number</text></g><g class="g-xtitle"><text class="xtitle" x="421" y="614" text-anchor="middle" data-unformatted="Atomic number" data-math="N" style="font-family: &quot;Open Sans&quot;, verdana, arial, sans-serif; font-size: 14px; fill: rgb(68, 68, 68); opacity: 1; font-weight: normal; white-space: pre;">Atomic number</text></g><g class="g-ytitle"><text class="ytitle" transform="rotate(-90,42,331)" x="42" y="331" text-anchor="middle" data-unformatted="Boiling Point" data-math="N" style="font-family: &quot;Open Sans&quot;, verdana, arial, sans-serif; font-size: 14px; fill: rgb(68, 68, 68); opacity: 1; font-weight: normal; white-space: pre;">Boiling Point</text></g></g><g class="menulayer"></g><g class="zoomlayer"></g></svg><div class="modebar-container" style="position: absolute; top: 0px; right: 0px; width: 100%;"><div id="modebar-879600" class="modebar modebar--hover ease-bg"><div class="modebar-group"><a rel="tooltip" class="modebar-btn" data-title="Download plot as a png" data-toggle="false" data-gravity="n"><svg viewBox="0 0 1000 1000" class="icon" height="1em" width="1em"><path d="m500 450c-83 0-150-67-150-150 0-83 67-150 150-150 83 0 150 67 150 150 0 83-67 150-150 150z m400 150h-120c-16 0-34 13-39 29l-31 93c-6 15-23 28-40 28h-340c-16 0-34-13-39-28l-31-94c-6-15-23-28-40-28h-120c-55 0-100-45-100-100v-450c0-55 45-100 100-100h800c55 0 100 45 100 100v450c0 55-45 100-100 100z m-400-550c-138 0-250 112-250 250 0 138 112 250 250 250 138 0 250-112 250-250 0-138-112-250-250-250z m365 380c-19 0-35 16-35 35 0 19 16 35 35 35 19 0 35-16 35-35 0-19-16-35-35-35z" transform="matrix(1 0 0 -1 0 850)"></path></svg></a></div><div class="modebar-group"><a rel="tooltip" class="modebar-btn active" data-title="Zoom" data-attr="dragmode" data-val="zoom" data-toggle="false" data-gravity="n"><svg viewBox="0 0 1000 1000" class="icon" height="1em" width="1em"><path d="m1000-25l-250 251c40 63 63 138 63 218 0 224-182 406-407 406-224 0-406-182-406-406s183-406 407-406c80 0 155 22 218 62l250-250 125 125z m-812 250l0 438 437 0 0-438-437 0z m62 375l313 0 0-312-313 0 0 312z" transform="matrix(1 0 0 -1 0 850)"></path></svg></a><a rel="tooltip" class="modebar-btn" data-title="Pan" data-attr="dragmode" data-val="pan" data-toggle="false" data-gravity="n"><svg viewBox="0 0 1000 1000" class="icon" height="1em" width="1em"><path d="m1000 350l-187 188 0-125-250 0 0 250 125 0-188 187-187-187 125 0 0-250-250 0 0 125-188-188 186-187 0 125 252 0 0-250-125 0 187-188 188 188-125 0 0 250 250 0 0-126 187 188z" transform="matrix(1 0 0 -1 0 850)"></path></svg></a><a rel="tooltip" class="modebar-btn" data-title="Box Select" data-attr="dragmode" data-val="select" data-toggle="false" data-gravity="n"><svg viewBox="0 0 1000 1000" class="icon" height="1em" width="1em"><path d="m0 850l0-143 143 0 0 143-143 0z m286 0l0-143 143 0 0 143-143 0z m285 0l0-143 143 0 0 143-143 0z m286 0l0-143 143 0 0 143-143 0z m-857-286l0-143 143 0 0 143-143 0z m857 0l0-143 143 0 0 143-143 0z m-857-285l0-143 143 0 0 143-143 0z m857 0l0-143 143 0 0 143-143 0z m-857-286l0-143 143 0 0 143-143 0z m286 0l0-143 143 0 0 143-143 0z m285 0l0-143 143 0 0 143-143 0z m286 0l0-143 143 0 0 143-143 0z" transform="matrix(1 0 0 -1 0 850)"></path></svg></a><a rel="tooltip" class="modebar-btn" data-title="Lasso Select" data-attr="dragmode" data-val="lasso" data-toggle="false" data-gravity="n"><svg viewBox="0 0 1031 1000" class="icon" height="1em" width="1em"><path d="m1018 538c-36 207-290 336-568 286-277-48-473-256-436-463 10-57 36-108 76-151-13-66 11-137 68-183 34-28 75-41 114-42l-55-70 0 0c-2-1-3-2-4-3-10-14-8-34 5-45 14-11 34-8 45 4 1 1 2 3 2 5l0 0 113 140c16 11 31 24 45 40 4 3 6 7 8 11 48-3 100 0 151 9 278 48 473 255 436 462z m-624-379c-80 14-149 48-197 96 42 42 109 47 156 9 33-26 47-66 41-105z m-187-74c-19 16-33 37-39 60 50-32 109-55 174-68-42-25-95-24-135 8z m360 75c-34-7-69-9-102-8 8 62-16 128-68 170-73 59-175 54-244-5-9 20-16 40-20 61-28 159 121 317 333 354s407-60 434-217c28-159-121-318-333-355z" transform="matrix(1 0 0 -1 0 850)"></path></svg></a></div><div class="modebar-group"><a rel="tooltip" class="modebar-btn" data-title="Zoom in" data-attr="zoom" data-val="in" data-toggle="false" data-gravity="n"><svg viewBox="0 0 875 1000" class="icon" height="1em" width="1em"><path d="m1 787l0-875 875 0 0 875-875 0z m687-500l-187 0 0-187-125 0 0 187-188 0 0 125 188 0 0 187 125 0 0-187 187 0 0-125z" transform="matrix(1 0 0 -1 0 850)"></path></svg></a><a rel="tooltip" class="modebar-btn" data-title="Zoom out" data-attr="zoom" data-val="out" data-toggle="false" data-gravity="n"><svg viewBox="0 0 875 1000" class="icon" height="1em" width="1em"><path d="m0 788l0-876 875 0 0 876-875 0z m688-500l-500 0 0 125 500 0 0-125z" transform="matrix(1 0 0 -1 0 850)"></path></svg></a><a rel="tooltip" class="modebar-btn" data-title="Autoscale" data-attr="zoom" data-val="auto" data-toggle="false" data-gravity="n"><svg viewBox="0 0 1000 1000" class="icon" height="1em" width="1em"><path d="m250 850l-187 0-63 0 0-62 0-188 63 0 0 188 187 0 0 62z m688 0l-188 0 0-62 188 0 0-188 62 0 0 188 0 62-62 0z m-875-938l0 188-63 0 0-188 0-62 63 0 187 0 0 62-187 0z m875 188l0-188-188 0 0-62 188 0 62 0 0 62 0 188-62 0z m-125 188l-1 0-93-94-156 156 156 156 92-93 2 0 0 250-250 0 0-2 93-92-156-156-156 156 94 92 0 2-250 0 0-250 0 0 93 93 157-156-157-156-93 94 0 0 0-250 250 0 0 0-94 93 156 157 156-157-93-93 0 0 250 0 0 250z" transform="matrix(1 0 0 -1 0 850)"></path></svg></a><a rel="tooltip" class="modebar-btn" data-title="Reset axes" data-attr="zoom" data-val="reset" data-toggle="false" data-gravity="n"><svg viewBox="0 0 928.6 1000" class="icon" height="1em" width="1em"><path d="m786 296v-267q0-15-11-26t-25-10h-214v214h-143v-214h-214q-15 0-25 10t-11 26v267q0 1 0 2t0 2l321 264 321-264q1-1 1-4z m124 39l-34-41q-5-5-12-6h-2q-7 0-12 3l-386 322-386-322q-7-4-13-4-7 2-12 7l-35 41q-4 5-3 13t6 12l401 334q18 15 42 15t43-15l136-114v109q0 8 5 13t13 5h107q8 0 13-5t5-13v-227l122-102q5-5 6-12t-4-13z" transform="matrix(1 0 0 -1 0 850)"></path></svg></a></div><div class="modebar-group"><a rel="tooltip" class="modebar-btn" data-title="Toggle Spike Lines" data-attr="_cartesianSpikesEnabled" data-val="on" data-toggle="false" data-gravity="n"><svg viewBox="0 0 1000 1000" class="icon" height="1em" width="1em"><path d="M512 409c0-57-46-104-103-104-57 0-104 47-104 104 0 57 47 103 104 103 57 0 103-46 103-103z m-327-39l92 0 0 92-92 0z m-185 0l92 0 0 92-92 0z m370-186l92 0 0 93-92 0z m0-184l92 0 0 92-92 0z" transform="matrix(1.5 0 0 -1.5 0 850)"></path></svg></a><a rel="tooltip" class="modebar-btn active" data-title="Show closest data on hover" data-attr="hovermode" data-val="closest" data-toggle="false" data-gravity="ne"><svg viewBox="0 0 1500 1000" class="icon" height="1em" width="1em"><path d="m375 725l0 0-375-375 375-374 0-1 1125 0 0 750-1125 0z" transform="matrix(1 0 0 -1 0 850)"></path></svg></a><a rel="tooltip" class="modebar-btn" data-title="Compare data on hover" data-attr="hovermode" data-val="x" data-toggle="false" data-gravity="ne"><svg viewBox="0 0 1125 1000" class="icon" height="1em" width="1em"><path d="m187 786l0 2-187-188 188-187 0 0 937 0 0 373-938 0z m0-499l0 1-187-188 188-188 0 0 937 0 0 376-938-1z" transform="matrix(1 0 0 -1 0 850)"></path></svg></a></div></div></div><svg class="main-svg" style="position: absolute" xmlns="http://www.w3.org/2000/svg" xmlns:xlink="http://www.w3.org/1999/xlink" width="904.225352112676" height="642"><g class="hoverlayer"></g></svg>