<svg class="main-svg" style="position: absolute" xmlns="http://www.w3.org/2000/svg" xmlns:xlink="http://www.w3.org/1999/xlink" width="904.225352112676" height="642" style="background: rgb(255, 255, 255);"><defs id="defs-c9376e"><g class="clips"><clipPath id="clipc9376exyplot" class="plotclip"><rect width="602" height="462"></rect></clipPath><clipPath class="axesclip" id="clipc9376ex"><rect x="80" y="0" width="602" height="642"></rect></clipPath><clipPath class="axesclip" id="clipc9376ey"><rect x="0" y="100" width="904.225352112676" height="462"></rect></clipPath><clipPath class="axesclip" id="clipc9376exy"><rect x="80" y="100" width="602" height="462"></rect></clipPath></g><g class="gradients"></g></defs><g class="bglayer"></g><g class="draglayer cursor-crosshair"><g class="xy"><rect class="nsewdrag drag" data-subplot="xy" x="80" y="100" width="602" height="462" style="fill: transparent; stroke-width: 0; pointer-events: all;"></rect><rect class="nwdrag drag cursor-nw-resize" data-subplot="xy" x="60" y="80" width="20" height="20" style="fill: transparent; stroke-width: 0; pointer-events: all;"></rect><rect class="nedrag drag cursor-ne-resize" data-subplot="xy" x="682" y="80" width="20" height="20" style="fill: transparent; stroke-width: 0; pointer-events: all;"></rect><rect class="swdrag drag cursor-sw-resize" data-subplot="xy" x="60" y="562" width="20" height="20" style="fill: transparent; stroke-width: 0; pointer-events: all;"></rect><rect class="sedrag drag cursor-se-resize" data-subplot="xy" x="682" y="562" width="20" height="20" style="fill: transparent; stroke-width: 0; pointer-events: all;"></rect><rect class="ewdrag drag cursor-ew-resize" data-subplot="xy" x="140.2" y="562.5" width="481.6" height="20" style="fill: transparent; stroke-width: 0; pointer-events: all;"></rect><rect class="wdrag drag cursor-w-resize" data-subplot="xy" x="80" y="562.5" width="60.2" height="20" style="fill: transparent; stroke-width: 0; pointer-events: all;"></rect><rect class="edrag drag cursor-e-resize" data-subplot="xy" x="621.8000000000001" y="562.5" width="60.2" height="20" style="fill: transparent; stroke-width: 0; pointer-events: all;"></rect><rect class="nsdrag drag cursor-ns-resize" data-subplot="xy" x="59.5" y="146.2" width="20" height="369.6" style="fill: transparent; stroke-width: 0; pointer-events: all;"></rect><rect class="sdrag drag cursor-s-resize" data-subplot="xy" x="59.5" y="515.8" width="20" height="46.2" style="fill: transparent; stroke-width: 0; pointer-events: all;"></rect><rect class="ndrag drag cursor-n-resize" data-subplot="xy" x="59.5" y="100" width="20" height="46.2" style="fill: transparent; stroke-width: 0; pointer-events: all;"></rect></g></g><g class="layer-below"><g class="imagelayer"></g><g class="shapelayer"></g></g><g class="cartesianlayer"><g class="subplot xy"><g class="layer-subplot"><g class="shapelayer"></g><g class="imagelayer"></g></g><g class="gridlayer"><g class="x"><path class="xgrid crisp" transform="translate(200.4,0)" d="M0,100v462" style="stroke: rgb(238, 238, 238); stroke-opacity: 1; stroke-width: 1px;"></path><path class="xgrid crisp" transform="translate(320.8,0)" d="M0,100v462" style="stroke: rgb(238, 238, 238); stroke-opacity: 1; stroke-width: 1px;"></path><path class="xgrid crisp" transform="translate(441.2,0)" d="M0,100v462" style="stroke: rgb(238, 238, 238); stroke-opacity: 1; stroke-width: 1px;"></path><path class="xgrid crisp" transform="translate(561.6,0)" d="M0,100v462" style="stroke: rgb(238, 238, 238); stroke-opacity: 1; stroke-width: 1px;"></path></g><g class="y"><path class="ygrid crisp" transform="translate(0,484.35)" d="M80,0h602" style="stroke: rgb(238, 238, 238); stroke-opacity: 1; stroke-width: 1px;"></path><path class="ygrid crisp" transform="translate(0,394.93)" d="M80,0h602" style="stroke: rgb(238, 238, 238); stroke-opacity: 1; stroke-width: 1px;"></path><path class="ygrid crisp" transform="translate(0,305.52)" d="M80,0h602" style="stroke: rgb(238, 238, 238); stroke-opacity: 1; stroke-width: 1px;"></path><path class="ygrid crisp" transform="translate(0,216.1)" d="M80,0h602" style="stroke: rgb(238, 238, 238); stroke-opacity: 1; stroke-width: 1px;"></path><path class="ygrid crisp" transform="translate(0,126.68)" d="M80,0h602" style="stroke: rgb(238, 238, 238); stroke-opacity: 1; stroke-width: 1px;"></path></g></g><g class="zerolinelayer"><path class="xzl zl crisp" transform="translate(80,0)" d="M0,100v462" style="stroke: rgb(68, 68, 68); stroke-opacity: 1; stroke-width: 1px;"></path></g><path class="xlines-below"></path><path class="ylines-below"></path><g class="overlines-below"></g><g class="xaxislayer-below"></g><g class="yaxislayer-below"></g><g class="overaxes-below"></g><g class="plot" transform="translate(80,100)" clip-path="url('#clipc9376exyplot')"><g class="scatterlayer mlayer"><g class="trace scatter trace2f6156" style="stroke-miterlimit: 2; opacity: 1;"><g class="fills"></g><g class="errorbars"></g><g class="lines"><path class="js-line" d="M0,26.68L1.81,28.47L3.01,29.36L4.21,31.15L4.82,34.72L6.02,38.3L7.22,45.45L16.25,123.25L16.86,132.19L27.09,200.15L28.29,205.52L30.1,216.25L31.3,220.72L33.11,229.66L34.31,234.13L36.12,242.18L37.32,245.75L39.13,252.91L40.33,255.59L42.14,263.64L43.34,268.11L45.15,276.16L46.35,279.73L46.96,282.42L48.16,284.2L54.18,297.62L55.38,298.51L55.99,301.19L57.19,302.98L72.24,325.34L73.44,326.23L74.05,328.02L75.25,328.91L76.45,329.81L77.06,331.6L78.26,331.6L79.46,333.39L81.27,335.17L82.47,336.07L84.28,337.86L85.48,338.75L86.09,339.64L87.29,339.64L96.32,346.8L97.52,346.8L99.33,348.59L100.53,348.59L101.14,349.48L102.34,349.48L106.55,352.16L107.16,352.16L108.36,352.16L109.56,353.06L110.17,353.95L111.37,353.95L113.18,354.85L114.38,354.85L116.19,355.74L117.39,355.74L120.4,357.53L121.6,357.53L122.21,358.42L123.41,358.42L125.22,359.32L126.42,359.32L129.43,361.11L130.63,361.11L131.24,362L132.44,362L133.64,362L134.25,362.89L135.45,362.89L136.65,363.79L137.26,363.79L138.46,364.68L141.47,364.68L142.67,365.58L144.48,365.58L145.68,366.47L149.3,366.47L150.5,367.36L153.51,367.36L154.71,368.26L156.52,368.26L157.72,369.15L160.73,369.15L161.34,370.05L164.35,370.05L165.55,370.94L167.36,370.94L168.56,371.84L171.57,371.84L172.77,372.73L175.78,372.73L176.39,373.62L180.6,373.62L181.8,374.52L184.81,374.52L185.42,375.41L189.63,375.41L190.83,376.31L191.44,376.31L192.64,377.2L195.65,377.2L196.85,378.09L201.67,378.09L202.87,378.99L206.49,378.99L207.69,379.88L212.51,379.88L213.71,380.78L215.52,380.78L216.72,381.67L223.94,381.67L224.55,382.57L227.56,382.57L228.76,383.46L229.96,382.57L230.57,383.46L234.78,383.46L235.98,384.35L236.59,383.46L237.79,383.46L238.99,383.46L239.6,384.35L242.61,384.35L243.81,385.25L246.82,385.25L248.02,386.14L254.04,386.14L254.65,387.04L261.87,387.04L263.07,387.93L266.08,387.93L266.69,388.83L269.09,388.83L269.7,389.72L275.72,389.72L276.92,390.61L285.95,390.61L287.15,391.51L293.78,391.51L294.98,392.4L296.79,391.51L297.99,391.51L299.8,392.4L301,392.4L302.81,392.4L304.01,393.3L310.03,393.3L311.23,394.19L316.05,394.19L317.25,395.08L317.86,394.19L319.06,395.08L323.88,395.08L325.08,395.98L332.3,395.98L332.91,396.87L334.11,395.98L335.31,396.87L338.93,396.87L340.13,397.77L344.34,397.77L344.95,398.66L352.17,398.66L353.37,399.56L360,399.56L361.2,400.45L366.02,400.45L367.22,401.34L374.44,401.34L375.05,402.24L376.25,401.34L377.45,402.24L383.47,402.24L384.08,403.13L389.49,403.13L390.1,404.03L395.51,404.03L396.12,404.92L399.13,404.92L400.33,405.81L401.53,404.92L402.14,405.81L406.35,405.81L407.55,406.71L411.17,406.71L412.37,407.6L418.39,407.6L419.59,408.5L425.61,408.5L426.22,409.39L429.23,409.39L430.43,410.29L437.65,410.29L438.26,411.18L440.66,411.18L441.27,412.07L442.47,411.18L443.67,412.07L444.28,411.18L445.48,412.07L450.3,412.07L451.5,412.97L458.72,412.97L459.33,413.86L462.34,413.86L463.54,414.76L468.36,414.76L469.56,415.65L476.78,415.65L477.39,416.55L482.8,416.55L483.41,417.44L489.43,417.44L490.63,418.33L495.45,418.33L496.65,419.23L501.47,419.23L502.67,420.12L507.49,420.12L508.69,421.02L512.9,421.02L513.51,421.91L517.72,421.91L518.92,422.8L522.54,422.8L523.74,423.7L528.56,423.7L529.76,424.59L532.77,424.59L533.97,425.49L537.59,425.49L538.79,426.38L540.6,426.38L541.8,427.28L544.81,427.28L546.01,428.17L546.62,427.28L547.82,428.17L549.63,428.17L550.83,429.06L555.04,429.06L555.65,429.96L559.86,429.96L561.06,430.85L564.07,430.85L564.68,431.75L567.69,431.75L568.89,432.64L574.91,432.64L576.11,433.53L577.92,433.53L579.12,434.43L580.93,434.43L582.13,435.32L586.95,435.32L588.15,436.22L591.16,436.22L591.77,437.11L595.98,437.11L597.18,438.01L600.19,438.01L600.8,438.9L602,438.9" style="vector-effect: non-scaling-stroke; fill: none; stroke: rgb(255, 127, 14); stroke-opacity: 1; stroke-width: 3px; opacity: 1;"></path></g><g class="points"></g><g class="text"></g></g><g class="trace scatter trace136a3e" style="stroke-miterlimit: 2; opacity: 1;"><g class="fills"></g><g class="errorbars"></g><g class="lines"><path class="js-line" d="M0,23.99Q0.85,23.22 1.2,23.1C1.42,23.03 1.59,23.03 1.81,23.1C2.16,23.22 2.67,23.52 3.01,23.99C3.55,24.74 3.9,26.46 4.21,27.57C4.48,28.52 4.58,29.2 4.82,30.25C5.15,31.73 5.6,33.92 6.02,35.62C6.4,37.18 6.92,38.46 7.22,40.09C7.56,41.99 7.55,44.2 7.83,46.35C8.14,48.66 8.64,51.04 9.03,53.5C9.44,56.1 9.93,58.86 10.23,61.55C10.53,64.23 10.55,66.85 10.84,69.6C11.14,72.51 11.64,75.56 12.04,78.54C12.44,81.52 12.94,84.5 13.24,87.48C13.54,90.46 13.56,93.37 13.85,96.42C14.15,99.63 14.64,103.06 15.05,106.26C15.44,109.31 15.95,112.22 16.25,115.2C16.55,118.18 16.56,121.16 16.86,124.14C17.16,127.13 17.66,130.11 18.06,133.09C18.46,136.07 18.96,139.05 19.26,142.03C19.56,145.01 19.57,147.99 19.87,150.97C20.17,153.95 20.66,157.01 21.07,159.91C21.46,162.67 21.97,165.27 22.27,167.96C22.57,170.64 22.58,173.33 22.88,176.01C23.18,178.7 23.67,181.45 24.08,184.05C24.47,186.51 24.98,188.82 25.28,191.21C25.58,193.59 25.59,195.98 25.89,198.36C26.19,200.75 26.69,203.13 27.09,205.52C27.49,207.9 27.98,210.36 28.29,212.67C28.57,214.82 28.58,216.93 28.9,218.93C29.2,220.8 29.71,222.43 30.1,224.29C30.52,226.29 30.99,228.54 31.3,230.55C31.58,232.4 31.61,234.14 31.91,235.92C32.21,237.72 32.71,239.49 33.11,241.28C33.51,243.07 34.01,244.85 34.31,246.65C34.61,248.43 34.62,250.23 34.92,252.01C35.22,253.81 35.7,255.68 36.12,257.38C36.5,258.94 37.02,260.35 37.32,261.85C37.62,263.33 37.63,264.84 37.93,266.32C38.23,267.82 38.71,269.39 39.13,270.79C39.51,272.06 40.03,273.1 40.33,274.37C40.66,275.76 40.64,277.36 40.94,278.84C41.24,280.34 41.72,281.91 42.14,283.31C42.52,284.58 43.04,285.69 43.34,286.89C43.64,288.07 43.65,289.28 43.95,290.46C44.25,291.66 44.75,292.85 45.15,294.04C45.55,295.23 46.04,296.51 46.35,297.62C46.62,298.57 46.67,299.42 46.96,300.3C47.26,301.21 47.76,302.09 48.16,302.98C48.56,303.88 49.06,304.76 49.36,305.67C49.65,306.55 49.68,307.47 49.97,308.35C50.27,309.26 50.79,310.06 51.17,311.03C51.6,312.13 52.06,313.5 52.37,314.61C52.64,315.56 52.69,316.41 52.98,317.29C53.28,318.2 53.78,319.08 54.18,319.97C54.58,320.86 55.06,321.84 55.38,322.65C55.64,323.3 55.73,323.79 55.99,324.44C56.31,325.25 56.75,326.34 57.19,327.13C57.56,327.8 58.08,328.29 58.39,328.91C58.68,329.49 58.74,330.05 59,330.7C59.32,331.51 59.76,332.6 60.2,333.39C60.57,334.06 61.09,334.55 61.4,335.17C61.69,335.75 61.72,336.38 62.01,336.96C62.32,337.58 62.81,338.15 63.21,338.75C63.61,339.35 64.1,339.92 64.41,340.54C64.7,341.12 64.73,341.75 65.02,342.33C65.33,342.95 65.82,343.52 66.22,344.12C66.62,344.71 67.11,345.28 67.42,345.9C67.71,346.48 67.74,347.11 68.03,347.69C68.34,348.31 68.79,349.01 69.23,349.48C69.6,349.87 70.13,349.96 70.43,350.37C70.76,350.83 70.71,351.7 71.04,352.16C71.34,352.57 71.87,352.67 72.24,353.06C72.68,353.53 73.13,354.23 73.44,354.85C73.73,355.43 73.72,356.17 74.05,356.63C74.35,357.04 74.85,357.23 75.25,357.53C75.65,357.83 76.15,358.01 76.45,358.42C76.78,358.88 76.73,359.75 77.06,360.21C77.36,360.62 77.86,360.81 78.26,361.11C78.66,361.41 79.15,361.67 79.46,362C79.73,362.28 79.8,362.61 80.07,362.89C80.38,363.22 80.87,363.49 81.27,363.79C81.67,364.09 82.17,364.27 82.47,364.68C82.8,365.14 82.75,366.01 83.08,366.47C83.38,366.88 83.88,367.06 84.28,367.36C84.68,367.66 85.17,367.93 85.48,368.26C85.75,368.54 85.82,368.87 86.09,369.15C86.4,369.48 86.87,369.91 87.29,370.05C87.67,370.18 88.2,369.84 88.49,370.05C88.86,370.31 88.77,371.38 89.1,371.84C89.4,372.25 89.9,372.43 90.3,372.73C90.7,373.03 91.15,373.5 91.5,373.62C91.72,373.69 91.89,373.55 92.11,373.62C92.46,373.74 92.91,374.22 93.31,374.52C93.71,374.82 94.21,375 94.51,375.41C94.84,375.87 94.75,376.94 95.12,377.2C95.41,377.41 95.94,377.07 96.32,377.2C96.74,377.34 97.21,377.76 97.52,378.09C97.79,378.37 97.84,378.84 98.13,378.99C98.43,379.15 98.95,378.86 99.33,378.99C99.75,379.13 100.22,379.55 100.53,379.88C100.8,380.16 100.85,380.63 101.14,380.78C101.44,380.94 101.96,380.65 102.34,380.78C102.76,380.92 103.23,381.34 103.54,381.67C103.81,381.95 103.86,382.42 104.15,382.57C104.45,382.73 104.97,382.44 105.35,382.57C105.77,382.71 106.2,383.34 106.55,383.46C106.77,383.53 106.94,383.39 107.16,383.46C107.51,383.58 107.94,384.21 108.36,384.35C108.74,384.48 109.26,384.19 109.56,384.35C109.85,384.5 109.9,384.97 110.17,385.25C110.48,385.58 110.95,386 111.37,386.14C111.75,386.27 112.27,385.98 112.57,386.14C112.86,386.29 112.89,386.89 113.18,387.04C113.48,387.2 114,386.91 114.38,387.04C114.8,387.18 115.23,387.81 115.58,387.93C115.8,388 115.95,387.93 116.19,387.93C116.52,387.93 117.01,387.8 117.39,387.93C117.81,388.07 118.28,388.5 118.59,388.83C118.86,389.11 118.91,389.57 119.2,389.72C119.5,389.88 120.02,389.59 120.4,389.72C120.82,389.86 121.25,390.49 121.6,390.61C121.82,390.68 121.97,390.61 122.21,390.61C122.54,390.61 123.03,390.48 123.41,390.61C123.83,390.75 124.26,391.39 124.61,391.51C124.83,391.58 124.98,391.51 125.22,391.51C125.55,391.51 126.04,391.38 126.42,391.51C126.84,391.65 127.27,392.28 127.62,392.4C127.84,392.47 128.01,392.33 128.23,392.4C128.58,392.52 129.01,393.16 129.43,393.3C129.81,393.43 130.3,393.3 130.63,393.3C130.87,393.3 131.02,393.23 131.24,393.3C131.59,393.42 132.02,394.05 132.44,394.19C132.82,394.32 133.34,394.03 133.64,394.19C133.93,394.34 133.96,394.93 134.25,395.08C134.55,395.24 135.05,395.08 135.45,395.08C135.85,395.08 136.35,394.92 136.65,395.08C136.94,395.23 136.97,395.83 137.26,395.98C137.56,396.14 138.06,395.98 138.46,395.98C138.86,395.98 139.36,395.82 139.66,395.98C139.95,396.13 139.98,396.72 140.27,396.87C140.57,397.03 141.07,396.87 141.47,396.87C141.87,396.87 142.34,396.87 142.67,396.87C142.91,396.87 143.04,396.87 143.28,396.87C143.61,396.87 144.1,396.74 144.48,396.87C144.9,397.01 145.37,397.44 145.68,397.77C145.95,398.05 146,398.51 146.29,398.66C146.59,398.82 147.09,398.66 147.49,398.66C147.89,398.66 148.36,398.66 148.69,398.66C148.93,398.66 149.08,398.59 149.3,398.66C149.65,398.78 150.08,399.42 150.5,399.56C150.88,399.69 151.37,399.56 151.7,399.56C151.94,399.56 152.07,399.56 152.31,399.56C152.64,399.56 153.13,399.43 153.51,399.56C153.93,399.7 154.4,400.5 154.71,400.45C154.98,400.41 155.05,399.6 155.32,399.56C155.63,399.51 156.1,400.31 156.52,400.45C156.9,400.58 157.39,400.45 157.72,400.45C157.96,400.45 158.11,400.38 158.33,400.45C158.68,400.57 159.11,401.2 159.53,401.34C159.91,401.47 160.4,401.34 160.73,401.34C160.97,401.34 161.12,401.27 161.34,401.34C161.69,401.46 162.12,402.1 162.54,402.24C162.92,402.37 163.41,402.24 163.74,402.24C163.98,402.24 164.11,402.24 164.35,402.24C164.68,402.24 165.15,402.24 165.55,402.24C165.95,402.24 166.45,402.08 166.75,402.24C167.04,402.39 167.07,402.98 167.36,403.13C167.66,403.29 168.16,403.13 168.56,403.13C168.96,403.13 169.43,403.13 169.76,403.13C170,403.13 170.13,403.13 170.37,403.13C170.7,403.13 171.17,403.13 171.57,403.13C171.97,403.13 172.47,402.97 172.77,403.13C173.06,403.28 173.09,403.88 173.38,404.03C173.68,404.19 174.18,404.03 174.58,404.03C174.98,404.03 175.45,404.03 175.78,404.03C176.02,404.03 176.17,403.96 176.39,404.03C176.74,404.15 177.17,404.78 177.59,404.92C177.97,405.05 178.46,404.92 178.79,404.92C179.03,404.92 179.16,404.92 179.4,404.92C179.73,404.92 180.2,404.92 180.6,404.92C181,404.92 181.5,404.76 181.8,404.92C182.09,405.07 182.12,405.66 182.41,405.81C182.71,405.97 183.23,405.68 183.61,405.81C184.03,405.95 184.46,406.59 184.81,406.71C185.03,406.78 185.18,406.71 185.42,406.71C185.75,406.71 186.22,406.71 186.62,406.71C187.02,406.71 187.49,406.71 187.82,406.71C188.06,406.71 188.19,406.71 188.43,406.71C188.76,406.71 189.23,406.71 189.63,406.71C190.03,406.71 190.53,406.55 190.83,406.71C191.12,406.86 191.15,407.45 191.44,407.6C191.74,407.76 192.26,407.73 192.64,407.6C193.06,407.46 193.49,406.83 193.84,406.71C194.06,406.64 194.23,406.64 194.45,406.71C194.8,406.83 195.23,407.46 195.65,407.6C196.03,407.73 196.52,407.6 196.85,407.6C197.09,407.6 197.22,407.6 197.46,407.6C197.79,407.6 198.28,407.47 198.66,407.6C199.08,407.74 199.51,408.38 199.86,408.5C200.08,408.57 200.23,408.5 200.47,408.5C200.8,408.5 201.27,408.5 201.67,408.5C202.07,408.5 202.54,408.5 202.87,408.5C203.11,408.5 203.24,408.5 203.48,408.5C203.81,408.5 204.28,408.5 204.68,408.5C205.08,408.5 205.55,408.5 205.88,408.5C206.12,408.5 206.25,408.5 206.49,408.5C206.82,408.5 207.29,408.5 207.69,408.5C208.09,408.5 208.59,408.34 208.89,408.5C209.18,408.65 209.21,409.24 209.5,409.39C209.8,409.55 210.3,409.39 210.7,409.39C211.1,409.39 211.57,409.39 211.9,409.39C212.14,409.39 212.27,409.39 212.51,409.39C212.84,409.39 213.31,409.39 213.71,409.39C214.11,409.39 214.58,409.39 214.91,409.39C215.15,409.39 215.28,409.39 215.52,409.39C215.85,409.39 216.34,409.26 216.72,409.39C217.14,409.53 217.57,410.17 217.92,410.29C218.14,410.36 218.29,410.29 218.53,410.29C218.86,410.29 219.33,410.29 219.73,410.29C220.13,410.29 220.6,410.29 220.93,410.29C221.17,410.29 221.3,410.29 221.54,410.29C221.87,410.29 222.34,410.29 222.74,410.29C223.14,410.29 223.61,410.29 223.94,410.29C224.18,410.29 224.31,410.29 224.55,410.29C224.88,410.29 225.35,410.29 225.75,410.29C226.15,410.29 226.65,410.13 226.95,410.29C227.24,410.44 227.29,411.14 227.56,411.18C227.87,411.23 228.36,410.29 228.76,410.29C229.16,410.29 229.61,411.06 229.96,411.18C230.18,411.25 230.33,411.18 230.57,411.18C230.9,411.18 231.37,411.18 231.77,411.18C232.17,411.18 232.64,411.18 232.97,411.18C233.21,411.18 233.34,411.18 233.58,411.18C233.91,411.18 234.38,411.18 234.78,411.18C235.18,411.18 235.65,411.18 235.98,411.18C236.22,411.18 236.35,411.18 236.59,411.18C236.92,411.18 237.39,411.18 237.79,411.18C238.19,411.18 238.69,411.02 238.99,411.18C239.28,411.33 239.31,411.92 239.6,412.07C239.9,412.23 240.4,412.07 240.8,412.07C241.2,412.07 241.67,412.07 242,412.07C242.24,412.07 242.37,412.07 242.61,412.07C242.94,412.07 243.41,412.07 243.81,412.07C244.21,412.07 244.68,412.07 245.01,412.07C245.25,412.07 245.38,412.07 245.62,412.07C245.95,412.07 246.42,412.07 246.82,412.07C247.22,412.07 247.69,412.07 248.02,412.07C248.26,412.07 248.39,412.07 248.63,412.07C248.96,412.07 249.43,412.07 249.83,412.07C250.23,412.07 250.7,412.07 251.03,412.07C251.27,412.07 251.42,412 251.64,412.07C251.99,412.19 252.42,412.83 252.84,412.97C253.22,413.1 253.71,412.97 254.04,412.97C254.28,412.97 254.41,412.97 254.65,412.97C254.98,412.97 255.45,412.97 255.85,412.97C256.25,412.97 256.75,412.81 257.05,412.97C257.34,413.12 257.37,413.71 257.66,413.86C257.96,414.02 258.46,413.86 258.86,413.86C259.26,413.86 259.73,413.86 260.06,413.86C260.3,413.86 260.43,413.86 260.67,413.86C261,413.86 261.47,413.86 261.87,413.86C262.27,413.86 262.74,413.86 263.07,413.86C263.31,413.86 263.44,413.86 263.68,413.86C264.01,413.86 264.48,413.86 264.88,413.86C265.28,413.86 265.75,413.86 266.08,413.86C266.32,413.86 266.45,413.86 266.69,413.86C267.02,413.86 267.49,413.86 267.89,413.86C268.29,413.86 268.76,413.86 269.09,413.86C269.33,413.86 269.46,413.86 269.7,413.86C270.03,413.86 270.52,413.73 270.9,413.86C271.32,414 271.79,414.81 272.1,414.76C272.37,414.72 272.44,413.9 272.71,413.86C273.02,413.81 273.49,414.62 273.91,414.76C274.29,414.89 274.78,414.76 275.11,414.76C275.35,414.76 275.48,414.76 275.72,414.76C276.05,414.76 276.52,414.76 276.92,414.76C277.32,414.76 277.79,414.76 278.12,414.76C278.36,414.76 278.49,414.76 278.73,414.76C279.06,414.76 279.53,414.76 279.93,414.76C280.33,414.76 280.8,414.76 281.13,414.76C281.37,414.76 281.5,414.76 281.74,414.76C282.07,414.76 282.56,414.63 282.94,414.76C283.36,414.9 283.83,415.7 284.14,415.65C284.41,415.61 284.48,414.8 284.75,414.76C285.06,414.71 285.55,415.65 285.95,415.65C286.35,415.65 286.84,414.71 287.15,414.76C287.42,414.8 287.47,415.5 287.76,415.65C288.06,415.81 288.56,415.65 288.96,415.65C289.36,415.65 289.83,415.65 290.16,415.65C290.4,415.65 290.53,415.65 290.77,415.65C291.1,415.65 291.57,415.65 291.97,415.65C292.37,415.65 292.84,415.65 293.17,415.65C293.41,415.65 293.54,415.65 293.78,415.65C294.11,415.65 294.58,415.65 294.98,415.65C295.38,415.65 295.85,415.65 296.18,415.65C296.42,415.65 296.55,415.65 296.79,415.65C297.12,415.65 297.59,415.65 297.99,415.65C298.39,415.65 298.86,415.65 299.19,415.65C299.43,415.65 299.56,415.65 299.8,415.65C300.13,415.65 300.6,415.65 301,415.65C301.4,415.65 301.9,415.49 302.2,415.65C302.49,415.8 302.52,416.4 302.81,416.55C303.11,416.71 303.61,416.55 304.01,416.55C304.41,416.55 304.88,416.55 305.21,416.55C305.45,416.55 305.58,416.55 305.82,416.55C306.15,416.55 306.62,416.55 307.02,416.55C307.42,416.55 307.89,416.55 308.22,416.55C308.46,416.55 308.59,416.55 308.83,416.55C309.16,416.55 309.63,416.55 310.03,416.55C310.43,416.55 310.9,416.55 311.23,416.55C311.47,416.55 311.6,416.55 311.84,416.55C312.17,416.55 312.64,416.55 313.04,416.55C313.44,416.55 313.91,416.55 314.24,416.55C314.48,416.55 314.61,416.55 314.85,416.55C315.18,416.55 315.65,416.55 316.05,416.55C316.45,416.55 316.95,416.39 317.25,416.55C317.54,416.7 317.59,417.4 317.86,417.44C318.17,417.49 318.66,416.55 319.06,416.55C319.46,416.55 319.91,417.32 320.26,417.44C320.48,417.51 320.63,417.44 320.87,417.44C321.2,417.44 321.67,417.44 322.07,417.44C322.47,417.44 322.94,417.44 323.27,417.44C323.51,417.44 323.64,417.44 323.88,417.44C324.21,417.44 324.68,417.44 325.08,417.44C325.48,417.44 325.95,417.44 326.28,417.44C326.52,417.44 326.65,417.44 326.89,417.44C327.22,417.44 327.69,417.44 328.09,417.44C328.49,417.44 328.96,417.44 329.29,417.44C329.53,417.44 329.66,417.44 329.9,417.44C330.23,417.44 330.7,417.44 331.1,417.44C331.5,417.44 331.97,417.44 332.3,417.44C332.54,417.44 332.67,417.44 332.91,417.44C333.24,417.44 333.71,417.44 334.11,417.44C334.51,417.44 334.98,417.44 335.31,417.44C335.55,417.44 335.68,417.44 335.92,417.44C336.25,417.44 336.72,417.44 337.12,417.44C337.52,417.44 337.99,417.44 338.32,417.44C338.56,417.44 338.71,417.37 338.93,417.44C339.28,417.56 339.71,418.19 340.13,418.33C340.51,418.46 341,418.33 341.33,418.33C341.57,418.33 341.7,418.33 341.94,418.33C342.27,418.33 342.74,418.33 343.14,418.33C343.54,418.33 344.01,418.33 344.34,418.33C344.58,418.33 344.71,418.33 344.95,418.33C345.28,418.33 345.75,418.33 346.15,418.33C346.55,418.33 347.02,418.33 347.35,418.33C347.59,418.33 347.72,418.33 347.96,418.33C348.29,418.33 348.76,418.33 349.16,418.33C349.56,418.33 350.03,418.33 350.36,418.33C350.6,418.33 350.73,418.33 350.97,418.33C351.3,418.33 351.77,418.33 352.17,418.33C352.57,418.33 353.04,418.33 353.37,418.33C353.61,418.33 353.76,418.26 353.98,418.33C354.33,418.45 354.76,419.09 355.18,419.23C355.56,419.36 356.05,419.23 356.38,419.23C356.62,419.23 356.75,419.23 356.99,419.23C357.32,419.23 357.79,419.23 358.19,419.23C358.59,419.23 359.06,419.23 359.39,419.23C359.63,419.23 359.76,419.23 360,419.23C360.33,419.23 360.8,419.23 361.2,419.23C361.6,419.23 362.07,419.23 362.4,419.23C362.64,419.23 362.77,419.23 363.01,419.23C363.34,419.23 363.81,419.23 364.21,419.23C364.61,419.23 365.08,419.23 365.41,419.23C365.65,419.23 365.78,419.23 366.02,419.23C366.35,419.23 366.82,419.23 367.22,419.23C367.62,419.23 368.09,419.23 368.42,419.23C368.66,419.23 368.79,419.23 369.03,419.23C369.36,419.23 369.83,419.23 370.23,419.23C370.63,419.23 371.1,419.23 371.43,419.23C371.67,419.23 371.82,419.16 372.04,419.23C372.39,419.35 372.84,420.12 373.24,420.12C373.64,420.12 374.13,419.18 374.44,419.23C374.71,419.27 374.76,419.97 375.05,420.12C375.35,420.28 375.85,420.12 376.25,420.12C376.65,420.12 377.15,420.28 377.45,420.12C377.74,419.97 377.79,419.27 378.06,419.23C378.37,419.18 378.84,419.98 379.26,420.12C379.64,420.25 380.16,420.28 380.46,420.12C380.75,419.97 380.78,419.38 381.07,419.23C381.37,419.07 381.87,419.23 382.27,419.23C382.67,419.23 383.17,419.07 383.47,419.23C383.76,419.38 383.79,419.97 384.08,420.12C384.38,420.28 384.88,420.12 385.28,420.12C385.68,420.12 386.15,420.12 386.48,420.12C386.72,420.12 386.85,420.12 387.09,420.12C387.42,420.12 387.89,420.12 388.29,420.12C388.69,420.12 389.16,420.12 389.49,420.12C389.73,420.12 389.86,420.12 390.1,420.12C390.43,420.12 390.9,420.12 391.3,420.12C391.7,420.12 392.17,420.12 392.5,420.12C392.74,420.12 392.87,420.12 393.11,420.12C393.44,420.12 393.93,419.99 394.31,420.12C394.73,420.26 395.16,420.9 395.51,421.02C395.73,421.09 395.88,421.02 396.12,421.02C396.45,421.02 396.92,421.02 397.32,421.02C397.72,421.02 398.19,421.02 398.52,421.02C398.76,421.02 398.89,421.02 399.13,421.02C399.46,421.02 399.93,421.02 400.33,421.02C400.73,421.02 401.2,421.02 401.53,421.02C401.77,421.02 401.9,421.02 402.14,421.02C402.47,421.02 402.94,421.02 403.34,421.02C403.74,421.02 404.21,421.02 404.54,421.02C404.78,421.02 404.91,421.02 405.15,421.02C405.48,421.02 405.95,421.02 406.35,421.02C406.75,421.02 407.22,421.02 407.55,421.02C407.79,421.02 407.92,421.02 408.16,421.02C408.49,421.02 408.96,421.02 409.36,421.02C409.76,421.02 410.23,421.02 410.56,421.02C410.8,421.02 410.93,421.02 411.17,421.02C411.5,421.02 411.97,421.02 412.37,421.02C412.77,421.02 413.24,421.02 413.57,421.02C413.81,421.02 413.94,421.02 414.18,421.02C414.51,421.02 414.98,421.02 415.38,421.02C415.78,421.02 416.28,420.86 416.58,421.02C416.87,421.17 416.9,421.76 417.19,421.91C417.49,422.07 418.01,422.04 418.39,421.91C418.81,421.77 419.28,420.97 419.59,421.02C419.86,421.06 419.91,421.76 420.2,421.91C420.5,422.07 421,421.91 421.4,421.91C421.8,421.91 422.27,421.91 422.6,421.91C422.84,421.91 422.97,421.91 423.21,421.91C423.54,421.91 424.01,421.91 424.41,421.91C424.81,421.91 425.28,421.91 425.61,421.91C425.85,421.91 425.98,421.91 426.22,421.91C426.55,421.91 427.02,421.91 427.42,421.91C427.82,421.91 428.29,421.91 428.62,421.91C428.86,421.91 428.99,421.91 429.23,421.91C429.56,421.91 430.03,421.91 430.43,421.91C430.83,421.91 431.3,421.91 431.63,421.91C431.87,421.91 432,421.91 432.24,421.91C432.57,421.91 433.04,421.91 433.44,421.91C433.84,421.91 434.31,421.91 434.64,421.91C434.88,421.91 435.01,421.91 435.25,421.91C435.58,421.91 436.07,421.78 436.45,421.91C436.87,422.05 437.34,422.85 437.65,422.8C437.92,422.76 437.99,421.95 438.26,421.91C438.57,421.86 439.06,422.8 439.46,422.8C439.86,422.8 440.35,421.86 440.66,421.91C440.93,421.95 441,422.76 441.27,422.8C441.58,422.85 442.07,421.91 442.47,421.91C442.87,421.91 443.36,422.85 443.67,422.8C443.94,422.76 444.01,421.95 444.28,421.91C444.59,421.86 445.06,422.66 445.48,422.8C445.86,422.93 446.35,422.8 446.68,422.8C446.92,422.8 447.05,422.8 447.29,422.8C447.62,422.8 448.09,422.8 448.49,422.8C448.89,422.8 449.36,422.8 449.69,422.8C449.93,422.8 450.06,422.8 450.3,422.8C450.63,422.8 451.1,422.8 451.5,422.8C451.9,422.8 452.37,422.8 452.7,422.8C452.94,422.8 453.07,422.8 453.31,422.8C453.64,422.8 454.11,422.8 454.51,422.8C454.91,422.8 455.38,422.8 455.71,422.8C455.95,422.8 456.08,422.8 456.32,422.8C456.65,422.8 457.12,422.8 457.52,422.8C457.92,422.8 458.39,422.8 458.72,422.8C458.96,422.8 459.09,422.8 459.33,422.8C459.66,422.8 460.13,422.8 460.53,422.8C460.93,422.8 461.4,422.8 461.73,422.8C461.97,422.8 462.1,422.8 462.34,422.8C462.67,422.8 463.14,422.8 463.54,422.8C463.94,422.8 464.41,422.8 464.74,422.8C464.98,422.8 465.13,422.73 465.35,422.8C465.7,422.92 466.13,423.56 466.55,423.7C466.93,423.83 467.45,423.86 467.75,423.7C468.04,423.55 468.07,422.95 468.36,422.8C468.66,422.64 469.16,422.8 469.56,422.8C469.96,422.8 470.43,422.8 470.76,422.8C471,422.8 471.13,422.8 471.37,422.8C471.7,422.8 472.17,422.8 472.57,422.8C472.97,422.8 473.44,422.8 473.77,422.8C474.01,422.8 474.16,422.73 474.38,422.8C474.73,422.92 475.16,423.56 475.58,423.7C475.96,423.83 476.45,423.7 476.78,423.7C477.02,423.7 477.15,423.7 477.39,423.7C477.72,423.7 478.19,423.7 478.59,423.7C478.99,423.7 479.46,423.7 479.79,423.7C480.03,423.7 480.16,423.7 480.4,423.7C480.73,423.7 481.2,423.7 481.6,423.7C482,423.7 482.47,423.7 482.8,423.7C483.04,423.7 483.17,423.7 483.41,423.7C483.74,423.7 484.21,423.7 484.61,423.7C485.01,423.7 485.48,423.7 485.81,423.7C486.05,423.7 486.18,423.7 486.42,423.7C486.75,423.7 487.22,423.7 487.62,423.7C488.02,423.7 488.49,423.7 488.82,423.7C489.06,423.7 489.21,423.63 489.43,423.7C489.78,423.82 490.21,424.45 490.63,424.59C491.01,424.72 491.5,424.59 491.83,424.59C492.07,424.59 492.2,424.59 492.44,424.59C492.77,424.59 493.24,424.59 493.64,424.59C494.04,424.59 494.51,424.59 494.84,424.59C495.08,424.59 495.21,424.59 495.45,424.59C495.78,424.59 496.25,424.59 496.65,424.59C497.05,424.59 497.52,424.59 497.85,424.59C498.09,424.59 498.22,424.59 498.46,424.59C498.79,424.59 499.26,424.59 499.66,424.59C500.06,424.59 500.53,424.59 500.86,424.59C501.1,424.59 501.23,424.59 501.47,424.59C501.8,424.59 502.27,424.59 502.67,424.59C503.07,424.59 503.54,424.59 503.87,424.59C504.11,424.59 504.24,424.59 504.48,424.59C504.81,424.59 505.28,424.59 505.68,424.59C506.08,424.59 506.55,424.59 506.88,424.59C507.12,424.59 507.25,424.59 507.49,424.59C507.82,424.59 508.29,424.59 508.69,424.59C509.09,424.59 509.56,424.59 509.89,424.59C510.13,424.59 510.28,424.52 510.5,424.59C510.85,424.71 511.3,425.49 511.7,425.49C512.1,425.49 512.59,424.54 512.9,424.59C513.17,424.63 513.22,425.34 513.51,425.49C513.81,425.65 514.31,425.49 514.71,425.49C515.11,425.49 515.58,425.49 515.91,425.49C516.15,425.49 516.28,425.49 516.52,425.49C516.85,425.49 517.32,425.49 517.72,425.49C518.12,425.49 518.59,425.49 518.92,425.49C519.16,425.49 519.29,425.49 519.53,425.49C519.86,425.49 520.33,425.49 520.73,425.49C521.13,425.49 521.6,425.49 521.93,425.49C522.17,425.49 522.3,425.49 522.54,425.49C522.87,425.49 523.34,425.49 523.74,425.49C524.14,425.49 524.61,425.49 524.94,425.49C525.18,425.49 525.31,425.49 525.55,425.49C525.88,425.49 526.35,425.49 526.75,425.49C527.15,425.49 527.62,425.49 527.95,425.49C528.19,425.49 528.32,425.49 528.56,425.49C528.89,425.49 529.36,425.49 529.76,425.49C530.16,425.49 530.63,425.49 530.96,425.49C531.2,425.49 531.33,425.49 531.57,425.49C531.9,425.49 532.37,425.49 532.77,425.49C533.17,425.49 533.64,425.49 533.97,425.49C534.21,425.49 534.36,425.42 534.58,425.49C534.93,425.61 535.36,426.24 535.78,426.38C536.16,426.51 536.65,426.38 536.98,426.38C537.22,426.38 537.35,426.38 537.59,426.38C537.92,426.38 538.39,426.38 538.79,426.38C539.19,426.38 539.69,426.54 539.99,426.38C540.28,426.23 540.33,425.53 540.6,425.49C540.91,425.44 541.38,426.24 541.8,426.38C542.18,426.51 542.67,426.38 543,426.38C543.24,426.38 543.37,426.38 543.61,426.38C543.94,426.38 544.41,426.38 544.81,426.38C545.21,426.38 545.68,426.38 546.01,426.38C546.25,426.38 546.38,426.38 546.62,426.38C546.95,426.38 547.42,426.38 547.82,426.38C548.22,426.38 548.69,426.38 549.02,426.38C549.26,426.38 549.39,426.38 549.63,426.38C549.96,426.38 550.43,426.38 550.83,426.38C551.23,426.38 551.7,426.38 552.03,426.38C552.27,426.38 552.4,426.38 552.64,426.38C552.97,426.38 553.44,426.38 553.84,426.38C554.24,426.38 554.71,426.38 555.04,426.38C555.28,426.38 555.41,426.38 555.65,426.38C555.98,426.38 556.47,426.25 556.85,426.38C557.27,426.52 557.7,427.16 558.05,427.28C558.27,427.35 558.42,427.28 558.66,427.28C558.99,427.28 559.46,427.28 559.86,427.28C560.26,427.28 560.73,427.28 561.06,427.28C561.3,427.28 561.43,427.28 561.67,427.28C562,427.28 562.47,427.28 562.87,427.28C563.27,427.28 563.74,427.28 564.07,427.28C564.31,427.28 564.44,427.28 564.68,427.28C565.01,427.28 565.48,427.28 565.88,427.28C566.28,427.28 566.75,427.28 567.08,427.28C567.32,427.28 567.45,427.28 567.69,427.28C568.02,427.28 568.49,427.28 568.89,427.28C569.29,427.28 569.76,427.28 570.09,427.28C570.33,427.28 570.46,427.28 570.7,427.28C571.03,427.28 571.5,427.28 571.9,427.28C572.3,427.28 572.77,427.28 573.1,427.28C573.34,427.28 573.47,427.28 573.71,427.28C574.04,427.28 574.51,427.28 574.91,427.28C575.31,427.28 575.81,427.12 576.11,427.28C576.4,427.43 576.43,428.02 576.72,428.17C577.02,428.33 577.52,428.17 577.92,428.17C578.32,428.17 578.82,428.33 579.12,428.17C579.41,428.02 579.46,427.32 579.73,427.28C580.04,427.23 580.51,428.03 580.93,428.17C581.31,428.3 581.8,428.17 582.13,428.17C582.37,428.17 582.5,428.17 582.74,428.17C583.07,428.17 583.54,428.17 583.94,428.17C584.34,428.17 584.81,428.17 585.14,428.17C585.38,428.17 585.51,428.17 585.75,428.17C586.08,428.17 586.55,428.17 586.95,428.17C587.35,428.17 587.82,428.17 588.15,428.17C588.39,428.17 588.52,428.17 588.76,428.17C589.09,428.17 589.56,428.17 589.96,428.17C590.36,428.17 590.83,428.17 591.16,428.17C591.4,428.17 591.53,428.17 591.77,428.17C592.1,428.17 592.57,428.17 592.97,428.17C593.37,428.17 593.84,428.17 594.17,428.17C594.41,428.17 594.54,428.17 594.78,428.17C595.11,428.17 595.58,428.17 595.98,428.17C596.38,428.17 596.85,428.17 597.18,428.17C597.42,428.17 597.55,428.17 597.79,428.17C598.12,428.17 598.59,428.17 598.99,428.17C599.39,428.17 599.86,428.17 600.19,428.17C600.43,428.17 600.56,428.17 600.8,428.17Q601.13,428.17 602,428.17" style="vector-effect: non-scaling-stroke; fill: none; stroke: rgb(31, 119, 180); stroke-opacity: 1; stroke-width: 3px; opacity: 1;"></path></g><g class="points"></g><g class="text"></g></g></g></g><g class="overplot"></g><path class="xlines-above crisp" d="M0,0" style="fill: none;"></path><path class="ylines-above crisp" style="fill: none;" d="M0,0"></path><g class="overlines-above"></g><g class="xaxislayer-above"><g class="xtick"><text text-anchor="middle" x="0" y="575" data-unformatted="0" data-math="N" transform="translate(80,0)" style="font-family: &quot;Open Sans&quot;, verdana, arial, sans-serif; font-size: 12px; fill: rgb(68, 68, 68); fill-opacity: 1; white-space: pre;">0</text></g><g class="xtick"><text text-anchor="middle" x="0" y="575" data-unformatted="2" data-math="N" transform="translate(200.4,0)" style="font-family: &quot;Open Sans&quot;, verdana, arial, sans-serif; font-size: 12px; fill: rgb(68, 68, 68); fill-opacity: 1; white-space: pre;">2</text></g><g class="xtick"><text text-anchor="middle" x="0" y="575" data-unformatted="4" data-math="N" transform="translate(320.8,0)" style="font-family: &quot;Open Sans&quot;, verdana, arial, sans-serif; font-size: 12px; fill: rgb(68, 68, 68); fill-opacity: 1; white-space: pre;">4</text></g><g class="xtick"><text text-anchor="middle" x="0" y="575" data-unformatted="6" data-math="N" transform="translate(441.2,0)" style="font-family: &quot;Open Sans&quot;, verdana, arial, sans-serif; font-size: 12px; fill: rgb(68, 68, 68); fill-opacity: 1; white-space: pre;">6</text></g><g class="xtick"><text text-anchor="middle" x="0" y="575" data-unformatted="8" data-math="N" transform="translate(561.6,0)" style="font-family: &quot;Open Sans&quot;, verdana, arial, sans-serif; font-size: 12px; fill: rgb(68, 68, 68); fill-opacity: 1; white-space: pre;">8</text></g><g class="xtick"><text text-anchor="middle" x="0" y="575" data-unformatted="10" data-math="N" transform="translate(682,0)" style="font-family: &quot;Open Sans&quot;, verdana, arial, sans-serif; font-size: 12px; fill: rgb(68, 68, 68); fill-opacity: 1; white-space: pre;">10</text></g></g><g class="yaxislayer-above"><g class="ytick"><text text-anchor="end" x="79" y="4.199999999999999" data-unformatted="40" data-math="N" transform="translate(0,484.35)" style="font-family: &quot;Open Sans&quot;, verdana, arial, sans-serif; font-size: 12px; fill: rgb(68, 68, 68); fill-opacity: 1; white-space: pre;">40</text></g><g class="ytick"><text text-anchor="end" x="79" y="4.199999999999999" data-unformatted="50" data-math="N" transform="translate(0,394.93)" style="font-family: &quot;Open Sans&quot;, verdana, arial, sans-serif; font-size: 12px; fill: rgb(68, 68, 68); fill-opacity: 1; white-space: pre;">50</text></g><g class="ytick"><text text-anchor="end" x="79" y="4.199999999999999" data-unformatted="60" data-math="N" transform="translate(0,305.52)" style="font-family: &quot;Open Sans&quot;, verdana, arial, sans-serif; font-size: 12px; fill: rgb(68, 68, 68); fill-opacity: 1; white-space: pre;">60</text></g><g class="ytick"><text text-anchor="end" x="79" y="4.199999999999999" data-unformatted="70" data-math="N" transform="translate(0,216.1)" style="font-family: &quot;Open Sans&quot;, verdana, arial, sans-serif; font-size: 12px; fill: rgb(68, 68, 68); fill-opacity: 1; white-space: pre;">70</text></g><g class="ytick"><text text-anchor="end" x="79" y="4.199999999999999" data-unformatted="80" data-math="N" transform="translate(0,126.68)" style="font-family: &quot;Open Sans&quot;, verdana, arial, sans-serif; font-size: 12px; fill: rgb(68, 68, 68); fill-opacity: 1; white-space: pre;">80</text></g></g><g class="overaxes-above"></g></g></g><g class="polarlayer"></g><g class="ternarylayer"></g><g class="geolayer"></g><g class="funnelarealayer"></g><g class="pielayer"></g><g class="treemaplayer"></g><g class="sunburstlayer"></g><g class="glimages"></g></svg><div class="gl-container"></div><svg class="main-svg" style="position: absolute" xmlns="http://www.w3.org/2000/svg" xmlns:xlink="http://www.w3.org/1999/xlink" width="904.225352112676" height="642"><defs id="topdefs-c9376e"><g class="clips"></g><clipPath id="legendc9376e"><rect width="198" height="48" x="0" y="0"></rect></clipPath></defs><g class="indicatorlayer"></g><g class="layer-above"><g class="imagelayer"></g><g class="shapelayer"></g></g><g class="infolayer"><g class="legend" pointer-events="all" transform="translate(694.04,100)"><rect class="bg" shape-rendering="crispEdges" style="stroke: rgb(68, 68, 68); stroke-opacity: 1; fill: rgb(255, 255, 255); fill-opacity: 1; stroke-width: 0px;" width="198" height="48" x="0" y="0"></rect><g class="scrollbox" transform="" clip-path="url('#legendc9376e')"><g class="groups"><g class="traces" transform="translate(0,14.5)" style="opacity: 1;"><text class="legendtext" text-anchor="start" x="40" y="4.680000000000001" data-unformatted="Lauric Acid" data-math="N" style="font-family: &quot;Open Sans&quot;, verdana, arial, sans-serif; font-size: 12px; fill: rgb(68, 68, 68); fill-opacity: 1; white-space: pre;">Lauric Acid</text><g class="layers" style="opacity: 1;"><g class="legendfill"></g><g class="legendlines"><path class="js-line" d="M5,0h30" style="fill: none; stroke: rgb(255, 127, 14); stroke-opacity: 1; stroke-width: 3px;"></path></g><g class="legendsymbols"><g class="legendpoints"></g></g></g><rect class="legendtoggle" pointer-events="all" x="0" y="-9.5" width="192.953125" height="19" style="cursor: pointer; fill: rgb(0, 0, 0); fill-opacity: 0;"></rect></g><g class="traces" style="opacity: 1;" transform="translate(0,33.5)"><text class="legendtext" text-anchor="start" x="40" y="4.680000000000001" data-unformatted="Lauric Acid with Bezoic acid" data-math="N" style="font-family: &quot;Open Sans&quot;, verdana, arial, sans-serif; font-size: 12px; fill: rgb(68, 68, 68); fill-opacity: 1; white-space: pre;">Lauric Acid with Bezoic acid</text><g class="layers" style="opacity: 1;"><g class="legendfill"></g><g class="legendlines"><path class="js-line" d="M5,0h30" style="fill: none; stroke: rgb(31, 119, 180); stroke-opacity: 1; stroke-width: 3px;"></path></g><g class="legendsymbols"><g class="legendpoints"></g></g></g><rect class="legendtoggle" pointer-events="all" x="0" y="-9.5" width="192.953125" height="19" style="cursor: pointer; fill: rgb(0, 0, 0); fill-opacity: 0;"></rect></g></g></g><rect class="scrollbar" rx="20" ry="3" width="0" height="0" style="fill: rgb(128, 139, 164); fill-opacity: 1;" x="0" y="0"></rect></g><g class="g-gtitle"><text class="gtitle" x="452.112676056338" y="50" text-anchor="middle" dy="0em" data-unformatted="Figure 1: Time V.S. Temperature" data-math="N" style="font-family: &quot;Open Sans&quot;, verdana, arial, sans-serif; font-size: 17px; fill: rgb(68, 68, 68); opacity: 1; font-weight: normal; white-space: pre;">Figure 1: Time V.S. Temperature</text></g><g class="g-xtitle"><text class="xtitle" x="381" y="614" text-anchor="middle" data-unformatted="Time (min)" data-math="N" style="font-family: &quot;Open Sans&quot;, verdana, arial, sans-serif; font-size: 14px; fill: rgb(68, 68, 68); opacity: 1; font-weight: normal; white-space: pre;">Time (min)</text></g><g class="g-ytitle"><text class="ytitle" transform="rotate(-90,42,331)" x="42" y="331" text-anchor="middle" data-unformatted="Temperature (°C)" data-math="N" style="font-family: &quot;Open Sans&quot;, verdana, arial, sans-serif; font-size: 14px; fill: rgb(68, 68, 68); opacity: 1; font-weight: normal; white-space: pre;">Temperature (°C)</text></g></g><g class="menulayer"></g><g class="zoomlayer"></g></svg><div class="modebar-container" style="position: absolute; top: 0px; right: 0px; width: 100%;"><div id="modebar-c9376e" class="modebar modebar--hover ease-bg"><div class="modebar-group"><a rel="tooltip" class="modebar-btn" data-title="Download plot as a png" data-toggle="false" data-gravity="n"><svg viewBox="0 0 1000 1000" class="icon" height="1em" width="1em"><path d="m500 450c-83 0-150-67-150-150 0-83 67-150 150-150 83 0 150 67 150 150 0 83-67 150-150 150z m400 150h-120c-16 0-34 13-39 29l-31 93c-6 15-23 28-40 28h-340c-16 0-34-13-39-28l-31-94c-6-15-23-28-40-28h-120c-55 0-100-45-100-100v-450c0-55 45-100 100-100h800c55 0 100 45 100 100v450c0 55-45 100-100 100z m-400-550c-138 0-250 112-250 250 0 138 112 250 250 250 138 0 250-112 250-250 0-138-112-250-250-250z m365 380c-19 0-35 16-35 35 0 19 16 35 35 35 19 0 35-16 35-35 0-19-16-35-35-35z" transform="matrix(1 0 0 -1 0 850)"></path></svg></a></div><div class="modebar-group"><a rel="tooltip" class="modebar-btn active" data-title="Zoom" data-attr="dragmode" data-val="zoom" data-toggle="false" data-gravity="n"><svg viewBox="0 0 1000 1000" class="icon" height="1em" width="1em"><path d="m1000-25l-250 251c40 63 63 138 63 218 0 224-182 406-407 406-224 0-406-182-406-406s183-406 407-406c80 0 155 22 218 62l250-250 125 125z m-812 250l0 438 437 0 0-438-437 0z m62 375l313 0 0-312-313 0 0 312z" transform="matrix(1 0 0 -1 0 850)"></path></svg></a><a rel="tooltip" class="modebar-btn" data-title="Pan" data-attr="dragmode" data-val="pan" data-toggle="false" data-gravity="n"><svg viewBox="0 0 1000 1000" class="icon" height="1em" width="1em"><path d="m1000 350l-187 188 0-125-250 0 0 250 125 0-188 187-187-187 125 0 0-250-250 0 0 125-188-188 186-187 0 125 252 0 0-250-125 0 187-188 188 188-125 0 0 250 250 0 0-126 187 188z" transform="matrix(1 0 0 -1 0 850)"></path></svg></a></div><div class="modebar-group"><a rel="tooltip" class="modebar-btn" data-title="Zoom in" data-attr="zoom" data-val="in" data-toggle="false" data-gravity="n"><svg viewBox="0 0 875 1000" class="icon" height="1em" width="1em"><path d="m1 787l0-875 875 0 0 875-875 0z m687-500l-187 0 0-187-125 0 0 187-188 0 0 125 188 0 0 187 125 0 0-187 187 0 0-125z" transform="matrix(1 0 0 -1 0 850)"></path></svg></a><a rel="tooltip" class="modebar-btn" data-title="Zoom out" data-attr="zoom" data-val="out" data-toggle="false" data-gravity="n"><svg viewBox="0 0 875 1000" class="icon" height="1em" width="1em"><path d="m0 788l0-876 875 0 0 876-875 0z m688-500l-500 0 0 125 500 0 0-125z" transform="matrix(1 0 0 -1 0 850)"></path></svg></a><a rel="tooltip" class="modebar-btn" data-title="Autoscale" data-attr="zoom" data-val="auto" data-toggle="false" data-gravity="n"><svg viewBox="0 0 1000 1000" class="icon" height="1em" width="1em"><path d="m250 850l-187 0-63 0 0-62 0-188 63 0 0 188 187 0 0 62z m688 0l-188 0 0-62 188 0 0-188 62 0 0 188 0 62-62 0z m-875-938l0 188-63 0 0-188 0-62 63 0 187 0 0 62-187 0z m875 188l0-188-188 0 0-62 188 0 62 0 0 62 0 188-62 0z m-125 188l-1 0-93-94-156 156 156 156 92-93 2 0 0 250-250 0 0-2 93-92-156-156-156 156 94 92 0 2-250 0 0-250 0 0 93 93 157-156-157-156-93 94 0 0 0-250 250 0 0 0-94 93 156 157 156-157-93-93 0 0 250 0 0 250z" transform="matrix(1 0 0 -1 0 850)"></path></svg></a><a rel="tooltip" class="modebar-btn" data-title="Reset axes" data-attr="zoom" data-val="reset" data-toggle="false" data-gravity="n"><svg viewBox="0 0 928.6 1000" class="icon" height="1em" width="1em"><path d="m786 296v-267q0-15-11-26t-25-10h-214v214h-143v-214h-214q-15 0-25 10t-11 26v267q0 1 0 2t0 2l321 264 321-264q1-1 1-4z m124 39l-34-41q-5-5-12-6h-2q-7 0-12 3l-386 322-386-322q-7-4-13-4-7 2-12 7l-35 41q-4 5-3 13t6 12l401 334q18 15 42 15t43-15l136-114v109q0 8 5 13t13 5h107q8 0 13-5t5-13v-227l122-102q5-5 6-12t-4-13z" transform="matrix(1 0 0 -1 0 850)"></path></svg></a></div><div class="modebar-group"><a rel="tooltip" class="modebar-btn" data-title="Toggle Spike Lines" data-attr="_cartesianSpikesEnabled" data-val="on" data-toggle="false" data-gravity="n"><svg viewBox="0 0 1000 1000" class="icon" height="1em" width="1em"><path d="M512 409c0-57-46-104-103-104-57 0-104 47-104 104 0 57 47 103 104 103 57 0 103-46 103-103z m-327-39l92 0 0 92-92 0z m-185 0l92 0 0 92-92 0z m370-186l92 0 0 93-92 0z m0-184l92 0 0 92-92 0z" transform="matrix(1.5 0 0 -1.5 0 850)"></path></svg></a><a rel="tooltip" class="modebar-btn active" data-title="Show closest data on hover" data-attr="hovermode" data-val="closest" data-toggle="false" data-gravity="ne"><svg viewBox="0 0 1500 1000" class="icon" height="1em" width="1em"><path d="m375 725l0 0-375-375 375-374 0-1 1125 0 0 750-1125 0z" transform="matrix(1 0 0 -1 0 850)"></path></svg></a><a rel="tooltip" class="modebar-btn" data-title="Compare data on hover" data-attr="hovermode" data-val="x" data-toggle="false" data-gravity="ne"><svg viewBox="0 0 1125 1000" class="icon" height="1em" width="1em"><path d="m187 786l0 2-187-188 188-187 0 0 937 0 0 373-938 0z m0-499l0 1-187-188 188-188 0 0 937 0 0 376-938-1z" transform="matrix(1 0 0 -1 0 850)"></path></svg></a></div></div></div><svg class="main-svg" style="position: absolute" xmlns="http://www.w3.org/2000/svg" xmlns:xlink="http://www.w3.org/1999/xlink" width="904.225352112676" height="642"><g class="hoverlayer"></g></svg>