<svg class="main-svg" style="position: absolute" xmlns="http://www.w3.org/2000/svg" xmlns:xlink="http://www.w3.org/1999/xlink" width="1215.4640522875818" height="642" style="background: rgb(255, 255, 255);"><defs id="defs-1ec06a"><g class="clips"><clipPath id="clip1ec06axyplot" class="plotclip"><rect width="1023" height="462"></rect></clipPath><clipPath class="axesclip" id="clip1ec06ax"><rect x="80" y="0" width="1023" height="642"></rect></clipPath><clipPath class="axesclip" id="clip1ec06ay"><rect x="0" y="100" width="1215.4640522875818" height="462"></rect></clipPath><clipPath class="axesclip" id="clip1ec06axy"><rect x="80" y="100" width="1023" height="462"></rect></clipPath></g><g class="gradients"></g></defs><g class="bglayer"></g><g class="draglayer cursor-crosshair"><g class="xy"><rect class="nsewdrag drag" data-subplot="xy" x="80" y="100" width="1023" height="462" style="fill: transparent; stroke-width: 0; pointer-events: all;"></rect><rect class="nwdrag drag cursor-nw-resize" data-subplot="xy" x="60" y="80" width="20" height="20" style="fill: transparent; stroke-width: 0; pointer-events: all;"></rect><rect class="nedrag drag cursor-ne-resize" data-subplot="xy" x="1103" y="80" width="20" height="20" style="fill: transparent; stroke-width: 0; pointer-events: all;"></rect><rect class="swdrag drag cursor-sw-resize" data-subplot="xy" x="60" y="562" width="20" height="20" style="fill: transparent; stroke-width: 0; pointer-events: all;"></rect><rect class="sedrag drag cursor-se-resize" data-subplot="xy" x="1103" y="562" width="20" height="20" style="fill: transparent; stroke-width: 0; pointer-events: all;"></rect><rect class="ewdrag drag cursor-ew-resize" data-subplot="xy" x="182.3" y="562.5" width="818.4000000000001" height="20" style="fill: transparent; stroke-width: 0; pointer-events: all;"></rect><rect class="wdrag drag cursor-w-resize" data-subplot="xy" x="80" y="562.5" width="102.30000000000001" height="20" style="fill: transparent; stroke-width: 0; pointer-events: all;"></rect><rect class="edrag drag cursor-e-resize" data-subplot="xy" x="1000.7" y="562.5" width="102.30000000000001" height="20" style="fill: transparent; stroke-width: 0; pointer-events: all;"></rect><rect class="nsdrag drag cursor-ns-resize" data-subplot="xy" x="59.5" y="146.2" width="20" height="369.6" style="fill: transparent; stroke-width: 0; pointer-events: all;"></rect><rect class="sdrag drag cursor-s-resize" data-subplot="xy" x="59.5" y="515.8" width="20" height="46.2" style="fill: transparent; stroke-width: 0; pointer-events: all;"></rect><rect class="ndrag drag cursor-n-resize" data-subplot="xy" x="59.5" y="100" width="20" height="46.2" style="fill: transparent; stroke-width: 0; pointer-events: all;"></rect></g></g><g class="layer-below"><g class="imagelayer"></g><g class="shapelayer"></g></g><g class="cartesianlayer"><g class="subplot xy"><g class="layer-subplot"><g class="shapelayer"></g><g class="imagelayer"></g></g><g class="gridlayer"><g class="x"><path class="xgrid crisp" transform="translate(134.15,0)" d="M0,100v462" style="stroke: rgb(238, 238, 238); stroke-opacity: 1; stroke-width: 1px;"></path><path class="xgrid crisp" transform="translate(251.42,0)" d="M0,100v462" style="stroke: rgb(238, 238, 238); stroke-opacity: 1; stroke-width: 1px;"></path><path class="xgrid crisp" transform="translate(368.69,0)" d="M0,100v462" style="stroke: rgb(238, 238, 238); stroke-opacity: 1; stroke-width: 1px;"></path><path class="xgrid crisp" transform="translate(485.96,0)" d="M0,100v462" style="stroke: rgb(238, 238, 238); stroke-opacity: 1; stroke-width: 1px;"></path><path class="xgrid crisp" transform="translate(603.23,0)" d="M0,100v462" style="stroke: rgb(238, 238, 238); stroke-opacity: 1; stroke-width: 1px;"></path><path class="xgrid crisp" transform="translate(720.5,0)" d="M0,100v462" style="stroke: rgb(238, 238, 238); stroke-opacity: 1; stroke-width: 1px;"></path><path class="xgrid crisp" transform="translate(837.77,0)" d="M0,100v462" style="stroke: rgb(238, 238, 238); stroke-opacity: 1; stroke-width: 1px;"></path><path class="xgrid crisp" transform="translate(955.03,0)" d="M0,100v462" style="stroke: rgb(238, 238, 238); stroke-opacity: 1; stroke-width: 1px;"></path><path class="xgrid crisp" transform="translate(1072.3,0)" d="M0,100v462" style="stroke: rgb(238, 238, 238); stroke-opacity: 1; stroke-width: 1px;"></path></g><g class="y"><path class="ygrid crisp" transform="translate(0,522.9100000000001)" d="M80,0h1023" style="stroke: rgb(238, 238, 238); stroke-opacity: 1; stroke-width: 1px;"></path><path class="ygrid crisp" transform="translate(0,442.95)" d="M80,0h1023" style="stroke: rgb(238, 238, 238); stroke-opacity: 1; stroke-width: 1px;"></path><path class="ygrid crisp" transform="translate(0,362.98)" d="M80,0h1023" style="stroke: rgb(238, 238, 238); stroke-opacity: 1; stroke-width: 1px;"></path><path class="ygrid crisp" transform="translate(0,283.02)" d="M80,0h1023" style="stroke: rgb(238, 238, 238); stroke-opacity: 1; stroke-width: 1px;"></path><path class="ygrid crisp" transform="translate(0,203.06)" d="M80,0h1023" style="stroke: rgb(238, 238, 238); stroke-opacity: 1; stroke-width: 1px;"></path><path class="ygrid crisp" transform="translate(0,123.1)" d="M80,0h1023" style="stroke: rgb(238, 238, 238); stroke-opacity: 1; stroke-width: 1px;"></path></g></g><g class="zerolinelayer"></g><path class="xlines-below"></path><path class="ylines-below"></path><g class="overlines-below"></g><g class="xaxislayer-below"></g><g class="yaxislayer-below"></g><g class="overaxes-below"></g><g class="plot" transform="translate(80,100)" clip-path="url('#clip1ec06axyplot')"><g class="scatterlayer mlayer"><g class="trace scatter traced575f4" style="stroke-miterlimit: 2; opacity: 1;"><g class="fills"></g><g class="errorbars"><g class="errorbar"></g><g class="errorbar"><path class="yerror" d="M42.15,23.1h24m-12,0V183.02m-12,0h24" style="vector-effect: non-scaling-stroke; stroke-width: 2px; stroke: rgb(255, 153, 0); stroke-opacity: 1;"></path></g><g class="errorbar"><path class="yerror" d="M464.32,235h24m-12,0V274.98m-12,0h24" style="vector-effect: non-scaling-stroke; stroke-width: 2px; stroke: rgb(255, 153, 0); stroke-opacity: 1;"></path></g><g class="errorbar"><path class="yerror" d="M558.13,294.97h24m-12,0V302.97m-12,0h24" style="vector-effect: non-scaling-stroke; stroke-width: 2px; stroke: rgb(255, 153, 0); stroke-opacity: 1;"></path></g><g class="errorbar"><path class="yerror" d="M581.59,262.98h24m-12,0V422.91m-12,0h24" style="vector-effect: non-scaling-stroke; stroke-width: 2px; stroke: rgb(255, 153, 0); stroke-opacity: 1;"></path></g><g class="errorbar"><path class="yerror" d="M628.5,302.97h24m-12,0V438.9m-12,0h24" style="vector-effect: non-scaling-stroke; stroke-width: 2px; stroke: rgb(255, 153, 0); stroke-opacity: 1;"></path></g><g class="errorbar"><path class="yerror" d="M675.4,326.95h24m-12,0V334.95m-12,0h24" style="vector-effect: non-scaling-stroke; stroke-width: 2px; stroke: rgb(255, 153, 0); stroke-opacity: 1;"></path></g><g class="errorbar"><path class="yerror" d="M863.03,274.98h24m-12,0V282.97m-12,0h24" style="vector-effect: non-scaling-stroke; stroke-width: 2px; stroke: rgb(255, 153, 0); stroke-opacity: 1;"></path></g><g class="errorbar"><path class="yerror" d="M956.85,278.98h24m-12,0V286.97m-12,0h24" style="vector-effect: non-scaling-stroke; stroke-width: 2px; stroke: rgb(255, 153, 0); stroke-opacity: 1;"></path></g></g><g class="lines"><path class="js-line" d="M54.15,103.06L476.32,254.99L570.13,298.97L593.59,342.95L640.5,370.93L687.4,330.95L875.03,278.98L968.85,282.98" style="vector-effect: non-scaling-stroke; fill: none; stroke: rgb(17, 73, 163); stroke-opacity: 1; stroke-width: 2px; opacity: 1;"></path></g><g class="points"><path class="point" transform="translate(54.15,103.06)" d="M2,2H-2V-2H2Z" style="opacity: 1; stroke-width: 0px; fill: rgb(5, 12, 170); fill-opacity: 1;"></path><path class="point" transform="translate(476.32,254.99)" d="M2,2H-2V-2H2Z" style="opacity: 1; stroke-width: 0px; fill: rgb(5, 12, 170); fill-opacity: 1;"></path><path class="point" transform="translate(570.13,298.97)" d="M2,2H-2V-2H2Z" style="opacity: 1; stroke-width: 0px; fill: rgb(5, 12, 170); fill-opacity: 1;"></path><path class="point" transform="translate(593.59,342.95)" d="M2,2H-2V-2H2Z" style="opacity: 1; stroke-width: 0px; fill: rgb(5, 12, 170); fill-opacity: 1;"></path><path class="point" transform="translate(640.5,370.93)" d="M2,2H-2V-2H2Z" style="opacity: 1; stroke-width: 0px; fill: rgb(5, 12, 170); fill-opacity: 1;"></path><path class="point" transform="translate(687.4,330.95)" d="M2,2H-2V-2H2Z" style="opacity: 1; stroke-width: 0px; fill: rgb(5, 12, 170); fill-opacity: 1;"></path><path class="point" transform="translate(875.03,278.98)" d="M2,2H-2V-2H2Z" style="opacity: 1; stroke-width: 0px; fill: rgb(5, 12, 170); fill-opacity: 1;"></path><path class="point" transform="translate(968.85,282.98)" d="M2,2H-2V-2H2Z" style="opacity: 1; stroke-width: 0px; fill: rgb(5, 12, 170); fill-opacity: 1;"></path></g><g class="text"></g></g></g></g><g class="overplot"></g><path class="xlines-above crisp" d="M0,0" style="fill: none;"></path><path class="ylines-above crisp" style="fill: none;" d="M0,0"></path><g class="overlines-above"></g><g class="xaxislayer-above"><g class="xtick"><text text-anchor="middle" x="0" y="577" data-unformatted="1975" data-math="N" transform="translate(134.15,0)" style="font-family: &quot;Droid Sans&quot;, sans-serif; font-size: 14px; fill: rgb(0, 0, 0); fill-opacity: 1; white-space: pre;">1975</text></g><g class="xtick"><text text-anchor="middle" x="0" y="577" data-unformatted="1980" data-math="N" transform="translate(251.42,0)" style="font-family: &quot;Droid Sans&quot;, sans-serif; font-size: 14px; fill: rgb(0, 0, 0); fill-opacity: 1; white-space: pre;">1980</text></g><g class="xtick"><text text-anchor="middle" x="0" y="577" data-unformatted="1985" data-math="N" transform="translate(368.69,0)" style="font-family: &quot;Droid Sans&quot;, sans-serif; font-size: 14px; fill: rgb(0, 0, 0); fill-opacity: 1; white-space: pre;">1985</text></g><g class="xtick"><text text-anchor="middle" x="0" y="577" data-unformatted="1990" data-math="N" transform="translate(485.96,0)" style="font-family: &quot;Droid Sans&quot;, sans-serif; font-size: 14px; fill: rgb(0, 0, 0); fill-opacity: 1; white-space: pre;">1990</text></g><g class="xtick"><text text-anchor="middle" x="0" y="577" data-unformatted="1995" data-math="N" transform="translate(603.23,0)" style="font-family: &quot;Droid Sans&quot;, sans-serif; font-size: 14px; fill: rgb(0, 0, 0); fill-opacity: 1; white-space: pre;">1995</text></g><g class="xtick"><text text-anchor="middle" x="0" y="577" data-unformatted="2000" data-math="N" transform="translate(720.5,0)" style="font-family: &quot;Droid Sans&quot;, sans-serif; font-size: 14px; fill: rgb(0, 0, 0); fill-opacity: 1; white-space: pre;">2000</text></g><g class="xtick"><text text-anchor="middle" x="0" y="577" data-unformatted="2005" data-math="N" transform="translate(837.77,0)" style="font-family: &quot;Droid Sans&quot;, sans-serif; font-size: 14px; fill: rgb(0, 0, 0); fill-opacity: 1; white-space: pre;">2005</text></g><g class="xtick"><text text-anchor="middle" x="0" y="577" data-unformatted="2010" data-math="N" transform="translate(955.03,0)" style="font-family: &quot;Droid Sans&quot;, sans-serif; font-size: 14px; fill: rgb(0, 0, 0); fill-opacity: 1; white-space: pre;">2010</text></g><g class="xtick"><text text-anchor="middle" x="0" y="577" data-unformatted="2015" data-math="N" transform="translate(1072.3,0)" style="font-family: &quot;Droid Sans&quot;, sans-serif; font-size: 14px; fill: rgb(0, 0, 0); fill-opacity: 1; white-space: pre;">2015</text></g></g><g class="yaxislayer-above"><g class="ytick"><text text-anchor="end" x="79" y="4.8999999999999995" data-unformatted="2.2" data-math="N" transform="translate(0,522.9100000000001)" style="font-family: &quot;Droid Sans&quot;, sans-serif; font-size: 14px; fill: rgb(0, 0, 0); fill-opacity: 1; white-space: pre;">2.2</text></g><g class="ytick"><text text-anchor="end" x="79" y="4.8999999999999995" data-unformatted="2.4" data-math="N" transform="translate(0,442.95)" style="font-family: &quot;Droid Sans&quot;, sans-serif; font-size: 14px; fill: rgb(0, 0, 0); fill-opacity: 1; white-space: pre;">2.4</text></g><g class="ytick"><text text-anchor="end" x="79" y="4.8999999999999995" data-unformatted="2.6" data-math="N" transform="translate(0,362.98)" style="font-family: &quot;Droid Sans&quot;, sans-serif; font-size: 14px; fill: rgb(0, 0, 0); fill-opacity: 1; white-space: pre;">2.6</text></g><g class="ytick"><text text-anchor="end" x="79" y="4.8999999999999995" data-unformatted="2.8" data-math="N" transform="translate(0,283.02)" style="font-family: &quot;Droid Sans&quot;, sans-serif; font-size: 14px; fill: rgb(0, 0, 0); fill-opacity: 1; white-space: pre;">2.8</text></g><g class="ytick"><text text-anchor="end" x="79" y="4.8999999999999995" data-unformatted="3" data-math="N" transform="translate(0,203.06)" style="font-family: &quot;Droid Sans&quot;, sans-serif; font-size: 14px; fill: rgb(0, 0, 0); fill-opacity: 1; white-space: pre;">3</text></g><g class="ytick"><text text-anchor="end" x="79" y="4.8999999999999995" data-unformatted="3.2" data-math="N" transform="translate(0,123.1)" style="font-family: &quot;Droid Sans&quot;, sans-serif; font-size: 14px; fill: rgb(0, 0, 0); fill-opacity: 1; white-space: pre;">3.2</text></g></g><g class="overaxes-above"></g></g></g><g class="polarlayer"></g><g class="ternarylayer"></g><g class="geolayer"></g><g class="funnelarealayer"></g><g class="pielayer"></g><g class="treemaplayer"></g><g class="sunburstlayer"></g><g class="glimages"></g></svg><div class="gl-container"></div><svg class="main-svg" style="position: absolute" xmlns="http://www.w3.org/2000/svg" xmlns:xlink="http://www.w3.org/1999/xlink" width="1215.4640522875818" height="642"><defs id="topdefs-1ec06a"><g class="clips"></g><clipPath id="legend1ec06a"><rect width="120" height="34" x="0" y="0"></rect></clipPath></defs><g class="indicatorlayer"></g><g class="layer-above"><g class="imagelayer"></g><g class="shapelayer"></g></g><g class="infolayer"><g class="legend" pointer-events="all" transform="translate(1082.633996937213,113.24731182795696)"><rect class="bg" shape-rendering="crispEdges" style="stroke: rgb(68, 68, 68); stroke-opacity: 1; fill: rgb(255, 255, 255); fill-opacity: 1; stroke-width: 0px;" width="120" height="34" x="0" y="0"></rect><g class="scrollbox" transform="" clip-path="url('#legend1ec06a')"><g class="groups"><g class="traces" transform="translate(0,16.9)" style="opacity: 1;"><text class="legendtext" text-anchor="start" x="40" y="6.24" data-unformatted="Avg. Mass" data-math="N" style="font-family: &quot;Droid Sans&quot;, sans-serif; font-size: 16px; fill: rgb(0, 0, 0); fill-opacity: 1; white-space: pre;">Avg. Mass</text><g class="layers" style="opacity: 1;"><g class="legendfill"></g><g class="legendlines"><path class="js-line" d="M5,0h30" style="fill: none; stroke: rgb(17, 73, 163); stroke-opacity: 1; stroke-width: 2px;"></path></g><g class="legendsymbols"><g class="legendpoints"><path class="scatterpts" transform="translate(20,0)" d="M2,2H-2V-2H2Z" style="opacity: 1; stroke-width: 0px; fill: rgb(5, 12, 170); fill-opacity: 1;"></path></g></g></g><rect class="legendtoggle" pointer-events="all" x="0" y="-11.9" width="114.40625" height="23.8" style="cursor: pointer; fill: rgb(0, 0, 0); fill-opacity: 0;"></rect></g></g></g><rect class="scrollbar" rx="20" ry="3" width="0" height="0" style="fill: rgb(128, 139, 164); fill-opacity: 1;" x="0" y="0"></rect></g><g class="g-gtitle"><text class="gtitle" x="607.7320261437909" y="50" text-anchor="middle" dy="0em" data-unformatted="The Change in Average Mass of Pennies Throughout the Years" data-math="N" style="font-family: &quot;Droid Sans&quot;, sans-serif; font-size: 20px; fill: rgb(0, 0, 0); opacity: 1; font-weight: normal; white-space: pre;">The Change in Average Mass of Pennies Throughout the Years</text></g><g class="g-xtitle"><text class="xtitle" x="591.5" y="623" text-anchor="middle" data-unformatted="Years" data-math="N" style="font-family: &quot;Droid Sans&quot;, sans-serif; font-size: 17px; fill: rgb(0, 0, 0); opacity: 1; font-weight: normal; white-space: pre;">Years</text></g><g class="g-ytitle"><text class="ytitle" transform="rotate(-90,36,331)" x="36" y="331" text-anchor="middle" data-unformatted="Mass (g)" data-math="N" style="font-family: &quot;Droid Sans&quot;, sans-serif; font-size: 17px; fill: rgb(0, 0, 0); opacity: 1; font-weight: normal; white-space: pre;">Mass (g)</text></g></g><g class="menulayer"></g><g class="zoomlayer"></g></svg><div class="modebar-container" style="position: absolute; top: 0px; right: 0px; width: 100%;"><div id="modebar-1ec06a" class="modebar modebar--hover ease-bg"><div class="modebar-group"><a rel="tooltip" class="modebar-btn" data-title="Download plot as a png" data-toggle="false" data-gravity="n"><svg viewBox="0 0 1000 1000" class="icon" height="1em" width="1em"><path d="m500 450c-83 0-150-67-150-150 0-83 67-150 150-150 83 0 150 67 150 150 0 83-67 150-150 150z m400 150h-120c-16 0-34 13-39 29l-31 93c-6 15-23 28-40 28h-340c-16 0-34-13-39-28l-31-94c-6-15-23-28-40-28h-120c-55 0-100-45-100-100v-450c0-55 45-100 100-100h800c55 0 100 45 100 100v450c0 55-45 100-100 100z m-400-550c-138 0-250 112-250 250 0 138 112 250 250 250 138 0 250-112 250-250 0-138-112-250-250-250z m365 380c-19 0-35 16-35 35 0 19 16 35 35 35 19 0 35-16 35-35 0-19-16-35-35-35z" transform="matrix(1 0 0 -1 0 850)"></path></svg></a></div><div class="modebar-group"><a rel="tooltip" class="modebar-btn active" data-title="Zoom" data-attr="dragmode" data-val="zoom" data-toggle="false" data-gravity="n"><svg viewBox="0 0 1000 1000" class="icon" height="1em" width="1em"><path d="m1000-25l-250 251c40 63 63 138 63 218 0 224-182 406-407 406-224 0-406-182-406-406s183-406 407-406c80 0 155 22 218 62l250-250 125 125z m-812 250l0 438 437 0 0-438-437 0z m62 375l313 0 0-312-313 0 0 312z" transform="matrix(1 0 0 -1 0 850)"></path></svg></a><a rel="tooltip" class="modebar-btn" data-title="Pan" data-attr="dragmode" data-val="pan" data-toggle="false" data-gravity="n"><svg viewBox="0 0 1000 1000" class="icon" height="1em" width="1em"><path d="m1000 350l-187 188 0-125-250 0 0 250 125 0-188 187-187-187 125 0 0-250-250 0 0 125-188-188 186-187 0 125 252 0 0-250-125 0 187-188 188 188-125 0 0 250 250 0 0-126 187 188z" transform="matrix(1 0 0 -1 0 850)"></path></svg></a><a rel="tooltip" class="modebar-btn" data-title="Box Select" data-attr="dragmode" data-val="select" data-toggle="false" data-gravity="n"><svg viewBox="0 0 1000 1000" class="icon" height="1em" width="1em"><path d="m0 850l0-143 143 0 0 143-143 0z m286 0l0-143 143 0 0 143-143 0z m285 0l0-143 143 0 0 143-143 0z m286 0l0-143 143 0 0 143-143 0z m-857-286l0-143 143 0 0 143-143 0z m857 0l0-143 143 0 0 143-143 0z m-857-285l0-143 143 0 0 143-143 0z m857 0l0-143 143 0 0 143-143 0z m-857-286l0-143 143 0 0 143-143 0z m286 0l0-143 143 0 0 143-143 0z m285 0l0-143 143 0 0 143-143 0z m286 0l0-143 143 0 0 143-143 0z" transform="matrix(1 0 0 -1 0 850)"></path></svg></a><a rel="tooltip" class="modebar-btn" data-title="Lasso Select" data-attr="dragmode" data-val="lasso" data-toggle="false" data-gravity="n"><svg viewBox="0 0 1031 1000" class="icon" height="1em" width="1em"><path d="m1018 538c-36 207-290 336-568 286-277-48-473-256-436-463 10-57 36-108 76-151-13-66 11-137 68-183 34-28 75-41 114-42l-55-70 0 0c-2-1-3-2-4-3-10-14-8-34 5-45 14-11 34-8 45 4 1 1 2 3 2 5l0 0 113 140c16 11 31 24 45 40 4 3 6 7 8 11 48-3 100 0 151 9 278 48 473 255 436 462z m-624-379c-80 14-149 48-197 96 42 42 109 47 156 9 33-26 47-66 41-105z m-187-74c-19 16-33 37-39 60 50-32 109-55 174-68-42-25-95-24-135 8z m360 75c-34-7-69-9-102-8 8 62-16 128-68 170-73 59-175 54-244-5-9 20-16 40-20 61-28 159 121 317 333 354s407-60 434-217c28-159-121-318-333-355z" transform="matrix(1 0 0 -1 0 850)"></path></svg></a></div><div class="modebar-group"><a rel="tooltip" class="modebar-btn" data-title="Zoom in" data-attr="zoom" data-val="in" data-toggle="false" data-gravity="n"><svg viewBox="0 0 875 1000" class="icon" height="1em" width="1em"><path d="m1 787l0-875 875 0 0 875-875 0z m687-500l-187 0 0-187-125 0 0 187-188 0 0 125 188 0 0 187 125 0 0-187 187 0 0-125z" transform="matrix(1 0 0 -1 0 850)"></path></svg></a><a rel="tooltip" class="modebar-btn" data-title="Zoom out" data-attr="zoom" data-val="out" data-toggle="false" data-gravity="n"><svg viewBox="0 0 875 1000" class="icon" height="1em" width="1em"><path d="m0 788l0-876 875 0 0 876-875 0z m688-500l-500 0 0 125 500 0 0-125z" transform="matrix(1 0 0 -1 0 850)"></path></svg></a><a rel="tooltip" class="modebar-btn" data-title="Autoscale" data-attr="zoom" data-val="auto" data-toggle="false" data-gravity="n"><svg viewBox="0 0 1000 1000" class="icon" height="1em" width="1em"><path d="m250 850l-187 0-63 0 0-62 0-188 63 0 0 188 187 0 0 62z m688 0l-188 0 0-62 188 0 0-188 62 0 0 188 0 62-62 0z m-875-938l0 188-63 0 0-188 0-62 63 0 187 0 0 62-187 0z m875 188l0-188-188 0 0-62 188 0 62 0 0 62 0 188-62 0z m-125 188l-1 0-93-94-156 156 156 156 92-93 2 0 0 250-250 0 0-2 93-92-156-156-156 156 94 92 0 2-250 0 0-250 0 0 93 93 157-156-157-156-93 94 0 0 0-250 250 0 0 0-94 93 156 157 156-157-93-93 0 0 250 0 0 250z" transform="matrix(1 0 0 -1 0 850)"></path></svg></a><a rel="tooltip" class="modebar-btn" data-title="Reset axes" data-attr="zoom" data-val="reset" data-toggle="false" data-gravity="n"><svg viewBox="0 0 928.6 1000" class="icon" height="1em" width="1em"><path d="m786 296v-267q0-15-11-26t-25-10h-214v214h-143v-214h-214q-15 0-25 10t-11 26v267q0 1 0 2t0 2l321 264 321-264q1-1 1-4z m124 39l-34-41q-5-5-12-6h-2q-7 0-12 3l-386 322-386-322q-7-4-13-4-7 2-12 7l-35 41q-4 5-3 13t6 12l401 334q18 15 42 15t43-15l136-114v109q0 8 5 13t13 5h107q8 0 13-5t5-13v-227l122-102q5-5 6-12t-4-13z" transform="matrix(1 0 0 -1 0 850)"></path></svg></a></div><div class="modebar-group"><a rel="tooltip" class="modebar-btn" data-title="Toggle Spike Lines" data-attr="_cartesianSpikesEnabled" data-val="on" data-toggle="false" data-gravity="n"><svg viewBox="0 0 1000 1000" class="icon" height="1em" width="1em"><path d="M512 409c0-57-46-104-103-104-57 0-104 47-104 104 0 57 47 103 104 103 57 0 103-46 103-103z m-327-39l92 0 0 92-92 0z m-185 0l92 0 0 92-92 0z m370-186l92 0 0 93-92 0z m0-184l92 0 0 92-92 0z" transform="matrix(1.5 0 0 -1.5 0 850)"></path></svg></a><a rel="tooltip" class="modebar-btn" data-title="Show closest data on hover" data-attr="hovermode" data-val="closest" data-toggle="false" data-gravity="ne"><svg viewBox="0 0 1500 1000" class="icon" height="1em" width="1em"><path d="m375 725l0 0-375-375 375-374 0-1 1125 0 0 750-1125 0z" transform="matrix(1 0 0 -1 0 850)"></path></svg></a><a rel="tooltip" class="modebar-btn active" data-title="Compare data on hover" data-attr="hovermode" data-val="x" data-toggle="false" data-gravity="ne"><svg viewBox="0 0 1125 1000" class="icon" height="1em" width="1em"><path d="m187 786l0 2-187-188 188-187 0 0 937 0 0 373-938 0z m0-499l0 1-187-188 188-188 0 0 937 0 0 376-938-1z" transform="matrix(1 0 0 -1 0 850)"></path></svg></a></div></div></div><svg class="main-svg" style="position: absolute" xmlns="http://www.w3.org/2000/svg" xmlns:xlink="http://www.w3.org/1999/xlink" width="1215.4640522875818" height="642"><g class="hoverlayer"></g></svg>