<svg class="main-svg" style="position: absolute" xmlns="http://www.w3.org/2000/svg" xmlns:xlink="http://www.w3.org/1999/xlink" width="1363.18" height="642" style="background: rgb(255, 255, 255);"><defs id="defs-a439b8"><g class="clips"><clipPath id="clipa439b8xyplot" class="plotclip"><rect width="1162" height="462"></rect></clipPath><clipPath class="axesclip" id="clipa439b8x"><rect x="80" y="0" width="1162" height="642"></rect></clipPath><clipPath class="axesclip" id="clipa439b8y"><rect x="0" y="100" width="1363.18" height="462"></rect></clipPath><clipPath class="axesclip" id="clipa439b8xy"><rect x="80" y="100" width="1162" height="462"></rect></clipPath></g><g class="gradients"></g></defs><g class="bglayer"></g><g class="draglayer cursor-crosshair"><g class="xy"><rect class="nsewdrag drag" data-subplot="xy" x="80" y="100" width="1162" height="462" style="fill: transparent; stroke-width: 0; pointer-events: all;"></rect><rect class="nwdrag drag cursor-nw-resize" data-subplot="xy" x="60" y="80" width="20" height="20" style="fill: transparent; stroke-width: 0; pointer-events: all;"></rect><rect class="nedrag drag cursor-ne-resize" data-subplot="xy" x="1242" y="80" width="20" height="20" style="fill: transparent; stroke-width: 0; pointer-events: all;"></rect><rect class="swdrag drag cursor-sw-resize" data-subplot="xy" x="60" y="562" width="20" height="20" style="fill: transparent; stroke-width: 0; pointer-events: all;"></rect><rect class="sedrag drag cursor-se-resize" data-subplot="xy" x="1242" y="562" width="20" height="20" style="fill: transparent; stroke-width: 0; pointer-events: all;"></rect><rect class="ewdrag drag cursor-ew-resize" data-subplot="xy" x="196.2" y="562.5" width="929.6" height="20" style="fill: transparent; stroke-width: 0; pointer-events: all;"></rect><rect class="wdrag drag cursor-w-resize" data-subplot="xy" x="80" y="562.5" width="116.2" height="20" style="fill: transparent; stroke-width: 0; pointer-events: all;"></rect><rect class="edrag drag cursor-e-resize" data-subplot="xy" x="1125.8" y="562.5" width="116.2" height="20" style="fill: transparent; stroke-width: 0; pointer-events: all;"></rect><rect class="nsdrag drag cursor-ns-resize" data-subplot="xy" x="59.5" y="146.2" width="20" height="369.6" style="fill: transparent; stroke-width: 0; pointer-events: all;"></rect><rect class="sdrag drag cursor-s-resize" data-subplot="xy" x="59.5" y="515.8" width="20" height="46.2" style="fill: transparent; stroke-width: 0; pointer-events: all;"></rect><rect class="ndrag drag cursor-n-resize" data-subplot="xy" x="59.5" y="100" width="20" height="46.2" style="fill: transparent; stroke-width: 0; pointer-events: all;"></rect></g></g><g class="layer-below"><g class="imagelayer"></g><g class="shapelayer"></g></g><g class="cartesianlayer"><g class="subplot xy"><g class="layer-subplot"><g class="shapelayer"></g><g class="imagelayer"></g></g><g class="gridlayer"><g class="x"></g><g class="y"><path class="ygrid crisp" transform="translate(0,517.1)" d="M80,0h1162" style="stroke: rgb(238, 238, 238); stroke-opacity: 1; stroke-width: 1px;"></path><path class="ygrid crisp" transform="translate(0,447.33)" d="M80,0h1162" style="stroke: rgb(238, 238, 238); stroke-opacity: 1; stroke-width: 1px;"></path><path class="ygrid crisp" transform="translate(0,377.57)" d="M80,0h1162" style="stroke: rgb(238, 238, 238); stroke-opacity: 1; stroke-width: 1px;"></path><path class="ygrid crisp" transform="translate(0,307.8)" d="M80,0h1162" style="stroke: rgb(238, 238, 238); stroke-opacity: 1; stroke-width: 1px;"></path><path class="ygrid crisp" transform="translate(0,238.04)" d="M80,0h1162" style="stroke: rgb(238, 238, 238); stroke-opacity: 1; stroke-width: 1px;"></path><path class="ygrid crisp" transform="translate(0,168.26999999999998)" d="M80,0h1162" style="stroke: rgb(238, 238, 238); stroke-opacity: 1; stroke-width: 1px;"></path></g></g><g class="zerolinelayer"></g><path class="xlines-below"></path><path class="ylines-below"></path><g class="overlines-below"></g><g class="xaxislayer-below"></g><g class="yaxislayer-below"></g><g class="overaxes-below"></g><g class="plot" transform="translate(80,100)" clip-path="url('#clipa439b8xyplot')"><g class="scatterlayer mlayer"><g class="trace scatter tracedead05" style="stroke-miterlimit: 2; opacity: 1;"><g class="fills"></g><g class="errorbars"></g><g class="lines"></g><g class="points"><path class="point" transform="translate(1077.7,40.79)" d="M6,0A6,6 0 1,1 0,-6A6,6 0 0,1 6,0Z" style="opacity: 1; stroke-width: 0.5px; fill: rgb(164, 194, 244); fill-opacity: 1; stroke: rgb(255, 255, 255); stroke-opacity: 1;"></path><path class="point" transform="translate(924.66,124.22)" d="M6,0A6,6 0 1,1 0,-6A6,6 0 0,1 6,0Z" style="opacity: 1; stroke-width: 0.5px; fill: rgb(164, 194, 244); fill-opacity: 1; stroke: rgb(255, 255, 255); stroke-opacity: 1;"></path><path class="point" transform="translate(849.67,170.41)" d="M6,0A6,6 0 1,1 0,-6A6,6 0 0,1 6,0Z" style="opacity: 1; stroke-width: 0.5px; fill: rgb(164, 194, 244); fill-opacity: 1; stroke: rgb(255, 255, 255); stroke-opacity: 1;"></path><path class="point" transform="translate(1064.27,46.51)" d="M6,0A6,6 0 1,1 0,-6A6,6 0 0,1 6,0Z" style="opacity: 1; stroke-width: 0.5px; fill: rgb(164, 194, 244); fill-opacity: 1; stroke: rgb(255, 255, 255); stroke-opacity: 1;"></path><path class="point" transform="translate(1016.97,73.92)" d="M6,0A6,6 0 1,1 0,-6A6,6 0 0,1 6,0Z" style="opacity: 1; stroke-width: 0.5px; fill: rgb(164, 194, 244); fill-opacity: 1; stroke: rgb(255, 255, 255); stroke-opacity: 1;"></path><path class="point" transform="translate(1025.02,71.69)" d="M6,0A6,6 0 1,1 0,-6A6,6 0 0,1 6,0Z" style="opacity: 1; stroke-width: 0.5px; fill: rgb(164, 194, 244); fill-opacity: 1; stroke: rgb(255, 255, 255); stroke-opacity: 1;"></path><path class="point" transform="translate(1085.85,36.39)" d="M6,0A6,6 0 1,1 0,-6A6,6 0 0,1 6,0Z" style="opacity: 1; stroke-width: 0.5px; fill: rgb(164, 194, 244); fill-opacity: 1; stroke: rgb(255, 255, 255); stroke-opacity: 1;"></path><path class="point" transform="translate(883.09,133.78)" d="M6,0A6,6 0 1,1 0,-6A6,6 0 0,1 6,0Z" style="opacity: 1; stroke-width: 0.5px; fill: rgb(164, 194, 244); fill-opacity: 1; stroke: rgb(255, 255, 255); stroke-opacity: 1;"></path><path class="point" transform="translate(709.23,219.31)" d="M6,0A6,6 0 1,1 0,-6A6,6 0 0,1 6,0Z" style="opacity: 1; stroke-width: 0.5px; fill: rgb(164, 194, 244); fill-opacity: 1; stroke: rgb(255, 255, 255); stroke-opacity: 1;"></path><path class="point" transform="translate(1049,57.04)" d="M6,0A6,6 0 1,1 0,-6A6,6 0 0,1 6,0Z" style="opacity: 1; stroke-width: 0.5px; fill: rgb(164, 194, 244); fill-opacity: 1; stroke: rgb(255, 255, 255); stroke-opacity: 1;"></path><path class="point" transform="translate(1031.04,63.81)" d="M6,0A6,6 0 1,1 0,-6A6,6 0 0,1 6,0Z" style="opacity: 1; stroke-width: 0.5px; fill: rgb(164, 194, 244); fill-opacity: 1; stroke: rgb(255, 255, 255); stroke-opacity: 1;"></path><path class="point" transform="translate(881.06,156.32)" d="M6,0A6,6 0 1,1 0,-6A6,6 0 0,1 6,0Z" style="opacity: 1; stroke-width: 0.5px; fill: rgb(164, 194, 244); fill-opacity: 1; stroke: rgb(255, 255, 255); stroke-opacity: 1;"></path><path class="point" transform="translate(164.01,397.7)" d="M6,0A6,6 0 1,1 0,-6A6,6 0 0,1 6,0Z" style="opacity: 1; stroke-width: 0.5px; fill: rgb(164, 194, 244); fill-opacity: 1; stroke: rgb(255, 255, 255); stroke-opacity: 1;"></path><path class="point" transform="translate(919.75,107.97)" d="M6,0A6,6 0 1,1 0,-6A6,6 0 0,1 6,0Z" style="opacity: 1; stroke-width: 0.5px; fill: rgb(164, 194, 244); fill-opacity: 1; stroke: rgb(255, 255, 255); stroke-opacity: 1;"></path><path class="point" transform="translate(990.49,93.46)" d="M6,0A6,6 0 1,1 0,-6A6,6 0 0,1 6,0Z" style="opacity: 1; stroke-width: 0.5px; fill: rgb(164, 194, 244); fill-opacity: 1; stroke: rgb(255, 255, 255); stroke-opacity: 1;"></path><path class="point" transform="translate(253.91,368.12)" d="M6,0A6,6 0 1,1 0,-6A6,6 0 0,1 6,0Z" style="opacity: 1; stroke-width: 0.5px; fill: rgb(164, 194, 244); fill-opacity: 1; stroke: rgb(255, 255, 255); stroke-opacity: 1;"></path><path class="point" transform="translate(965.86,99.39)" d="M6,0A6,6 0 1,1 0,-6A6,6 0 0,1 6,0Z" style="opacity: 1; stroke-width: 0.5px; fill: rgb(164, 194, 244); fill-opacity: 1; stroke: rgb(255, 255, 255); stroke-opacity: 1;"></path><path class="point" transform="translate(881.24,136.85)" d="M6,0A6,6 0 1,1 0,-6A6,6 0 0,1 6,0Z" style="opacity: 1; stroke-width: 0.5px; fill: rgb(164, 194, 244); fill-opacity: 1; stroke: rgb(255, 255, 255); stroke-opacity: 1;"></path><path class="point" transform="translate(739.5,221.13)" d="M6,0A6,6 0 1,1 0,-6A6,6 0 0,1 6,0Z" style="opacity: 1; stroke-width: 0.5px; fill: rgb(164, 194, 244); fill-opacity: 1; stroke: rgb(255, 255, 255); stroke-opacity: 1;"></path><path class="point" transform="translate(922.53,122.27)" d="M6,0A6,6 0 1,1 0,-6A6,6 0 0,1 6,0Z" style="opacity: 1; stroke-width: 0.5px; fill: rgb(164, 194, 244); fill-opacity: 1; stroke: rgb(255, 255, 255); stroke-opacity: 1;"></path><path class="point" transform="translate(1005.39,81.74)" d="M6,0A6,6 0 1,1 0,-6A6,6 0 0,1 6,0Z" style="opacity: 1; stroke-width: 0.5px; fill: rgb(164, 194, 244); fill-opacity: 1; stroke: rgb(255, 255, 255); stroke-opacity: 1;"></path><path class="point" transform="translate(963.92,97.78)" d="M6,0A6,6 0 1,1 0,-6A6,6 0 0,1 6,0Z" style="opacity: 1; stroke-width: 0.5px; fill: rgb(164, 194, 244); fill-opacity: 1; stroke: rgb(255, 255, 255); stroke-opacity: 1;"></path><path class="point" transform="translate(224.1,376.98)" d="M6,0A6,6 0 1,1 0,-6A6,6 0 0,1 6,0Z" style="opacity: 1; stroke-width: 0.5px; fill: rgb(164, 194, 244); fill-opacity: 1; stroke: rgb(255, 255, 255); stroke-opacity: 1;"></path><path class="point" transform="translate(918.64,125.34)" d="M6,0A6,6 0 1,1 0,-6A6,6 0 0,1 6,0Z" style="opacity: 1; stroke-width: 0.5px; fill: rgb(164, 194, 244); fill-opacity: 1; stroke: rgb(255, 255, 255); stroke-opacity: 1;"></path><path class="point" transform="translate(893.65,122.9)" d="M6,0A6,6 0 1,1 0,-6A6,6 0 0,1 6,0Z" style="opacity: 1; stroke-width: 0.5px; fill: rgb(164, 194, 244); fill-opacity: 1; stroke: rgb(255, 255, 255); stroke-opacity: 1;"></path><path class="point" transform="translate(855.97,176.55)" d="M6,0A6,6 0 1,1 0,-6A6,6 0 0,1 6,0Z" style="opacity: 1; stroke-width: 0.5px; fill: rgb(164, 194, 244); fill-opacity: 1; stroke: rgb(255, 255, 255); stroke-opacity: 1;"></path><path class="point" transform="translate(568.87,287.2)" d="M6,0A6,6 0 1,1 0,-6A6,6 0 0,1 6,0Z" style="opacity: 1; stroke-width: 0.5px; fill: rgb(164, 194, 244); fill-opacity: 1; stroke: rgb(255, 255, 255); stroke-opacity: 1;"></path><path class="point" transform="translate(1077.14,42.67)" d="M6,0A6,6 0 1,1 0,-6A6,6 0 0,1 6,0Z" style="opacity: 1; stroke-width: 0.5px; fill: rgb(164, 194, 244); fill-opacity: 1; stroke: rgb(255, 255, 255); stroke-opacity: 1;"></path><path class="point" transform="translate(943.64,112.64)" d="M6,0A6,6 0 1,1 0,-6A6,6 0 0,1 6,0Z" style="opacity: 1; stroke-width: 0.5px; fill: rgb(164, 194, 244); fill-opacity: 1; stroke: rgb(255, 255, 255); stroke-opacity: 1;"></path><path class="point" transform="translate(1007.98,74.55)" d="M6,0A6,6 0 1,1 0,-6A6,6 0 0,1 6,0Z" style="opacity: 1; stroke-width: 0.5px; fill: rgb(164, 194, 244); fill-opacity: 1; stroke: rgb(255, 255, 255); stroke-opacity: 1;"></path><path class="point" transform="translate(999.37,85.99)" d="M6,0A6,6 0 1,1 0,-6A6,6 0 0,1 6,0Z" style="opacity: 1; stroke-width: 0.5px; fill: rgb(164, 194, 244); fill-opacity: 1; stroke: rgb(255, 255, 255); stroke-opacity: 1;"></path><path class="point" transform="translate(1033.35,67.65)" d="M6,0A6,6 0 1,1 0,-6A6,6 0 0,1 6,0Z" style="opacity: 1; stroke-width: 0.5px; fill: rgb(164, 194, 244); fill-opacity: 1; stroke: rgb(255, 255, 255); stroke-opacity: 1;"></path><path class="point" transform="translate(1054.28,52.58)" d="M6,0A6,6 0 1,1 0,-6A6,6 0 0,1 6,0Z" style="opacity: 1; stroke-width: 0.5px; fill: rgb(164, 194, 244); fill-opacity: 1; stroke: rgb(255, 255, 255); stroke-opacity: 1;"></path><path class="point" transform="translate(937.62,114.25)" d="M6,0A6,6 0 1,1 0,-6A6,6 0 0,1 6,0Z" style="opacity: 1; stroke-width: 0.5px; fill: rgb(164, 194, 244); fill-opacity: 1; stroke: rgb(255, 255, 255); stroke-opacity: 1;"></path><path class="point" transform="translate(998.45,84.25)" d="M6,0A6,6 0 1,1 0,-6A6,6 0 0,1 6,0Z" style="opacity: 1; stroke-width: 0.5px; fill: rgb(164, 194, 244); fill-opacity: 1; stroke: rgb(255, 255, 255); stroke-opacity: 1;"></path><path class="point" transform="translate(1034.56,69.74)" d="M6,0A6,6 0 1,1 0,-6A6,6 0 0,1 6,0Z" style="opacity: 1; stroke-width: 0.5px; fill: rgb(164, 194, 244); fill-opacity: 1; stroke: rgb(255, 255, 255); stroke-opacity: 1;"></path><path class="point" transform="translate(978.45,97.3)" d="M6,0A6,6 0 1,1 0,-6A6,6 0 0,1 6,0Z" style="opacity: 1; stroke-width: 0.5px; fill: rgb(164, 194, 244); fill-opacity: 1; stroke: rgb(255, 255, 255); stroke-opacity: 1;"></path><path class="point" transform="translate(866.8,144.04)" d="M6,0A6,6 0 1,1 0,-6A6,6 0 0,1 6,0Z" style="opacity: 1; stroke-width: 0.5px; fill: rgb(164, 194, 244); fill-opacity: 1; stroke: rgb(255, 255, 255); stroke-opacity: 1;"></path><path class="point" transform="translate(65.6,431.4)" d="M6,0A6,6 0 1,1 0,-6A6,6 0 0,1 6,0Z" style="opacity: 1; stroke-width: 0.5px; fill: rgb(164, 194, 244); fill-opacity: 1; stroke: rgb(255, 255, 255); stroke-opacity: 1;"></path><path class="point" transform="translate(367.6,322.08)" d="M6,0A6,6 0 1,1 0,-6A6,6 0 0,1 6,0Z" style="opacity: 1; stroke-width: 0.5px; fill: rgb(164, 194, 244); fill-opacity: 1; stroke: rgb(255, 255, 255); stroke-opacity: 1;"></path><path class="point" transform="translate(790.97,189.73)" d="M6,0A6,6 0 1,1 0,-6A6,6 0 0,1 6,0Z" style="opacity: 1; stroke-width: 0.5px; fill: rgb(164, 194, 244); fill-opacity: 1; stroke: rgb(255, 255, 255); stroke-opacity: 1;"></path><path class="point" transform="translate(1096.4,30.6)" d="M6,0A6,6 0 1,1 0,-6A6,6 0 0,1 6,0Z" style="opacity: 1; stroke-width: 0.5px; fill: rgb(164, 194, 244); fill-opacity: 1; stroke: rgb(255, 255, 255); stroke-opacity: 1;"></path><path class="point" transform="translate(965.03,102.04)" d="M6,0A6,6 0 1,1 0,-6A6,6 0 0,1 6,0Z" style="opacity: 1; stroke-width: 0.5px; fill: rgb(164, 194, 244); fill-opacity: 1; stroke: rgb(255, 255, 255); stroke-opacity: 1;"></path><path class="point" transform="translate(1028.26,78.04)" d="M6,0A6,6 0 1,1 0,-6A6,6 0 0,1 6,0Z" style="opacity: 1; stroke-width: 0.5px; fill: rgb(164, 194, 244); fill-opacity: 1; stroke: rgb(255, 255, 255); stroke-opacity: 1;"></path><path class="point" transform="translate(984.75,86.06)" d="M6,0A6,6 0 1,1 0,-6A6,6 0 0,1 6,0Z" style="opacity: 1; stroke-width: 0.5px; fill: rgb(164, 194, 244); fill-opacity: 1; stroke: rgb(255, 255, 255); stroke-opacity: 1;"></path><path class="point" transform="translate(907.16,144.46)" d="M6,0A6,6 0 1,1 0,-6A6,6 0 0,1 6,0Z" style="opacity: 1; stroke-width: 0.5px; fill: rgb(164, 194, 244); fill-opacity: 1; stroke: rgb(255, 255, 255); stroke-opacity: 1;"></path><path class="point" transform="translate(976.23,93.39)" d="M6,0A6,6 0 1,1 0,-6A6,6 0 0,1 6,0Z" style="opacity: 1; stroke-width: 0.5px; fill: rgb(164, 194, 244); fill-opacity: 1; stroke: rgb(255, 255, 255); stroke-opacity: 1;"></path><path class="point" transform="translate(1037.33,73.71)" d="M6,0A6,6 0 1,1 0,-6A6,6 0 0,1 6,0Z" style="opacity: 1; stroke-width: 0.5px; fill: rgb(164, 194, 244); fill-opacity: 1; stroke: rgb(255, 255, 255); stroke-opacity: 1;"></path><path class="point" transform="translate(1052.24,58.58)" d="M6,0A6,6 0 1,1 0,-6A6,6 0 0,1 6,0Z" style="opacity: 1; stroke-width: 0.5px; fill: rgb(164, 194, 244); fill-opacity: 1; stroke: rgb(255, 255, 255); stroke-opacity: 1;"></path><path class="point" transform="translate(1034.56,66.25)" d="M6,0A6,6 0 1,1 0,-6A6,6 0 0,1 6,0Z" style="opacity: 1; stroke-width: 0.5px; fill: rgb(164, 194, 244); fill-opacity: 1; stroke: rgb(255, 255, 255); stroke-opacity: 1;"></path></g><g class="text"></g></g><g class="trace scatter traceb16264" style="stroke-miterlimit: 2; opacity: 1;"><g class="fills"></g><g class="errorbars"></g><g class="lines"></g><g class="points"><path class="point" transform="translate(70.23,430.49)" d="M6,0A6,6 0 1,1 0,-6A6,6 0 0,1 6,0Z" style="opacity: 1; stroke-width: 0.5px; fill: rgb(234, 153, 153); fill-opacity: 1; stroke: rgb(255, 255, 255); stroke-opacity: 1;"></path><path class="point" transform="translate(517.21,280.22)" d="M6,0A6,6 0 1,1 0,-6A6,6 0 0,1 6,0Z" style="opacity: 1; stroke-width: 0.5px; fill: rgb(234, 153, 153); fill-opacity: 1; stroke: rgb(255, 255, 255); stroke-opacity: 1;"></path><path class="point" transform="translate(293.63,360.1)" d="M6,0A6,6 0 1,1 0,-6A6,6 0 0,1 6,0Z" style="opacity: 1; stroke-width: 0.5px; fill: rgb(234, 153, 153); fill-opacity: 1; stroke: rgb(255, 255, 255); stroke-opacity: 1;"></path><path class="point" transform="translate(262.43,356.4)" d="M6,0A6,6 0 1,1 0,-6A6,6 0 0,1 6,0Z" style="opacity: 1; stroke-width: 0.5px; fill: rgb(234, 153, 153); fill-opacity: 1; stroke: rgb(255, 255, 255); stroke-opacity: 1;"></path><path class="point" transform="translate(234.84,368.47)" d="M6,0A6,6 0 1,1 0,-6A6,6 0 0,1 6,0Z" style="opacity: 1; stroke-width: 0.5px; fill: rgb(234, 153, 153); fill-opacity: 1; stroke: rgb(255, 255, 255); stroke-opacity: 1;"></path><path class="point" transform="translate(149.94,399.38)" d="M6,0A6,6 0 1,1 0,-6A6,6 0 0,1 6,0Z" style="opacity: 1; stroke-width: 0.5px; fill: rgb(234, 153, 153); fill-opacity: 1; stroke: rgb(255, 255, 255); stroke-opacity: 1;"></path><path class="point" transform="translate(263.82,358.5)" d="M6,0A6,6 0 1,1 0,-6A6,6 0 0,1 6,0Z" style="opacity: 1; stroke-width: 0.5px; fill: rgb(234, 153, 153); fill-opacity: 1; stroke: rgb(255, 255, 255); stroke-opacity: 1;"></path><path class="point" transform="translate(207.99,384.8)" d="M6,0A6,6 0 1,1 0,-6A6,6 0 0,1 6,0Z" style="opacity: 1; stroke-width: 0.5px; fill: rgb(234, 153, 153); fill-opacity: 1; stroke: rgb(255, 255, 255); stroke-opacity: 1;"></path><path class="point" transform="translate(326.49,347.54)" d="M6,0A6,6 0 1,1 0,-6A6,6 0 0,1 6,0Z" style="opacity: 1; stroke-width: 0.5px; fill: rgb(234, 153, 153); fill-opacity: 1; stroke: rgb(255, 255, 255); stroke-opacity: 1;"></path><path class="point" transform="translate(219.1,375.45)" d="M6,0A6,6 0 1,1 0,-6A6,6 0 0,1 6,0Z" style="opacity: 1; stroke-width: 0.5px; fill: rgb(234, 153, 153); fill-opacity: 1; stroke: rgb(255, 255, 255); stroke-opacity: 1;"></path><path class="point" transform="translate(283.63,355.08)" d="M6,0A6,6 0 1,1 0,-6A6,6 0 0,1 6,0Z" style="opacity: 1; stroke-width: 0.5px; fill: rgb(234, 153, 153); fill-opacity: 1; stroke: rgb(255, 255, 255); stroke-opacity: 1;"></path><path class="point" transform="translate(236.51,368.47)" d="M6,0A6,6 0 1,1 0,-6A6,6 0 0,1 6,0Z" style="opacity: 1; stroke-width: 0.5px; fill: rgb(234, 153, 153); fill-opacity: 1; stroke: rgb(255, 255, 255); stroke-opacity: 1;"></path><path class="point" transform="translate(304.55,355.43)" d="M6,0A6,6 0 1,1 0,-6A6,6 0 0,1 6,0Z" style="opacity: 1; stroke-width: 0.5px; fill: rgb(234, 153, 153); fill-opacity: 1; stroke: rgb(255, 255, 255); stroke-opacity: 1;"></path><path class="point" transform="translate(211.42,383.19)" d="M6,0A6,6 0 1,1 0,-6A6,6 0 0,1 6,0Z" style="opacity: 1; stroke-width: 0.5px; fill: rgb(234, 153, 153); fill-opacity: 1; stroke: rgb(255, 255, 255); stroke-opacity: 1;"></path><path class="point" transform="translate(142.26,403.98)" d="M6,0A6,6 0 1,1 0,-6A6,6 0 0,1 6,0Z" style="opacity: 1; stroke-width: 0.5px; fill: rgb(234, 153, 153); fill-opacity: 1; stroke: rgb(255, 255, 255); stroke-opacity: 1;"></path><path class="point" transform="translate(446.2,358.08)" d="M6,0A6,6 0 1,1 0,-6A6,6 0 0,1 6,0Z" style="opacity: 1; stroke-width: 0.5px; fill: rgb(234, 153, 153); fill-opacity: 1; stroke: rgb(255, 255, 255); stroke-opacity: 1;"></path><path class="point" transform="translate(305.85,351.17)" d="M6,0A6,6 0 1,1 0,-6A6,6 0 0,1 6,0Z" style="opacity: 1; stroke-width: 0.5px; fill: rgb(234, 153, 153); fill-opacity: 1; stroke: rgb(255, 255, 255); stroke-opacity: 1;"></path><path class="point" transform="translate(174.01,396.94)" d="M6,0A6,6 0 1,1 0,-6A6,6 0 0,1 6,0Z" style="opacity: 1; stroke-width: 0.5px; fill: rgb(234, 153, 153); fill-opacity: 1; stroke: rgb(255, 255, 255); stroke-opacity: 1;"></path><path class="point" transform="translate(322.61,365.47)" d="M6,0A6,6 0 1,1 0,-6A6,6 0 0,1 6,0Z" style="opacity: 1; stroke-width: 0.5px; fill: rgb(234, 153, 153); fill-opacity: 1; stroke: rgb(255, 255, 255); stroke-opacity: 1;"></path><path class="point" transform="translate(333.81,342.94)" d="M6,0A6,6 0 1,1 0,-6A6,6 0 0,1 6,0Z" style="opacity: 1; stroke-width: 0.5px; fill: rgb(234, 153, 153); fill-opacity: 1; stroke: rgb(255, 255, 255); stroke-opacity: 1;"></path><path class="point" transform="translate(270.95,355.64)" d="M6,0A6,6 0 1,1 0,-6A6,6 0 0,1 6,0Z" style="opacity: 1; stroke-width: 0.5px; fill: rgb(234, 153, 153); fill-opacity: 1; stroke: rgb(255, 255, 255); stroke-opacity: 1;"></path><path class="point" transform="translate(321.68,341.68)" d="M6,0A6,6 0 1,1 0,-6A6,6 0 0,1 6,0Z" style="opacity: 1; stroke-width: 0.5px; fill: rgb(234, 153, 153); fill-opacity: 1; stroke: rgb(255, 255, 255); stroke-opacity: 1;"></path><path class="point" transform="translate(216.32,378.1)" d="M6,0A6,6 0 1,1 0,-6A6,6 0 0,1 6,0Z" style="opacity: 1; stroke-width: 0.5px; fill: rgb(234, 153, 153); fill-opacity: 1; stroke: rgb(255, 255, 255); stroke-opacity: 1;"></path><path class="point" transform="translate(219.93,376.91)" d="M6,0A6,6 0 1,1 0,-6A6,6 0 0,1 6,0Z" style="opacity: 1; stroke-width: 0.5px; fill: rgb(234, 153, 153); fill-opacity: 1; stroke: rgb(255, 255, 255); stroke-opacity: 1;"></path><path class="point" transform="translate(418.98,304.43)" d="M6,0A6,6 0 1,1 0,-6A6,6 0 0,1 6,0Z" style="opacity: 1; stroke-width: 0.5px; fill: rgb(234, 153, 153); fill-opacity: 1; stroke: rgb(255, 255, 255); stroke-opacity: 1;"></path><path class="point" transform="translate(260.39,358.43)" d="M6,0A6,6 0 1,1 0,-6A6,6 0 0,1 6,0Z" style="opacity: 1; stroke-width: 0.5px; fill: rgb(234, 153, 153); fill-opacity: 1; stroke: rgb(255, 255, 255); stroke-opacity: 1;"></path><path class="point" transform="translate(284.74,361.29)" d="M6,0A6,6 0 1,1 0,-6A6,6 0 0,1 6,0Z" style="opacity: 1; stroke-width: 0.5px; fill: rgb(234, 153, 153); fill-opacity: 1; stroke: rgb(255, 255, 255); stroke-opacity: 1;"></path><path class="point" transform="translate(501.29,291.38)" d="M6,0A6,6 0 1,1 0,-6A6,6 0 0,1 6,0Z" style="opacity: 1; stroke-width: 0.5px; fill: rgb(234, 153, 153); fill-opacity: 1; stroke: rgb(255, 255, 255); stroke-opacity: 1;"></path><path class="point" transform="translate(243.63,367.5)" d="M6,0A6,6 0 1,1 0,-6A6,6 0 0,1 6,0Z" style="opacity: 1; stroke-width: 0.5px; fill: rgb(234, 153, 153); fill-opacity: 1; stroke: rgb(255, 255, 255); stroke-opacity: 1;"></path><path class="point" transform="translate(252.06,364.36)" d="M6,0A6,6 0 1,1 0,-6A6,6 0 0,1 6,0Z" style="opacity: 1; stroke-width: 0.5px; fill: rgb(234, 153, 153); fill-opacity: 1; stroke: rgb(255, 255, 255); stroke-opacity: 1;"></path><path class="point" transform="translate(338.62,334.01)" d="M6,0A6,6 0 1,1 0,-6A6,6 0 0,1 6,0Z" style="opacity: 1; stroke-width: 0.5px; fill: rgb(234, 153, 153); fill-opacity: 1; stroke: rgb(255, 255, 255); stroke-opacity: 1;"></path><path class="point" transform="translate(147.44,403.49)" d="M6,0A6,6 0 1,1 0,-6A6,6 0 0,1 6,0Z" style="opacity: 1; stroke-width: 0.5px; fill: rgb(234, 153, 153); fill-opacity: 1; stroke: rgb(255, 255, 255); stroke-opacity: 1;"></path><path class="point" transform="translate(441.02,309.24)" d="M6,0A6,6 0 1,1 0,-6A6,6 0 0,1 6,0Z" style="opacity: 1; stroke-width: 0.5px; fill: rgb(234, 153, 153); fill-opacity: 1; stroke: rgb(255, 255, 255); stroke-opacity: 1;"></path><path class="point" transform="translate(138.92,404.54)" d="M6,0A6,6 0 1,1 0,-6A6,6 0 0,1 6,0Z" style="opacity: 1; stroke-width: 0.5px; fill: rgb(234, 153, 153); fill-opacity: 1; stroke: rgb(255, 255, 255); stroke-opacity: 1;"></path><path class="point" transform="translate(136.42,403.77)" d="M6,0A6,6 0 1,1 0,-6A6,6 0 0,1 6,0Z" style="opacity: 1; stroke-width: 0.5px; fill: rgb(234, 153, 153); fill-opacity: 1; stroke: rgb(255, 255, 255); stroke-opacity: 1;"></path><path class="point" transform="translate(254.65,372.24)" d="M6,0A6,6 0 1,1 0,-6A6,6 0 0,1 6,0Z" style="opacity: 1; stroke-width: 0.5px; fill: rgb(234, 153, 153); fill-opacity: 1; stroke: rgb(255, 255, 255); stroke-opacity: 1;"></path><path class="point" transform="translate(433.89,297.31)" d="M6,0A6,6 0 1,1 0,-6A6,6 0 0,1 6,0Z" style="opacity: 1; stroke-width: 0.5px; fill: rgb(234, 153, 153); fill-opacity: 1; stroke: rgb(255, 255, 255); stroke-opacity: 1;"></path><path class="point" transform="translate(319.18,335.75)" d="M6,0A6,6 0 1,1 0,-6A6,6 0 0,1 6,0Z" style="opacity: 1; stroke-width: 0.5px; fill: rgb(234, 153, 153); fill-opacity: 1; stroke: rgb(255, 255, 255); stroke-opacity: 1;"></path><path class="point" transform="translate(410.09,316.29)" d="M6,0A6,6 0 1,1 0,-6A6,6 0 0,1 6,0Z" style="opacity: 1; stroke-width: 0.5px; fill: rgb(234, 153, 153); fill-opacity: 1; stroke: rgb(255, 255, 255); stroke-opacity: 1;"></path><path class="point" transform="translate(218.73,373.84)" d="M6,0A6,6 0 1,1 0,-6A6,6 0 0,1 6,0Z" style="opacity: 1; stroke-width: 0.5px; fill: rgb(234, 153, 153); fill-opacity: 1; stroke: rgb(255, 255, 255); stroke-opacity: 1;"></path><path class="point" transform="translate(113.83,413.19)" d="M6,0A6,6 0 1,1 0,-6A6,6 0 0,1 6,0Z" style="opacity: 1; stroke-width: 0.5px; fill: rgb(234, 153, 153); fill-opacity: 1; stroke: rgb(255, 255, 255); stroke-opacity: 1;"></path><path class="point" transform="translate(251.04,365.47)" d="M6,0A6,6 0 1,1 0,-6A6,6 0 0,1 6,0Z" style="opacity: 1; stroke-width: 0.5px; fill: rgb(234, 153, 153); fill-opacity: 1; stroke: rgb(255, 255, 255); stroke-opacity: 1;"></path><path class="point" transform="translate(387.13,328.08)" d="M6,0A6,6 0 1,1 0,-6A6,6 0 0,1 6,0Z" style="opacity: 1; stroke-width: 0.5px; fill: rgb(234, 153, 153); fill-opacity: 1; stroke: rgb(255, 255, 255); stroke-opacity: 1;"></path><path class="point" transform="translate(273.17,361.43)" d="M6,0A6,6 0 1,1 0,-6A6,6 0 0,1 6,0Z" style="opacity: 1; stroke-width: 0.5px; fill: rgb(234, 153, 153); fill-opacity: 1; stroke: rgb(255, 255, 255); stroke-opacity: 1;"></path><path class="point" transform="translate(105.6,415.77)" d="M6,0A6,6 0 1,1 0,-6A6,6 0 0,1 6,0Z" style="opacity: 1; stroke-width: 0.5px; fill: rgb(234, 153, 153); fill-opacity: 1; stroke: rgb(255, 255, 255); stroke-opacity: 1;"></path><path class="point" transform="translate(296.96,344.33)" d="M6,0A6,6 0 1,1 0,-6A6,6 0 0,1 6,0Z" style="opacity: 1; stroke-width: 0.5px; fill: rgb(234, 153, 153); fill-opacity: 1; stroke: rgb(255, 255, 255); stroke-opacity: 1;"></path><path class="point" transform="translate(354.27,325.78)" d="M6,0A6,6 0 1,1 0,-6A6,6 0 0,1 6,0Z" style="opacity: 1; stroke-width: 0.5px; fill: rgb(234, 153, 153); fill-opacity: 1; stroke: rgb(255, 255, 255); stroke-opacity: 1;"></path><path class="point" transform="translate(458.98,306.52)" d="M6,0A6,6 0 1,1 0,-6A6,6 0 0,1 6,0Z" style="opacity: 1; stroke-width: 0.5px; fill: rgb(234, 153, 153); fill-opacity: 1; stroke: rgb(255, 255, 255); stroke-opacity: 1;"></path><path class="point" transform="translate(182.9,386.75)" d="M6,0A6,6 0 1,1 0,-6A6,6 0 0,1 6,0Z" style="opacity: 1; stroke-width: 0.5px; fill: rgb(234, 153, 153); fill-opacity: 1; stroke: rgb(255, 255, 255); stroke-opacity: 1;"></path><path class="point" transform="translate(503.51,281.34)" d="M6,0A6,6 0 1,1 0,-6A6,6 0 0,1 6,0Z" style="opacity: 1; stroke-width: 0.5px; fill: rgb(234, 153, 153); fill-opacity: 1; stroke: rgb(255, 255, 255); stroke-opacity: 1;"></path></g><g class="text"></g></g></g></g><g class="overplot"></g><path class="xlines-above crisp" d="M0,0" style="fill: none;"></path><path class="ylines-above crisp" style="fill: none;" d="M0,0"></path><g class="overlines-above"></g><g class="xaxislayer-above"><g class="xtick"><text text-anchor="middle" x="0" y="575" data-unformatted="14" data-math="N" transform="translate(173,0)" style="font-family: &quot;Open Sans&quot;, verdana, arial, sans-serif; font-size: 12px; fill: rgb(68, 68, 68); fill-opacity: 1; white-space: pre;">14</text></g><g class="xtick"><text text-anchor="middle" x="0" y="575" data-unformatted="16" data-math="N" transform="translate(358.17,0)" style="font-family: &quot;Open Sans&quot;, verdana, arial, sans-serif; font-size: 12px; fill: rgb(68, 68, 68); fill-opacity: 1; white-space: pre;">16</text></g><g class="xtick"><text text-anchor="middle" x="0" y="575" data-unformatted="18" data-math="N" transform="translate(543.3299999999999,0)" style="font-family: &quot;Open Sans&quot;, verdana, arial, sans-serif; font-size: 12px; fill: rgb(68, 68, 68); fill-opacity: 1; white-space: pre;">18</text></g><g class="xtick"><text text-anchor="middle" x="0" y="575" data-unformatted="20" data-math="N" transform="translate(728.49,0)" style="font-family: &quot;Open Sans&quot;, verdana, arial, sans-serif; font-size: 12px; fill: rgb(68, 68, 68); fill-opacity: 1; white-space: pre;">20</text></g><g class="xtick"><text text-anchor="middle" x="0" y="575" data-unformatted="22" data-math="N" transform="translate(913.65,0)" style="font-family: &quot;Open Sans&quot;, verdana, arial, sans-serif; font-size: 12px; fill: rgb(68, 68, 68); fill-opacity: 1; white-space: pre;">22</text></g><g class="xtick"><text text-anchor="middle" x="0" y="575" data-unformatted="24" data-math="N" transform="translate(1098.8200000000002,0)" style="font-family: &quot;Open Sans&quot;, verdana, arial, sans-serif; font-size: 12px; fill: rgb(68, 68, 68); fill-opacity: 1; white-space: pre;">24</text></g></g><g class="yaxislayer-above"><g class="ytick"><text text-anchor="end" x="79" y="4.199999999999999" data-unformatted="9" data-math="N" transform="translate(0,517.1)" style="font-family: &quot;Open Sans&quot;, verdana, arial, sans-serif; font-size: 12px; fill: rgb(68, 68, 68); fill-opacity: 1; white-space: pre;">9</text></g><g class="ytick"><text text-anchor="end" x="79" y="4.199999999999999" data-unformatted="10" data-math="N" transform="translate(0,447.33)" style="font-family: &quot;Open Sans&quot;, verdana, arial, sans-serif; font-size: 12px; fill: rgb(68, 68, 68); fill-opacity: 1; white-space: pre;">10</text></g><g class="ytick"><text text-anchor="end" x="79" y="4.199999999999999" data-unformatted="11" data-math="N" transform="translate(0,377.57)" style="font-family: &quot;Open Sans&quot;, verdana, arial, sans-serif; font-size: 12px; fill: rgb(68, 68, 68); fill-opacity: 1; white-space: pre;">11</text></g><g class="ytick"><text text-anchor="end" x="79" y="4.199999999999999" data-unformatted="12" data-math="N" transform="translate(0,307.8)" style="font-family: &quot;Open Sans&quot;, verdana, arial, sans-serif; font-size: 12px; fill: rgb(68, 68, 68); fill-opacity: 1; white-space: pre;">12</text></g><g class="ytick"><text text-anchor="end" x="79" y="4.199999999999999" data-unformatted="13" data-math="N" transform="translate(0,238.04)" style="font-family: &quot;Open Sans&quot;, verdana, arial, sans-serif; font-size: 12px; fill: rgb(68, 68, 68); fill-opacity: 1; white-space: pre;">13</text></g><g class="ytick"><text text-anchor="end" x="79" y="4.199999999999999" data-unformatted="14" data-math="N" transform="translate(0,168.26999999999998)" style="font-family: &quot;Open Sans&quot;, verdana, arial, sans-serif; font-size: 12px; fill: rgb(68, 68, 68); fill-opacity: 1; white-space: pre;">14</text></g></g><g class="overaxes-above"></g></g></g><g class="polarlayer"></g><g class="ternarylayer"></g><g class="geolayer"></g><g class="funnelarealayer"></g><g class="pielayer"></g><g class="treemaplayer"></g><g class="sunburstlayer"></g><g class="glimages"></g></svg><div class="gl-container"></div><svg class="main-svg" style="position: absolute" xmlns="http://www.w3.org/2000/svg" xmlns:xlink="http://www.w3.org/1999/xlink" width="1363.18" height="642"><defs id="topdefs-a439b8"><g class="clips"></g><clipPath id="legenda439b8"><rect width="86" height="48" x="0" y="0"></rect></clipPath></defs><g class="indicatorlayer"></g><g class="layer-above"><g class="imagelayer"></g><g class="shapelayer"></g></g><g class="infolayer"><g class="legend" pointer-events="all" transform="translate(1265.24,100)"><rect class="bg" shape-rendering="crispEdges" style="stroke: rgb(68, 68, 68); stroke-opacity: 1; fill: rgb(255, 255, 255); fill-opacity: 1; stroke-width: 0px;" width="86" height="48" x="0" y="0"></rect><g class="scrollbox" transform="" clip-path="url('#legenda439b8')"><g class="groups"><g class="traces" transform="translate(0,14.5)" style="opacity: 1;"><text class="legendtext" text-anchor="start" x="40" y="4.680000000000001" data-unformatted="Speech" data-math="N" style="font-family: &quot;Open Sans&quot;, verdana, arial, sans-serif; font-size: 12px; fill: rgb(68, 68, 68); fill-opacity: 1; white-space: pre;">Speech</text><g class="layers" style="opacity: 1;"><g class="legendfill"></g><g class="legendlines"></g><g class="legendsymbols"><g class="legendpoints"><path class="scatterpts" transform="translate(20,0)" d="M6,0A6,6 0 1,1 0,-6A6,6 0 0,1 6,0Z" style="opacity: 1; stroke-width: 0.5px; fill: rgb(164, 194, 244); fill-opacity: 1; stroke: rgb(255, 255, 255); stroke-opacity: 1;"></path></g></g></g><rect class="legendtoggle" pointer-events="all" x="0" y="-9.5" width="80.484375" height="19" style="cursor: pointer; fill: rgb(0, 0, 0); fill-opacity: 0;"></rect></g><g class="traces" style="opacity: 1;" transform="translate(0,33.5)"><text class="legendtext" text-anchor="start" x="40" y="4.680000000000001" data-unformatted="Silence" data-math="N" style="font-family: &quot;Open Sans&quot;, verdana, arial, sans-serif; font-size: 12px; fill: rgb(68, 68, 68); fill-opacity: 1; white-space: pre;">Silence</text><g class="layers" style="opacity: 1;"><g class="legendfill"></g><g class="legendlines"></g><g class="legendsymbols"><g class="legendpoints"><path class="scatterpts" transform="translate(20,0)" d="M6,0A6,6 0 1,1 0,-6A6,6 0 0,1 6,0Z" style="opacity: 1; stroke-width: 0.5px; fill: rgb(234, 153, 153); fill-opacity: 1; stroke: rgb(255, 255, 255); stroke-opacity: 1;"></path></g></g></g><rect class="legendtoggle" pointer-events="all" x="0" y="-9.5" width="80.484375" height="19" style="cursor: pointer; fill: rgb(0, 0, 0); fill-opacity: 0;"></rect></g></g></g><rect class="scrollbar" rx="20" ry="3" width="0" height="0" style="fill: rgb(128, 139, 164); fill-opacity: 1;" x="0" y="0"></rect></g><g class="g-gtitle"><text class="gtitle" x="681.59" y="50" text-anchor="middle" dy="0em" data-unformatted="Energy vs Magnitude" data-math="N" style="font-family: &quot;Open Sans&quot;, verdana, arial, sans-serif; font-size: 17px; fill: rgb(68, 68, 68); opacity: 1; font-weight: normal; white-space: pre;">Energy vs Magnitude</text></g><g class="g-xtitle"><text class="xtitle" x="661" y="614" text-anchor="middle" data-unformatted="Energy" data-math="N" style="font-family: &quot;Open Sans&quot;, verdana, arial, sans-serif; font-size: 14px; fill: rgb(68, 68, 68); opacity: 1; font-weight: normal; white-space: pre;">Energy</text></g><g class="g-ytitle"><text class="ytitle" transform="rotate(-90,42,331)" x="42" y="331" text-anchor="middle" data-unformatted="Magnitude" data-math="N" style="font-family: &quot;Open Sans&quot;, verdana, arial, sans-serif; font-size: 14px; fill: rgb(68, 68, 68); opacity: 1; font-weight: normal; white-space: pre;">Magnitude</text></g></g><g class="menulayer"></g><g class="zoomlayer"></g></svg><div class="modebar-container" style="position: absolute; top: 0px; right: 0px; width: 100%;"><div id="modebar-a439b8" class="modebar modebar--hover ease-bg"><div class="modebar-group"><a rel="tooltip" class="modebar-btn" data-title="Download plot as a png" data-toggle="false" data-gravity="n"><svg viewBox="0 0 1000 1000" class="icon" height="1em" width="1em"><path d="m500 450c-83 0-150-67-150-150 0-83 67-150 150-150 83 0 150 67 150 150 0 83-67 150-150 150z m400 150h-120c-16 0-34 13-39 29l-31 93c-6 15-23 28-40 28h-340c-16 0-34-13-39-28l-31-94c-6-15-23-28-40-28h-120c-55 0-100-45-100-100v-450c0-55 45-100 100-100h800c55 0 100 45 100 100v450c0 55-45 100-100 100z m-400-550c-138 0-250 112-250 250 0 138 112 250 250 250 138 0 250-112 250-250 0-138-112-250-250-250z m365 380c-19 0-35 16-35 35 0 19 16 35 35 35 19 0 35-16 35-35 0-19-16-35-35-35z" transform="matrix(1 0 0 -1 0 850)"></path></svg></a></div><div class="modebar-group"><a rel="tooltip" class="modebar-btn active" data-title="Zoom" data-attr="dragmode" data-val="zoom" data-toggle="false" data-gravity="n"><svg viewBox="0 0 1000 1000" class="icon" height="1em" width="1em"><path d="m1000-25l-250 251c40 63 63 138 63 218 0 224-182 406-407 406-224 0-406-182-406-406s183-406 407-406c80 0 155 22 218 62l250-250 125 125z m-812 250l0 438 437 0 0-438-437 0z m62 375l313 0 0-312-313 0 0 312z" transform="matrix(1 0 0 -1 0 850)"></path></svg></a><a rel="tooltip" class="modebar-btn" data-title="Pan" data-attr="dragmode" data-val="pan" data-toggle="false" data-gravity="n"><svg viewBox="0 0 1000 1000" class="icon" height="1em" width="1em"><path d="m1000 350l-187 188 0-125-250 0 0 250 125 0-188 187-187-187 125 0 0-250-250 0 0 125-188-188 186-187 0 125 252 0 0-250-125 0 187-188 188 188-125 0 0 250 250 0 0-126 187 188z" transform="matrix(1 0 0 -1 0 850)"></path></svg></a><a rel="tooltip" class="modebar-btn" data-title="Box Select" data-attr="dragmode" data-val="select" data-toggle="false" data-gravity="n"><svg viewBox="0 0 1000 1000" class="icon" height="1em" width="1em"><path d="m0 850l0-143 143 0 0 143-143 0z m286 0l0-143 143 0 0 143-143 0z m285 0l0-143 143 0 0 143-143 0z m286 0l0-143 143 0 0 143-143 0z m-857-286l0-143 143 0 0 143-143 0z m857 0l0-143 143 0 0 143-143 0z m-857-285l0-143 143 0 0 143-143 0z m857 0l0-143 143 0 0 143-143 0z m-857-286l0-143 143 0 0 143-143 0z m286 0l0-143 143 0 0 143-143 0z m285 0l0-143 143 0 0 143-143 0z m286 0l0-143 143 0 0 143-143 0z" transform="matrix(1 0 0 -1 0 850)"></path></svg></a><a rel="tooltip" class="modebar-btn" data-title="Lasso Select" data-attr="dragmode" data-val="lasso" data-toggle="false" data-gravity="n"><svg viewBox="0 0 1031 1000" class="icon" height="1em" width="1em"><path d="m1018 538c-36 207-290 336-568 286-277-48-473-256-436-463 10-57 36-108 76-151-13-66 11-137 68-183 34-28 75-41 114-42l-55-70 0 0c-2-1-3-2-4-3-10-14-8-34 5-45 14-11 34-8 45 4 1 1 2 3 2 5l0 0 113 140c16 11 31 24 45 40 4 3 6 7 8 11 48-3 100 0 151 9 278 48 473 255 436 462z m-624-379c-80 14-149 48-197 96 42 42 109 47 156 9 33-26 47-66 41-105z m-187-74c-19 16-33 37-39 60 50-32 109-55 174-68-42-25-95-24-135 8z m360 75c-34-7-69-9-102-8 8 62-16 128-68 170-73 59-175 54-244-5-9 20-16 40-20 61-28 159 121 317 333 354s407-60 434-217c28-159-121-318-333-355z" transform="matrix(1 0 0 -1 0 850)"></path></svg></a></div><div class="modebar-group"><a rel="tooltip" class="modebar-btn" data-title="Zoom in" data-attr="zoom" data-val="in" data-toggle="false" data-gravity="n"><svg viewBox="0 0 875 1000" class="icon" height="1em" width="1em"><path d="m1 787l0-875 875 0 0 875-875 0z m687-500l-187 0 0-187-125 0 0 187-188 0 0 125 188 0 0 187 125 0 0-187 187 0 0-125z" transform="matrix(1 0 0 -1 0 850)"></path></svg></a><a rel="tooltip" class="modebar-btn" data-title="Zoom out" data-attr="zoom" data-val="out" data-toggle="false" data-gravity="n"><svg viewBox="0 0 875 1000" class="icon" height="1em" width="1em"><path d="m0 788l0-876 875 0 0 876-875 0z m688-500l-500 0 0 125 500 0 0-125z" transform="matrix(1 0 0 -1 0 850)"></path></svg></a><a rel="tooltip" class="modebar-btn" data-title="Autoscale" data-attr="zoom" data-val="auto" data-toggle="false" data-gravity="n"><svg viewBox="0 0 1000 1000" class="icon" height="1em" width="1em"><path d="m250 850l-187 0-63 0 0-62 0-188 63 0 0 188 187 0 0 62z m688 0l-188 0 0-62 188 0 0-188 62 0 0 188 0 62-62 0z m-875-938l0 188-63 0 0-188 0-62 63 0 187 0 0 62-187 0z m875 188l0-188-188 0 0-62 188 0 62 0 0 62 0 188-62 0z m-125 188l-1 0-93-94-156 156 156 156 92-93 2 0 0 250-250 0 0-2 93-92-156-156-156 156 94 92 0 2-250 0 0-250 0 0 93 93 157-156-157-156-93 94 0 0 0-250 250 0 0 0-94 93 156 157 156-157-93-93 0 0 250 0 0 250z" transform="matrix(1 0 0 -1 0 850)"></path></svg></a><a rel="tooltip" class="modebar-btn" data-title="Reset axes" data-attr="zoom" data-val="reset" data-toggle="false" data-gravity="n"><svg viewBox="0 0 928.6 1000" class="icon" height="1em" width="1em"><path d="m786 296v-267q0-15-11-26t-25-10h-214v214h-143v-214h-214q-15 0-25 10t-11 26v267q0 1 0 2t0 2l321 264 321-264q1-1 1-4z m124 39l-34-41q-5-5-12-6h-2q-7 0-12 3l-386 322-386-322q-7-4-13-4-7 2-12 7l-35 41q-4 5-3 13t6 12l401 334q18 15 42 15t43-15l136-114v109q0 8 5 13t13 5h107q8 0 13-5t5-13v-227l122-102q5-5 6-12t-4-13z" transform="matrix(1 0 0 -1 0 850)"></path></svg></a></div><div class="modebar-group"><a rel="tooltip" class="modebar-btn" data-title="Toggle Spike Lines" data-attr="_cartesianSpikesEnabled" data-val="on" data-toggle="false" data-gravity="n"><svg viewBox="0 0 1000 1000" class="icon" height="1em" width="1em"><path d="M512 409c0-57-46-104-103-104-57 0-104 47-104 104 0 57 47 103 104 103 57 0 103-46 103-103z m-327-39l92 0 0 92-92 0z m-185 0l92 0 0 92-92 0z m370-186l92 0 0 93-92 0z m0-184l92 0 0 92-92 0z" transform="matrix(1.5 0 0 -1.5 0 850)"></path></svg></a><a rel="tooltip" class="modebar-btn" data-title="Show closest data on hover" data-attr="hovermode" data-val="closest" data-toggle="false" data-gravity="ne"><svg viewBox="0 0 1500 1000" class="icon" height="1em" width="1em"><path d="m375 725l0 0-375-375 375-374 0-1 1125 0 0 750-1125 0z" transform="matrix(1 0 0 -1 0 850)"></path></svg></a><a rel="tooltip" class="modebar-btn active" data-title="Compare data on hover" data-attr="hovermode" data-val="x" data-toggle="false" data-gravity="ne"><svg viewBox="0 0 1125 1000" class="icon" height="1em" width="1em"><path d="m187 786l0 2-187-188 188-187 0 0 937 0 0 373-938 0z m0-499l0 1-187-188 188-188 0 0 937 0 0 376-938-1z" transform="matrix(1 0 0 -1 0 850)"></path></svg></a></div></div></div><svg class="main-svg" style="position: absolute" xmlns="http://www.w3.org/2000/svg" xmlns:xlink="http://www.w3.org/1999/xlink" width="1363.18" height="642"><g class="hoverlayer"></g></svg>