<svg class="main-svg" style="position: absolute" xmlns="http://www.w3.org/2000/svg" xmlns:xlink="http://www.w3.org/1999/xlink" width="1150" height="850" style="background: rgb(255, 255, 255);"><defs id="defs-cb899a"><g class="clips"><clipPath id="clipcb899axyplot" class="plotclip"><rect width="990" height="670"></rect></clipPath><clipPath class="axesclip" id="clipcb899ax"><rect x="80" y="0" width="990" height="850"></rect></clipPath><clipPath class="axesclip" id="clipcb899ay"><rect x="0" y="100" width="1150" height="670"></rect></clipPath><clipPath class="axesclip" id="clipcb899axy"><rect x="80" y="100" width="990" height="670"></rect></clipPath></g><g class="gradients"></g></defs><g class="bglayer"></g><g class="draglayer cursor-crosshair"><g class="xy"><rect class="nsewdrag drag cursor-pointer" data-subplot="xy" x="80" y="100" width="990" height="670" style="fill: transparent; stroke-width: 0; pointer-events: all;"></rect><rect class="nwdrag drag cursor-pointer" data-subplot="xy" x="60" y="80" width="20" height="20" style="fill: transparent; stroke-width: 0; pointer-events: none;"></rect><rect class="nedrag drag cursor-pointer" data-subplot="xy" x="1070" y="80" width="20" height="20" style="fill: transparent; stroke-width: 0; pointer-events: none;"></rect><rect class="swdrag drag cursor-pointer" data-subplot="xy" x="60" y="770" width="20" height="20" style="fill: transparent; stroke-width: 0; pointer-events: none;"></rect><rect class="sedrag drag cursor-pointer" data-subplot="xy" x="1070" y="770" width="20" height="20" style="fill: transparent; stroke-width: 0; pointer-events: none;"></rect><rect class="ewdrag drag cursor-pointer" data-subplot="xy" x="179" y="772" width="792" height="20" style="fill: transparent; stroke-width: 0; pointer-events: none;"></rect><rect class="wdrag drag cursor-pointer" data-subplot="xy" x="80" y="772" width="99" height="20" style="fill: transparent; stroke-width: 0; pointer-events: none;"></rect><rect class="edrag drag cursor-pointer" data-subplot="xy" x="971" y="772" width="99" height="20" style="fill: transparent; stroke-width: 0; pointer-events: none;"></rect><rect class="nsdrag drag cursor-pointer" data-subplot="xy" x="58" y="167" width="20" height="536" style="fill: transparent; stroke-width: 0; pointer-events: none;"></rect><rect class="sdrag drag cursor-pointer" data-subplot="xy" x="58" y="703" width="20" height="67" style="fill: transparent; stroke-width: 0; pointer-events: none;"></rect><rect class="ndrag drag cursor-pointer" data-subplot="xy" x="58" y="100" width="20" height="67" style="fill: transparent; stroke-width: 0; pointer-events: none;"></rect></g></g><g class="layer-below"><g class="imagelayer"></g><g class="shapelayer"></g></g><g class="cartesianlayer"><g class="subplot xy"><g class="layer-subplot"><g class="shapelayer"></g><g class="imagelayer"></g></g><g class="gridlayer"><g class="x"><path class="xgrid crisp" transform="translate(268.87,0)" d="M0,100v670" style="stroke: rgb(238, 238, 238); stroke-opacity: 1; stroke-width: 1px;"></path><path class="xgrid crisp" transform="translate(457.74,0)" d="M0,100v670" style="stroke: rgb(238, 238, 238); stroke-opacity: 1; stroke-width: 1px;"></path><path class="xgrid crisp" transform="translate(646.61,0)" d="M0,100v670" style="stroke: rgb(238, 238, 238); stroke-opacity: 1; stroke-width: 1px;"></path><path class="xgrid crisp" transform="translate(835.49,0)" d="M0,100v670" style="stroke: rgb(238, 238, 238); stroke-opacity: 1; stroke-width: 1px;"></path><path class="xgrid crisp" transform="translate(1024.3600000000001,0)" d="M0,100v670" style="stroke: rgb(238, 238, 238); stroke-opacity: 1; stroke-width: 1px;"></path></g><g class="y"><path class="ygrid crisp" transform="translate(0,672.43)" d="M80,0h990" style="stroke: rgb(238, 238, 238); stroke-opacity: 1; stroke-width: 1px;"></path><path class="ygrid crisp" transform="translate(0,574.86)" d="M80,0h990" style="stroke: rgb(238, 238, 238); stroke-opacity: 1; stroke-width: 1px;"></path><path class="ygrid crisp" transform="translate(0,477.29)" d="M80,0h990" style="stroke: rgb(238, 238, 238); stroke-opacity: 1; stroke-width: 1px;"></path><path class="ygrid crisp" transform="translate(0,379.72)" d="M80,0h990" style="stroke: rgb(238, 238, 238); stroke-opacity: 1; stroke-width: 1px;"></path><path class="ygrid crisp" transform="translate(0,282.15)" d="M80,0h990" style="stroke: rgb(238, 238, 238); stroke-opacity: 1; stroke-width: 1px;"></path><path class="ygrid crisp" transform="translate(0,184.57999999999998)" d="M80,0h990" style="stroke: rgb(238, 238, 238); stroke-opacity: 1; stroke-width: 1px;"></path></g></g><g class="zerolinelayer"></g><path class="xlines-below"></path><path class="ylines-below"></path><g class="overlines-below"></g><g class="xaxislayer-below"></g><g class="yaxislayer-below"></g><g class="overaxes-below"></g><g class="plot" transform="translate(80,100)" clip-path="url('#clipcb899axyplot')"><g class="scatterlayer mlayer"><g class="trace scatter trace74fdf1" style="stroke-miterlimit: 2; opacity: 1;"><g class="fills"></g><g class="errorbars"></g><g class="lines"></g><g class="points"><path class="point" transform="translate(944.36,401.68)" d="M5,0A5,5 0 1,1 0,-5A5,5 0 0,1 5,0Z" style="opacity: 1; stroke-width: 0px; fill: rgb(0, 0, 0); fill-opacity: 1;"></path><path class="point" transform="translate(755.49,289.48)" d="M5,0A5,5 0 1,1 0,-5A5,5 0 0,1 5,0Z" style="opacity: 1; stroke-width: 0px; fill: rgb(0, 0, 0); fill-opacity: 1;"></path><path class="point" transform="translate(566.61,226.05)" d="M5,0A5,5 0 1,1 0,-5A5,5 0 0,1 5,0Z" style="opacity: 1; stroke-width: 0px; fill: rgb(0, 0, 0); fill-opacity: 1;"></path><path class="point" transform="translate(377.74,113.85)" d="M5,0A5,5 0 1,1 0,-5A5,5 0 0,1 5,0Z" style="opacity: 1; stroke-width: 0px; fill: rgb(0, 0, 0); fill-opacity: 1;"></path><path class="point" transform="translate(188.87,26.03)" d="M5,0A5,5 0 1,1 0,-5A5,5 0 0,1 5,0Z" style="opacity: 1; stroke-width: 0px; fill: rgb(0, 0, 0); fill-opacity: 1;"></path></g><g class="text"></g></g><g class="trace scatter tracebb6cf0" style="stroke-miterlimit: 2; opacity: 1;"><g class="fills"></g><g class="errorbars"></g><g class="lines"><path class="js-line" d="M188.87,26.03L944.36,396.8" style="vector-effect: non-scaling-stroke; fill: none; stroke: rgb(0, 0, 0); stroke-opacity: 1; stroke-width: 4px; opacity: 1;"></path></g><g class="points"></g><g class="text"></g></g></g></g><g class="overplot"></g><path class="xlines-above crisp" d="M76,772H1070" style="fill: none; stroke-width: 4px; stroke: rgb(0, 0, 0); stroke-opacity: 1;"></path><path class="ylines-above crisp" d="M78,100V770" style="fill: none; stroke-width: 4px; stroke: rgb(0, 0, 0); stroke-opacity: 1;"></path><g class="overlines-above"></g><g class="xaxislayer-above"><path class="xtick ticks crisp" d="M0,770v-5" transform="translate(268.87,0)" style="stroke: rgb(0, 0, 0); stroke-opacity: 1; stroke-width: 5px;"></path><path class="xtick ticks crisp" d="M0,770v-5" transform="translate(457.74,0)" style="stroke: rgb(0, 0, 0); stroke-opacity: 1; stroke-width: 5px;"></path><path class="xtick ticks crisp" d="M0,770v-5" transform="translate(646.61,0)" style="stroke: rgb(0, 0, 0); stroke-opacity: 1; stroke-width: 5px;"></path><path class="xtick ticks crisp" d="M0,770v-5" transform="translate(835.49,0)" style="stroke: rgb(0, 0, 0); stroke-opacity: 1; stroke-width: 5px;"></path><path class="xtick ticks crisp" d="M0,770v-5" transform="translate(1024.3600000000001,0)" style="stroke: rgb(0, 0, 0); stroke-opacity: 1; stroke-width: 5px;"></path><g class="xtick"><text text-anchor="middle" x="0" y="802.8" data-unformatted="0" data-math="N" transform="translate(80,0)" style="font-family: &quot;Droid Serif&quot;, serif; font-size: 24px; fill: rgb(0, 0, 0); fill-opacity: 1; white-space: pre;">0</text></g><g class="xtick"><text text-anchor="middle" x="0" y="802.8" data-unformatted="1" data-math="N" transform="translate(268.87,0)" style="font-family: &quot;Droid Serif&quot;, serif; font-size: 24px; fill: rgb(0, 0, 0); fill-opacity: 1; white-space: pre;">1</text></g><g class="xtick"><text text-anchor="middle" x="0" y="802.8" data-unformatted="2" data-math="N" transform="translate(457.74,0)" style="font-family: &quot;Droid Serif&quot;, serif; font-size: 24px; fill: rgb(0, 0, 0); fill-opacity: 1; white-space: pre;">2</text></g><g class="xtick"><text text-anchor="middle" x="0" y="802.8" data-unformatted="3" data-math="N" transform="translate(646.61,0)" style="font-family: &quot;Droid Serif&quot;, serif; font-size: 24px; fill: rgb(0, 0, 0); fill-opacity: 1; white-space: pre;">3</text></g><g class="xtick"><text text-anchor="middle" x="0" y="802.8" data-unformatted="4" data-math="N" transform="translate(835.49,0)" style="font-family: &quot;Droid Serif&quot;, serif; font-size: 24px; fill: rgb(0, 0, 0); fill-opacity: 1; white-space: pre;">4</text></g><g class="xtick"><text text-anchor="middle" x="0" y="802.8" data-unformatted="5" data-math="N" transform="translate(1024.3600000000001,0)" style="font-family: &quot;Droid Serif&quot;, serif; font-size: 24px; fill: rgb(0, 0, 0); fill-opacity: 1; white-space: pre;">5</text></g></g><g class="yaxislayer-above"><path class="ytick ticks crisp" d="M80,0h5" transform="translate(0,672.43)" style="stroke: rgb(0, 0, 0); stroke-opacity: 1; stroke-width: 5px;"></path><path class="ytick ticks crisp" d="M80,0h5" transform="translate(0,574.86)" style="stroke: rgb(0, 0, 0); stroke-opacity: 1; stroke-width: 5px;"></path><path class="ytick ticks crisp" d="M80,0h5" transform="translate(0,477.29)" style="stroke: rgb(0, 0, 0); stroke-opacity: 1; stroke-width: 5px;"></path><path class="ytick ticks crisp" d="M80,0h5" transform="translate(0,379.72)" style="stroke: rgb(0, 0, 0); stroke-opacity: 1; stroke-width: 5px;"></path><path class="ytick ticks crisp" d="M80,0h5" transform="translate(0,282.15)" style="stroke: rgb(0, 0, 0); stroke-opacity: 1; stroke-width: 5px;"></path><path class="ytick ticks crisp" d="M80,0h5" transform="translate(0,184.57999999999998)" style="stroke: rgb(0, 0, 0); stroke-opacity: 1; stroke-width: 5px;"></path><g class="ytick"><text text-anchor="end" x="71.2" y="8.399999999999999" data-unformatted="0" data-math="N" transform="translate(0,770)" style="font-family: &quot;Droid Serif&quot;, serif; font-size: 24px; fill: rgb(0, 0, 0); fill-opacity: 1; white-space: pre;">0</text></g><g class="ytick"><text text-anchor="end" x="71.2" y="8.399999999999999" data-unformatted="20" data-math="N" transform="translate(0,672.43)" style="font-family: &quot;Droid Serif&quot;, serif; font-size: 24px; fill: rgb(0, 0, 0); fill-opacity: 1; white-space: pre;">20</text></g><g class="ytick"><text text-anchor="end" x="71.2" y="8.399999999999999" data-unformatted="40" data-math="N" transform="translate(0,574.86)" style="font-family: &quot;Droid Serif&quot;, serif; font-size: 24px; fill: rgb(0, 0, 0); fill-opacity: 1; white-space: pre;">40</text></g><g class="ytick"><text text-anchor="end" x="71.2" y="8.399999999999999" data-unformatted="60" data-math="N" transform="translate(0,477.29)" style="font-family: &quot;Droid Serif&quot;, serif; font-size: 24px; fill: rgb(0, 0, 0); fill-opacity: 1; white-space: pre;">60</text></g><g class="ytick"><text text-anchor="end" x="71.2" y="8.399999999999999" data-unformatted="80" data-math="N" transform="translate(0,379.72)" style="font-family: &quot;Droid Serif&quot;, serif; font-size: 24px; fill: rgb(0, 0, 0); fill-opacity: 1; white-space: pre;">80</text></g><g class="ytick"><text text-anchor="end" x="71.2" y="8.399999999999999" data-unformatted="100" data-math="N" transform="translate(0,282.15)" style="font-family: &quot;Droid Serif&quot;, serif; font-size: 24px; fill: rgb(0, 0, 0); fill-opacity: 1; white-space: pre;">100</text></g><g class="ytick"><text text-anchor="end" x="71.2" y="8.399999999999999" data-unformatted="120" data-math="N" transform="translate(0,184.57999999999998)" style="font-family: &quot;Droid Serif&quot;, serif; font-size: 24px; fill: rgb(0, 0, 0); fill-opacity: 1; white-space: pre;">120</text></g></g><g class="overaxes-above"></g></g></g><g class="polarlayer"></g><g class="ternarylayer"></g><g class="geolayer"></g><g class="funnelarealayer"></g><g class="pielayer"></g><g class="treemaplayer"></g><g class="sunburstlayer"></g><g class="glimages"></g></svg><div class="gl-container"></div><svg class="main-svg" style="position: absolute" xmlns="http://www.w3.org/2000/svg" xmlns:xlink="http://www.w3.org/1999/xlink" width="1150" height="850"><defs id="topdefs-cb899a"><g class="clips"></g></defs><g class="indicatorlayer"></g><g class="layer-above"><g class="imagelayer"></g><g class="shapelayer"></g></g><g class="infolayer"><g class="g-gtitle"><text class="gtitle" x="575" y="50" text-anchor="middle" dy="0em" data-unformatted="Weight (g) vs Range (cm)" data-math="N" style="font-family: &quot;Droid Serif&quot;, serif; font-size: 34px; fill: rgb(0, 0, 0); opacity: 1; font-weight: normal; white-space: pre;">Weight (g) vs Range (cm)</text></g><g class="g-xtitle" transform="translate(0,-24)"><text class="xtitle" x="575" y="867" text-anchor="middle" data-unformatted="Weight (g)" data-math="N" style="font-family: &quot;Droid Serif&quot;, serif; font-size: 28px; fill: rgb(0, 0, 0); opacity: 1; font-weight: normal; white-space: pre;">Weight (g)</text></g><g class="g-ytitle" transform="translate(14,0)"><text class="ytitle" transform="rotate(-90,11,435)" x="11" y="435" text-anchor="middle" data-unformatted="Range (cm)" data-math="N" style="font-family: &quot;Droid Serif&quot;, serif; font-size: 28px; fill: rgb(0, 0, 0); opacity: 1; font-weight: normal; white-space: pre;">Range (cm)</text></g></g><g class="menulayer"></g><g class="zoomlayer"></g></svg><div class="modebar-container" style="position: absolute; top: 0px; right: 0px; width: 100%;"><div id="modebar-cb899a" class="modebar modebar--hover ease-bg"><div class="modebar-group"><a rel="tooltip" class="modebar-btn" data-title="Download plot as a png" data-toggle="false" data-gravity="n"><svg viewBox="0 0 1000 1000" class="icon" height="1em" width="1em"><path d="m500 450c-83 0-150-67-150-150 0-83 67-150 150-150 83 0 150 67 150 150 0 83-67 150-150 150z m400 150h-120c-16 0-34 13-39 29l-31 93c-6 15-23 28-40 28h-340c-16 0-34-13-39-28l-31-94c-6-15-23-28-40-28h-120c-55 0-100-45-100-100v-450c0-55 45-100 100-100h800c55 0 100 45 100 100v450c0 55-45 100-100 100z m-400-550c-138 0-250 112-250 250 0 138 112 250 250 250 138 0 250-112 250-250 0-138-112-250-250-250z m365 380c-19 0-35 16-35 35 0 19 16 35 35 35 19 0 35-16 35-35 0-19-16-35-35-35z" transform="matrix(1 0 0 -1 0 850)"></path></svg></a></div><div class="modebar-group"><a rel="tooltip" class="modebar-btn" data-title="Box Select" data-attr="dragmode" data-val="select" data-toggle="false" data-gravity="n"><svg viewBox="0 0 1000 1000" class="icon" height="1em" width="1em"><path d="m0 850l0-143 143 0 0 143-143 0z m286 0l0-143 143 0 0 143-143 0z m285 0l0-143 143 0 0 143-143 0z m286 0l0-143 143 0 0 143-143 0z m-857-286l0-143 143 0 0 143-143 0z m857 0l0-143 143 0 0 143-143 0z m-857-285l0-143 143 0 0 143-143 0z m857 0l0-143 143 0 0 143-143 0z m-857-286l0-143 143 0 0 143-143 0z m286 0l0-143 143 0 0 143-143 0z m285 0l0-143 143 0 0 143-143 0z m286 0l0-143 143 0 0 143-143 0z" transform="matrix(1 0 0 -1 0 850)"></path></svg></a><a rel="tooltip" class="modebar-btn" data-title="Lasso Select" data-attr="dragmode" data-val="lasso" data-toggle="false" data-gravity="n"><svg viewBox="0 0 1031 1000" class="icon" height="1em" width="1em"><path d="m1018 538c-36 207-290 336-568 286-277-48-473-256-436-463 10-57 36-108 76-151-13-66 11-137 68-183 34-28 75-41 114-42l-55-70 0 0c-2-1-3-2-4-3-10-14-8-34 5-45 14-11 34-8 45 4 1 1 2 3 2 5l0 0 113 140c16 11 31 24 45 40 4 3 6 7 8 11 48-3 100 0 151 9 278 48 473 255 436 462z m-624-379c-80 14-149 48-197 96 42 42 109 47 156 9 33-26 47-66 41-105z m-187-74c-19 16-33 37-39 60 50-32 109-55 174-68-42-25-95-24-135 8z m360 75c-34-7-69-9-102-8 8 62-16 128-68 170-73 59-175 54-244-5-9 20-16 40-20 61-28 159 121 317 333 354s407-60 434-217c28-159-121-318-333-355z" transform="matrix(1 0 0 -1 0 850)"></path></svg></a></div><div class="modebar-group"><a rel="tooltip" class="modebar-btn" data-title="Toggle Spike Lines" data-attr="_cartesianSpikesEnabled" data-val="on" data-toggle="false" data-gravity="n"><svg viewBox="0 0 1000 1000" class="icon" height="1em" width="1em"><path d="M512 409c0-57-46-104-103-104-57 0-104 47-104 104 0 57 47 103 104 103 57 0 103-46 103-103z m-327-39l92 0 0 92-92 0z m-185 0l92 0 0 92-92 0z m370-186l92 0 0 93-92 0z m0-184l92 0 0 92-92 0z" transform="matrix(1.5 0 0 -1.5 0 850)"></path></svg></a><a rel="tooltip" class="modebar-btn" data-title="Show closest data on hover" data-attr="hovermode" data-val="closest" data-toggle="false" data-gravity="ne"><svg viewBox="0 0 1500 1000" class="icon" height="1em" width="1em"><path d="m375 725l0 0-375-375 375-374 0-1 1125 0 0 750-1125 0z" transform="matrix(1 0 0 -1 0 850)"></path></svg></a><a rel="tooltip" class="modebar-btn active" data-title="Compare data on hover" data-attr="hovermode" data-val="x" data-toggle="false" data-gravity="ne"><svg viewBox="0 0 1125 1000" class="icon" height="1em" width="1em"><path d="m187 786l0 2-187-188 188-187 0 0 937 0 0 373-938 0z m0-499l0 1-187-188 188-188 0 0 937 0 0 376-938-1z" transform="matrix(1 0 0 -1 0 850)"></path></svg></a></div></div></div><svg class="main-svg" style="position: absolute" xmlns="http://www.w3.org/2000/svg" xmlns:xlink="http://www.w3.org/1999/xlink" width="1150" height="850"><g class="hoverlayer"></g></svg>