<svg class="main-svg" style="position: absolute" xmlns="http://www.w3.org/2000/svg" xmlns:xlink="http://www.w3.org/1999/xlink" width="1100" height="850" style="background: rgb(255, 255, 255);"><defs id="defs-8e84ea"><g class="clips"><clipPath id="clip8e84eaxyplot" class="plotclip"><rect width="940" height="670"></rect></clipPath><clipPath class="axesclip" id="clip8e84eax"><rect x="80" y="0" width="940" height="850"></rect></clipPath><clipPath class="axesclip" id="clip8e84eay"><rect x="0" y="100" width="1100" height="670"></rect></clipPath><clipPath class="axesclip" id="clip8e84eaxy"><rect x="80" y="100" width="940" height="670"></rect></clipPath></g><g class="gradients"></g></defs><g class="bglayer"></g><g class="draglayer cursor-crosshair"><g class="xy"><rect class="nsewdrag drag cursor-pointer" data-subplot="xy" x="80" y="100" width="940" height="670" style="fill: transparent; stroke-width: 0; pointer-events: all;"></rect><rect class="nwdrag drag cursor-pointer" data-subplot="xy" x="60" y="80" width="20" height="20" style="fill: transparent; stroke-width: 0; pointer-events: none;"></rect><rect class="nedrag drag cursor-pointer" data-subplot="xy" x="1020" y="80" width="20" height="20" style="fill: transparent; stroke-width: 0; pointer-events: none;"></rect><rect class="swdrag drag cursor-pointer" data-subplot="xy" x="60" y="770" width="20" height="20" style="fill: transparent; stroke-width: 0; pointer-events: none;"></rect><rect class="sedrag drag cursor-pointer" data-subplot="xy" x="1020" y="770" width="20" height="20" style="fill: transparent; stroke-width: 0; pointer-events: none;"></rect><rect class="ewdrag drag cursor-pointer" data-subplot="xy" x="174" y="771" width="752" height="20" style="fill: transparent; stroke-width: 0; pointer-events: none;"></rect><rect class="wdrag drag cursor-pointer" data-subplot="xy" x="80" y="771" width="94" height="20" style="fill: transparent; stroke-width: 0; pointer-events: none;"></rect><rect class="edrag drag cursor-pointer" data-subplot="xy" x="926" y="771" width="94" height="20" style="fill: transparent; stroke-width: 0; pointer-events: none;"></rect><rect class="nsdrag drag cursor-pointer" data-subplot="xy" x="59" y="167" width="20" height="536" style="fill: transparent; stroke-width: 0; pointer-events: none;"></rect><rect class="sdrag drag cursor-pointer" data-subplot="xy" x="59" y="703" width="20" height="67" style="fill: transparent; stroke-width: 0; pointer-events: none;"></rect><rect class="ndrag drag cursor-pointer" data-subplot="xy" x="59" y="100" width="20" height="67" style="fill: transparent; stroke-width: 0; pointer-events: none;"></rect></g></g><g class="layer-below"><g class="imagelayer"></g><g class="shapelayer"></g></g><g class="cartesianlayer"><g class="subplot xy"><g class="layer-subplot"><g class="shapelayer"></g><g class="imagelayer"></g></g><g class="gridlayer"><g class="x"><path class="xgrid crisp" transform="translate(86.62,0)" d="M0,100v670" style="stroke: rgb(238, 238, 238); stroke-opacity: 1; stroke-width: 2px;"></path><path class="xgrid crisp" transform="translate(196.95,0)" d="M0,100v670" style="stroke: rgb(238, 238, 238); stroke-opacity: 1; stroke-width: 2px;"></path><path class="xgrid crisp" transform="translate(307.28,0)" d="M0,100v670" style="stroke: rgb(238, 238, 238); stroke-opacity: 1; stroke-width: 2px;"></path><path class="xgrid crisp" transform="translate(417.61,0)" d="M0,100v670" style="stroke: rgb(238, 238, 238); stroke-opacity: 1; stroke-width: 2px;"></path><path class="xgrid crisp" transform="translate(527.9300000000001,0)" d="M0,100v670" style="stroke: rgb(238, 238, 238); stroke-opacity: 1; stroke-width: 2px;"></path><path class="xgrid crisp" transform="translate(638.26,0)" d="M0,100v670" style="stroke: rgb(238, 238, 238); stroke-opacity: 1; stroke-width: 2px;"></path><path class="xgrid crisp" transform="translate(748.59,0)" d="M0,100v670" style="stroke: rgb(238, 238, 238); stroke-opacity: 1; stroke-width: 2px;"></path><path class="xgrid crisp" transform="translate(858.92,0)" d="M0,100v670" style="stroke: rgb(238, 238, 238); stroke-opacity: 1; stroke-width: 2px;"></path><path class="xgrid crisp" transform="translate(969.25,0)" d="M0,100v670" style="stroke: rgb(238, 238, 238); stroke-opacity: 1; stroke-width: 2px;"></path></g><g class="y"><path class="ygrid crisp" transform="translate(0,725.21)" d="M80,0h940" style="stroke: rgb(238, 238, 238); stroke-opacity: 1; stroke-width: 2px;"></path><path class="ygrid crisp" transform="translate(0,649.83)" d="M80,0h940" style="stroke: rgb(238, 238, 238); stroke-opacity: 1; stroke-width: 2px;"></path><path class="ygrid crisp" transform="translate(0,574.45)" d="M80,0h940" style="stroke: rgb(238, 238, 238); stroke-opacity: 1; stroke-width: 2px;"></path><path class="ygrid crisp" transform="translate(0,499.07)" d="M80,0h940" style="stroke: rgb(238, 238, 238); stroke-opacity: 1; stroke-width: 2px;"></path><path class="ygrid crisp" transform="translate(0,423.69)" d="M80,0h940" style="stroke: rgb(238, 238, 238); stroke-opacity: 1; stroke-width: 2px;"></path><path class="ygrid crisp" transform="translate(0,348.31)" d="M80,0h940" style="stroke: rgb(238, 238, 238); stroke-opacity: 1; stroke-width: 2px;"></path><path class="ygrid crisp" transform="translate(0,272.93)" d="M80,0h940" style="stroke: rgb(238, 238, 238); stroke-opacity: 1; stroke-width: 2px;"></path><path class="ygrid crisp" transform="translate(0,197.55)" d="M80,0h940" style="stroke: rgb(238, 238, 238); stroke-opacity: 1; stroke-width: 2px;"></path><path class="ygrid crisp" transform="translate(0,122.17)" d="M80,0h940" style="stroke: rgb(238, 238, 238); stroke-opacity: 1; stroke-width: 2px;"></path></g></g><g class="zerolinelayer"></g><path class="xlines-below"></path><path class="ylines-below"></path><g class="overlines-below"></g><g class="xaxislayer-below"></g><g class="yaxislayer-below"></g><g class="overaxes-below"></g><g class="plot" transform="translate(80,100)" clip-path="url('#clip8e84eaxyplot')"><g class="scatterlayer mlayer"><g class="trace scatter trace896acc" style="stroke-miterlimit: 2; opacity: 1;"><g class="fills"></g><g class="errorbars"></g><g class="lines"></g><g class="points"><path class="point" transform="translate(50.75,610.14)" d="M3,0A3,3 0 1,1 0,-3A3,3 0 0,1 3,0Z" style="opacity: 1; stroke-width: 2.5px; fill: rgb(0, 0, 0); fill-opacity: 1; stroke: rgb(68, 68, 68); stroke-opacity: 1;"></path><path class="point" transform="translate(205.21,335.75)" d="M3,0A3,3 0 1,1 0,-3A3,3 0 0,1 3,0Z" style="opacity: 1; stroke-width: 2.5px; fill: rgb(0, 0, 0); fill-opacity: 1; stroke: rgb(68, 68, 68); stroke-opacity: 1;"></path><path class="point" transform="translate(337.61,147.3)" d="M3,0A3,3 0 1,1 0,-3A3,3 0 0,1 3,0Z" style="opacity: 1; stroke-width: 2.5px; fill: rgb(0, 0, 0); fill-opacity: 1; stroke: rgb(68, 68, 68); stroke-opacity: 1;"></path><path class="point" transform="translate(503.1,37.25)" d="M3,0A3,3 0 1,1 0,-3A3,3 0 0,1 3,0Z" style="opacity: 1; stroke-width: 2.5px; fill: rgb(0, 0, 0); fill-opacity: 1; stroke: rgb(68, 68, 68); stroke-opacity: 1;"></path><path class="point" transform="translate(646.53,172.93)" d="M3,0A3,3 0 1,1 0,-3A3,3 0 0,1 3,0Z" style="opacity: 1; stroke-width: 2.5px; fill: rgb(0, 0, 0); fill-opacity: 1; stroke: rgb(68, 68, 68); stroke-opacity: 1;"></path><path class="point" transform="translate(778.92,466.91)" d="M3,0A3,3 0 1,1 0,-3A3,3 0 0,1 3,0Z" style="opacity: 1; stroke-width: 2.5px; fill: rgb(0, 0, 0); fill-opacity: 1; stroke: rgb(68, 68, 68); stroke-opacity: 1;"></path><path class="point" transform="translate(889.25,632.75)" d="M3,0A3,3 0 1,1 0,-3A3,3 0 0,1 3,0Z" style="opacity: 1; stroke-width: 2.5px; fill: rgb(0, 0, 0); fill-opacity: 1; stroke: rgb(68, 68, 68); stroke-opacity: 1;"></path></g><g class="text"></g></g></g></g><g class="overplot"></g><path class="xlines-above crisp" d="M78,771H1020" style="fill: none; stroke-width: 2px; stroke: rgb(68, 68, 68); stroke-opacity: 1;"></path><path class="ylines-above crisp" d="M79,100V770" style="fill: none; stroke-width: 2px; stroke: rgb(68, 68, 68); stroke-opacity: 1;"></path><g class="overlines-above"></g><g class="xaxislayer-above"><path class="xtick ticks crisp" d="M0,770v-6" transform="translate(86.62,0)" style="stroke: rgb(68, 68, 68); stroke-opacity: 1; stroke-width: 3px;"></path><path class="xtick ticks crisp" d="M0,770v-6" transform="translate(196.95,0)" style="stroke: rgb(68, 68, 68); stroke-opacity: 1; stroke-width: 3px;"></path><path class="xtick ticks crisp" d="M0,770v-6" transform="translate(307.28,0)" style="stroke: rgb(68, 68, 68); stroke-opacity: 1; stroke-width: 3px;"></path><path class="xtick ticks crisp" d="M0,770v-6" transform="translate(417.61,0)" style="stroke: rgb(68, 68, 68); stroke-opacity: 1; stroke-width: 3px;"></path><path class="xtick ticks crisp" d="M0,770v-6" transform="translate(527.9300000000001,0)" style="stroke: rgb(68, 68, 68); stroke-opacity: 1; stroke-width: 3px;"></path><path class="xtick ticks crisp" d="M0,770v-6" transform="translate(638.26,0)" style="stroke: rgb(68, 68, 68); stroke-opacity: 1; stroke-width: 3px;"></path><path class="xtick ticks crisp" d="M0,770v-6" transform="translate(748.59,0)" style="stroke: rgb(68, 68, 68); stroke-opacity: 1; stroke-width: 3px;"></path><path class="xtick ticks crisp" d="M0,770v-6" transform="translate(858.92,0)" style="stroke: rgb(68, 68, 68); stroke-opacity: 1; stroke-width: 3px;"></path><path class="xtick ticks crisp" d="M0,770v-6" transform="translate(969.25,0)" style="stroke: rgb(68, 68, 68); stroke-opacity: 1; stroke-width: 3px;"></path><g class="xtick"><text text-anchor="middle" x="0" y="790" data-unformatted="0" data-math="N" transform="translate(86.62,0)" style="font-family: &quot;Open Sans&quot;, verdana, arial, sans-serif; font-size: 15px; fill: rgb(68, 68, 68); fill-opacity: 1; white-space: pre;">0</text></g><g class="xtick"><text text-anchor="middle" x="0" y="790" data-unformatted="10" data-math="N" transform="translate(196.95,0)" style="font-family: &quot;Open Sans&quot;, verdana, arial, sans-serif; font-size: 15px; fill: rgb(68, 68, 68); fill-opacity: 1; white-space: pre;">10</text></g><g class="xtick"><text text-anchor="middle" x="0" y="790" data-unformatted="20" data-math="N" transform="translate(307.28,0)" style="font-family: &quot;Open Sans&quot;, verdana, arial, sans-serif; font-size: 15px; fill: rgb(68, 68, 68); fill-opacity: 1; white-space: pre;">20</text></g><g class="xtick"><text text-anchor="middle" x="0" y="790" data-unformatted="30" data-math="N" transform="translate(417.61,0)" style="font-family: &quot;Open Sans&quot;, verdana, arial, sans-serif; font-size: 15px; fill: rgb(68, 68, 68); fill-opacity: 1; white-space: pre;">30</text></g><g class="xtick"><text text-anchor="middle" x="0" y="790" data-unformatted="40" data-math="N" transform="translate(527.9300000000001,0)" style="font-family: &quot;Open Sans&quot;, verdana, arial, sans-serif; font-size: 15px; fill: rgb(68, 68, 68); fill-opacity: 1; white-space: pre;">40</text></g><g class="xtick"><text text-anchor="middle" x="0" y="790" data-unformatted="50" data-math="N" transform="translate(638.26,0)" style="font-family: &quot;Open Sans&quot;, verdana, arial, sans-serif; font-size: 15px; fill: rgb(68, 68, 68); fill-opacity: 1; white-space: pre;">50</text></g><g class="xtick"><text text-anchor="middle" x="0" y="790" data-unformatted="60" data-math="N" transform="translate(748.59,0)" style="font-family: &quot;Open Sans&quot;, verdana, arial, sans-serif; font-size: 15px; fill: rgb(68, 68, 68); fill-opacity: 1; white-space: pre;">60</text></g><g class="xtick"><text text-anchor="middle" x="0" y="790" data-unformatted="70" data-math="N" transform="translate(858.92,0)" style="font-family: &quot;Open Sans&quot;, verdana, arial, sans-serif; font-size: 15px; fill: rgb(68, 68, 68); fill-opacity: 1; white-space: pre;">70</text></g><g class="xtick"><text text-anchor="middle" x="0" y="790" data-unformatted="80" data-math="N" transform="translate(969.25,0)" style="font-family: &quot;Open Sans&quot;, verdana, arial, sans-serif; font-size: 15px; fill: rgb(68, 68, 68); fill-opacity: 1; white-space: pre;">80</text></g></g><g class="yaxislayer-above"><path class="ytick ticks crisp" d="M80,0h6" transform="translate(0,725.21)" style="stroke: rgb(68, 68, 68); stroke-opacity: 1; stroke-width: 3px;"></path><path class="ytick ticks crisp" d="M80,0h6" transform="translate(0,649.83)" style="stroke: rgb(68, 68, 68); stroke-opacity: 1; stroke-width: 3px;"></path><path class="ytick ticks crisp" d="M80,0h6" transform="translate(0,574.45)" style="stroke: rgb(68, 68, 68); stroke-opacity: 1; stroke-width: 3px;"></path><path class="ytick ticks crisp" d="M80,0h6" transform="translate(0,499.07)" style="stroke: rgb(68, 68, 68); stroke-opacity: 1; stroke-width: 3px;"></path><path class="ytick ticks crisp" d="M80,0h6" transform="translate(0,423.69)" style="stroke: rgb(68, 68, 68); stroke-opacity: 1; stroke-width: 3px;"></path><path class="ytick ticks crisp" d="M80,0h6" transform="translate(0,348.31)" style="stroke: rgb(68, 68, 68); stroke-opacity: 1; stroke-width: 3px;"></path><path class="ytick ticks crisp" d="M80,0h6" transform="translate(0,272.93)" style="stroke: rgb(68, 68, 68); stroke-opacity: 1; stroke-width: 3px;"></path><path class="ytick ticks crisp" d="M80,0h6" transform="translate(0,197.55)" style="stroke: rgb(68, 68, 68); stroke-opacity: 1; stroke-width: 3px;"></path><path class="ytick ticks crisp" d="M80,0h6" transform="translate(0,122.17)" style="stroke: rgb(68, 68, 68); stroke-opacity: 1; stroke-width: 3px;"></path><g class="ytick"><text text-anchor="end" x="75" y="5.25" data-unformatted="100" data-math="N" transform="translate(0,725.21)" style="font-family: &quot;Open Sans&quot;, verdana, arial, sans-serif; font-size: 15px; fill: rgb(68, 68, 68); fill-opacity: 1; white-space: pre;">100</text></g><g class="ytick"><text text-anchor="end" x="75" y="5.25" data-unformatted="150" data-math="N" transform="translate(0,649.83)" style="font-family: &quot;Open Sans&quot;, verdana, arial, sans-serif; font-size: 15px; fill: rgb(68, 68, 68); fill-opacity: 1; white-space: pre;">150</text></g><g class="ytick"><text text-anchor="end" x="75" y="5.25" data-unformatted="200" data-math="N" transform="translate(0,574.45)" style="font-family: &quot;Open Sans&quot;, verdana, arial, sans-serif; font-size: 15px; fill: rgb(68, 68, 68); fill-opacity: 1; white-space: pre;">200</text></g><g class="ytick"><text text-anchor="end" x="75" y="5.25" data-unformatted="250" data-math="N" transform="translate(0,499.07)" style="font-family: &quot;Open Sans&quot;, verdana, arial, sans-serif; font-size: 15px; fill: rgb(68, 68, 68); fill-opacity: 1; white-space: pre;">250</text></g><g class="ytick"><text text-anchor="end" x="75" y="5.25" data-unformatted="300" data-math="N" transform="translate(0,423.69)" style="font-family: &quot;Open Sans&quot;, verdana, arial, sans-serif; font-size: 15px; fill: rgb(68, 68, 68); fill-opacity: 1; white-space: pre;">300</text></g><g class="ytick"><text text-anchor="end" x="75" y="5.25" data-unformatted="350" data-math="N" transform="translate(0,348.31)" style="font-family: &quot;Open Sans&quot;, verdana, arial, sans-serif; font-size: 15px; fill: rgb(68, 68, 68); fill-opacity: 1; white-space: pre;">350</text></g><g class="ytick"><text text-anchor="end" x="75" y="5.25" data-unformatted="400" data-math="N" transform="translate(0,272.93)" style="font-family: &quot;Open Sans&quot;, verdana, arial, sans-serif; font-size: 15px; fill: rgb(68, 68, 68); fill-opacity: 1; white-space: pre;">400</text></g><g class="ytick"><text text-anchor="end" x="75" y="5.25" data-unformatted="450" data-math="N" transform="translate(0,197.55)" style="font-family: &quot;Open Sans&quot;, verdana, arial, sans-serif; font-size: 15px; fill: rgb(68, 68, 68); fill-opacity: 1; white-space: pre;">450</text></g><g class="ytick"><text text-anchor="end" x="75" y="5.25" data-unformatted="500" data-math="N" transform="translate(0,122.17)" style="font-family: &quot;Open Sans&quot;, verdana, arial, sans-serif; font-size: 15px; fill: rgb(68, 68, 68); fill-opacity: 1; white-space: pre;">500</text></g></g><g class="overaxes-above"></g></g></g><g class="polarlayer"></g><g class="ternarylayer"></g><g class="geolayer"></g><g class="funnelarealayer"></g><g class="pielayer"></g><g class="treemaplayer"></g><g class="sunburstlayer"></g><g class="glimages"></g></svg><div class="gl-container"></div><svg class="main-svg" style="position: absolute" xmlns="http://www.w3.org/2000/svg" xmlns:xlink="http://www.w3.org/1999/xlink" width="1100" height="850"><defs id="topdefs-8e84ea"><g class="clips"></g></defs><g class="indicatorlayer"></g><g class="layer-above"><g class="imagelayer"></g><g class="shapelayer"></g></g><g class="infolayer"><g class="g-gtitle"><text class="gtitle" x="550" y="50" text-anchor="middle" dy="0em" data-unformatted="The Relationship Between Angle and Range" data-math="N" style="font-family: &quot;Open Sans&quot;, verdana, arial, sans-serif; font-size: 20px; fill: rgb(68, 68, 68); opacity: 1; font-weight: normal; white-space: pre;">The Relationship Between Angle and Range</text></g><g class="g-xtitle"><text class="xtitle" x="550" y="835" text-anchor="middle" data-unformatted="Angle (degrees)" data-math="N" style="font-family: &quot;Open Sans&quot;, verdana, arial, sans-serif; font-size: 18px; fill: rgb(68, 68, 68); opacity: 1; font-weight: normal; white-space: pre;">Angle (degrees)</text></g><g class="g-ytitle"><text class="ytitle" transform="rotate(-90,33,435)" x="33" y="435" text-anchor="middle" data-unformatted="Range (cm)" data-math="N" style="font-family: &quot;Open Sans&quot;, verdana, arial, sans-serif; font-size: 18px; fill: rgb(68, 68, 68); opacity: 1; font-weight: normal; white-space: pre;">Range (cm)</text></g></g><g class="menulayer"></g><g class="zoomlayer"></g></svg><div class="modebar-container" style="position: absolute; top: 0px; right: 0px; width: 100%;"><div id="modebar-8e84ea" class="modebar modebar--hover ease-bg"><div class="modebar-group"><a rel="tooltip" class="modebar-btn" data-title="Download plot as a png" data-toggle="false" data-gravity="n"><svg viewBox="0 0 1000 1000" class="icon" height="1em" width="1em"><path d="m500 450c-83 0-150-67-150-150 0-83 67-150 150-150 83 0 150 67 150 150 0 83-67 150-150 150z m400 150h-120c-16 0-34 13-39 29l-31 93c-6 15-23 28-40 28h-340c-16 0-34-13-39-28l-31-94c-6-15-23-28-40-28h-120c-55 0-100-45-100-100v-450c0-55 45-100 100-100h800c55 0 100 45 100 100v450c0 55-45 100-100 100z m-400-550c-138 0-250 112-250 250 0 138 112 250 250 250 138 0 250-112 250-250 0-138-112-250-250-250z m365 380c-19 0-35 16-35 35 0 19 16 35 35 35 19 0 35-16 35-35 0-19-16-35-35-35z" transform="matrix(1 0 0 -1 0 850)"></path></svg></a></div><div class="modebar-group"><a rel="tooltip" class="modebar-btn" data-title="Box Select" data-attr="dragmode" data-val="select" data-toggle="false" data-gravity="n"><svg viewBox="0 0 1000 1000" class="icon" height="1em" width="1em"><path d="m0 850l0-143 143 0 0 143-143 0z m286 0l0-143 143 0 0 143-143 0z m285 0l0-143 143 0 0 143-143 0z m286 0l0-143 143 0 0 143-143 0z m-857-286l0-143 143 0 0 143-143 0z m857 0l0-143 143 0 0 143-143 0z m-857-285l0-143 143 0 0 143-143 0z m857 0l0-143 143 0 0 143-143 0z m-857-286l0-143 143 0 0 143-143 0z m286 0l0-143 143 0 0 143-143 0z m285 0l0-143 143 0 0 143-143 0z m286 0l0-143 143 0 0 143-143 0z" transform="matrix(1 0 0 -1 0 850)"></path></svg></a><a rel="tooltip" class="modebar-btn" data-title="Lasso Select" data-attr="dragmode" data-val="lasso" data-toggle="false" data-gravity="n"><svg viewBox="0 0 1031 1000" class="icon" height="1em" width="1em"><path d="m1018 538c-36 207-290 336-568 286-277-48-473-256-436-463 10-57 36-108 76-151-13-66 11-137 68-183 34-28 75-41 114-42l-55-70 0 0c-2-1-3-2-4-3-10-14-8-34 5-45 14-11 34-8 45 4 1 1 2 3 2 5l0 0 113 140c16 11 31 24 45 40 4 3 6 7 8 11 48-3 100 0 151 9 278 48 473 255 436 462z m-624-379c-80 14-149 48-197 96 42 42 109 47 156 9 33-26 47-66 41-105z m-187-74c-19 16-33 37-39 60 50-32 109-55 174-68-42-25-95-24-135 8z m360 75c-34-7-69-9-102-8 8 62-16 128-68 170-73 59-175 54-244-5-9 20-16 40-20 61-28 159 121 317 333 354s407-60 434-217c28-159-121-318-333-355z" transform="matrix(1 0 0 -1 0 850)"></path></svg></a></div><div class="modebar-group"><a rel="tooltip" class="modebar-btn" data-title="Toggle Spike Lines" data-attr="_cartesianSpikesEnabled" data-val="on" data-toggle="false" data-gravity="n"><svg viewBox="0 0 1000 1000" class="icon" height="1em" width="1em"><path d="M512 409c0-57-46-104-103-104-57 0-104 47-104 104 0 57 47 103 104 103 57 0 103-46 103-103z m-327-39l92 0 0 92-92 0z m-185 0l92 0 0 92-92 0z m370-186l92 0 0 93-92 0z m0-184l92 0 0 92-92 0z" transform="matrix(1.5 0 0 -1.5 0 850)"></path></svg></a><a rel="tooltip" class="modebar-btn active" data-title="Show closest data on hover" data-attr="hovermode" data-val="closest" data-toggle="false" data-gravity="ne"><svg viewBox="0 0 1500 1000" class="icon" height="1em" width="1em"><path d="m375 725l0 0-375-375 375-374 0-1 1125 0 0 750-1125 0z" transform="matrix(1 0 0 -1 0 850)"></path></svg></a><a rel="tooltip" class="modebar-btn" data-title="Compare data on hover" data-attr="hovermode" data-val="x" data-toggle="false" data-gravity="ne"><svg viewBox="0 0 1125 1000" class="icon" height="1em" width="1em"><path d="m187 786l0 2-187-188 188-187 0 0 937 0 0 373-938 0z m0-499l0 1-187-188 188-188 0 0 937 0 0 376-938-1z" transform="matrix(1 0 0 -1 0 850)"></path></svg></a></div></div></div><svg class="main-svg" style="position: absolute" xmlns="http://www.w3.org/2000/svg" xmlns:xlink="http://www.w3.org/1999/xlink" width="1100" height="850"><g class="hoverlayer"></g></svg>