<svg class="main-svg" style="position: absolute" xmlns="http://www.w3.org/2000/svg" xmlns:xlink="http://www.w3.org/1999/xlink" width="1016.7081712062256" height="642" style="background: rgb(255, 255, 255);"><defs id="defs-4a5edd"><g class="clips"><clipPath id="clip4a5eddxyplot" class="plotclip"><rect width="817" height="462"></rect></clipPath><clipPath class="axesclip" id="clip4a5eddx"><rect x="80" y="0" width="817" height="642"></rect></clipPath><clipPath class="axesclip" id="clip4a5eddy"><rect x="0" y="100" width="1016.7081712062256" height="462"></rect></clipPath><clipPath class="axesclip" id="clip4a5eddxy"><rect x="80" y="100" width="817" height="462"></rect></clipPath></g><g class="gradients"></g></defs><g class="bglayer"></g><g class="draglayer cursor-crosshair"><g class="xy"><rect class="nsewdrag drag" data-subplot="xy" x="80" y="100" width="817" height="462" style="fill: transparent; stroke-width: 0; pointer-events: all;"></rect><rect class="nwdrag drag cursor-nw-resize" data-subplot="xy" x="60" y="80" width="20" height="20" style="fill: transparent; stroke-width: 0; pointer-events: all;"></rect><rect class="nedrag drag cursor-ne-resize" data-subplot="xy" x="897" y="80" width="20" height="20" style="fill: transparent; stroke-width: 0; pointer-events: all;"></rect><rect class="swdrag drag cursor-sw-resize" data-subplot="xy" x="60" y="562" width="20" height="20" style="fill: transparent; stroke-width: 0; pointer-events: all;"></rect><rect class="sedrag drag cursor-se-resize" data-subplot="xy" x="897" y="562" width="20" height="20" style="fill: transparent; stroke-width: 0; pointer-events: all;"></rect><rect class="ewdrag drag cursor-ew-resize" data-subplot="xy" x="161.7" y="562.5" width="653.6" height="20" style="fill: transparent; stroke-width: 0; pointer-events: all;"></rect><rect class="wdrag drag cursor-w-resize" data-subplot="xy" x="80" y="562.5" width="81.7" height="20" style="fill: transparent; stroke-width: 0; pointer-events: all;"></rect><rect class="edrag drag cursor-e-resize" data-subplot="xy" x="815.3000000000001" y="562.5" width="81.7" height="20" style="fill: transparent; stroke-width: 0; pointer-events: all;"></rect><rect class="nsdrag drag cursor-ns-resize" data-subplot="xy" x="59.5" y="146.2" width="20" height="369.6" style="fill: transparent; stroke-width: 0; pointer-events: all;"></rect><rect class="sdrag drag cursor-s-resize" data-subplot="xy" x="59.5" y="515.8" width="20" height="46.2" style="fill: transparent; stroke-width: 0; pointer-events: all;"></rect><rect class="ndrag drag cursor-n-resize" data-subplot="xy" x="59.5" y="100" width="20" height="46.2" style="fill: transparent; stroke-width: 0; pointer-events: all;"></rect></g></g><g class="layer-below"><g class="imagelayer"></g><g class="shapelayer"></g></g><g class="cartesianlayer"><g class="subplot xy"><g class="layer-subplot"><g class="shapelayer"></g><g class="imagelayer"></g></g><g class="gridlayer"><g class="x"><path class="xgrid crisp" transform="translate(146.69,0)" d="M0,100v462" style="stroke: rgb(238, 238, 238); stroke-opacity: 1; stroke-width: 1px;"></path><path class="xgrid crisp" transform="translate(294.03,0)" d="M0,100v462" style="stroke: rgb(238, 238, 238); stroke-opacity: 1; stroke-width: 1px;"></path><path class="xgrid crisp" transform="translate(441.37,0)" d="M0,100v462" style="stroke: rgb(238, 238, 238); stroke-opacity: 1; stroke-width: 1px;"></path><path class="xgrid crisp" transform="translate(588.71,0)" d="M0,100v462" style="stroke: rgb(238, 238, 238); stroke-opacity: 1; stroke-width: 1px;"></path><path class="xgrid crisp" transform="translate(736.05,0)" d="M0,100v462" style="stroke: rgb(238, 238, 238); stroke-opacity: 1; stroke-width: 1px;"></path><path class="xgrid crisp" transform="translate(883.39,0)" d="M0,100v462" style="stroke: rgb(238, 238, 238); stroke-opacity: 1; stroke-width: 1px;"></path></g><g class="y"><path class="ygrid crisp" transform="translate(0,477.24)" d="M80,0h817" style="stroke: rgb(238, 238, 238); stroke-opacity: 1; stroke-width: 1px;"></path><path class="ygrid crisp" transform="translate(0,407.92)" d="M80,0h817" style="stroke: rgb(238, 238, 238); stroke-opacity: 1; stroke-width: 1px;"></path><path class="ygrid crisp" transform="translate(0,338.59000000000003)" d="M80,0h817" style="stroke: rgb(238, 238, 238); stroke-opacity: 1; stroke-width: 1px;"></path><path class="ygrid crisp" transform="translate(0,269.27)" d="M80,0h817" style="stroke: rgb(238, 238, 238); stroke-opacity: 1; stroke-width: 1px;"></path><path class="ygrid crisp" transform="translate(0,199.94)" d="M80,0h817" style="stroke: rgb(238, 238, 238); stroke-opacity: 1; stroke-width: 1px;"></path><path class="ygrid crisp" transform="translate(0,130.62)" d="M80,0h817" style="stroke: rgb(238, 238, 238); stroke-opacity: 1; stroke-width: 1px;"></path></g></g><g class="zerolinelayer"><path class="yzl zl crisp" transform="translate(0,546.5699999999999)" d="M80,0h817" style="stroke: rgb(68, 68, 68); stroke-opacity: 1; stroke-width: 1px;"></path></g><path class="xlines-below"></path><path class="ylines-below"></path><g class="overlines-below"></g><g class="xaxislayer-below"></g><g class="yaxislayer-below"></g><g class="overaxes-below"></g><g class="plot" transform="translate(80,100)" clip-path="url('#clip4a5eddxyplot')"><g class="scatterlayer mlayer"><g class="trace scatter trace9b55ae" style="stroke-miterlimit: 2; opacity: 1;"><g class="fills"></g><g class="errorbars"></g><g class="lines"><path class="js-line" d="M-80.65,435.82Q17.58,429.09 66.69,425.77C115.8,422.46 164.91,419.04 214.03,415.93C263.14,412.82 312.27,410.35 361.37,407.12Q410.49,403.88 508.71,396.52" style="vector-effect: non-scaling-stroke; fill: none; stroke: rgb(31, 119, 180); stroke-opacity: 1; stroke-width: 2px; opacity: 1;"></path></g><g class="points"><path class="point" transform="translate(-80.65,435.82)" d="M3,0A3,3 0 1,1 0,-3A3,3 0 0,1 3,0Z" style="opacity: 1; stroke-width: 0px; fill: rgb(31, 119, 180); fill-opacity: 1;"></path><path class="point" transform="translate(66.69,425.77)" d="M3,0A3,3 0 1,1 0,-3A3,3 0 0,1 3,0Z" style="opacity: 1; stroke-width: 0px; fill: rgb(31, 119, 180); fill-opacity: 1;"></path><path class="point" transform="translate(214.03,415.93)" d="M3,0A3,3 0 1,1 0,-3A3,3 0 0,1 3,0Z" style="opacity: 1; stroke-width: 0px; fill: rgb(31, 119, 180); fill-opacity: 1;"></path><path class="point" transform="translate(361.37,407.12)" d="M3,0A3,3 0 1,1 0,-3A3,3 0 0,1 3,0Z" style="opacity: 1; stroke-width: 0px; fill: rgb(31, 119, 180); fill-opacity: 1;"></path><path class="point" transform="translate(508.71,396.52)" d="M3,0A3,3 0 1,1 0,-3A3,3 0 0,1 3,0Z" style="opacity: 1; stroke-width: 0px; fill: rgb(31, 119, 180); fill-opacity: 1;"></path></g><g class="text"></g></g><g class="trace scatter traceab9e39" style="stroke-miterlimit: 2; opacity: 1;"><g class="fills"></g><g class="errorbars"></g><g class="lines"><path class="js-line" d="M-80.65,441.23Q17.57,437.39 66.69,435.69C115.8,433.99 164.92,432.56 214.03,431.04C263.14,429.53 312.26,428.1 361.37,426.6Q410.48,425.1 508.71,422.03" style="vector-effect: non-scaling-stroke; fill: none; stroke: rgb(255, 127, 14); stroke-opacity: 1; stroke-width: 2px; opacity: 1;"></path></g><g class="points"><path class="point" transform="translate(-80.65,441.23)" d="M3,0A3,3 0 1,1 0,-3A3,3 0 0,1 3,0Z" style="opacity: 1; stroke-width: 0px; fill: rgb(255, 127, 14); fill-opacity: 1;"></path><path class="point" transform="translate(66.69,435.69)" d="M3,0A3,3 0 1,1 0,-3A3,3 0 0,1 3,0Z" style="opacity: 1; stroke-width: 0px; fill: rgb(255, 127, 14); fill-opacity: 1;"></path><path class="point" transform="translate(214.03,431.04)" d="M3,0A3,3 0 1,1 0,-3A3,3 0 0,1 3,0Z" style="opacity: 1; stroke-width: 0px; fill: rgb(255, 127, 14); fill-opacity: 1;"></path><path class="point" transform="translate(361.37,426.6)" d="M3,0A3,3 0 1,1 0,-3A3,3 0 0,1 3,0Z" style="opacity: 1; stroke-width: 0px; fill: rgb(255, 127, 14); fill-opacity: 1;"></path><path class="point" transform="translate(508.71,422.03)" d="M3,0A3,3 0 1,1 0,-3A3,3 0 0,1 3,0Z" style="opacity: 1; stroke-width: 0px; fill: rgb(255, 127, 14); fill-opacity: 1;"></path></g><g class="text"></g></g><g class="trace scatter trace6d0977" style="stroke-miterlimit: 2; opacity: 1;"><g class="fills"></g><g class="errorbars"></g><g class="lines"><path class="js-line" d="M-80.65,423.9Q17.58,411.9 66.69,405.88C115.8,399.86 164.97,394.63 214.03,387.78C263.2,380.91 312.18,371.28 361.37,364.7Q410.41,358.14 508.71,348.34" style="vector-effect: non-scaling-stroke; fill: none; stroke: rgb(44, 160, 44); stroke-opacity: 1; stroke-width: 2px; opacity: 1;"></path></g><g class="points"><path class="point" transform="translate(-80.65,423.9)" d="M3,0A3,3 0 1,1 0,-3A3,3 0 0,1 3,0Z" style="opacity: 1; stroke-width: 0px; fill: rgb(44, 160, 44); fill-opacity: 1;"></path><path class="point" transform="translate(66.69,405.88)" d="M3,0A3,3 0 1,1 0,-3A3,3 0 0,1 3,0Z" style="opacity: 1; stroke-width: 0px; fill: rgb(44, 160, 44); fill-opacity: 1;"></path><path class="point" transform="translate(214.03,387.78)" d="M3,0A3,3 0 1,1 0,-3A3,3 0 0,1 3,0Z" style="opacity: 1; stroke-width: 0px; fill: rgb(44, 160, 44); fill-opacity: 1;"></path><path class="point" transform="translate(361.37,364.7)" d="M3,0A3,3 0 1,1 0,-3A3,3 0 0,1 3,0Z" style="opacity: 1; stroke-width: 0px; fill: rgb(44, 160, 44); fill-opacity: 1;"></path><path class="point" transform="translate(508.71,348.34)" d="M3,0A3,3 0 1,1 0,-3A3,3 0 0,1 3,0Z" style="opacity: 1; stroke-width: 0px; fill: rgb(44, 160, 44); fill-opacity: 1;"></path></g><g class="text"></g></g><g class="trace scatter trace107797" style="stroke-miterlimit: 2; opacity: 1;"><g class="fills"></g><g class="errorbars"></g><g class="lines"><path class="js-line" d="M-80.65,362.69Q17.35,312.18 66.69,288.51C115.58,265.06 164.98,243.99 214.03,221.26C263.21,198.47 312.17,174.62 361.37,151.94C410.4,129.34 459.8,108.51 508.71,85.39C558.03,62.08 606.73,35.91 656.05,12.6Q704.96,-10.52 803.39,-53.96" style="vector-effect: non-scaling-stroke; fill: none; stroke: rgb(214, 39, 40); stroke-opacity: 1; stroke-width: 2px; opacity: 1;"></path></g><g class="points"><path class="point" transform="translate(-80.65,362.69)" d="M3,0A3,3 0 1,1 0,-3A3,3 0 0,1 3,0Z" style="opacity: 1; stroke-width: 0px; fill: rgb(214, 39, 40); fill-opacity: 1;"></path><path class="point" transform="translate(66.69,288.51)" d="M3,0A3,3 0 1,1 0,-3A3,3 0 0,1 3,0Z" style="opacity: 1; stroke-width: 0px; fill: rgb(214, 39, 40); fill-opacity: 1;"></path><path class="point" transform="translate(214.03,221.26)" d="M3,0A3,3 0 1,1 0,-3A3,3 0 0,1 3,0Z" style="opacity: 1; stroke-width: 0px; fill: rgb(214, 39, 40); fill-opacity: 1;"></path><path class="point" transform="translate(361.37,151.94)" d="M3,0A3,3 0 1,1 0,-3A3,3 0 0,1 3,0Z" style="opacity: 1; stroke-width: 0px; fill: rgb(214, 39, 40); fill-opacity: 1;"></path><path class="point" transform="translate(508.71,85.39)" d="M3,0A3,3 0 1,1 0,-3A3,3 0 0,1 3,0Z" style="opacity: 1; stroke-width: 0px; fill: rgb(214, 39, 40); fill-opacity: 1;"></path><path class="point" transform="translate(656.05,12.6)" d="M3,0A3,3 0 1,1 0,-3A3,3 0 0,1 3,0Z" style="opacity: 1; stroke-width: 0px; fill: rgb(214, 39, 40); fill-opacity: 1;"></path><path class="point" transform="translate(803.39,-53.96)" d="M3,0A3,3 0 1,1 0,-3A3,3 0 0,1 3,0Z" style="opacity: 1; stroke-width: 0px; fill: rgb(214, 39, 40); fill-opacity: 1;"></path></g><g class="text"></g></g><g class="trace scatter traced17ced" style="stroke-miterlimit: 2; opacity: 0.5;"><g class="fills"></g><g class="errorbars"></g><g class="lines"><path class="js-line" d="M-80.65,360.24Q-68.62,354.59 -62.61,351.76C-56.6,348.94 -50.58,346.11 -44.57,343.29C-38.56,340.46 -32.54,337.64 -26.53,334.81C-20.52,331.99 -14.5,329.16 -8.49,326.34C-2.48,323.52 3.54,320.69 9.55,317.87C15.57,315.04 21.58,312.22 27.6,309.39C33.61,306.57 39.63,303.74 45.64,300.92C51.65,298.1 57.67,295.27 63.68,292.45C69.69,289.62 75.71,286.8 81.72,283.97C87.73,281.15 93.75,278.32 99.76,275.5C105.77,272.68 111.79,269.85 117.8,267.03C123.82,264.2 129.83,261.38 135.85,258.55C141.86,255.73 147.88,252.9 153.89,250.08C159.9,247.25 165.92,244.43 171.93,241.6C177.94,238.78 183.96,235.95 189.97,233.13C195.98,230.31 202,227.48 208.01,224.66C214.03,221.83 220.04,219.01 226.06,216.18C232.07,213.36 238.09,210.53 244.1,207.71C250.11,204.89 256.13,202.06 262.14,199.24C268.15,196.41 274.17,193.59 280.18,190.76C286.19,187.94 292.21,185.11 298.22,182.29C304.23,179.47 310.25,176.64 316.26,173.82C322.28,170.99 328.29,168.17 334.31,165.34C340.32,162.52 346.34,159.69 352.35,156.87C358.36,154.04 364.38,151.22 370.39,148.39C376.4,145.57 382.42,142.74 388.43,139.92C394.44,137.1 400.46,134.27 406.47,131.45C412.48,128.62 418.5,125.79 424.51,122.97C430.53,120.14 436.54,117.32 442.56,114.5C448.57,111.68 454.59,108.85 460.6,106.03C466.61,103.2 472.63,100.38 478.64,97.55C484.65,94.73 490.67,91.9 496.68,89.08C502.69,86.26 508.71,83.43 514.72,80.61C520.73,77.78 526.75,74.95 532.76,72.13C538.78,69.3 544.79,66.48 550.81,63.66C556.82,60.84 562.84,58.01 568.85,55.19C574.86,52.36 580.88,49.54 586.89,46.71C592.9,43.89 598.92,41.06 604.93,38.24C610.94,35.41 616.96,32.59 622.97,29.76C628.98,26.94 635,24.11 641.01,21.29C647.03,18.47 653.04,15.65 659.06,12.82C665.07,10 671.09,7.17 677.1,4.34C683.11,1.52 689.13,-1.31 695.14,-4.13C701.15,-6.95 707.17,-9.78 713.18,-12.6C719.19,-15.43 725.21,-18.25 731.22,-21.08C737.23,-23.9 743.25,-26.73 749.26,-29.55C755.28,-32.37 761.29,-35.19 767.31,-38.02C773.32,-40.84 779.34,-43.67 785.35,-46.5Q791.36,-49.32 803.39,-54.97" style="vector-effect: non-scaling-stroke; fill: none; stroke: rgb(214, 39, 40); stroke-opacity: 1; stroke-width: 4px; opacity: 1;"></path></g><g class="points"></g><g class="text"></g></g><g class="trace scatter tracebca576" style="stroke-miterlimit: 2; opacity: 0.5;"><g class="fills"></g><g class="errorbars"></g><g class="lines"><path class="js-line" d="M-80.65,424.58Q-72.64,423.53 -68.63,423.01C-64.62,422.49 -60.61,421.96 -56.6,421.44C-52.59,420.92 -48.58,420.39 -44.57,419.87C-40.56,419.35 -36.55,418.82 -32.54,418.3C-28.53,417.78 -24.52,417.25 -20.51,416.73C-16.5,416.21 -12.5,415.68 -8.49,415.16C-4.48,414.64 -0.47,414.11 3.54,413.59C7.55,413.07 11.56,412.54 15.57,412.02C19.58,411.5 23.59,410.97 27.6,410.45C31.61,409.93 35.61,409.4 39.62,408.88C43.63,408.36 47.64,407.83 51.65,407.31C55.66,406.79 59.67,406.26 63.68,405.74C67.69,405.22 71.7,404.69 75.71,404.17C79.72,403.65 83.73,403.12 87.74,402.6C91.75,402.08 95.75,401.55 99.76,401.03C103.77,400.51 107.78,399.98 111.79,399.46C115.8,398.94 119.81,398.41 123.82,397.89C127.83,397.37 131.84,396.84 135.85,396.32C139.86,395.8 143.86,395.27 147.87,394.75C151.88,394.23 155.89,393.7 159.9,393.18C163.91,392.66 167.92,392.13 171.93,391.61C175.94,391.09 179.95,390.56 183.96,390.04C187.97,389.52 191.98,388.99 195.99,388.47C200,387.95 204,387.42 208.01,386.9C212.02,386.38 216.03,385.85 220.04,385.33C224.05,384.81 228.06,384.28 232.07,383.76C236.08,383.24 240.09,382.71 244.1,382.19C248.11,381.67 252.11,381.14 256.12,380.62C260.13,380.1 264.14,379.57 268.15,379.05C272.16,378.53 276.17,378 280.18,377.48C284.19,376.96 288.2,376.43 292.21,375.91C296.22,375.39 300.23,374.86 304.24,374.34C308.25,373.82 312.25,373.29 316.26,372.77C320.27,372.25 324.28,371.72 328.29,371.2C332.3,370.68 336.31,370.15 340.32,369.63C344.33,369.11 348.34,368.58 352.35,368.06C356.36,367.54 360.36,367.01 364.37,366.49C368.38,365.97 372.39,365.44 376.4,364.92C380.41,364.4 384.42,363.88 388.43,363.36C392.44,362.84 396.45,362.31 400.46,361.79C404.47,361.27 408.48,360.74 412.49,360.22C416.5,359.7 420.5,359.17 424.51,358.65C428.52,358.13 432.53,357.6 436.54,357.08C440.55,356.56 444.56,356.03 448.57,355.51C452.58,354.99 456.59,354.46 460.6,353.94C464.61,353.42 468.61,352.89 472.62,352.37C476.63,351.85 480.64,351.32 484.65,350.8C488.66,350.28 492.67,349.75 496.68,349.23Q500.69,348.71 508.71,347.66" style="vector-effect: non-scaling-stroke; fill: none; stroke: rgb(44, 160, 44); stroke-opacity: 1; stroke-width: 4px; opacity: 1;"></path></g><g class="points"></g><g class="text"></g></g><g class="trace scatter trace0c5d51" style="stroke-miterlimit: 2; opacity: 0.5;"><g class="fills"></g><g class="errorbars"></g><g class="lines"><path class="js-line" d="M-80.65,440.82Q-72.64,440.56 -68.63,440.43C-64.62,440.3 -60.61,440.17 -56.6,440.04C-52.59,439.91 -48.58,439.78 -44.57,439.65C-40.56,439.52 -36.55,439.39 -32.54,439.26C-28.53,439.13 -24.52,439.01 -20.51,438.88C-16.5,438.75 -12.5,438.62 -8.49,438.49C-4.48,438.36 -0.47,438.23 3.54,438.1C7.55,437.97 11.56,437.84 15.57,437.71C19.58,437.58 23.59,437.46 27.6,437.33C31.61,437.2 35.61,437.07 39.62,436.94C43.63,436.81 47.64,436.68 51.65,436.55C55.66,436.42 59.67,436.29 63.68,436.16C67.69,436.03 71.7,435.91 75.71,435.78C79.72,435.65 83.73,435.52 87.74,435.39C91.75,435.26 95.75,435.13 99.76,435C103.77,434.87 107.78,434.74 111.79,434.61C115.8,434.48 119.81,434.36 123.82,434.23C127.83,434.1 131.84,433.97 135.85,433.84C139.86,433.71 143.86,433.58 147.87,433.45C151.88,433.32 155.89,433.19 159.9,433.06C163.91,432.93 167.92,432.8 171.93,432.67C175.94,432.54 179.95,432.42 183.96,432.29C187.97,432.16 191.98,432.03 195.99,431.9C200,431.77 204,431.64 208.01,431.51C212.02,431.38 216.03,431.25 220.04,431.12C224.05,430.99 228.06,430.87 232.07,430.74C236.08,430.61 240.09,430.48 244.1,430.35C248.11,430.22 252.11,430.09 256.12,429.96C260.13,429.83 264.14,429.7 268.15,429.57C272.16,429.44 276.17,429.32 280.18,429.19C284.19,429.06 288.2,428.93 292.21,428.8C296.22,428.67 300.23,428.54 304.24,428.41C308.25,428.28 312.25,428.15 316.26,428.02C320.27,427.89 324.28,427.77 328.29,427.64C332.3,427.51 336.31,427.38 340.32,427.25C344.33,427.12 348.34,426.99 352.35,426.86C356.36,426.73 360.36,426.6 364.37,426.47C368.38,426.34 372.39,426.21 376.4,426.08C380.41,425.95 384.42,425.83 388.43,425.7C392.44,425.57 396.45,425.44 400.46,425.31C404.47,425.18 408.48,425.05 412.49,424.92C416.5,424.79 420.5,424.66 424.51,424.53C428.52,424.4 432.53,424.28 436.54,424.15C440.55,424.02 444.56,423.89 448.57,423.76C452.58,423.63 456.59,423.5 460.6,423.37C464.61,423.24 468.61,423.11 472.62,422.98C476.63,422.85 480.64,422.73 484.65,422.6C488.66,422.47 492.67,422.34 496.68,422.21Q500.69,422.08 508.71,421.82" style="vector-effect: non-scaling-stroke; fill: none; stroke: rgb(255, 127, 14); stroke-opacity: 1; stroke-width: 4px; opacity: 1;"></path></g><g class="points"></g><g class="text"></g></g><g class="trace scatter traceecaf5b" style="stroke-miterlimit: 2; opacity: 0.5;"><g class="fills"></g><g class="errorbars"></g><g class="lines"><path class="js-line" d="M-80.65,435.69Q-72.64,435.15 -68.63,434.89C-64.62,434.62 -60.61,434.36 -56.6,434.1C-52.59,433.83 -48.58,433.57 -44.57,433.3C-40.56,433.04 -36.55,432.77 -32.54,432.51C-28.53,432.25 -24.52,431.99 -20.51,431.72C-16.5,431.46 -12.5,431.18 -8.49,430.92C-4.48,430.65 -0.47,430.39 3.54,430.13C7.55,429.86 11.56,429.6 15.57,429.33C19.58,429.07 23.59,428.8 27.6,428.54C31.61,428.28 35.61,428.01 39.62,427.75C43.63,427.48 47.64,427.22 51.65,426.95C55.66,426.69 59.67,426.42 63.68,426.16C67.69,425.89 71.7,425.63 75.71,425.36C79.72,425.1 83.73,424.83 87.74,424.57C91.75,424.31 95.75,424.04 99.76,423.78C103.77,423.51 107.78,423.25 111.79,422.98C115.8,422.72 119.81,422.45 123.82,422.19C127.83,421.92 131.84,421.66 135.85,421.39C139.86,421.13 143.86,420.86 147.87,420.6C151.88,420.34 155.89,420.07 159.9,419.81C163.91,419.54 167.92,419.28 171.93,419.01C175.94,418.75 179.95,418.48 183.96,418.22C187.97,417.95 191.98,417.69 195.99,417.42C200,417.16 204,416.89 208.01,416.63C212.02,416.37 216.03,416.1 220.04,415.84C224.05,415.57 228.06,415.31 232.07,415.04C236.08,414.78 240.09,414.52 244.1,414.25C248.11,413.99 252.11,413.71 256.12,413.45C260.13,413.18 264.14,412.92 268.15,412.66C272.16,412.4 276.17,412.13 280.18,411.87C284.19,411.6 288.2,411.34 292.21,411.07C296.22,410.81 300.23,410.55 304.24,410.28C308.25,410.02 312.25,409.74 316.26,409.48C320.27,409.21 324.28,408.95 328.29,408.69C332.3,408.43 336.31,408.16 340.32,407.9C344.33,407.63 348.34,407.37 352.35,407.1C356.36,406.84 360.36,406.57 364.37,406.31C368.38,406.04 372.39,405.78 376.4,405.51C380.41,405.25 384.42,404.98 388.43,404.72C392.44,404.46 396.45,404.19 400.46,403.93C404.47,403.66 408.48,403.4 412.49,403.13C416.5,402.87 420.5,402.6 424.51,402.34C428.52,402.07 432.53,401.81 436.54,401.54C440.55,401.28 444.56,401.01 448.57,400.75C452.58,400.49 456.59,400.23 460.6,399.96C464.61,399.7 468.61,399.42 472.62,399.16C476.63,398.89 480.64,398.63 484.65,398.37C488.66,398.1 492.67,397.84 496.68,397.57Q500.69,397.31 508.71,396.78" style="vector-effect: non-scaling-stroke; fill: none; stroke: rgb(31, 119, 180); stroke-opacity: 1; stroke-width: 4px; opacity: 1;"></path></g><g class="points"></g><g class="text"></g></g></g></g><g class="overplot"></g><path class="xlines-above crisp" d="M0,0" style="fill: none;"></path><path class="ylines-above crisp" style="fill: none;" d="M0,0"></path><g class="overlines-above"></g><g class="xaxislayer-above"><g class="xtick"><text text-anchor="middle" x="0" y="575" data-unformatted="0.1" data-math="N" transform="translate(146.69,0)" style="font-family: &quot;Open Sans&quot;, verdana, arial, sans-serif; font-size: 12px; fill: rgb(68, 68, 68); fill-opacity: 1; white-space: pre;">0.1</text></g><g class="xtick"><text text-anchor="middle" x="0" y="575" data-unformatted="0.15" data-math="N" transform="translate(294.03,0)" style="font-family: &quot;Open Sans&quot;, verdana, arial, sans-serif; font-size: 12px; fill: rgb(68, 68, 68); fill-opacity: 1; white-space: pre;">0.15</text></g><g class="xtick"><text text-anchor="middle" x="0" y="575" data-unformatted="0.2" data-math="N" transform="translate(441.37,0)" style="font-family: &quot;Open Sans&quot;, verdana, arial, sans-serif; font-size: 12px; fill: rgb(68, 68, 68); fill-opacity: 1; white-space: pre;">0.2</text></g><g class="xtick"><text text-anchor="middle" x="0" y="575" data-unformatted="0.25" data-math="N" transform="translate(588.71,0)" style="font-family: &quot;Open Sans&quot;, verdana, arial, sans-serif; font-size: 12px; fill: rgb(68, 68, 68); fill-opacity: 1; white-space: pre;">0.25</text></g><g class="xtick"><text text-anchor="middle" x="0" y="575" data-unformatted="0.3" data-math="N" transform="translate(736.05,0)" style="font-family: &quot;Open Sans&quot;, verdana, arial, sans-serif; font-size: 12px; fill: rgb(68, 68, 68); fill-opacity: 1; white-space: pre;">0.3</text></g><g class="xtick"><text text-anchor="middle" x="0" y="575" data-unformatted="0.35" data-math="N" transform="translate(883.39,0)" style="font-family: &quot;Open Sans&quot;, verdana, arial, sans-serif; font-size: 12px; fill: rgb(68, 68, 68); fill-opacity: 1; white-space: pre;">0.35</text></g></g><g class="yaxislayer-above"><g class="ytick"><text text-anchor="end" x="79" y="4.199999999999999" data-unformatted="0" data-math="N" transform="translate(0,546.5699999999999)" style="font-family: &quot;Open Sans&quot;, verdana, arial, sans-serif; font-size: 12px; fill: rgb(68, 68, 68); fill-opacity: 1; white-space: pre;">0</text></g><g class="ytick"><text text-anchor="end" x="79" y="4.199999999999999" data-unformatted="1" data-math="N" transform="translate(0,477.24)" style="font-family: &quot;Open Sans&quot;, verdana, arial, sans-serif; font-size: 12px; fill: rgb(68, 68, 68); fill-opacity: 1; white-space: pre;">1</text></g><g class="ytick"><text text-anchor="end" x="79" y="4.199999999999999" data-unformatted="2" data-math="N" transform="translate(0,407.92)" style="font-family: &quot;Open Sans&quot;, verdana, arial, sans-serif; font-size: 12px; fill: rgb(68, 68, 68); fill-opacity: 1; white-space: pre;">2</text></g><g class="ytick"><text text-anchor="end" x="79" y="4.199999999999999" data-unformatted="3" data-math="N" transform="translate(0,338.59000000000003)" style="font-family: &quot;Open Sans&quot;, verdana, arial, sans-serif; font-size: 12px; fill: rgb(68, 68, 68); fill-opacity: 1; white-space: pre;">3</text></g><g class="ytick"><text text-anchor="end" x="79" y="4.199999999999999" data-unformatted="4" data-math="N" transform="translate(0,269.27)" style="font-family: &quot;Open Sans&quot;, verdana, arial, sans-serif; font-size: 12px; fill: rgb(68, 68, 68); fill-opacity: 1; white-space: pre;">4</text></g><g class="ytick"><text text-anchor="end" x="79" y="4.199999999999999" data-unformatted="5" data-math="N" transform="translate(0,199.94)" style="font-family: &quot;Open Sans&quot;, verdana, arial, sans-serif; font-size: 12px; fill: rgb(68, 68, 68); fill-opacity: 1; white-space: pre;">5</text></g><g class="ytick"><text text-anchor="end" x="79" y="4.199999999999999" data-unformatted="6" data-math="N" transform="translate(0,130.62)" style="font-family: &quot;Open Sans&quot;, verdana, arial, sans-serif; font-size: 12px; fill: rgb(68, 68, 68); fill-opacity: 1; white-space: pre;">6</text></g></g><g class="overaxes-above"></g></g></g><g class="polarlayer"></g><g class="ternarylayer"></g><g class="geolayer"></g><g class="funnelarealayer"></g><g class="pielayer"></g><g class="treemaplayer"></g><g class="sunburstlayer"></g><g class="glimages"></g></svg><div class="gl-container"></div><svg class="main-svg" style="position: absolute" xmlns="http://www.w3.org/2000/svg" xmlns:xlink="http://www.w3.org/1999/xlink" width="1016.7081712062256" height="642"><defs id="topdefs-4a5edd"><g class="clips"></g><clipPath id="legend4a5edd"><rect width="92" height="162" x="0" y="0"></rect></clipPath></defs><g class="indicatorlayer"></g><g class="layer-above"><g class="imagelayer"></g><g class="shapelayer"></g></g><g class="infolayer"><g class="legend" pointer-events="all" transform="translate(913.34,100)"><rect class="bg" shape-rendering="crispEdges" style="stroke: rgb(68, 68, 68); stroke-opacity: 1; fill: rgb(255, 255, 255); fill-opacity: 1; stroke-width: 0px;" width="92" height="162" x="0" y="0"></rect><g class="scrollbox" transform="" clip-path="url('#legend4a5edd')"><g class="groups"><g class="traces" transform="translate(0,14.5)" style="opacity: 1;"><text class="legendtext" text-anchor="start" x="40" y="4.680000000000001" data-unformatted="Col2" data-math="N" style="font-family: &quot;Open Sans&quot;, verdana, arial, sans-serif; font-size: 12px; fill: rgb(68, 68, 68); fill-opacity: 1; white-space: pre;">Col2</text><g class="layers" style="opacity: 1;"><g class="legendfill"></g><g class="legendlines"><path class="js-line" d="M5,0h30" style="fill: none; stroke: rgb(31, 119, 180); stroke-opacity: 1; stroke-width: 2px;"></path></g><g class="legendsymbols"><g class="legendpoints"><path class="scatterpts" transform="translate(20,0)" d="M3,0A3,3 0 1,1 0,-3A3,3 0 0,1 3,0Z" style="opacity: 1; stroke-width: 0px; fill: rgb(31, 119, 180); fill-opacity: 1;"></path></g></g></g><rect class="legendtoggle" pointer-events="all" x="0" y="-9.5" width="86.15625" height="19" style="cursor: pointer; fill: rgb(0, 0, 0); fill-opacity: 0;"></rect></g><g class="traces" style="opacity: 1;" transform="translate(0,33.5)"><text class="legendtext" text-anchor="start" x="40" y="4.680000000000001" data-unformatted="Col4" data-math="N" style="font-family: &quot;Open Sans&quot;, verdana, arial, sans-serif; font-size: 12px; fill: rgb(68, 68, 68); fill-opacity: 1; white-space: pre;">Col4</text><g class="layers" style="opacity: 1;"><g class="legendfill"></g><g class="legendlines"><path class="js-line" d="M5,0h30" style="fill: none; stroke: rgb(255, 127, 14); stroke-opacity: 1; stroke-width: 2px;"></path></g><g class="legendsymbols"><g class="legendpoints"><path class="scatterpts" transform="translate(20,0)" d="M3,0A3,3 0 1,1 0,-3A3,3 0 0,1 3,0Z" style="opacity: 1; stroke-width: 0px; fill: rgb(255, 127, 14); fill-opacity: 1;"></path></g></g></g><rect class="legendtoggle" pointer-events="all" x="0" y="-9.5" width="86.15625" height="19" style="cursor: pointer; fill: rgb(0, 0, 0); fill-opacity: 0;"></rect></g><g class="traces" style="opacity: 1;" transform="translate(0,52.5)"><text class="legendtext" text-anchor="start" x="40" y="4.680000000000001" data-unformatted="Col6" data-math="N" style="font-family: &quot;Open Sans&quot;, verdana, arial, sans-serif; font-size: 12px; fill: rgb(68, 68, 68); fill-opacity: 1; white-space: pre;">Col6</text><g class="layers" style="opacity: 1;"><g class="legendfill"></g><g class="legendlines"><path class="js-line" d="M5,0h30" style="fill: none; stroke: rgb(44, 160, 44); stroke-opacity: 1; stroke-width: 2px;"></path></g><g class="legendsymbols"><g class="legendpoints"><path class="scatterpts" transform="translate(20,0)" d="M3,0A3,3 0 1,1 0,-3A3,3 0 0,1 3,0Z" style="opacity: 1; stroke-width: 0px; fill: rgb(44, 160, 44); fill-opacity: 1;"></path></g></g></g><rect class="legendtoggle" pointer-events="all" x="0" y="-9.5" width="86.15625" height="19" style="cursor: pointer; fill: rgb(0, 0, 0); fill-opacity: 0;"></rect></g><g class="traces" style="opacity: 1;" transform="translate(0,71.5)"><text class="legendtext" text-anchor="start" x="40" y="4.680000000000001" data-unformatted="Col8" data-math="N" style="font-family: &quot;Open Sans&quot;, verdana, arial, sans-serif; font-size: 12px; fill: rgb(68, 68, 68); fill-opacity: 1; white-space: pre;">Col8</text><g class="layers" style="opacity: 1;"><g class="legendfill"></g><g class="legendlines"><path class="js-line" d="M5,0h30" style="fill: none; stroke: rgb(214, 39, 40); stroke-opacity: 1; stroke-width: 2px;"></path></g><g class="legendsymbols"><g class="legendpoints"><path class="scatterpts" transform="translate(20,0)" d="M3,0A3,3 0 1,1 0,-3A3,3 0 0,1 3,0Z" style="opacity: 1; stroke-width: 0px; fill: rgb(214, 39, 40); fill-opacity: 1;"></path></g></g></g><rect class="legendtoggle" pointer-events="all" x="0" y="-9.5" width="86.15625" height="19" style="cursor: pointer; fill: rgb(0, 0, 0); fill-opacity: 0;"></rect></g><g class="traces" style="opacity: 1;" transform="translate(0,90.5)"><text class="legendtext" text-anchor="start" x="40" y="4.680000000000001" data-unformatted="Col8 - fit" data-math="N" style="font-family: &quot;Open Sans&quot;, verdana, arial, sans-serif; font-size: 12px; fill: rgb(68, 68, 68); fill-opacity: 1; white-space: pre;">Col8 - fit</text><g class="layers" style="opacity: 0.5;"><g class="legendfill"></g><g class="legendlines"><path class="js-line" d="M5,0h30" style="fill: none; stroke: rgb(214, 39, 40); stroke-opacity: 1; stroke-width: 4px;"></path></g><g class="legendsymbols"><g class="legendpoints"></g></g></g><rect class="legendtoggle" pointer-events="all" x="0" y="-9.5" width="86.15625" height="19" style="cursor: pointer; fill: rgb(0, 0, 0); fill-opacity: 0;"></rect></g><g class="traces" style="opacity: 1;" transform="translate(0,109.5)"><text class="legendtext" text-anchor="start" x="40" y="4.680000000000001" data-unformatted="Col6 - fit" data-math="N" style="font-family: &quot;Open Sans&quot;, verdana, arial, sans-serif; font-size: 12px; fill: rgb(68, 68, 68); fill-opacity: 1; white-space: pre;">Col6 - fit</text><g class="layers" style="opacity: 0.5;"><g class="legendfill"></g><g class="legendlines"><path class="js-line" d="M5,0h30" style="fill: none; stroke: rgb(44, 160, 44); stroke-opacity: 1; stroke-width: 4px;"></path></g><g class="legendsymbols"><g class="legendpoints"></g></g></g><rect class="legendtoggle" pointer-events="all" x="0" y="-9.5" width="86.15625" height="19" style="cursor: pointer; fill: rgb(0, 0, 0); fill-opacity: 0;"></rect></g><g class="traces" style="opacity: 1;" transform="translate(0,128.5)"><text class="legendtext" text-anchor="start" x="40" y="4.680000000000001" data-unformatted="Col4 - fit" data-math="N" style="font-family: &quot;Open Sans&quot;, verdana, arial, sans-serif; font-size: 12px; fill: rgb(68, 68, 68); fill-opacity: 1; white-space: pre;">Col4 - fit</text><g class="layers" style="opacity: 0.5;"><g class="legendfill"></g><g class="legendlines"><path class="js-line" d="M5,0h30" style="fill: none; stroke: rgb(255, 127, 14); stroke-opacity: 1; stroke-width: 4px;"></path></g><g class="legendsymbols"><g class="legendpoints"></g></g></g><rect class="legendtoggle" pointer-events="all" x="0" y="-9.5" width="86.15625" height="19" style="cursor: pointer; fill: rgb(0, 0, 0); fill-opacity: 0;"></rect></g><g class="traces" style="opacity: 1;" transform="translate(0,147.5)"><text class="legendtext" text-anchor="start" x="40" y="4.680000000000001" data-unformatted="Col2 - fit" data-math="N" style="font-family: &quot;Open Sans&quot;, verdana, arial, sans-serif; font-size: 12px; fill: rgb(68, 68, 68); fill-opacity: 1; white-space: pre;">Col2 - fit</text><g class="layers" style="opacity: 0.5;"><g class="legendfill"></g><g class="legendlines"><path class="js-line" d="M5,0h30" style="fill: none; stroke: rgb(31, 119, 180); stroke-opacity: 1; stroke-width: 4px;"></path></g><g class="legendsymbols"><g class="legendpoints"></g></g></g><rect class="legendtoggle" pointer-events="all" x="0" y="-9.5" width="86.15625" height="19" style="cursor: pointer; fill: rgb(0, 0, 0); fill-opacity: 0;"></rect></g></g></g><rect class="scrollbar" rx="20" ry="3" width="0" height="0" style="fill: rgb(128, 139, 164); fill-opacity: 1;" x="0" y="0"></rect></g><g class="g-gtitle"></g><g class="g-xtitle"></g><g class="g-ytitle"></g></g><g class="menulayer"></g><g class="zoomlayer"></g></svg><div class="modebar-container" style="position: absolute; top: 0px; right: 0px; width: 100%;"><div id="modebar-4a5edd" class="modebar modebar--hover ease-bg"><div class="modebar-group"><a rel="tooltip" class="modebar-btn" data-title="Download plot as a png" data-toggle="false" data-gravity="n"><svg viewBox="0 0 1000 1000" class="icon" height="1em" width="1em"><path d="m500 450c-83 0-150-67-150-150 0-83 67-150 150-150 83 0 150 67 150 150 0 83-67 150-150 150z m400 150h-120c-16 0-34 13-39 29l-31 93c-6 15-23 28-40 28h-340c-16 0-34-13-39-28l-31-94c-6-15-23-28-40-28h-120c-55 0-100-45-100-100v-450c0-55 45-100 100-100h800c55 0 100 45 100 100v450c0 55-45 100-100 100z m-400-550c-138 0-250 112-250 250 0 138 112 250 250 250 138 0 250-112 250-250 0-138-112-250-250-250z m365 380c-19 0-35 16-35 35 0 19 16 35 35 35 19 0 35-16 35-35 0-19-16-35-35-35z" transform="matrix(1 0 0 -1 0 850)"></path></svg></a></div><div class="modebar-group"><a rel="tooltip" class="modebar-btn active" data-title="Zoom" data-attr="dragmode" data-val="zoom" data-toggle="false" data-gravity="n"><svg viewBox="0 0 1000 1000" class="icon" height="1em" width="1em"><path d="m1000-25l-250 251c40 63 63 138 63 218 0 224-182 406-407 406-224 0-406-182-406-406s183-406 407-406c80 0 155 22 218 62l250-250 125 125z m-812 250l0 438 437 0 0-438-437 0z m62 375l313 0 0-312-313 0 0 312z" transform="matrix(1 0 0 -1 0 850)"></path></svg></a><a rel="tooltip" class="modebar-btn" data-title="Pan" data-attr="dragmode" data-val="pan" data-toggle="false" data-gravity="n"><svg viewBox="0 0 1000 1000" class="icon" height="1em" width="1em"><path d="m1000 350l-187 188 0-125-250 0 0 250 125 0-188 187-187-187 125 0 0-250-250 0 0 125-188-188 186-187 0 125 252 0 0-250-125 0 187-188 188 188-125 0 0 250 250 0 0-126 187 188z" transform="matrix(1 0 0 -1 0 850)"></path></svg></a><a rel="tooltip" class="modebar-btn" data-title="Box Select" data-attr="dragmode" data-val="select" data-toggle="false" data-gravity="n"><svg viewBox="0 0 1000 1000" class="icon" height="1em" width="1em"><path d="m0 850l0-143 143 0 0 143-143 0z m286 0l0-143 143 0 0 143-143 0z m285 0l0-143 143 0 0 143-143 0z m286 0l0-143 143 0 0 143-143 0z m-857-286l0-143 143 0 0 143-143 0z m857 0l0-143 143 0 0 143-143 0z m-857-285l0-143 143 0 0 143-143 0z m857 0l0-143 143 0 0 143-143 0z m-857-286l0-143 143 0 0 143-143 0z m286 0l0-143 143 0 0 143-143 0z m285 0l0-143 143 0 0 143-143 0z m286 0l0-143 143 0 0 143-143 0z" transform="matrix(1 0 0 -1 0 850)"></path></svg></a><a rel="tooltip" class="modebar-btn" data-title="Lasso Select" data-attr="dragmode" data-val="lasso" data-toggle="false" data-gravity="n"><svg viewBox="0 0 1031 1000" class="icon" height="1em" width="1em"><path d="m1018 538c-36 207-290 336-568 286-277-48-473-256-436-463 10-57 36-108 76-151-13-66 11-137 68-183 34-28 75-41 114-42l-55-70 0 0c-2-1-3-2-4-3-10-14-8-34 5-45 14-11 34-8 45 4 1 1 2 3 2 5l0 0 113 140c16 11 31 24 45 40 4 3 6 7 8 11 48-3 100 0 151 9 278 48 473 255 436 462z m-624-379c-80 14-149 48-197 96 42 42 109 47 156 9 33-26 47-66 41-105z m-187-74c-19 16-33 37-39 60 50-32 109-55 174-68-42-25-95-24-135 8z m360 75c-34-7-69-9-102-8 8 62-16 128-68 170-73 59-175 54-244-5-9 20-16 40-20 61-28 159 121 317 333 354s407-60 434-217c28-159-121-318-333-355z" transform="matrix(1 0 0 -1 0 850)"></path></svg></a></div><div class="modebar-group"><a rel="tooltip" class="modebar-btn" data-title="Zoom in" data-attr="zoom" data-val="in" data-toggle="false" data-gravity="n"><svg viewBox="0 0 875 1000" class="icon" height="1em" width="1em"><path d="m1 787l0-875 875 0 0 875-875 0z m687-500l-187 0 0-187-125 0 0 187-188 0 0 125 188 0 0 187 125 0 0-187 187 0 0-125z" transform="matrix(1 0 0 -1 0 850)"></path></svg></a><a rel="tooltip" class="modebar-btn" data-title="Zoom out" data-attr="zoom" data-val="out" data-toggle="false" data-gravity="n"><svg viewBox="0 0 875 1000" class="icon" height="1em" width="1em"><path d="m0 788l0-876 875 0 0 876-875 0z m688-500l-500 0 0 125 500 0 0-125z" transform="matrix(1 0 0 -1 0 850)"></path></svg></a><a rel="tooltip" class="modebar-btn" data-title="Autoscale" data-attr="zoom" data-val="auto" data-toggle="false" data-gravity="n"><svg viewBox="0 0 1000 1000" class="icon" height="1em" width="1em"><path d="m250 850l-187 0-63 0 0-62 0-188 63 0 0 188 187 0 0 62z m688 0l-188 0 0-62 188 0 0-188 62 0 0 188 0 62-62 0z m-875-938l0 188-63 0 0-188 0-62 63 0 187 0 0 62-187 0z m875 188l0-188-188 0 0-62 188 0 62 0 0 62 0 188-62 0z m-125 188l-1 0-93-94-156 156 156 156 92-93 2 0 0 250-250 0 0-2 93-92-156-156-156 156 94 92 0 2-250 0 0-250 0 0 93 93 157-156-157-156-93 94 0 0 0-250 250 0 0 0-94 93 156 157 156-157-93-93 0 0 250 0 0 250z" transform="matrix(1 0 0 -1 0 850)"></path></svg></a><a rel="tooltip" class="modebar-btn" data-title="Reset axes" data-attr="zoom" data-val="reset" data-toggle="false" data-gravity="n"><svg viewBox="0 0 928.6 1000" class="icon" height="1em" width="1em"><path d="m786 296v-267q0-15-11-26t-25-10h-214v214h-143v-214h-214q-15 0-25 10t-11 26v267q0 1 0 2t0 2l321 264 321-264q1-1 1-4z m124 39l-34-41q-5-5-12-6h-2q-7 0-12 3l-386 322-386-322q-7-4-13-4-7 2-12 7l-35 41q-4 5-3 13t6 12l401 334q18 15 42 15t43-15l136-114v109q0 8 5 13t13 5h107q8 0 13-5t5-13v-227l122-102q5-5 6-12t-4-13z" transform="matrix(1 0 0 -1 0 850)"></path></svg></a></div><div class="modebar-group"><a rel="tooltip" class="modebar-btn" data-title="Toggle Spike Lines" data-attr="_cartesianSpikesEnabled" data-val="on" data-toggle="false" data-gravity="n"><svg viewBox="0 0 1000 1000" class="icon" height="1em" width="1em"><path d="M512 409c0-57-46-104-103-104-57 0-104 47-104 104 0 57 47 103 104 103 57 0 103-46 103-103z m-327-39l92 0 0 92-92 0z m-185 0l92 0 0 92-92 0z m370-186l92 0 0 93-92 0z m0-184l92 0 0 92-92 0z" transform="matrix(1.5 0 0 -1.5 0 850)"></path></svg></a><a rel="tooltip" class="modebar-btn" data-title="Show closest data on hover" data-attr="hovermode" data-val="closest" data-toggle="false" data-gravity="ne"><svg viewBox="0 0 1500 1000" class="icon" height="1em" width="1em"><path d="m375 725l0 0-375-375 375-374 0-1 1125 0 0 750-1125 0z" transform="matrix(1 0 0 -1 0 850)"></path></svg></a><a rel="tooltip" class="modebar-btn active" data-title="Compare data on hover" data-attr="hovermode" data-val="x" data-toggle="false" data-gravity="ne"><svg viewBox="0 0 1125 1000" class="icon" height="1em" width="1em"><path d="m187 786l0 2-187-188 188-187 0 0 937 0 0 373-938 0z m0-499l0 1-187-188 188-188 0 0 937 0 0 376-938-1z" transform="matrix(1 0 0 -1 0 850)"></path></svg></a></div></div></div><svg class="main-svg" style="position: absolute" xmlns="http://www.w3.org/2000/svg" xmlns:xlink="http://www.w3.org/1999/xlink" width="1016.7081712062256" height="642"><g class="hoverlayer"></g></svg>